<?xml version="1.0" encoding="UTF-8"?><svg xmlns="http://www.w3.org/2000/svg" viewBox="0 0 462.05 904.25"><defs><style>.cls-1,.cls-2{fill:#fff;}.cls-3,.cls-2,.cls-4,.cls-5,.cls-6,.cls-7{stroke-linecap:round;stroke-linejoin:round;}.cls-3,.cls-2,.cls-4,.cls-5,.cls-7{stroke:#000;}.cls-3,.cls-2,.cls-4,.cls-6,.cls-7{stroke-width:.5px;}.cls-3,.cls-5,.cls-6{fill:none;}.cls-4{fill:#c8e6c9;}.cls-5{stroke-width:.25px;}.cls-8{fill:#ffe0b2;}.cls-9{letter-spacing:-.11em;}.cls-6{stroke:#e0e0e0;}.cls-10{letter-spacing:-.09em;}.cls-11{font-family:ArialMT, Arial;font-size:4px;}.cls-12{letter-spacing:-.02em;}.cls-7{fill:#bbdefb;}.cls-13{letter-spacing:-.06em;}.cls-14{font-family:Arial-BoldMT, Arial;font-size:6px;font-weight:700;}</style></defs><g id="Bckground"><rect class="cls-1" width="462.05" height="904.25"/></g><g id="Frame"><rect class="cls-6" x="5.67" y="5.67" width="450.71" height="566.93"/><text class="cls-14" transform="translate(8.5 13.65)"><tspan x="0" y="0">Remote support / Customer</tspan></text><rect class="cls-6" x="5.67" y="572.6" width="450.71" height="325.98"/><text class="cls-14" transform="translate(8.5 580.58)"><tspan x="0" y="0">Engineer</tspan></text></g><g id="Blocks"><path class="cls-4" d="m82.2,56.69l28.35,14.17-28.35,14.17-28.35-14.17,28.35-14.17Z"/><text class="cls-11" transform="translate(66.08 69.9)"><tspan x="0" y="0">Media telescoping </tspan><tspan x="5.9" y="4.8">in Drawer ?</tspan></text><path class="cls-4" d="m167.24,85.04l28.35,14.17-28.35,14.17-28.35-14.17,28.35-14.17Z"/><text class="cls-11" transform="translate(150.34 100.64)"><tspan x="0" y="0">Media path clean ?</tspan></text><path class="cls-4" d="m167.24,396.85l28.35,14.17-28.35,14.17-28.35-14.17,28.35-14.17Z"/><text class="cls-11" transform="translate(152.79 410.06)"><tspan x="0" y="0">Core on winding </tspan><tspan x="8" y="4.8">clean ?</tspan></text><rect class="cls-7" x="53.86" y="113.39" width="56.69" height="28.35"/><text class="cls-11" transform="translate(69.86 128.99)"><tspan x="0" y="0">Reload media</tspan></text><rect class="cls-7" x="223.94" y="113.39" width="56.69" height="28.35"/><text class="cls-11" transform="translate(226.05 128.99)"><tspan x="0" y="0">Perform manual maintenance</tspan></text><rect class="cls-7" x="223.94" y="155.91" width="56.69" height="28.35"/><text class="cls-11" transform="translate(241.05 171.51)"><tspan x="0" y="0">Clean platen</tspan></text><rect class="cls-7" x="223.94" y="198.43" width="56.69" height="28.35"/><text class="cls-11" transform="translate(237.09 214.03)"><tspan x="0" y="0">Clean bu</tspan><tspan class="cls-12" x="16.01" y="0">f</tspan><tspan x="17.05" y="0">ferplate</tspan></text><rect class="cls-7" x="223.94" y="240.94" width="56.69" height="28.35"/><text class="cls-11" transform="translate(235.05 256.55)"><tspan x="0" y="0">Clean X-tran rollers</tspan></text><rect class="cls-7" x="223.94" y="283.46" width="56.69" height="28.35"/><text class="cls-11" transform="translate(235.61 299.07)"><tspan x="0" y="0">Clean guide profile</tspan></text><rect class="cls-7" x="223.94" y="325.98" width="56.69" height="28.35"/><text class="cls-11" transform="translate(237.72 341.59)"><tspan x="0" y="0">Clean foam strip</tspan></text><rect class="cls-7" x="223.94" y="368.5" width="56.69" height="28.35"/><text class="cls-11" transform="translate(237.28 384.11)"><tspan x="0" y="0">Clean roller-assy</tspan></text><rect class="cls-7" x="223.94" y="425.2" width="56.69" height="28.35"/><text class="cls-11" transform="translate(239.17 440.8)"><tspan x="0" y="0">Use other core</tspan></text><path class="cls-4" d="m167.24,453.54l28.35,14.17-28.35,14.17-28.35-14.17,28.35-14.17Z"/><text class="cls-11" transform="translate(155.24 466.75)"><tspan class="cls-9" x="0" y="0">T</tspan><tspan x="2" y="0">ake-up shaft</tspan><tspan x="5.89" y="4.8">good ?</tspan></text><rect class="cls-7" x="223.94" y="481.89" width="56.69" height="28.35"/><text class="cls-11" transform="translate(232.83 497.5)"><tspan x="0" y="0">Replace take-up shaft</tspan></text><path class="cls-4" d="m167.24,510.24l28.35,14.17-28.35,14.17-28.35-14.17,28.35-14.17Z"/><text class="cls-11" transform="translate(150.23 525.84)"><tspan class="cls-9" x="0" y="0">T</tspan><tspan x="2" y="0">ension bar good ?</tspan></text><rect class="cls-7" x="223.94" y="538.58" width="56.69" height="28.35"/><text class="cls-11" transform="translate(234.49 554.19)"><tspan x="0" y="0">Replace tension bar</tspan></text><path class="cls-4" d="m167.24,623.62l28.35,14.17-28.35,14.17-28.35-14.17,28.35-14.17Z"/><text class="cls-11" transform="translate(161.8 634.43)"><tspan x="0" y="0">Media </tspan><tspan x="-15.79" y="4.8">transport without winder </tspan><tspan x="-.67" y="9.6">good ?</tspan></text><path class="cls-4" d="m167.24,666.14l28.35,14.17-28.35,14.17-28.35-14.17,28.35-14.17Z"/><text class="cls-11" transform="translate(152.8 679.35)"><tspan x="0" y="0">Winder correctly </tspan><tspan x="3.66" y="4.8">positioned ?</tspan></text><rect class="cls-7" x="223.94" y="694.49" width="56.69" height="28.35"/><text class="cls-11" transform="translate(236.39 710.09)"><tspan x="0" y="0">Reposition winder</tspan></text><rect class="cls-7" x="394.02" y="694.49" width="56.69" height="28.35"/><text class="cls-11" transform="translate(403.02 710.09)"><tspan x="0" y="0">Replace X-tran rollers</tspan></text><path class="cls-4" d="m167.24,722.83l28.35,14.17-28.35,14.17-28.35-14.17,28.35-14.17Z"/><text class="cls-11" transform="translate(155.02 736.04)"><tspan x="0" y="0">Winder clamp </tspan><tspan x="-1.34" y="4.8">moving freely ?</tspan></text><rect class="cls-7" x="223.94" y="751.18" width="56.69" height="28.35"/><text class="cls-11" transform="translate(236.83 766.79)"><tspan x="0" y="0">Call Service HQ</tspan><tspan class="cls-13" x="28.45" y="0">A</tspan></text><rect class="cls-7" x="138.9" y="581.1" width="56.69" height="28.35"/><text class="cls-11" transform="translate(156.24 596.71)"><tspan x="0" y="0">Level printer</tspan></text><rect class="cls-8" x="53.86" y="28.35" width="56.69" height="14.17" rx="5.67" ry="5.67"/><rect class="cls-3" x="53.86" y="28.35" width="56.69" height="14.17" rx="5.67" ry="5.67"/><text class="cls-11" transform="translate(55.53 34.38)"><tspan x="0" y="0">Image position slowly drifting / </tspan><tspan x="9.45" y="4.8">Winding not correct</tspan></text><path class="cls-4" d="m337.32,666.14l28.35,14.17-28.35,14.17-28.35-14.17,28.35-14.17Z"/><text class="cls-11" transform="translate(326.88 679.35)"><tspan x="0" y="0">X-tran roller</tspan><tspan x="4.33" y="4.8">good ?</tspan></text><rect class="cls-7" x="394.02" y="751.18" width="56.69" height="28.35"/><text class="cls-11" transform="translate(406.83 766.79)"><tspan x="0" y="0">Adjust bu</tspan><tspan class="cls-12" x="16.68" y="0">f</tspan><tspan x="17.72" y="0">ferplate</tspan></text><path class="cls-4" d="m337.32,722.83l28.35,14.17-28.35,14.17-28.35-14.17,28.35-14.17Z"/><text class="cls-11" transform="translate(331.65 733.64)"><tspan x="0" y="0">Check </tspan><tspan x="-15.53" y="4.8">performance bu</tspan><tspan class="cls-12" x="12.49" y="4.8">f</tspan><tspan x="13.53" y="4.8">ferplate </tspan><tspan x="-.45" y="9.6">good ?</tspan></text><rect class="cls-7" x="394.02" y="864.57" width="56.69" height="28.35"/><text class="cls-11" transform="translate(407.02 880.17)"><tspan x="0" y="0">Adjust Jumbo roll</tspan></text><path class="cls-4" d="m337.32,779.53l28.35,14.17-28.35,14.17-28.35-14.17,28.35-14.17Z"/><text class="cls-11" transform="translate(320.98 792.73)"><tspan x="0" y="0">Media stick to rear </tspan><tspan x="8.78" y="4.8">covers ?</tspan></text><path class="cls-4" d="m422.36,807.87l28.35,14.17-28.35,14.17-28.35-14.17,28.35-14.17Z"/><text class="cls-11" transform="translate(413.14 821.08)"><tspan x="0" y="0">Jumbo roll</tspan><tspan x=".89" y="4.8">present ?</tspan></text><rect class="cls-7" x="308.98" y="822.05" width="56.69" height="28.35"/><text class="cls-11" transform="translate(320.98 837.65)"><tspan x="0" y="0">Ground rear-cover</tspan></text></g><g id="Lines"><line class="cls-8" x1="82.2" y1="42.52" x2="82.2" y2="56.69"/><line class="cls-5" x1="82.2" y1="42.52" x2="82.2" y2="54.43"/><path d="m82.2,56.69c-.4-1.06-1.07-2.39-1.78-3.21l1.78.65,1.78-.65c-.71.82-1.39,2.14-1.78,3.21Z"/><line class="cls-8" x1="82.2" y1="85.04" x2="82.2" y2="113.39"/><line class="cls-5" x1="82.2" y1="85.04" x2="82.2" y2="111.12"/><path d="m82.2,113.39c-.4-1.06-1.07-2.39-1.78-3.21l1.78.65,1.78-.65c-.71.82-1.39,2.14-1.78,3.21Z"/><line class="cls-8" x1="167.24" y1="113.39" x2="167.24" y2="396.85"/><line class="cls-5" x1="167.24" y1="113.39" x2="167.24" y2="394.59"/><path d="m167.24,396.85c-.4-1.06-1.07-2.39-1.78-3.21l1.78.65,1.78-.65c-.71.82-1.39,2.14-1.78,3.21Z"/><line class="cls-8" x1="167.24" y1="425.2" x2="167.24" y2="453.54"/><line class="cls-5" x1="167.24" y1="425.2" x2="167.24" y2="451.28"/><path d="m167.24,453.54c-.4-1.06-1.07-2.39-1.78-3.21l1.78.65,1.78-.65c-.71.82-1.39,2.14-1.78,3.21Z"/><polyline class="cls-5" points="110.55 70.87 167.24 70.87 167.24 82.78"/><path d="m167.24,85.04c-.4-1.06-1.07-2.39-1.78-3.21l1.78.65,1.78-.65c-.71.82-1.39,2.14-1.78,3.21Z"/><polyline class="cls-5" points="195.59 99.21 252.28 99.21 252.28 111.12"/><path d="m252.28,113.39c-.4-1.06-1.07-2.39-1.78-3.21l1.78.65,1.78-.65c-.71.82-1.39,2.14-1.78,3.21Z"/><polyline class="cls-5" points="195.59 411.02 252.28 411.02 252.28 422.93"/><path d="m252.28,425.2c-.4-1.06-1.07-2.39-1.78-3.21l1.78.65,1.78-.65c-.71.82-1.39,2.14-1.78,3.21Z"/><path class="cls-1" d="m207.64,411.02c0,1.56-1.28,2.83-2.83,2.83h-4.25c-1.56,0-2.83-1.28-2.83-2.83h0c0-1.56,1.28-2.83,2.83-2.83h4.25c1.56,0,2.83,1.28,2.83,2.83h0Z"/><path class="cls-3" d="m207.64,411.02c0,1.56-1.28,2.83-2.83,2.83h-4.25c-1.56,0-2.83-1.28-2.83-2.83h0c0-1.56,1.28-2.83,2.83-2.83h4.25c1.56,0,2.83,1.28,2.83,2.83h0Z"/><text class="cls-11" transform="translate(200.12 412.52)"><tspan x="0" y="0">No</tspan></text><path class="cls-1" d="m207.64,99.21c0,1.56-1.28,2.83-2.83,2.83h-4.25c-1.56,0-2.83-1.28-2.83-2.83s1.28-2.83,2.83-2.83h4.25c1.56,0,2.83,1.28,2.83,2.83Z"/><path class="cls-3" d="m207.64,99.21c0,1.56-1.28,2.83-2.83,2.83h-4.25c-1.56,0-2.83-1.28-2.83-2.83s1.28-2.83,2.83-2.83h4.25c1.56,0,2.83,1.28,2.83,2.83Z"/><text class="cls-11" transform="translate(200.12 100.7)"><tspan x="0" y="0">No</tspan></text><path class="cls-1" d="m122.6,70.87c0,1.56-1.28,2.83-2.83,2.83h-4.25c-1.56,0-2.83-1.28-2.83-2.83h0c0-1.56,1.28-2.83,2.83-2.83h4.25c1.56,0,2.83,1.28,2.83,2.83h0Z"/><path class="cls-3" d="m122.6,70.87c0,1.56-1.28,2.83-2.83,2.83h-4.25c-1.56,0-2.83-1.28-2.83-2.83h0c0-1.56,1.28-2.83,2.83-2.83h4.25c1.56,0,2.83,1.28,2.83,2.83h0Z"/><text class="cls-11" transform="translate(115.08 72.36)"><tspan x="0" y="0">No</tspan></text><path class="cls-1" d="m172.2,119.18c0,1.56-1.28,2.83-2.83,2.83h-4.25c-1.56,0-2.83-1.28-2.83-2.83s1.28-2.83,2.83-2.83h4.25c1.56,0,2.83,1.28,2.83,2.83Z"/><path class="cls-3" d="m172.2,119.18c0,1.56-1.28,2.83-2.83,2.83h-4.25c-1.56,0-2.83-1.28-2.83-2.83s1.28-2.83,2.83-2.83h4.25c1.56,0,2.83,1.28,2.83,2.83Z"/><text class="cls-11" transform="translate(163.98 120.67)"><tspan class="cls-10" x="0" y="0">Y</tspan><tspan x="2.3" y="0">es</tspan></text><line class="cls-8" x1="252.28" y1="141.73" x2="252.28" y2="155.91"/><line class="cls-5" x1="252.28" y1="141.73" x2="252.28" y2="153.64"/><path d="m252.28,155.91c-.4-1.06-1.07-2.39-1.78-3.21l1.78.65,1.78-.65c-.71.82-1.39,2.14-1.78,3.21Z"/><line class="cls-8" x1="252.28" y1="184.25" x2="252.28" y2="198.43"/><line class="cls-5" x1="252.28" y1="184.25" x2="252.28" y2="196.16"/><path d="m252.28,198.43c-.4-1.06-1.07-2.39-1.78-3.21l1.78.65,1.78-.65c-.71.82-1.39,2.14-1.78,3.21Z"/><line class="cls-8" x1="252.28" y1="226.77" x2="252.28" y2="240.94"/><line class="cls-5" x1="252.28" y1="226.77" x2="252.28" y2="238.68"/><path d="m252.28,240.94c-.4-1.06-1.07-2.39-1.78-3.21l1.78.65,1.78-.65c-.71.82-1.39,2.14-1.78,3.21Z"/><line class="cls-8" x1="252.28" y1="269.29" x2="252.28" y2="283.46"/><line class="cls-5" x1="252.28" y1="269.29" x2="252.28" y2="281.2"/><path d="m252.28,283.46c-.4-1.06-1.07-2.39-1.78-3.21l1.78.65,1.78-.65c-.71.82-1.39,2.14-1.78,3.21Z"/><line class="cls-8" x1="252.28" y1="311.81" x2="252.28" y2="325.98"/><line class="cls-5" x1="252.28" y1="311.81" x2="252.28" y2="323.72"/><path d="m252.28,325.98c-.4-1.06-1.07-2.39-1.78-3.21l1.78.65,1.78-.65c-.71.82-1.39,2.14-1.78,3.21Z"/><line class="cls-8" x1="252.28" y1="354.33" x2="252.28" y2="368.5"/><line class="cls-5" x1="252.28" y1="354.33" x2="252.28" y2="366.24"/><path d="m252.28,368.5c-.4-1.06-1.07-2.39-1.78-3.21l1.78.65,1.78-.65c-.71.82-1.39,2.14-1.78,3.21Z"/><path class="cls-1" d="m87.17,90.71c0,1.56-1.28,2.83-2.83,2.83h-4.25c-1.56,0-2.83-1.28-2.83-2.83s1.28-2.83,2.83-2.83h4.25c1.56,0,2.83,1.28,2.83,2.83Z"/><path class="cls-3" d="m87.17,90.71c0,1.56-1.28,2.83-2.83,2.83h-4.25c-1.56,0-2.83-1.28-2.83-2.83s1.28-2.83,2.83-2.83h4.25c1.56,0,2.83,1.28,2.83,2.83Z"/><text class="cls-11" transform="translate(78.94 92.2)"><tspan class="cls-10" x="0" y="0">Y</tspan><tspan x="2.3" y="0">es</tspan></text><path class="cls-1" d="m172.2,430.87c0,1.56-1.28,2.83-2.83,2.83h-4.25c-1.56,0-2.83-1.28-2.83-2.83s1.28-2.83,2.83-2.83h4.25c1.56,0,2.83,1.28,2.83,2.83Z"/><path class="cls-3" d="m172.2,430.87c0,1.56-1.28,2.83-2.83,2.83h-4.25c-1.56,0-2.83-1.28-2.83-2.83s1.28-2.83,2.83-2.83h4.25c1.56,0,2.83,1.28,2.83,2.83Z"/><text class="cls-11" transform="translate(163.98 432.36)"><tspan class="cls-10" x="0" y="0">Y</tspan><tspan x="2.3" y="0">es</tspan></text><line class="cls-8" x1="167.24" y1="481.89" x2="167.24" y2="510.24"/><line class="cls-5" x1="167.24" y1="481.89" x2="167.24" y2="507.97"/><path d="m167.24,510.24c-.4-1.06-1.07-2.39-1.78-3.21l1.78.65,1.78-.65c-.71.82-1.39,2.14-1.78,3.21Z"/><polyline class="cls-5" points="195.59 467.72 252.28 467.72 252.28 479.63"/><path d="m252.28,481.89c-.4-1.06-1.07-2.39-1.78-3.21l1.78.65,1.78-.65c-.71.82-1.39,2.14-1.78,3.21Z"/><path class="cls-1" d="m207.64,467.72c0,1.56-1.28,2.83-2.83,2.83h-4.25c-1.56,0-2.83-1.28-2.83-2.83h0c0-1.56,1.28-2.83,2.83-2.83h4.25c1.56,0,2.83,1.28,2.83,2.83h0Z"/><path class="cls-3" d="m207.64,467.72c0,1.56-1.28,2.83-2.83,2.83h-4.25c-1.56,0-2.83-1.28-2.83-2.83h0c0-1.56,1.28-2.83,2.83-2.83h4.25c1.56,0,2.83,1.28,2.83,2.83h0Z"/><text class="cls-11" transform="translate(200.12 469.21)"><tspan x="0" y="0">No</tspan></text><path class="cls-1" d="m172.2,487.56c0,1.56-1.28,2.83-2.83,2.83h-4.25c-1.56,0-2.83-1.28-2.83-2.83s1.28-2.83,2.83-2.83h4.25c1.56,0,2.83,1.28,2.83,2.83Z"/><path class="cls-3" d="m172.2,487.56c0,1.56-1.28,2.83-2.83,2.83h-4.25c-1.56,0-2.83-1.28-2.83-2.83s1.28-2.83,2.83-2.83h4.25c1.56,0,2.83,1.28,2.83,2.83Z"/><text class="cls-11" transform="translate(163.98 489.05)"><tspan class="cls-10" x="0" y="0">Y</tspan><tspan x="2.3" y="0">es</tspan></text><line class="cls-8" x1="167.24" y1="538.58" x2="167.24" y2="581.1"/><line class="cls-5" x1="167.24" y1="538.58" x2="167.24" y2="578.84"/><path d="m167.24,581.1c-.4-1.06-1.07-2.39-1.78-3.21l1.78.65,1.78-.65c-.71.82-1.39,2.14-1.78,3.21Z"/><polyline class="cls-5" points="195.59 524.41 252.28 524.41 252.28 536.32"/><path d="m252.28,538.58c-.4-1.06-1.07-2.39-1.78-3.21l1.78.65,1.78-.65c-.71.82-1.39,2.14-1.78,3.21Z"/><path class="cls-1" d="m207.64,524.41c0,1.56-1.28,2.83-2.83,2.83h-4.25c-1.56,0-2.83-1.28-2.83-2.83h0c0-1.56,1.28-2.83,2.83-2.83h4.25c1.56,0,2.83,1.28,2.83,2.83h0Z"/><path class="cls-3" d="m207.64,524.41c0,1.56-1.28,2.83-2.83,2.83h-4.25c-1.56,0-2.83-1.28-2.83-2.83h0c0-1.56,1.28-2.83,2.83-2.83h4.25c1.56,0,2.83,1.28,2.83,2.83h0Z"/><text class="cls-11" transform="translate(200.12 525.9)"><tspan x="0" y="0">No</tspan></text><line class="cls-8" x1="167.24" y1="609.45" x2="167.24" y2="623.62"/><line class="cls-5" x1="167.24" y1="609.45" x2="167.24" y2="621.36"/><path d="m167.24,623.62c-.4-1.06-1.07-2.39-1.78-3.21l1.78.65,1.78-.65c-.71.82-1.39,2.14-1.78,3.21Z"/><line class="cls-8" x1="167.24" y1="651.97" x2="167.24" y2="666.14"/><line class="cls-5" x1="167.24" y1="651.97" x2="167.24" y2="663.88"/><path d="m167.24,666.14c-.4-1.06-1.07-2.39-1.78-3.21l1.78.65,1.78-.65c-.71.82-1.39,2.14-1.78,3.21Z"/><polyline class="cls-5" points="195.59 637.8 337.32 637.8 337.32 663.88"/><path d="m337.32,666.14c-.4-1.06-1.07-2.39-1.78-3.21l1.78.65,1.78-.65c-.71.82-1.39,2.14-1.78,3.21Z"/><path class="cls-1" d="m207.64,637.8c0,1.56-1.28,2.83-2.83,2.83h-4.25c-1.56,0-2.83-1.28-2.83-2.83h0c0-1.56,1.28-2.83,2.83-2.83h4.25c1.56,0,2.83,1.28,2.83,2.83h0Z"/><path class="cls-3" d="m207.64,637.8c0,1.56-1.28,2.83-2.83,2.83h-4.25c-1.56,0-2.83-1.28-2.83-2.83h0c0-1.56,1.28-2.83,2.83-2.83h4.25c1.56,0,2.83,1.28,2.83,2.83h0Z"/><text class="cls-11" transform="translate(200.12 639.29)"><tspan x="0" y="0">No</tspan></text><path class="cls-1" d="m172.2,657.64c0,1.56-1.28,2.83-2.83,2.83h-4.25c-1.56,0-2.83-1.28-2.83-2.83s1.28-2.83,2.83-2.83h4.25c1.56,0,2.83,1.28,2.83,2.83Z"/><path class="cls-3" d="m172.2,657.64c0,1.56-1.28,2.83-2.83,2.83h-4.25c-1.56,0-2.83-1.28-2.83-2.83s1.28-2.83,2.83-2.83h4.25c1.56,0,2.83,1.28,2.83,2.83Z"/><text class="cls-11" transform="translate(163.98 659.13)"><tspan class="cls-10" x="0" y="0">Y</tspan><tspan x="2.3" y="0">es</tspan></text><polyline class="cls-5" points="195.59 680.31 252.28 680.31 252.28 692.22"/><path d="m252.28,694.49c-.4-1.06-1.07-2.39-1.78-3.21l1.78.65,1.78-.65c-.71.82-1.39,2.14-1.78,3.21Z"/><path class="cls-1" d="m207.64,680.31c0,1.56-1.28,2.83-2.83,2.83h-4.25c-1.56,0-2.83-1.28-2.83-2.83h0c0-1.56,1.28-2.83,2.83-2.83h4.25c1.56,0,2.83,1.28,2.83,2.83h0Z"/><path class="cls-3" d="m207.64,680.31c0,1.56-1.28,2.83-2.83,2.83h-4.25c-1.56,0-2.83-1.28-2.83-2.83h0c0-1.56,1.28-2.83,2.83-2.83h4.25c1.56,0,2.83,1.28,2.83,2.83h0Z"/><text class="cls-11" transform="translate(200.12 681.81)"><tspan x="0" y="0">No</tspan></text><polyline class="cls-5" points="365.67 680.31 422.36 680.31 422.36 692.22"/><path d="m422.36,694.49c-.4-1.06-1.07-2.39-1.78-3.21l1.78.65,1.78-.65c-.71.82-1.39,2.14-1.78,3.21Z"/><path class="cls-1" d="m377.72,680.31c0,1.56-1.28,2.83-2.83,2.83h-4.25c-1.56,0-2.83-1.28-2.83-2.83h0c0-1.56,1.28-2.83,2.83-2.83h4.25c1.56,0,2.83,1.28,2.83,2.83h0Z"/><path class="cls-3" d="m377.72,680.31c0,1.56-1.28,2.83-2.83,2.83h-4.25c-1.56,0-2.83-1.28-2.83-2.83h0c0-1.56,1.28-2.83,2.83-2.83h4.25c1.56,0,2.83,1.28,2.83,2.83h0Z"/><text class="cls-11" transform="translate(370.2 681.81)"><tspan x="0" y="0">No</tspan></text><line class="cls-8" x1="167.24" y1="694.49" x2="167.24" y2="722.83"/><line class="cls-5" x1="167.24" y1="694.49" x2="167.24" y2="720.57"/><path d="m167.24,722.83c-.4-1.06-1.07-2.39-1.78-3.21l1.78.65,1.78-.65c-.71.82-1.39,2.14-1.78,3.21Z"/><path class="cls-1" d="m172.2,700.16c0,1.56-1.28,2.83-2.83,2.83h-4.25c-1.56,0-2.83-1.28-2.83-2.83s1.28-2.83,2.83-2.83h4.25c1.56,0,2.83,1.28,2.83,2.83Z"/><path class="cls-3" d="m172.2,700.16c0,1.56-1.28,2.83-2.83,2.83h-4.25c-1.56,0-2.83-1.28-2.83-2.83s1.28-2.83,2.83-2.83h4.25c1.56,0,2.83,1.28,2.83,2.83Z"/><text class="cls-11" transform="translate(163.98 701.65)"><tspan class="cls-10" x="0" y="0">Y</tspan><tspan x="2.3" y="0">es</tspan></text><line class="cls-8" x1="337.32" y1="694.49" x2="337.32" y2="722.83"/><line class="cls-5" x1="337.32" y1="694.49" x2="337.32" y2="720.57"/><path d="m337.32,722.83c-.4-1.06-1.07-2.39-1.78-3.21l1.78.65,1.78-.65c-.71.82-1.39,2.14-1.78,3.21Z"/><path class="cls-1" d="m342.28,700.16c0,1.56-1.28,2.83-2.83,2.83h-4.25c-1.56,0-2.83-1.28-2.83-2.83s1.28-2.83,2.83-2.83h4.25c1.56,0,2.83,1.28,2.83,2.83Z"/><path class="cls-3" d="m342.28,700.16c0,1.56-1.28,2.83-2.83,2.83h-4.25c-1.56,0-2.83-1.28-2.83-2.83s1.28-2.83,2.83-2.83h4.25c1.56,0,2.83,1.28,2.83,2.83Z"/><text class="cls-11" transform="translate(334.06 701.65)"><tspan class="cls-10" x="0" y="0">Y</tspan><tspan x="2.3" y="0">es</tspan></text><polyline class="cls-5" points="365.67 737.01 422.36 737.01 422.36 748.92"/><path d="m422.36,751.18c-.4-1.06-1.07-2.39-1.78-3.21l1.78.65,1.78-.65c-.71.82-1.39,2.14-1.78,3.21Z"/><path class="cls-1" d="m377.72,737.01c0,1.56-1.28,2.83-2.83,2.83h-4.25c-1.56,0-2.83-1.28-2.83-2.83h0c0-1.56,1.28-2.83,2.83-2.83h4.25c1.56,0,2.83,1.28,2.83,2.83h0Z"/><path class="cls-3" d="m377.72,737.01c0,1.56-1.28,2.83-2.83,2.83h-4.25c-1.56,0-2.83-1.28-2.83-2.83h0c0-1.56,1.28-2.83,2.83-2.83h4.25c1.56,0,2.83,1.28,2.83,2.83h0Z"/><text class="cls-11" transform="translate(370.2 738.5)"><tspan x="0" y="0">No</tspan></text><line class="cls-8" x1="337.32" y1="751.18" x2="337.32" y2="779.53"/><line class="cls-5" x1="337.32" y1="751.18" x2="337.32" y2="777.26"/><path d="m337.32,779.53c-.4-1.06-1.07-2.39-1.78-3.21l1.78.65,1.78-.65c-.71.82-1.39,2.14-1.78,3.21Z"/><path class="cls-1" d="m342.28,756.85c0,1.56-1.28,2.83-2.83,2.83h-4.25c-1.56,0-2.83-1.28-2.83-2.83s1.28-2.83,2.83-2.83h4.25c1.56,0,2.83,1.28,2.83,2.83Z"/><path class="cls-3" d="m342.28,756.85c0,1.56-1.28,2.83-2.83,2.83h-4.25c-1.56,0-2.83-1.28-2.83-2.83s1.28-2.83,2.83-2.83h4.25c1.56,0,2.83,1.28,2.83,2.83Z"/><text class="cls-11" transform="translate(334.06 758.34)"><tspan class="cls-10" x="0" y="0">Y</tspan><tspan x="2.3" y="0">es</tspan></text><polyline class="cls-5" points="365.67 793.7 422.36 793.7 422.36 805.61"/><path d="m422.36,807.87c-.4-1.06-1.07-2.39-1.78-3.21l1.78.65,1.78-.65c-.71.82-1.39,2.14-1.78,3.21Z"/><path class="cls-1" d="m377.72,793.7c0,1.56-1.28,2.83-2.83,2.83h-4.25c-1.56,0-2.83-1.28-2.83-2.83h0c0-1.56,1.28-2.83,2.83-2.83h4.25c1.56,0,2.83,1.28,2.83,2.83h0Z"/><path class="cls-3" d="m377.72,793.7c0,1.56-1.28,2.83-2.83,2.83h-4.25c-1.56,0-2.83-1.28-2.83-2.83h0c0-1.56,1.28-2.83,2.83-2.83h4.25c1.56,0,2.83,1.28,2.83,2.83h0Z"/><text class="cls-11" transform="translate(370.2 795.19)"><tspan x="0" y="0">No</tspan></text><line class="cls-8" x1="337.32" y1="807.87" x2="337.32" y2="822.05"/><line class="cls-5" x1="337.32" y1="807.87" x2="337.32" y2="819.78"/><path d="m337.32,822.05c-.4-1.06-1.07-2.39-1.78-3.21l1.78.65,1.78-.65c-.71.82-1.39,2.14-1.78,3.21Z"/><path class="cls-1" d="m342.28,813.54c0,1.56-1.28,2.83-2.83,2.83h-4.25c-1.56,0-2.83-1.28-2.83-2.83s1.28-2.83,2.83-2.83h4.25c1.56,0,2.83,1.28,2.83,2.83Z"/><path class="cls-3" d="m342.28,813.54c0,1.56-1.28,2.83-2.83,2.83h-4.25c-1.56,0-2.83-1.28-2.83-2.83s1.28-2.83,2.83-2.83h4.25c1.56,0,2.83,1.28,2.83,2.83Z"/><text class="cls-11" transform="translate(334.06 815.04)"><tspan class="cls-10" x="0" y="0">Y</tspan><tspan x="2.3" y="0">es</tspan></text><line class="cls-8" x1="422.36" y1="836.22" x2="422.36" y2="864.57"/><line class="cls-5" x1="422.36" y1="836.22" x2="422.36" y2="862.3"/><path d="m422.36,864.57c-.4-1.06-1.07-2.39-1.78-3.21l1.78.65,1.78-.65c-.71.82-1.39,2.14-1.78,3.21Z"/><path class="cls-1" d="m427.32,841.89c0,1.56-1.28,2.83-2.83,2.83h-4.25c-1.56,0-2.83-1.28-2.83-2.83s1.28-2.83,2.83-2.83h4.25c1.56,0,2.83,1.28,2.83,2.83Z"/><path class="cls-3" d="m427.32,841.89c0,1.56-1.28,2.83-2.83,2.83h-4.25c-1.56,0-2.83-1.28-2.83-2.83s1.28-2.83,2.83-2.83h4.25c1.56,0,2.83,1.28,2.83,2.83Z"/><text class="cls-11" transform="translate(419.1 843.38)"><tspan class="cls-10" x="0" y="0">Y</tspan><tspan x="2.3" y="0">es</tspan></text><polyline class="cls-5" points="195.59 737.01 252.28 737.01 252.28 748.92"/><path d="m252.28,751.18c-.4-1.06-1.07-2.39-1.78-3.21l1.78.65,1.78-.65c-.71.82-1.39,2.14-1.78,3.21Z"/><path class="cls-1" d="m207.64,737.01c0,1.56-1.28,2.83-2.83,2.83h-4.25c-1.56,0-2.83-1.28-2.83-2.83h0c0-1.56,1.28-2.83,2.83-2.83h4.25c1.56,0,2.83,1.28,2.83,2.83h0Z"/><path class="cls-3" d="m207.64,737.01c0,1.56-1.28,2.83-2.83,2.83h-4.25c-1.56,0-2.83-1.28-2.83-2.83h0c0-1.56,1.28-2.83,2.83-2.83h4.25c1.56,0,2.83,1.28,2.83,2.83h0Z"/><text class="cls-11" transform="translate(200.12 738.5)"><tspan x="0" y="0">No</tspan></text><path class="cls-1" d="m172.2,544.25c0,1.56-1.28,2.83-2.83,2.83h-4.25c-1.56,0-2.83-1.28-2.83-2.83s1.28-2.83,2.83-2.83h4.25c1.56,0,2.83,1.28,2.83,2.83Z"/><path class="cls-3" d="m172.2,544.25c0,1.56-1.28,2.83-2.83,2.83h-4.25c-1.56,0-2.83-1.28-2.83-2.83s1.28-2.83,2.83-2.83h4.25c1.56,0,2.83,1.28,2.83,2.83Z"/><text class="cls-11" transform="translate(163.98 545.74)"><tspan class="cls-10" x="0" y="0">Y</tspan><tspan x="2.3" y="0">es</tspan></text></g><g id="Numbers"><circle class="cls-2" cx="48.19" cy="70.87" r="5.67"/><text class="cls-14" transform="translate(46.52 72.88)"><tspan x="0" y="0">1</tspan></text><circle class="cls-2" cx="48.19" cy="127.56" r="5.67"/><text class="cls-14" transform="translate(46.52 129.57)"><tspan x="0" y="0">2</tspan></text><circle class="cls-2" cx="133.23" cy="99.21" r="5.67"/><text class="cls-14" transform="translate(131.56 101.22)"><tspan x="0" y="0">3</tspan></text><circle class="cls-2" cx="218.27" cy="170.08" r="5.67"/><text class="cls-14" transform="translate(216.6 172.09)"><tspan x="0" y="0">5</tspan></text><circle class="cls-2" cx="218.27" cy="127.56" r="5.67"/><text class="cls-14" transform="translate(216.6 129.57)"><tspan x="0" y="0">4</tspan></text><circle class="cls-2" cx="218.27" cy="255.12" r="5.67"/><text class="cls-14" transform="translate(216.6 257.13)"><tspan x="0" y="0">7</tspan></text><circle class="cls-2" cx="218.27" cy="297.64" r="5.67"/><text class="cls-14" transform="translate(216.6 299.65)"><tspan x="0" y="0">8</tspan></text><circle class="cls-2" cx="218.27" cy="340.16" r="5.67"/><text class="cls-14" transform="translate(216.6 342.17)"><tspan x="0" y="0">9</tspan></text><circle class="cls-2" cx="218.27" cy="382.68" r="5.67"/><text class="cls-14" transform="translate(214.93 384.69)"><tspan x="0" y="0">10</tspan></text><circle class="cls-2" cx="218.27" cy="439.37" r="5.67"/><text class="cls-14" transform="translate(214.93 441.38)"><tspan x="0" y="0">12</tspan></text><circle class="cls-2" cx="218.27" cy="212.6" r="5.67"/><text class="cls-14" transform="translate(216.6 214.61)"><tspan x="0" y="0">6</tspan></text><circle class="cls-2" cx="133.23" cy="411.02" r="5.67"/><text class="cls-14" transform="translate(130.06 413.03)"><tspan class="cls-13" x="0" y="0">1</tspan><tspan x="3.01" y="0">1</tspan></text><circle class="cls-2" cx="218.27" cy="496.06" r="5.67"/><text class="cls-14" transform="translate(214.93 498.07)"><tspan x="0" y="0">14</tspan></text><circle class="cls-2" cx="133.23" cy="467.72" r="5.67"/><text class="cls-14" transform="translate(129.89 469.73)"><tspan x="0" y="0">13</tspan></text><circle class="cls-2" cx="218.27" cy="552.76" r="5.67"/><text class="cls-14" transform="translate(214.93 554.77)"><tspan x="0" y="0">16</tspan></text><circle class="cls-2" cx="133.23" cy="524.41" r="5.67"/><text class="cls-14" transform="translate(129.89 526.42)"><tspan x="0" y="0">15</tspan></text><circle class="cls-2" cx="133.23" cy="637.8" r="5.67"/><text class="cls-14" transform="translate(129.89 639.81)"><tspan x="0" y="0">18</tspan></text><circle class="cls-2" cx="133.23" cy="680.31" r="5.67"/><text class="cls-14" transform="translate(129.89 682.33)"><tspan x="0" y="0">19</tspan></text><circle class="cls-2" cx="133.23" cy="737.01" r="5.67"/><text class="cls-14" transform="translate(129.89 739.02)"><tspan x="0" y="0">21</tspan></text><circle class="cls-2" cx="133.23" cy="595.28" r="5.67"/><text class="cls-14" transform="translate(129.89 597.29)"><tspan x="0" y="0">17</tspan></text><circle class="cls-2" cx="218.27" cy="708.66" r="5.67"/><text class="cls-14" transform="translate(214.93 710.67)"><tspan x="0" y="0">20</tspan></text><circle class="cls-2" cx="218.27" cy="765.35" r="5.67"/><text class="cls-14" transform="translate(214.93 767.37)"><tspan x="0" y="0">22</tspan></text><circle class="cls-2" cx="303.31" cy="680.31" r="5.67"/><text class="cls-14" transform="translate(299.97 682.33)"><tspan x="0" y="0">23</tspan></text><circle class="cls-2" cx="303.31" cy="737.01" r="5.67"/><text class="cls-14" transform="translate(299.97 739.02)"><tspan x="0" y="0">25</tspan></text><circle class="cls-2" cx="388.35" cy="708.66" r="5.67"/><text class="cls-14" transform="translate(385.01 710.67)"><tspan x="0" y="0">24</tspan></text><circle class="cls-2" cx="303.31" cy="793.7" r="5.67"/><text class="cls-14" transform="translate(299.97 795.71)"><tspan x="0" y="0">27</tspan></text><circle class="cls-2" cx="388.35" cy="822.87" r="5.67"/><text class="cls-14" transform="translate(385.01 824.88)"><tspan x="0" y="0">28</tspan></text><circle class="cls-2" cx="303.31" cy="836.22" r="5.67"/><text class="cls-14" transform="translate(299.97 838.23)"><tspan x="0" y="0">29</tspan></text><circle class="cls-2" cx="388.35" cy="878.74" r="5.67"/><text class="cls-14" transform="translate(385.01 880.75)"><tspan x="0" y="0">30</tspan></text><circle class="cls-2" cx="388.35" cy="765.35" r="5.67"/><text class="cls-14" transform="translate(385.01 767.37)"><tspan x="0" y="0">26</tspan></text></g></svg>