<?xml version="1.0" encoding="UTF-8"?><svg xmlns="http://www.w3.org/2000/svg" viewBox="0 0 399.97 518.74"><defs><style>.cls-1,.cls-2{fill:#fff;}.cls-3,.cls-2,.cls-4,.cls-5,.cls-6,.cls-7{stroke-linecap:round;stroke-linejoin:round;}.cls-3,.cls-2,.cls-4,.cls-5,.cls-7{stroke:#000;}.cls-3,.cls-2,.cls-4,.cls-6,.cls-7{stroke-width:.5px;}.cls-3,.cls-5,.cls-6{fill:none;}.cls-4{fill:#c8e6c9;}.cls-5{stroke-width:.25px;}.cls-8{fill:#ffe0b2;}.cls-9{letter-spacing:-.11em;}.cls-6{stroke:#e0e0e0;}.cls-10{letter-spacing:-.09em;}.cls-11{font-family:ArialMT, Arial;font-size:4px;}.cls-12{letter-spacing:-.02em;}.cls-7{fill:#bbdefb;}.cls-13{letter-spacing:-.06em;}.cls-14{font-family:Arial-BoldMT, Arial;font-size:6px;font-weight:700;}</style></defs><g id="Bckground"><rect class="cls-1" width="399.97" height="518.74"/></g><g id="Frame"><rect class="cls-6" x="5.67" y="5.67" width="388.35" height="340.16"/><rect class="cls-6" x="5.67" y="345.83" width="388.35" height="167.24"/><text class="cls-14" transform="translate(8.5 13.65)"><tspan x="0" y="0">Remote support / Customer</tspan></text><text class="cls-14" transform="translate(8.5 353.81)"><tspan x="0" y="0">Engineer</tspan></text></g><g id="Blocks"><path class="cls-4" d="m82.2,56.69l28.35,14.17-28.35,14.17-28.35-14.17,28.35-14.17Z"/><text class="cls-11" transform="translate(71.53 69.9)"><tspan x="0" y="0">Printgap set </tspan><tspan x="1.45" y="4.8">correctly ?</tspan></text><path class="cls-4" d="m82.2,113.39l28.35,14.17-28.35,14.17-28.35-14.17,28.35-14.17Z"/><text class="cls-11" transform="translate(67.86 126.59)"><tspan x="0" y="0">Media thickness </tspan><tspan x="6.56" y="4.8">correct ?</tspan></text><path class="cls-4" d="m82.2,170.08l28.35,14.17-28.35,14.17-28.35-14.17,28.35-14.17Z"/><path d="m70.41,183.28l1.1-2.86h.41l1.17,2.86h-.43l-.33-.87h-1.2l-.31.87h-.4Zm.83-1.18h.97l-.3-.79c-.09-.24-.16-.44-.2-.59-.04.18-.09.37-.15.55l-.31.84Z"/><path d="m73.34,183.28v-2.86h.35v2.86h-.35Z"/><path d="m74.1,182.66l.35-.05c.02.14.07.25.16.32s.21.11.37.11.28-.03.36-.1.12-.14.12-.23c0-.08-.03-.14-.1-.19-.05-.03-.17-.07-.36-.12-.26-.06-.44-.12-.54-.17s-.18-.11-.23-.2-.08-.18-.08-.28c0-.09.02-.18.06-.26s.1-.14.17-.2c.05-.04.13-.07.22-.1s.2-.04.3-.04c.16,0,.31.02.43.07s.21.11.27.19.1.19.12.32l-.34.05c-.02-.11-.06-.19-.14-.25s-.18-.09-.32-.09c-.16,0-.28.03-.35.08s-.1.12-.1.19c0,.05.01.09.04.12.03.04.07.07.13.09.04.01.14.04.31.09.25.07.42.12.52.16s.18.1.23.18.08.18.08.3-.03.23-.1.33-.17.18-.3.24-.27.08-.44.08c-.27,0-.48-.06-.62-.17s-.23-.28-.27-.5Z"/><path d="m76.11,182.25c0-.38.11-.67.32-.85.18-.15.4-.23.65-.23.29,0,.52.09.7.28s.27.44.27.77c0,.27-.04.48-.12.63s-.2.27-.35.36-.32.13-.5.13c-.29,0-.52-.09-.7-.28s-.27-.45-.27-.8Zm.36,0c0,.27.06.46.17.6s.26.2.44.2.32-.07.44-.2.17-.34.17-.61c0-.26-.06-.45-.17-.58s-.26-.2-.43-.2-.32.07-.44.2-.17.33-.17.6Z"/><path d="m79.44,182.25c0-.38.11-.67.32-.85.18-.15.4-.23.65-.23.29,0,.52.09.7.28s.27.44.27.77c0,.27-.04.48-.12.63s-.2.27-.35.36-.32.13-.5.13c-.29,0-.52-.09-.7-.28s-.27-.45-.27-.8Zm.36,0c0,.27.06.46.17.6s.26.2.44.2.32-.07.44-.2.17-.34.17-.61c0-.26-.06-.45-.17-.58s-.26-.2-.43-.2-.32.07-.44.2-.17.33-.17.6Z"/><path d="m81.8,183.28v-2.07h.32v.29c.15-.23.37-.34.66-.34.12,0,.24.02.34.07s.18.1.24.18.09.16.11.26c.01.06.02.18.02.34v1.28h-.35v-1.26c0-.14-.01-.25-.04-.32s-.08-.13-.15-.17-.15-.06-.25-.06c-.15,0-.28.05-.39.14s-.16.28-.16.54v1.13h-.35Z"/><path d="m85.01,182.25c0-.38.11-.67.32-.85.18-.15.4-.23.65-.23.29,0,.52.09.7.28s.27.44.27.77c0,.27-.04.48-.12.63s-.2.27-.35.36-.32.13-.5.13c-.29,0-.52-.09-.7-.28s-.27-.45-.27-.8Zm.36,0c0,.27.06.46.17.6s.26.2.44.2.32-.07.44-.2.17-.34.17-.61c0-.26-.06-.45-.17-.58s-.26-.2-.43-.2-.32.07-.44.2-.17.33-.17.6Z"/><path d="m88.13,182.97l.05.31c-.1.02-.19.03-.27.03-.13,0-.23-.02-.3-.06s-.12-.09-.15-.16-.04-.2-.04-.42v-1.19h-.26v-.27h.26v-.51l.35-.21v.72h.35v.27h-.35v1.21c0,.1,0,.16.02.19s.03.05.06.07.07.03.12.03c.04,0,.09,0,.15-.01Z"/><path d="m88.47,183.28v-2.86h.35v1.03c.16-.19.37-.29.62-.29.15,0,.29.03.4.09s.19.14.24.25.07.26.07.46v1.31h-.35v-1.31c0-.18-.04-.3-.11-.38s-.18-.12-.32-.12c-.1,0-.2.03-.29.08s-.16.13-.2.22-.06.22-.06.38v1.13h-.35Z"/><path d="m92.12,182.62l.36.04c-.06.21-.16.38-.32.49s-.35.18-.59.18c-.3,0-.54-.09-.72-.28s-.27-.45-.27-.79.09-.62.27-.81.41-.29.7-.29.5.09.68.28.26.45.26.8c0,.02,0,.05,0,.09h-1.55c.01.23.08.4.19.52s.26.18.43.18c.13,0,.24-.03.33-.1s.16-.18.22-.32Zm-1.15-.57h1.16c-.02-.17-.06-.31-.13-.39-.11-.14-.26-.2-.44-.2-.16,0-.3.05-.41.16s-.17.25-.18.43Z"/><path d="m92.92,183.28v-2.07h.32v.31c.08-.15.16-.24.22-.29s.14-.07.23-.07c.12,0,.24.04.36.11l-.12.33c-.09-.05-.17-.08-.26-.08-.08,0-.15.02-.21.07s-.1.11-.13.19c-.04.12-.06.26-.06.41v1.09h-.35Z"/><path d="m75.35,188.08v-2.07h.31v.29c.06-.1.15-.18.26-.25s.23-.09.37-.09c.15,0,.28.03.38.1s.17.15.21.27c.16-.24.38-.36.64-.36.21,0,.36.06.47.17s.17.29.17.53v1.42h-.35v-1.31c0-.14-.01-.24-.03-.3s-.06-.11-.12-.15-.13-.06-.21-.06c-.15,0-.27.05-.36.15s-.14.25-.14.47v1.21h-.35v-1.35c0-.16-.03-.27-.09-.35s-.15-.12-.28-.12c-.1,0-.19.03-.27.08s-.15.13-.18.23-.06.24-.06.43v1.08h-.35Z"/><path d="m80.1,187.42l.36.04c-.06.21-.16.38-.32.49s-.35.18-.59.18c-.3,0-.54-.09-.72-.28s-.27-.45-.27-.79.09-.62.27-.81.41-.29.7-.29.5.09.68.28.26.45.26.8c0,.02,0,.05,0,.09h-1.55c.01.23.08.4.19.52s.26.18.43.18c.13,0,.24-.03.33-.1s.16-.18.22-.32Zm-1.15-.57h1.16c-.02-.17-.06-.31-.13-.39-.11-.14-.26-.2-.44-.2-.16,0-.3.05-.41.16s-.17.25-.18.43Z"/><path d="m82.26,188.08v-.26c-.13.21-.32.31-.58.31-.17,0-.32-.05-.46-.14s-.25-.22-.32-.38-.11-.35-.11-.56.03-.4.1-.56.17-.3.31-.39.29-.13.46-.13c.12,0,.24.03.33.08s.18.12.24.21v-1.03h.35v2.86h-.33Zm-1.11-1.04c0,.27.06.46.17.6s.24.2.4.2.28-.06.39-.19.16-.32.16-.58c0-.28-.05-.49-.16-.62s-.24-.2-.4-.2-.29.06-.39.19-.16.33-.16.6Z"/><path d="m83.14,185.62v-.4h.35v.4h-.35Zm0,2.46v-2.07h.35v2.07h-.35Z"/><path d="m85.38,187.83c-.13.11-.26.19-.38.23s-.25.07-.39.07c-.23,0-.4-.06-.53-.17s-.18-.25-.18-.43c0-.1.02-.19.07-.28s.11-.15.18-.2.16-.09.25-.12c.07-.02.17-.04.31-.05.28-.03.49-.07.63-.12,0-.05,0-.08,0-.09,0-.14-.03-.24-.1-.3-.09-.08-.22-.12-.4-.12-.17,0-.29.03-.37.09s-.14.16-.17.31l-.34-.05c.03-.15.08-.27.15-.36s.18-.16.31-.21.29-.07.47-.07.32.02.43.06.19.09.24.16.09.14.11.24c.01.06.02.17.02.32v.47c0,.33,0,.53.02.62s.04.17.09.25h-.37c-.04-.07-.06-.16-.07-.26Zm-.03-.79c-.13.05-.32.1-.57.13-.14.02-.25.04-.31.07s-.11.06-.14.11-.05.11-.05.17c0,.09.04.17.11.23s.17.09.31.09.26-.03.36-.09.18-.14.23-.24c.04-.08.06-.2.06-.35v-.13Z"/><path d="m88.02,187.38s0-.08,0-.11c0-.14.02-.26.06-.36.03-.08.07-.15.14-.23.05-.06.13-.14.25-.25s.2-.19.24-.26.05-.13.05-.21c0-.14-.05-.26-.16-.36s-.24-.16-.39-.16-.27.05-.38.14-.17.24-.2.44l-.36-.04c.03-.27.13-.47.29-.61s.37-.21.64-.21c.28,0,.5.08.67.23s.25.34.25.55c0,.12-.03.24-.09.35s-.17.23-.34.38c-.11.1-.19.18-.22.22s-.06.1-.08.17-.03.16-.03.3h-.34Zm-.02.71v-.4h.4v.4h-.4Z"/><path class="cls-4" d="m82.2,212.6l28.35,14.17-28.35,14.17-28.35-14.17,28.35-14.17Z"/><text class="cls-11" transform="translate(67.2 225.8)"><tspan x="0" y="0">PH calibration UI </tspan><tspan x="8.89" y="4.8">done ?</tspan></text><path class="cls-4" d="m82.2,351.5l28.35,14.17-28.35,14.17-28.35-14.17,28.35-14.17Z"/><text class="cls-11" transform="translate(68.53 364.7)"><tspan x="0" y="0">Carriage height </tspan><tspan x="7.56" y="4.8">good ?</tspan></text><path class="cls-4" d="m82.2,394.02l28.35,14.17-28.35,14.17-28.35-14.17,28.35-14.17Z"/><text class="cls-11" transform="translate(65.42 409.62)"><tspan x="0" y="0">PH positioned ok ?</tspan></text><rect class="cls-7" x="138.9" y="85.04" width="56.69" height="28.35"/><text class="cls-11" transform="translate(150.49 100.64)"><tspan x="0" y="0">Set printgap in RI</tspan><tspan class="cls-12" x="30.91" y="0">P</tspan></text><rect class="cls-7" x="138.9" y="240.94" width="56.69" height="28.35"/><text class="cls-11" transform="translate(150.46 256.55)"><tspan x="0" y="0">Perform calibration</tspan></text><rect class="cls-7" x="308.98" y="379.84" width="56.69" height="28.35"/><text class="cls-11" transform="translate(325.76 395.45)"><tspan x="0" y="0">Adjust height</tspan></text><rect class="cls-7" x="223.94" y="311.81" width="56.69" height="28.35"/><text class="cls-11" transform="translate(237.61 327.42)"><tspan x="0" y="0">Use other media</tspan></text><rect class="cls-8" x="53.86" y="28.35" width="56.69" height="14.17" rx="5.67" ry="5.67"/><rect class="cls-3" x="53.86" y="28.35" width="56.69" height="14.17" rx="5.67" ry="5.67"/><text class="cls-11" transform="translate(63.97 36.78)"><tspan class="cls-9" x="0" y="0">T</tspan><tspan x="2" y="0">ext / line sharpness</tspan></text><rect class="cls-7" x="308.98" y="240.94" width="56.69" height="28.35"/><text class="cls-11" transform="translate(326.54 256.55)"><tspan x="0" y="0">Scrap 1” roll</tspan></text><path class="cls-4" d="m252.28,212.6l28.35,14.17-28.35,14.17-28.35-14.17,28.35-14.17Z"/><path d="m244.69,224.41c0-.48.13-.85.38-1.12s.58-.4.99-.4c.26,0,.5.06.71.19s.37.3.49.53.17.48.17.77-.06.55-.18.78-.28.4-.5.52-.45.18-.7.18c-.27,0-.51-.06-.72-.2s-.37-.31-.48-.53-.16-.46-.16-.71Zm.39,0c0,.35.09.62.28.82s.42.3.7.3.52-.1.7-.3.28-.48.28-.85c0-.23-.04-.44-.12-.61s-.19-.31-.35-.4-.32-.14-.51-.14c-.27,0-.5.09-.69.28s-.29.49-.29.92Z"/><path d="m247.88,225.8v-2.07h.32v.29c.15-.23.37-.34.66-.34.12,0,.24.02.34.07s.18.1.24.18.09.16.11.26c.01.06.02.18.02.34v1.28h-.35v-1.26c0-.14-.01-.25-.04-.32s-.08-.13-.15-.17-.15-.06-.25-.06c-.15,0-.28.05-.39.14s-.16.28-.16.54v1.13h-.35Z"/><path d="m251.08,224.77c0-.38.11-.67.32-.85.18-.15.4-.23.65-.23.29,0,.52.09.7.28s.27.44.27.77c0,.27-.04.48-.12.63s-.2.27-.35.36-.32.13-.5.13c-.29,0-.52-.09-.7-.28s-.27-.45-.27-.8Zm.36,0c0,.27.06.46.17.6s.26.2.44.2.32-.07.44-.2.17-.34.17-.61c0-.26-.06-.45-.17-.58s-.26-.2-.43-.2-.32.07-.44.2-.17.33-.17.6Z"/><path d="m254.2,225.49l.05.31c-.1.02-.19.03-.27.03-.13,0-.23-.02-.3-.06s-.12-.09-.15-.16-.04-.2-.04-.42v-1.19h-.26v-.27h.26v-.51l.35-.21v.72h.35v.27h-.35v1.21c0,.1,0,.16.02.19s.03.05.06.07.07.03.12.03c.04,0,.09,0,.15-.01Z"/><path d="m254.55,225.8v-2.86h.35v1.03c.16-.19.37-.29.62-.29.15,0,.29.03.4.09s.19.14.24.25.07.26.07.46v1.31h-.35v-1.31c0-.18-.04-.3-.11-.38s-.18-.12-.32-.12c-.1,0-.2.03-.29.08s-.16.13-.2.22-.06.22-.06.38v1.13h-.35Z"/><path d="m258.19,225.14l.36.04c-.06.21-.16.38-.32.49s-.35.18-.59.18c-.3,0-.54-.09-.72-.28s-.27-.45-.27-.79.09-.62.27-.81.41-.29.7-.29.5.09.68.28.26.45.26.8c0,.02,0,.05,0,.09h-1.55c.01.23.08.4.19.52s.26.18.43.18c.13,0,.24-.03.33-.1s.16-.18.22-.32Zm-1.15-.57h1.16c-.02-.17-.06-.31-.13-.39-.11-.14-.26-.2-.44-.2-.16,0-.3.05-.41.16s-.17.25-.18.43Z"/><path d="m258.99,225.8v-2.07h.32v.31c.08-.15.16-.24.22-.29s.14-.07.23-.07c.12,0,.24.04.36.11l-.12.33c-.09-.05-.17-.08-.26-.08-.08,0-.15.02-.21.07s-.1.11-.13.19c-.04.12-.06.26-.06.41v1.09h-.35Z"/><path d="m242.76,230.6v-2.07h.32v.31c.08-.15.16-.24.22-.29s.14-.07.23-.07c.12,0,.24.04.36.11l-.12.33c-.09-.05-.17-.08-.26-.08-.08,0-.15.02-.21.07s-.1.11-.13.19c-.04.12-.06.26-.06.41v1.09h-.35Z"/><path d="m243.97,229.57c0-.38.11-.67.32-.85.18-.15.4-.23.65-.23.29,0,.52.09.7.28s.27.44.27.77c0,.27-.04.48-.12.63s-.2.27-.35.36-.32.13-.5.13c-.29,0-.52-.09-.7-.28s-.27-.45-.27-.8Zm.36,0c0,.27.06.46.17.6s.26.2.44.2.32-.07.44-.2.17-.34.17-.61c0-.26-.06-.45-.17-.58s-.26-.2-.43-.2-.32.07-.44.2-.17.33-.17.6Z"/><path d="m246.31,230.6v-2.86h.35v2.86h-.35Z"/><path d="m247.2,230.6v-2.86h.35v2.86h-.35Z"/><path d="m247.83,230.65l.83-2.96h.28l-.83,2.96h-.28Z"/><path d="m249.53,230.6h-.33v-2.86h.35v1.02c.15-.19.34-.28.57-.28.13,0,.25.03.36.08s.21.12.28.22.13.21.17.34.06.27.06.42c0,.36-.09.63-.26.82s-.39.29-.63.29-.44-.1-.58-.31v.26Zm0-1.05c0,.25.03.43.1.54.11.18.26.27.45.27.15,0,.29-.07.4-.2s.17-.33.17-.6-.05-.47-.16-.6-.24-.19-.39-.19-.29.07-.4.2-.17.33-.17.58Z"/><path d="m252.79,230.35c-.13.11-.26.19-.38.23s-.25.07-.39.07c-.23,0-.4-.06-.53-.17s-.18-.25-.18-.43c0-.1.02-.19.07-.28s.11-.15.18-.2.16-.09.25-.12c.07-.02.17-.04.31-.05.28-.03.49-.07.63-.12,0-.05,0-.08,0-.09,0-.14-.03-.24-.1-.3-.09-.08-.22-.12-.4-.12-.17,0-.29.03-.37.09s-.14.16-.17.31l-.34-.05c.03-.15.08-.27.15-.36s.18-.16.31-.21.29-.07.47-.07.32.02.43.06.19.09.24.16.09.14.11.24c.01.06.02.17.02.32v.47c0,.33,0,.53.02.62s.04.17.09.25h-.37c-.04-.07-.06-.16-.07-.26Zm-.03-.79c-.13.05-.32.1-.57.13-.14.02-.25.04-.31.07s-.11.06-.14.11-.05.11-.05.17c0,.09.04.17.11.23s.17.09.31.09.26-.03.36-.09.18-.14.23-.24c.04-.08.06-.2.06-.35v-.13Z"/><path d="m254.43,230.29l.05.31c-.1.02-.19.03-.27.03-.13,0-.23-.02-.3-.06s-.12-.09-.15-.16-.04-.2-.04-.42v-1.19h-.26v-.27h.26v-.51l.35-.21v.72h.35v.27h-.35v1.21c0,.1,0,.16.02.19s.03.05.06.07.07.03.12.03c.04,0,.09,0,.15-.01Z"/><path d="m256.12,229.84l.35.04c-.04.24-.13.42-.29.56s-.35.2-.57.2c-.28,0-.51-.09-.68-.28s-.26-.45-.26-.8c0-.22.04-.42.11-.59s.19-.29.34-.38.32-.13.5-.13c.23,0,.41.06.55.17s.23.28.28.49l-.34.05c-.03-.14-.09-.24-.17-.31s-.18-.11-.3-.11c-.18,0-.32.06-.43.19s-.17.33-.17.6.05.48.16.61.25.19.42.19c.14,0,.25-.04.35-.13s.15-.21.18-.39Z"/><path d="m256.77,230.6v-2.86h.35v1.03c.16-.19.37-.29.62-.29.15,0,.29.03.4.09s.19.14.24.25.07.26.07.46v1.31h-.35v-1.31c0-.18-.04-.3-.11-.38s-.18-.12-.32-.12c-.1,0-.2.03-.29.08s-.16.13-.2.22-.06.22-.06.38v1.13h-.35Z"/><path d="m260.76,229.9s0-.08,0-.11c0-.14.02-.26.06-.36.03-.08.07-.15.14-.23.05-.06.13-.14.25-.25s.2-.19.24-.26.05-.13.05-.21c0-.14-.05-.26-.16-.36s-.24-.16-.39-.16-.27.05-.38.14-.17.24-.2.44l-.36-.04c.03-.27.13-.47.29-.61s.37-.21.64-.21c.28,0,.5.08.67.23s.25.34.25.55c0,.12-.03.24-.09.35s-.17.23-.34.38c-.11.1-.19.18-.22.22s-.06.1-.08.17-.03.16-.03.3h-.34Zm-.02.71v-.4h.4v.4h-.4Z"/><rect class="cls-7" x="308.98" y="311.81" width="56.69" height="28.35"/><text class="cls-11" transform="translate(320.43 327.42)"><tspan x="0" y="0">Adjust temperature</tspan></text><rect class="cls-7" x="223.94" y="422.36" width="56.69" height="28.35"/><text class="cls-11" transform="translate(241.28 437.97)"><tspan x="0" y="0">Reinstall PH</tspan></text><path class="cls-4" d="m252.28,269.29l28.35,14.17-28.35,14.17-28.35-14.17,28.35-14.17Z"/><path d="m246.92,277.7v-2.86h1.08c.19,0,.34,0,.44.03.14.02.26.07.35.13s.17.16.23.28.09.25.09.39c0,.24-.08.45-.23.62s-.44.25-.84.25h-.73v1.16h-.38Zm.38-1.5h.74c.24,0,.42-.05.52-.14s.15-.22.15-.38c0-.12-.03-.22-.09-.31s-.14-.14-.24-.17c-.06-.02-.18-.03-.35-.03h-.73v1.02Z"/><path d="m249.54,277.7v-2.86h.35v2.86h-.35Z"/><path d="m251.79,277.44c-.13.11-.26.19-.38.23s-.25.07-.39.07c-.23,0-.4-.06-.53-.17s-.18-.25-.18-.43c0-.1.02-.19.07-.28s.11-.15.18-.2.16-.09.25-.12c.07-.02.17-.04.31-.05.28-.03.49-.07.63-.12,0-.05,0-.08,0-.09,0-.14-.03-.24-.1-.3-.09-.08-.22-.12-.4-.12-.17,0-.29.03-.37.09s-.14.16-.17.31l-.34-.05c.03-.15.08-.27.15-.36s.18-.16.31-.21.29-.07.47-.07.32.02.43.06.19.09.24.16.09.14.11.24c.01.06.02.17.02.32v.47c0,.33,0,.53.02.62s.04.17.09.25h-.37c-.04-.07-.06-.16-.07-.26Zm-.03-.79c-.13.05-.32.1-.57.13-.14.02-.25.04-.31.07s-.11.06-.14.11-.05.11-.05.17c0,.09.04.17.11.23s.17.09.31.09.26-.03.36-.09.18-.14.23-.24c.04-.08.06-.2.06-.35v-.13Z"/><path d="m253.43,277.38l.05.31c-.1.02-.19.03-.27.03-.13,0-.23-.02-.3-.06s-.12-.09-.15-.16-.04-.2-.04-.42v-1.19h-.26v-.27h.26v-.51l.35-.21v.72h.35v.27h-.35v1.21c0,.1,0,.16.02.19s.03.05.06.07.07.03.12.03c.04,0,.09,0,.15-.01Z"/><path d="m255.19,277.03l.36.04c-.06.21-.16.38-.32.49s-.35.18-.59.18c-.3,0-.54-.09-.72-.28s-.27-.45-.27-.79.09-.62.27-.81.41-.29.7-.29.5.09.68.28.26.45.26.8c0,.02,0,.05,0,.09h-1.55c.01.23.08.4.19.52s.26.18.43.18c.13,0,.24-.03.33-.1s.16-.18.22-.32Zm-1.15-.57h1.16c-.02-.17-.06-.31-.13-.39-.11-.14-.26-.2-.44-.2-.16,0-.3.05-.41.16s-.17.25-.18.43Z"/><path d="m255.99,277.7v-2.07h.32v.29c.15-.23.37-.34.66-.34.12,0,.24.02.34.07s.18.1.24.18.09.16.11.26c.01.06.02.18.02.34v1.28h-.35v-1.26c0-.14-.01-.25-.04-.32s-.08-.13-.15-.17-.15-.06-.25-.06c-.15,0-.28.05-.39.14s-.16.28-.16.54v1.13h-.35Z"/><path d="m240.42,282.18l.05.31c-.1.02-.19.03-.27.03-.13,0-.23-.02-.3-.06s-.12-.09-.15-.16-.04-.2-.04-.42v-1.19h-.26v-.27h.26v-.51l.35-.21v.72h.35v.27h-.35v1.21c0,.1,0,.16.02.19s.03.05.06.07.07.03.12.03c.04,0,.09,0,.15-.01Z"/><path d="m242.18,281.83l.36.04c-.06.21-.16.38-.32.49s-.35.18-.59.18c-.3,0-.54-.09-.72-.28s-.27-.45-.27-.79.09-.62.27-.81.41-.29.7-.29.5.09.68.28.26.45.26.8c0,.02,0,.05,0,.09h-1.55c.01.23.08.4.19.52s.26.18.43.18c.13,0,.24-.03.33-.1s.16-.18.22-.32Zm-1.15-.57h1.16c-.02-.17-.06-.31-.13-.39-.11-.14-.26-.2-.44-.2-.16,0-.3.05-.41.16s-.17.25-.18.43Z"/><path d="m242.99,282.5v-2.07h.31v.29c.06-.1.15-.18.26-.25s.23-.09.37-.09c.15,0,.28.03.38.1s.17.15.21.27c.16-.24.38-.36.64-.36.21,0,.36.06.47.17s.17.29.17.53v1.42h-.35v-1.31c0-.14-.01-.24-.03-.3s-.06-.11-.12-.15-.13-.06-.21-.06c-.15,0-.27.05-.36.15s-.14.25-.14.47v1.21h-.35v-1.35c0-.16-.03-.27-.09-.35s-.15-.12-.28-.12c-.1,0-.19.03-.27.08s-.15.13-.18.23-.06.24-.06.43v1.08h-.35Z"/><path d="m246.32,283.29v-2.87h.32v.27c.08-.11.16-.18.26-.24s.21-.08.35-.08c.18,0,.33.05.47.14s.24.22.31.39.1.35.1.55c0,.21-.04.4-.11.57s-.19.3-.33.39-.3.14-.46.14c-.12,0-.22-.02-.32-.07s-.17-.11-.23-.19v1.01h-.35Zm.32-1.82c0,.27.05.46.16.59s.24.19.39.19.29-.07.4-.2.17-.34.17-.61-.05-.46-.16-.59-.24-.2-.39-.2-.28.07-.4.21-.17.34-.17.61Z"/><path d="m249.96,281.83l.36.04c-.06.21-.16.38-.32.49s-.35.18-.59.18c-.3,0-.54-.09-.72-.28s-.27-.45-.27-.79.09-.62.27-.81.41-.29.7-.29.5.09.68.28.26.45.26.8c0,.02,0,.05,0,.09h-1.55c.01.23.08.4.19.52s.26.18.43.18c.13,0,.24-.03.33-.1s.16-.18.22-.32Zm-1.15-.57h1.16c-.02-.17-.06-.31-.13-.39-.11-.14-.26-.2-.44-.2-.16,0-.3.05-.41.16s-.17.25-.18.43Z"/><path d="m250.77,282.5v-2.07h.32v.31c.08-.15.16-.24.22-.29s.14-.07.23-.07c.12,0,.24.04.36.11l-.12.33c-.09-.05-.17-.08-.26-.08-.08,0-.15.02-.21.07s-.1.11-.13.19c-.04.12-.06.26-.06.41v1.09h-.35Z"/><path d="m253.45,282.24c-.13.11-.26.19-.38.23s-.25.07-.39.07c-.23,0-.4-.06-.53-.17s-.18-.25-.18-.43c0-.1.02-.19.07-.28s.11-.15.18-.2.16-.09.25-.12c.07-.02.17-.04.31-.05.28-.03.49-.07.63-.12,0-.05,0-.08,0-.09,0-.14-.03-.24-.1-.3-.09-.08-.22-.12-.4-.12-.17,0-.29.03-.37.09s-.14.16-.17.31l-.34-.05c.03-.15.08-.27.15-.36s.18-.16.31-.21.29-.07.47-.07.32.02.43.06.19.09.24.16.09.14.11.24c.01.06.02.17.02.32v.47c0,.33,0,.53.02.62s.04.17.09.25h-.37c-.04-.07-.06-.16-.07-.26Zm-.03-.79c-.13.05-.32.1-.57.13-.14.02-.25.04-.31.07s-.11.06-.14.11-.05.11-.05.17c0,.09.04.17.11.23s.17.09.31.09.26-.03.36-.09.18-.14.23-.24c.04-.08.06-.2.06-.35v-.13Z"/><path d="m255.09,282.18l.05.31c-.1.02-.19.03-.27.03-.13,0-.23-.02-.3-.06s-.12-.09-.15-.16-.04-.2-.04-.42v-1.19h-.26v-.27h.26v-.51l.35-.21v.72h.35v.27h-.35v1.21c0,.1,0,.16.02.19s.03.05.06.07.07.03.12.03c.04,0,.09,0,.15-.01Z"/><path d="m256.8,282.5v-.3c-.16.23-.38.35-.66.35-.12,0-.24-.02-.34-.07s-.19-.11-.24-.18-.09-.16-.11-.26c-.01-.07-.02-.18-.02-.33v-1.29h.35v1.15c0,.18,0,.31.02.37.02.09.07.17.14.22s.16.08.27.08.2-.03.3-.08.16-.13.2-.22.06-.23.06-.41v-1.11h.35v2.07h-.31Z"/><path d="m257.66,282.5v-2.07h.32v.31c.08-.15.16-.24.22-.29s.14-.07.23-.07c.12,0,.24.04.36.11l-.12.33c-.09-.05-.17-.08-.26-.08-.08,0-.15.02-.21.07s-.1.11-.13.19c-.04.12-.06.26-.06.41v1.09h-.35Z"/><path d="m260.41,281.83l.36.04c-.06.21-.16.38-.32.49s-.35.18-.59.18c-.3,0-.54-.09-.72-.28s-.27-.45-.27-.79.09-.62.27-.81.41-.29.7-.29.5.09.68.28.26.45.26.8c0,.02,0,.05,0,.09h-1.55c.01.23.08.4.19.52s.26.18.43.18c.13,0,.24-.03.33-.1s.16-.18.22-.32Zm-1.15-.57h1.16c-.02-.17-.06-.31-.13-.39-.11-.14-.26-.2-.44-.2-.16,0-.3.05-.41.16s-.17.25-.18.43Z"/><path d="m262.33,280.04v-.4h.35v.4h-.35Zm0,2.46v-2.07h.35v2.07h-.35Z"/><path d="m263.22,282.5v-2.07h.32v.29c.15-.23.37-.34.66-.34.12,0,.24.02.34.07s.18.1.24.18.09.16.11.26c.01.06.02.18.02.34v1.28h-.35v-1.26c0-.14-.01-.25-.04-.32s-.08-.13-.15-.17-.15-.06-.25-.06c-.15,0-.28.05-.39.14s-.16.28-.16.54v1.13h-.35Z"/><path d="m247.1,288.09v-2.87h.32v.27c.08-.11.16-.18.26-.24s.21-.08.35-.08c.18,0,.33.05.47.14s.24.22.31.39.1.35.1.55c0,.21-.04.4-.11.57s-.19.3-.33.39-.3.14-.46.14c-.12,0-.22-.02-.32-.07s-.17-.11-.23-.19v1.01h-.35Zm.32-1.82c0,.27.05.46.16.59s.24.19.39.19.29-.07.4-.2.17-.34.17-.61-.05-.46-.16-.59-.24-.2-.39-.2-.28.07-.4.21-.17.34-.17.61Z"/><path d="m249.32,287.3v-2.07h.32v.31c.08-.15.16-.24.22-.29s.14-.07.23-.07c.12,0,.24.04.36.11l-.12.33c-.09-.05-.17-.08-.26-.08-.08,0-.15.02-.21.07s-.1.11-.13.19c-.04.12-.06.26-.06.41v1.09h-.35Z"/><path d="m250.53,286.26c0-.38.11-.67.32-.85.18-.15.4-.23.65-.23.29,0,.52.09.7.28s.27.44.27.77c0,.27-.04.48-.12.63s-.2.27-.35.36-.32.13-.5.13c-.29,0-.52-.09-.7-.28s-.27-.45-.27-.8Zm.36,0c0,.27.06.46.17.6s.26.2.44.2.32-.07.44-.2.17-.34.17-.61c0-.26-.06-.45-.17-.58s-.26-.2-.43-.2-.32.07-.44.2-.17.33-.17.6Z"/><path d="m252.97,287.3v-1.8h-.31v-.27h.31v-.22c0-.14.01-.24.04-.31.03-.09.09-.17.18-.22s.2-.08.36-.08c.1,0,.21.01.33.04l-.05.31c-.07-.01-.14-.02-.21-.02-.11,0-.18.02-.23.07s-.07.13-.07.26v.19h.4v.27h-.4v1.8h-.35Z"/><path d="m253.99,284.84v-.4h.35v.4h-.35Zm0,2.46v-2.07h.35v2.07h-.35Z"/><path d="m254.87,287.3v-2.86h.35v2.86h-.35Z"/><path d="m257.19,286.63l.36.04c-.06.21-.16.38-.32.49s-.35.18-.59.18c-.3,0-.54-.09-.72-.28s-.27-.45-.27-.79.09-.62.27-.81.41-.29.7-.29.5.09.68.28.26.45.26.8c0,.02,0,.05,0,.09h-1.55c.01.23.08.4.19.52s.26.18.43.18c.13,0,.24-.03.33-.1s.16-.18.22-.32Zm-1.15-.57h1.16c-.02-.17-.06-.31-.13-.39-.11-.14-.26-.2-.44-.2-.16,0-.3.05-.41.16s-.17.25-.18.43Z"/><path d="m249.19,291.06c0-.38.11-.67.32-.85.18-.15.4-.23.65-.23.29,0,.52.09.7.28s.27.44.27.77c0,.27-.04.48-.12.63s-.2.27-.35.36-.32.13-.5.13c-.29,0-.52-.09-.7-.28s-.27-.45-.27-.8Zm.36,0c0,.27.06.46.17.6s.26.2.44.2.32-.07.44-.2.17-.34.17-.61c0-.26-.06-.45-.17-.58s-.26-.2-.43-.2-.32.07-.44.2-.17.33-.17.6Z"/><path d="m251.55,292.1v-2.86h.35v1.63l.83-.84h.46l-.79.77.87,1.3h-.43l-.69-1.06-.25.24v.82h-.35Z"/><path d="m255.32,291.39s0-.08,0-.11c0-.14.02-.26.06-.36.03-.08.07-.15.14-.23.05-.06.13-.14.25-.25s.2-.19.24-.26.05-.13.05-.21c0-.14-.05-.26-.16-.36s-.24-.16-.39-.16-.27.05-.38.14-.17.24-.2.44l-.36-.04c.03-.27.13-.47.29-.61s.37-.21.64-.21c.28,0,.5.08.67.23s.25.34.25.55c0,.12-.03.24-.09.35s-.17.23-.34.38c-.11.1-.19.18-.22.22s-.06.1-.08.17-.03.16-.03.3h-.34Zm-.02.71v-.4h.4v.4h-.4Z"/><rect class="cls-7" x="53.86" y="479.06" width="56.69" height="28.35"/><text class="cls-11" transform="translate(63.05 494.66)"><tspan x="0" y="0">Carriage</tspan><tspan class="cls-12" x="15.34" y="0" xml:space="preserve"> Y</tspan><tspan x="18.97" y="0" xml:space="preserve"> calibration</tspan></text><rect class="cls-7" x="138.9" y="479.06" width="56.69" height="28.35"/><text class="cls-11" transform="translate(143.12 494.66)"><tspan x="0" y="0">Adjust tension carriage belt</tspan></text><rect class="cls-7" x="138.9" y="141.73" width="56.69" height="28.35"/><text class="cls-11" transform="translate(152.79 157.34)"><tspan x="0" y="0">Adjust thickness</tspan></text><path class="cls-4" d="m82.2,436.54l28.35,14.17-28.35,14.17-28.35-14.17,28.35-14.17Z"/><text class="cls-11" transform="translate(67.53 449.74)"><tspan class="cls-9" x="0" y="0">T</tspan><tspan x="2" y="0">ension carriage </tspan><tspan x="7.11" y="4.8">belt ok ?</tspan></text></g><g id="Lines"><line class="cls-8" x1="82.2" y1="42.52" x2="82.2" y2="56.69"/><line class="cls-5" x1="82.2" y1="42.52" x2="82.2" y2="54.43"/><path d="m82.2,56.69c-.4-1.06-1.07-2.39-1.78-3.21l1.78.65,1.78-.65c-.71.82-1.39,2.14-1.78,3.21Z"/><line class="cls-8" x1="82.2" y1="85.04" x2="82.2" y2="113.39"/><line class="cls-5" x1="82.2" y1="85.04" x2="82.2" y2="111.12"/><path d="m82.2,113.39c-.4-1.06-1.07-2.39-1.78-3.21l1.78.65,1.78-.65c-.71.82-1.39,2.14-1.78,3.21Z"/><polyline class="cls-5" points="110.55 70.87 167.24 70.87 167.24 82.78"/><path d="m167.24,85.04c-.4-1.06-1.07-2.39-1.78-3.21l1.78.65,1.78-.65c-.71.82-1.39,2.14-1.78,3.21Z"/><path class="cls-1" d="m122.6,70.87c0,1.56-1.28,2.83-2.83,2.83h-4.25c-1.56,0-2.83-1.28-2.83-2.83h0c0-1.56,1.28-2.83,2.83-2.83h4.25c1.56,0,2.83,1.28,2.83,2.83h0Z"/><path class="cls-3" d="m122.6,70.87c0,1.56-1.28,2.83-2.83,2.83h-4.25c-1.56,0-2.83-1.28-2.83-2.83h0c0-1.56,1.28-2.83,2.83-2.83h4.25c1.56,0,2.83,1.28,2.83,2.83h0Z"/><text class="cls-11" transform="translate(115.08 72.36)"><tspan x="0" y="0">No</tspan></text><polyline class="cls-5" points="110.55 226.77 167.24 226.77 167.24 238.68"/><path d="m167.24,240.94c-.4-1.06-1.07-2.39-1.78-3.21l1.78.65,1.78-.65c-.71.82-1.39,2.14-1.78,3.21Z"/><path class="cls-1" d="m122.6,226.77c0,1.56-1.28,2.83-2.83,2.83h-4.25c-1.56,0-2.83-1.28-2.83-2.83h0c0-1.56,1.28-2.83,2.83-2.83h4.25c1.56,0,2.83,1.28,2.83,2.83h0Z"/><path class="cls-3" d="m122.6,226.77c0,1.56-1.28,2.83-2.83,2.83h-4.25c-1.56,0-2.83-1.28-2.83-2.83h0c0-1.56,1.28-2.83,2.83-2.83h4.25c1.56,0,2.83,1.28,2.83,2.83h0Z"/><text class="cls-11" transform="translate(115.08 228.26)"><tspan x="0" y="0">No</tspan></text><polyline class="cls-5" points="280.63 226.77 337.32 226.77 337.32 238.68"/><path d="m337.32,240.94c-.4-1.06-1.07-2.39-1.78-3.21l1.78.65,1.78-.65c-.71.82-1.39,2.14-1.78,3.21Z"/><path class="cls-1" d="m292.68,226.77c0,1.56-1.28,2.83-2.83,2.83h-4.25c-1.56,0-2.83-1.28-2.83-2.83h0c0-1.56,1.28-2.83,2.83-2.83h4.25c1.56,0,2.83,1.28,2.83,2.83h0Z"/><path class="cls-3" d="m292.68,226.77c0,1.56-1.28,2.83-2.83,2.83h-4.25c-1.56,0-2.83-1.28-2.83-2.83h0c0-1.56,1.28-2.83,2.83-2.83h4.25c1.56,0,2.83,1.28,2.83,2.83h0Z"/><text class="cls-11" transform="translate(285.16 228.26)"><tspan x="0" y="0">No</tspan></text><polyline class="cls-5" points="280.63 283.46 337.32 283.46 337.32 309.55"/><path d="m337.32,311.81c-.4-1.06-1.07-2.39-1.78-3.21l1.78.65,1.78-.65c-.71.82-1.39,2.14-1.78,3.21Z"/><path class="cls-1" d="m292.68,283.46c0,1.56-1.28,2.83-2.83,2.83h-4.25c-1.56,0-2.83-1.28-2.83-2.83h0c0-1.56,1.28-2.83,2.83-2.83h4.25c1.56,0,2.83,1.28,2.83,2.83h0Z"/><path class="cls-3" d="m292.68,283.46c0,1.56-1.28,2.83-2.83,2.83h-4.25c-1.56,0-2.83-1.28-2.83-2.83h0c0-1.56,1.28-2.83,2.83-2.83h4.25c1.56,0,2.83,1.28,2.83,2.83h0Z"/><text class="cls-11" transform="translate(285.16 284.96)"><tspan x="0" y="0">No</tspan></text><polyline class="cls-5" points="110.55 365.67 337.32 365.67 337.32 377.58"/><path d="m337.32,379.84c-.4-1.06-1.07-2.39-1.78-3.21l1.78.65,1.78-.65c-.71.82-1.39,2.14-1.78,3.21Z"/><path class="cls-1" d="m122.6,365.67c0,1.56-1.28,2.83-2.83,2.83h-4.25c-1.56,0-2.83-1.28-2.83-2.83h0c0-1.56,1.28-2.83,2.83-2.83h4.25c1.56,0,2.83,1.28,2.83,2.83h0Z"/><path class="cls-3" d="m122.6,365.67c0,1.56-1.28,2.83-2.83,2.83h-4.25c-1.56,0-2.83-1.28-2.83-2.83h0c0-1.56,1.28-2.83,2.83-2.83h4.25c1.56,0,2.83,1.28,2.83,2.83h0Z"/><text class="cls-11" transform="translate(115.08 367.16)"><tspan x="0" y="0">No</tspan></text><polyline class="cls-5" points="110.55 408.19 252.28 408.19 252.28 420.1"/><path d="m252.28,422.36c-.4-1.06-1.07-2.39-1.78-3.21l1.78.65,1.78-.65c-.71.82-1.39,2.14-1.78,3.21Z"/><path class="cls-1" d="m122.6,408.19c0,1.56-1.28,2.83-2.83,2.83h-4.25c-1.56,0-2.83-1.28-2.83-2.83h0c0-1.56,1.28-2.83,2.83-2.83h4.25c1.56,0,2.83,1.28,2.83,2.83h0Z"/><path class="cls-3" d="m122.6,408.19c0,1.56-1.28,2.83-2.83,2.83h-4.25c-1.56,0-2.83-1.28-2.83-2.83h0c0-1.56,1.28-2.83,2.83-2.83h4.25c1.56,0,2.83,1.28,2.83,2.83h0Z"/><text class="cls-11" transform="translate(115.08 409.68)"><tspan x="0" y="0">No</tspan></text><polyline class="cls-5" points="110.55 127.56 167.24 127.56 167.24 139.47"/><path d="m167.24,141.73c-.4-1.06-1.07-2.39-1.78-3.21l1.78.65,1.78-.65c-.71.82-1.39,2.14-1.78,3.21Z"/><path class="cls-1" d="m122.6,127.56c0,1.56-1.28,2.83-2.83,2.83h-4.25c-1.56,0-2.83-1.28-2.83-2.83h0c0-1.56,1.28-2.83,2.83-2.83h4.25c1.56,0,2.83,1.28,2.83,2.83h0Z"/><path class="cls-3" d="m122.6,127.56c0,1.56-1.28,2.83-2.83,2.83h-4.25c-1.56,0-2.83-1.28-2.83-2.83h0c0-1.56,1.28-2.83,2.83-2.83h4.25c1.56,0,2.83,1.28,2.83,2.83h0Z"/><text class="cls-11" transform="translate(115.08 129.05)"><tspan x="0" y="0">No</tspan></text><polyline class="cls-5" points="110.55 184.25 252.28 184.25 252.28 210.34"/><path d="m252.28,212.6c-.4-1.06-1.07-2.39-1.78-3.21l1.78.65,1.78-.65c-.71.82-1.39,2.14-1.78,3.21Z"/><path class="cls-1" d="m122.6,184.25c0,1.56-1.28,2.83-2.83,2.83h-4.25c-1.56,0-2.83-1.28-2.83-2.83h0c0-1.56,1.28-2.83,2.83-2.83h4.25c1.56,0,2.83,1.28,2.83,2.83h0Z"/><path class="cls-3" d="m122.6,184.25c0,1.56-1.28,2.83-2.83,2.83h-4.25c-1.56,0-2.83-1.28-2.83-2.83h0c0-1.56,1.28-2.83,2.83-2.83h4.25c1.56,0,2.83,1.28,2.83,2.83h0Z"/><text class="cls-11" transform="translate(115.08 185.74)"><tspan x="0" y="0">No</tspan></text><path class="cls-1" d="m87.17,90.83c0,1.56-1.28,2.83-2.83,2.83h-4.25c-1.56,0-2.83-1.28-2.83-2.83s1.28-2.83,2.83-2.83h4.25c1.56,0,2.83,1.28,2.83,2.83Z"/><path class="cls-3" d="m87.17,90.83c0,1.56-1.28,2.83-2.83,2.83h-4.25c-1.56,0-2.83-1.28-2.83-2.83s1.28-2.83,2.83-2.83h4.25c1.56,0,2.83,1.28,2.83,2.83Z"/><text class="cls-11" transform="translate(78.94 92.33)"><tspan class="cls-10" x="0" y="0">Y</tspan><tspan x="2.3" y="0">es</tspan></text><line class="cls-8" x1="82.2" y1="141.73" x2="82.2" y2="170.08"/><line class="cls-5" x1="82.2" y1="141.73" x2="82.2" y2="167.82"/><path d="m82.2,170.08c-.4-1.06-1.07-2.39-1.78-3.21l1.78.65,1.78-.65c-.71.82-1.39,2.14-1.78,3.21Z"/><path class="cls-1" d="m87.17,147.53c0,1.56-1.28,2.83-2.83,2.83h-4.25c-1.56,0-2.83-1.28-2.83-2.83s1.28-2.83,2.83-2.83h4.25c1.56,0,2.83,1.28,2.83,2.83Z"/><path class="cls-3" d="m87.17,147.53c0,1.56-1.28,2.83-2.83,2.83h-4.25c-1.56,0-2.83-1.28-2.83-2.83s1.28-2.83,2.83-2.83h4.25c1.56,0,2.83,1.28,2.83,2.83Z"/><text class="cls-11" transform="translate(78.94 149.02)"><tspan class="cls-10" x="0" y="0">Y</tspan><tspan x="2.3" y="0">es</tspan></text><line class="cls-8" x1="82.2" y1="198.43" x2="82.2" y2="212.6"/><line class="cls-5" x1="82.2" y1="198.43" x2="82.2" y2="210.34"/><path d="m82.2,212.6c-.4-1.06-1.07-2.39-1.78-3.21l1.78.65,1.78-.65c-.71.82-1.39,2.14-1.78,3.21Z"/><path class="cls-1" d="m87.17,204.22c0,1.56-1.28,2.83-2.83,2.83h-4.25c-1.56,0-2.83-1.28-2.83-2.83s1.28-2.83,2.83-2.83h4.25c1.56,0,2.83,1.28,2.83,2.83Z"/><path class="cls-3" d="m87.17,204.22c0,1.56-1.28,2.83-2.83,2.83h-4.25c-1.56,0-2.83-1.28-2.83-2.83s1.28-2.83,2.83-2.83h4.25c1.56,0,2.83,1.28,2.83,2.83Z"/><text class="cls-11" transform="translate(78.94 205.71)"><tspan class="cls-10" x="0" y="0">Y</tspan><tspan x="2.3" y="0">es</tspan></text><line class="cls-8" x1="82.2" y1="422.36" x2="82.2" y2="436.54"/><line class="cls-5" x1="82.2" y1="422.36" x2="82.2" y2="434.27"/><path d="m82.2,436.54c-.4-1.06-1.07-2.39-1.78-3.21l1.78.65,1.78-.65c-.71.82-1.39,2.14-1.78,3.21Z"/><path class="cls-1" d="m87.17,428.16c0,1.56-1.28,2.83-2.83,2.83h-4.25c-1.56,0-2.83-1.28-2.83-2.83s1.28-2.83,2.83-2.83h4.25c1.56,0,2.83,1.28,2.83,2.83Z"/><path class="cls-3" d="m87.17,428.16c0,1.56-1.28,2.83-2.83,2.83h-4.25c-1.56,0-2.83-1.28-2.83-2.83s1.28-2.83,2.83-2.83h4.25c1.56,0,2.83,1.28,2.83,2.83Z"/><text class="cls-11" transform="translate(78.94 429.65)"><tspan class="cls-10" x="0" y="0">Y</tspan><tspan x="2.3" y="0">es</tspan></text><line class="cls-8" x1="82.2" y1="464.88" x2="82.2" y2="479.06"/><line class="cls-5" x1="82.2" y1="464.88" x2="82.2" y2="476.79"/><path d="m82.2,479.06c-.4-1.06-1.07-2.39-1.78-3.21l1.78.65,1.78-.65c-.71.82-1.39,2.14-1.78,3.21Z"/><path class="cls-1" d="m87.17,470.68c0,1.56-1.28,2.83-2.83,2.83h-4.25c-1.56,0-2.83-1.28-2.83-2.83s1.28-2.83,2.83-2.83h4.25c1.56,0,2.83,1.28,2.83,2.83Z"/><path class="cls-3" d="m87.17,470.68c0,1.56-1.28,2.83-2.83,2.83h-4.25c-1.56,0-2.83-1.28-2.83-2.83s1.28-2.83,2.83-2.83h4.25c1.56,0,2.83,1.28,2.83,2.83Z"/><text class="cls-11" transform="translate(78.94 472.17)"><tspan class="cls-10" x="0" y="0">Y</tspan><tspan x="2.3" y="0">es</tspan></text><line class="cls-8" x1="82.2" y1="240.94" x2="82.2" y2="351.5"/><line class="cls-5" x1="82.2" y1="240.94" x2="82.2" y2="349.23"/><path d="m82.2,351.5c-.4-1.06-1.07-2.39-1.78-3.21l1.78.65,1.78-.65c-.71.82-1.39,2.14-1.78,3.21Z"/><path class="cls-1" d="m87.17,246.74c0,1.56-1.28,2.83-2.83,2.83h-4.25c-1.56,0-2.83-1.28-2.83-2.83s1.28-2.83,2.83-2.83h4.25c1.56,0,2.83,1.28,2.83,2.83Z"/><path class="cls-3" d="m87.17,246.74c0,1.56-1.28,2.83-2.83,2.83h-4.25c-1.56,0-2.83-1.28-2.83-2.83s1.28-2.83,2.83-2.83h4.25c1.56,0,2.83,1.28,2.83,2.83Z"/><text class="cls-11" transform="translate(78.94 248.23)"><tspan class="cls-10" x="0" y="0">Y</tspan><tspan x="2.3" y="0">es</tspan></text><line class="cls-8" x1="252.28" y1="240.94" x2="252.28" y2="269.29"/><line class="cls-5" x1="252.28" y1="240.94" x2="252.28" y2="267.03"/><path d="m252.28,269.29c-.4-1.06-1.07-2.39-1.78-3.21l1.78.65,1.78-.65c-.71.82-1.39,2.14-1.78,3.21Z"/><path class="cls-1" d="m257.24,246.74c0,1.56-1.28,2.83-2.83,2.83h-4.25c-1.56,0-2.83-1.28-2.83-2.83s1.28-2.83,2.83-2.83h4.25c1.56,0,2.83,1.28,2.83,2.83Z"/><path class="cls-3" d="m257.24,246.74c0,1.56-1.28,2.83-2.83,2.83h-4.25c-1.56,0-2.83-1.28-2.83-2.83s1.28-2.83,2.83-2.83h4.25c1.56,0,2.83,1.28,2.83,2.83Z"/><text class="cls-11" transform="translate(249.02 248.23)"><tspan class="cls-10" x="0" y="0">Y</tspan><tspan x="2.3" y="0">es</tspan></text><line class="cls-8" x1="252.28" y1="297.64" x2="252.28" y2="311.81"/><line class="cls-5" x1="252.28" y1="297.64" x2="252.28" y2="309.55"/><path d="m252.28,311.81c-.4-1.06-1.07-2.39-1.78-3.21l1.78.65,1.78-.65c-.71.82-1.39,2.14-1.78,3.21Z"/><path class="cls-1" d="m257.24,303.43c0,1.56-1.28,2.83-2.83,2.83h-4.25c-1.56,0-2.83-1.28-2.83-2.83s1.28-2.83,2.83-2.83h4.25c1.56,0,2.83,1.28,2.83,2.83Z"/><path class="cls-3" d="m257.24,303.43c0,1.56-1.28,2.83-2.83,2.83h-4.25c-1.56,0-2.83-1.28-2.83-2.83s1.28-2.83,2.83-2.83h4.25c1.56,0,2.83,1.28,2.83,2.83Z"/><text class="cls-11" transform="translate(249.02 304.92)"><tspan class="cls-10" x="0" y="0">Y</tspan><tspan x="2.3" y="0">es</tspan></text><line class="cls-8" x1="82.2" y1="379.84" x2="82.2" y2="394.02"/><line class="cls-5" x1="82.2" y1="379.84" x2="82.2" y2="391.75"/><path d="m82.2,394.02c-.4-1.06-1.07-2.39-1.78-3.21l1.78.65,1.78-.65c-.71.82-1.39,2.14-1.78,3.21Z"/><path class="cls-1" d="m87.17,385.64c0,1.56-1.28,2.83-2.83,2.83h-4.25c-1.56,0-2.83-1.28-2.83-2.83s1.28-2.83,2.83-2.83h4.25c1.56,0,2.83,1.28,2.83,2.83Z"/><path class="cls-3" d="m87.17,385.64c0,1.56-1.28,2.83-2.83,2.83h-4.25c-1.56,0-2.83-1.28-2.83-2.83s1.28-2.83,2.83-2.83h4.25c1.56,0,2.83,1.28,2.83,2.83Z"/><text class="cls-11" transform="translate(78.94 387.13)"><tspan class="cls-10" x="0" y="0">Y</tspan><tspan x="2.3" y="0">es</tspan></text><polyline class="cls-5" points="110.55 450.71 167.24 450.71 167.24 476.79"/><path d="m167.24,479.06c-.4-1.06-1.07-2.39-1.78-3.21l1.78.65,1.78-.65c-.71.82-1.39,2.14-1.78,3.21Z"/><path class="cls-1" d="m122.6,450.71c0,1.56-1.28,2.83-2.83,2.83h-4.25c-1.56,0-2.83-1.28-2.83-2.83h0c0-1.56,1.28-2.83,2.83-2.83h4.25c1.56,0,2.83,1.28,2.83,2.83h0Z"/><path class="cls-3" d="m122.6,450.71c0,1.56-1.28,2.83-2.83,2.83h-4.25c-1.56,0-2.83-1.28-2.83-2.83h0c0-1.56,1.28-2.83,2.83-2.83h4.25c1.56,0,2.83,1.28,2.83,2.83h0Z"/><text class="cls-11" transform="translate(115.08 452.2)"><tspan x="0" y="0">No</tspan></text></g><g id="Numbers"><circle class="cls-2" cx="48.19" cy="70.87" r="5.67"/><text class="cls-14" transform="translate(46.52 72.88)"><tspan x="0" y="0">1</tspan></text><circle class="cls-2" cx="218.27" cy="226.77" r="5.67"/><text class="cls-14" transform="translate(214.93 228.78)"><tspan x="0" y="0">15</tspan></text><circle class="cls-2" cx="218.27" cy="325.98" r="5.67"/><text class="cls-14" transform="translate(214.93 328)"><tspan x="0" y="0">18</tspan></text><circle class="cls-2" cx="303.31" cy="325.98" r="5.67"/><text class="cls-14" transform="translate(299.97 328)"><tspan x="0" y="0">19</tspan></text><circle class="cls-2" cx="218.27" cy="283.46" r="5.67"/><text class="cls-14" transform="translate(214.93 285.48)"><tspan x="0" y="0">17</tspan></text><circle class="cls-2" cx="133.23" cy="99.21" r="5.67"/><text class="cls-14" transform="translate(131.56 101.22)"><tspan x="0" y="0">2</tspan></text><circle class="cls-2" cx="48.19" cy="127.56" r="5.67"/><text class="cls-14" transform="translate(46.52 129.57)"><tspan x="0" y="0">3</tspan></text><circle class="cls-2" cx="133.23" cy="155.91" r="5.67"/><text class="cls-14" transform="translate(131.56 157.92)"><tspan x="0" y="0">4</tspan></text><circle class="cls-2" cx="48.19" cy="184.25" r="5.67"/><text class="cls-14" transform="translate(46.52 186.26)"><tspan x="0" y="0">5</tspan></text><circle class="cls-2" cx="48.19" cy="365.67" r="5.67"/><text class="cls-14" transform="translate(46.52 367.68)"><tspan x="0" y="0">8</tspan></text><circle class="cls-2" cx="48.19" cy="408.19" r="5.67"/><text class="cls-14" transform="translate(44.85 410.2)"><tspan x="0" y="0">10</tspan></text><circle class="cls-2" cx="48.19" cy="450.71" r="5.67"/><text class="cls-14" transform="translate(44.85 452.72)"><tspan x="0" y="0">12</tspan></text><circle class="cls-2" cx="48.19" cy="226.77" r="5.67"/><text class="cls-14" transform="translate(46.52 228.78)"><tspan x="0" y="0">6</tspan></text><circle class="cls-2" cx="303.31" cy="394.02" r="5.67"/><text class="cls-14" transform="translate(301.64 396.03)"><tspan x="0" y="0">9</tspan></text><circle class="cls-2" cx="133.23" cy="493.23" r="5.67"/><text class="cls-14" transform="translate(129.89 495.24)"><tspan x="0" y="0">14</tspan></text><circle class="cls-2" cx="303.31" cy="255.12" r="5.67"/><text class="cls-14" transform="translate(299.97 257.13)"><tspan x="0" y="0">16</tspan></text><circle class="cls-2" cx="133.23" cy="255.12" r="5.67"/><text class="cls-14" transform="translate(131.56 257.13)"><tspan x="0" y="0">7</tspan></text><circle class="cls-2" cx="218.27" cy="436.54" r="5.67"/><text class="cls-14" transform="translate(215.1 438.55)"><tspan class="cls-13" x="0" y="0">1</tspan><tspan x="3.01" y="0">1</tspan></text><circle class="cls-2" cx="48.19" cy="493.23" r="5.67"/><text class="cls-14" transform="translate(44.85 495.24)"><tspan x="0" y="0">13</tspan></text></g></svg>