<?xml version="1.0" encoding="UTF-8"?><svg xmlns="http://www.w3.org/2000/svg" viewBox="0 0 462.05 634.96"><defs><style>.cls-1,.cls-2{fill:#fff;}.cls-3,.cls-2,.cls-4,.cls-5,.cls-6,.cls-7{stroke-linecap:round;stroke-linejoin:round;}.cls-3,.cls-2,.cls-4,.cls-5,.cls-7{stroke:#000;}.cls-3,.cls-2,.cls-4,.cls-6,.cls-7{stroke-width:.5px;}.cls-3,.cls-5,.cls-6{fill:none;}.cls-4{fill:#c8e6c9;}.cls-5{stroke-width:.25px;}.cls-8{fill:#ffe0b2;}.cls-6{stroke:#e0e0e0;}.cls-9{letter-spacing:-.09em;}.cls-10{font-family:ArialMT, Arial;font-size:4px;}.cls-11{letter-spacing:-.02em;}.cls-7{fill:#bbdefb;}.cls-12{letter-spacing:-.06em;}.cls-13{font-family:Arial-BoldMT, Arial;font-size:6px;font-weight:700;}</style></defs><g id="Bckground"><rect class="cls-1" width="462.05" height="634.96"/></g><g id="Frame"><rect class="cls-6" x="5.67" y="5.67" width="450.71" height="411.02"/><rect class="cls-6" x="5.67" y="416.69" width="286.3" height="212.6"/><text class="cls-13" transform="translate(8.5 13.65)"><tspan x="0" y="0">Remote support / Customer</tspan></text><text class="cls-13" transform="translate(391.86 423.26)"><tspan x="0" y="0">Application specialist</tspan></text><rect class="cls-6" x="291.97" y="416.69" width="164.41" height="212.6"/><text class="cls-13" transform="translate(8.5 423.26)"><tspan x="0" y="0">Engineer</tspan></text></g><g id="Blocks"><path class="cls-4" d="m82.2,113.39l28.35,14.17-28.35,14.17-28.35-14.17,28.35-14.17Z"/><text class="cls-10" transform="translate(70.75 128.99)"><tspan x="0" y="0">Ink expired ?</tspan></text><path class="cls-4" d="m82.2,56.69l28.35,14.17-28.35,14.17-28.35-14.17,28.35-14.17Z"/><text class="cls-10" transform="translate(70.75 69.9)"><tspan x="0" y="0">Maintenance</tspan><tspan x="5.33" y="4.8">done ?</tspan></text><path class="cls-4" d="m167.24,141.73l28.35,14.17-28.35,14.17-28.35-14.17,28.35-14.17Z"/><text class="cls-10" transform="translate(153.49 154.94)"><tspan class="cls-11" x="0" y="0">V</tspan><tspan x="2.6" y="0">isible on other </tspan><tspan x="6.63" y="4.8">media ?</tspan></text><path class="cls-4" d="m252.28,170.08l28.35,14.17-28.35,14.17-28.35-14.17,28.35-14.17Z"/><text class="cls-10" transform="translate(237.94 183.28)"><tspan x="0" y="0">Media thickness </tspan><tspan x="6.56" y="4.8">correct ?</tspan></text><path class="cls-4" d="m252.28,226.77l28.35,14.17-28.35,14.17-28.35-14.17,28.35-14.17Z"/><path d="m241.92,239.98v-2.86h1.08c.19,0,.34,0,.44.03.14.02.26.07.35.13s.17.16.23.28.09.25.09.39c0,.24-.08.45-.23.62s-.44.25-.84.25h-.73v1.16h-.38Zm.38-1.5h.74c.24,0,.42-.05.52-.14s.15-.22.15-.38c0-.12-.03-.22-.09-.31s-.14-.14-.24-.17c-.06-.02-.18-.03-.35-.03h-.73v1.02Z"/><path d="m244.54,239.98v-2.07h.32v.31c.08-.15.16-.24.22-.29s.14-.07.23-.07c.12,0,.24.04.36.11l-.12.33c-.09-.05-.17-.08-.26-.08-.08,0-.15.02-.21.07s-.1.11-.13.19c-.04.12-.06.26-.06.41v1.09h-.35Z"/><path d="m245.88,237.52v-.4h.35v.4h-.35Zm0,2.46v-2.07h.35v2.07h-.35Z"/><path d="m246.76,239.98v-2.07h.32v.29c.15-.23.37-.34.66-.34.12,0,.24.02.34.07s.18.1.24.18.09.16.11.26c.01.06.02.18.02.34v1.28h-.35v-1.26c0-.14-.01-.25-.04-.32s-.08-.13-.15-.17-.15-.06-.25-.06c-.15,0-.28.05-.39.14s-.16.28-.16.54v1.13h-.35Z"/><path d="m249.76,239.66l.05.31c-.1.02-.19.03-.27.03-.13,0-.23-.02-.3-.06s-.12-.09-.15-.16-.04-.2-.04-.42v-1.19h-.26v-.27h.26v-.51l.35-.21v.72h.35v.27h-.35v1.21c0,.1,0,.16.02.19s.03.05.06.07.07.03.12.03c.04,0,.09,0,.15-.01Z"/><path d="m250.03,240.15l.34.05c.01.11.05.18.12.23.09.06.21.1.36.1.16,0,.29-.03.38-.1s.15-.16.18-.27c.02-.07.03-.22.03-.45-.15.18-.35.27-.57.27-.29,0-.51-.1-.66-.31s-.23-.45-.23-.74c0-.2.04-.38.11-.55s.18-.3.31-.39.3-.14.48-.14c.24,0,.45.1.61.3v-.25h.32v1.79c0,.32-.03.55-.1.69s-.17.24-.31.32-.32.12-.53.12c-.25,0-.45-.06-.6-.17s-.23-.28-.22-.5Zm.29-1.25c0,.27.05.47.16.6s.24.19.41.19.3-.06.41-.19.16-.32.16-.58-.06-.45-.17-.57-.25-.19-.41-.19-.29.06-.4.19-.16.32-.16.57Z"/><path d="m253.68,239.72c-.13.11-.26.19-.38.23s-.25.07-.39.07c-.23,0-.4-.06-.53-.17s-.18-.25-.18-.43c0-.1.02-.19.07-.28s.11-.15.18-.2.16-.09.25-.12c.07-.02.17-.04.31-.05.28-.03.49-.07.63-.12,0-.05,0-.08,0-.09,0-.14-.03-.24-.1-.3-.09-.08-.22-.12-.4-.12-.17,0-.29.03-.37.09s-.14.16-.17.31l-.34-.05c.03-.15.08-.27.15-.36s.18-.16.31-.21.29-.07.47-.07.32.02.43.06.19.09.24.16.09.14.11.24c.01.06.02.17.02.32v.47c0,.33,0,.53.02.62s.04.17.09.25h-.37c-.04-.07-.06-.16-.07-.26Zm-.03-.79c-.13.05-.32.1-.57.13-.14.02-.25.04-.31.07s-.11.06-.14.11-.05.11-.05.17c0,.09.04.17.11.23s.17.09.31.09.26-.03.36-.09.18-.14.23-.24c.04-.08.06-.2.06-.35v-.13Z"/><path d="m254.55,240.77v-2.87h.32v.27c.08-.11.16-.18.26-.24s.21-.08.35-.08c.18,0,.33.05.47.14s.24.22.31.39.1.35.1.55c0,.21-.04.4-.11.57s-.19.3-.33.39-.3.14-.46.14c-.12,0-.22-.02-.32-.07s-.17-.11-.23-.19v1.01h-.35Zm.32-1.82c0,.27.05.46.16.59s.24.19.39.19.29-.07.4-.2.17-.34.17-.61-.05-.46-.16-.59-.24-.2-.39-.2-.28.07-.4.21-.17.34-.17.61Z"/><path d="m257.74,239.36l.35-.05c.02.14.07.25.16.32s.21.11.37.11.28-.03.36-.1.12-.14.12-.23c0-.08-.03-.14-.1-.19-.05-.03-.17-.07-.36-.12-.26-.06-.44-.12-.54-.17s-.18-.11-.23-.2-.08-.18-.08-.28c0-.09.02-.18.06-.26s.1-.14.17-.2c.05-.04.13-.07.22-.1s.2-.04.3-.04c.16,0,.31.02.43.07s.21.11.27.19.1.19.12.32l-.34.05c-.02-.11-.06-.19-.14-.25s-.18-.09-.32-.09c-.16,0-.28.03-.35.08s-.1.12-.1.19c0,.05.01.09.04.12.03.04.07.07.13.09.04.01.14.04.31.09.25.07.42.12.52.16s.18.1.23.18.08.18.08.3-.03.23-.1.33-.17.18-.3.24-.27.08-.44.08c-.27,0-.48-.06-.62-.17s-.23-.28-.27-.5Z"/><path d="m261.3,239.31l.36.04c-.06.21-.16.38-.32.49s-.35.18-.59.18c-.3,0-.54-.09-.72-.28s-.27-.45-.27-.79.09-.62.27-.81.41-.29.7-.29.5.09.68.28.26.45.26.8c0,.02,0,.05,0,.09h-1.55c.01.23.08.4.19.52s.26.18.43.18c.13,0,.24-.03.33-.1s.16-.18.22-.32Zm-1.15-.57h1.16c-.02-.17-.06-.31-.13-.39-.11-.14-.26-.2-.44-.2-.16,0-.3.05-.41.16s-.17.25-.18.43Z"/><path d="m262.88,239.66l.05.31c-.1.02-.19.03-.27.03-.13,0-.23-.02-.3-.06s-.12-.09-.15-.16-.04-.2-.04-.42v-1.19h-.26v-.27h.26v-.51l.35-.21v.72h.35v.27h-.35v1.21c0,.1,0,.16.02.19s.03.05.06.07.07.03.12.03c.04,0,.09,0,.15-.01Z"/><path d="m246.12,244.02l.35.04c-.04.24-.13.42-.29.56s-.35.2-.57.2c-.28,0-.51-.09-.68-.28s-.26-.45-.26-.8c0-.22.04-.42.11-.59s.19-.29.34-.38.32-.13.5-.13c.23,0,.41.06.55.17s.23.28.28.49l-.34.05c-.03-.14-.09-.24-.17-.31s-.18-.11-.3-.11c-.18,0-.32.06-.43.19s-.17.33-.17.6.05.48.16.61.25.19.42.19c.14,0,.25-.04.35-.13s.15-.21.18-.39Z"/><path d="m246.64,243.74c0-.38.11-.67.32-.85.18-.15.4-.23.65-.23.29,0,.52.09.7.28s.27.44.27.77c0,.27-.04.48-.12.63s-.2.27-.35.36-.32.13-.5.13c-.29,0-.52-.09-.7-.28s-.27-.45-.27-.8Zm.36,0c0,.27.06.46.17.6s.26.2.44.2.32-.07.44-.2.17-.34.17-.61c0-.26-.06-.45-.17-.58s-.26-.2-.43-.2-.32.07-.44.2-.17.33-.17.6Z"/><path d="m248.99,244.78v-2.07h.32v.31c.08-.15.16-.24.22-.29s.14-.07.23-.07c.12,0,.24.04.36.11l-.12.33c-.09-.05-.17-.08-.26-.08-.08,0-.15.02-.21.07s-.1.11-.13.19c-.04.12-.06.26-.06.41v1.09h-.35Z"/><path d="m250.32,244.78v-2.07h.32v.31c.08-.15.16-.24.22-.29s.14-.07.23-.07c.12,0,.24.04.36.11l-.12.33c-.09-.05-.17-.08-.26-.08-.08,0-.15.02-.21.07s-.1.11-.13.19c-.04.12-.06.26-.06.41v1.09h-.35Z"/><path d="m253.08,244.11l.36.04c-.06.21-.16.38-.32.49s-.35.18-.59.18c-.3,0-.54-.09-.72-.28s-.27-.45-.27-.79.09-.62.27-.81.41-.29.7-.29.5.09.68.28.26.45.26.8c0,.02,0,.05,0,.09h-1.55c.01.23.08.4.19.52s.26.18.43.18c.13,0,.24-.03.33-.1s.16-.18.22-.32Zm-1.15-.57h1.16c-.02-.17-.06-.31-.13-.39-.11-.14-.26-.2-.44-.2-.16,0-.3.05-.41.16s-.17.25-.18.43Z"/><path d="m255.23,244.02l.35.04c-.04.24-.13.42-.29.56s-.35.2-.57.2c-.28,0-.51-.09-.68-.28s-.26-.45-.26-.8c0-.22.04-.42.11-.59s.19-.29.34-.38.32-.13.5-.13c.23,0,.41.06.55.17s.23.28.28.49l-.34.05c-.03-.14-.09-.24-.17-.31s-.18-.11-.3-.11c-.18,0-.32.06-.43.19s-.17.33-.17.6.05.48.16.61.25.19.42.19c.14,0,.25-.04.35-.13s.15-.21.18-.39Z"/><path d="m256.65,244.46l.05.31c-.1.02-.19.03-.27.03-.13,0-.23-.02-.3-.06s-.12-.09-.15-.16-.04-.2-.04-.42v-1.19h-.26v-.27h.26v-.51l.35-.21v.72h.35v.27h-.35v1.21c0,.1,0,.16.02.19s.03.05.06.07.07.03.12.03c.04,0,.09,0,.15-.01Z"/><path d="m258.76,244.07s0-.08,0-.11c0-.14.02-.26.06-.36.03-.08.07-.15.14-.23.05-.06.13-.14.25-.25s.2-.19.24-.26.05-.13.05-.21c0-.14-.05-.26-.16-.36s-.24-.16-.39-.16-.27.05-.38.14-.17.24-.2.44l-.36-.04c.03-.27.13-.47.29-.61s.37-.21.64-.21c.28,0,.5.08.67.23s.25.34.25.55c0,.12-.03.24-.09.35s-.17.23-.34.38c-.11.1-.19.18-.22.22s-.06.1-.08.17-.03.16-.03.3h-.34Zm-.02.71v-.4h.4v.4h-.4Z"/><path class="cls-4" d="m167.24,425.2l28.35,14.17-28.35,14.17-28.35-14.17,28.35-14.17Z"/><text class="cls-10" transform="translate(151.9 440.8)"><tspan x="0" y="0">Carriage height ?</tspan></text><rect class="cls-7" x="138.9" y="85.04" width="56.69" height="28.35"/><path d="m153.32,98.24v-2.86h1.08c.19,0,.34,0,.44.03.14.02.26.07.35.13s.17.16.23.28.09.25.09.39c0,.24-.08.45-.23.62s-.44.25-.84.25h-.73v1.16h-.38Zm.38-1.5h.74c.24,0,.42-.05.52-.14s.15-.22.15-.38c0-.12-.03-.22-.09-.31s-.14-.14-.24-.17c-.06-.02-.18-.03-.35-.03h-.73v1.02Z"/><path d="m157.37,97.58l.36.04c-.06.21-.16.38-.32.49s-.35.18-.59.18c-.3,0-.54-.09-.72-.28s-.27-.45-.27-.79.09-.62.27-.81.41-.29.7-.29.5.09.68.28.26.45.26.8c0,.02,0,.05,0,.09h-1.55c.01.23.08.4.19.52s.26.18.43.18c.13,0,.24-.03.33-.1s.16-.18.22-.32Zm-1.15-.57h1.16c-.02-.17-.06-.31-.13-.39-.11-.14-.26-.2-.44-.2-.16,0-.3.05-.41.16s-.17.25-.18.43Z"/><path d="m158.17,98.24v-2.07h.32v.31c.08-.15.16-.24.22-.29s.14-.07.23-.07c.12,0,.24.04.36.11l-.12.33c-.09-.05-.17-.08-.26-.08-.08,0-.15.02-.21.07s-.1.11-.13.19c-.04.12-.06.26-.06.41v1.09h-.35Z"/><path d="m159.59,98.24v-1.8h-.31v-.27h.31v-.22c0-.14.01-.24.04-.31.03-.09.09-.17.18-.22s.2-.08.36-.08c.1,0,.21.01.33.04l-.05.31c-.07-.01-.14-.02-.21-.02-.11,0-.18.02-.23.07s-.07.13-.07.26v.19h.4v.27h-.4v1.8h-.35Z"/><path d="m160.48,97.21c0-.38.11-.67.32-.85.18-.15.4-.23.65-.23.29,0,.52.09.7.28s.27.45.27.77c0,.27-.04.48-.12.63s-.2.27-.35.36-.32.13-.5.13c-.29,0-.52-.09-.7-.28s-.27-.45-.27-.8Zm.36,0c0,.27.06.46.17.6s.26.2.44.2.32-.07.44-.2.17-.33.17-.61c0-.26-.06-.45-.17-.58s-.26-.2-.43-.2-.32.07-.44.2-.17.33-.17.6Z"/><path d="m162.84,98.24v-2.07h.32v.31c.08-.15.16-.24.22-.29s.14-.07.23-.07c.12,0,.24.04.36.11l-.12.33c-.09-.05-.17-.08-.26-.08-.08,0-.15.02-.21.07s-.1.11-.13.19c-.04.12-.06.26-.06.41v1.09h-.35Z"/><path d="m164.17,98.24v-2.07h.31v.29c.06-.1.15-.18.26-.25s.23-.09.37-.09c.15,0,.28.03.38.1s.17.15.21.27c.16-.24.38-.36.64-.36.21,0,.36.06.47.17s.17.29.17.53v1.42h-.35v-1.31c0-.14-.01-.24-.03-.3s-.06-.11-.12-.15-.13-.06-.21-.06c-.15,0-.27.05-.36.15s-.14.25-.14.47v1.21h-.35v-1.35c0-.16-.03-.27-.09-.35s-.15-.12-.28-.12c-.1,0-.19.03-.27.08s-.15.13-.18.23-.06.25-.06.43v1.08h-.35Z"/><path d="m168.62,98.24v-2.07h.31v.29c.06-.1.15-.18.26-.25s.23-.09.37-.09c.15,0,.28.03.38.1s.17.15.21.27c.16-.24.38-.36.64-.36.21,0,.36.06.47.17s.17.29.17.53v1.42h-.35v-1.31c0-.14-.01-.24-.03-.3s-.06-.11-.12-.15-.13-.06-.21-.06c-.15,0-.27.05-.36.15s-.14.25-.14.47v1.21h-.35v-1.35c0-.16-.03-.27-.09-.35s-.15-.12-.28-.12c-.1,0-.19.03-.27.08s-.15.13-.18.23-.06.25-.06.43v1.08h-.35Z"/><path d="m173.3,97.99c-.13.11-.26.19-.38.23s-.25.07-.39.07c-.23,0-.4-.06-.53-.17s-.18-.25-.18-.43c0-.1.02-.19.07-.28s.11-.15.18-.2.16-.09.25-.12c.07-.02.17-.04.31-.05.28-.03.49-.07.63-.12,0-.05,0-.08,0-.09,0-.14-.03-.24-.1-.3-.09-.08-.22-.12-.4-.12-.17,0-.29.03-.37.09s-.14.16-.17.31l-.34-.05c.03-.15.08-.27.15-.36s.18-.16.31-.21.29-.07.47-.07.32.02.43.06.19.09.24.16.09.14.11.24c.01.06.02.17.02.32v.47c0,.33,0,.53.02.62s.04.17.09.25h-.37c-.04-.07-.06-.16-.07-.26Zm-.03-.79c-.13.05-.32.1-.57.13-.14.02-.25.04-.31.07s-.11.06-.14.11-.05.11-.05.17c0,.09.04.17.11.23s.17.09.31.09.26-.03.36-.09.18-.14.23-.24c.04-.08.06-.2.06-.35v-.13Z"/><path d="m174.17,98.24v-2.07h.32v.29c.15-.23.37-.34.66-.34.12,0,.24.02.34.07s.18.1.24.18.09.16.11.26c.01.07.02.18.02.34v1.28h-.35v-1.26c0-.14-.01-.25-.04-.32s-.08-.13-.15-.17-.15-.06-.25-.06c-.15,0-.28.05-.39.14s-.16.28-.16.54v1.13h-.35Z"/><path d="m177.76,98.24v-.3c-.16.23-.38.35-.66.35-.12,0-.24-.02-.34-.07s-.19-.11-.24-.18-.09-.16-.11-.26c-.01-.07-.02-.18-.02-.33v-1.29h.35v1.15c0,.18,0,.31.02.37.02.09.07.17.14.22s.16.08.27.08.2-.03.3-.08.16-.13.2-.22.06-.23.06-.41v-1.11h.35v2.07h-.31Z"/><path d="m179.98,97.99c-.13.11-.26.19-.38.23s-.25.07-.39.07c-.23,0-.4-.06-.53-.17s-.18-.25-.18-.43c0-.1.02-.19.07-.28s.11-.15.18-.2.16-.09.25-.12c.07-.02.17-.04.31-.05.28-.03.49-.07.63-.12,0-.05,0-.08,0-.09,0-.14-.03-.24-.1-.3-.09-.08-.22-.12-.4-.12-.17,0-.29.03-.37.09s-.14.16-.17.31l-.34-.05c.03-.15.08-.27.15-.36s.18-.16.31-.21.29-.07.47-.07.32.02.43.06.19.09.24.16.09.14.11.24c.01.06.02.17.02.32v.47c0,.33,0,.53.02.62s.04.17.09.25h-.37c-.04-.07-.06-.16-.07-.26Zm-.03-.79c-.13.05-.32.1-.57.13-.14.02-.25.04-.31.07s-.11.06-.14.11-.05.11-.05.17c0,.09.04.17.11.23s.17.09.31.09.26-.03.36-.09.18-.14.23-.24c.04-.08.06-.2.06-.35v-.13Z"/><path d="m180.84,98.24v-2.86h.35v2.86h-.35Z"/><path d="m156.06,103.04v-2.07h.31v.29c.06-.1.15-.18.26-.25s.23-.09.37-.09c.15,0,.28.03.38.1s.17.15.21.27c.16-.24.38-.36.64-.36.21,0,.36.06.47.17s.17.29.17.53v1.42h-.35v-1.31c0-.14-.01-.24-.03-.3s-.06-.11-.12-.15-.13-.06-.21-.06c-.15,0-.27.05-.36.15s-.14.25-.14.47v1.21h-.35v-1.35c0-.16-.03-.27-.09-.35s-.15-.12-.28-.12c-.1,0-.19.03-.27.08s-.15.13-.18.23-.06.25-.06.43v1.08h-.35Z"/><path d="m160.74,102.79c-.13.11-.26.19-.38.23s-.25.07-.39.07c-.23,0-.4-.06-.53-.17s-.18-.25-.18-.43c0-.1.02-.19.07-.28s.11-.15.18-.2.16-.09.25-.12c.07-.02.17-.04.31-.05.28-.03.49-.07.63-.12,0-.05,0-.08,0-.09,0-.14-.03-.24-.1-.3-.09-.08-.22-.12-.4-.12-.17,0-.29.03-.37.09s-.14.16-.17.31l-.34-.05c.03-.15.08-.27.15-.36s.18-.16.31-.21.29-.07.47-.07.32.02.43.06.19.09.24.16.09.14.11.24c.01.06.02.17.02.32v.47c0,.33,0,.53.02.62s.04.17.09.25h-.37c-.04-.07-.06-.16-.07-.26Zm-.03-.79c-.13.05-.32.1-.57.13-.14.02-.25.04-.31.07s-.11.06-.14.11-.05.11-.05.17c0,.09.04.17.11.23s.17.09.31.09.26-.03.36-.09.18-.14.23-.24c.04-.08.06-.2.06-.35v-.13Z"/><path d="m161.61,100.59v-.4h.35v.4h-.35Zm0,2.46v-2.07h.35v2.07h-.35Z"/><path d="m162.5,103.04v-2.07h.32v.29c.15-.23.37-.34.66-.34.12,0,.24.02.34.07s.18.1.24.18.09.16.11.26c.01.07.02.18.02.34v1.28h-.35v-1.26c0-.14-.01-.25-.04-.32s-.08-.13-.15-.17-.15-.06-.25-.06c-.15,0-.28.05-.39.14s-.16.28-.16.54v1.13h-.35Z"/><path d="m165.49,102.73l.05.31c-.1.02-.19.03-.27.03-.13,0-.23-.02-.3-.06s-.12-.09-.15-.16-.04-.2-.04-.42v-1.19h-.26v-.27h.26v-.51l.35-.21v.72h.35v.27h-.35v1.21c0,.1,0,.17.02.19s.03.05.06.07.07.03.12.03c.04,0,.09,0,.15-.01Z"/><path d="m167.26,102.38l.36.04c-.06.21-.16.38-.32.49s-.35.18-.59.18c-.3,0-.54-.09-.72-.28s-.27-.45-.27-.79.09-.62.27-.81.41-.29.7-.29.5.09.68.28.26.45.26.8c0,.02,0,.05,0,.09h-1.55c.01.23.08.4.19.52s.26.18.43.18c.13,0,.24-.03.33-.1s.16-.18.22-.32Zm-1.15-.57h1.16c-.02-.17-.06-.31-.13-.39-.11-.14-.26-.2-.44-.2-.16,0-.3.05-.41.16s-.17.25-.18.43Z"/><path d="m168.06,103.04v-2.07h.32v.29c.15-.23.37-.34.66-.34.12,0,.24.02.34.07s.18.1.24.18.09.16.11.26c.01.07.02.18.02.34v1.28h-.35v-1.26c0-.14-.01-.25-.04-.32s-.08-.13-.15-.17-.15-.06-.25-.06c-.15,0-.28.05-.39.14s-.16.28-.16.54v1.13h-.35Z"/><path d="m171.64,102.79c-.13.11-.26.19-.38.23s-.25.07-.39.07c-.23,0-.4-.06-.53-.17s-.18-.25-.18-.43c0-.1.02-.19.07-.28s.11-.15.18-.2.16-.09.25-.12c.07-.02.17-.04.31-.05.28-.03.49-.07.63-.12,0-.05,0-.08,0-.09,0-.14-.03-.24-.1-.3-.09-.08-.22-.12-.4-.12-.17,0-.29.03-.37.09s-.14.16-.17.31l-.34-.05c.03-.15.08-.27.15-.36s.18-.16.31-.21.29-.07.47-.07.32.02.43.06.19.09.24.16.09.14.11.24c.01.06.02.17.02.32v.47c0,.33,0,.53.02.62s.04.17.09.25h-.37c-.04-.07-.06-.16-.07-.26Zm-.03-.79c-.13.05-.32.1-.57.13-.14.02-.25.04-.31.07s-.11.06-.14.11-.05.11-.05.17c0,.09.04.17.11.23s.17.09.31.09.26-.03.36-.09.18-.14.23-.24c.04-.08.06-.2.06-.35v-.13Z"/><path d="m172.51,103.04v-2.07h.32v.29c.15-.23.37-.34.66-.34.12,0,.24.02.34.07s.18.1.24.18.09.16.11.26c.01.07.02.18.02.34v1.28h-.35v-1.26c0-.14-.01-.25-.04-.32s-.08-.13-.15-.17-.15-.06-.25-.06c-.15,0-.28.05-.39.14s-.16.28-.16.54v1.13h-.35Z"/><path d="m176.09,102.28l.35.04c-.04.24-.13.42-.29.56s-.35.2-.57.2c-.28,0-.51-.09-.68-.28s-.26-.45-.26-.8c0-.22.04-.42.11-.59s.19-.29.34-.38.32-.13.5-.13c.23,0,.41.06.55.17s.23.28.28.49l-.34.05c-.03-.14-.09-.24-.17-.31s-.18-.11-.3-.11c-.18,0-.32.06-.43.19s-.17.33-.17.6.05.48.16.61.25.19.42.19c.14,0,.25-.04.35-.13s.15-.21.18-.39Z"/><path d="m178.15,102.38l.36.04c-.06.21-.16.38-.32.49s-.35.18-.59.18c-.3,0-.54-.09-.72-.28s-.27-.45-.27-.79.09-.62.27-.81.41-.29.7-.29.5.09.68.28.26.45.26.8c0,.02,0,.05,0,.09h-1.55c.01.23.08.4.19.52s.26.18.43.18c.13,0,.24-.03.33-.1s.16-.18.22-.32Zm-1.15-.57h1.16c-.02-.17-.06-.31-.13-.39-.11-.14-.26-.2-.44-.2-.16,0-.3.05-.41.16s-.17.25-.18.43Z"/><rect class="cls-7" x="308.98" y="198.43" width="56.69" height="28.35"/><text class="cls-10" transform="translate(312.76 214.03)"><tspan x="0" y="0">Set correct media thickness</tspan></text><rect class="cls-7" x="223.94" y="325.98" width="56.69" height="28.35"/><text class="cls-10" transform="translate(229.6 339.19)"><tspan x="0" y="0">Change to Default-setting </tspan><tspan x="7.89" y="4.8">(C1640 / C1650)</tspan></text><rect class="cls-7" x="308.98" y="425.2" width="56.69" height="28.35"/><text class="cls-10" transform="translate(312.87 440.8)"><tspan x="0" y="0">Change UCR / GCR setting</tspan></text><path class="cls-4" d="m167.24,481.89l28.35,14.17-28.35,14.17-28.35-14.17,28.35-14.17Z"/><text class="cls-10" transform="translate(151.34 495.09)"><tspan x="0" y="0">Engine shut down </tspan><tspan x="7.12" y="4.8">too long ?</tspan></text><rect class="cls-7" x="138.9" y="524.41" width="56.69" height="28.35"/><text class="cls-10" transform="translate(152.8 540.02)"><tspan x="0" y="0">Inform customer</tspan></text><rect class="cls-7" x="223.94" y="552.76" width="56.69" height="28.35"/><text class="cls-10" transform="translate(237.16 568.36)"><tspan x="0" y="0">Clean printheads</tspan></text><rect class="cls-7" x="223.94" y="595.28" width="56.69" height="28.35"/><text class="cls-10" transform="translate(235.05 610.88)"><tspan x="0" y="0">Replace printheads</tspan></text><rect class="cls-7" x="223.94" y="368.5" width="56.69" height="28.35"/><text class="cls-10" transform="translate(226.27 381.71)"><tspan x="0" y="0">Use mono-directional printing </tspan><tspan x="17.01" y="4.8">(M-series)</tspan></text><rect class="cls-7" x="223.94" y="453.54" width="56.69" height="28.35"/><text class="cls-10" transform="translate(240.72 469.15)"><tspan x="0" y="0">Adjust height</tspan></text><rect class="cls-7" x="53.86" y="425.2" width="56.69" height="28.35"/><text class="cls-10" transform="translate(67.53 440.8)"><tspan x="0" y="0">Clean inksystem</tspan></text><rect class="cls-8" x="53.86" y="28.35" width="56.69" height="14.17" rx="5.67" ry="5.67"/><rect class="cls-3" x="53.86" y="28.35" width="56.69" height="14.17" rx="5.67" ry="5.67"/><text class="cls-10" transform="translate(55.41 36.78)"><tspan x="0" y="0">Graininess in the whole image</tspan></text><path class="cls-4" d="m252.28,283.46l28.35,14.17-28.35,14.17-28.35-14.17,28.35-14.17Z"/><text class="cls-10" transform="translate(236.61 299.07)"><tspan x="0" y="0">Robust strategy ?</tspan></text><rect class="cls-7" x="308.98" y="255.12" width="56.69" height="28.35"/><text class="cls-10" transform="translate(317.31 270.72)"><tspan x="0" y="0">Select correct printgap</tspan></text></g><g id="Lines"><line class="cls-8" x1="82.2" y1="42.52" x2="82.2" y2="56.69"/><line class="cls-5" x1="82.2" y1="42.52" x2="82.2" y2="54.43"/><path d="m82.2,56.69c-.4-1.06-1.07-2.39-1.78-3.21l1.78.65,1.78-.65c-.71.82-1.39,2.14-1.78,3.21Z"/><line class="cls-8" x1="82.2" y1="141.73" x2="82.2" y2="425.2"/><line class="cls-5" x1="82.2" y1="141.73" x2="82.2" y2="422.93"/><path d="m82.2,425.2c-.4-1.06-1.07-2.39-1.78-3.21l1.78.65,1.78-.65c-.71.82-1.39,2.14-1.78,3.21Z"/><polyline class="cls-5" points="110.55 70.87 167.24 70.87 167.24 82.78"/><path d="m167.24,85.04c-.4-1.06-1.07-2.39-1.78-3.21l1.78.65,1.78-.65c-.71.82-1.39,2.14-1.78,3.21Z"/><path class="cls-1" d="m122.6,70.87c0,1.56-1.28,2.83-2.83,2.83h-4.25c-1.56,0-2.83-1.28-2.83-2.83h0c0-1.56,1.28-2.83,2.83-2.83h4.25c1.56,0,2.83,1.28,2.83,2.83h0Z"/><path class="cls-3" d="m122.6,70.87c0,1.56-1.28,2.83-2.83,2.83h-4.25c-1.56,0-2.83-1.28-2.83-2.83h0c0-1.56,1.28-2.83,2.83-2.83h4.25c1.56,0,2.83,1.28,2.83,2.83h0Z"/><text class="cls-10" transform="translate(115.08 72.36)"><tspan x="0" y="0">No</tspan></text><polyline class="cls-5" points="110.55 127.56 167.24 127.56 167.24 139.47"/><path d="m167.24,141.73c-.4-1.06-1.07-2.39-1.78-3.21l1.78.65,1.78-.65c-.71.82-1.39,2.14-1.78,3.21Z"/><path class="cls-1" d="m122.6,127.56c0,1.56-1.28,2.83-2.83,2.83h-4.25c-1.56,0-2.83-1.28-2.83-2.83h0c0-1.56,1.28-2.83,2.83-2.83h4.25c1.56,0,2.83,1.28,2.83,2.83h0Z"/><path class="cls-3" d="m122.6,127.56c0,1.56-1.28,2.83-2.83,2.83h-4.25c-1.56,0-2.83-1.28-2.83-2.83h0c0-1.56,1.28-2.83,2.83-2.83h4.25c1.56,0,2.83,1.28,2.83,2.83h0Z"/><text class="cls-10" transform="translate(115.08 129.05)"><tspan x="0" y="0">No</tspan></text><polyline class="cls-5" points="195.59 155.91 252.28 155.91 252.28 167.82"/><path d="m252.28,170.08c-.4-1.06-1.07-2.39-1.78-3.21l1.78.65,1.78-.65c-.71.82-1.39,2.14-1.78,3.21Z"/><path class="cls-1" d="m207.64,155.91c0,1.56-1.28,2.83-2.83,2.83h-4.25c-1.56,0-2.83-1.28-2.83-2.83h0c0-1.56,1.28-2.83,2.83-2.83h4.25c1.56,0,2.83,1.28,2.83,2.83h0Z"/><path class="cls-3" d="m207.64,155.91c0,1.56-1.28,2.83-2.83,2.83h-4.25c-1.56,0-2.83-1.28-2.83-2.83h0c0-1.56,1.28-2.83,2.83-2.83h4.25c1.56,0,2.83,1.28,2.83,2.83h0Z"/><text class="cls-10" transform="translate(200.12 157.4)"><tspan x="0" y="0">No</tspan></text><polyline class="cls-5" points="280.63 184.25 337.32 184.25 337.32 196.16"/><path d="m337.32,198.43c-.4-1.06-1.07-2.39-1.78-3.21l1.78.65,1.78-.65c-.71.82-1.39,2.14-1.78,3.21Z"/><path class="cls-1" d="m292.68,184.25c0,1.56-1.28,2.83-2.83,2.83h-4.25c-1.56,0-2.83-1.28-2.83-2.83h0c0-1.56,1.28-2.83,2.83-2.83h4.25c1.56,0,2.83,1.28,2.83,2.83h0Z"/><path class="cls-3" d="m292.68,184.25c0,1.56-1.28,2.83-2.83,2.83h-4.25c-1.56,0-2.83-1.28-2.83-2.83h0c0-1.56,1.28-2.83,2.83-2.83h4.25c1.56,0,2.83,1.28,2.83,2.83h0Z"/><text class="cls-10" transform="translate(285.16 185.74)"><tspan x="0" y="0">No</tspan></text><path class="cls-1" d="m87.17,147.4c0,1.56-1.28,2.83-2.83,2.83h-4.25c-1.56,0-2.83-1.28-2.83-2.83s1.28-2.83,2.83-2.83h4.25c1.56,0,2.83,1.28,2.83,2.83Z"/><path class="cls-3" d="m87.17,147.4c0,1.56-1.28,2.83-2.83,2.83h-4.25c-1.56,0-2.83-1.28-2.83-2.83s1.28-2.83,2.83-2.83h4.25c1.56,0,2.83,1.28,2.83,2.83Z"/><text class="cls-10" transform="translate(78.94 148.89)"><tspan class="cls-9" x="0" y="0">Y</tspan><tspan x="2.3" y="0">es</tspan></text><polyline class="cls-5" points="195.59 439.37 252.28 439.37 252.28 451.28"/><path d="m252.28,453.54c-.4-1.06-1.07-2.39-1.78-3.21l1.78.65,1.78-.65c-.71.82-1.39,2.14-1.78,3.21Z"/><line class="cls-5" x1="252.28" y1="581.1" x2="252.28" y2="593.01"/><path d="m252.28,595.28c-.4-1.06-1.07-2.39-1.78-3.21l1.78.65,1.78-.65c-.71.82-1.39,2.14-1.78,3.21Z"/><path class="cls-1" d="m207.64,439.37c0,1.56-1.28,2.83-2.83,2.83h-4.25c-1.56,0-2.83-1.28-2.83-2.83h0c0-1.56,1.28-2.83,2.83-2.83h4.25c1.56,0,2.83,1.28,2.83,2.83h0Z"/><path class="cls-3" d="m207.64,439.37c0,1.56-1.28,2.83-2.83,2.83h-4.25c-1.56,0-2.83-1.28-2.83-2.83h0c0-1.56,1.28-2.83,2.83-2.83h4.25c1.56,0,2.83,1.28,2.83,2.83h0Z"/><text class="cls-10" transform="translate(200.12 440.86)"><tspan x="0" y="0">No</tspan></text><polyline class="cls-5" points="195.59 496.06 252.28 496.06 252.28 550.49"/><path d="m252.28,552.76c-.4-1.06-1.07-2.39-1.78-3.21l1.78.65,1.78-.65c-.71.82-1.39,2.14-1.78,3.21Z"/><line class="cls-5" x1="195.59" y1="538.58" x2="250.02" y2="538.58"/><path d="m252.28,538.58c-1.06.4-2.39,1.07-3.21,1.78l.65-1.78-.65-1.78c.82.71,2.14,1.39,3.21,1.78Z"/><path class="cls-1" d="m207.64,496.06c0,1.56-1.28,2.83-2.83,2.83h-4.25c-1.56,0-2.83-1.28-2.83-2.83h0c0-1.56,1.28-2.83,2.83-2.83h4.25c1.56,0,2.83,1.28,2.83,2.83h0Z"/><path class="cls-3" d="m207.64,496.06c0,1.56-1.28,2.83-2.83,2.83h-4.25c-1.56,0-2.83-1.28-2.83-2.83h0c0-1.56,1.28-2.83,2.83-2.83h4.25c1.56,0,2.83,1.28,2.83,2.83h0Z"/><text class="cls-10" transform="translate(200.12 497.56)"><tspan x="0" y="0">No</tspan></text><line class="cls-8" x1="167.24" y1="453.54" x2="167.24" y2="481.89"/><line class="cls-5" x1="167.24" y1="453.54" x2="167.24" y2="479.63"/><path d="m167.24,481.89c-.4-1.06-1.07-2.39-1.78-3.21l1.78.65,1.78-.65c-.71.82-1.39,2.14-1.78,3.21Z"/><path class="cls-1" d="m172.2,459.34c0,1.56-1.28,2.83-2.83,2.83h-4.25c-1.56,0-2.83-1.28-2.83-2.83s1.28-2.83,2.83-2.83h4.25c1.56,0,2.83,1.28,2.83,2.83Z"/><path class="cls-3" d="m172.2,459.34c0,1.56-1.28,2.83-2.83,2.83h-4.25c-1.56,0-2.83-1.28-2.83-2.83s1.28-2.83,2.83-2.83h4.25c1.56,0,2.83,1.28,2.83,2.83Z"/><text class="cls-10" transform="translate(163.98 460.83)"><tspan class="cls-9" x="0" y="0">Y</tspan><tspan x="2.3" y="0">es</tspan></text><line class="cls-8" x1="167.24" y1="510.24" x2="167.24" y2="524.41"/><line class="cls-5" x1="167.24" y1="510.24" x2="167.24" y2="522.15"/><path d="m167.24,524.41c-.4-1.06-1.07-2.39-1.78-3.21l1.78.65,1.78-.65c-.71.82-1.39,2.14-1.78,3.21Z"/><path class="cls-1" d="m172.2,516.03c0,1.56-1.28,2.83-2.83,2.83h-4.25c-1.56,0-2.83-1.28-2.83-2.83s1.28-2.83,2.83-2.83h4.25c1.56,0,2.83,1.28,2.83,2.83Z"/><path class="cls-3" d="m172.2,516.03c0,1.56-1.28,2.83-2.83,2.83h-4.25c-1.56,0-2.83-1.28-2.83-2.83s1.28-2.83,2.83-2.83h4.25c1.56,0,2.83,1.28,2.83,2.83Z"/><text class="cls-10" transform="translate(163.98 517.52)"><tspan class="cls-9" x="0" y="0">Y</tspan><tspan x="2.3" y="0">es</tspan></text><line class="cls-8" x1="252.28" y1="311.81" x2="252.28" y2="325.98"/><line class="cls-5" x1="252.28" y1="311.81" x2="252.28" y2="323.72"/><path d="m252.28,325.98c-.4-1.06-1.07-2.39-1.78-3.21l1.78.65,1.78-.65c-.71.82-1.39,2.14-1.78,3.21Z"/><path class="cls-1" d="m257.24,317.61c0,1.56-1.28,2.83-2.83,2.83h-4.25c-1.56,0-2.83-1.28-2.83-2.83s1.28-2.83,2.83-2.83h4.25c1.56,0,2.83,1.28,2.83,2.83Z"/><path class="cls-3" d="m257.24,317.61c0,1.56-1.28,2.83-2.83,2.83h-4.25c-1.56,0-2.83-1.28-2.83-2.83s1.28-2.83,2.83-2.83h4.25c1.56,0,2.83,1.28,2.83,2.83Z"/><text class="cls-10" transform="translate(249.02 319.1)"><tspan class="cls-9" x="0" y="0">Y</tspan><tspan x="2.3" y="0">es</tspan></text><line class="cls-8" x1="252.28" y1="198.43" x2="252.28" y2="226.77"/><line class="cls-5" x1="252.28" y1="198.43" x2="252.28" y2="224.51"/><path d="m252.28,226.77c-.4-1.06-1.07-2.39-1.78-3.21l1.78.65,1.78-.65c-.71.82-1.39,2.14-1.78,3.21Z"/><path class="cls-1" d="m257.24,204.22c0,1.56-1.28,2.83-2.83,2.83h-4.25c-1.56,0-2.83-1.28-2.83-2.83s1.28-2.83,2.83-2.83h4.25c1.56,0,2.83,1.28,2.83,2.83Z"/><path class="cls-3" d="m257.24,204.22c0,1.56-1.28,2.83-2.83,2.83h-4.25c-1.56,0-2.83-1.28-2.83-2.83s1.28-2.83,2.83-2.83h4.25c1.56,0,2.83,1.28,2.83,2.83Z"/><text class="cls-10" transform="translate(249.02 205.71)"><tspan class="cls-9" x="0" y="0">Y</tspan><tspan x="2.3" y="0">es</tspan></text><line class="cls-8" x1="167.24" y1="170.08" x2="167.24" y2="425.2"/><line class="cls-5" x1="167.24" y1="170.08" x2="167.24" y2="422.93"/><path d="m167.24,425.2c-.4-1.06-1.07-2.39-1.78-3.21l1.78.65,1.78-.65c-.71.82-1.39,2.14-1.78,3.21Z"/><path class="cls-1" d="m172.2,175.87c0,1.56-1.28,2.83-2.83,2.83h-4.25c-1.56,0-2.83-1.28-2.83-2.83s1.28-2.83,2.83-2.83h4.25c1.56,0,2.83,1.28,2.83,2.83Z"/><path class="cls-3" d="m172.2,175.87c0,1.56-1.28,2.83-2.83,2.83h-4.25c-1.56,0-2.83-1.28-2.83-2.83s1.28-2.83,2.83-2.83h4.25c1.56,0,2.83,1.28,2.83,2.83Z"/><text class="cls-10" transform="translate(163.98 177.37)"><tspan class="cls-9" x="0" y="0">Y</tspan><tspan x="2.3" y="0">es</tspan></text><line class="cls-8" x1="252.28" y1="354.33" x2="252.28" y2="368.5"/><line class="cls-5" x1="252.28" y1="354.33" x2="252.28" y2="366.24"/><path d="m252.28,368.5c-.4-1.06-1.07-2.39-1.78-3.21l1.78.65,1.78-.65c-.71.82-1.39,2.14-1.78,3.21Z"/><path class="cls-1" d="m257.24,360.13c0,1.56-1.28,2.83-2.83,2.83h-4.25c-1.56,0-2.83-1.28-2.83-2.83s1.28-2.83,2.83-2.83h4.25c1.56,0,2.83,1.28,2.83,2.83Z"/><path class="cls-3" d="m257.24,360.13c0,1.56-1.28,2.83-2.83,2.83h-4.25c-1.56,0-2.83-1.28-2.83-2.83s1.28-2.83,2.83-2.83h4.25c1.56,0,2.83,1.28,2.83,2.83Z"/><text class="cls-10" transform="translate(249.02 361.62)"><tspan class="cls-9" x="0" y="0">Y</tspan><tspan x="2.3" y="0">es</tspan></text><line class="cls-8" x1="252.28" y1="255.12" x2="252.28" y2="283.46"/><line class="cls-5" x1="252.28" y1="255.12" x2="252.28" y2="281.2"/><path d="m252.28,283.46c-.4-1.06-1.07-2.39-1.78-3.21l1.78.65,1.78-.65c-.71.82-1.39,2.14-1.78,3.21Z"/><path class="cls-1" d="m257.24,260.91c0,1.56-1.28,2.83-2.83,2.83h-4.25c-1.56,0-2.83-1.28-2.83-2.83s1.28-2.83,2.83-2.83h4.25c1.56,0,2.83,1.28,2.83,2.83Z"/><path class="cls-3" d="m257.24,260.91c0,1.56-1.28,2.83-2.83,2.83h-4.25c-1.56,0-2.83-1.28-2.83-2.83s1.28-2.83,2.83-2.83h4.25c1.56,0,2.83,1.28,2.83,2.83Z"/><text class="cls-10" transform="translate(249.02 262.41)"><tspan class="cls-9" x="0" y="0">Y</tspan><tspan x="2.3" y="0">es</tspan></text><polyline class="cls-5" points="280.63 240.94 337.32 240.94 337.32 252.85"/><path d="m337.32,255.12c-.4-1.06-1.07-2.39-1.78-3.21l1.78.65,1.78-.65c-.71.82-1.39,2.14-1.78,3.21Z"/><path class="cls-1" d="m292.68,240.94c0,1.56-1.28,2.83-2.83,2.83h-4.25c-1.56,0-2.83-1.28-2.83-2.83h0c0-1.56,1.28-2.83,2.83-2.83h4.25c1.56,0,2.83,1.28,2.83,2.83h0Z"/><path class="cls-3" d="m292.68,240.94c0,1.56-1.28,2.83-2.83,2.83h-4.25c-1.56,0-2.83-1.28-2.83-2.83h0c0-1.56,1.28-2.83,2.83-2.83h4.25c1.56,0,2.83,1.28,2.83,2.83h0Z"/><text class="cls-10" transform="translate(285.16 242.44)"><tspan x="0" y="0">No</tspan></text><line class="cls-8" x1="82.2" y1="85.04" x2="82.2" y2="113.39"/><line class="cls-5" x1="82.2" y1="85.04" x2="82.2" y2="111.12"/><path d="m82.2,113.39c-.4-1.06-1.07-2.39-1.78-3.21l1.78.65,1.78-.65c-.71.82-1.39,2.14-1.78,3.21Z"/><path class="cls-1" d="m87.17,90.83c0,1.56-1.28,2.83-2.83,2.83h-4.25c-1.56,0-2.83-1.28-2.83-2.83s1.28-2.83,2.83-2.83h4.25c1.56,0,2.83,1.28,2.83,2.83Z"/><path class="cls-3" d="m87.17,90.83c0,1.56-1.28,2.83-2.83,2.83h-4.25c-1.56,0-2.83-1.28-2.83-2.83s1.28-2.83,2.83-2.83h4.25c1.56,0,2.83,1.28,2.83,2.83Z"/><text class="cls-10" transform="translate(78.94 92.33)"><tspan class="cls-9" x="0" y="0">Y</tspan><tspan x="2.3" y="0">es</tspan></text><polyline class="cls-5" points="280.63 297.64 337.32 297.64 337.32 422.93"/><path d="m337.32,425.2c-.4-1.06-1.07-2.39-1.78-3.21l1.78.65,1.78-.65c-.71.82-1.39,2.14-1.78,3.21Z"/><path class="cls-1" d="m292.68,297.64c0,1.56-1.28,2.83-2.83,2.83h-4.25c-1.56,0-2.83-1.28-2.83-2.83h0c0-1.56,1.28-2.83,2.83-2.83h4.25c1.56,0,2.83,1.28,2.83,2.83h0Z"/><path class="cls-3" d="m292.68,297.64c0,1.56-1.28,2.83-2.83,2.83h-4.25c-1.56,0-2.83-1.28-2.83-2.83h0c0-1.56,1.28-2.83,2.83-2.83h4.25c1.56,0,2.83,1.28,2.83,2.83h0Z"/><text class="cls-10" transform="translate(285.16 299.13)"><tspan x="0" y="0">No</tspan></text></g><g id="Numbers"><circle class="cls-2" cx="48.19" cy="70.87" r="5.67"/><text class="cls-13" transform="translate(46.52 72.88)"><tspan x="0" y="0">1</tspan></text><circle class="cls-2" cx="133.23" cy="155.91" r="5.67"/><text class="cls-13" transform="translate(131.56 157.92)"><tspan x="0" y="0">5</tspan></text><circle class="cls-2" cx="303.31" cy="212.6" r="5.67" transform="translate(-30.14 51.33) rotate(-9.22)"/><text class="cls-13" transform="translate(301.64 214.61)"><tspan x="0" y="0">7</tspan></text><circle class="cls-2" cx="218.27" cy="184.25" r="5.67"/><text class="cls-13" transform="translate(216.6 186.26)"><tspan x="0" y="0">6</tspan></text><circle class="cls-2" cx="303.31" cy="269.29" r="5.67"/><text class="cls-13" transform="translate(301.64 271.3)"><tspan x="0" y="0">9</tspan></text><circle class="cls-2" cx="218.27" cy="240.94" r="5.67"/><text class="cls-13" transform="translate(216.6 242.96)"><tspan x="0" y="0">8</tspan></text><circle class="cls-2" cx="218.27" cy="340.16" r="5.67"/><text class="cls-13" transform="translate(215.1 342.17)"><tspan class="cls-12" x="0" y="0">1</tspan><tspan x="3.01" y="0">1</tspan></text><circle class="cls-2" cx="218.27" cy="297.64" r="5.67"/><text class="cls-13" transform="translate(214.93 299.65)"><tspan x="0" y="0">10</tspan></text><circle class="cls-2" cx="303.31" cy="439.37" r="5.67"/><text class="cls-13" transform="translate(299.97 441.38)"><tspan x="0" y="0">13</tspan></text><circle class="cls-2" cx="218.27" cy="466.28" r="5.67"/><text class="cls-13" transform="translate(214.93 468.3)"><tspan x="0" y="0">15</tspan></text><circle class="cls-2" cx="133.23" cy="496.06" r="5.67"/><text class="cls-13" transform="translate(129.89 498.07)"><tspan x="0" y="0">16</tspan></text><circle class="cls-2" cx="218.27" cy="566.93" r="5.67"/><text class="cls-13" transform="translate(214.93 568.94)"><tspan x="0" y="0">18</tspan></text><circle class="cls-2" cx="218.27" cy="382.68" r="5.67"/><text class="cls-13" transform="translate(214.93 384.69)"><tspan x="0" y="0">12</tspan></text><circle class="cls-2" cx="133.23" cy="439.37" r="5.67"/><text class="cls-13" transform="translate(129.89 441.38)"><tspan x="0" y="0">14</tspan></text><circle class="cls-2" cx="133.23" cy="99.21" r="5.67"/><text class="cls-13" transform="translate(131.56 101.22)"><tspan x="0" y="0">2</tspan></text><circle class="cls-2" cx="48.19" cy="439.37" r="5.67"/><text class="cls-13" transform="translate(46.52 441.38)"><tspan x="0" y="0">4</tspan></text><circle class="cls-2" cx="48.19" cy="127.56" r="5.67"/><text class="cls-13" transform="translate(46.52 129.57)"><tspan x="0" y="0">3</tspan></text><circle class="cls-2" cx="133.23" cy="538.58" r="5.67"/><text class="cls-13" transform="translate(129.89 540.59)"><tspan x="0" y="0">17</tspan></text><circle class="cls-2" cx="218.27" cy="609.45" r="5.67"/><text class="cls-13" transform="translate(214.93 611.46)"><tspan x="0" y="0">19</tspan></text></g></svg>