<?xml version="1.0" encoding="UTF-8"?><svg xmlns="http://www.w3.org/2000/svg" viewBox="0 0 199.84 464.88"><defs><style>.cls-1,.cls-2{fill:#fff;}.cls-2,.cls-3,.cls-4,.cls-5,.cls-6{stroke:#000;}.cls-2,.cls-3,.cls-4,.cls-5,.cls-6,.cls-7{stroke-linecap:round;stroke-linejoin:round;}.cls-2,.cls-4,.cls-5,.cls-6,.cls-7{stroke-width:.5px;}.cls-8{fill:#ffe0b2;}.cls-9{letter-spacing:-.06em;}.cls-3{stroke-width:.25px;}.cls-3,.cls-4,.cls-7{fill:none;}.cls-10{font-size:6px;}.cls-10,.cls-11{font-family:Arial-BoldMT, Arial;font-weight:700;}.cls-5{fill:#bbdefb;}.cls-12{font-family:ArialMT, Arial;font-size:4px;}.cls-6{fill:#c8e6c9;}.cls-7{stroke:#e0e0e0;}.cls-13{letter-spacing:-.09em;}.cls-11{font-size:5.79px;}</style></defs><g id="Bckground"><rect class="cls-1" width="199.84" height="464.88"/></g><g id="Frame"><rect class="cls-7" x="5.67" y="5.67" width="187.09" height="334.49"/><rect class="cls-7" x="5.67" y="340.16" width="187.09" height="119.06"/><text class="cls-11" transform="translate(8.5 13.37) scale(1.04 1)"><tspan x="0" y="0">Customer / Remote support</tspan></text><text class="cls-11" transform="translate(8.5 348.66) scale(1.04 1)"><tspan x="0" y="0">Field engineer</tspan></text></g><g id="Blocks"><path class="cls-6" d="M56.69,48.19l28.35,14.17-28.35,14.17-28.35-14.17,28.35-14.17Z"/><text class="cls-12" transform="translate(44.24 63.79)"><tspan x="0" y="0">Media clean ?</tspan></text><path class="cls-6" d="M56.69,104.88l28.35,14.17-28.35,14.17-28.35-14.17,28.35-14.17Z"/><text class="cls-12" transform="translate(44.13 118.09)"><tspan x="0" y="0">Correct media </tspan><tspan x=".55" y="4.8">profile used ?</tspan></text><rect class="cls-8" x="28.35" y="19.84" width="56.69" height="14.17" rx="5.67" ry="5.67"/><rect class="cls-4" x="28.35" y="19.84" width="56.69" height="14.17" rx="5.67" ry="5.67"/><text class="cls-12" transform="translate(52.47 28.28)"><tspan x="0" y="0">Start</tspan></text><rect class="cls-8" x="28.35" y="439.37" width="56.69" height="14.17" rx="5.67" ry="5.67"/><rect class="cls-4" x="28.35" y="439.37" width="56.69" height="14.17" rx="5.67" ry="5.67"/><text class="cls-12" transform="translate(53.13 447.8)"><tspan x="0" y="0">End</tspan></text><g id="Process"><rect class="cls-5" x="113.39" y="76.54" width="56.69" height="28.35"/><text class="cls-12" transform="translate(124.95 92.14)"><tspan x="0" y="0">Clean or cut media</tspan></text></g><g id="Process-2"><rect class="cls-5" x="113.39" y="133.23" width="56.69" height="28.35"/><text class="cls-12" transform="translate(125.5 148.83)"><tspan x="0" y="0">Use correct profile</tspan></text></g><path class="cls-6" d="M56.69,161.57l28.35,14.17-28.35,14.17-28.35-14.17,28.35-14.17Z"/><text class="cls-12" transform="translate(41.91 174.78)"><tspan x="0" y="0">Present on other </tspan><tspan x="7.67" y="4.8">media ?</tspan></text><path class="cls-6" d="M56.69,218.27l28.35,14.17-28.35,14.17-28.35-14.17,28.35-14.17Z"/><text class="cls-12" transform="translate(44.47 231.47)"><tspan x="0" y="0">M&amp;C-scanner</tspan><tspan x="5.78" y="4.8">clean ?</tspan></text><g id="Process-3"><rect class="cls-5" x="113.39" y="189.92" width="56.69" height="28.35"/><text class="cls-12" transform="translate(127.06 205.53)"><tspan x="0" y="0">Use other media</tspan></text></g><g id="Process-4"><rect class="cls-5" x="113.39" y="246.61" width="56.69" height="28.35"/><text class="cls-12" transform="translate(123.72 262.22)"><tspan x="0" y="0">Clean M&amp;C-scanner</tspan></text></g><g id="Process-5"><rect class="cls-5" x="28.35" y="354.33" width="56.69" height="28.35"/><text class="cls-12" transform="translate(38.24 369.94)"><tspan x="0" y="0">Check M&amp;C-scanner</tspan></text></g><g id="Process-6"><rect class="cls-5" x="28.35" y="396.85" width="56.69" height="28.35"/><text class="cls-12" transform="translate(38.24 412.46)"><tspan x="0" y="0">Check M&amp;C-scanner</tspan></text></g><g id="Process-7"><rect class="cls-5" x="113.39" y="354.33" width="56.69" height="28.35"/><text class="cls-12" transform="translate(125.5 369.94)"><tspan x="0" y="0">Replace printhead</tspan></text></g><path class="cls-6" d="M56.69,274.96l28.35,14.17-28.35,14.17-28.35-14.17,28.35-14.17Z"/><text class="cls-12" transform="translate(42.57 288.17)"><tspan x="0" y="0">Printed patterns </tspan><tspan x="8" y="4.8">good ?</tspan></text><g id="Process-8"><rect class="cls-5" x="113.39" y="303.31" width="56.69" height="28.35"/><text class="cls-12" transform="translate(123.16 318.91)"><tspan x="0" y="0">Manual maintenance</tspan></text></g><rect class="cls-8" x="113.39" y="396.85" width="56.69" height="14.17" rx="5.67" ry="5.67"/><rect class="cls-4" x="113.39" y="396.85" width="56.69" height="14.17" rx="5.67" ry="5.67"/><text class="cls-12" transform="translate(138.17 405.28)"><tspan x="0" y="0">End</tspan></text></g><g id="Lines"><line class="cls-8" x1="56.69" y1="34.02" x2="56.69" y2="48.19"/><line class="cls-3" x1="56.69" y1="34.02" x2="56.69" y2="45.93"/><path d="M56.69,48.19c-.4-1.06-1.07-2.39-1.78-3.21l1.78.65,1.78-.65c-.71.82-1.39,2.14-1.78,3.21Z"/><polyline class="cls-3" points="85.04 62.36 141.73 62.36 141.73 74.27"/><path d="M141.73,76.53c-.4-1.06-1.07-2.39-1.78-3.21l1.78.65,1.78-.65c-.71.82-1.39,2.14-1.78,3.21Z"/><path class="cls-1" d="M97.09,62.36c0,1.56-1.28,2.83-2.83,2.83h-4.25c-1.56,0-2.83-1.28-2.83-2.83h0c0-1.56,1.28-2.83,2.83-2.83h4.25c1.56,0,2.83,1.28,2.83,2.83h0Z"/><path class="cls-4" d="M97.09,62.36c0,1.56-1.28,2.83-2.83,2.83h-4.25c-1.56,0-2.83-1.28-2.83-2.83h0c0-1.56,1.28-2.83,2.83-2.83h4.25c1.56,0,2.83,1.28,2.83,2.83h0Z"/><text class="cls-12" transform="translate(89.57 63.85)"><tspan x="0" y="0">No</tspan></text><line class="cls-8" x1="56.69" y1="76.54" x2="56.69" y2="104.88"/><line class="cls-3" x1="56.69" y1="76.54" x2="56.69" y2="102.62"/><path d="M56.69,104.88c-.4-1.06-1.07-2.39-1.78-3.21l1.78.65,1.78-.65c-.71.82-1.39,2.14-1.78,3.21Z"/><line class="cls-8" x1="56.69" y1="133.23" x2="56.69" y2="161.57"/><line class="cls-3" x1="56.69" y1="133.23" x2="56.69" y2="159.31"/><path d="M56.69,161.57c-.4-1.06-1.07-2.39-1.78-3.21l1.78.65,1.78-.65c-.71.82-1.39,2.14-1.78,3.21Z"/><path class="cls-1" d="M61.65,82.2c0,1.56-1.28,2.83-2.83,2.83h-4.25c-1.56,0-2.83-1.28-2.83-2.83s1.28-2.83,2.83-2.83h4.25c1.56,0,2.83,1.28,2.83,2.83Z"/><path class="cls-4" d="M61.65,82.2c0,1.56-1.28,2.83-2.83,2.83h-4.25c-1.56,0-2.83-1.28-2.83-2.83s1.28-2.83,2.83-2.83h4.25c1.56,0,2.83,1.28,2.83,2.83Z"/><text class="cls-12" transform="translate(53.43 83.7)"><tspan class="cls-13" x="0" y="0">Y</tspan><tspan x="2.3" y="0">es</tspan></text><path class="cls-1" d="M61.65,138.9c0,1.56-1.28,2.83-2.83,2.83h-4.25c-1.56,0-2.83-1.28-2.83-2.83s1.28-2.83,2.83-2.83h4.25c1.56,0,2.83,1.28,2.83,2.83Z"/><path class="cls-4" d="M61.65,138.9c0,1.56-1.28,2.83-2.83,2.83h-4.25c-1.56,0-2.83-1.28-2.83-2.83s1.28-2.83,2.83-2.83h4.25c1.56,0,2.83,1.28,2.83,2.83Z"/><text class="cls-12" transform="translate(53.43 140.39)"><tspan class="cls-13" x="0" y="0">Y</tspan><tspan x="2.3" y="0">es</tspan></text><polyline class="cls-3" points="85.04 119.05 141.73 119.05 141.73 130.96"/><path d="M141.73,133.23c-.4-1.06-1.07-2.39-1.78-3.21l1.78.65,1.78-.65c-.71.82-1.39,2.14-1.78,3.21Z"/><path class="cls-1" d="M97.09,119.06c0,1.56-1.28,2.83-2.83,2.83h-4.25c-1.56,0-2.83-1.28-2.83-2.83h0c0-1.56,1.28-2.83,2.83-2.83h4.25c1.56,0,2.83,1.28,2.83,2.83h0Z"/><path class="cls-4" d="M97.09,119.06c0,1.56-1.28,2.83-2.83,2.83h-4.25c-1.56,0-2.83-1.28-2.83-2.83h0c0-1.56,1.28-2.83,2.83-2.83h4.25c1.56,0,2.83,1.28,2.83,2.83h0Z"/><text class="cls-12" transform="translate(89.57 120.55)"><tspan x="0" y="0">No</tspan></text><polyline class="cls-3" points="85.04 175.75 141.73 175.75 141.73 187.66"/><path d="M141.73,189.92c-.4-1.06-1.07-2.39-1.78-3.21l1.78.65,1.78-.65c-.71.82-1.39,2.14-1.78,3.21Z"/><path class="cls-1" d="M97.09,175.75c0,1.56-1.28,2.83-2.83,2.83h-4.25c-1.56,0-2.83-1.28-2.83-2.83h0c0-1.56,1.28-2.83,2.83-2.83h4.25c1.56,0,2.83,1.28,2.83,2.83h0Z"/><path class="cls-4" d="M97.09,175.75c0,1.56-1.28,2.83-2.83,2.83h-4.25c-1.56,0-2.83-1.28-2.83-2.83h0c0-1.56,1.28-2.83,2.83-2.83h4.25c1.56,0,2.83,1.28,2.83,2.83h0Z"/><text class="cls-12" transform="translate(89.57 177.24)"><tspan x="0" y="0">No</tspan></text><line class="cls-8" x1="56.69" y1="189.92" x2="56.69" y2="218.27"/><line class="cls-3" x1="56.69" y1="189.92" x2="56.69" y2="216"/><path d="M56.69,218.27c-.4-1.06-1.07-2.39-1.78-3.21l1.78.65,1.78-.65c-.71.82-1.39,2.14-1.78,3.21Z"/><line class="cls-8" x1="56.69" y1="246.61" x2="56.69" y2="274.96"/><line class="cls-3" x1="56.69" y1="246.61" x2="56.69" y2="272.7"/><path d="M56.69,274.96c-.4-1.06-1.07-2.39-1.78-3.21l1.78.65,1.78-.65c-.71.82-1.39,2.14-1.78,3.21Z"/><path class="cls-1" d="M61.65,195.59c0,1.56-1.28,2.83-2.83,2.83h-4.25c-1.56,0-2.83-1.28-2.83-2.83s1.28-2.83,2.83-2.83h4.25c1.56,0,2.83,1.28,2.83,2.83Z"/><path class="cls-4" d="M61.65,195.59c0,1.56-1.28,2.83-2.83,2.83h-4.25c-1.56,0-2.83-1.28-2.83-2.83s1.28-2.83,2.83-2.83h4.25c1.56,0,2.83,1.28,2.83,2.83Z"/><text class="cls-12" transform="translate(53.43 197.08)"><tspan class="cls-13" x="0" y="0">Y</tspan><tspan x="2.3" y="0">es</tspan></text><path class="cls-1" d="M61.65,252.28c0,1.56-1.28,2.83-2.83,2.83h-4.25c-1.56,0-2.83-1.28-2.83-2.83s1.28-2.83,2.83-2.83h4.25c1.56,0,2.83,1.28,2.83,2.83Z"/><path class="cls-4" d="M61.65,252.28c0,1.56-1.28,2.83-2.83,2.83h-4.25c-1.56,0-2.83-1.28-2.83-2.83s1.28-2.83,2.83-2.83h4.25c1.56,0,2.83,1.28,2.83,2.83Z"/><text class="cls-12" transform="translate(53.43 253.78)"><tspan class="cls-13" x="0" y="0">Y</tspan><tspan x="2.3" y="0">es</tspan></text><polyline class="cls-3" points="85.04 232.44 141.73 232.44 141.73 244.35"/><path d="M141.73,246.61c-.4-1.06-1.07-2.39-1.78-3.21l1.78.65,1.78-.65c-.71.82-1.39,2.14-1.78,3.21Z"/><path class="cls-1" d="M97.09,232.44c0,1.56-1.28,2.83-2.83,2.83h-4.25c-1.56,0-2.83-1.28-2.83-2.83h0c0-1.56,1.28-2.83,2.83-2.83h4.25c1.56,0,2.83,1.28,2.83,2.83h0Z"/><path class="cls-4" d="M97.09,232.44c0,1.56-1.28,2.83-2.83,2.83h-4.25c-1.56,0-2.83-1.28-2.83-2.83h0c0-1.56,1.28-2.83,2.83-2.83h4.25c1.56,0,2.83,1.28,2.83,2.83h0Z"/><text class="cls-12" transform="translate(89.57 233.93)"><tspan x="0" y="0">No</tspan></text><line class="cls-8" x1="56.69" y1="303.31" x2="56.69" y2="354.33"/><line class="cls-3" x1="56.69" y1="303.31" x2="56.69" y2="352.07"/><path d="M56.69,354.33c-.4-1.06-1.07-2.39-1.78-3.21l1.78.65,1.78-.65c-.71.82-1.39,2.14-1.78,3.21Z"/><line class="cls-8" x1="56.69" y1="382.68" x2="56.69" y2="396.85"/><line class="cls-3" x1="56.69" y1="382.68" x2="56.69" y2="394.59"/><path d="M56.69,396.85c-.4-1.06-1.07-2.39-1.78-3.21l1.78.65,1.78-.65c-.71.82-1.39,2.14-1.78,3.21Z"/><line class="cls-8" x1="56.69" y1="425.2" x2="56.69" y2="439.37"/><line class="cls-3" x1="56.69" y1="425.2" x2="56.69" y2="437.11"/><path d="M56.69,439.37c-.4-1.06-1.07-2.39-1.78-3.21l1.78.65,1.78-.65c-.71.82-1.39,2.14-1.78,3.21Z"/><line class="cls-8" x1="141.73" y1="331.65" x2="141.73" y2="354.33"/><line class="cls-3" x1="141.73" y1="331.65" x2="141.73" y2="352.07"/><path d="M141.73,354.33c-.4-1.06-1.07-2.39-1.78-3.21l1.78.65,1.78-.65c-.71.82-1.39,2.14-1.78,3.21Z"/><path class="cls-1" d="M61.65,308.98c0,1.56-1.28,2.83-2.83,2.83h-4.25c-1.56,0-2.83-1.28-2.83-2.83s1.28-2.83,2.83-2.83h4.25c1.56,0,2.83,1.28,2.83,2.83Z"/><path class="cls-4" d="M61.65,308.98c0,1.56-1.28,2.83-2.83,2.83h-4.25c-1.56,0-2.83-1.28-2.83-2.83s1.28-2.83,2.83-2.83h4.25c1.56,0,2.83,1.28,2.83,2.83Z"/><text class="cls-12" transform="translate(53.43 310.47)"><tspan class="cls-13" x="0" y="0">Y</tspan><tspan x="2.3" y="0">es</tspan></text><polyline class="cls-3" points="85.04 289.13 141.73 289.13 141.73 301.04"/><path d="M141.73,303.31c-.4-1.06-1.07-2.39-1.78-3.21l1.78.65,1.78-.65c-.71.82-1.39,2.14-1.78,3.21Z"/><path class="cls-1" d="M97.09,289.13c0,1.56-1.28,2.83-2.83,2.83h-4.25c-1.56,0-2.83-1.28-2.83-2.83h0c0-1.56,1.28-2.83,2.83-2.83h4.25c1.56,0,2.83,1.28,2.83,2.83h0Z"/><path class="cls-4" d="M97.09,289.13c0,1.56-1.28,2.83-2.83,2.83h-4.25c-1.56,0-2.83-1.28-2.83-2.83h0c0-1.56,1.28-2.83,2.83-2.83h4.25c1.56,0,2.83,1.28,2.83,2.83h0Z"/><text class="cls-12" transform="translate(89.57 290.63)"><tspan x="0" y="0">No</tspan></text><line class="cls-8" x1="141.73" y1="382.68" x2="141.73" y2="396.85"/><line class="cls-3" x1="141.73" y1="382.68" x2="141.73" y2="394.59"/><path d="M141.73,396.85c-.4-1.06-1.07-2.39-1.78-3.21l1.78.65,1.78-.65c-.71.82-1.39,2.14-1.78,3.21Z"/></g><g id="Numbers"><circle class="cls-2" cx="22.68" cy="62.36" r="5.67"/><text class="cls-10" transform="translate(21.01 64.37)"><tspan x="0" y="0">1</tspan></text><circle class="cls-2" cx="107.72" cy="90.71" r="5.67"/><text class="cls-10" transform="translate(106.05 92.72)"><tspan x="0" y="0">2</tspan></text><circle class="cls-2" cx="22.68" cy="119.06" r="5.67"/><text class="cls-10" transform="translate(21.01 121.07)"><tspan x="0" y="0">3</tspan></text><circle class="cls-2" cx="107.72" cy="147.4" r="5.67"/><text class="cls-10" transform="translate(106.05 149.41)"><tspan x="0" y="0">4</tspan></text><circle class="cls-2" cx="22.68" cy="175.75" r="5.67"/><text class="cls-10" transform="translate(21.01 177.76)"><tspan x="0" y="0">5</tspan></text><circle class="cls-2" cx="107.72" cy="204.09" r="5.67"/><text class="cls-10" transform="translate(106.05 206.11)"><tspan x="0" y="0">6</tspan></text><circle class="cls-2" cx="22.68" cy="232.44" r="5.67"/><text class="cls-10" transform="translate(21.01 234.45)"><tspan x="0" y="0">7</tspan></text><circle class="cls-2" cx="107.72" cy="260.79" r="5.67"/><text class="cls-10" transform="translate(106.05 262.8)"><tspan x="0" y="0">8</tspan></text><circle class="cls-2" cx="22.68" cy="368.5" r="5.67"/><text class="cls-10" transform="translate(19.34 370.52)"><tspan x="0" y="0">12</tspan></text><circle class="cls-2" cx="22.68" cy="289.13" r="5.67"/><text class="cls-10" transform="translate(21.01 291.14)"><tspan x="0" y="0">9</tspan></text><circle class="cls-2" cx="107.72" cy="317.48" r="5.67"/><text class="cls-10" transform="translate(104.38 319.49)"><tspan x="0" y="0">10</tspan></text><circle class="cls-2" cx="107.72" cy="368.5" r="5.67"/><text class="cls-10" transform="translate(104.55 370.52)"><tspan class="cls-9" x="0" y="0">1</tspan><tspan x="3.01" y="0">1</tspan></text><circle class="cls-2" cx="22.68" cy="411.02" r="5.67"/><text class="cls-10" transform="translate(19.34 413.03)"><tspan x="0" y="0">13</tspan></text></g></svg>