<?xml version="1.0" encoding="UTF-8"?>
<svg xmlns="http://www.w3.org/2000/svg" version="1.1" viewBox="0 0 399.97 476.48">
  <!-- Generator: Adobe Illustrator 29.2.1, SVG Export Plug-In . SVG Version: 2.1.0 Build 116)  -->
  <defs>
    <style>
      .st0, .st1 {
        fill: #fff;
      }

      .st1, .st2, .st3, .st4, .st5 {
        stroke: #000;
      }

      .st1, .st2, .st3, .st4, .st5, .st6 {
        stroke-linecap: round;
        stroke-linejoin: round;
      }

      .st1, .st3, .st4, .st5, .st6 {
        stroke-width: .5px;
      }

      .st7 {
        fill: #ffe0b2;
      }

      .st2 {
        stroke-width: .25px;
      }

      .st2, .st3, .st6 {
        fill: none;
      }

      .st8 {
        font-family: Arial-BoldMT, Arial;
        font-size: 6px;
        font-weight: 700;
      }

      .st4 {
        fill: #bbdefb;
      }

      .st9 {
        font-family: ArialMT, Arial;
        font-size: 4px;
      }

      .st5 {
        fill: #c8e6c9;
      }

      .st6 {
        stroke: #e0e0e0;
      }
    </style>
  </defs>
  <g id="Bckground">
    <rect class="st0" width="399.97" height="476.48"/>
  </g>
  <g id="Frame">
    <rect class="st6" x="5.67" y="5.67" width="388.35" height="198.46"/>
    <rect class="st6" x="5.67" y="204.13" width="266.8" height="266.8"/>
    <text class="st8" transform="translate(8.5 13.65)"><tspan x="0" y="0">Remote support / Customer</tspan></text>
    <text class="st8" transform="translate(278.87 215.32)"><tspan x="0" y="0">Application specialist</tspan></text>
    <rect class="st6" x="272.61" y="204.25" width="121.41" height="266.69"/>
    <text class="st8" transform="translate(8.74 215.09)"><tspan x="0" y="0">Engineer</tspan></text>
  </g>
  <g id="Blocks">
    <g>
      <path class="st5" d="M52.6,56.69l28.35,14.17-28.35,14.17-28.35-14.17,28.35-14.17Z"/>
      <text class="st9" transform="translate(41.15 72.3)"><tspan x="0" y="0">Ink expired ?</tspan></text>
    </g>
    <g>
      <path class="st5" d="M123.47,85.04l28.35,14.17-28.35,14.17-28.35-14.17,28.35-14.17Z"/>
      <text class="st9" transform="translate(105.68 100.64)"><tspan x="0" y="0">ICC profile correct ?</tspan></text>
    </g>
    <g>
      <path class="st5" d="M123.47,246.04l28.35,14.17-28.35,14.17-28.35-14.17,28.35-14.17Z"/>
      <text class="st9" transform="translate(106.23 261.65)"><tspan x="0" y="0">Ink flow test good ?</tspan></text>
    </g>
    <g>
      <path class="st5" d="M123.47,141.99l28.35,14.17-28.35,14.17-28.35-14.17,28.35-14.17Z"/>
      <text class="st9" transform="translate(116.4 157.59)"><tspan x="0" y="0">&gt;R4.4.0</tspan></text>
    </g>
    <g>
      <path class="st5" d="M194.33,316.91l28.35,14.17-28.35,14.17-28.35-14.17,28.35-14.17Z"/>
      <text class="st9" transform="translate(187.55 330.11)"><tspan x="0" y="0">Ink flow</tspan><tspan x="-3.12" y="4.8">test good ?</tspan></text>
    </g>
    <g>
      <rect class="st4" x="165.98" y="274.39" width="56.69" height="28.35"/>
      <text class="st9" transform="translate(182.44 289.99)"><tspan x="0" y="0">Replace BFU</tspan></text>
    </g>
    <g>
      <rect class="st4" x="165.98" y="212.72" width="56.69" height="28.35"/>
      <text class="st9" transform="translate(175.55 228.33)"><tspan x="0" y="0">Reset PH-callibration</tspan></text>
    </g>
    <g>
      <rect class="st4" x="165.98" y="170.2" width="56.69" height="28.35"/>
      <text class="st9" transform="translate(178.54 185.81)"><tspan x="0" y="0">Upgrade software</tspan></text>
    </g>
    <g>
      <rect class="st4" x="24.25" y="359.43" width="56.69" height="28.35"/>
      <text class="st9" transform="translate(37.93 375.03)"><tspan x="0" y="0">Clean inksystem</tspan></text>
    </g>
    <g>
      <rect class="st4" x="165.98" y="401.95" width="56.69" height="28.35"/>
      <text class="st9" transform="translate(178.1 417.55)"><tspan x="0" y="0">Replace printhead</tspan></text>
    </g>
    <g>
      <rect class="st4" x="165.98" y="359.43" width="56.69" height="28.35"/>
      <text class="st9" transform="translate(176.66 375.03)"><tspan x="0" y="0">Calibrate carriage Y</tspan></text>
    </g>
    <g>
      <g>
        <rect class="st7" x="24.25" y="28.35" width="56.69" height="14.17" rx="5.67" ry="5.67"/>
        <rect class="st3" x="24.25" y="28.35" width="56.69" height="14.17" rx="5.67" ry="5.67"/>
      </g>
      <text class="st9" transform="translate(33.48 34.38)"><tspan x="0" y="0">Increasing white lines</tspan><tspan x="6.45" y="4.8">during printing</tspan></text>
    </g>
    <g>
      <g>
        <rect class="st7" x="166.73" y="444.59" width="56.69" height="14.17" rx="5.67" ry="5.67"/>
        <rect class="st3" x="166.73" y="444.59" width="56.69" height="14.17" rx="5.67" ry="5.67"/>
      </g>
      <text class="st9" transform="translate(191.52 453.03)"><tspan x="0" y="0">End</tspan></text>
    </g>
    <g>
      <rect class="st4" x="324.97" y="249.4" width="56.69" height="28.35"/>
      <text class="st9" transform="translate(339.31 265.01)"><tspan x="0" y="0">Set ICC profiles</tspan></text>
    </g>
  </g>
  <g id="Lines">
    <g>
      <line class="st7" x1="52.6" y1="42.52" x2="52.6" y2="56.69"/>
      <g>
        <line class="st2" x1="52.6" y1="42.52" x2="52.6" y2="54.43"/>
        <path d="M52.6,56.69c-.4-1.06-1.07-2.39-1.78-3.21l1.78.65,1.78-.65c-.71.82-1.39,2.14-1.78,3.21Z"/>
      </g>
    </g>
    <g>
      <line class="st7" x1="52.6" y1="85.04" x2="52.6" y2="359.35"/>
      <g>
        <line class="st2" x1="52.6" y1="85.04" x2="52.6" y2="357.08"/>
        <path d="M52.6,359.35c-.4-1.06-1.07-2.39-1.78-3.21l1.78.65,1.78-.65c-.71.82-1.39,2.14-1.78,3.21Z"/>
      </g>
    </g>
    <g>
      <polyline class="st2" points="80.95 70.87 123.47 70.87 123.47 82.78"/>
      <path d="M123.47,85.04c-.4-1.06-1.07-2.39-1.78-3.21l1.78.65,1.78-.65c-.71.82-1.39,2.14-1.78,3.21Z"/>
    </g>
    <g>
      <g>
        <path class="st0" d="M92.99,70.87c0,1.56-1.28,2.83-2.83,2.83h-4.25c-1.56,0-2.83-1.28-2.83-2.83h0c0-1.56,1.28-2.83,2.83-2.83h4.25c1.56,0,2.83,1.28,2.83,2.83h0Z"/>
        <path class="st3" d="M92.99,70.87c0,1.56-1.28,2.83-2.83,2.83h-4.25c-1.56,0-2.83-1.28-2.83-2.83h0c0-1.56,1.28-2.83,2.83-2.83h4.25c1.56,0,2.83,1.28,2.83,2.83h0Z"/>
      </g>
      <text class="st9" transform="translate(85.48 72.36)"><tspan x="0" y="0">No</tspan></text>
    </g>
    <g>
      <polyline class="st2" points="151.81 99.21 352.7 99.21 352.7 247.44"/>
      <path d="M352.7,249.7c-.4-1.06-1.07-2.39-1.78-3.21l1.78.65,1.78-.65c-.71.82-1.39,2.14-1.78,3.21Z"/>
    </g>
    <g>
      <polyline class="st2" points="52.6 387.77 52.6 393.44 194.9 393.44"/>
      <path d="M197.17,393.44c-1.06.4-2.39,1.07-3.21,1.78l.65-1.78-.65-1.78c.82.71,2.14,1.39,3.21,1.78Z"/>
    </g>
    <g>
      <g>
        <path class="st0" d="M163.86,99.21c0,1.56-1.28,2.83-2.83,2.83h-4.25c-1.56,0-2.83-1.28-2.83-2.83h0c0-1.56,1.28-2.83,2.83-2.83h4.25c1.56,0,2.83,1.28,2.83,2.83h0Z"/>
        <path class="st3" d="M163.86,99.21c0,1.56-1.28,2.83-2.83,2.83h-4.25c-1.56,0-2.83-1.28-2.83-2.83h0c0-1.56,1.28-2.83,2.83-2.83h4.25c1.56,0,2.83,1.28,2.83,2.83h0Z"/>
      </g>
      <text class="st9" transform="translate(156.34 100.7)"><tspan x="0" y="0">No</tspan></text>
    </g>
    <g>
      <polyline class="st2" points="151.81 260.21 194.33 260.21 194.33 272.12"/>
      <path d="M194.33,274.39c-.4-1.06-1.07-2.39-1.78-3.21l1.78.65,1.78-.65c-.71.82-1.39,2.14-1.78,3.21Z"/>
    </g>
    <g>
      <g>
        <path class="st0" d="M163.86,260.21c0,1.56-1.28,2.83-2.83,2.83h-4.25c-1.56,0-2.83-1.28-2.83-2.83h0c0-1.56,1.28-2.83,2.83-2.83h4.25c1.56,0,2.83,1.28,2.83,2.83h0Z"/>
        <path class="st3" d="M163.86,260.21c0,1.56-1.28,2.83-2.83,2.83h-4.25c-1.56,0-2.83-1.28-2.83-2.83h0c0-1.56,1.28-2.83,2.83-2.83h4.25c1.56,0,2.83,1.28,2.83,2.83h0Z"/>
      </g>
      <text class="st9" transform="translate(156.34 261.71)"><tspan x="0" y="0">No</tspan></text>
    </g>
    <g>
      <polyline class="st2" points="151.81 156.03 194.33 156.03 194.33 167.94"/>
      <path d="M194.33,170.2c-.4-1.06-1.07-2.39-1.78-3.21l1.78.65,1.78-.65c-.71.82-1.39,2.14-1.78,3.21Z"/>
    </g>
    <g>
      <g>
        <path class="st0" d="M163.86,156.03c0,1.56-1.28,2.83-2.83,2.83h-4.25c-1.56,0-2.83-1.28-2.83-2.83h0c0-1.56,1.28-2.83,2.83-2.83h4.25c1.56,0,2.83,1.28,2.83,2.83h0Z"/>
        <path class="st3" d="M163.86,156.03c0,1.56-1.28,2.83-2.83,2.83h-4.25c-1.56,0-2.83-1.28-2.83-2.83h0c0-1.56,1.28-2.83,2.83-2.83h4.25c1.56,0,2.83,1.28,2.83,2.83h0Z"/>
      </g>
      <text class="st9" transform="translate(156.34 157.52)"><tspan x="0" y="0">No</tspan></text>
    </g>
    <g>
      <polyline class="st2" points="222.68 331.08 251.02 331.08 251.02 393.44 199.43 393.44"/>
      <path d="M197.17,393.44c1.06-.4,2.39-1.07,3.21-1.78l-.65,1.78.65,1.78c-.82-.71-2.14-1.39-3.21-1.78Z"/>
    </g>
    <g>
      <g>
        <path class="st0" d="M253.58,331.08c0,1.56-1.28,2.83-2.83,2.83h-4.25c-1.56,0-2.83-1.28-2.83-2.83h0c0-1.56,1.28-2.83,2.83-2.83h4.25c1.56,0,2.83,1.28,2.83,2.83h0Z"/>
        <path class="st3" d="M253.58,331.08c0,1.56-1.28,2.83-2.83,2.83h-4.25c-1.56,0-2.83-1.28-2.83-2.83h0c0-1.56,1.28-2.83,2.83-2.83h4.25c1.56,0,2.83,1.28,2.83,2.83h0Z"/>
      </g>
      <text class="st9" transform="translate(246.06 332.57)"><tspan x="0" y="0">No</tspan></text>
    </g>
    <g>
      <g>
        <path class="st0" d="M57.56,90.83c0,1.56-1.28,2.83-2.83,2.83h-4.25c-1.56,0-2.83-1.28-2.83-2.83s1.28-2.83,2.83-2.83h4.25c1.56,0,2.83,1.28,2.83,2.83Z"/>
        <path class="st3" d="M57.56,90.83c0,1.56-1.28,2.83-2.83,2.83h-4.25c-1.56,0-2.83-1.28-2.83-2.83s1.28-2.83,2.83-2.83h4.25c1.56,0,2.83,1.28,2.83,2.83Z"/>
      </g>
      <text class="st9" transform="translate(49.15 92.33)"><tspan x="0" y="0">Yes</tspan></text>
    </g>
    <g>
      <line class="st7" x1="194.33" y1="302.73" x2="194.33" y2="316.91"/>
      <g>
        <line class="st2" x1="194.33" y1="302.73" x2="194.33" y2="314.64"/>
        <path d="M194.33,316.91c-.4-1.06-1.07-2.39-1.78-3.21l1.78.65,1.78-.65c-.71.82-1.39,2.14-1.78,3.21Z"/>
      </g>
    </g>
    <g>
      <line class="st7" x1="194.33" y1="198.55" x2="194.33" y2="212.72"/>
      <g>
        <line class="st2" x1="194.33" y1="198.55" x2="194.33" y2="210.46"/>
        <path d="M194.33,212.72c-.4-1.06-1.07-2.39-1.78-3.21l1.78.65,1.78-.65c-.71.82-1.39,2.14-1.78,3.21Z"/>
      </g>
    </g>
    <g>
      <line class="st7" x1="194.33" y1="345.25" x2="194.33" y2="359.43"/>
      <g>
        <line class="st2" x1="194.33" y1="345.25" x2="194.33" y2="357.16"/>
        <path d="M194.33,359.43c-.4-1.06-1.07-2.39-1.78-3.21l1.78.65,1.78-.65c-.71.82-1.39,2.14-1.78,3.21Z"/>
      </g>
    </g>
    <g>
      <line class="st7" x1="197.17" y1="393.44" x2="197.17" y2="401.95"/>
      <g>
        <line class="st2" x1="197.17" y1="393.44" x2="197.17" y2="399.68"/>
        <path d="M197.17,401.95c-.4-1.06-1.07-2.39-1.78-3.21l1.78.65,1.78-.65c-.71.82-1.39,2.14-1.78,3.21Z"/>
      </g>
    </g>
    <g>
      <g>
        <path class="st0" d="M199.29,351.05c0,1.56-1.28,2.83-2.83,2.83h-4.25c-1.56,0-2.83-1.28-2.83-2.83h0c0-1.56,1.28-2.83,2.83-2.83h4.25c1.56,0,2.83,1.28,2.83,2.83h0Z"/>
        <path class="st3" d="M199.29,351.05c0,1.56-1.28,2.83-2.83,2.83h-4.25c-1.56,0-2.83-1.28-2.83-2.83h0c0-1.56,1.28-2.83,2.83-2.83h4.25c1.56,0,2.83,1.28,2.83,2.83h0Z"/>
      </g>
      <text class="st9" transform="translate(190.89 352.54)"><tspan x="0" y="0">Yes</tspan></text>
    </g>
    <g>
      <line class="st7" x1="194.33" y1="430.42" x2="194.33" y2="444.59"/>
      <g>
        <line class="st2" x1="194.33" y1="430.42" x2="194.33" y2="442.33"/>
        <path d="M194.33,444.59c-.4-1.06-1.07-2.39-1.78-3.21l1.78.65,1.78-.65c-.71.82-1.39,2.14-1.78,3.21Z"/>
      </g>
    </g>
    <g>
      <line class="st7" x1="123.46" y1="113.39" x2="123.46" y2="141.73"/>
      <g>
        <line class="st2" x1="123.46" y1="113.39" x2="123.46" y2="139.47"/>
        <path d="M123.46,141.73c-.4-1.06-1.07-2.39-1.78-3.21l1.78.65,1.78-.65c-.71.82-1.39,2.14-1.78,3.21Z"/>
      </g>
    </g>
    <g>
      <g>
        <path class="st0" d="M128.43,119.18c0,1.56-1.28,2.83-2.83,2.83h-4.25c-1.56,0-2.83-1.28-2.83-2.83s1.28-2.83,2.83-2.83h4.25c1.56,0,2.83,1.28,2.83,2.83Z"/>
        <path class="st3" d="M128.43,119.18c0,1.56-1.28,2.83-2.83,2.83h-4.25c-1.56,0-2.83-1.28-2.83-2.83s1.28-2.83,2.83-2.83h4.25c1.56,0,2.83,1.28,2.83,2.83Z"/>
      </g>
      <text class="st9" transform="translate(120.02 120.67)"><tspan x="0" y="0">Yes</tspan></text>
    </g>
    <g>
      <line class="st7" x1="123.46" y1="170.08" x2="123.46" y2="246.04"/>
      <g>
        <line class="st2" x1="123.46" y1="170.08" x2="123.46" y2="243.78"/>
        <path d="M123.46,246.04c-.4-1.06-1.07-2.39-1.78-3.21l1.78.65,1.78-.65c-.71.82-1.39,2.14-1.78,3.21Z"/>
      </g>
    </g>
    <g>
      <g>
        <path class="st0" d="M128.43,175.87c0,1.56-1.28,2.83-2.83,2.83h-4.25c-1.56,0-2.83-1.28-2.83-2.83s1.28-2.83,2.83-2.83h4.25c1.56,0,2.83,1.28,2.83,2.83Z"/>
        <path class="st3" d="M128.43,175.87c0,1.56-1.28,2.83-2.83,2.83h-4.25c-1.56,0-2.83-1.28-2.83-2.83s1.28-2.83,2.83-2.83h4.25c1.56,0,2.83,1.28,2.83,2.83Z"/>
      </g>
      <text class="st9" transform="translate(120.02 177.37)"><tspan x="0" y="0">Yes</tspan></text>
    </g>
  </g>
  <g id="Numbers">
    <g>
      <circle class="st1" cx="18.58" cy="70.87" r="5.67"/>
      <text class="st8" transform="translate(16.91 72.88)"><tspan x="0" y="0">1</tspan></text>
    </g>
    <g>
      <circle class="st1" cx="319.3" cy="263.58" r="5.67"/>
      <text class="st8" transform="translate(317.63 265.59)"><tspan x="0" y="0">3</tspan></text>
    </g>
    <g>
      <circle class="st1" cx="160.32" cy="331.08" r="5.67"/>
      <text class="st8" transform="translate(158.65 333.09)"><tspan x="0" y="0">9</tspan></text>
    </g>
    <g>
      <circle class="st1" cx="160.32" cy="373.6" r="5.67"/>
      <text class="st8" transform="translate(156.98 375.61)"><tspan x="0" y="0">10</tspan></text>
    </g>
    <g>
      <circle class="st1" cx="160.32" cy="416.12" r="5.67"/>
      <text class="st8" transform="translate(156.98 418.13)"><tspan x="0" y="0">12</tspan></text>
    </g>
    <g>
      <circle class="st1" cx="89.45" cy="99.21" r="5.67"/>
      <text class="st8" transform="translate(87.78 101.22)"><tspan x="0" y="0">2</tspan></text>
    </g>
    <g>
      <circle class="st1" cx="89.45" cy="260.21" r="5.67"/>
      <text class="st8" transform="translate(87.78 262.23)"><tspan x="0" y="0">7</tspan></text>
    </g>
    <g>
      <circle class="st1" cx="89.45" cy="156.16" r="5.67"/>
      <text class="st8" transform="translate(87.78 158.17)"><tspan x="0" y="0">4</tspan></text>
    </g>
    <g>
      <circle class="st1" cx="18.58" cy="373.6" r="5.67"/>
      <text class="st8" transform="translate(15.25 375.61)"><tspan x="0" y="0">11</tspan></text>
    </g>
    <g>
      <circle class="st1" cx="160.32" cy="288.56" r="5.67"/>
      <text class="st8" transform="translate(158.65 290.57)"><tspan x="0" y="0">8</tspan></text>
    </g>
    <g>
      <circle class="st1" cx="160.32" cy="226.9" r="5.67"/>
      <text class="st8" transform="translate(158.65 228.91)"><tspan x="0" y="0">6</tspan></text>
    </g>
    <g>
      <circle class="st1" cx="160.32" cy="184.38" r="5.67"/>
      <text class="st8" transform="translate(158.65 186.39)"><tspan x="0" y="0">5</tspan></text>
    </g>
  </g>
</svg>