<?xml version="1.0" encoding="UTF-8"?><svg xmlns="http://www.w3.org/2000/svg" viewBox="0 0 632.13 337.32"><defs><style>.cls-1,.cls-2{fill:#fff;}.cls-3{letter-spacing:-.07em;}.cls-4,.cls-2,.cls-5,.cls-6,.cls-7,.cls-8{stroke-linecap:round;stroke-linejoin:round;}.cls-4,.cls-2,.cls-5,.cls-6,.cls-8{stroke:#000;}.cls-4,.cls-2,.cls-5,.cls-7,.cls-8{stroke-width:.5px;}.cls-4,.cls-6,.cls-7{fill:none;}.cls-5{fill:#c8e6c9;}.cls-6{stroke-width:.25px;}.cls-9{fill:#ffe0b2;}.cls-7{stroke:#e0e0e0;}.cls-10{letter-spacing:-.09em;}.cls-11{font-family:ArialMT, Arial;font-size:4px;}.cls-12{letter-spacing:-.02em;}.cls-8{fill:#bbdefb;}.cls-13{letter-spacing:-.06em;}.cls-14{font-family:Arial-BoldMT, Arial;font-size:6px;font-weight:700;}</style></defs><g id="Bckground"><rect class="cls-1" width="632.13" height="337.32"/></g><g id="Frame"><rect class="cls-7" x="5.67" y="5.67" width="620.79" height="325.98"/><text class="cls-14" transform="translate(8.5 13.65)"><tspan x="0" y="0">Remote support / Customer</tspan></text></g><g id="Blocks"><path class="cls-5" d="m82.2,56.69l28.35,14.17-28.35,14.17-28.35-14.17,28.35-14.17Z"/><text class="cls-11" transform="translate(73.13 69.9)"><tspan x="0" y="0">Di</tspan><tspan class="cls-12" x="3.78" y="0">f</tspan><tspan x="4.82" y="0">ference</tspan><tspan x="-.81" y="4.8">left / right ?</tspan></text><path class="cls-5" d="m252.28,141.73l28.35,14.17-28.35,14.17-28.35-14.17,28.35-14.17Z"/><text class="cls-11" transform="translate(235.94 157.34)"><tspan x="0" y="0">Repeatly pattern ?</tspan></text><path class="cls-5" d="m252.28,184.25l28.35,14.17-28.35,14.17-28.35-14.17,28.35-14.17Z"/><text class="cls-11" transform="translate(242.28 199.86)"><tspan x="0" y="0">50-70 cm ?</tspan></text><path class="cls-5" d="m337.32,226.77l28.35,14.17-28.35,14.17-28.35-14.17,28.35-14.17Z"/><text class="cls-11" transform="translate(330.36 242.38)"><tspan class="cls-3" x="0" y="0">1</tspan><tspan x="1.93" y="0">1 cm ?</tspan></text><path class="cls-5" d="m167.24,99.21l28.35,14.17-28.35,14.17-28.35-14.17,28.35-14.17Z"/><text class="cls-11" transform="translate(157.02 112.42)"><tspan x="0" y="0">Only visible</tspan><tspan x=".28" y="4.8">&lt; 100 cm ?</tspan></text><rect class="cls-8" x="223.94" y="269.29" width="56.69" height="28.35"/><text class="cls-11" transform="translate(226.27 284.9)"><tspan x="0" y="0">Lighter areas every 50-70 cm</tspan></text><rect class="cls-8" x="53.86" y="99.21" width="56.69" height="28.35"/><text class="cls-11" transform="translate(67.98 112.42)"><tspan x="0" y="0">White dark lines</tspan><tspan x=".33" y="4.8">from left to right</tspan></text><rect class="cls-8" x="308.98" y="269.29" width="56.69" height="28.35"/><text class="cls-11" transform="translate(314.35 284.9)"><tspan x="0" y="0">Lighter areas every </tspan><tspan class="cls-3" x="35.35" y="0">1</tspan><tspan x="37.28" y="0">1 cm</tspan></text><rect class="cls-9" x="53.86" y="28.35" width="56.69" height="14.17" rx="5.67" ry="5.67"/><rect class="cls-4" x="53.86" y="28.35" width="56.69" height="14.17" rx="5.67" ry="5.67"/><text class="cls-11" transform="translate(77.98 36.78)"><tspan x="0" y="0">Start</tspan></text><rect class="cls-9" x="138.9" y="184.25" width="56.69" height="14.17" rx="5.67" ry="5.67"/><rect class="cls-4" x="138.9" y="184.25" width="56.69" height="14.17" rx="5.67" ry="5.67"/><text class="cls-11" transform="translate(163.69 192.69)"><tspan x="0" y="0">End</tspan></text><rect class="cls-9" x="53.86" y="184.25" width="56.69" height="14.17" rx="5.67" ry="5.67"/><rect class="cls-4" x="53.86" y="184.25" width="56.69" height="14.17" rx="5.67" ry="5.67"/><text class="cls-11" transform="translate(78.65 192.69)"><tspan x="0" y="0">End</tspan></text><rect class="cls-8" x="138.9" y="141.73" width="56.69" height="28.35"/><text class="cls-11" transform="translate(143.57 154.94)"><tspan x="0" y="0">White and / or dark lines in </tspan><tspan x="-3.01" y="4.8">the 1 meter after leading edge</tspan></text><rect class="cls-9" x="223.94" y="311.81" width="56.69" height="14.17" rx="5.67" ry="5.67"/><rect class="cls-4" x="223.94" y="311.81" width="56.69" height="14.17" rx="5.67" ry="5.67"/><text class="cls-11" transform="translate(248.72 320.25)"><tspan x="0" y="0">End</tspan></text><rect class="cls-9" x="308.98" y="311.81" width="56.69" height="14.17" rx="5.67" ry="5.67"/><rect class="cls-4" x="308.98" y="311.81" width="56.69" height="14.17" rx="5.67" ry="5.67"/><text class="cls-11" transform="translate(333.76 320.25)"><tspan x="0" y="0">End</tspan></text><rect class="cls-8" x="394.02" y="269.29" width="56.69" height="28.35"/><text class="cls-11" transform="translate(398.01 282.5)"><tspan x="0" y="0">Repeatedly sudden change</tspan><tspan x="19.24" y="4.8">in OD</tspan></text><rect class="cls-9" x="394.02" y="311.81" width="56.69" height="14.17" rx="5.67" ry="5.67"/><rect class="cls-4" x="394.02" y="311.81" width="56.69" height="14.17" rx="5.67" ry="5.67"/><text class="cls-11" transform="translate(418.8 320.25)"><tspan x="0" y="0">End</tspan></text><path class="cls-5" d="m507.4,226.77l28.35,14.17-28.35,14.17-28.35-14.17,28.35-14.17Z"/><text class="cls-11" transform="translate(492.73 239.98)"><tspan x="0" y="0">Only 90 cm after </tspan><tspan x="1.55" y="4.8">leading edge ?</tspan></text><rect class="cls-8" x="479.06" y="269.29" width="56.69" height="28.35"/><text class="cls-11" transform="translate(482.83 282.5)"><tspan x="0" y="0">Lighter area 90 cm after the </tspan><tspan x="13.11" y="4.8">leading edge</tspan></text><rect class="cls-9" x="479.06" y="311.81" width="56.69" height="14.17" rx="5.67" ry="5.67"/><rect class="cls-4" x="479.06" y="311.81" width="56.69" height="14.17" rx="5.67" ry="5.67"/><text class="cls-11" transform="translate(503.84 320.25)"><tspan x="0" y="0">End</tspan></text><rect class="cls-8" x="564.09" y="269.29" width="56.69" height="28.35"/><text class="cls-11" transform="translate(569.77 282.5)"><tspan x="0" y="0">White / dark lines 1 meter </tspan><tspan x="3.33" y="4.8">after the leading edge</tspan></text><rect class="cls-9" x="564.09" y="311.81" width="56.69" height="14.17" rx="5.67" ry="5.67"/><rect class="cls-4" x="564.09" y="311.81" width="56.69" height="14.17" rx="5.67" ry="5.67"/><text class="cls-11" transform="translate(588.88 320.25)"><tspan x="0" y="0">End</tspan></text></g><g id="Lines"><line class="cls-9" x1="82.2" y1="42.52" x2="82.2" y2="56.69"/><line class="cls-6" x1="82.2" y1="42.52" x2="82.2" y2="54.43"/><path d="m82.2,56.69c-.4-1.06-1.07-2.39-1.78-3.21l1.78.65,1.78-.65c-.71.82-1.39,2.14-1.78,3.21Z"/><line class="cls-9" x1="82.2" y1="85.04" x2="82.2" y2="99.21"/><line class="cls-6" x1="82.2" y1="85.04" x2="82.2" y2="96.95"/><path d="m82.2,99.21c-.4-1.06-1.07-2.39-1.78-3.21l1.78.65,1.78-.65c-.71.82-1.39,2.14-1.78,3.21Z"/><polyline class="cls-6" points="110.55 70.87 167.24 70.87 167.24 96.95"/><path d="m167.24,99.21c-.4-1.06-1.07-2.39-1.78-3.21l1.78.65,1.78-.65c-.71.82-1.39,2.14-1.78,3.21Z"/><polyline class="cls-6" points="280.63 198.43 337.32 198.43 337.32 224.51"/><path d="m337.32,226.77c-.4-1.06-1.07-2.39-1.78-3.21l1.78.65,1.78-.65c-.71.82-1.39,2.14-1.78,3.21Z"/><path class="cls-1" d="m292.68,198.43c0,1.56-1.28,2.83-2.83,2.83h-4.25c-1.56,0-2.83-1.28-2.83-2.83h0c0-1.56,1.28-2.83,2.83-2.83h4.25c1.56,0,2.83,1.28,2.83,2.83h0Z"/><path class="cls-4" d="m292.68,198.43c0,1.56-1.28,2.83-2.83,2.83h-4.25c-1.56,0-2.83-1.28-2.83-2.83h0c0-1.56,1.28-2.83,2.83-2.83h4.25c1.56,0,2.83,1.28,2.83,2.83h0Z"/><text class="cls-11" transform="translate(285.16 199.92)"><tspan x="0" y="0">No</tspan></text><path class="cls-1" d="m122.6,70.87c0,1.56-1.28,2.83-2.83,2.83h-4.25c-1.56,0-2.83-1.28-2.83-2.83h0c0-1.56,1.28-2.83,2.83-2.83h4.25c1.56,0,2.83,1.28,2.83,2.83h0Z"/><path class="cls-4" d="m122.6,70.87c0,1.56-1.28,2.83-2.83,2.83h-4.25c-1.56,0-2.83-1.28-2.83-2.83h0c0-1.56,1.28-2.83,2.83-2.83h4.25c1.56,0,2.83,1.28,2.83,2.83h0Z"/><text class="cls-11" transform="translate(115.08 72.36)"><tspan x="0" y="0">No</tspan></text><polyline class="cls-6" points="195.59 113.39 252.28 113.39 252.28 139.47"/><path d="m252.28,141.73c-.4-1.06-1.07-2.39-1.78-3.21l1.78.65,1.78-.65c-.71.82-1.39,2.14-1.78,3.21Z"/><path class="cls-1" d="m207.64,113.39c0,1.56-1.28,2.83-2.83,2.83h-4.25c-1.56,0-2.83-1.28-2.83-2.83h0c0-1.56,1.28-2.83,2.83-2.83h4.25c1.56,0,2.83,1.28,2.83,2.83h0Z"/><path class="cls-4" d="m207.64,113.39c0,1.56-1.28,2.83-2.83,2.83h-4.25c-1.56,0-2.83-1.28-2.83-2.83h0c0-1.56,1.28-2.83,2.83-2.83h4.25c1.56,0,2.83,1.28,2.83,2.83h0Z"/><text class="cls-11" transform="translate(200.12 114.88)"><tspan x="0" y="0">No</tspan></text><path class="cls-1" d="m87.17,90.83c0,1.56-1.28,2.83-2.83,2.83h-4.25c-1.56,0-2.83-1.28-2.83-2.83s1.28-2.83,2.83-2.83h4.25c1.56,0,2.83,1.28,2.83,2.83Z"/><path class="cls-4" d="m87.17,90.83c0,1.56-1.28,2.83-2.83,2.83h-4.25c-1.56,0-2.83-1.28-2.83-2.83s1.28-2.83,2.83-2.83h4.25c1.56,0,2.83,1.28,2.83,2.83Z"/><text class="cls-11" transform="translate(78.94 92.33)"><tspan class="cls-10" x="0" y="0">Y</tspan><tspan x="2.3" y="0">es</tspan></text><line class="cls-9" x1="167.24" y1="127.56" x2="167.24" y2="141.73"/><line class="cls-6" x1="167.24" y1="127.56" x2="167.24" y2="139.47"/><path d="m167.24,141.73c-.4-1.06-1.07-2.39-1.78-3.21l1.78.65,1.78-.65c-.71.82-1.39,2.14-1.78,3.21Z"/><line class="cls-9" x1="167.24" y1="170.08" x2="167.24" y2="184.25"/><line class="cls-6" x1="167.24" y1="170.08" x2="167.24" y2="181.99"/><path d="m167.24,184.25c-.4-1.06-1.07-2.39-1.78-3.21l1.78.65,1.78-.65c-.71.82-1.39,2.14-1.78,3.21Z"/><line class="cls-9" x1="82.2" y1="127.56" x2="82.2" y2="184.25"/><line class="cls-6" x1="82.2" y1="127.56" x2="82.2" y2="181.99"/><path d="m82.2,184.25c-.4-1.06-1.07-2.39-1.78-3.21l1.78.65,1.78-.65c-.71.82-1.39,2.14-1.78,3.21Z"/><path class="cls-1" d="m172.2,133.35c0,1.56-1.28,2.83-2.83,2.83h-4.25c-1.56,0-2.83-1.28-2.83-2.83s1.28-2.83,2.83-2.83h4.25c1.56,0,2.83,1.28,2.83,2.83Z"/><path class="cls-4" d="m172.2,133.35c0,1.56-1.28,2.83-2.83,2.83h-4.25c-1.56,0-2.83-1.28-2.83-2.83s1.28-2.83,2.83-2.83h4.25c1.56,0,2.83,1.28,2.83,2.83Z"/><text class="cls-11" transform="translate(163.98 134.85)"><tspan class="cls-10" x="0" y="0">Y</tspan><tspan x="2.3" y="0">es</tspan></text><line class="cls-9" x1="252.28" y1="170.08" x2="252.28" y2="184.25"/><line class="cls-6" x1="252.28" y1="170.08" x2="252.28" y2="181.99"/><path d="m252.28,184.25c-.4-1.06-1.07-2.39-1.78-3.21l1.78.65,1.78-.65c-.71.82-1.39,2.14-1.78,3.21Z"/><line class="cls-9" x1="252.28" y1="297.64" x2="252.28" y2="311.81"/><line class="cls-6" x1="252.28" y1="297.64" x2="252.28" y2="309.55"/><path d="m252.28,311.81c-.4-1.06-1.07-2.39-1.78-3.21l1.78.65,1.78-.65c-.71.82-1.39,2.14-1.78,3.21Z"/><line class="cls-9" x1="337.32" y1="297.64" x2="337.32" y2="311.81"/><line class="cls-6" x1="337.32" y1="297.64" x2="337.32" y2="309.55"/><path d="m337.32,311.81c-.4-1.06-1.07-2.39-1.78-3.21l1.78.65,1.78-.65c-.71.82-1.39,2.14-1.78,3.21Z"/><line class="cls-9" x1="422.36" y1="297.64" x2="422.36" y2="311.81"/><line class="cls-6" x1="422.36" y1="297.64" x2="422.36" y2="309.55"/><path d="m422.36,311.81c-.4-1.06-1.07-2.39-1.78-3.21l1.78.65,1.78-.65c-.71.82-1.39,2.14-1.78,3.21Z"/><line class="cls-9" x1="337.32" y1="255.12" x2="337.32" y2="269.29"/><line class="cls-6" x1="337.32" y1="255.12" x2="337.32" y2="267.03"/><path d="m337.32,269.29c-.4-1.06-1.07-2.39-1.78-3.21l1.78.65,1.78-.65c-.71.82-1.39,2.14-1.78,3.21Z"/><path class="cls-1" d="m257.24,175.87c0,1.56-1.28,2.83-2.83,2.83h-4.25c-1.56,0-2.83-1.28-2.83-2.83s1.28-2.83,2.83-2.83h4.25c1.56,0,2.83,1.28,2.83,2.83Z"/><path class="cls-4" d="m257.24,175.87c0,1.56-1.28,2.83-2.83,2.83h-4.25c-1.56,0-2.83-1.28-2.83-2.83s1.28-2.83,2.83-2.83h4.25c1.56,0,2.83,1.28,2.83,2.83Z"/><text class="cls-11" transform="translate(249.02 177.37)"><tspan class="cls-10" x="0" y="0">Y</tspan><tspan x="2.3" y="0">es</tspan></text><line class="cls-9" x1="252.28" y1="212.6" x2="252.28" y2="269.29"/><line class="cls-6" x1="252.28" y1="212.6" x2="252.28" y2="267.03"/><path d="m252.28,269.29c-.4-1.06-1.07-2.39-1.78-3.21l1.78.65,1.78-.65c-.71.82-1.39,2.14-1.78,3.21Z"/><path class="cls-1" d="m257.24,218.39c0,1.56-1.28,2.83-2.83,2.83h-4.25c-1.56,0-2.83-1.28-2.83-2.83s1.28-2.83,2.83-2.83h4.25c1.56,0,2.83,1.28,2.83,2.83Z"/><path class="cls-4" d="m257.24,218.39c0,1.56-1.28,2.83-2.83,2.83h-4.25c-1.56,0-2.83-1.28-2.83-2.83s1.28-2.83,2.83-2.83h4.25c1.56,0,2.83,1.28,2.83,2.83Z"/><text class="cls-11" transform="translate(249.02 219.89)"><tspan class="cls-10" x="0" y="0">Y</tspan><tspan x="2.3" y="0">es</tspan></text><path class="cls-1" d="m342.28,260.79c0,1.56-1.28,2.83-2.83,2.83h-4.25c-1.56,0-2.83-1.28-2.83-2.83s1.28-2.83,2.83-2.83h4.25c1.56,0,2.83,1.28,2.83,2.83Z"/><path class="cls-4" d="m342.28,260.79c0,1.56-1.28,2.83-2.83,2.83h-4.25c-1.56,0-2.83-1.28-2.83-2.83s1.28-2.83,2.83-2.83h4.25c1.56,0,2.83,1.28,2.83,2.83Z"/><text class="cls-11" transform="translate(334.06 262.28)"><tspan class="cls-10" x="0" y="0">Y</tspan><tspan x="2.3" y="0">es</tspan></text><polyline class="cls-6" points="365.67 240.94 422.36 240.94 422.36 267.03"/><path d="m422.36,269.29c-.4-1.06-1.07-2.39-1.78-3.21l1.78.65,1.78-.65c-.71.82-1.39,2.14-1.78,3.21Z"/><path class="cls-1" d="m377.72,240.94c0,1.56-1.28,2.83-2.83,2.83h-4.25c-1.56,0-2.83-1.28-2.83-2.83h0c0-1.56,1.28-2.83,2.83-2.83h4.25c1.56,0,2.83,1.28,2.83,2.83h0Z"/><path class="cls-4" d="m377.72,240.94c0,1.56-1.28,2.83-2.83,2.83h-4.25c-1.56,0-2.83-1.28-2.83-2.83h0c0-1.56,1.28-2.83,2.83-2.83h4.25c1.56,0,2.83,1.28,2.83,2.83h0Z"/><text class="cls-11" transform="translate(370.2 242.44)"><tspan x="0" y="0">No</tspan></text><line class="cls-9" x1="507.4" y1="297.64" x2="507.4" y2="311.81"/><line class="cls-6" x1="507.4" y1="297.64" x2="507.4" y2="309.55"/><path d="m507.4,311.81c-.4-1.06-1.07-2.39-1.78-3.21l1.78.65,1.78-.65c-.71.82-1.39,2.14-1.78,3.21Z"/><line class="cls-9" x1="592.44" y1="297.64" x2="592.44" y2="311.81"/><line class="cls-6" x1="592.44" y1="297.64" x2="592.44" y2="309.55"/><path d="m592.44,311.81c-.4-1.06-1.07-2.39-1.78-3.21l1.78.65,1.78-.65c-.71.82-1.39,2.14-1.78,3.21Z"/><line class="cls-9" x1="507.4" y1="255.12" x2="507.4" y2="269.29"/><line class="cls-6" x1="507.4" y1="255.12" x2="507.4" y2="267.03"/><path d="m507.4,269.29c-.4-1.06-1.07-2.39-1.78-3.21l1.78.65,1.78-.65c-.71.82-1.39,2.14-1.78,3.21Z"/><path class="cls-1" d="m512.36,260.79c0,1.56-1.28,2.83-2.83,2.83h-4.25c-1.56,0-2.83-1.28-2.83-2.83s1.28-2.83,2.83-2.83h4.25c1.56,0,2.83,1.28,2.83,2.83Z"/><path class="cls-4" d="m512.36,260.79c0,1.56-1.28,2.83-2.83,2.83h-4.25c-1.56,0-2.83-1.28-2.83-2.83s1.28-2.83,2.83-2.83h4.25c1.56,0,2.83,1.28,2.83,2.83Z"/><text class="cls-11" transform="translate(504.14 262.28)"><tspan class="cls-10" x="0" y="0">Y</tspan><tspan x="2.3" y="0">es</tspan></text><polyline class="cls-6" points="535.75 240.94 592.44 240.94 592.44 267.03"/><path d="m592.44,269.29c-.4-1.06-1.07-2.39-1.78-3.21l1.78.65,1.78-.65c-.71.82-1.39,2.14-1.78,3.21Z"/><path class="cls-1" d="m547.8,240.94c0,1.56-1.28,2.83-2.83,2.83h-4.25c-1.56,0-2.83-1.28-2.83-2.83h0c0-1.56,1.28-2.83,2.83-2.83h4.25c1.56,0,2.83,1.28,2.83,2.83h0Z"/><path class="cls-4" d="m547.8,240.94c0,1.56-1.28,2.83-2.83,2.83h-4.25c-1.56,0-2.83-1.28-2.83-2.83h0c0-1.56,1.28-2.83,2.83-2.83h4.25c1.56,0,2.83,1.28,2.83,2.83h0Z"/><text class="cls-11" transform="translate(540.28 242.44)"><tspan x="0" y="0">No</tspan></text><polyline class="cls-6" points="280.63 155.97 507.4 155.97 507.4 224.51"/><path d="m507.4,226.77c-.4-1.06-1.07-2.39-1.78-3.21l1.78.65,1.78-.65c-.71.82-1.39,2.14-1.78,3.21Z"/><path class="cls-1" d="m292.68,155.97c0,1.56-1.28,2.83-2.83,2.83h-4.25c-1.56,0-2.83-1.28-2.83-2.83h0c0-1.56,1.28-2.83,2.83-2.83h4.25c1.56,0,2.83,1.28,2.83,2.83h0Z"/><path class="cls-4" d="m292.68,155.97c0,1.56-1.28,2.83-2.83,2.83h-4.25c-1.56,0-2.83-1.28-2.83-2.83h0c0-1.56,1.28-2.83,2.83-2.83h4.25c1.56,0,2.83,1.28,2.83,2.83h0Z"/><text class="cls-11" transform="translate(285.16 157.46)"><tspan x="0" y="0">No</tspan></text></g><g id="Numbers"><circle class="cls-2" cx="48.19" cy="70.87" r="5.67"/><text class="cls-14" transform="translate(46.52 72.88)"><tspan x="0" y="0">1</tspan></text><circle class="cls-2" cx="218.27" cy="198.43" r="5.67"/><text class="cls-14" transform="translate(216.6 200.44)"><tspan x="0" y="0">6</tspan></text><circle class="cls-2" cx="303.31" cy="240.94" r="5.67"/><text class="cls-14" transform="translate(301.64 242.96)"><tspan x="0" y="0">7</tspan></text><circle class="cls-2" cx="218.27" cy="155.91" r="5.67"/><text class="cls-14" transform="translate(216.6 157.92)"><tspan x="0" y="0">5</tspan></text><circle class="cls-2" cx="48.19" cy="113.39" r="5.67"/><text class="cls-14" transform="translate(46.52 115.4)"><tspan x="0" y="0">2</tspan></text><circle class="cls-2" cx="303.31" cy="283.46" r="5.67"/><text class="cls-14" transform="translate(301.64 285.48)"><tspan x="0" y="0">9</tspan></text><circle class="cls-2" cx="388.35" cy="283.46" r="5.67"/><text class="cls-14" transform="translate(385.01 285.48)"><tspan x="0" y="0">10</tspan></text><circle class="cls-2" cx="473.39" cy="240.94" r="5.67"/><text class="cls-14" transform="translate(470.21 242.96)"><tspan class="cls-13" x="0" y="0">1</tspan><tspan x="3.01" y="0">1</tspan></text><circle class="cls-2" cx="473.39" cy="283.46" r="5.67"/><text class="cls-14" transform="translate(470.05 285.48)"><tspan x="0" y="0">12</tspan></text><circle class="cls-2" cx="558.43" cy="283.46" r="5.67"/><text class="cls-14" transform="translate(555.09 285.48)"><tspan x="0" y="0">13</tspan></text><circle class="cls-2" cx="133.23" cy="113.39" r="5.67"/><text class="cls-14" transform="translate(131.56 115.4)"><tspan x="0" y="0">3</tspan></text><circle class="cls-2" cx="133.23" cy="155.91" r="5.67"/><text class="cls-14" transform="translate(131.56 157.92)"><tspan x="0" y="0">4</tspan></text><circle class="cls-2" cx="218.27" cy="283.46" r="5.67"/><text class="cls-14" transform="translate(216.6 285.48)"><tspan x="0" y="0">8</tspan></text></g></svg>