<?xml version="1.0" encoding="UTF-8"?><svg xmlns="http://www.w3.org/2000/svg" viewBox="0 0 249.73 138.9"><defs><style>.cls-1,.cls-2{fill:#fff;}.cls-3,.cls-2,.cls-4,.cls-5,.cls-6,.cls-7{stroke-linecap:round;stroke-linejoin:round;}.cls-3,.cls-2,.cls-4,.cls-5,.cls-7{stroke:#000;}.cls-3,.cls-2,.cls-4,.cls-6,.cls-7{stroke-width:.5px;}.cls-3,.cls-5,.cls-6{fill:none;}.cls-4{fill:#c8e6c9;}.cls-5{stroke-width:.25px;}.cls-8{fill:#ffe0b2;}.cls-6{stroke:#e0e0e0;}.cls-9{letter-spacing:-.09em;}.cls-10{font-family:ArialMT, Arial;font-size:4px;}.cls-7{fill:#bbdefb;}.cls-11{font-family:Arial-BoldMT, Arial;font-size:6px;font-weight:700;}</style></defs><g id="Bckground"><rect class="cls-1" width="249.73" height="138.9"/></g><g id="Frame"><rect class="cls-6" x="5.67" y="5.67" width="238.11" height="127.56"/><text class="cls-11" transform="translate(8.5 13.65)"><tspan x="0" y="0">Remote support / Customer</tspan></text></g><g id="Blocks"><path class="cls-4" d="m82.2,56.69l28.35,14.17-28.35,14.17-28.35-14.17,28.35-14.17Z"/><text class="cls-10" transform="translate(69.53 69.9)"><tspan x="0" y="0">Other strategy </tspan><tspan x="-1.89" y="4.8">mode possible ?</tspan></text><rect class="cls-7" x="53.86" y="99.21" width="56.69" height="28.35"/><text class="cls-10" transform="translate(66.31 114.82)"><tspan x="0" y="0">Use portrait mode</tspan></text><rect class="cls-7" x="138.9" y="99.21" width="56.69" height="28.35"/><text class="cls-10" transform="translate(156.57 114.82)"><tspan x="0" y="0">Set strategy</tspan></text><rect class="cls-8" x="53.86" y="28.35" width="56.69" height="14.17" rx="5.67" ry="5.67"/><rect class="cls-3" x="53.86" y="28.35" width="56.69" height="14.17" rx="5.67" ry="5.67"/><path d="m57.15,34.38v-2.86h1.07c.22,0,.39.03.53.09s.24.15.31.27.11.25.11.38c0,.12-.03.24-.1.35s-.17.2-.3.26c.17.05.31.14.4.26s.14.27.14.43c0,.13-.03.26-.08.37s-.13.2-.21.27-.19.11-.31.14-.28.05-.46.05h-1.09Zm.38-1.66h.62c.17,0,.29-.01.36-.03.1-.03.17-.08.22-.14s.07-.15.07-.25-.02-.18-.07-.25-.11-.12-.2-.15-.23-.04-.44-.04h-.57v.87Zm0,1.32h.71c.12,0,.21,0,.26-.01.09-.02.16-.04.22-.08s.11-.09.14-.16.06-.15.06-.24c0-.11-.03-.2-.08-.28s-.13-.13-.23-.17-.24-.05-.42-.05h-.66v.98Z"/><path d="m61.14,34.12c-.13.11-.26.19-.38.23s-.25.07-.39.07c-.23,0-.4-.06-.53-.17s-.18-.25-.18-.43c0-.1.02-.19.07-.28s.11-.15.18-.2.16-.09.25-.12c.07-.02.17-.04.31-.05.28-.03.49-.07.63-.12,0-.05,0-.08,0-.09,0-.14-.03-.24-.1-.3-.09-.08-.22-.12-.4-.12-.17,0-.29.03-.37.09s-.14.16-.17.31l-.34-.05c.03-.15.08-.27.15-.36s.18-.16.31-.21.29-.07.47-.07.32.02.43.06.19.09.24.16.09.14.11.24c.01.06.02.17.02.32v.47c0,.33,0,.53.02.62s.04.17.09.25h-.37c-.04-.07-.06-.16-.07-.26Zm-.03-.79c-.13.05-.32.1-.57.13-.14.02-.25.04-.31.07s-.11.06-.14.11-.05.11-.05.17c0,.09.04.17.11.23s.17.09.31.09.26-.03.36-.09.18-.14.23-.24c.04-.08.06-.2.06-.35v-.13Z"/><path d="m62.01,34.38v-2.07h.32v.29c.15-.23.37-.34.66-.34.12,0,.24.02.34.07s.18.1.24.18.09.16.11.26c.01.06.02.18.02.34v1.28h-.35v-1.26c0-.14-.01-.25-.04-.32s-.08-.13-.15-.17-.15-.06-.25-.06c-.15,0-.28.05-.39.14s-.16.28-.16.54v1.13h-.35Z"/><path d="m65.58,34.38v-.26c-.13.21-.32.31-.58.31-.17,0-.32-.05-.46-.14s-.25-.22-.32-.38-.11-.35-.11-.56.03-.4.1-.56.17-.3.31-.39.29-.13.46-.13c.12,0,.24.03.33.08s.18.12.24.21v-1.03h.35v2.86h-.33Zm-1.11-1.04c0,.27.06.46.17.6s.24.2.4.2.28-.06.39-.19.16-.32.16-.58c0-.28-.05-.49-.16-.62s-.24-.2-.4-.2-.29.06-.39.19-.16.33-.16.6Z"/><path d="m66.46,31.92v-.4h.35v.4h-.35Zm0,2.46v-2.07h.35v2.07h-.35Z"/><path d="m67.35,34.38v-2.07h.32v.29c.15-.23.37-.34.66-.34.12,0,.24.02.34.07s.18.1.24.18.09.16.11.26c.01.06.02.18.02.34v1.28h-.35v-1.26c0-.14-.01-.25-.04-.32s-.08-.13-.15-.17-.15-.06-.25-.06c-.15,0-.28.05-.39.14s-.16.28-.16.54v1.13h-.35Z"/><path d="m69.51,34.55l.34.05c.01.11.05.18.12.23.09.06.21.1.36.1.16,0,.29-.03.38-.1s.15-.16.18-.27c.02-.07.03-.22.03-.45-.15.18-.35.27-.57.27-.29,0-.51-.1-.66-.31s-.23-.45-.23-.74c0-.2.04-.38.11-.55s.18-.3.31-.39.3-.14.48-.14c.24,0,.45.1.61.3v-.25h.32v1.79c0,.32-.03.55-.1.69s-.17.24-.31.32-.32.12-.53.12c-.25,0-.45-.06-.6-.17s-.23-.28-.22-.5Zm.29-1.25c0,.27.05.47.16.6s.24.19.41.19.3-.06.41-.19.16-.32.16-.58-.06-.45-.17-.57-.25-.19-.41-.19-.29.06-.4.19-.16.32-.16.57Z"/><path d="m72.91,31.92v-.4h.35v.4h-.35Zm0,2.46v-2.07h.35v2.07h-.35Z"/><path d="m73.8,34.38v-2.07h.32v.29c.15-.23.37-.34.66-.34.12,0,.24.02.34.07s.18.1.24.18.09.16.11.26c.01.06.02.18.02.34v1.28h-.35v-1.26c0-.14-.01-.25-.04-.32s-.08-.13-.15-.17-.15-.06-.25-.06c-.15,0-.28.05-.39.14s-.16.28-.16.54v1.13h-.35Z"/><path d="m78.49,33.62l.35.04c-.04.24-.13.42-.29.56s-.35.2-.57.2c-.28,0-.51-.09-.68-.28s-.26-.45-.26-.8c0-.22.04-.42.11-.59s.19-.29.34-.38.32-.13.5-.13c.23,0,.41.06.55.17s.23.28.28.49l-.34.05c-.03-.14-.09-.24-.17-.31s-.18-.11-.3-.11c-.18,0-.32.06-.43.19s-.17.33-.17.6.05.48.16.61.25.19.42.19c.14,0,.25-.04.35-.13s.15-.21.18-.39Z"/><path d="m80.49,34.12c-.13.11-.26.19-.38.23s-.25.07-.39.07c-.23,0-.4-.06-.53-.17s-.18-.25-.18-.43c0-.1.02-.19.07-.28s.11-.15.18-.2.16-.09.25-.12c.07-.02.17-.04.31-.05.28-.03.49-.07.63-.12,0-.05,0-.08,0-.09,0-.14-.03-.24-.1-.3-.09-.08-.22-.12-.4-.12-.17,0-.29.03-.37.09s-.14.16-.17.31l-.34-.05c.03-.15.08-.27.15-.36s.18-.16.31-.21.29-.07.47-.07.32.02.43.06.19.09.24.16.09.14.11.24c.01.06.02.17.02.32v.47c0,.33,0,.53.02.62s.04.17.09.25h-.37c-.04-.07-.06-.16-.07-.26Zm-.03-.79c-.13.05-.32.1-.57.13-.14.02-.25.04-.31.07s-.11.06-.14.11-.05.11-.05.17c0,.09.04.17.11.23s.17.09.31.09.26-.03.36-.09.18-.14.23-.24c.04-.08.06-.2.06-.35v-.13Z"/><path d="m81.36,34.38v-2.07h.32v.31c.08-.15.16-.24.22-.29s.14-.07.23-.07c.12,0,.24.04.36.11l-.12.33c-.09-.05-.17-.08-.26-.08-.08,0-.15.02-.21.07s-.1.11-.13.19c-.04.12-.06.26-.06.41v1.09h-.35Z"/><path d="m82.69,34.38v-2.07h.32v.31c.08-.15.16-.24.22-.29s.14-.07.23-.07c.12,0,.24.04.36.11l-.12.33c-.09-.05-.17-.08-.26-.08-.08,0-.15.02-.21.07s-.1.11-.13.19c-.04.12-.06.26-.06.41v1.09h-.35Z"/><path d="m84.03,31.92v-.4h.35v.4h-.35Zm0,2.46v-2.07h.35v2.07h-.35Z"/><path d="m86.27,34.12c-.13.11-.26.19-.38.23s-.25.07-.39.07c-.23,0-.4-.06-.53-.17s-.18-.25-.18-.43c0-.1.02-.19.07-.28s.11-.15.18-.2.16-.09.25-.12c.07-.02.17-.04.31-.05.28-.03.49-.07.63-.12,0-.05,0-.08,0-.09,0-.14-.03-.24-.1-.3-.09-.08-.22-.12-.4-.12-.17,0-.29.03-.37.09s-.14.16-.17.31l-.34-.05c.03-.15.08-.27.15-.36s.18-.16.31-.21.29-.07.47-.07.32.02.43.06.19.09.24.16.09.14.11.24c.01.06.02.17.02.32v.47c0,.33,0,.53.02.62s.04.17.09.25h-.37c-.04-.07-.06-.16-.07-.26Zm-.03-.79c-.13.05-.32.1-.57.13-.14.02-.25.04-.31.07s-.11.06-.14.11-.05.11-.05.17c0,.09.04.17.11.23s.17.09.31.09.26-.03.36-.09.18-.14.23-.24c.04-.08.06-.2.06-.35v-.13Z"/><path d="m87.07,34.55l.34.05c.01.11.05.18.12.23.09.06.21.1.36.1.16,0,.29-.03.38-.1s.15-.16.18-.27c.02-.07.03-.22.03-.45-.15.18-.35.27-.57.27-.29,0-.51-.1-.66-.31s-.23-.45-.23-.74c0-.2.04-.38.11-.55s.18-.3.31-.39.3-.14.48-.14c.24,0,.45.1.61.3v-.25h.32v1.79c0,.32-.03.55-.1.69s-.17.24-.31.32-.32.12-.53.12c-.25,0-.45-.06-.6-.17s-.23-.28-.22-.5Zm.29-1.25c0,.27.05.47.16.6s.24.19.41.19.3-.06.41-.19.16-.32.16-.58-.06-.45-.17-.57-.25-.19-.41-.19-.29.06-.4.19-.16.32-.16.57Z"/><path d="m90.78,33.71l.36.04c-.06.21-.16.38-.32.49s-.35.18-.59.18c-.3,0-.54-.09-.72-.28s-.27-.45-.27-.79.09-.62.27-.81.41-.29.7-.29.5.09.68.28.26.45.26.8c0,.02,0,.05,0,.09h-1.55c.01.23.08.4.19.52s.26.18.43.18c.13,0,.24-.03.33-.1s.16-.18.22-.32Zm-1.15-.57h1.16c-.02-.17-.06-.31-.13-.39-.11-.14-.26-.2-.44-.2-.16,0-.3.05-.41.16s-.17.25-.18.43Z"/><path d="m94.04,34.38v-.26c-.13.21-.32.31-.58.31-.17,0-.32-.05-.46-.14s-.25-.22-.32-.38-.11-.35-.11-.56.03-.4.1-.56.17-.3.31-.39.29-.13.46-.13c.12,0,.24.03.33.08s.18.12.24.21v-1.03h.35v2.86h-.33Zm-1.11-1.04c0,.27.06.46.17.6s.24.2.4.2.28-.06.39-.19.16-.32.16-.58c0-.28-.05-.49-.16-.62s-.24-.2-.4-.2-.29.06-.39.19-.16.33-.16.6Z"/><path d="m94.92,31.92v-.4h.35v.4h-.35Zm0,2.46v-2.07h.35v2.07h-.35Z"/><path d="m95.81,34.38v-2.07h.32v.31c.08-.15.16-.24.22-.29s.14-.07.23-.07c.12,0,.24.04.36.11l-.12.33c-.09-.05-.17-.08-.26-.08-.08,0-.15.02-.21.07s-.1.11-.13.19c-.04.12-.06.26-.06.41v1.09h-.35Z"/><path d="m98.56,33.71l.36.04c-.06.21-.16.38-.32.49s-.35.18-.59.18c-.3,0-.54-.09-.72-.28s-.27-.45-.27-.79.09-.62.27-.81.41-.29.7-.29.5.09.68.28.26.45.26.8c0,.02,0,.05,0,.09h-1.55c.01.23.08.4.19.52s.26.18.43.18c.13,0,.24-.03.33-.1s.16-.18.22-.32Zm-1.15-.57h1.16c-.02-.17-.06-.31-.13-.39-.11-.14-.26-.2-.44-.2-.16,0-.3.05-.41.16s-.17.25-.18.43Z"/><path d="m100.72,33.62l.35.04c-.04.24-.13.42-.29.56s-.35.2-.57.2c-.28,0-.51-.09-.68-.28s-.26-.45-.26-.8c0-.22.04-.42.11-.59s.19-.29.34-.38.32-.13.5-.13c.23,0,.41.06.55.17s.23.28.28.49l-.34.05c-.03-.14-.09-.24-.17-.31s-.18-.11-.3-.11c-.18,0-.32.06-.43.19s-.17.33-.17.6.05.48.16.61.25.19.42.19c.14,0,.25-.04.35-.13s.15-.21.18-.39Z"/><path d="m102.14,34.07l.05.31c-.1.02-.19.03-.27.03-.13,0-.23-.02-.3-.06s-.12-.09-.15-.16-.04-.2-.04-.42v-1.19h-.26v-.27h.26v-.51l.35-.21v.72h.35v.27h-.35v1.21c0,.1,0,.16.02.19s.03.05.06.07.07.03.12.03c.04,0,.09,0,.15-.01Z"/><path d="m102.48,31.92v-.4h.35v.4h-.35Zm0,2.46v-2.07h.35v2.07h-.35Z"/><path d="m103.24,33.34c0-.38.11-.67.32-.85.18-.15.4-.23.65-.23.29,0,.52.09.7.28s.27.44.27.77c0,.27-.04.48-.12.63s-.2.27-.35.36-.32.13-.5.13c-.29,0-.52-.09-.7-.28s-.27-.45-.27-.8Zm.36,0c0,.27.06.46.17.6s.26.2.44.2.32-.07.44-.2.17-.34.17-.61c0-.26-.06-.45-.17-.58s-.26-.2-.43-.2-.32.07-.44.2-.17.33-.17.6Z"/><path d="m105.59,34.38v-2.07h.32v.29c.15-.23.37-.34.66-.34.12,0,.24.02.34.07s.18.1.24.18.09.16.11.26c.01.06.02.18.02.34v1.28h-.35v-1.26c0-.14-.01-.25-.04-.32s-.08-.13-.15-.17-.15-.06-.25-.06c-.15,0-.28.05-.39.14s-.16.28-.16.54v1.13h-.35Z"/><path d="m68.91,40.02c-.19-.24-.36-.53-.49-.86s-.2-.67-.2-1.02c0-.31.05-.61.15-.89.12-.33.3-.66.54-.98h.25c-.16.27-.26.46-.31.58-.08.18-.14.37-.19.56-.06.24-.08.49-.08.73,0,.63.19,1.25.58,1.88h-.25Z"/><path d="m69.39,39.18v-.35l1.47-1.83c.1-.13.2-.24.3-.34h-1.6v-.34h2.05v.34l-1.61,1.99-.17.2h1.83v.34h-2.26Z"/><path d="m73.43,38.51l.36.04c-.06.21-.16.38-.32.49s-.35.18-.59.18c-.3,0-.54-.09-.72-.28s-.27-.45-.27-.79.09-.62.27-.81.41-.29.7-.29.5.09.68.28.26.45.26.8c0,.02,0,.05,0,.09h-1.55c.01.23.08.4.19.52s.26.18.43.18c.13,0,.24-.03.33-.1s.16-.18.22-.32Zm-1.15-.57h1.16c-.02-.17-.06-.31-.13-.39-.11-.14-.26-.2-.44-.2-.16,0-.3.05-.41.16s-.17.25-.18.43Z"/><path d="m74.56,39.18h-.33v-2.86h.35v1.02c.15-.19.34-.28.57-.28.13,0,.25.03.36.08s.21.12.28.22.13.21.17.34.06.27.06.42c0,.36-.09.63-.26.82s-.39.29-.63.29-.44-.1-.58-.31v.26Zm0-1.05c0,.25.03.43.1.54.11.18.26.27.45.27.15,0,.29-.07.4-.2s.17-.33.17-.6-.05-.47-.16-.6-.24-.19-.39-.19-.29.07-.4.2-.17.33-.17.58Z"/><path d="m76.46,39.18v-2.07h.32v.31c.08-.15.16-.24.22-.29s.14-.07.23-.07c.12,0,.24.04.36.11l-.12.33c-.09-.05-.17-.08-.26-.08-.08,0-.15.02-.21.07s-.1.11-.13.19c-.04.12-.06.26-.06.41v1.09h-.35Z"/><path d="m79.15,38.93c-.13.11-.26.19-.38.23s-.25.07-.39.07c-.23,0-.4-.06-.53-.17s-.18-.25-.18-.43c0-.1.02-.19.07-.28s.11-.15.18-.2.16-.09.25-.12c.07-.02.17-.04.31-.05.28-.03.49-.07.63-.12,0-.05,0-.08,0-.09,0-.14-.03-.24-.1-.3-.09-.08-.22-.12-.4-.12-.17,0-.29.03-.37.09s-.14.16-.17.31l-.34-.05c.03-.15.08-.27.15-.36s.18-.16.31-.21.29-.07.47-.07.32.02.43.06.19.09.24.16.09.14.11.24c.01.06.02.17.02.32v.47c0,.33,0,.53.02.62s.04.17.09.25h-.37c-.04-.07-.06-.16-.07-.26Zm-.03-.79c-.13.05-.32.1-.57.13-.14.02-.25.04-.31.07s-.11.06-.14.11-.05.11-.05.17c0,.09.04.17.11.23s.17.09.31.09.26-.03.36-.09.18-.14.23-.24c.04-.08.06-.2.06-.35v-.13Z"/><path d="m81.45,39.18h-.33v-2.86h.35v1.02c.15-.19.34-.28.57-.28.13,0,.25.03.36.08s.21.12.28.22.13.21.17.34.06.27.06.42c0,.36-.09.63-.26.82s-.39.29-.63.29-.44-.1-.58-.31v.26Zm0-1.05c0,.25.03.43.1.54.11.18.26.27.45.27.15,0,.29-.07.4-.2s.17-.33.17-.6-.05-.47-.16-.6-.24-.19-.39-.19-.29.07-.4.2-.17.33-.17.58Z"/><path d="m84.71,38.93c-.13.11-.26.19-.38.23s-.25.07-.39.07c-.23,0-.4-.06-.53-.17s-.18-.25-.18-.43c0-.1.02-.19.07-.28s.11-.15.18-.2.16-.09.25-.12c.07-.02.17-.04.31-.05.28-.03.49-.07.63-.12,0-.05,0-.08,0-.09,0-.14-.03-.24-.1-.3-.09-.08-.22-.12-.4-.12-.17,0-.29.03-.37.09s-.14.16-.17.31l-.34-.05c.03-.15.08-.27.15-.36s.18-.16.31-.21.29-.07.47-.07.32.02.43.06.19.09.24.16.09.14.11.24c.01.06.02.17.02.32v.47c0,.33,0,.53.02.62s.04.17.09.25h-.37c-.04-.07-.06-.16-.07-.26Zm-.03-.79c-.13.05-.32.1-.57.13-.14.02-.25.04-.31.07s-.11.06-.14.11-.05.11-.05.17c0,.09.04.17.11.23s.17.09.31.09.26-.03.36-.09.18-.14.23-.24c.04-.08.06-.2.06-.35v-.13Z"/><path d="m85.58,39.18v-2.07h.32v.29c.15-.23.37-.34.66-.34.12,0,.24.02.34.07s.18.1.24.18.09.16.11.26c.01.06.02.18.02.34v1.28h-.35v-1.26c0-.14-.01-.25-.04-.32s-.08-.13-.15-.17-.15-.06-.25-.06c-.15,0-.28.05-.39.14s-.16.28-.16.54v1.13h-.35Z"/><path d="m89.15,39.18v-.26c-.13.21-.32.31-.58.31-.17,0-.32-.05-.46-.14s-.25-.22-.32-.38-.11-.35-.11-.56.03-.4.1-.56.17-.3.31-.39.29-.13.46-.13c.12,0,.24.03.33.08s.18.12.24.21v-1.03h.35v2.86h-.33Zm-1.11-1.04c0,.27.06.46.17.6s.24.2.4.2.28-.06.39-.19.16-.32.16-.58c0-.28-.05-.49-.16-.62s-.24-.2-.4-.2-.29.06-.39.19-.16.33-.16.6Z"/><path d="m90.03,36.72v-.4h.35v.4h-.35Zm0,2.46v-2.07h.35v2.07h-.35Z"/><path d="m90.92,39.18v-2.07h.32v.29c.15-.23.37-.34.66-.34.12,0,.24.02.34.07s.18.1.24.18.09.16.11.26c.01.06.02.18.02.34v1.28h-.35v-1.26c0-.14-.01-.25-.04-.32s-.08-.13-.15-.17-.15-.06-.25-.06c-.15,0-.28.05-.39.14s-.16.28-.16.54v1.13h-.35Z"/><path d="m93.08,39.35l.34.05c.01.11.05.18.12.23.09.06.21.1.36.1.16,0,.29-.03.38-.1s.15-.16.18-.27c.02-.07.03-.22.03-.45-.15.18-.35.27-.57.27-.29,0-.51-.1-.66-.31s-.23-.45-.23-.74c0-.2.04-.38.11-.55s.18-.3.31-.39.3-.14.48-.14c.24,0,.45.1.61.3v-.25h.32v1.79c0,.32-.03.55-.1.69s-.17.24-.31.32-.32.12-.53.12c-.25,0-.45-.06-.6-.17s-.23-.28-.22-.5Zm.29-1.25c0,.27.05.47.16.6s.24.19.41.19.3-.06.41-.19.16-.32.16-.58-.06-.45-.17-.57-.25-.19-.41-.19-.29.06-.4.19-.16.32-.16.57Z"/><path d="m95.6,40.02h-.25c.39-.62.58-1.25.58-1.88,0-.24-.03-.49-.08-.73-.04-.2-.11-.38-.19-.56-.05-.12-.16-.31-.31-.59h.25c.24.33.43.65.54.98.1.28.15.58.15.89,0,.35-.07.69-.2,1.02s-.3.61-.49.86Z"/></g><g id="Lines"><line class="cls-8" x1="82.2" y1="42.52" x2="82.2" y2="56.69"/><line class="cls-5" x1="82.2" y1="42.52" x2="82.2" y2="54.43"/><path d="m82.2,56.69c-.4-1.06-1.07-2.39-1.78-3.21l1.78.65,1.78-.65c-.71.82-1.39,2.14-1.78,3.21Z"/><line class="cls-8" x1="82.2" y1="85.04" x2="82.2" y2="99.21"/><line class="cls-5" x1="82.2" y1="85.04" x2="82.2" y2="96.95"/><path d="m82.2,99.21c-.4-1.06-1.07-2.39-1.78-3.21l1.78.65,1.78-.65c-.71.82-1.39,2.14-1.78,3.21Z"/><polyline class="cls-5" points="110.55 70.87 167.24 70.87 167.24 96.95"/><path d="m167.24,99.21c-.4-1.06-1.07-2.39-1.78-3.21l1.78.65,1.78-.65c-.71.82-1.39,2.14-1.78,3.21Z"/><path class="cls-1" d="m122.6,70.87c0,1.56-1.28,2.83-2.83,2.83h-4.25c-1.56,0-2.83-1.28-2.83-2.83h0c0-1.56,1.28-2.83,2.83-2.83h4.25c1.56,0,2.83,1.28,2.83,2.83h0Z"/><path class="cls-3" d="m122.6,70.87c0,1.56-1.28,2.83-2.83,2.83h-4.25c-1.56,0-2.83-1.28-2.83-2.83h0c0-1.56,1.28-2.83,2.83-2.83h4.25c1.56,0,2.83,1.28,2.83,2.83h0Z"/><text class="cls-10" transform="translate(115.08 72.36)"><tspan x="0" y="0">No</tspan></text><path class="cls-1" d="m87.17,90.83c0,1.56-1.28,2.83-2.83,2.83h-4.25c-1.56,0-2.83-1.28-2.83-2.83s1.28-2.83,2.83-2.83h4.25c1.56,0,2.83,1.28,2.83,2.83Z"/><path class="cls-3" d="m87.17,90.83c0,1.56-1.28,2.83-2.83,2.83h-4.25c-1.56,0-2.83-1.28-2.83-2.83s1.28-2.83,2.83-2.83h4.25c1.56,0,2.83,1.28,2.83,2.83Z"/><text class="cls-10" transform="translate(78.94 92.33)"><tspan class="cls-9" x="0" y="0">Y</tspan><tspan x="2.3" y="0">es</tspan></text></g><g id="Numbers"><circle class="cls-2" cx="48.19" cy="70.87" r="5.67"/><text class="cls-11" transform="translate(46.52 72.88)"><tspan x="0" y="0">1</tspan></text><circle class="cls-2" cx="48.19" cy="113.39" r="5.67"/><text class="cls-11" transform="translate(46.52 115.4)"><tspan x="0" y="0">3</tspan></text><circle class="cls-2" cx="133.23" cy="113.39" r="5.67"/><text class="cls-11" transform="translate(131.56 115.4)"><tspan x="0" y="0">2</tspan></text></g></svg>