<?xml version="1.0" encoding="UTF-8"?><svg xmlns="http://www.w3.org/2000/svg" viewBox="0 0 399.97 294.8"><defs><style>.cls-1,.cls-2{fill:#fff;}.cls-3,.cls-2,.cls-4,.cls-5,.cls-6,.cls-7{stroke-linecap:round;stroke-linejoin:round;}.cls-3,.cls-2,.cls-4,.cls-5,.cls-7{stroke:#000;}.cls-3,.cls-2,.cls-4,.cls-6,.cls-7{stroke-width:.5px;}.cls-3,.cls-5,.cls-6{fill:none;}.cls-4{fill:#c8e6c9;}.cls-5{stroke-width:.25px;}.cls-8{fill:#ffe0b2;}.cls-6{stroke:#e0e0e0;}.cls-9{letter-spacing:-.09em;}.cls-10{font-family:ArialMT, Arial;font-size:4px;}.cls-11{letter-spacing:-.02em;}.cls-7{fill:#bbdefb;}.cls-12{font-family:Arial-BoldMT, Arial;font-size:6px;font-weight:700;}</style></defs><g id="Bckground"><rect class="cls-1" width="399.97" height="294.8"/></g><g id="Frame"><rect class="cls-6" x="5.67" y="5.67" width="388.35" height="283.46"/><text class="cls-12" transform="translate(8.5 13.65)"><tspan x="0" y="0">Remote support / Customer</tspan></text></g><g id="Blocks"><path class="cls-4" d="m82.2,56.69l28.35,14.17-28.35,14.17-28.35-14.17,28.35-14.17Z"/><text class="cls-10" transform="translate(67.75 72.3)"><tspan x="0" y="0">Expired media ?</tspan></text><path class="cls-4" d="m167.24,141.73l28.35,14.17-28.35,14.17-28.35-14.17,28.35-14.17Z"/><text class="cls-10" transform="translate(150.35 157.34)"><tspan x="0" y="0">White application ?</tspan></text><rect class="cls-7" x="53.86" y="99.21" width="56.69" height="28.35"/><text class="cls-10" transform="translate(68.42 114.82)"><tspan x="0" y="0">Use new media</tspan></text><rect class="cls-7" x="138.9" y="99.21" width="56.69" height="28.35"/><text class="cls-10" transform="translate(142.23 114.82)"><tspan x="0" y="0">Increase temperature platen</tspan></text><rect class="cls-7" x="223.94" y="212.6" width="56.69" height="28.35"/><text class="cls-10" transform="translate(240.06 228.2)"><tspan x="0" y="0">Adjust inklimit</tspan></text><rect class="cls-7" x="138.9" y="212.6" width="56.69" height="28.35"/><text class="cls-10" transform="translate(143.6 228.2)"><tspan x="0" y="0">Enhanced adhesion in RI</tspan><tspan class="cls-11" x="44.7" y="0">P</tspan></text><rect class="cls-8" x="53.86" y="28.35" width="56.69" height="14.17" rx="5.67" ry="5.67"/><rect class="cls-3" x="53.86" y="28.35" width="56.69" height="14.17" rx="5.67" ry="5.67"/><text class="cls-10" transform="translate(67.64 36.78)"><tspan x="0" y="0">Adhesion issues</tspan></text><path class="cls-4" d="m252.28,170.08l28.35,14.17-28.35,14.17-28.35-14.17,28.35-14.17Z"/><text class="cls-10" transform="translate(244.72 185.68)"><tspan x="0" y="0">C1640 ?</tspan></text><rect class="cls-7" x="308.98" y="212.6" width="56.69" height="28.35"/><text class="cls-10" transform="translate(321.09 228.2)"><tspan x="0" y="0">Media not suitable</tspan></text><rect class="cls-7" x="138.9" y="255.12" width="56.69" height="28.35"/><text class="cls-10" transform="translate(154.79 270.72)"><tspan x="0" y="0">Uni printmode</tspan></text></g><g id="Lines"><line class="cls-8" x1="82.2" y1="42.52" x2="82.2" y2="56.69"/><line class="cls-5" x1="82.2" y1="42.52" x2="82.2" y2="54.43"/><path d="m82.2,56.69c-.4-1.06-1.07-2.39-1.78-3.21l1.78.65,1.78-.65c-.71.82-1.39,2.14-1.78,3.21Z"/><line class="cls-8" x1="82.2" y1="85.04" x2="82.2" y2="99.21"/><line class="cls-5" x1="82.2" y1="85.04" x2="82.2" y2="96.95"/><path d="m82.2,99.21c-.4-1.06-1.07-2.39-1.78-3.21l1.78.65,1.78-.65c-.71.82-1.39,2.14-1.78,3.21Z"/><line class="cls-8" x1="167.24" y1="170.08" x2="167.24" y2="212.6"/><line class="cls-5" x1="167.24" y1="170.08" x2="167.24" y2="210.34"/><path d="m167.24,212.6c-.4-1.06-1.07-2.39-1.78-3.21l1.78.65,1.78-.65c-.71.82-1.39,2.14-1.78,3.21Z"/><polyline class="cls-5" points="110.55 70.87 167.24 70.87 167.24 96.95"/><path d="m167.24,99.21c-.4-1.06-1.07-2.39-1.78-3.21l1.78.65,1.78-.65c-.71.82-1.39,2.14-1.78,3.21Z"/><polyline class="cls-5" points="195.59 155.91 252.28 155.91 252.28 167.82"/><path d="m252.28,170.08c-.4-1.06-1.07-2.39-1.78-3.21l1.78.65,1.78-.65c-.71.82-1.39,2.14-1.78,3.21Z"/><path class="cls-1" d="m207.64,155.91c0,1.56-1.28,2.83-2.83,2.83h-4.25c-1.56,0-2.83-1.28-2.83-2.83h0c0-1.56,1.28-2.83,2.83-2.83h4.25c1.56,0,2.83,1.28,2.83,2.83h0Z"/><path class="cls-3" d="m207.64,155.91c0,1.56-1.28,2.83-2.83,2.83h-4.25c-1.56,0-2.83-1.28-2.83-2.83h0c0-1.56,1.28-2.83,2.83-2.83h4.25c1.56,0,2.83,1.28,2.83,2.83h0Z"/><text class="cls-10" transform="translate(200.12 157.4)"><tspan x="0" y="0">No</tspan></text><path class="cls-1" d="m122.6,70.87c0,1.56-1.28,2.83-2.83,2.83h-4.25c-1.56,0-2.83-1.28-2.83-2.83h0c0-1.56,1.28-2.83,2.83-2.83h4.25c1.56,0,2.83,1.28,2.83,2.83h0Z"/><path class="cls-3" d="m122.6,70.87c0,1.56-1.28,2.83-2.83,2.83h-4.25c-1.56,0-2.83-1.28-2.83-2.83h0c0-1.56,1.28-2.83,2.83-2.83h4.25c1.56,0,2.83,1.28,2.83,2.83h0Z"/><text class="cls-10" transform="translate(115.08 72.36)"><tspan x="0" y="0">No</tspan></text><path class="cls-1" d="m87.17,90.71c0,1.56-1.28,2.83-2.83,2.83h-4.25c-1.56,0-2.83-1.28-2.83-2.83s1.28-2.83,2.83-2.83h4.25c1.56,0,2.83,1.28,2.83,2.83Z"/><path class="cls-3" d="m87.17,90.71c0,1.56-1.28,2.83-2.83,2.83h-4.25c-1.56,0-2.83-1.28-2.83-2.83s1.28-2.83,2.83-2.83h4.25c1.56,0,2.83,1.28,2.83,2.83Z"/><text class="cls-10" transform="translate(78.94 92.2)"><tspan class="cls-9" x="0" y="0">Y</tspan><tspan x="2.3" y="0">es</tspan></text><path class="cls-1" d="m172.2,175.75c0,1.56-1.28,2.83-2.83,2.83h-4.25c-1.56,0-2.83-1.28-2.83-2.83s1.28-2.83,2.83-2.83h4.25c1.56,0,2.83,1.28,2.83,2.83Z"/><path class="cls-3" d="m172.2,175.75c0,1.56-1.28,2.83-2.83,2.83h-4.25c-1.56,0-2.83-1.28-2.83-2.83s1.28-2.83,2.83-2.83h4.25c1.56,0,2.83,1.28,2.83,2.83Z"/><text class="cls-10" transform="translate(163.98 177.24)"><tspan class="cls-9" x="0" y="0">Y</tspan><tspan x="2.3" y="0">es</tspan></text><line class="cls-8" x1="167.24" y1="127.56" x2="167.24" y2="141.73"/><line class="cls-5" x1="167.24" y1="127.56" x2="167.24" y2="139.47"/><path d="m167.24,141.73c-.4-1.06-1.07-2.39-1.78-3.21l1.78.65,1.78-.65c-.71.82-1.39,2.14-1.78,3.21Z"/><path class="cls-1" d="m172.2,133.23c0,1.56-1.28,2.83-2.83,2.83h-4.25c-1.56,0-2.83-1.28-2.83-2.83s1.28-2.83,2.83-2.83h4.25c1.56,0,2.83,1.28,2.83,2.83Z"/><path class="cls-3" d="m172.2,133.23c0,1.56-1.28,2.83-2.83,2.83h-4.25c-1.56,0-2.83-1.28-2.83-2.83s1.28-2.83,2.83-2.83h4.25c1.56,0,2.83,1.28,2.83,2.83Z"/><text class="cls-10" transform="translate(163.98 134.72)"><tspan class="cls-9" x="0" y="0">Y</tspan><tspan x="2.3" y="0">es</tspan></text><line class="cls-8" x1="167.24" y1="240.94" x2="167.24" y2="255.12"/><line class="cls-5" x1="167.24" y1="240.94" x2="167.24" y2="252.85"/><path d="m167.24,255.12c-.4-1.06-1.07-2.39-1.78-3.21l1.78.65,1.78-.65c-.71.82-1.39,2.14-1.78,3.21Z"/><path class="cls-1" d="m172.2,246.61c0,1.56-1.28,2.83-2.83,2.83h-4.25c-1.56,0-2.83-1.28-2.83-2.83s1.28-2.83,2.83-2.83h4.25c1.56,0,2.83,1.28,2.83,2.83Z"/><path class="cls-3" d="m172.2,246.61c0,1.56-1.28,2.83-2.83,2.83h-4.25c-1.56,0-2.83-1.28-2.83-2.83s1.28-2.83,2.83-2.83h4.25c1.56,0,2.83,1.28,2.83,2.83Z"/><text class="cls-10" transform="translate(163.98 248.11)"><tspan class="cls-9" x="0" y="0">Y</tspan><tspan x="2.3" y="0">es</tspan></text><line class="cls-8" x1="252.28" y1="198.43" x2="252.28" y2="212.6"/><line class="cls-5" x1="252.28" y1="198.43" x2="252.28" y2="210.34"/><path d="m252.28,212.6c-.4-1.06-1.07-2.39-1.78-3.21l1.78.65,1.78-.65c-.71.82-1.39,2.14-1.78,3.21Z"/><path class="cls-1" d="m257.24,204.09c0,1.56-1.28,2.83-2.83,2.83h-4.25c-1.56,0-2.83-1.28-2.83-2.83s1.28-2.83,2.83-2.83h4.25c1.56,0,2.83,1.28,2.83,2.83Z"/><path class="cls-3" d="m257.24,204.09c0,1.56-1.28,2.83-2.83,2.83h-4.25c-1.56,0-2.83-1.28-2.83-2.83s1.28-2.83,2.83-2.83h4.25c1.56,0,2.83,1.28,2.83,2.83Z"/><text class="cls-10" transform="translate(249.02 205.59)"><tspan class="cls-9" x="0" y="0">Y</tspan><tspan x="2.3" y="0">es</tspan></text><polyline class="cls-5" points="280.63 184.25 337.32 184.25 337.32 210.34"/><path d="m337.32,212.6c-.4-1.06-1.07-2.39-1.78-3.21l1.78.65,1.78-.65c-.71.82-1.39,2.14-1.78,3.21Z"/><path class="cls-1" d="m292.68,184.25c0,1.56-1.28,2.83-2.83,2.83h-4.25c-1.56,0-2.83-1.28-2.83-2.83h0c0-1.56,1.28-2.83,2.83-2.83h4.25c1.56,0,2.83,1.28,2.83,2.83h0Z"/><path class="cls-3" d="m292.68,184.25c0,1.56-1.28,2.83-2.83,2.83h-4.25c-1.56,0-2.83-1.28-2.83-2.83h0c0-1.56,1.28-2.83,2.83-2.83h4.25c1.56,0,2.83,1.28,2.83,2.83h0Z"/><text class="cls-10" transform="translate(285.16 185.74)"><tspan x="0" y="0">No</tspan></text></g><g id="Numbers"><circle class="cls-2" cx="48.19" cy="70.87" r="5.67"/><text class="cls-12" transform="translate(46.52 72.88)"><tspan x="0" y="0">1</tspan></text><circle class="cls-2" cx="133.23" cy="113.39" r="5.67"/><text class="cls-12" transform="translate(131.56 115.4)"><tspan x="0" y="0">3</tspan></text><circle class="cls-2" cx="48.19" cy="113.39" r="5.67"/><text class="cls-12" transform="translate(46.52 115.4)"><tspan x="0" y="0">2</tspan></text><circle class="cls-2" cx="133.23" cy="226.77" r="5.67"/><text class="cls-12" transform="translate(131.56 228.78)"><tspan x="0" y="0">5</tspan></text><circle class="cls-2" cx="133.23" cy="155.91" r="5.67"/><text class="cls-12" transform="translate(131.56 157.92)"><tspan x="0" y="0">4</tspan></text><circle class="cls-2" cx="133.23" cy="269.29" r="5.67"/><text class="cls-12" transform="translate(131.56 271.3)"><tspan x="0" y="0">6</tspan></text><circle class="cls-2" cx="218.27" cy="184.25" r="5.67"/><text class="cls-12" transform="translate(216.6 186.26)"><tspan x="0" y="0">7</tspan></text><circle class="cls-2" cx="218.27" cy="226.77" r="5.67"/><text class="cls-12" transform="translate(216.6 228.78)"><tspan x="0" y="0">8</tspan></text><circle class="cls-2" cx="303.31" cy="226.77" r="5.67"/><text class="cls-12" transform="translate(301.64 228.78)"><tspan x="0" y="0">9</tspan></text></g></svg>