<?xml version="1.0" encoding="UTF-8"?><svg xmlns="http://www.w3.org/2000/svg" viewBox="0 0 249.73 308.98"><defs><style>.cls-1,.cls-2{fill:#fff;}.cls-3,.cls-2,.cls-4,.cls-5,.cls-6,.cls-7{stroke-linecap:round;stroke-linejoin:round;}.cls-3,.cls-2,.cls-4,.cls-5,.cls-7{stroke:#000;}.cls-3,.cls-2,.cls-4,.cls-6,.cls-7{stroke-width:.5px;}.cls-3,.cls-5,.cls-6{fill:none;}.cls-4{fill:#c8e6c9;}.cls-5{stroke-width:.25px;}.cls-8{fill:#ffe0b2;}.cls-6{stroke:#e0e0e0;}.cls-9{letter-spacing:-.09em;}.cls-10{font-family:ArialMT, Arial;font-size:4px;}.cls-7{fill:#bbdefb;}.cls-11{font-family:Arial-BoldMT, Arial;font-size:6px;font-weight:700;}</style></defs><g id="Bckground"><rect class="cls-1" width="249.73" height="308.98"/></g><g id="Frame"><rect class="cls-6" x="5.67" y="5.67" width="238.39" height="113.39"/><text class="cls-11" transform="translate(8.5 13.65)"><tspan x="0" y="0">Remote support / Customer</tspan></text><rect class="cls-6" x="5.67" y="119.06" width="238.39" height="184.25"/><text class="cls-11" transform="translate(8.5 127.04)"><tspan x="0" y="0">Engineer</tspan></text></g><g id="Blocks"><path class="cls-4" d="m82.2,56.69l28.35,14.17-28.35,14.17-28.35-14.17,28.35-14.17Z"/><text class="cls-10" transform="translate(70.75 69.9)"><tspan x="0" y="0">Maintenance</tspan><tspan x="5.33" y="4.8">done ?</tspan></text><path class="cls-4" d="m82.2,127.56l28.35,14.17-28.35,14.17-28.35-14.17,28.35-14.17Z"/><text class="cls-10" transform="translate(66.3 140.76)"><tspan x="0" y="0">Engine shut down </tspan><tspan x="7.12" y="4.8">too long ?</tspan></text><rect class="cls-7" x="138.9" y="85.04" width="56.69" height="28.35"/><text class="cls-10" transform="translate(141.01 100.65)"><tspan x="0" y="0">Perform manual maintenance</tspan></text><rect class="cls-7" x="138.9" y="226.77" width="56.69" height="28.35"/><text class="cls-10" transform="translate(141.01 242.38)"><tspan x="0" y="0">Perform manual maintenance</tspan></text><rect class="cls-7" x="138.9" y="269.29" width="56.69" height="28.35"/><text class="cls-10" transform="translate(150.01 284.9)"><tspan x="0" y="0">Replace printheads</tspan></text><rect class="cls-8" x="53.86" y="28.35" width="56.69" height="14.17" rx="5.67" ry="5.67"/><rect class="cls-3" x="53.86" y="28.35" width="56.69" height="14.17" rx="5.67" ry="5.67"/><text class="cls-10" transform="translate(56.64 36.78)"><tspan x="0" y="0">Graininess in the first swaths</tspan></text><rect class="cls-7" x="53.86" y="170.08" width="56.69" height="28.35"/><text class="cls-10" transform="translate(67.76 185.68)"><tspan x="0" y="0">Inform customer</tspan></text></g><g id="Lines"><line class="cls-8" x1="82.2" y1="42.52" x2="82.2" y2="56.69"/><line class="cls-5" x1="82.2" y1="42.52" x2="82.2" y2="54.43"/><path d="m82.2,56.69c-.4-1.06-1.07-2.39-1.78-3.21l1.78.65,1.78-.65c-.71.82-1.39,2.14-1.78,3.21Z"/><line class="cls-8" x1="82.2" y1="85.04" x2="82.2" y2="127.56"/><line class="cls-5" x1="82.2" y1="85.04" x2="82.2" y2="125.3"/><path d="m82.2,127.56c-.4-1.06-1.07-2.39-1.78-3.21l1.78.65,1.78-.65c-.71.82-1.39,2.14-1.78,3.21Z"/><polyline class="cls-5" points="110.55 70.87 167.24 70.87 167.24 82.78"/><path d="m167.24,85.04c-.4-1.06-1.07-2.39-1.78-3.21l1.78.65,1.78-.65c-.71.82-1.39,2.14-1.78,3.21Z"/><path class="cls-1" d="m122.6,70.87c0,1.56-1.28,2.83-2.83,2.83h-4.25c-1.56,0-2.83-1.28-2.83-2.83h0c0-1.56,1.28-2.83,2.83-2.83h4.25c1.56,0,2.83,1.28,2.83,2.83h0Z"/><path class="cls-3" d="m122.6,70.87c0,1.56-1.28,2.83-2.83,2.83h-4.25c-1.56,0-2.83-1.28-2.83-2.83h0c0-1.56,1.28-2.83,2.83-2.83h4.25c1.56,0,2.83,1.28,2.83,2.83h0Z"/><text class="cls-10" transform="translate(115.08 72.36)"><tspan x="0" y="0">No</tspan></text><polyline class="cls-5" points="110.55 141.73 167.24 141.73 167.24 224.51"/><path d="m167.24,226.77c-.4-1.06-1.07-2.39-1.78-3.21l1.78.65,1.78-.65c-.71.82-1.39,2.14-1.78,3.21Z"/><polyline class="cls-5" points="82.2 198.43 82.2 212.6 164.98 212.6"/><path d="m167.24,212.6c-1.06.4-2.39,1.07-3.21,1.78l.65-1.78-.65-1.78c.82.71,2.14,1.39,3.21,1.78Z"/><path class="cls-1" d="m122.6,141.73c0,1.56-1.28,2.83-2.83,2.83h-4.25c-1.56,0-2.83-1.28-2.83-2.83h0c0-1.56,1.28-2.83,2.83-2.83h4.25c1.56,0,2.83,1.28,2.83,2.83h0Z"/><path class="cls-3" d="m122.6,141.73c0,1.56-1.28,2.83-2.83,2.83h-4.25c-1.56,0-2.83-1.28-2.83-2.83h0c0-1.56,1.28-2.83,2.83-2.83h4.25c1.56,0,2.83,1.28,2.83,2.83h0Z"/><text class="cls-10" transform="translate(115.08 143.22)"><tspan x="0" y="0">No</tspan></text><path class="cls-1" d="m87.17,90.71c0,1.56-1.28,2.83-2.83,2.83h-4.25c-1.56,0-2.83-1.28-2.83-2.83s1.28-2.83,2.83-2.83h4.25c1.56,0,2.83,1.28,2.83,2.83Z"/><path class="cls-3" d="m87.17,90.71c0,1.56-1.28,2.83-2.83,2.83h-4.25c-1.56,0-2.83-1.28-2.83-2.83s1.28-2.83,2.83-2.83h4.25c1.56,0,2.83,1.28,2.83,2.83Z"/><text class="cls-10" transform="translate(78.94 92.2)"><tspan class="cls-9" x="0" y="0">Y</tspan><tspan x="2.3" y="0">es</tspan></text><line class="cls-8" x1="82.2" y1="155.91" x2="82.2" y2="170.08"/><line class="cls-5" x1="82.2" y1="155.91" x2="82.2" y2="167.82"/><path d="m82.2,170.08c-.4-1.06-1.07-2.39-1.78-3.21l1.78.65,1.78-.65c-.71.82-1.39,2.14-1.78,3.21Z"/><path class="cls-1" d="m87.17,161.57c0,1.56-1.28,2.83-2.83,2.83h-4.25c-1.56,0-2.83-1.28-2.83-2.83s1.28-2.83,2.83-2.83h4.25c1.56,0,2.83,1.28,2.83,2.83Z"/><path class="cls-3" d="m87.17,161.57c0,1.56-1.28,2.83-2.83,2.83h-4.25c-1.56,0-2.83-1.28-2.83-2.83s1.28-2.83,2.83-2.83h4.25c1.56,0,2.83,1.28,2.83,2.83Z"/><text class="cls-10" transform="translate(78.94 163.07)"><tspan class="cls-9" x="0" y="0">Y</tspan><tspan x="2.3" y="0">es</tspan></text><line class="cls-8" x1="167.24" y1="255.12" x2="167.24" y2="269.29"/><line class="cls-5" x1="167.24" y1="255.12" x2="167.24" y2="267.03"/><path d="m167.24,269.29c-.4-1.06-1.07-2.39-1.78-3.21l1.78.65,1.78-.65c-.71.82-1.39,2.14-1.78,3.21Z"/></g><g id="Numbers"><circle class="cls-2" cx="48.19" cy="70.87" r="5.67"/><text class="cls-11" transform="translate(46.52 72.88)"><tspan x="0" y="0">1</tspan></text><circle class="cls-2" cx="48.19" cy="141.73" r="5.67"/><text class="cls-11" transform="translate(46.52 143.74)"><tspan x="0" y="0">3</tspan></text><circle class="cls-2" cx="133.23" cy="99.21" r="5.67"/><text class="cls-11" transform="translate(131.56 101.22)"><tspan x="0" y="0">2</tspan></text><circle class="cls-2" cx="133.23" cy="240.94" r="5.67"/><text class="cls-11" transform="translate(131.56 242.96)"><tspan x="0" y="0">5</tspan></text><circle class="cls-2" cx="48.19" cy="184.25" r="5.67"/><text class="cls-11" transform="translate(46.52 186.26)"><tspan x="0" y="0">4</tspan></text><circle class="cls-2" cx="133.23" cy="283.46" r="5.67"/><text class="cls-11" transform="translate(131.56 285.48)"><tspan x="0" y="0">6</tspan></text></g></svg>