<?xml version="1.0" encoding="UTF-8"?><svg xmlns="http://www.w3.org/2000/svg" viewBox="0 0 299.91 357.17"><defs><style>.cls-1,.cls-2{fill:#fff;}.cls-2,.cls-3,.cls-4,.cls-5,.cls-6{stroke:#000;}.cls-2,.cls-3,.cls-4,.cls-5,.cls-6,.cls-7{stroke-linecap:round;stroke-linejoin:round;}.cls-2,.cls-4,.cls-5,.cls-6,.cls-7{stroke-width:.5px;}.cls-8{fill:#ffe0b2;}.cls-3{stroke-width:.25px;}.cls-3,.cls-4,.cls-7{fill:none;}.cls-9{font-size:6px;}.cls-9,.cls-10{font-family:Arial-BoldMT, Arial;font-weight:700;}.cls-5{fill:#bbdefb;}.cls-11{font-family:ArialMT, Arial;font-size:4px;}.cls-6{fill:#c8e6c9;}.cls-7{stroke:#e0e0e0;}.cls-12{letter-spacing:-.09em;}.cls-10{font-size:5.79px;}</style></defs><g id="Bckground"><rect class="cls-1" width="299.91" height="357.17"/></g><g id="Frame"><rect class="cls-7" x="5.67" y="5.67" width="289.13" height="189.92"/><rect class="cls-7" x="5.67" y="195.59" width="289.13" height="155.91"/><text class="cls-10" transform="translate(8.5 13.37) scale(1.04 1)"><tspan x="0" y="0">Customer / Remote support</tspan></text><text class="cls-10" transform="translate(8.5 204.09) scale(1.04 1)"><tspan x="0" y="0">Engineer</tspan></text></g><g id="Blocks"><path class="cls-6" d="M56.69,48.19l28.35,14.17-28.35,14.17-28.35-14.17,28.35-14.17Z"/><text class="cls-11" transform="translate(39.13 61.39)"><tspan x="0" y="0">Are patterns printed </tspan><tspan x="8.34" y="4.8">correctly ?</tspan></text><path class="cls-6" d="M56.69,90.71l28.35,14.17-28.35,14.17-28.35-14.17,28.35-14.17Z"/><text class="cls-11" transform="translate(39.9 106.31)"><tspan x="0" y="0">Is media polluted ?</tspan></text><rect class="cls-8" x="28.35" y="19.84" width="56.69" height="14.17" rx="5.67" ry="5.67"/><rect class="cls-4" x="28.35" y="19.84" width="56.69" height="14.17" rx="5.67" ry="5.67"/><text class="cls-11" transform="translate(52.47 28.28)"><tspan x="0" y="0">Start</tspan></text><g id="Process"><rect class="cls-5" x="198.43" y="76.54" width="56.69" height="28.35"/><text class="cls-11" transform="translate(210.76 89.74)"><tspan x="0" y="0">Perform printhead </tspan><tspan x="4.56" y="4.8">maintenance</tspan></text></g><g id="Process-2"><rect class="cls-5" x="113.39" y="133.23" width="56.69" height="28.35"/><text class="cls-11" transform="translate(123.72 148.83)"><tspan x="0" y="0">Clean M&amp;C-scanner</tspan></text></g><g id="Process-3"><rect class="cls-5" x="113.39" y="204.09" width="56.69" height="28.35"/><text class="cls-11" transform="translate(123.28 219.7)"><tspan x="0" y="0">Check M&amp;C-scanner</tspan></text></g><g id="Process-4"><rect class="cls-5" x="113.39" y="246.61" width="56.69" height="28.35"/><text class="cls-11" transform="translate(120.95 262.22)"><tspan x="0" y="0">Calibrate M&amp;C-scanner</tspan></text></g><g id="Process-5"><rect class="cls-5" x="113.39" y="289.13" width="56.69" height="28.35"/><text class="cls-11" transform="translate(121.61 304.74)"><tspan x="0" y="0">Replace M&amp;C-scanner</tspan></text></g><g id="Process-6"><rect class="cls-5" x="28.35" y="133.23" width="56.69" height="28.35"/><text class="cls-11" transform="translate(41.8 148.83)"><tspan x="0" y="0">Use clean media</tspan></text></g><rect class="cls-8" x="198.43" y="246.61" width="56.69" height="14.17" rx="5.67" ry="5.67"/><rect class="cls-4" x="198.43" y="246.61" width="56.69" height="14.17" rx="5.67" ry="5.67"/><text class="cls-11" transform="translate(223.21 255.05)"><tspan x="0" y="0">End</tspan></text><g id="Process-7"><rect class="cls-5" x="198.43" y="204.09" width="56.69" height="28.35"/><text class="cls-11" transform="translate(208.54 219.7)"><tspan x="0" y="0">Replace K-printhead</tspan></text></g><rect class="cls-8" x="113.39" y="331.65" width="56.69" height="14.17" rx="5.67" ry="5.67"/><rect class="cls-4" x="113.39" y="331.65" width="56.69" height="14.17" rx="5.67" ry="5.67"/><text class="cls-11" transform="translate(138.17 340.09)"><tspan x="0" y="0">End</tspan></text><rect class="cls-8" x="28.35" y="175.75" width="56.69" height="14.17" rx="5.67" ry="5.67"/><rect class="cls-4" x="28.35" y="175.75" width="56.69" height="14.17" rx="5.67" ry="5.67"/><text class="cls-11" transform="translate(53.13 184.18)"><tspan x="0" y="0">End</tspan></text></g><g id="Lines"><line class="cls-8" x1="56.69" y1="34.02" x2="56.69" y2="48.19"/><line class="cls-3" x1="56.69" y1="34.02" x2="56.69" y2="45.93"/><path d="M56.69,48.19c-.4-1.06-1.07-2.39-1.78-3.21l1.78.65,1.78-.65c-.71.82-1.39,2.14-1.78,3.21Z"/><polyline class="cls-3" points="85.04 62.36 226.77 62.36 226.77 74.27"/><path d="M226.77,76.53c-.4-1.06-1.07-2.39-1.78-3.21l1.78.65,1.78-.65c-.71.82-1.39,2.14-1.78,3.21Z"/><path class="cls-1" d="M97.09,62.36c0,1.56-1.28,2.83-2.83,2.83h-4.25c-1.56,0-2.83-1.28-2.83-2.83h0c0-1.56,1.28-2.83,2.83-2.83h4.25c1.56,0,2.83,1.28,2.83,2.83h0Z"/><path class="cls-4" d="M97.09,62.36c0,1.56-1.28,2.83-2.83,2.83h-4.25c-1.56,0-2.83-1.28-2.83-2.83h0c0-1.56,1.28-2.83,2.83-2.83h4.25c1.56,0,2.83,1.28,2.83,2.83h0Z"/><text class="cls-11" transform="translate(89.57 63.85)"><tspan x="0" y="0">No</tspan></text><line class="cls-8" x1="56.69" y1="76.54" x2="56.69" y2="90.71"/><line class="cls-3" x1="56.69" y1="76.54" x2="56.69" y2="88.45"/><path d="M56.69,90.71c-.4-1.06-1.07-2.39-1.78-3.21l1.78.65,1.78-.65c-.71.82-1.39,2.14-1.78,3.21Z"/><path class="cls-1" d="M61.65,82.2c0,1.56-1.28,2.83-2.83,2.83h-4.25c-1.56,0-2.83-1.28-2.83-2.83s1.28-2.83,2.83-2.83h4.25c1.56,0,2.83,1.28,2.83,2.83Z"/><path class="cls-4" d="M61.65,82.2c0,1.56-1.28,2.83-2.83,2.83h-4.25c-1.56,0-2.83-1.28-2.83-2.83s1.28-2.83,2.83-2.83h4.25c1.56,0,2.83,1.28,2.83,2.83Z"/><text class="cls-11" transform="translate(53.43 83.7)"><tspan class="cls-12" x="0" y="0">Y</tspan><tspan x="2.3" y="0">es</tspan></text><line class="cls-8" x1="56.69" y1="119.06" x2="56.69" y2="133.23"/><line class="cls-3" x1="56.69" y1="119.06" x2="56.69" y2="130.97"/><path d="M56.69,133.23c-.4-1.06-1.07-2.39-1.78-3.21l1.78.65,1.78-.65c-.71.82-1.39,2.14-1.78,3.21Z"/><path class="cls-1" d="M61.65,124.72c0,1.56-1.28,2.83-2.83,2.83h-4.25c-1.56,0-2.83-1.28-2.83-2.83s1.28-2.83,2.83-2.83h4.25c1.56,0,2.83,1.28,2.83,2.83Z"/><path class="cls-4" d="M61.65,124.72c0,1.56-1.28,2.83-2.83,2.83h-4.25c-1.56,0-2.83-1.28-2.83-2.83s1.28-2.83,2.83-2.83h4.25c1.56,0,2.83,1.28,2.83,2.83Z"/><text class="cls-11" transform="translate(53.43 126.22)"><tspan class="cls-12" x="0" y="0">Y</tspan><tspan x="2.3" y="0">es</tspan></text><line class="cls-8" x1="226.77" y1="232.44" x2="226.77" y2="246.61"/><line class="cls-3" x1="226.77" y1="232.44" x2="226.77" y2="244.35"/><path d="M226.77,246.61c-.4-1.06-1.07-2.39-1.78-3.21l1.78.65,1.78-.65c-.71.82-1.39,2.14-1.78,3.21Z"/><line class="cls-8" x1="226.77" y1="104.88" x2="226.77" y2="204.09"/><line class="cls-3" x1="226.77" y1="104.88" x2="226.77" y2="201.83"/><path d="M226.77,204.09c-.4-1.06-1.07-2.39-1.78-3.21l1.78.65,1.78-.65c-.71.82-1.39,2.14-1.78,3.21Z"/><polyline class="cls-3" points="85.04 104.88 141.73 104.88 141.73 130.96"/><path d="M141.73,133.23c-.4-1.06-1.07-2.39-1.78-3.21l1.78.65,1.78-.65c-.71.82-1.39,2.14-1.78,3.21Z"/><path class="cls-1" d="M97.09,104.88c0,1.56-1.28,2.83-2.83,2.83h-4.25c-1.56,0-2.83-1.28-2.83-2.83h0c0-1.56,1.28-2.83,2.83-2.83h4.25c1.56,0,2.83,1.28,2.83,2.83h0Z"/><path class="cls-4" d="M97.09,104.88c0,1.56-1.28,2.83-2.83,2.83h-4.25c-1.56,0-2.83-1.28-2.83-2.83h0c0-1.56,1.28-2.83,2.83-2.83h4.25c1.56,0,2.83,1.28,2.83,2.83h0Z"/><text class="cls-11" transform="translate(89.57 106.37)"><tspan x="0" y="0">No</tspan></text><line class="cls-8" x1="141.73" y1="317.48" x2="141.73" y2="331.65"/><line class="cls-3" x1="141.73" y1="317.48" x2="141.73" y2="329.39"/><path d="M141.73,331.65c-.4-1.06-1.07-2.39-1.78-3.21l1.78.65,1.78-.65c-.71.82-1.39,2.14-1.78,3.21Z"/><line class="cls-8" x1="56.69" y1="161.57" x2="56.69" y2="175.75"/><line class="cls-3" x1="56.69" y1="161.57" x2="56.69" y2="173.48"/><path d="M56.69,175.75c-.4-1.06-1.07-2.39-1.78-3.21l1.78.65,1.78-.65c-.71.82-1.39,2.14-1.78,3.21Z"/><line class="cls-8" x1="141.73" y1="161.57" x2="141.73" y2="204.09"/><line class="cls-3" x1="141.73" y1="161.57" x2="141.73" y2="201.83"/><path d="M141.73,204.09c-.4-1.06-1.07-2.39-1.78-3.21l1.78.65,1.78-.65c-.71.82-1.39,2.14-1.78,3.21Z"/><line class="cls-8" x1="141.73" y1="232.44" x2="141.73" y2="246.61"/><line class="cls-3" x1="141.73" y1="232.44" x2="141.73" y2="244.35"/><path d="M141.73,246.61c-.4-1.06-1.07-2.39-1.78-3.21l1.78.65,1.78-.65c-.71.82-1.39,2.14-1.78,3.21Z"/><line class="cls-8" x1="141.73" y1="274.96" x2="141.73" y2="289.13"/><line class="cls-3" x1="141.73" y1="274.96" x2="141.73" y2="286.87"/><path d="M141.73,289.13c-.4-1.06-1.07-2.39-1.78-3.21l1.78.65,1.78-.65c-.71.82-1.39,2.14-1.78,3.21Z"/></g><g id="Numbers"><circle class="cls-2" cx="22.68" cy="62.36" r="5.67"/><text class="cls-9" transform="translate(21.01 64.37)"><tspan x="0" y="0">1</tspan></text><circle class="cls-2" cx="192.76" cy="90.71" r="5.67"/><text class="cls-9" transform="translate(191.09 92.72)"><tspan x="0" y="0">5</tspan></text><circle class="cls-2" cx="107.72" cy="147.4" r="5.67"/><text class="cls-9" transform="translate(106.05 149.41)"><tspan x="0" y="0">4</tspan></text><circle class="cls-2" cx="107.72" cy="218.27" r="5.67"/><text class="cls-9" transform="translate(106.05 220.28)"><tspan x="0" y="0">7</tspan></text><circle class="cls-2" cx="107.72" cy="260.79" r="5.67"/><text class="cls-9" transform="translate(106.05 262.8)"><tspan x="0" y="0">7</tspan></text><circle class="cls-2" cx="107.72" cy="303.31" r="5.67"/><text class="cls-9" transform="translate(106.05 305.32)"><tspan x="0" y="0">7</tspan></text><circle class="cls-2" cx="22.68" cy="147.4" r="5.67"/><text class="cls-9" transform="translate(21.01 149.41)"><tspan x="0" y="0">3</tspan></text><circle class="cls-2" cx="192.76" cy="218.27" r="5.67"/><text class="cls-9" transform="translate(191.09 220.28)"><tspan x="0" y="0">6</tspan></text><circle class="cls-2" cx="22.68" cy="104.88" r="5.67"/><text class="cls-9" transform="translate(21.01 106.89)"><tspan x="0" y="0">2</tspan></text></g></svg>