<?xml version="1.0" encoding="UTF-8"?><svg xmlns="http://www.w3.org/2000/svg" viewBox="0 0 527.24 450.71"><defs><style>.cls-1,.cls-2{fill:#fff;}.cls-2,.cls-3,.cls-4,.cls-5,.cls-6{stroke:#000;}.cls-2,.cls-3,.cls-4,.cls-5,.cls-6,.cls-7{stroke-linecap:round;stroke-linejoin:round;}.cls-2,.cls-4,.cls-5,.cls-6,.cls-7{stroke-width:.5px;}.cls-8{fill:#ffe0b2;}.cls-9{letter-spacing:-.06em;}.cls-3{stroke-width:.25px;}.cls-3,.cls-4,.cls-7{fill:none;}.cls-10{font-size:6px;}.cls-10,.cls-11{font-family:Arial-BoldMT, Arial;font-weight:700;}.cls-5{fill:#bbdefb;}.cls-12{font-family:ArialMT, Arial;font-size:4px;}.cls-6{fill:#c8e6c9;}.cls-7{stroke:#e0e0e0;}.cls-13{letter-spacing:-.09em;}.cls-11{font-size:5.79px;}</style></defs><g id="Bckground"><rect class="cls-1" width="527.24" height="450.71"/></g><g id="Frame"><rect class="cls-7" x="5.67" y="5.67" width="515.91" height="240.94"/><rect class="cls-7" x="5.67" y="246.61" width="515.91" height="198.43"/><text class="cls-11" transform="translate(8.5 13.37) scale(1.04 1)"><tspan x="0" y="0">Helpdesk / Customer</tspan></text><text class="cls-11" transform="translate(8.5 255.12) scale(1.04 1)"><tspan x="0" y="0">Field Engineer</tspan></text></g><g id="Blocks"><path class="cls-6" d="M56.69,56.69l28.35,14.17-28.35,14.17-28.35-14.17,28.35-14.17Z"/><text class="cls-12" transform="translate(42.02 72.3)"><tspan x="0" y="0">Markers visible ?</tspan></text><rect class="cls-8" x="28.35" y="28.35" width="56.69" height="14.17" rx="5.67" ry="5.67"/><rect class="cls-4" x="28.35" y="28.35" width="56.69" height="14.17" rx="5.67" ry="5.67"/><text class="cls-12" transform="translate(52.47 36.78)"><tspan x="0" y="0">Start</tspan></text><g id="Process"><rect class="cls-5" x="28.35" y="184.25" width="56.69" height="28.35"/><text class="cls-12" transform="translate(38.69 199.86)"><tspan x="0" y="0">Clean M&amp;C-scanner</tspan></text></g><g id="Process-2"><rect class="cls-5" x="283.46" y="141.73" width="56.69" height="28.35"/><text class="cls-12" transform="translate(296.69 157.34)"><tspan x="0" y="0">Clean printheads</tspan></text></g><g id="Process-3"><rect class="cls-5" x="198.43" y="340.16" width="56.69" height="28.35"/><text class="cls-12" transform="translate(210.54 355.76)"><tspan x="0" y="0">Media not suitable</tspan></text></g><path class="cls-6" d="M141.73,184.25l28.35,14.17-28.35,14.17-28.35-14.17,28.35-14.17Z"/><path d="M134.82,195.06v-2.86h2.07v.34h-1.69v.88h1.58v.34h-1.58v.97h1.76v.34h-2.14Z"/><path d="M137.44,195.06v-2.07h.32v.31c.08-.15.16-.24.22-.29s.14-.07.23-.07c.12,0,.24.04.36.11l-.12.33c-.09-.05-.17-.08-.26-.08-.08,0-.15.02-.21.07s-.1.11-.13.19c-.04.12-.06.26-.06.41v1.09h-.35Z"/><path d="M138.77,195.06v-2.07h.32v.31c.08-.15.16-.24.22-.29s.14-.07.23-.07c.12,0,.24.04.36.11l-.12.33c-.09-.05-.17-.08-.26-.08-.08,0-.15.02-.21.07s-.1.11-.13.19c-.04.12-.06.26-.06.41v1.09h-.35Z"/><path d="M139.97,194.02c0-.38.11-.67.32-.85.18-.15.4-.23.65-.23.29,0,.52.09.7.28s.27.44.27.77c0,.27-.04.48-.12.63s-.2.27-.35.36-.32.13-.5.13c-.29,0-.52-.09-.7-.28s-.27-.45-.27-.8ZM140.33,194.02c0,.27.06.46.17.6s.26.2.44.2.32-.07.44-.2.17-.34.17-.61c0-.26-.06-.45-.17-.58s-.26-.2-.43-.2-.32.07-.44.2-.17.33-.17.6Z"/><path d="M142.32,195.06v-2.07h.32v.31c.08-.15.16-.24.22-.29s.14-.07.23-.07c.12,0,.24.04.36.11l-.12.33c-.09-.05-.17-.08-.26-.08-.08,0-.15.02-.21.07s-.1.11-.13.19c-.04.12-.06.26-.06.41v1.09h-.35Z"/><path d="M144.64,194.02c0-.38.11-.67.32-.85.18-.15.4-.23.65-.23.29,0,.52.09.7.28s.27.44.27.77c0,.27-.04.48-.12.63s-.2.27-.35.36-.32.13-.5.13c-.29,0-.52-.09-.7-.28s-.27-.45-.27-.8ZM145,194.02c0,.27.06.46.17.6s.26.2.44.2.32-.07.44-.2.17-.34.17-.61c0-.26-.06-.45-.17-.58s-.26-.2-.43-.2-.32.07-.44.2-.17.33-.17.6Z"/><path d="M147,195.06v-2.07h.32v.29c.15-.23.37-.34.66-.34.12,0,.24.02.34.07s.18.1.24.18.09.16.11.26c.01.06.02.18.02.34v1.28h-.35v-1.26c0-.14-.01-.25-.04-.32s-.08-.13-.15-.17-.15-.06-.25-.06c-.15,0-.28.05-.39.14s-.16.28-.16.54v1.13h-.35Z"/><path d="M129.64,198.82c0-.38.11-.67.32-.85.18-.15.4-.23.65-.23.29,0,.52.09.7.28s.27.44.27.77c0,.27-.04.48-.12.63s-.2.27-.35.36-.32.13-.5.13c-.29,0-.52-.09-.7-.28s-.27-.45-.27-.8ZM130,198.82c0,.27.06.46.17.6s.26.2.44.2.32-.07.44-.2.17-.34.17-.61c0-.26-.06-.45-.17-.58s-.26-.2-.43-.2-.32.07-.44.2-.17.33-.17.6Z"/><path d="M132.76,199.54l.05.31c-.1.02-.19.03-.27.03-.13,0-.23-.02-.3-.06s-.12-.09-.15-.16-.04-.2-.04-.42v-1.19h-.26v-.27h.26v-.51l.35-.21v.72h.35v.27h-.35v1.21c0,.1,0,.16.02.19s.03.05.06.07.07.03.12.03c.04,0,.09,0,.15-.01Z"/><path d="M133.1,199.86v-2.86h.35v1.03c.16-.19.37-.29.62-.29.15,0,.29.03.4.09s.19.14.24.25.07.26.07.46v1.31h-.35v-1.31c0-.18-.04-.3-.11-.38s-.18-.12-.32-.12c-.1,0-.2.03-.29.08s-.16.13-.2.22-.06.22-.06.38v1.13h-.35Z"/><path d="M136.75,199.19l.36.04c-.06.21-.16.38-.32.49s-.35.18-.59.18c-.3,0-.54-.09-.72-.28s-.27-.45-.27-.79.09-.62.27-.81.41-.29.7-.29.5.09.68.28.26.45.26.8c0,.02,0,.05,0,.09h-1.55c.01.23.08.4.19.52s.26.18.43.18c.13,0,.24-.03.33-.1s.16-.18.22-.32ZM135.59,198.62h1.16c-.02-.17-.06-.31-.13-.39-.11-.14-.26-.2-.44-.2-.16,0-.3.05-.41.16s-.17.25-.18.43Z"/><path d="M137.55,199.86v-2.07h.32v.31c.08-.15.16-.24.22-.29s.14-.07.23-.07c.12,0,.24.04.36.11l-.12.33c-.09-.05-.17-.08-.26-.08-.08,0-.15.02-.21.07s-.1.11-.13.19c-.04.12-.06.26-.06.41v1.09h-.35Z"/><path d="M140,199.86v-2.07h.31v.29c.06-.1.15-.18.26-.25s.23-.09.37-.09c.15,0,.28.03.38.1s.17.15.21.27c.16-.24.38-.36.64-.36.21,0,.36.06.47.17s.17.29.17.53v1.42h-.35v-1.31c0-.14-.01-.24-.03-.3s-.06-.11-.12-.15-.13-.06-.21-.06c-.15,0-.27.05-.36.15s-.14.25-.14.47v1.21h-.35v-1.35c0-.16-.03-.27-.09-.35s-.15-.12-.28-.12c-.1,0-.19.03-.27.08s-.15.13-.18.23-.06.24-.06.43v1.08h-.35Z"/><path d="M144.75,199.19l.36.04c-.06.21-.16.38-.32.49s-.35.18-.59.18c-.3,0-.54-.09-.72-.28s-.27-.45-.27-.79.09-.62.27-.81.41-.29.7-.29.5.09.68.28.26.45.26.8c0,.02,0,.05,0,.09h-1.55c.01.23.08.4.19.52s.26.18.43.18c.13,0,.24-.03.33-.1s.16-.18.22-.32ZM143.59,198.62h1.16c-.02-.17-.06-.31-.13-.39-.11-.14-.26-.2-.44-.2-.16,0-.3.05-.41.16s-.17.25-.18.43Z"/><path d="M146.9,199.86v-.26c-.13.21-.32.31-.58.31-.17,0-.32-.05-.46-.14s-.25-.22-.32-.38-.11-.35-.11-.56.03-.4.1-.56.17-.3.31-.39.29-.13.46-.13c.12,0,.24.03.33.08s.18.12.24.21v-1.03h.35v2.86h-.33ZM145.79,198.82c0,.27.06.46.17.6s.24.2.4.2.28-.06.39-.19.16-.32.16-.58c0-.28-.05-.49-.16-.62s-.24-.2-.4-.2-.29.06-.39.19-.16.33-.16.6Z"/><path d="M147.78,197.4v-.4h.35v.4h-.35ZM147.78,199.86v-2.07h.35v2.07h-.35Z"/><path d="M150.02,199.6c-.13.11-.26.19-.38.23s-.25.07-.39.07c-.23,0-.4-.06-.53-.17s-.18-.25-.18-.43c0-.1.02-.19.07-.28s.11-.15.18-.2.16-.09.25-.12c.07-.02.17-.04.31-.05.28-.03.49-.07.63-.12,0-.05,0-.08,0-.09,0-.14-.03-.24-.1-.3-.09-.08-.22-.12-.4-.12-.17,0-.29.03-.37.09s-.14.16-.17.31l-.34-.05c.03-.15.08-.27.15-.36s.18-.16.31-.21.29-.07.47-.07.32.02.43.06.19.09.24.16.09.14.11.24c.01.06.02.17.02.32v.47c0,.33,0,.53.02.62s.04.17.09.25h-.37c-.04-.07-.06-.16-.07-.26ZM149.99,198.82c-.13.05-.32.1-.57.13-.14.02-.25.04-.31.07s-.11.06-.14.11-.05.11-.05.17c0,.09.04.17.11.23s.17.09.31.09.26-.03.36-.09.18-.14.23-.24c.04-.08.06-.2.06-.35v-.13Z"/><path d="M152.66,199.15s0-.08,0-.11c0-.14.02-.26.06-.36.03-.08.07-.15.14-.23.05-.06.13-.14.25-.25s.2-.19.24-.26.05-.13.05-.21c0-.14-.05-.26-.16-.36s-.24-.16-.39-.16-.27.05-.38.14-.17.24-.2.44l-.36-.04c.03-.27.13-.47.29-.61s.37-.21.64-.21c.28,0,.5.08.67.23s.25.34.25.55c0,.12-.03.24-.09.35s-.17.23-.34.38c-.11.1-.19.18-.22.22s-.06.1-.08.17-.03.16-.03.3h-.34ZM152.64,199.86v-.4h.4v.4h-.4Z"/><path class="cls-6" d="M141.73,297.64l28.35,14.17-28.35,14.17-28.35-14.17,28.35-14.17Z"/><text class="cls-12" transform="translate(129.51 310.84)"><tspan x="0" y="0">M&amp;C-scanner </tspan><tspan x="4.45" y="4.8">correct ?</tspan></text><g id="Process-4"><rect class="cls-5" x="113.39" y="255.12" width="56.69" height="28.35"/><text class="cls-12" transform="translate(131.51 270.72)"><tspan x="0" y="0">Check ruler</tspan></text></g><g id="Process-5"><rect class="cls-5" x="283.46" y="255.12" width="56.69" height="28.35"/><text class="cls-12" transform="translate(294.58 270.72)"><tspan x="0" y="0">Replace printheads</tspan></text></g><rect class="cls-8" x="198.43" y="425.2" width="56.69" height="14.17" rx="5.67" ry="5.67"/><rect class="cls-4" x="198.43" y="425.2" width="56.69" height="14.17" rx="5.67" ry="5.67"/><text class="cls-12" transform="translate(223.21 433.63)"><tspan x="0" y="0">End</tspan></text><rect class="cls-8" x="283.46" y="425.2" width="56.69" height="14.17" rx="5.67" ry="5.67"/><rect class="cls-4" x="283.46" y="425.2" width="56.69" height="14.17" rx="5.67" ry="5.67"/><text class="cls-12" transform="translate(308.25 433.63)"><tspan x="0" y="0">End</tspan></text><path class="cls-6" d="M396.85,99.21l28.35,14.17-28.35,14.17-28.35-14.17,28.35-14.17Z"/><path d="M387.18,112.42v-2.53h-.94v-.34h2.27v.34h-.95v2.53h-.38Z"/><path d="M388.7,112.42v-2.07h.32v.31c.08-.15.16-.24.22-.29s.14-.07.23-.07c.12,0,.24.04.36.11l-.12.33c-.09-.05-.17-.08-.26-.08-.08,0-.15.02-.21.07s-.1.11-.13.19c-.04.12-.06.26-.06.41v1.09h-.35Z"/><path d="M391.39,112.16c-.13.11-.26.19-.38.23s-.25.07-.39.07c-.23,0-.4-.06-.53-.17s-.18-.25-.18-.43c0-.1.02-.19.07-.28s.11-.15.18-.2.16-.09.25-.12c.07-.02.17-.04.31-.05.28-.03.49-.07.63-.12,0-.05,0-.08,0-.09,0-.14-.03-.24-.1-.3-.09-.08-.22-.12-.4-.12-.17,0-.29.03-.37.09s-.14.16-.17.31l-.34-.05c.03-.15.08-.27.15-.36s.18-.16.31-.21.29-.07.47-.07.32.02.43.06.19.09.24.16.09.14.11.24c.01.06.02.17.02.32v.47c0,.33,0,.53.02.62s.04.17.09.25h-.37c-.04-.07-.06-.16-.07-.26ZM391.36,111.38c-.13.05-.32.1-.57.13-.14.02-.25.04-.31.07s-.11.06-.14.11-.05.11-.05.17c0,.09.04.17.11.23s.17.09.31.09.26-.03.36-.09.18-.14.23-.24c.04-.08.06-.2.06-.35v-.13Z"/><path d="M392.26,112.42v-2.07h.32v.29c.15-.23.37-.34.66-.34.12,0,.24.02.34.07s.18.1.24.18.09.16.11.26c.01.06.02.18.02.34v1.28h-.35v-1.26c0-.14-.01-.25-.04-.32s-.08-.13-.15-.17-.15-.06-.25-.06c-.15,0-.28.05-.39.14s-.16.28-.16.54v1.13h-.35Z"/><path d="M394.34,111.8l.35-.05c.02.14.07.25.16.32s.21.11.37.11.28-.03.36-.1.12-.14.12-.23c0-.08-.03-.14-.1-.19-.05-.03-.17-.07-.36-.12-.26-.06-.44-.12-.54-.17s-.18-.11-.23-.2-.08-.18-.08-.28c0-.09.02-.18.06-.26s.1-.14.17-.2c.05-.04.13-.07.22-.1s.2-.04.3-.04c.16,0,.31.02.43.07s.21.11.27.19.1.19.12.32l-.34.05c-.02-.11-.06-.19-.14-.25s-.18-.09-.32-.09c-.16,0-.28.03-.35.08s-.1.12-.1.19c0,.05.01.09.04.12.03.04.07.07.13.09.04.01.14.04.31.09.25.07.42.12.52.16s.18.1.23.18.08.18.08.3-.03.23-.1.33-.17.18-.3.24-.27.08-.44.08c-.27,0-.48-.06-.62-.17s-.23-.28-.27-.5Z"/><path d="M396.48,113.21v-2.87h.32v.27c.08-.11.16-.18.26-.24s.21-.08.35-.08c.18,0,.33.05.47.14s.24.22.31.39.1.35.1.55c0,.21-.04.4-.11.57s-.19.3-.33.39-.3.14-.46.14c-.12,0-.22-.02-.32-.07s-.17-.11-.23-.19v1.01h-.35ZM396.8,111.39c0,.27.05.46.16.59s.24.19.39.19.29-.07.4-.2.17-.34.17-.61-.05-.46-.16-.59-.24-.2-.39-.2-.28.07-.4.21-.17.34-.17.61Z"/><path d="M400.06,112.16c-.13.11-.26.19-.38.23s-.25.07-.39.07c-.23,0-.4-.06-.53-.17s-.18-.25-.18-.43c0-.1.02-.19.07-.28s.11-.15.18-.2.16-.09.25-.12c.07-.02.17-.04.31-.05.28-.03.49-.07.63-.12,0-.05,0-.08,0-.09,0-.14-.03-.24-.1-.3-.09-.08-.22-.12-.4-.12-.17,0-.29.03-.37.09s-.14.16-.17.31l-.34-.05c.03-.15.08-.27.15-.36s.18-.16.31-.21.29-.07.47-.07.32.02.43.06.19.09.24.16.09.14.11.24c.01.06.02.17.02.32v.47c0,.33,0,.53.02.62s.04.17.09.25h-.37c-.04-.07-.06-.16-.07-.26ZM400.03,111.38c-.13.05-.32.1-.57.13-.14.02-.25.04-.31.07s-.11.06-.14.11-.05.11-.05.17c0,.09.04.17.11.23s.17.09.31.09.26-.03.36-.09.18-.14.23-.24c.04-.08.06-.2.06-.35v-.13Z"/><path d="M400.93,112.42v-2.07h.32v.31c.08-.15.16-.24.22-.29s.14-.07.23-.07c.12,0,.24.04.36.11l-.12.33c-.09-.05-.17-.08-.26-.08-.08,0-.15.02-.21.07s-.1.11-.13.19c-.04.12-.06.26-.06.41v1.09h-.35Z"/><path d="M403.68,111.75l.36.04c-.06.21-.16.38-.32.49s-.35.18-.59.18c-.3,0-.54-.09-.72-.28s-.27-.45-.27-.79.09-.62.27-.81.41-.29.7-.29.5.09.68.28.26.45.26.8c0,.02,0,.05,0,.09h-1.55c.01.23.08.4.19.52s.26.18.43.18c.13,0,.24-.03.33-.1s.16-.18.22-.32ZM402.53,111.18h1.16c-.02-.17-.06-.31-.13-.39-.11-.14-.26-.2-.44-.2-.16,0-.3.05-.41.16s-.17.25-.18.43Z"/><path d="M404.49,112.42v-2.07h.32v.29c.15-.23.37-.34.66-.34.12,0,.24.02.34.07s.18.1.24.18.09.16.11.26c.01.06.02.18.02.34v1.28h-.35v-1.26c0-.14-.01-.25-.04-.32s-.08-.13-.15-.17-.15-.06-.25-.06c-.15,0-.28.05-.39.14s-.16.28-.16.54v1.13h-.35Z"/><path d="M407.48,112.1l.05.31c-.1.02-.19.03-.27.03-.13,0-.23-.02-.3-.06s-.12-.09-.15-.16-.04-.2-.04-.42v-1.19h-.26v-.27h.26v-.51l.35-.21v.72h.35v.27h-.35v1.21c0,.1,0,.16.02.19s.03.05.06.07.07.03.12.03c.04,0,.09,0,.15-.01Z"/><path d="M390,117.22v-2.07h.31v.29c.06-.1.15-.18.26-.25s.23-.09.37-.09c.15,0,.28.03.38.1s.17.15.21.27c.16-.24.38-.36.64-.36.21,0,.36.06.47.17s.17.29.17.53v1.42h-.35v-1.31c0-.14-.01-.24-.03-.3s-.06-.11-.12-.15-.13-.06-.21-.06c-.15,0-.27.05-.36.15s-.14.25-.14.47v1.21h-.35v-1.35c0-.16-.03-.27-.09-.35s-.15-.12-.28-.12c-.1,0-.19.03-.27.08s-.15.13-.18.23-.06.24-.06.43v1.08h-.35Z"/><path d="M394.75,116.55l.36.04c-.06.21-.16.38-.32.49s-.35.18-.59.18c-.3,0-.54-.09-.72-.28s-.27-.45-.27-.79.09-.62.27-.81.41-.29.7-.29.5.09.68.28.26.45.26.8c0,.02,0,.05,0,.09h-1.55c.01.23.08.4.19.52s.26.18.43.18c.13,0,.24-.03.33-.1s.16-.18.22-.32ZM393.6,115.98h1.16c-.02-.17-.06-.31-.13-.39-.11-.14-.26-.2-.44-.2-.16,0-.3.05-.41.16s-.17.25-.18.43Z"/><path d="M396.9,117.22v-.26c-.13.21-.32.31-.58.31-.17,0-.32-.05-.46-.14s-.25-.22-.32-.38-.11-.35-.11-.56.03-.4.1-.56.17-.3.31-.39.29-.13.46-.13c.12,0,.24.03.33.08s.18.12.24.21v-1.03h.35v2.86h-.33ZM395.79,116.18c0,.27.06.46.17.6s.24.2.4.2.28-.06.39-.19.16-.32.16-.58c0-.28-.05-.49-.16-.62s-.24-.2-.4-.2-.29.06-.39.19-.16.33-.16.6Z"/><path d="M397.78,114.76v-.4h.35v.4h-.35ZM397.78,117.22v-2.07h.35v2.07h-.35Z"/><path d="M400.02,116.96c-.13.11-.26.19-.38.23s-.25.07-.39.07c-.23,0-.4-.06-.53-.17s-.18-.25-.18-.43c0-.1.02-.19.07-.28s.11-.15.18-.2.16-.09.25-.12c.07-.02.17-.04.31-.05.28-.03.49-.07.63-.12,0-.05,0-.08,0-.09,0-.14-.03-.24-.1-.3-.09-.08-.22-.12-.4-.12-.17,0-.29.03-.37.09s-.14.16-.17.31l-.34-.05c.03-.15.08-.27.15-.36s.18-.16.31-.21.29-.07.47-.07.32.02.43.06.19.09.24.16.09.14.11.24c.01.06.02.17.02.32v.47c0,.33,0,.53.02.62s.04.17.09.25h-.37c-.04-.07-.06-.16-.07-.26ZM399.99,116.18c-.13.05-.32.1-.57.13-.14.02-.25.04-.31.07s-.11.06-.14.11-.05.11-.05.17c0,.09.04.17.11.23s.17.09.31.09.26-.03.36-.09.18-.14.23-.24c.04-.08.06-.2.06-.35v-.13Z"/><path d="M402.66,116.51s0-.08,0-.11c0-.14.02-.26.06-.36.03-.08.07-.15.14-.23.05-.06.13-.14.25-.25s.2-.19.24-.26.05-.13.05-.21c0-.14-.05-.26-.16-.36s-.24-.16-.39-.16-.27.05-.38.14-.17.24-.2.44l-.36-.04c.03-.27.13-.47.29-.61s.37-.21.64-.21c.28,0,.5.08.67.23s.25.34.25.55c0,.12-.03.24-.09.35s-.17.23-.34.38c-.11.1-.19.18-.22.22s-.06.1-.08.17-.03.16-.03.3h-.34ZM402.64,117.22v-.4h.4v.4h-.4Z"/><rect class="cls-8" x="453.54" y="184.25" width="56.69" height="14.17" rx="5.67" ry="5.67"/><rect class="cls-4" x="453.54" y="184.25" width="56.69" height="14.17" rx="5.67" ry="5.67"/><text class="cls-12" transform="translate(478.33 192.69)"><tspan x="0" y="0">End</tspan></text><rect class="cls-8" x="368.5" y="184.25" width="56.69" height="14.17" rx="5.67" ry="5.67"/><rect class="cls-4" x="368.5" y="184.25" width="56.69" height="14.17" rx="5.67" ry="5.67"/><text class="cls-12" transform="translate(393.29 192.69)"><tspan x="0" y="0">End</tspan></text><rect class="cls-8" x="28.35" y="226.77" width="56.69" height="14.17" rx="5.67" ry="5.67"/><rect class="cls-4" x="28.35" y="226.77" width="56.69" height="14.17" rx="5.67" ry="5.67"/><text class="cls-12" transform="translate(53.13 235.21)"><tspan x="0" y="0">End</tspan></text><g id="Process-6"><rect class="cls-5" x="368.5" y="141.73" width="56.69" height="28.35"/><text class="cls-12" transform="translate(379.85 157.34)"><tspan x="0" y="0">Use White markers</tspan></text></g><g id="Process-7"><rect class="cls-5" x="453.54" y="141.73" width="56.69" height="28.35"/><text class="cls-12" transform="translate(465.11 157.34)"><tspan x="0" y="0">Use Black markers</tspan></text></g><path class="cls-6" d="M56.69,99.21l28.35,14.17-28.35,14.17-28.35-14.17,28.35-14.17Z"/><text class="cls-12" transform="translate(43.13 112.42)"><tspan x="0" y="0">Markers printed </tspan><tspan x="2.67" y="4.8">completely ?</tspan></text><path class="cls-6" d="M56.69,141.73l28.35,14.17-28.35,14.17-28.35-14.17,28.35-14.17Z"/><text class="cls-12" transform="translate(43.35 157.34)"><tspan x="0" y="0">M&amp;C polluted ?</tspan></text><g id="Process-8"><rect class="cls-5" x="113.39" y="340.16" width="56.69" height="28.35"/><text class="cls-12" transform="translate(121.61 355.76)"><tspan x="0" y="0">Replace M&amp;C-scanner</tspan></text></g><g id="Process-9"><rect class="cls-5" x="113.39" y="382.68" width="56.69" height="28.35"/><text class="cls-12" transform="translate(125.84 398.28)"><tspan x="0" y="0">Reset calibrations</tspan></text></g></g><g id="Lines"><line class="cls-8" x1="56.69" y1="42.52" x2="56.69" y2="56.69"/><line class="cls-3" x1="56.69" y1="42.52" x2="56.69" y2="54.43"/><path d="M56.69,56.69c-.4-1.06-1.07-2.39-1.78-3.21l1.78.65,1.78-.65c-.71.82-1.39,2.14-1.78,3.21Z"/><polyline class="cls-3" points="85.04 113.39 311.81 113.39 311.81 139.47"/><path d="M311.81,141.73c-.4-1.06-1.07-2.39-1.78-3.21l1.78.65,1.78-.65c-.71.82-1.39,2.14-1.78,3.21Z"/><path class="cls-1" d="M97.09,113.39c0,1.56-1.28,2.83-2.83,2.83h-4.25c-1.56,0-2.83-1.28-2.83-2.83h0c0-1.56,1.28-2.83,2.83-2.83h4.25c1.56,0,2.83,1.28,2.83,2.83h0Z"/><path class="cls-4" d="M97.09,113.39c0,1.56-1.28,2.83-2.83,2.83h-4.25c-1.56,0-2.83-1.28-2.83-2.83h0c0-1.56,1.28-2.83,2.83-2.83h4.25c1.56,0,2.83,1.28,2.83,2.83h0Z"/><text class="cls-12" transform="translate(89.57 114.88)"><tspan x="0" y="0">No</tspan></text><polyline class="cls-3" points="85.04 155.91 141.73 155.91 141.73 181.99"/><path d="M141.73,184.25c-.4-1.06-1.07-2.39-1.78-3.21l1.78.65,1.78-.65c-.71.82-1.39,2.14-1.78,3.21Z"/><path class="cls-1" d="M97.09,155.91c0,1.56-1.28,2.83-2.83,2.83h-4.25c-1.56,0-2.83-1.28-2.83-2.83h0c0-1.56,1.28-2.83,2.83-2.83h4.25c1.56,0,2.83,1.28,2.83,2.83h0Z"/><path class="cls-4" d="M97.09,155.91c0,1.56-1.28,2.83-2.83,2.83h-4.25c-1.56,0-2.83-1.28-2.83-2.83h0c0-1.56,1.28-2.83,2.83-2.83h4.25c1.56,0,2.83,1.28,2.83,2.83h0Z"/><text class="cls-12" transform="translate(89.57 157.4)"><tspan x="0" y="0">No</tspan></text><polyline class="cls-3" points="85.04 70.87 396.85 70.87 396.85 96.95"/><path d="M396.85,99.21c-.4-1.06-1.07-2.39-1.78-3.21l1.78.65,1.78-.65c-.71.82-1.39,2.14-1.78,3.21Z"/><path class="cls-1" d="M97.09,70.87c0,1.56-1.28,2.83-2.83,2.83h-4.25c-1.56,0-2.83-1.28-2.83-2.83h0c0-1.56,1.28-2.83,2.83-2.83h4.25c1.56,0,2.83,1.28,2.83,2.83h0Z"/><path class="cls-4" d="M97.09,70.87c0,1.56-1.28,2.83-2.83,2.83h-4.25c-1.56,0-2.83-1.28-2.83-2.83h0c0-1.56,1.28-2.83,2.83-2.83h4.25c1.56,0,2.83,1.28,2.83,2.83h0Z"/><text class="cls-12" transform="translate(89.57 72.36)"><tspan x="0" y="0">No</tspan></text><line class="cls-8" x1="56.69" y1="85.04" x2="56.69" y2="99.21"/><line class="cls-3" x1="56.69" y1="85.04" x2="56.69" y2="96.95"/><path d="M56.69,99.21c-.4-1.06-1.07-2.39-1.78-3.21l1.78.65,1.78-.65c-.71.82-1.39,2.14-1.78,3.21Z"/><line class="cls-8" x1="56.69" y1="127.56" x2="56.69" y2="141.73"/><line class="cls-3" x1="56.69" y1="127.56" x2="56.69" y2="139.47"/><path d="M56.69,141.73c-.4-1.06-1.07-2.39-1.78-3.21l1.78.65,1.78-.65c-.71.82-1.39,2.14-1.78,3.21Z"/><path class="cls-1" d="M61.65,133.23c0,1.56-1.28,2.83-2.83,2.83h-4.25c-1.56,0-2.83-1.28-2.83-2.83s1.28-2.83,2.83-2.83h4.25c1.56,0,2.83,1.28,2.83,2.83Z"/><path class="cls-4" d="M61.65,133.23c0,1.56-1.28,2.83-2.83,2.83h-4.25c-1.56,0-2.83-1.28-2.83-2.83s1.28-2.83,2.83-2.83h4.25c1.56,0,2.83,1.28,2.83,2.83Z"/><text class="cls-12" transform="translate(53.43 134.72)"><tspan class="cls-13" x="0" y="0">Y</tspan><tspan x="2.3" y="0">es</tspan></text><path class="cls-1" d="M61.65,90.71c0,1.56-1.28,2.83-2.83,2.83h-4.25c-1.56,0-2.83-1.28-2.83-2.83s1.28-2.83,2.83-2.83h4.25c1.56,0,2.83,1.28,2.83,2.83Z"/><path class="cls-4" d="M61.65,90.71c0,1.56-1.28,2.83-2.83,2.83h-4.25c-1.56,0-2.83-1.28-2.83-2.83s1.28-2.83,2.83-2.83h4.25c1.56,0,2.83,1.28,2.83,2.83Z"/><text class="cls-12" transform="translate(53.43 92.2)"><tspan class="cls-13" x="0" y="0">Y</tspan><tspan x="2.3" y="0">es</tspan></text><line class="cls-8" x1="56.69" y1="170.08" x2="56.69" y2="184.25"/><line class="cls-3" x1="56.69" y1="170.08" x2="56.69" y2="181.99"/><path d="M56.69,184.25c-.4-1.06-1.07-2.39-1.78-3.21l1.78.65,1.78-.65c-.71.82-1.39,2.14-1.78,3.21Z"/><line class="cls-8" x1="397.56" y1="127.56" x2="397.56" y2="141.73"/><line class="cls-3" x1="397.56" y1="127.56" x2="397.56" y2="139.47"/><path d="M397.56,141.73c-.4-1.06-1.07-2.39-1.78-3.21l1.78.65,1.78-.65c-.71.82-1.39,2.14-1.78,3.21Z"/><path class="cls-1" d="M402.52,133.23c0,1.56-1.28,2.83-2.83,2.83h-4.25c-1.56,0-2.83-1.28-2.83-2.83s1.28-2.83,2.83-2.83h4.25c1.56,0,2.83,1.28,2.83,2.83Z"/><path class="cls-4" d="M402.52,133.23c0,1.56-1.28,2.83-2.83,2.83h-4.25c-1.56,0-2.83-1.28-2.83-2.83s1.28-2.83,2.83-2.83h4.25c1.56,0,2.83,1.28,2.83,2.83Z"/><text class="cls-12" transform="translate(394.3 134.72)"><tspan class="cls-13" x="0" y="0">Y</tspan><tspan x="2.3" y="0">es</tspan></text><line class="cls-8" x1="141.73" y1="325.98" x2="141.73" y2="340.16"/><line class="cls-3" x1="141.73" y1="325.98" x2="141.73" y2="337.89"/><path d="M141.73,340.16c-.4-1.06-1.07-2.39-1.78-3.21l1.78.65,1.78-.65c-.71.82-1.39,2.14-1.78,3.21Z"/><line class="cls-8" x1="226.77" y1="368.5" x2="226.77" y2="425.2"/><line class="cls-3" x1="226.77" y1="368.5" x2="226.77" y2="422.93"/><path d="M226.77,425.2c-.4-1.06-1.07-2.39-1.78-3.21l1.78.65,1.78-.65c-.71.82-1.39,2.14-1.78,3.21Z"/><line class="cls-8" x1="311.81" y1="283.46" x2="311.81" y2="425.2"/><line class="cls-3" x1="311.81" y1="283.46" x2="311.81" y2="422.93"/><path d="M311.81,425.2c-.4-1.06-1.07-2.39-1.78-3.21l1.78.65,1.78-.65c-.71.82-1.39,2.14-1.78,3.21Z"/><line class="cls-8" x1="481.89" y1="170.08" x2="481.89" y2="184.25"/><line class="cls-3" x1="481.89" y1="170.08" x2="481.89" y2="181.99"/><path d="M481.89,184.25c-.4-1.06-1.07-2.39-1.78-3.21l1.78.65,1.78-.65c-.71.82-1.39,2.14-1.78,3.21Z"/><line class="cls-8" x1="396.85" y1="170.08" x2="396.85" y2="184.25"/><line class="cls-3" x1="396.85" y1="170.08" x2="396.85" y2="181.99"/><path d="M396.85,184.25c-.4-1.06-1.07-2.39-1.78-3.21l1.78.65,1.78-.65c-.71.82-1.39,2.14-1.78,3.21Z"/><line class="cls-8" x1="56.69" y1="212.6" x2="56.69" y2="226.77"/><line class="cls-3" x1="56.69" y1="212.6" x2="56.69" y2="224.51"/><path d="M56.69,226.77c-.4-1.06-1.07-2.39-1.78-3.21l1.78.65,1.78-.65c-.71.82-1.39,2.14-1.78,3.21Z"/><polyline class="cls-3" points="425.2 113.39 481.89 113.39 481.89 139.47"/><path d="M481.89,141.73c-.4-1.06-1.07-2.39-1.78-3.21l1.78.65,1.78-.65c-.71.82-1.39,2.14-1.78,3.21Z"/><path class="cls-1" d="M437.24,113.39c0,1.56-1.28,2.83-2.83,2.83h-4.25c-1.56,0-2.83-1.28-2.83-2.83h0c0-1.56,1.28-2.83,2.83-2.83h4.25c1.56,0,2.83,1.28,2.83,2.83h0Z"/><path class="cls-4" d="M437.24,113.39c0,1.56-1.28,2.83-2.83,2.83h-4.25c-1.56,0-2.83-1.28-2.83-2.83h0c0-1.56,1.28-2.83,2.83-2.83h4.25c1.56,0,2.83,1.28,2.83,2.83h0Z"/><text class="cls-12" transform="translate(429.73 114.88)"><tspan x="0" y="0">No</tspan></text><polyline class="cls-3" points="170.08 198.42 226.77 198.42 226.77 309.55"/><path d="M226.77,311.81c-.4-1.06-1.07-2.39-1.78-3.21l1.78.65,1.78-.65c-.71.82-1.39,2.14-1.78,3.21Z"/><path class="cls-1" d="M182.13,198.43c0,1.56-1.28,2.83-2.83,2.83h-4.25c-1.56,0-2.83-1.28-2.83-2.83h0c0-1.56,1.28-2.83,2.83-2.83h4.25c1.56,0,2.83,1.28,2.83,2.83h0Z"/><path class="cls-4" d="M182.13,198.43c0,1.56-1.28,2.83-2.83,2.83h-4.25c-1.56,0-2.83-1.28-2.83-2.83h0c0-1.56,1.28-2.83,2.83-2.83h4.25c1.56,0,2.83,1.28,2.83,2.83h0Z"/><text class="cls-12" transform="translate(174.61 199.92)"><tspan x="0" y="0">No</tspan></text><polyline class="cls-3" points="170.08 311.81 226.77 311.81 226.77 337.89"/><path d="M226.77,340.16c-.4-1.06-1.07-2.39-1.78-3.21l1.78.65,1.78-.65c-.71.82-1.39,2.14-1.78,3.21Z"/><path class="cls-1" d="M146.69,331.65c0,1.56-1.28,2.83-2.83,2.83h-4.25c-1.56,0-2.83-1.28-2.83-2.83h0c0-1.56,1.28-2.83,2.83-2.83h4.25c1.56,0,2.83,1.28,2.83,2.83h0Z"/><path class="cls-4" d="M146.69,331.65c0,1.56-1.28,2.83-2.83,2.83h-4.25c-1.56,0-2.83-1.28-2.83-2.83h0c0-1.56,1.28-2.83,2.83-2.83h4.25c1.56,0,2.83,1.28,2.83,2.83h0Z"/><text class="cls-12" transform="translate(139.18 333.15)"><tspan x="0" y="0">No</tspan></text><line class="cls-8" x1="141.73" y1="212.6" x2="141.73" y2="255.12"/><line class="cls-3" x1="141.73" y1="212.6" x2="141.73" y2="252.85"/><path d="M141.73,255.12c-.4-1.06-1.07-2.39-1.78-3.21l1.78.65,1.78-.65c-.71.82-1.39,2.14-1.78,3.21Z"/><line class="cls-8" x1="311.81" y1="170.08" x2="311.81" y2="255.12"/><line class="cls-3" x1="311.81" y1="170.08" x2="311.81" y2="252.85"/><path d="M311.81,255.12c-.4-1.06-1.07-2.39-1.78-3.21l1.78.65,1.78-.65c-.71.82-1.39,2.14-1.78,3.21Z"/><path class="cls-1" d="M146.69,218.27c0,1.56-1.28,2.83-2.83,2.83h-4.25c-1.56,0-2.83-1.28-2.83-2.83s1.28-2.83,2.83-2.83h4.25c1.56,0,2.83,1.28,2.83,2.83Z"/><path class="cls-4" d="M146.69,218.27c0,1.56-1.28,2.83-2.83,2.83h-4.25c-1.56,0-2.83-1.28-2.83-2.83s1.28-2.83,2.83-2.83h4.25c1.56,0,2.83,1.28,2.83,2.83Z"/><text class="cls-12" transform="translate(138.47 219.76)"><tspan class="cls-13" x="0" y="0">Y</tspan><tspan x="2.3" y="0">es</tspan></text><line class="cls-8" x1="141.73" y1="283.46" x2="141.73" y2="297.64"/><line class="cls-3" x1="141.73" y1="283.46" x2="141.73" y2="295.37"/><path d="M141.73,297.64c-.4-1.06-1.07-2.39-1.78-3.21l1.78.65,1.78-.65c-.71.82-1.39,2.14-1.78,3.21Z"/><path class="cls-1" d="M182.83,311.81c0,1.56-1.28,2.83-2.83,2.83h-4.25c-1.56,0-2.83-1.28-2.83-2.83h0c0-1.56,1.28-2.83,2.83-2.83h4.25c1.56,0,2.83,1.28,2.83,2.83h0Z"/><path class="cls-4" d="M182.83,311.81c0,1.56-1.28,2.83-2.83,2.83h-4.25c-1.56,0-2.83-1.28-2.83-2.83h0c0-1.56,1.28-2.83,2.83-2.83h4.25c1.56,0,2.83,1.28,2.83,2.83h0Z"/><text class="cls-12" transform="translate(174.61 313.3)"><tspan class="cls-13" x="0" y="0">Y</tspan><tspan x="2.3" y="0">es</tspan></text><line class="cls-8" x1="141.73" y1="368.5" x2="141.73" y2="382.68"/><line class="cls-3" x1="141.73" y1="368.5" x2="141.73" y2="380.41"/><path d="M141.73,382.68c-.4-1.06-1.07-2.39-1.78-3.21l1.78.65,1.78-.65c-.71.82-1.39,2.14-1.78,3.21Z"/><rect class="cls-8" x="113.39" y="425.2" width="56.69" height="14.17" rx="5.67" ry="5.67"/><rect class="cls-4" x="113.39" y="425.2" width="56.69" height="14.17" rx="5.67" ry="5.67"/><text class="cls-12" transform="translate(138.17 433.63)"><tspan x="0" y="0">End</tspan></text><line class="cls-8" x1="141.73" y1="411.02" x2="141.73" y2="425.2"/><line class="cls-3" x1="141.73" y1="411.02" x2="141.73" y2="422.93"/><path d="M141.73,425.2c-.4-1.06-1.07-2.39-1.78-3.21l1.78.65,1.78-.65c-.71.82-1.39,2.14-1.78,3.21Z"/></g><g id="Numbers"><circle class="cls-2" cx="22.68" cy="70.87" r="5.67"/><text class="cls-10" transform="translate(21.01 72.88)"><tspan x="0" y="0">1</tspan></text><circle class="cls-2" cx="362.83" cy="113.39" r="5.67"/><text class="cls-10" transform="translate(361.17 115.4)"><tspan x="0" y="0">2</tspan></text><circle class="cls-2" cx="447.87" cy="155.91" r="5.67"/><text class="cls-10" transform="translate(446.21 157.92)"><tspan x="0" y="0">4</tspan></text><circle class="cls-2" cx="362.83" cy="155.91" r="5.67"/><text class="cls-10" transform="translate(361.17 157.92)"><tspan x="0" y="0">3</tspan></text><circle class="cls-2" cx="22.68" cy="113.39" r="5.67"/><text class="cls-10" transform="translate(21.01 115.4)"><tspan x="0" y="0">5</tspan></text><circle class="cls-2" cx="22.68" cy="198.43" r="5.67"/><text class="cls-10" transform="translate(21.01 200.44)"><tspan x="0" y="0">8</tspan></text><circle class="cls-2" cx="22.68" cy="155.91" r="5.67"/><text class="cls-10" transform="translate(21.01 157.92)"><tspan x="0" y="0">7</tspan></text><circle class="cls-2" cx="192.76" cy="354.33" r="5.67"/><text class="cls-10" transform="translate(189.42 356.34)"><tspan x="0" y="0">10</tspan></text><circle class="cls-2" cx="277.8" cy="155.91" r="5.67"/><text class="cls-10" transform="translate(276.13 157.92)"><tspan x="0" y="0">6</tspan></text><circle class="cls-2" cx="107.72" cy="198.43" r="5.67"/><text class="cls-10" transform="translate(106.05 200.44)"><tspan x="0" y="0">9</tspan></text><circle class="cls-2" cx="107.72" cy="269.29" r="5.67"/><text class="cls-10" transform="translate(104.38 271.3)"><tspan x="0" y="0">12</tspan></text><circle class="cls-2" cx="107.72" cy="311.81" r="5.67"/><text class="cls-10" transform="translate(104.38 313.82)"><tspan x="0" y="0">13</tspan></text><circle class="cls-2" cx="277.8" cy="269.29" r="5.67"/><text class="cls-10" transform="translate(274.62 271.3)"><tspan class="cls-9" x="0" y="0">1</tspan><tspan x="3.01" y="0">1</tspan></text><circle class="cls-2" cx="107.72" cy="354.33" r="5.67"/><text class="cls-10" transform="translate(104.38 356.34)"><tspan x="0" y="0">14</tspan></text><circle class="cls-2" cx="107.72" cy="396.85" r="5.67"/><text class="cls-10" transform="translate(104.38 398.86)"><tspan x="0" y="0">15</tspan></text></g></svg>