<?xml version="1.0" encoding="UTF-8"?><svg xmlns="http://www.w3.org/2000/svg" viewBox="0 0 99.78 215.43"><defs><style>.cls-1,.cls-2{fill:#fff;}.cls-2,.cls-3,.cls-4,.cls-5{stroke:#000;}.cls-2,.cls-3,.cls-4,.cls-5,.cls-6{stroke-linecap:round;stroke-linejoin:round;}.cls-2,.cls-4,.cls-5,.cls-6{stroke-width:.5px;}.cls-7{fill:#ffe0b2;}.cls-8{letter-spacing:-.06em;}.cls-3{stroke-width:.25px;}.cls-3,.cls-4,.cls-6{fill:none;}.cls-9{font-size:6px;}.cls-9,.cls-10{font-family:Arial-BoldMT, Arial;font-weight:700;}.cls-5{fill:#bbdefb;}.cls-11{font-family:ArialMT, Arial;font-size:4px;}.cls-6{stroke:#e0e0e0;}.cls-10{font-size:5.79px;}</style></defs><g id="Bckground"><rect class="cls-1" width="99.78" height="215.43"/></g><g id="Frame"><rect class="cls-6" x="5.67" y="5.67" width="87.87" height="85.04"/><rect class="cls-6" x="5.67" y="90.71" width="87.87" height="119.06"/><text class="cls-10" transform="translate(8.5 13.37) scale(1.04 1)"><tspan x="0" y="0">Customer / Helpdesk</tspan></text><text class="cls-10" transform="translate(8.5 99.21) scale(1.04 1)"><tspan x="0" y="0">Engineer</tspan></text></g><g id="Blocks"><rect class="cls-7" x="28.35" y="19.84" width="56.69" height="14.17" rx="5.67" ry="5.67"/><rect class="cls-4" x="28.35" y="19.84" width="56.69" height="14.17" rx="5.67" ry="5.67"/><text class="cls-11" transform="translate(52.47 28.28)"><tspan x="0" y="0">Start</tspan></text><rect class="cls-7" x="28.35" y="189.92" width="56.69" height="14.17" rx="5.67" ry="5.67"/><rect class="cls-4" x="28.35" y="189.92" width="56.69" height="14.17" rx="5.67" ry="5.67"/><text class="cls-11" transform="translate(53.13 198.36)"><tspan x="0" y="0">End</tspan></text><g id="Process"><rect class="cls-5" x="28.35" y="48.19" width="56.69" height="28.35"/><text class="cls-11" transform="translate(42.24 63.79)"><tspan x="0" y="0">Redo calibration</tspan></text></g><g id="Process-2"><rect class="cls-5" x="28.35" y="104.88" width="56.69" height="28.35"/><text class="cls-11" transform="translate(36.24 120.49)"><tspan x="0" y="0">Execute SDS 07-6-002</tspan></text></g><g id="Process-3"><rect class="cls-5" x="28.35" y="147.4" width="56.69" height="28.35"/><text class="cls-11" transform="translate(41.24 163.01)"><tspan x="0" y="0">Escalate to </tspan><tspan class="cls-8" x="20.9" y="0">V</tspan><tspan x="23.35" y="0">enlo</tspan></text></g></g><g id="Lines"><line class="cls-7" x1="56.69" y1="34.02" x2="56.69" y2="48.19"/><line class="cls-3" x1="56.69" y1="34.02" x2="56.69" y2="45.93"/><path d="M56.69,48.19c-.4-1.06-1.07-2.39-1.78-3.21l1.78.65,1.78-.65c-.71.82-1.39,2.14-1.78,3.21Z"/><line class="cls-7" x1="56.69" y1="133.23" x2="56.69" y2="147.4"/><line class="cls-3" x1="56.69" y1="133.23" x2="56.69" y2="145.14"/><path d="M56.69,147.4c-.4-1.06-1.07-2.39-1.78-3.21l1.78.65,1.78-.65c-.71.82-1.39,2.14-1.78,3.21Z"/><line class="cls-7" x1="56.69" y1="175.75" x2="56.69" y2="189.92"/><line class="cls-3" x1="56.69" y1="175.75" x2="56.69" y2="187.66"/><path d="M56.69,189.92c-.4-1.06-1.07-2.39-1.78-3.21l1.78.65,1.78-.65c-.71.82-1.39,2.14-1.78,3.21Z"/><line class="cls-7" x1="56.69" y1="76.54" x2="56.69" y2="104.88"/><line class="cls-3" x1="56.69" y1="76.54" x2="56.69" y2="102.62"/><path d="M56.69,104.88c-.4-1.06-1.07-2.39-1.78-3.21l1.78.65,1.78-.65c-.71.82-1.39,2.14-1.78,3.21Z"/></g><g id="Numbers"><circle class="cls-2" cx="22.68" cy="62.36" r="5.67"/><text class="cls-9" transform="translate(21.01 64.37)"><tspan x="0" y="0">1</tspan></text><circle class="cls-2" cx="22.68" cy="119.06" r="5.67"/><text class="cls-9" transform="translate(21.01 121.07)"><tspan x="0" y="0">2</tspan></text><circle class="cls-2" cx="22.68" cy="161.57" r="5.67"/><text class="cls-9" transform="translate(21.01 163.59)"><tspan x="0" y="0">3</tspan></text></g></svg>