<?xml version="1.0" encoding="UTF-8"?><svg xmlns="http://www.w3.org/2000/svg" viewBox="0 0 249.73 240.69"><defs><style>.cls-1{letter-spacing:0em;}.cls-2,.cls-3{fill:#fff;}.cls-4{stroke-width:.75px;}.cls-4,.cls-5,.cls-6,.cls-7,.cls-8,.cls-9,.cls-10,.cls-11,.cls-12,.cls-3,.cls-13,.cls-14,.cls-15,.cls-16,.cls-17,.cls-18,.cls-19,.cls-20{stroke-linejoin:round;}.cls-4,.cls-6,.cls-7,.cls-9,.cls-11,.cls-13{fill:none;}.cls-4,.cls-9{stroke:#efd53a;}.cls-21{font-size:2.51px;}.cls-21,.cls-22{font-family:ArialMT, Arial;}.cls-5{fill:#00afff;}.cls-5,.cls-6,.cls-7,.cls-8,.cls-10,.cls-11,.cls-12,.cls-3,.cls-13,.cls-14,.cls-15,.cls-16,.cls-17,.cls-18,.cls-19,.cls-20{stroke-linecap:round;}.cls-5,.cls-8,.cls-10,.cls-11,.cls-12,.cls-3,.cls-13,.cls-14,.cls-15,.cls-16,.cls-17,.cls-18,.cls-19,.cls-23,.cls-20{stroke:#000;}.cls-5,.cls-8,.cls-10,.cls-12,.cls-3,.cls-13,.cls-14,.cls-15,.cls-16,.cls-17,.cls-18,.cls-19,.cls-20{stroke-width:.25px;}.cls-6{stroke:#fff;stroke-width:1.5px;}.cls-7{stroke:#231f20;}.cls-7,.cls-11{stroke-width:.5px;}.cls-8{fill:#b12e00;}.cls-9,.cls-23{stroke-width:.1px;}.cls-10{fill:#191919;}.cls-22{font-size:5px;}.cls-12{fill:#ccc188;}.cls-14{fill:#3c3c3b;}.cls-15{fill:#e0e0e0;}.cls-16{fill:#a7a7a4;}.cls-24{letter-spacing:-.06em;}.cls-17{fill:#efd53a;}.cls-18{fill:#b87333;}.cls-19{fill:#fbf5ce;}.cls-25{fill:#231f20;}.cls-23{fill:#239812;stroke-miterlimit:10;}.cls-26{fill:#ff0;}</style></defs><g id="Layer_1"><rect class="cls-2" width="249.73" height="240.69"/></g><g id="Layer_3"><g><path class="cls-23" d="m19.84,14.3v207.23h208.23V14.3H19.84Zm6.58,202.93c-1.29,0-2.33-1.04-2.33-2.33s1.04-2.33,2.33-2.33,2.33,1.04,2.33,2.33-1.04,2.33-2.33,2.33Zm0-195c-1.29,0-2.33-1.04-2.33-2.33s1.04-2.33,2.33-2.33,2.33,1.04,2.33,2.33-1.04,2.33-2.33,2.33Zm33.43,120.2c-1.29,0-2.33-1.04-2.33-2.33s1.04-2.33,2.33-2.33,2.33,1.04,2.33,2.33-1.04,2.33-2.33,2.33Zm110.19,0c-1.29,0-2.33-1.04-2.33-2.33s1.04-2.33,2.33-2.33,2.33,1.04,2.33,2.33-1.04,2.33-2.33,2.33ZM118.1,22.23c-1.29,0-2.33-1.04-2.33-2.33s1.04-2.33,2.33-2.33,2.33,1.04,2.33,2.33-1.04,2.33-2.33,2.33Zm103.78,195c-1.29,0-2.33-1.04-2.33-2.33s1.04-2.33,2.33-2.33,2.33,1.04,2.33,2.33-1.04,2.33-2.33,2.33Zm0-195c-1.29,0-2.33-1.04-2.33-2.33s1.04-2.33,2.33-2.33,2.33,1.04,2.33,2.33-1.04,2.33-2.33,2.33Z"/><g><rect class="cls-15" x="106.2" y="182.38" width="28.56" height="7.09" transform="translate(-65.44 306.4) rotate(-90)"/><text class="cls-21" transform="translate(121.18 197.11) rotate(-90)"><tspan x="0" y="0">ARE</tspan><tspan class="cls-24" x="5.16" y="0">A</tspan><tspan class="cls-1" x="6.7" y="0" xml:space="preserve"> FOR PB</tspan><tspan class="cls-24" x="16.74" y="0">A</tspan><tspan class="cls-1" x="18.28" y="0" xml:space="preserve"> P/N</tspan></text></g></g><g><rect class="cls-8" x="30.86" y="71.91" width="27.21" height="1.49" transform="translate(-28.19 117.12) rotate(-90)"/><rect class="cls-8" x="34.47" y="61.32" width="4.77" height="22.68" transform="translate(-35.8 109.52) rotate(-90)"/><rect class="cls-8" x="23.25" y="71.91" width="27.21" height="1.49" transform="translate(-35.8 109.51) rotate(-90)"/><rect class="cls-8" x="15.61" y="71.91" width="27.21" height="1.49" transform="translate(-43.44 101.87) rotate(-90)"/><rect class="cls-8" x="24.73" y="64.29" width="24.23" height="16.74" transform="translate(-35.81 109.5) rotate(-90)"/><g><path class="cls-13" d="m40.9,69.29c-1.83,0-3.32,1.48-3.32,3.32s1.48,3.32,3.32,3.32,3.32-1.48,3.32-3.32-1.48-3.32-3.32-3.32Z"/><path d="m40.9,71.28c-.73,0-1.33.59-1.33,1.33s.59,1.33,1.33,1.33,1.33-.59,1.33-1.33-.59-1.33-1.33-1.33Z"/></g><g><path class="cls-13" d="m44.22,83.58h-3.87v-.06c-1.56-.27-2.76-1.62-2.76-3.26s1.19-2.99,2.76-3.26v-.06h3.87v6.63Z"/><path d="m40.9,78.94c-.73,0-1.33.59-1.33,1.33,0,.73.59,1.33,1.33,1.33s1.33-.59,1.33-1.33-.59-1.33-1.33-1.33Z"/></g><g><path class="cls-13" d="m33.09,83.58c1.83,0,3.32-1.48,3.32-3.32s-1.48-3.32-3.32-3.32-3.32,1.48-3.32,3.32c0,1.83,1.48,3.32,3.32,3.32Z"/><path d="m33.09,81.59c.73,0,1.33-.59,1.33-1.33s-.59-1.33-1.33-1.33-1.33.59-1.33,1.33c0,.73.59,1.33,1.33,1.33Z"/></g><g><path class="cls-13" d="m33.09,68.41c1.83,0,3.32-1.48,3.32-3.32s-1.48-3.32-3.32-3.32-3.32,1.48-3.32,3.32c0,1.83,1.48,3.32,3.32,3.32Z"/><path d="m33.09,66.43c.73,0,1.33-.59,1.33-1.33s-.59-1.33-1.33-1.33-1.33.59-1.33,1.33.59,1.33,1.33,1.33Z"/></g><g><path class="cls-13" d="m29.77,69.29h3.87v.06c1.56.27,2.76,1.62,2.76,3.26s-1.19,2.99-2.76,3.26v.06h-3.87v-6.63Z"/><path d="m33.09,73.93c.73,0,1.33-.59,1.33-1.33s-.59-1.33-1.33-1.33-1.33.59-1.33,1.33.59,1.33,1.33,1.33Z"/></g><g><path class="cls-13" d="m44.22,68.41h-3.87v-.06c-1.56-.27-2.76-1.62-2.76-3.26s1.19-2.99,2.76-3.26v-.06h3.87v6.63Z"/><path d="m40.9,63.77c-.73,0-1.33.59-1.33,1.33s.59,1.33,1.33,1.33,1.33-.59,1.33-1.33-.59-1.33-1.33-1.33Z"/></g></g><g><rect class="cls-12" x="23.82" y="121.8" width="21.26" height="19.95" transform="translate(68.9 263.55) rotate(-180)"/><polygon class="cls-13" points="27.35 125.03 36.2 125.03 36.2 138.49 27.35 138.49 27.35 135.42 25.74 135.42 25.74 128.06 27.35 128.06 27.35 125.03"/></g><g><rect class="cls-12" x="23.82" y="146.6" width="21.26" height="19.95" transform="translate(68.9 313.15) rotate(-180)"/><polygon class="cls-13" points="27.35 149.84 36.2 149.84 36.2 163.29 27.35 163.29 27.35 160.22 25.74 160.22 25.74 152.86 27.35 152.86 27.35 149.84"/></g><g><g><rect class="cls-3" x="87.5" y="27.07" width="1.9" height="4.4" transform="translate(59.18 117.73) rotate(-90)"/><rect class="cls-3" x="77.66" y="16.44" width="21.54" height="11.88"/><rect class="cls-3" x="93.77" y="18.03" width="4.23" height="4.23" transform="translate(116.04 -75.74) rotate(90)"/><polygon class="cls-3" points="88.82 22.26 88.82 19.16 89.97 18.03 91.93 18.03 93.06 19.16 93.06 22.26 88.82 22.26"/><polygon class="cls-3" points="83.88 22.26 83.88 19.16 85.02 18.03 86.98 18.03 88.11 19.16 88.11 22.26 83.88 22.26"/><rect class="cls-3" x="78.93" y="18.03" width="4.23" height="4.23" transform="translate(101.19 -60.9) rotate(90)"/><rect class="cls-3" x="88.82" y="22.98" width="4.23" height="4.23" transform="translate(116.04 -65.85) rotate(90)"/><polygon class="cls-3" points="98.01 27.21 98.01 24.11 96.86 22.98 94.9 22.98 93.77 24.11 93.77 27.21 98.01 27.21"/><polygon class="cls-3" points="78.93 27.21 78.93 24.11 80.07 22.98 82.03 22.98 83.16 24.11 83.16 27.21 78.93 27.21"/><rect class="cls-3" x="83.88" y="22.98" width="4.23" height="4.23" transform="translate(111.09 -60.9) rotate(90)"/></g><g><rect class="cls-3" x="163.33" y="27.07" width="1.9" height="4.4" transform="translate(135.01 193.56) rotate(-90)"/><rect class="cls-3" x="155.62" y="16.44" width="16.97" height="11.88"/><polygon class="cls-3" points="166.78 22.26 166.78 19.16 167.92 18.03 169.88 18.03 171.01 19.16 171.01 22.26 166.78 22.26"/><polygon class="cls-3" points="161.83 22.26 161.83 19.16 162.97 18.03 164.93 18.03 166.06 19.16 166.06 22.26 161.83 22.26"/><rect class="cls-3" x="156.88" y="18.03" width="4.23" height="4.23" transform="translate(179.14 -138.85) rotate(90)"/><rect class="cls-3" x="166.78" y="22.98" width="4.23" height="4.23" transform="translate(193.99 -143.8) rotate(90)"/><polygon class="cls-3" points="156.88 27.21 156.88 24.11 158.03 22.98 159.98 22.98 161.11 24.11 161.11 27.21 156.88 27.21"/><rect class="cls-3" x="161.83" y="22.98" width="4.23" height="4.23" transform="translate(189.04 -138.85) rotate(90)"/></g><g><polygon class="cls-3" points="214.04 20.95 215.74 20.95 215.74 15.34 187.39 15.34 187.39 20.95 188.97 20.95 188.97 21.69 214.04 21.69 214.04 20.95"/><line class="cls-3" x1="215.62" y1="16.44" x2="187.44" y2="16.44"/></g><g><polygon class="cls-3" points="63.09 20.95 64.79 20.95 64.79 15.34 36.44 15.34 36.44 20.95 38.03 20.95 38.03 21.69 63.09 21.69 63.09 20.95"/><line class="cls-3" x1="64.68" y1="16.44" x2="36.5" y2="16.44"/></g><g><polygon class="cls-3" points="79.96 115.96 77.8 115.96 77.8 122.72 94.29 122.72 94.29 115.96 92.28 115.96 92.28 115.07 79.96 115.07 79.96 115.96"/><line class="cls-3" x1="77.95" y1="121.39" x2="94.23" y2="121.39"/></g><g><polygon class="cls-3" points="120.05 115.96 117.49 115.96 117.49 122.72 137.04 122.72 137.04 115.96 134.65 115.96 134.65 115.07 120.05 115.07 120.05 115.96"/><line class="cls-3" x1="117.66" y1="121.39" x2="136.96" y2="121.39"/></g><g><polygon class="cls-3" points="219.4 37.42 219.4 35.52 225.66 35.52 225.66 47.52 219.4 47.52 219.4 45.75 218.58 45.75 218.58 37.42 219.4 37.42"/><line class="cls-3" x1="224.43" y1="35.65" x2="224.43" y2="47.46"/></g><g><polygon class="cls-3" points="219.4 100.84 219.4 99.35 225.66 99.35 225.66 120.34 219.4 120.34 219.4 118.96 218.58 118.96 218.58 100.84 219.4 100.84"/><line class="cls-3" x1="224.43" y1="99.45" x2="224.43" y2="120.3"/></g><g><polygon class="cls-3" points="190.03 134.87 190.03 132.97 196.29 132.97 196.29 166.71 190.03 166.71 190.03 164.95 189.21 164.95 189.21 134.87 190.03 134.87"/><line class="cls-3" x1="195.06" y1="133.1" x2="195.06" y2="166.65"/></g><g><polygon class="cls-3" points="190.03 98.68 190.03 97.04 196.29 97.04 196.29 126.13 190.03 126.13 190.03 124.61 189.21 124.61 189.21 98.68 190.03 98.68"/><line class="cls-3" x1="195.06" y1="97.15" x2="195.06" y2="126.08"/></g><g><polygon class="cls-3" points="190.03 59.63 190.03 57.85 196.29 57.85 196.29 89.48 190.03 89.48 190.03 87.82 189.21 87.82 189.21 59.63 190.03 59.63"/><line class="cls-3" x1="195.06" y1="57.97" x2="195.06" y2="89.42"/></g><g><polygon class="cls-3" points="218.92 193.47 218.92 191.57 225.18 191.57 225.18 203.57 218.92 203.57 218.92 201.8 218.1 201.8 218.1 193.47 218.92 193.47"/><line class="cls-3" x1="223.95" y1="191.7" x2="223.95" y2="203.51"/></g><g><polygon class="cls-3" points="194.93 215.29 192.75 215.29 192.75 209.03 206.57 209.03 206.57 215.29 204.53 215.29 204.53 216.12 194.93 216.12 194.93 215.29"/><line class="cls-3" x1="192.9" y1="210.26" x2="206.5" y2="210.26"/></g><g><polygon class="cls-3" points="140.84 195.06 140.84 193.17 147.1 193.17 147.1 200.25 140.84 200.25 140.84 198.48 140.02 198.48 140.02 195.06 140.84 195.06"/><line class="cls-3" x1="145.87" y1="193.29" x2="145.87" y2="200.19"/></g><g><polygon class="cls-3" points="219.4 57.23 219.4 55.17 225.66 55.17 225.66 91.7 219.4 91.7 219.4 89.78 218.58 89.78 218.58 57.23 219.4 57.23"/><line class="cls-3" x1="224.43" y1="55.31" x2="224.43" y2="91.63"/></g><g><polygon class="cls-3" points="218.92 166.93 218.92 165.52 225.18 165.52 225.18 185.34 218.92 185.34 218.92 184.03 218.1 184.03 218.1 166.93 218.92 166.93"/><line class="cls-3" x1="223.95" y1="165.62" x2="223.95" y2="185.3"/></g><g><polygon class="cls-3" points="171.25 163.05 171.25 161.35 177.52 161.35 177.52 185.34 171.25 185.34 171.25 183.76 170.43 183.76 170.43 163.05 171.25 163.05"/><line class="cls-3" x1="176.29" y1="161.47" x2="176.29" y2="185.29"/></g><g><polygon class="cls-3" points="140.26 163.16 140.26 161.35 146.52 161.35 146.52 186.78 140.26 186.78 140.26 185.1 139.43 185.1 139.43 163.16 140.26 163.16"/><line class="cls-3" x1="145.29" y1="161.47" x2="145.29" y2="186.73"/></g><g><polygon class="cls-3" points="134.66 143.31 132.58 143.31 132.58 149.57 161.96 149.57 161.96 143.31 160.01 143.31 160.01 142.48 134.66 142.48 134.66 143.31"/><line class="cls-3" x1="132.72" y1="148.34" x2="161.89" y2="148.34"/></g><g><polygon class="cls-3" points="188.8 176.71 188.8 175.46 195.06 175.46 195.06 193.17 188.8 193.17 188.8 192 187.98 192 187.98 176.71 188.8 176.71"/><line class="cls-3" x1="193.83" y1="175.54" x2="193.83" y2="193.13"/></g><g><polygon class="cls-3" points="190.18 43.17 190.18 41.27 196.44 41.27 196.44 48.36 190.18 48.36 190.18 46.59 189.35 46.59 189.35 43.17 190.18 43.17"/><line class="cls-3" x1="195.21" y1="41.4" x2="195.21" y2="48.3"/></g><g><rect class="cls-3" x="66.5" y="173.62" width="7.94" height="19.8"/><rect class="cls-3" x="67.32" y="174.27" width="6.31" height="18.49"/><g><path class="cls-3" d="m69.88,176.71c0,.19-.16.35-.35.35s-.35-.16-.35-.35.16-.35.35-.35.35.16.35.35Z"/><path class="cls-3" d="m69.88,179.02c0,.19-.16.35-.35.35s-.35-.16-.35-.35.16-.35.35-.35.35.16.35.35Z"/><path class="cls-3" d="m69.88,181.33c0,.19-.16.35-.35.35s-.35-.16-.35-.35.16-.35.35-.35.35.16.35.35Z"/><path class="cls-3" d="m69.88,183.64c0,.19-.16.35-.35.35s-.35-.16-.35-.35.16-.35.35-.35.35.16.35.35Z"/><path class="cls-3" d="m69.88,185.95c0,.19-.16.35-.35.35s-.35-.16-.35-.35.16-.35.35-.35.35.16.35.35Z"/><path class="cls-3" d="m69.88,188.27c0,.19-.16.35-.35.35s-.35-.16-.35-.35.16-.35.35-.35.35.16.35.35Z"/><path class="cls-3" d="m69.88,190.58c0,.19-.16.35-.35.35s-.35-.16-.35-.35.16-.35.35-.35.35.16.35.35Z"/></g><g><path class="cls-3" d="m72.12,176.71c0,.19-.16.35-.35.35s-.35-.16-.35-.35.16-.35.35-.35.35.16.35.35Z"/><path class="cls-3" d="m72.12,179.02c0,.19-.16.35-.35.35s-.35-.16-.35-.35.16-.35.35-.35.35.16.35.35Z"/><path class="cls-3" d="m72.12,181.33c0,.19-.16.35-.35.35s-.35-.16-.35-.35.16-.35.35-.35.35.16.35.35Z"/><path class="cls-3" d="m72.12,183.64c0,.19-.16.35-.35.35s-.35-.16-.35-.35.16-.35.35-.35.35.16.35.35Z"/><path class="cls-3" d="m72.12,185.95c0,.19-.16.35-.35.35s-.35-.16-.35-.35.16-.35.35-.35.35.16.35.35Z"/><path class="cls-3" d="m72.12,188.27c0,.19-.16.35-.35.35s-.35-.16-.35-.35.16-.35.35-.35.35.16.35.35Z"/><path class="cls-3" d="m72.12,190.58c0,.19-.16.35-.35.35s-.35-.16-.35-.35.16-.35.35-.35.35.16.35.35Z"/></g></g><polygon class="cls-3" points="154.51 206.86 154.51 203.57 182.46 203.57 182.46 216.78 154.51 216.78 154.51 213.55 153.5 213.55 153.5 206.86 154.51 206.86"/><polygon class="cls-3" points="221.9 159.68 225.18 159.68 225.18 126.85 211.97 126.85 211.97 159.68 215.2 159.68 215.2 160.86 221.9 160.86 221.9 159.68"/><polygon class="cls-3" points="115.34 140.57 115.34 143.86 82.51 143.86 82.51 130.64 115.34 130.64 115.34 133.87 116.52 133.87 116.52 140.57 115.34 140.57"/></g><g><g><line class="cls-4" x1="140.71" y1="207.91" x2="140.71" y2="215.07"/><line class="cls-4" x1="137.6" y1="207.91" x2="137.6" y2="215.07"/><line class="cls-4" x1="134.5" y1="207.91" x2="134.5" y2="215.07"/><line class="cls-4" x1="131.4" y1="207.91" x2="131.4" y2="215.07"/><line class="cls-4" x1="128.3" y1="207.91" x2="128.3" y2="215.07"/><line class="cls-4" x1="125.19" y1="207.91" x2="125.19" y2="215.07"/><line class="cls-4" x1="122.09" y1="207.91" x2="122.09" y2="215.07"/><line class="cls-4" x1="118.99" y1="207.91" x2="118.99" y2="215.07"/><line class="cls-4" x1="115.89" y1="207.91" x2="115.89" y2="215.07"/><line class="cls-4" x1="112.78" y1="207.91" x2="112.78" y2="215.07"/><line class="cls-4" x1="109.68" y1="207.91" x2="109.68" y2="215.07"/><line class="cls-4" x1="106.58" y1="207.91" x2="106.58" y2="215.07"/><line class="cls-4" x1="103.48" y1="207.91" x2="103.48" y2="215.07"/><line class="cls-4" x1="100.37" y1="207.91" x2="100.37" y2="215.07"/><line class="cls-4" x1="97.27" y1="207.91" x2="97.27" y2="215.07"/><line class="cls-4" x1="94.17" y1="207.91" x2="94.17" y2="215.07"/><line class="cls-4" x1="91.07" y1="207.91" x2="91.07" y2="215.07"/><line class="cls-4" x1="87.96" y1="207.91" x2="87.96" y2="215.07"/><line class="cls-4" x1="84.86" y1="207.91" x2="84.86" y2="215.07"/><line class="cls-4" x1="81.76" y1="207.91" x2="81.76" y2="215.07"/><line class="cls-4" x1="78.66" y1="207.91" x2="78.66" y2="215.07"/><line class="cls-4" x1="75.55" y1="207.91" x2="75.55" y2="215.07"/><line class="cls-4" x1="72.45" y1="207.91" x2="72.45" y2="215.07"/><line class="cls-4" x1="69.35" y1="207.91" x2="69.35" y2="215.07"/><line class="cls-4" x1="66.25" y1="207.91" x2="66.25" y2="215.07"/><line class="cls-4" x1="63.14" y1="207.91" x2="63.14" y2="215.07"/><line class="cls-4" x1="60.04" y1="207.91" x2="60.04" y2="215.07"/><line class="cls-4" x1="56.94" y1="207.91" x2="56.94" y2="215.07"/><line class="cls-4" x1="53.84" y1="207.91" x2="53.84" y2="215.07"/><line class="cls-4" x1="50.73" y1="207.91" x2="50.73" y2="215.07"/><line class="cls-4" x1="47.63" y1="207.91" x2="47.63" y2="215.07"/><line class="cls-4" x1="44.53" y1="207.91" x2="44.53" y2="215.07"/></g><g><polygon class="cls-19" points="147.04 220.2 147.04 229.73 39.66 229.73 39.66 220.2 35.2 220.2 35.2 214.3 151.42 214.3 151.42 220.2 147.04 220.2"/><g><polygon class="cls-16" points="40.21 219.13 38.72 219.13 37.67 218.07 37.67 216.59 38.72 215.54 40.21 215.54 41.26 216.59 41.26 218.07 40.21 219.13"/><path class="cls-19" d="m40.43,217.33c0-.53-.43-.97-.97-.97s-.97.43-.97.97.43.97.97.97.97-.43.97-.97Z"/></g><g><polygon class="cls-16" points="147.87 219.13 146.38 219.13 145.33 218.07 145.33 216.59 146.38 215.54 147.87 215.54 148.92 216.59 148.92 218.07 147.87 219.13"/><path class="cls-19" d="m148.09,217.33c0-.53-.43-.97-.97-.97s-.97.43-.97.97.43.97.97.97.97-.43.97-.97Z"/></g></g></g><g><g><polygon class="cls-16" points="43.33 57.77 25.06 57.77 23.89 56.64 23.89 35.81 25.1 34.6 43.29 34.6 47.13 38.44 47.13 53.97 43.33 57.77"/><path class="cls-5" d="m47.06,46.19c0,6.4-5.19,11.59-11.59,11.59-6.4,0-11.59-5.19-11.59-11.59s5.19-11.59,11.59-11.59c6.4,0,11.59,5.19,11.59,11.59Z"/><path class="cls-10" d="m28.83,36.71c-2.98,2.1-4.94,5.56-4.94,9.48,0,3.92,1.96,7.39,4.94,9.48v-18.96Z"/><path d="m45.16,47.79h-.78s0-1.15,0-1.15h-1.15s0-.79,0-.79h1.15v-1.15s.78,0,.78,0v1.15h1.16s0,.79,0,.79h-1.16v1.15Z"/></g><g><polygon class="cls-16" points="150.16 37.01 150.16 18.75 149.03 17.57 128.2 17.57 126.99 18.78 126.99 36.98 130.83 40.82 146.36 40.82 150.16 37.01"/><path class="cls-5" d="m138.58,40.74c6.4,0,11.59-5.19,11.59-11.59,0-6.4-5.19-11.59-11.59-11.59-6.4,0-11.59,5.19-11.59,11.59,0,6.4,5.19,11.59,11.59,11.59Z"/><path class="cls-10" d="m129.1,22.51c2.1-2.98,5.56-4.94,9.48-4.94,3.92,0,7.39,1.96,9.48,4.94h-18.96Z"/><path d="m139.03,38.84v1.16h-.79v-1.16s-1.15,0-1.15,0v-.78h1.15s0-1.15,0-1.15h.79v1.15s1.15,0,1.15,0v.78h-1.15Z"/></g><g><polygon class="cls-16" points="68.01 40.87 68.01 31.48 67.43 30.88 56.73 30.88 56.11 31.5 56.11 40.85 58.08 42.82 66.06 42.82 68.01 40.87"/><path class="cls-5" d="m62.06,42.78c3.29,0,5.95-2.67,5.95-5.95,0-3.29-2.67-5.95-5.95-5.95s-5.95,2.67-5.95,5.95c0,3.29,2.67,5.95,5.95,5.95Z"/><path class="cls-10" d="m57.19,33.42c1.08-1.53,2.86-2.54,4.87-2.54s3.79,1,4.87,2.54h-9.74Z"/><path d="m62.29,41.81v.6h-.41v-.6s-.59,0-.59,0v-.4h.59s0-.59,0-.59h.41v.59s.59,0,.59,0v.4h-.59Z"/></g><g><polygon class="cls-16" points="30.45 188.68 39.83 188.68 40.43 189.26 40.43 199.96 39.81 200.58 30.46 200.58 28.49 198.61 28.49 190.63 30.45 188.68"/><path class="cls-5" d="m28.53,194.63c0-3.29,2.67-5.95,5.95-5.95,3.29,0,5.95,2.67,5.95,5.95s-2.67,5.95-5.95,5.95-5.95-2.67-5.95-5.95Z"/><path class="cls-10" d="m37.9,199.5c1.53-1.08,2.54-2.86,2.54-4.87s-1-3.79-2.54-4.87v9.74Z"/><path d="m29.5,193.81h.4s0,.59,0,.59h.59s0,.41,0,.41h-.59v.59s-.4,0-.4,0v-.59h-.6s0-.41,0-.41h.6v-.59Z"/></g><g><g><polygon class="cls-16" points="96.5 44.78 96.5 54.16 95.91 54.76 85.21 54.76 84.59 54.14 84.59 44.79 86.56 42.82 94.54 42.82 96.5 44.78"/><path class="cls-5" d="m90.54,42.86c3.29,0,5.95,2.67,5.95,5.95,0,3.29-2.67,5.95-5.95,5.95-3.29,0-5.95-2.67-5.95-5.95,0-3.29,2.67-5.95,5.95-5.95Z"/><path class="cls-10" d="m85.67,52.23c1.08,1.53,2.86,2.54,4.87,2.54,2.02,0,3.79-1,4.87-2.54h-9.74Z"/><path d="m91.36,43.83v.4s-.59,0-.59,0v.59s-.41,0-.41,0v-.59h-.59s0-.4,0-.4h.59v-.6s.41,0,.41,0v.6h.59Z"/></g><g><polygon class="cls-16" points="96.5 63.2 96.5 72.59 95.91 73.19 85.21 73.19 84.59 72.57 84.59 63.22 86.56 61.25 94.54 61.25 96.5 63.2"/><path class="cls-5" d="m90.54,61.28c3.29,0,5.95,2.67,5.95,5.95,0,3.29-2.67,5.95-5.95,5.95s-5.95-2.67-5.95-5.95c0-3.29,2.67-5.95,5.95-5.95Z"/><path class="cls-10" d="m85.67,70.65c1.08,1.53,2.86,2.54,4.87,2.54,2.02,0,3.79-1,4.87-2.54h-9.74Z"/><path d="m91.36,62.26v.4s-.59,0-.59,0v.59s-.41,0-.41,0v-.59h-.59s0-.4,0-.4h.59v-.6s.41,0,.41,0v.6h.59Z"/></g><g><polygon class="cls-16" points="96.5 81.63 96.5 91.01 95.91 91.61 85.21 91.61 84.59 90.99 84.59 81.64 86.56 79.67 94.54 79.67 96.5 81.63"/><path class="cls-5" d="m90.54,79.71c3.29,0,5.95,2.67,5.95,5.95,0,3.29-2.67,5.95-5.95,5.95s-5.95-2.67-5.95-5.95c0-3.29,2.67-5.95,5.95-5.95Z"/><path class="cls-10" d="m85.67,89.08c1.08,1.53,2.86,2.54,4.87,2.54s3.79-1,4.87-2.54h-9.74Z"/><path d="m91.36,80.69v.4s-.59,0-.59,0v.59s-.41,0-.41,0v-.59h-.59s0-.4,0-.4h.59v-.6s.41,0,.41,0v.6h.59Z"/></g><g><polygon class="cls-16" points="96.5 100.05 96.5 109.44 95.91 110.04 85.21 110.04 84.59 109.42 84.59 100.07 86.56 98.1 94.54 98.1 96.5 100.05"/><path class="cls-5" d="m90.54,98.13c3.29,0,5.95,2.67,5.95,5.95,0,3.29-2.67,5.95-5.95,5.95s-5.95-2.67-5.95-5.95c0-3.29,2.67-5.95,5.95-5.95Z"/><path class="cls-10" d="m85.67,107.5c1.08,1.53,2.86,2.54,4.87,2.54,2.02,0,3.79-1,4.87-2.54h-9.74Z"/><path d="m91.36,99.11v.4s-.59,0-.59,0v.59s-.41,0-.41,0v-.59h-.59s0-.4,0-.4h.59v-.6s.41,0,.41,0v.6h.59Z"/></g></g><g><g><polygon class="cls-16" points="33.5 94.08 33.5 103.47 32.91 104.07 22.21 104.07 21.59 103.45 21.59 94.1 23.56 92.13 31.54 92.13 33.5 94.08"/><path class="cls-5" d="m27.54,92.16c3.29,0,5.95,2.67,5.95,5.95,0,3.29-2.67,5.95-5.95,5.95s-5.95-2.67-5.95-5.95c0-3.29,2.67-5.95,5.95-5.95Z"/><path class="cls-10" d="m22.67,101.53c1.08,1.53,2.86,2.54,4.87,2.54s3.79-1,4.87-2.54h-9.74Z"/><path d="m28.36,93.14v.4s-.59,0-.59,0v.59s-.41,0-.41,0v-.59h-.59s0-.4,0-.4h.59v-.6s.41,0,.41,0v.6h.59Z"/></g><g><polygon class="cls-16" points="47.67 94.08 47.67 103.47 47.09 104.07 36.38 104.07 35.76 103.45 35.76 94.1 37.74 92.13 45.72 92.13 47.67 94.08"/><path class="cls-5" d="m41.72,92.16c3.29,0,5.95,2.67,5.95,5.95,0,3.29-2.67,5.95-5.95,5.95s-5.95-2.67-5.95-5.95c0-3.29,2.67-5.95,5.95-5.95Z"/><path class="cls-10" d="m36.85,101.53c1.08,1.53,2.86,2.54,4.87,2.54s3.79-1,4.87-2.54h-9.74Z"/><path d="m42.54,93.14v.4s-.59,0-.59,0v.59s-.41,0-.41,0v-.59h-.59s0-.4,0-.4h.59v-.6s.41,0,.41,0v.6h.59Z"/></g></g><g><g><polygon class="cls-16" points="149.58 56.24 149.58 46.86 149 46.25 138.3 46.25 137.68 46.88 137.68 56.22 139.65 58.2 147.63 58.2 149.58 56.24"/><path class="cls-5" d="m143.63,58.16c3.29,0,5.95-2.67,5.95-5.95,0-3.29-2.67-5.95-5.95-5.95s-5.95,2.67-5.95,5.95c0,3.29,2.67,5.95,5.95,5.95Z"/><path class="cls-10" d="m138.76,48.79c1.08-1.53,2.86-2.54,4.87-2.54s3.79,1,4.87,2.54h-9.74Z"/><path d="m143.86,57.18v.6h-.41v-.6s-.59,0-.59,0v-.4h.59s0-.59,0-.59h.41v.59s.59,0,.59,0v.4h-.59Z"/></g><g><polygon class="cls-16" points="166.59 56.24 166.59 46.86 166.01 46.25 155.31 46.25 154.69 46.88 154.69 56.22 156.66 58.2 164.64 58.2 166.59 56.24"/><path class="cls-5" d="m160.64,58.16c3.29,0,5.95-2.67,5.95-5.95,0-3.29-2.67-5.95-5.95-5.95s-5.95,2.67-5.95,5.95c0,3.29,2.67,5.95,5.95,5.95Z"/><path class="cls-10" d="m155.77,48.79c1.08-1.53,2.86-2.54,4.87-2.54s3.79,1,4.87,2.54h-9.74Z"/><path d="m160.87,57.18v.6h-.41v-.6s-.59,0-.59,0v-.4h.59s0-.59,0-.59h.41v.59s.59,0,.59,0v.4h-.59Z"/></g><g><polygon class="cls-16" points="183.6 56.24 183.6 46.86 183.01 46.25 172.31 46.25 171.69 46.88 171.69 56.22 173.67 58.2 181.65 58.2 183.6 56.24"/><path class="cls-5" d="m177.65,58.16c3.29,0,5.95-2.67,5.95-5.95,0-3.29-2.67-5.95-5.95-5.95s-5.95,2.67-5.95,5.95c0,3.29,2.67,5.95,5.95,5.95Z"/><path class="cls-10" d="m172.77,48.79c1.08-1.53,2.86-2.54,4.87-2.54s3.79,1,4.87,2.54h-9.74Z"/><path d="m177.88,57.18v.6h-.41v-.6s-.59,0-.59,0v-.4h.59s0-.59,0-.59h.41v.59s.59,0,.59,0v.4h-.59Z"/></g></g><g><g><polygon class="cls-16" points="149.58 81.52 149.58 90.9 149 91.5 138.3 91.5 137.68 90.88 137.68 81.53 139.65 79.56 147.63 79.56 149.58 81.52"/><path class="cls-5" d="m143.63,79.6c3.29,0,5.95,2.67,5.95,5.95,0,3.29-2.67,5.95-5.95,5.95s-5.95-2.67-5.95-5.95c0-3.29,2.67-5.95,5.95-5.95Z"/><path class="cls-10" d="m138.76,88.97c1.08,1.53,2.86,2.54,4.87,2.54,2.02,0,3.79-1,4.87-2.54h-9.74Z"/><path d="m144.45,80.57v.4s-.59,0-.59,0v.59s-.41,0-.41,0v-.59h-.59s0-.4,0-.4h.59v-.6s.41,0,.41,0v.6h.59Z"/></g><g><polygon class="cls-16" points="166.59 81.52 166.59 90.9 166.01 91.5 155.31 91.5 154.69 90.88 154.69 81.53 156.66 79.56 164.64 79.56 166.59 81.52"/><path class="cls-5" d="m160.64,79.6c3.29,0,5.95,2.67,5.95,5.95,0,3.29-2.67,5.95-5.95,5.95s-5.95-2.67-5.95-5.95c0-3.29,2.67-5.95,5.95-5.95Z"/><path class="cls-10" d="m155.77,88.97c1.08,1.53,2.86,2.54,4.87,2.54,2.02,0,3.79-1,4.87-2.54h-9.74Z"/><path d="m161.46,80.57v.4s-.59,0-.59,0v.59s-.41,0-.41,0v-.59h-.59s0-.4,0-.4h.59v-.6s.41,0,.41,0v.6h.59Z"/></g><g><polygon class="cls-16" points="183.6 81.52 183.6 90.9 183.01 91.5 172.31 91.5 171.69 90.88 171.69 81.53 173.67 79.56 181.65 79.56 183.6 81.52"/><path class="cls-5" d="m177.65,79.6c3.29,0,5.95,2.67,5.95,5.95,0,3.29-2.67,5.95-5.95,5.95s-5.95-2.67-5.95-5.95c0-3.29,2.67-5.95,5.95-5.95Z"/><path class="cls-10" d="m172.77,88.97c1.08,1.53,2.86,2.54,4.87,2.54,2.02,0,3.79-1,4.87-2.54h-9.74Z"/><path d="m178.47,80.57v.4s-.59,0-.59,0v.59s-.41,0-.41,0v-.59h-.59s0-.4,0-.4h.59v-.6s.41,0,.41,0v.6h.59Z"/></g></g></g><g><g><g><line class="cls-9" x1="67.89" y1="99.59" x2="67.89" y2="98.29"/><line class="cls-9" x1="67.23" y1="99.59" x2="67.23" y2="98.29"/><line class="cls-9" x1="66.56" y1="99.59" x2="66.56" y2="98.29"/><line class="cls-9" x1="65.9" y1="99.59" x2="65.9" y2="98.29"/><line class="cls-9" x1="65.24" y1="99.59" x2="65.24" y2="98.29"/><line class="cls-9" x1="64.57" y1="99.59" x2="64.57" y2="98.29"/><line class="cls-9" x1="63.91" y1="99.59" x2="63.91" y2="98.29"/><line class="cls-9" x1="63.25" y1="99.59" x2="63.25" y2="98.29"/><line class="cls-9" x1="62.59" y1="99.59" x2="62.59" y2="98.29"/><line class="cls-9" x1="61.92" y1="99.59" x2="61.92" y2="98.29"/><line class="cls-9" x1="61.26" y1="99.59" x2="61.26" y2="98.29"/><line class="cls-9" x1="60.6" y1="99.59" x2="60.6" y2="98.29"/><line class="cls-9" x1="59.94" y1="99.59" x2="59.94" y2="98.29"/><line class="cls-9" x1="59.27" y1="99.59" x2="59.27" y2="98.29"/><line class="cls-9" x1="58.61" y1="99.59" x2="58.61" y2="98.29"/><line class="cls-9" x1="57.95" y1="99.59" x2="57.95" y2="98.29"/><line class="cls-9" x1="57.29" y1="99.59" x2="57.29" y2="98.29"/><line class="cls-9" x1="56.62" y1="99.59" x2="56.62" y2="98.29"/><line class="cls-9" x1="55.96" y1="99.59" x2="55.96" y2="98.29"/></g><g><line class="cls-9" x1="67.89" y1="106.62" x2="67.89" y2="105.31"/><line class="cls-9" x1="67.23" y1="106.62" x2="67.23" y2="105.31"/><line class="cls-9" x1="66.56" y1="106.62" x2="66.56" y2="105.31"/><line class="cls-9" x1="65.9" y1="106.62" x2="65.9" y2="105.31"/><line class="cls-9" x1="65.24" y1="106.62" x2="65.24" y2="105.31"/><line class="cls-9" x1="64.57" y1="106.62" x2="64.57" y2="105.31"/><line class="cls-9" x1="63.91" y1="106.62" x2="63.91" y2="105.31"/><line class="cls-9" x1="63.25" y1="106.62" x2="63.25" y2="105.31"/><line class="cls-9" x1="62.59" y1="106.62" x2="62.59" y2="105.31"/><line class="cls-9" x1="61.92" y1="106.62" x2="61.92" y2="105.31"/><line class="cls-9" x1="61.26" y1="106.62" x2="61.26" y2="105.31"/><line class="cls-9" x1="60.6" y1="106.62" x2="60.6" y2="105.31"/><line class="cls-9" x1="59.94" y1="106.62" x2="59.94" y2="105.31"/><line class="cls-9" x1="59.27" y1="106.62" x2="59.27" y2="105.31"/><line class="cls-9" x1="58.61" y1="106.62" x2="58.61" y2="105.31"/><line class="cls-9" x1="57.95" y1="106.62" x2="57.95" y2="105.31"/><line class="cls-9" x1="57.29" y1="106.62" x2="57.29" y2="105.31"/><line class="cls-9" x1="56.62" y1="106.62" x2="56.62" y2="105.31"/><line class="cls-9" x1="55.96" y1="106.62" x2="55.96" y2="105.31"/></g><g><rect class="cls-14" x="59.07" y="96.07" width="5.72" height="12.76" transform="translate(-40.53 164.38) rotate(-90)"/><circle class="cls-16" cx="67.56" cy="100.19" r=".3"/></g></g><g><g><line class="cls-9" x1="154.34" y1="99.59" x2="154.34" y2="98.29"/><line class="cls-9" x1="153.68" y1="99.59" x2="153.68" y2="98.29"/><line class="cls-9" x1="153.02" y1="99.59" x2="153.02" y2="98.29"/><line class="cls-9" x1="152.36" y1="99.59" x2="152.36" y2="98.29"/><line class="cls-9" x1="151.69" y1="99.59" x2="151.69" y2="98.29"/><line class="cls-9" x1="151.03" y1="99.59" x2="151.03" y2="98.29"/><line class="cls-9" x1="150.37" y1="99.59" x2="150.37" y2="98.29"/><line class="cls-9" x1="149.71" y1="99.59" x2="149.71" y2="98.29"/><line class="cls-9" x1="149.04" y1="99.59" x2="149.04" y2="98.29"/><line class="cls-9" x1="148.38" y1="99.59" x2="148.38" y2="98.29"/><line class="cls-9" x1="147.72" y1="99.59" x2="147.72" y2="98.29"/><line class="cls-9" x1="147.06" y1="99.59" x2="147.06" y2="98.29"/><line class="cls-9" x1="146.39" y1="99.59" x2="146.39" y2="98.29"/><line class="cls-9" x1="145.73" y1="99.59" x2="145.73" y2="98.29"/><line class="cls-9" x1="145.07" y1="99.59" x2="145.07" y2="98.29"/><line class="cls-9" x1="144.41" y1="99.59" x2="144.41" y2="98.29"/><line class="cls-9" x1="143.74" y1="99.59" x2="143.74" y2="98.29"/><line class="cls-9" x1="143.08" y1="99.59" x2="143.08" y2="98.29"/><line class="cls-9" x1="142.42" y1="99.59" x2="142.42" y2="98.29"/></g><g><line class="cls-9" x1="154.34" y1="106.62" x2="154.34" y2="105.31"/><line class="cls-9" x1="153.68" y1="106.62" x2="153.68" y2="105.31"/><line class="cls-9" x1="153.02" y1="106.62" x2="153.02" y2="105.31"/><line class="cls-9" x1="152.36" y1="106.62" x2="152.36" y2="105.31"/><line class="cls-9" x1="151.69" y1="106.62" x2="151.69" y2="105.31"/><line class="cls-9" x1="151.03" y1="106.62" x2="151.03" y2="105.31"/><line class="cls-9" x1="150.37" y1="106.62" x2="150.37" y2="105.31"/><line class="cls-9" x1="149.71" y1="106.62" x2="149.71" y2="105.31"/><line class="cls-9" x1="149.04" y1="106.62" x2="149.04" y2="105.31"/><line class="cls-9" x1="148.38" y1="106.62" x2="148.38" y2="105.31"/><line class="cls-9" x1="147.72" y1="106.62" x2="147.72" y2="105.31"/><line class="cls-9" x1="147.06" y1="106.62" x2="147.06" y2="105.31"/><line class="cls-9" x1="146.39" y1="106.62" x2="146.39" y2="105.31"/><line class="cls-9" x1="145.73" y1="106.62" x2="145.73" y2="105.31"/><line class="cls-9" x1="145.07" y1="106.62" x2="145.07" y2="105.31"/><line class="cls-9" x1="144.41" y1="106.62" x2="144.41" y2="105.31"/><line class="cls-9" x1="143.74" y1="106.62" x2="143.74" y2="105.31"/><line class="cls-9" x1="143.08" y1="106.62" x2="143.08" y2="105.31"/><line class="cls-9" x1="142.42" y1="106.62" x2="142.42" y2="105.31"/></g><g><rect class="cls-14" x="145.52" y="96.07" width="5.72" height="12.76" transform="translate(45.93 250.83) rotate(-90)"/><circle class="cls-16" cx="154.02" cy="100.19" r=".3"/></g></g><g><g><line class="cls-9" x1="177.02" y1="99.59" x2="177.02" y2="98.29"/><line class="cls-9" x1="176.36" y1="99.59" x2="176.36" y2="98.29"/><line class="cls-9" x1="175.7" y1="99.59" x2="175.7" y2="98.29"/><line class="cls-9" x1="175.03" y1="99.59" x2="175.03" y2="98.29"/><line class="cls-9" x1="174.37" y1="99.59" x2="174.37" y2="98.29"/><line class="cls-9" x1="173.71" y1="99.59" x2="173.71" y2="98.29"/><line class="cls-9" x1="173.05" y1="99.59" x2="173.05" y2="98.29"/><line class="cls-9" x1="172.38" y1="99.59" x2="172.38" y2="98.29"/><line class="cls-9" x1="171.72" y1="99.59" x2="171.72" y2="98.29"/><line class="cls-9" x1="171.06" y1="99.59" x2="171.06" y2="98.29"/><line class="cls-9" x1="170.4" y1="99.59" x2="170.4" y2="98.29"/><line class="cls-9" x1="169.73" y1="99.59" x2="169.73" y2="98.29"/><line class="cls-9" x1="169.07" y1="99.59" x2="169.07" y2="98.29"/><line class="cls-9" x1="168.41" y1="99.59" x2="168.41" y2="98.29"/><line class="cls-9" x1="167.75" y1="99.59" x2="167.75" y2="98.29"/><line class="cls-9" x1="167.08" y1="99.59" x2="167.08" y2="98.29"/><line class="cls-9" x1="166.42" y1="99.59" x2="166.42" y2="98.29"/><line class="cls-9" x1="165.76" y1="99.59" x2="165.76" y2="98.29"/><line class="cls-9" x1="165.1" y1="99.59" x2="165.1" y2="98.29"/></g><g><line class="cls-9" x1="177.02" y1="106.62" x2="177.02" y2="105.31"/><line class="cls-9" x1="176.36" y1="106.62" x2="176.36" y2="105.31"/><line class="cls-9" x1="175.7" y1="106.62" x2="175.7" y2="105.31"/><line class="cls-9" x1="175.03" y1="106.62" x2="175.03" y2="105.31"/><line class="cls-9" x1="174.37" y1="106.62" x2="174.37" y2="105.31"/><line class="cls-9" x1="173.71" y1="106.62" x2="173.71" y2="105.31"/><line class="cls-9" x1="173.05" y1="106.62" x2="173.05" y2="105.31"/><line class="cls-9" x1="172.38" y1="106.62" x2="172.38" y2="105.31"/><line class="cls-9" x1="171.72" y1="106.62" x2="171.72" y2="105.31"/><line class="cls-9" x1="171.06" y1="106.62" x2="171.06" y2="105.31"/><line class="cls-9" x1="170.4" y1="106.62" x2="170.4" y2="105.31"/><line class="cls-9" x1="169.73" y1="106.62" x2="169.73" y2="105.31"/><line class="cls-9" x1="169.07" y1="106.62" x2="169.07" y2="105.31"/><line class="cls-9" x1="168.41" y1="106.62" x2="168.41" y2="105.31"/><line class="cls-9" x1="167.75" y1="106.62" x2="167.75" y2="105.31"/><line class="cls-9" x1="167.08" y1="106.62" x2="167.08" y2="105.31"/><line class="cls-9" x1="166.42" y1="106.62" x2="166.42" y2="105.31"/><line class="cls-9" x1="165.76" y1="106.62" x2="165.76" y2="105.31"/><line class="cls-9" x1="165.1" y1="106.62" x2="165.1" y2="105.31"/></g><g><rect class="cls-14" x="168.2" y="96.07" width="5.72" height="12.76" transform="translate(68.61 273.51) rotate(-90)"/><circle class="cls-16" cx="176.69" cy="100.19" r=".3"/></g></g><g><g><line class="cls-9" x1="117.49" y1="99.59" x2="117.49" y2="98.29"/><line class="cls-9" x1="116.83" y1="99.59" x2="116.83" y2="98.29"/><line class="cls-9" x1="116.17" y1="99.59" x2="116.17" y2="98.29"/><line class="cls-9" x1="115.51" y1="99.59" x2="115.51" y2="98.29"/><line class="cls-9" x1="114.84" y1="99.59" x2="114.84" y2="98.29"/><line class="cls-9" x1="114.18" y1="99.59" x2="114.18" y2="98.29"/><line class="cls-9" x1="113.52" y1="99.59" x2="113.52" y2="98.29"/><line class="cls-9" x1="112.86" y1="99.59" x2="112.86" y2="98.29"/><line class="cls-9" x1="112.19" y1="99.59" x2="112.19" y2="98.29"/><line class="cls-9" x1="111.53" y1="99.59" x2="111.53" y2="98.29"/><line class="cls-9" x1="110.87" y1="99.59" x2="110.87" y2="98.29"/><line class="cls-9" x1="110.21" y1="99.59" x2="110.21" y2="98.29"/><line class="cls-9" x1="109.54" y1="99.59" x2="109.54" y2="98.29"/><line class="cls-9" x1="108.88" y1="99.59" x2="108.88" y2="98.29"/><line class="cls-9" x1="108.22" y1="99.59" x2="108.22" y2="98.29"/><line class="cls-9" x1="107.56" y1="99.59" x2="107.56" y2="98.29"/><line class="cls-9" x1="106.89" y1="99.59" x2="106.89" y2="98.29"/><line class="cls-9" x1="106.23" y1="99.59" x2="106.23" y2="98.29"/><line class="cls-9" x1="105.57" y1="99.59" x2="105.57" y2="98.29"/></g><g><line class="cls-9" x1="117.49" y1="106.62" x2="117.49" y2="105.31"/><line class="cls-9" x1="116.83" y1="106.62" x2="116.83" y2="105.31"/><line class="cls-9" x1="116.17" y1="106.62" x2="116.17" y2="105.31"/><line class="cls-9" x1="115.51" y1="106.62" x2="115.51" y2="105.31"/><line class="cls-9" x1="114.84" y1="106.62" x2="114.84" y2="105.31"/><line class="cls-9" x1="114.18" y1="106.62" x2="114.18" y2="105.31"/><line class="cls-9" x1="113.52" y1="106.62" x2="113.52" y2="105.31"/><line class="cls-9" x1="112.86" y1="106.62" x2="112.86" y2="105.31"/><line class="cls-9" x1="112.19" y1="106.62" x2="112.19" y2="105.31"/><line class="cls-9" x1="111.53" y1="106.62" x2="111.53" y2="105.31"/><line class="cls-9" x1="110.87" y1="106.62" x2="110.87" y2="105.31"/><line class="cls-9" x1="110.21" y1="106.62" x2="110.21" y2="105.31"/><line class="cls-9" x1="109.54" y1="106.62" x2="109.54" y2="105.31"/><line class="cls-9" x1="108.88" y1="106.62" x2="108.88" y2="105.31"/><line class="cls-9" x1="108.22" y1="106.62" x2="108.22" y2="105.31"/><line class="cls-9" x1="107.56" y1="106.62" x2="107.56" y2="105.31"/><line class="cls-9" x1="106.89" y1="106.62" x2="106.89" y2="105.31"/><line class="cls-9" x1="106.23" y1="106.62" x2="106.23" y2="105.31"/><line class="cls-9" x1="105.57" y1="106.62" x2="105.57" y2="105.31"/></g><g><rect class="cls-14" x="108.67" y="96.07" width="5.72" height="12.76" transform="translate(9.08 213.98) rotate(-90)"/><circle class="cls-16" cx="117.17" cy="100.19" r=".3"/></g></g><g><rect class="cls-14" x="133.09" y="153.64" width="5.39" height="7.09" rx=".28" ry=".28" transform="translate(-21.4 292.97) rotate(-90)"/><g><rect class="cls-17" x="132.75" y="160.09" width="1.23" height=".79" transform="translate(-27.12 293.85) rotate(-90)"/><rect class="cls-17" x="135.96" y="160.09" width="1.23" height=".79" transform="translate(-23.91 297.06) rotate(-90)"/><rect class="cls-17" x="137.54" y="160.09" width="1.23" height=".79" transform="translate(-22.33 298.65) rotate(-90)"/><rect class="cls-17" x="134.38" y="160.09" width="1.23" height=".79" transform="translate(-25.5 295.48) rotate(-90)"/></g><circle class="cls-16" cx="133.11" cy="159.04" r=".31"/><g><rect class="cls-17" x="132.77" y="153.48" width="1.23" height=".79" transform="translate(-20.48 287.26) rotate(-90)"/><rect class="cls-17" x="135.98" y="153.48" width="1.23" height=".79" transform="translate(-17.27 290.47) rotate(-90)"/><rect class="cls-17" x="137.57" y="153.48" width="1.23" height=".79" transform="translate(-15.69 292.05) rotate(-90)"/><rect class="cls-17" x="134.4" y="153.48" width="1.23" height=".79" transform="translate(-18.86 288.89) rotate(-90)"/></g></g><g><g><rect class="cls-14" x="54.64" y="65.09" width="7.19" height="7.75"/><rect class="cls-16" x="53.2" y="65.79" width="1.44" height="6.37"/><rect class="cls-16" x="61.83" y="65.81" width="3.28" height=".95"/><rect class="cls-16" x="61.83" y="68.48" width="1.25" height=".95"/><rect class="cls-16" x="61.83" y="71.16" width="3.28" height=".95"/><circle class="cls-20" cx="60.68" cy="71.63" r=".41"/></g><g><rect class="cls-14" x="54.64" y="46.87" width="7.19" height="7.75"/><rect class="cls-16" x="53.2" y="47.58" width="1.44" height="6.37"/><rect class="cls-16" x="61.83" y="47.59" width="3.28" height=".95"/><rect class="cls-16" x="61.83" y="50.27" width="1.25" height=".95"/><rect class="cls-16" x="61.83" y="52.95" width="3.28" height=".95"/><circle class="cls-20" cx="60.68" cy="53.42" r=".41"/></g><g><rect class="cls-14" x="71.36" y="65.09" width="7.19" height="7.75" transform="translate(149.91 137.92) rotate(180)"/><rect class="cls-16" x="78.55" y="65.79" width="1.44" height="6.37" transform="translate(158.53 137.96) rotate(180)"/><rect class="cls-16" x="68.08" y="65.81" width="3.28" height=".95" transform="translate(139.44 132.56) rotate(180)"/><rect class="cls-16" x="70.11" y="68.48" width="1.25" height=".95" transform="translate(141.47 137.92) rotate(180)"/><rect class="cls-16" x="68.08" y="71.16" width="3.28" height=".95" transform="translate(139.44 143.28) rotate(180)"/><circle class="cls-20" cx="72.5" cy="71.63" r=".41"/></g><g><rect class="cls-14" x="54.64" y="84.22" width="7.19" height="7.75"/><rect class="cls-16" x="53.2" y="84.93" width="1.44" height="6.37"/><rect class="cls-16" x="61.83" y="84.94" width="3.28" height=".95"/><rect class="cls-16" x="61.83" y="87.62" width="1.25" height=".95"/><rect class="cls-16" x="61.83" y="90.3" width="3.28" height=".95"/><circle class="cls-20" cx="60.68" cy="90.77" r=".41"/></g><g><rect class="cls-14" x="71.36" y="84.22" width="7.19" height="7.75" transform="translate(149.91 176.19) rotate(180)"/><rect class="cls-16" x="78.55" y="84.93" width="1.44" height="6.37" transform="translate(158.53 176.23) rotate(180)"/><rect class="cls-16" x="68.08" y="84.94" width="3.28" height=".95" transform="translate(139.44 170.83) rotate(180)"/><rect class="cls-16" x="70.11" y="87.62" width="1.25" height=".95" transform="translate(141.47 176.19) rotate(180)"/><rect class="cls-16" x="68.08" y="90.3" width="3.28" height=".95" transform="translate(139.44 181.55) rotate(180)"/><circle class="cls-20" cx="72.5" cy="90.77" r=".41"/></g><g><rect class="cls-14" x="71.36" y="46.87" width="7.19" height="7.75" transform="translate(149.91 101.49) rotate(180)"/><rect class="cls-16" x="78.55" y="47.58" width="1.44" height="6.37" transform="translate(158.53 101.53) rotate(180)"/><rect class="cls-16" x="68.08" y="47.59" width="3.28" height=".95" transform="translate(139.44 96.13) rotate(180)"/><rect class="cls-16" x="70.11" y="50.27" width="1.25" height=".95" transform="translate(141.47 101.49) rotate(180)"/><rect class="cls-16" x="68.08" y="52.95" width="3.28" height=".95" transform="translate(139.44 106.85) rotate(180)"/><circle class="cls-20" cx="72.5" cy="53.42" r=".41"/></g></g><g><g><rect class="cls-14" x="102.12" y="65.09" width="7.19" height="7.75"/><rect class="cls-16" x="100.68" y="65.79" width="1.44" height="6.37"/><rect class="cls-16" x="109.31" y="65.81" width="3.28" height=".95"/><rect class="cls-16" x="109.31" y="68.48" width="1.25" height=".95"/><rect class="cls-16" x="109.31" y="71.16" width="3.28" height=".95"/><circle class="cls-20" cx="108.16" cy="71.63" r=".41"/></g><g><rect class="cls-14" x="102.12" y="46.87" width="7.19" height="7.75"/><rect class="cls-16" x="100.68" y="47.58" width="1.44" height="6.37"/><rect class="cls-16" x="109.31" y="47.59" width="3.28" height=".95"/><rect class="cls-16" x="109.31" y="50.27" width="1.25" height=".95"/><rect class="cls-16" x="109.31" y="52.95" width="3.28" height=".95"/><circle class="cls-20" cx="108.16" cy="53.42" r=".41"/></g><g><rect class="cls-14" x="118.84" y="65.09" width="7.19" height="7.75" transform="translate(244.87 137.92) rotate(180)"/><rect class="cls-16" x="126.03" y="65.79" width="1.44" height="6.37" transform="translate(253.5 137.96) rotate(180)"/><rect class="cls-16" x="115.56" y="65.81" width="3.28" height=".95" transform="translate(234.4 132.56) rotate(180)"/><rect class="cls-16" x="117.59" y="68.48" width="1.25" height=".95" transform="translate(236.43 137.92) rotate(180)"/><rect class="cls-16" x="115.56" y="71.16" width="3.28" height=".95" transform="translate(234.4 143.28) rotate(180)"/><circle class="cls-20" cx="119.98" cy="71.63" r=".41"/></g><g><rect class="cls-14" x="102.12" y="84.22" width="7.19" height="7.75"/><rect class="cls-16" x="100.68" y="84.93" width="1.44" height="6.37"/><rect class="cls-16" x="109.31" y="84.94" width="3.28" height=".95"/><rect class="cls-16" x="109.31" y="87.62" width="1.25" height=".95"/><rect class="cls-16" x="109.31" y="90.3" width="3.28" height=".95"/><circle class="cls-20" cx="108.16" cy="90.77" r=".41"/></g><g><rect class="cls-14" x="118.84" y="84.22" width="7.19" height="7.75" transform="translate(244.87 176.19) rotate(180)"/><rect class="cls-16" x="126.03" y="84.93" width="1.44" height="6.37" transform="translate(253.5 176.23) rotate(180)"/><rect class="cls-16" x="115.56" y="84.94" width="3.28" height=".95" transform="translate(234.4 170.83) rotate(180)"/><rect class="cls-16" x="117.59" y="87.62" width="1.25" height=".95" transform="translate(236.43 176.19) rotate(180)"/><rect class="cls-16" x="115.56" y="90.3" width="3.28" height=".95" transform="translate(234.4 181.55) rotate(180)"/><circle class="cls-20" cx="119.98" cy="90.77" r=".41"/></g><g><rect class="cls-14" x="118.84" y="46.87" width="7.19" height="7.75" transform="translate(244.87 101.49) rotate(180)"/><rect class="cls-16" x="126.03" y="47.58" width="1.44" height="6.37" transform="translate(253.5 101.53) rotate(180)"/><rect class="cls-16" x="115.56" y="47.59" width="3.28" height=".95" transform="translate(234.4 96.13) rotate(180)"/><rect class="cls-16" x="117.59" y="50.27" width="1.25" height=".95" transform="translate(236.43 101.49) rotate(180)"/><rect class="cls-16" x="115.56" y="52.95" width="3.28" height=".95" transform="translate(234.4 106.85) rotate(180)"/><circle class="cls-20" cx="119.98" cy="53.42" r=".41"/></g></g><g><rect class="cls-14" x="93.72" y="173.25" width="17.01" height="17.01"/><circle class="cls-16" cx="108.94" cy="174.73" r=".89"/></g><g><rect class="cls-14" x="56.67" y="146.5" width="17.01" height="17.01" transform="translate(220.18 89.84) rotate(90)"/><circle class="cls-16" cx="72.19" cy="161.73" r=".89"/></g><rect class="cls-18" x="48.34" y="171.76" width="15.59" height="15.59" rx="4.28" ry="4.28"/><g><rect class="cls-14" x="199.06" y="135.32" width="5.39" height="7.09" rx=".28" ry=".28" transform="translate(62.89 340.62) rotate(-90)"/><g><rect class="cls-17" x="198.72" y="141.78" width="1.23" height=".79" transform="translate(57.16 341.51) rotate(-90)"/><rect class="cls-17" x="201.93" y="141.78" width="1.23" height=".79" transform="translate(60.37 344.72) rotate(-90)"/><rect class="cls-17" x="203.51" y="141.78" width="1.23" height=".79" transform="translate(61.95 346.3) rotate(-90)"/><rect class="cls-17" x="200.35" y="141.78" width="1.23" height=".79" transform="translate(58.79 343.13) rotate(-90)"/></g><circle class="cls-16" cx="199.08" cy="140.72" r=".31"/><g><rect class="cls-17" x="198.74" y="135.16" width="1.23" height=".79" transform="translate(63.8 334.91) rotate(-90)"/><rect class="cls-17" x="201.95" y="135.16" width="1.23" height=".79" transform="translate(67.01 338.12) rotate(-90)"/><rect class="cls-17" x="203.54" y="135.16" width="1.23" height=".79" transform="translate(68.59 339.71) rotate(-90)"/><rect class="cls-17" x="200.37" y="135.16" width="1.23" height=".79" transform="translate(65.43 336.54) rotate(-90)"/></g></g><g><rect class="cls-14" x="202.58" y="179.92" width="5.39" height="7.09" rx=".28" ry=".28" transform="translate(388.74 -21.81) rotate(90)"/><g><rect class="cls-17" x="207.08" y="179.76" width="1.23" height=".79" transform="translate(387.85 -27.54) rotate(90)"/><rect class="cls-17" x="203.87" y="179.76" width="1.23" height=".79" transform="translate(384.65 -24.33) rotate(90)"/><rect class="cls-17" x="202.29" y="179.76" width="1.23" height=".79" transform="translate(383.06 -22.75) rotate(90)"/><rect class="cls-17" x="205.45" y="179.76" width="1.23" height=".79" transform="translate(386.23 -25.91) rotate(90)"/></g><circle class="cls-16" cx="207.95" cy="181.61" r=".31"/><g><rect class="cls-17" x="207.06" y="186.38" width="1.23" height=".79" transform="translate(394.45 -20.9) rotate(90)"/><rect class="cls-17" x="203.85" y="186.38" width="1.23" height=".79" transform="translate(391.24 -17.69) rotate(90)"/><rect class="cls-17" x="202.26" y="186.38" width="1.23" height=".79" transform="translate(389.65 -16.1) rotate(90)"/><rect class="cls-17" x="205.43" y="186.38" width="1.23" height=".79" transform="translate(392.82 -19.27) rotate(90)"/></g></g><g><rect class="cls-14" x="181.06" y="145.79" width="5.39" height="7.09" rx=".28" ry=".28" transform="translate(333.09 -34.42) rotate(90)"/><g><rect class="cls-17" x="185.56" y="145.63" width="1.23" height=".79" transform="translate(332.2 -40.15) rotate(90)"/><rect class="cls-17" x="182.35" y="145.63" width="1.23" height=".79" transform="translate(328.99 -36.94) rotate(90)"/><rect class="cls-17" x="180.77" y="145.63" width="1.23" height=".79" transform="translate(327.41 -35.36) rotate(90)"/><rect class="cls-17" x="183.93" y="145.63" width="1.23" height=".79" transform="translate(330.57 -38.52) rotate(90)"/></g><circle class="cls-16" cx="186.43" cy="147.47" r=".31"/><g><rect class="cls-17" x="185.54" y="152.25" width="1.23" height=".79" transform="translate(338.79 -33.51) rotate(90)"/><rect class="cls-17" x="182.33" y="152.25" width="1.23" height=".79" transform="translate(335.59 -30.3) rotate(90)"/><rect class="cls-17" x="180.74" y="152.24" width="1.23" height=".79" transform="translate(334 -28.72) rotate(90)"/><rect class="cls-17" x="183.91" y="152.24" width="1.23" height=".79" transform="translate(337.17 -31.88) rotate(90)"/></g></g><g><rect class="cls-14" x="155.33" y="164.86" width="5.39" height="7.09" rx=".28" ry=".28" transform="translate(-10.37 326.43) rotate(-90)"/><g><rect class="cls-17" x="154.99" y="171.31" width="1.23" height=".79" transform="translate(-16.1 327.32) rotate(-90)"/><rect class="cls-17" x="158.2" y="171.31" width="1.23" height=".79" transform="translate(-12.89 330.53) rotate(-90)"/><rect class="cls-17" x="159.78" y="171.31" width="1.23" height=".79" transform="translate(-11.31 332.11) rotate(-90)"/><rect class="cls-17" x="156.62" y="171.31" width="1.23" height=".79" transform="translate(-14.48 328.94) rotate(-90)"/></g><circle class="cls-16" cx="155.35" cy="170.26" r=".31"/><g><rect class="cls-17" x="155.02" y="164.7" width="1.23" height=".79" transform="translate(-9.46 320.72) rotate(-90)"/><rect class="cls-17" x="158.22" y="164.7" width="1.23" height=".79" transform="translate(-6.25 323.93) rotate(-90)"/><rect class="cls-17" x="159.81" y="164.7" width="1.23" height=".79" transform="translate(-4.67 325.52) rotate(-90)"/><rect class="cls-17" x="156.64" y="164.7" width="1.23" height=".79" transform="translate(-7.84 322.35) rotate(-90)"/></g></g><g><rect class="cls-14" x="155.75" y="178.06" width="5.39" height="7.09" rx=".28" ry=".28" transform="translate(-23.16 340.05) rotate(-90)"/><g><rect class="cls-17" x="155.41" y="184.52" width="1.23" height=".79" transform="translate(-28.89 340.94) rotate(-90)"/><rect class="cls-17" x="158.62" y="184.52" width="1.23" height=".79" transform="translate(-25.68 344.15) rotate(-90)"/><rect class="cls-17" x="160.2" y="184.52" width="1.23" height=".79" transform="translate(-24.1 345.73) rotate(-90)"/><rect class="cls-17" x="157.03" y="184.52" width="1.23" height=".79" transform="translate(-27.27 342.57) rotate(-90)"/></g><circle class="cls-16" cx="155.76" cy="183.47" r=".31"/><g><rect class="cls-17" x="155.43" y="177.9" width="1.23" height=".79" transform="translate(-22.25 334.35) rotate(-90)"/><rect class="cls-17" x="158.64" y="177.9" width="1.23" height=".79" transform="translate(-19.04 337.55) rotate(-90)"/><rect class="cls-17" x="160.22" y="177.9" width="1.23" height=".79" transform="translate(-17.46 339.14) rotate(-90)"/><rect class="cls-17" x="157.06" y="177.9" width="1.23" height=".79" transform="translate(-20.63 335.97) rotate(-90)"/></g></g><g><rect class="cls-14" x="50.51" y="118.8" width="5.39" height="7.09" rx=".28" ry=".28"/><g><rect class="cls-17" x="49.28" y="119.53" width="1.23" height=".79"/><rect class="cls-17" x="49.28" y="122.73" width="1.23" height=".79"/><rect class="cls-17" x="49.27" y="124.32" width="1.23" height=".79"/><rect class="cls-17" x="49.27" y="121.15" width="1.23" height=".79"/></g><circle class="cls-16" cx="51.34" cy="119.66" r=".31"/><g><rect class="cls-17" x="55.89" y="119.55" width="1.23" height=".79"/><rect class="cls-17" x="55.89" y="122.76" width="1.23" height=".79"/><rect class="cls-17" x="55.89" y="124.34" width="1.23" height=".79"/><rect class="cls-17" x="55.89" y="121.18" width="1.23" height=".79"/></g></g><g><rect class="cls-14" x="203.75" y="103.7" width="5.39" height="7.09" rx=".28" ry=".28" transform="translate(313.69 -99.19) rotate(90)"/><g><rect class="cls-17" x="208.25" y="103.54" width="1.23" height=".79" transform="translate(312.8 -104.92) rotate(90)"/><rect class="cls-17" x="205.04" y="103.54" width="1.23" height=".79" transform="translate(309.59 -101.71) rotate(90)"/><rect class="cls-17" x="203.45" y="103.54" width="1.23" height=".79" transform="translate(308.01 -100.13) rotate(90)"/><rect class="cls-17" x="206.62" y="103.54" width="1.23" height=".79" transform="translate(311.17 -103.3) rotate(90)"/></g><circle class="cls-16" cx="209.12" cy="105.39" r=".31"/><g><rect class="cls-17" x="208.22" y="110.16" width="1.23" height=".79" transform="translate(319.39 -98.28) rotate(90)"/><rect class="cls-17" x="205.01" y="110.16" width="1.23" height=".79" transform="translate(316.18 -95.07) rotate(90)"/><rect class="cls-17" x="203.43" y="110.16" width="1.23" height=".79" transform="translate(314.6 -93.49) rotate(90)"/><rect class="cls-17" x="206.6" y="110.16" width="1.23" height=".79" transform="translate(317.77 -96.66) rotate(90)"/></g></g><g><rect class="cls-14" x="197.89" y="70.24" width="5.39" height="7.09" rx=".28" ry=".28" transform="translate(274.37 -126.8) rotate(90)"/><g><rect class="cls-17" x="202.39" y="70.08" width="1.23" height=".79" transform="translate(273.48 -132.53) rotate(90)"/><rect class="cls-17" x="199.18" y="70.08" width="1.23" height=".79" transform="translate(270.28 -129.32) rotate(90)"/><rect class="cls-17" x="197.6" y="70.08" width="1.23" height=".79" transform="translate(268.69 -127.74) rotate(90)"/><rect class="cls-17" x="200.77" y="70.08" width="1.23" height=".79" transform="translate(271.86 -130.91) rotate(90)"/></g><circle class="cls-16" cx="203.27" cy="71.92" r=".31"/><g><rect class="cls-17" x="202.37" y="76.7" width="1.23" height=".79" transform="translate(280.08 -125.89) rotate(90)"/><rect class="cls-17" x="199.16" y="76.7" width="1.23" height=".79" transform="translate(276.87 -122.68) rotate(90)"/><rect class="cls-17" x="197.58" y="76.69" width="1.23" height=".79" transform="translate(275.28 -121.1) rotate(90)"/><rect class="cls-17" x="200.74" y="76.69" width="1.23" height=".79" transform="translate(278.45 -124.27) rotate(90)"/></g></g><g><rect class="cls-14" x="145.69" y="63.21" width="5.39" height="7.09" rx=".28" ry=".28" transform="translate(81.62 215.14) rotate(-90)"/><g><rect class="cls-17" x="145.35" y="69.67" width="1.23" height=".79" transform="translate(75.9 216.03) rotate(-90)"/><rect class="cls-17" x="148.55" y="69.67" width="1.23" height=".79" transform="translate(79.11 219.24) rotate(-90)"/><rect class="cls-17" x="150.14" y="69.67" width="1.23" height=".79" transform="translate(80.69 220.82) rotate(-90)"/><rect class="cls-17" x="146.97" y="69.67" width="1.23" height=".79" transform="translate(77.52 217.65) rotate(-90)"/></g><circle class="cls-16" cx="145.7" cy="68.62" r=".31"/><g><rect class="cls-17" x="145.37" y="63.05" width="1.23" height=".79" transform="translate(82.54 209.43) rotate(-90)"/><rect class="cls-17" x="148.58" y="63.05" width="1.23" height=".79" transform="translate(85.75 212.64) rotate(-90)"/><rect class="cls-17" x="150.16" y="63.05" width="1.23" height=".79" transform="translate(87.33 214.23) rotate(-90)"/><rect class="cls-17" x="147" y="63.05" width="1.23" height=".79" transform="translate(84.16 211.06) rotate(-90)"/></g></g><g><rect class="cls-14" x="209.69" y="69.62" width="5.39" height="7.09" rx=".28" ry=".28" transform="translate(285.54 -139.22) rotate(90)"/><g><rect class="cls-17" x="214.19" y="69.45" width="1.23" height=".79" transform="translate(284.65 -144.95) rotate(90)"/><rect class="cls-17" x="210.98" y="69.45" width="1.23" height=".79" transform="translate(281.44 -141.74) rotate(90)"/><rect class="cls-17" x="209.39" y="69.45" width="1.23" height=".79" transform="translate(279.86 -140.16) rotate(90)"/><rect class="cls-17" x="212.56" y="69.45" width="1.23" height=".79" transform="translate(283.02 -143.32) rotate(90)"/></g><circle class="cls-16" cx="215.06" cy="71.3" r=".31"/><g><rect class="cls-17" x="214.16" y="76.07" width="1.23" height=".79" transform="translate(291.25 -138.31) rotate(90)"/><rect class="cls-17" x="210.95" y="76.07" width="1.23" height=".79" transform="translate(288.04 -135.1) rotate(90)"/><rect class="cls-17" x="209.37" y="76.07" width="1.23" height=".79" transform="translate(286.45 -133.52) rotate(90)"/><rect class="cls-17" x="212.54" y="76.07" width="1.23" height=".79" transform="translate(289.62 -136.68) rotate(90)"/></g></g><g><rect class="cls-14" x="177.35" y="62.26" width="5.39" height="7.09" rx=".28" ry=".28" transform="translate(114.24 245.85) rotate(-90)"/><g><rect class="cls-17" x="177.01" y="68.72" width="1.23" height=".79" transform="translate(108.51 246.73) rotate(-90)"/><rect class="cls-17" x="180.21" y="68.72" width="1.23" height=".79" transform="translate(111.72 249.94) rotate(-90)"/><rect class="cls-17" x="181.8" y="68.72" width="1.23" height=".79" transform="translate(113.3 251.53) rotate(-90)"/><rect class="cls-17" x="178.63" y="68.72" width="1.23" height=".79" transform="translate(110.13 248.36) rotate(-90)"/></g><circle class="cls-16" cx="177.36" cy="67.67" r=".31"/><g><rect class="cls-17" x="177.03" y="62.1" width="1.23" height=".79" transform="translate(115.15 240.14) rotate(-90)"/><rect class="cls-17" x="180.24" y="62.1" width="1.23" height=".79" transform="translate(118.36 243.35) rotate(-90)"/><rect class="cls-17" x="181.82" y="62.1" width="1.23" height=".79" transform="translate(119.94 244.93) rotate(-90)"/><rect class="cls-17" x="178.66" y="62.1" width="1.23" height=".79" transform="translate(116.77 241.77) rotate(-90)"/></g></g><g><rect class="cls-14" x="161.52" y="63.21" width="5.39" height="7.09" rx=".28" ry=".28" transform="translate(97.46 230.97) rotate(-90)"/><g><rect class="cls-17" x="161.18" y="69.67" width="1.23" height=".79" transform="translate(91.73 231.86) rotate(-90)"/><rect class="cls-17" x="164.38" y="69.67" width="1.23" height=".79" transform="translate(94.94 235.06) rotate(-90)"/><rect class="cls-17" x="165.97" y="69.67" width="1.23" height=".79" transform="translate(96.52 236.65) rotate(-90)"/><rect class="cls-17" x="162.8" y="69.67" width="1.23" height=".79" transform="translate(93.35 233.48) rotate(-90)"/></g><circle class="cls-16" cx="161.53" cy="68.62" r=".31"/><g><rect class="cls-17" x="161.2" y="63.05" width="1.23" height=".79" transform="translate(98.37 225.26) rotate(-90)"/><rect class="cls-17" x="164.41" y="63.05" width="1.23" height=".79" transform="translate(101.58 228.47) rotate(-90)"/><rect class="cls-17" x="165.99" y="63.05" width="1.23" height=".79" transform="translate(103.16 230.06) rotate(-90)"/><rect class="cls-17" x="162.83" y="63.05" width="1.23" height=".79" transform="translate(99.99 226.89) rotate(-90)"/></g></g></g></g><g id="X"><g><g><line class="cls-6" x1="28.75" y1="133.56" x2="10.28" y2="133.56"/><path class="cls-2" d="m28.75,131.59c1.09,0,1.97.88,1.97,1.97,0,1.09-.88,1.97-1.97,1.97s-1.97-.88-1.97-1.97c0-1.09.88-1.97,1.97-1.97Z"/></g><g><line class="cls-7" x1="28.75" y1="133.56" x2="10.28" y2="133.56"/><path class="cls-25" d="m28.75,132.15c.78,0,1.41.63,1.41,1.41s-.63,1.41-1.41,1.41-1.41-.63-1.41-1.41.63-1.41,1.41-1.41Z"/></g></g><g><g><line class="cls-6" x1="36.88" y1="64.52" x2="10.28" y2="64.52"/><path class="cls-2" d="m36.88,62.55c1.09,0,1.97.88,1.97,1.97s-.88,1.97-1.97,1.97-1.97-.88-1.97-1.97.88-1.97,1.97-1.97Z"/></g><g><line class="cls-7" x1="36.88" y1="64.52" x2="10.28" y2="64.52"/><path class="cls-25" d="m36.88,63.11c.78,0,1.41.63,1.41,1.41,0,.78-.63,1.41-1.41,1.41s-1.41-.63-1.41-1.41c0-.78.63-1.41,1.41-1.41Z"/></g></g><g><g><polyline class="cls-6" points="93.72 138.86 93.72 169.74 10.28 169.74"/><path class="cls-2" d="m91.75,138.86c0-1.09.88-1.97,1.97-1.97,1.09,0,1.97.88,1.97,1.97,0,1.09-.88,1.97-1.97,1.97-1.09,0-1.97-.88-1.97-1.97Z"/></g><g><polyline class="cls-7" points="93.72 138.86 93.72 169.74 10.28 169.74"/><path class="cls-25" d="m92.31,138.86c0-.78.63-1.41,1.41-1.41s1.41.63,1.41,1.41c0,.78-.63,1.41-1.41,1.41s-1.41-.63-1.41-1.41Z"/></g></g><g><g><rect class="cls-26" x="2.13" y="165.86" width="11.34" height="7.09" rx="3.4" ry="3.4"/><rect class="cls-11" x="2.13" y="165.86" width="11.34" height="7.09" rx="3.4" ry="3.4"/></g><text class="cls-22" transform="translate(4.88 171.2)"><tspan x="0" y="0">X2</tspan></text></g><g><g><rect class="cls-26" x="2.13" y="130.02" width="15.59" height="7.09" rx="3.4" ry="3.4"/><rect class="cls-11" x="2.13" y="130.02" width="15.59" height="7.09" rx="3.4" ry="3.4"/></g><text class="cls-22" transform="translate(4.88 135.35)"><tspan x="0" y="0">X84</tspan></text></g><g><g><line class="cls-6" x1="28.75" y1="158.36" x2="10.28" y2="158.36"/><path class="cls-2" d="m28.75,156.39c1.09,0,1.97.88,1.97,1.97,0,1.09-.88,1.97-1.97,1.97s-1.97-.88-1.97-1.97c0-1.09.88-1.97,1.97-1.97Z"/></g><g><line class="cls-7" x1="28.75" y1="158.36" x2="10.28" y2="158.36"/><path class="cls-25" d="m28.75,156.95c.78,0,1.41.63,1.41,1.41s-.63,1.41-1.41,1.41-1.41-.63-1.41-1.41.63-1.41,1.41-1.41Z"/></g></g><g><g><rect class="cls-26" x="2.13" y="154.82" width="15.59" height="7.09" rx="3.4" ry="3.4"/><rect class="cls-11" x="2.13" y="154.82" width="15.59" height="7.09" rx="3.4" ry="3.4"/></g><text class="cls-22" transform="translate(4.88 160.16)"><tspan x="0" y="0">X83</tspan></text></g><g><g><rect class="cls-26" x="2.13" y="60.98" width="15.59" height="7.09" rx="3.4" ry="3.4"/><rect class="cls-11" x="2.13" y="60.98" width="15.59" height="7.09" rx="3.4" ry="3.4"/></g><text class="cls-22" transform="translate(4.88 66.32)"><tspan x="0" y="0">X67</tspan></text></g></g></svg>