<?xml version="1.0" encoding="UTF-8"?><svg xmlns="http://www.w3.org/2000/svg" viewBox="0 0 349.8 640.63"><defs><style>.cls-1{stroke:#e0e0e0;}.cls-1,.cls-2,.cls-3,.cls-4,.cls-5,.cls-6,.cls-7,.cls-8,.cls-9,.cls-10,.cls-11{stroke-linejoin:round;}.cls-1,.cls-2,.cls-3,.cls-4,.cls-9{stroke-width:.5px;}.cls-1,.cls-2,.cls-3,.cls-4,.cls-9,.cls-10{stroke-linecap:round;}.cls-1,.cls-5,.cls-6,.cls-7,.cls-8,.cls-9,.cls-10,.cls-11{fill:none;}.cls-12,.cls-13,.cls-14{stroke-width:0px;}.cls-12,.cls-15,.cls-16{fill:#000;}.cls-13{fill:#ffe0b2;}.cls-2,.cls-3,.cls-4,.cls-9,.cls-10{stroke:#000;}.cls-2,.cls-14{fill:#fff;}.cls-3{fill:#c8e6c9;}.cls-4{fill:#bbdefb;}.cls-5,.cls-6,.cls-7,.cls-8,.cls-11{stroke:red;}.cls-6{stroke-dasharray:0 0 3.96 0;}.cls-15{font-family:ArialMT, Arial;font-size:4px;}.cls-7{stroke-dasharray:0 0 0 0 5.87 3.91 3.91 0;}.cls-8{stroke-dasharray:0 0 3.91 0;}.cls-17{letter-spacing:-.09em;}.cls-16{font-family:Arial-BoldMT, Arial;font-size:6px;font-weight:700;}.cls-10{stroke-width:.25px;}.cls-18{letter-spacing:-.04em;}.cls-19{letter-spacing:-.06em;}.cls-11{stroke-dasharray:0 0 0 0 5.94 3.96 3.96 0;}</style></defs><g id="Bckground"><rect class="cls-14" width="349.8" height="640.63"/></g><g id="Frame"><rect class="cls-1" x="5.67" y="5.67" width="338.74" height="629.29"/><text class="cls-16" transform="translate(302 388.35)"><tspan x="0" y="0">High MTTR !</tspan></text><polyline class="cls-5" points="340.16 626.29 340.16 629.29 337.16 629.29"/><line class="cls-8" x1="333.25" y1="629.29" x2="329.33" y2="629.29"/><line class="cls-7" x1="329.33" y1="629.29" x2="178.75" y2="629.29"/><polyline class="cls-5" points="178.75 629.29 175.75 629.29 175.75 626.29"/><line class="cls-6" x1="175.75" y1="622.33" x2="175.75" y2="618.37"/><line class="cls-11" x1="175.75" y1="618.37" x2="175.75" y2="382.84"/><polyline class="cls-5" points="175.75 382.84 175.75 379.84 178.75 379.84"/><line class="cls-8" x1="182.66" y1="379.84" x2="186.57" y2="379.84"/><line class="cls-7" x1="186.57" y1="379.84" x2="337.16" y2="379.84"/><polyline class="cls-5" points="337.16 379.84 340.16 379.84 340.16 382.84"/><line class="cls-6" x1="340.16" y1="386.8" x2="340.16" y2="390.76"/><line class="cls-11" x1="340.16" y1="390.76" x2="340.16" y2="626.29"/></g><g id="Blocks"><path class="cls-3" d="M51.02,99.21l28.35,14.17-28.35,14.17-28.35-14.17,28.35-14.17Z"/><text class="cls-15" transform="translate(36.91 114.82)"><tspan x="0" y="0">Closed valves ?</tspan></text><path class="cls-3" d="M51.02,42.52l28.35,14.17-28.35,14.17-28.35-14.17,28.35-14.17Z"/><text class="cls-15" transform="translate(35.35 58.13)"><tspan x="0" y="0">New installation ?</tspan></text><path class="cls-3" d="M51.02,155.91l28.35,14.17-28.35,14.17-28.35-14.17,28.35-14.17Z"/><text class="cls-15" transform="translate(34.75 171.51)"><tspan class="cls-18" x="0" y="0">W</tspan><tspan x="3.63" y="0">arning 290020 ?</tspan></text><path class="cls-3" d="M51.02,212.6l28.35,14.17-28.35,14.17-28.35-14.17,28.35-14.17Z"/><text class="cls-15" transform="translate(34.75 228.2)"><tspan class="cls-18" x="0" y="0">W</tspan><tspan x="3.63" y="0">arning 290005 ?</tspan></text><path class="cls-3" d="M51.02,255.12l28.35,14.17-28.35,14.17-28.35-14.17,28.35-14.17Z"/><text class="cls-15" transform="translate(40.35 268.32)"><tspan x="0" y="0">Pump cover </tspan><tspan x="1.45" y="4.8">correctly ?</tspan></text><path class="cls-3" d="M51.02,311.81l28.35,14.17-28.35,14.17-28.35-14.17,28.35-14.17Z"/><text class="cls-15" transform="translate(35.79 327.42)"><tspan x="0" y="0">Bad pump tube ?</tspan></text><path class="cls-3" d="M51.02,354.33l28.35,14.17-28.35,14.17-28.35-14.17,28.35-14.17Z"/><text class="cls-15" transform="translate(40.02 369.94)"><tspan x="0" y="0">Heart beat ?</tspan></text><path class="cls-3" d="M51.02,396.85l28.35,14.17-28.35,14.17-28.35-14.17,28.35-14.17Z"/><text class="cls-15" transform="translate(36.02 412.46)"><tspan x="0" y="0">Electrical issue ?</tspan></text><path class="cls-3" d="M51.02,453.54l28.35,14.17-28.35,14.17-28.35-14.17,28.35-14.17Z"/><text class="cls-15" transform="translate(41.68 469.15)"><tspan x="0" y="0">Leakage ?</tspan></text><path class="cls-3" d="M51.02,510.24l28.35,14.17-28.35,14.17-28.35-14.17,28.35-14.17Z"/><text class="cls-15" transform="translate(34.35 525.84)"><tspan x="0" y="0">Clogged ink tube ?</tspan></text><rect class="cls-4" x="107.72" y="184.25" width="56.69" height="28.35"/><text class="cls-15" transform="translate(120.84 199.86)"><tspan x="0" y="0">Clean ink system</tspan></text><rect class="cls-4" x="107.72" y="127.56" width="56.69" height="28.35"/><text class="cls-15" transform="translate(124.95 143.16)"><tspan x="0" y="0">Open valves</tspan></text><rect class="cls-4" x="107.72" y="70.87" width="56.69" height="28.35"/><text class="cls-15" transform="translate(122.95 86.47)"><tspan x="0" y="0">Mark as empty</tspan></text><rect class="cls-13" x="22.68" y="14.17" width="56.69" height="14.17" rx="5.67" ry="5.67"/><rect class="cls-9" x="22.68" y="14.17" width="56.69" height="14.17" rx="5.67" ry="5.67"/><text class="cls-15" transform="translate(46.8 22.61)"><tspan x="0" y="0">Start</tspan></text><rect class="cls-13" x="22.68" y="616.54" width="56.69" height="14.17" rx="5.67" ry="5.67"/><rect class="cls-9" x="22.68" y="616.54" width="56.69" height="14.17" rx="5.67" ry="5.67"/><text class="cls-15" transform="translate(47.46 624.97)"><tspan x="0" y="0">End</tspan></text><rect class="cls-4" x="192.76" y="283.46" width="56.69" height="28.35"/><text class="cls-15" transform="translate(208.32 299.07)"><tspan x="0" y="0">Replace tubes</tspan></text><rect class="cls-4" x="107.72" y="283.46" width="56.69" height="28.35"/><text class="cls-15" transform="translate(116.61 299.07)"><tspan x="0" y="0">Correct cover position</tspan></text><rect class="cls-4" x="107.72" y="425.2" width="56.69" height="28.35"/><text class="cls-15" transform="translate(125.84 440.8)"><tspan x="0" y="0">Solve issue</tspan></text><rect class="cls-4" x="107.72" y="481.89" width="56.69" height="28.35"/><text class="cls-15" transform="translate(130.17 497.5)"><tspan x="0" y="0">Repair</tspan></text><rect class="cls-4" x="107.72" y="552.76" width="56.69" height="28.35"/><text class="cls-15" transform="translate(121.16 568.36)"><tspan x="0" y="0">Replace ink tube</tspan></text><path class="cls-3" d="M221.1,396.85l28.35,14.17-28.35,14.17-28.35-14.17,28.35-14.17Z"/><text class="cls-15" transform="translate(211.21 412.46)"><tspan x="0" y="0">O-ring v1 ?</tspan></text><path class="cls-3" d="M221.1,453.54l28.35,14.17-28.35,14.17-28.35-14.17,28.35-14.17Z"/><text class="cls-15" transform="translate(204.98 469.15)"><tspan x="0" y="0">Air tube clogged ?</tspan></text><path class="cls-3" d="M221.1,552.76l28.35,14.17-28.35,14.17-28.35-14.17,28.35-14.17Z"/><text class="cls-15" transform="translate(213.32 568.36)"><tspan x="0" y="0">Solved ?</tspan></text><rect class="cls-4" x="277.8" y="425.2" width="56.69" height="28.35"/><text class="cls-15" transform="translate(289.91 440.8)"><tspan x="0" y="0">Replace printhead</tspan></text><rect class="cls-4" x="277.8" y="481.89" width="56.69" height="28.35"/><text class="cls-15" transform="translate(291.13 497.5)"><tspan x="0" y="0">Replace air hose</tspan></text><rect class="cls-4" x="192.76" y="510.24" width="56.69" height="28.35"/><text class="cls-15" transform="translate(204.54 525.84)"><tspan x="0" y="0">Replace boiler unit</tspan></text><rect class="cls-4" x="277.8" y="581.1" width="56.69" height="28.35"/><text class="cls-15" transform="translate(289.91 596.71)"><tspan x="0" y="0">Replace printhead</tspan></text><rect class="cls-4" x="22.68" y="552.76" width="56.69" height="28.35"/><text class="cls-15" transform="translate(43.35 568.36)"><tspan x="0" y="0">Escalate</tspan></text></g><g id="Lines"><line class="cls-13" x1="51.02" y1="28.35" x2="51.02" y2="42.52"/><line class="cls-10" x1="51.02" y1="28.35" x2="51.02" y2="40.26"/><path class="cls-12" d="M51.02,42.52c-.4-1.06-1.07-2.39-1.78-3.21l1.78.65,1.78-.65c-.71.82-1.39,2.14-1.78,3.21Z"/><line class="cls-13" x1="51.02" y1="70.87" x2="51.02" y2="99.21"/><line class="cls-10" x1="51.02" y1="70.87" x2="51.02" y2="96.95"/><path class="cls-12" d="M51.02,99.21c-.4-1.06-1.07-2.39-1.78-3.21l1.78.65,1.78-.65c-.71.82-1.39,2.14-1.78,3.21Z"/><polyline class="cls-10" points="221.1 314.07 221.1 325.98 79.37 325.98"/><path class="cls-12" d="M221.1,311.81c-.4,1.06-1.07,2.39-1.78,3.21l1.78-.65,1.78.65c-.71-.82-1.39-2.14-1.78-3.21Z"/><polyline class="cls-10" points="306.14 609.45 306.14 623.62 81.63 623.62"/><path class="cls-12" d="M79.37,623.62c1.06-.4,2.39-1.07,3.21-1.78l-.65,1.78.65,1.78c-.82-.71-2.14-1.39-3.21-1.78Z"/><polyline class="cls-10" points="79.37 411.02 136.06 411.02 136.06 422.93"/><path class="cls-12" d="M136.06,425.2c-.4-1.06-1.07-2.39-1.78-3.21l1.78.65,1.78-.65c-.71.82-1.39,2.14-1.78,3.21Z"/><path class="cls-14" d="M92.13,411.02c0,1.56-1.28,2.83-2.83,2.83h-4.25c-1.56,0-2.83-1.28-2.83-2.83h0c0-1.56,1.28-2.83,2.83-2.83h4.25c1.56,0,2.83,1.28,2.83,2.83h0Z"/><path class="cls-9" d="M92.13,411.02c0,1.56-1.28,2.83-2.83,2.83h-4.25c-1.56,0-2.83-1.28-2.83-2.83h0c0-1.56,1.28-2.83,2.83-2.83h4.25c1.56,0,2.83,1.28,2.83,2.83h0Z"/><text class="cls-15" transform="translate(83.9 412.52)"><tspan class="cls-17" x="0" y="0">Y</tspan><tspan x="2.3" y="0">es</tspan></text><polyline class="cls-10" points="79.37 467.72 136.06 467.72 136.06 479.63"/><path class="cls-12" d="M136.06,481.89c-.4-1.06-1.07-2.39-1.78-3.21l1.78.65,1.78-.65c-.71.82-1.39,2.14-1.78,3.21Z"/><path class="cls-14" d="M92.13,467.72c0,1.56-1.28,2.83-2.83,2.83h-4.25c-1.56,0-2.83-1.28-2.83-2.83h0c0-1.56,1.28-2.83,2.83-2.83h4.25c1.56,0,2.83,1.28,2.83,2.83h0Z"/><path class="cls-9" d="M92.13,467.72c0,1.56-1.28,2.83-2.83,2.83h-4.25c-1.56,0-2.83-1.28-2.83-2.83h0c0-1.56,1.28-2.83,2.83-2.83h4.25c1.56,0,2.83,1.28,2.83,2.83h0Z"/><text class="cls-15" transform="translate(83.9 469.21)"><tspan class="cls-17" x="0" y="0">Y</tspan><tspan x="2.3" y="0">es</tspan></text><polyline class="cls-10" points="79.37 524.41 136.06 524.41 136.06 550.49"/><path class="cls-12" d="M136.06,552.76c-.4-1.06-1.07-2.39-1.78-3.21l1.78.65,1.78-.65c-.71.82-1.39,2.14-1.78,3.21Z"/><path class="cls-14" d="M92.13,524.41c0,1.56-1.28,2.83-2.83,2.83h-4.25c-1.56,0-2.83-1.28-2.83-2.83h0c0-1.56,1.28-2.83,2.83-2.83h4.25c1.56,0,2.83,1.28,2.83,2.83h0Z"/><path class="cls-9" d="M92.13,524.41c0,1.56-1.28,2.83-2.83,2.83h-4.25c-1.56,0-2.83-1.28-2.83-2.83h0c0-1.56,1.28-2.83,2.83-2.83h4.25c1.56,0,2.83,1.28,2.83,2.83h0Z"/><text class="cls-15" transform="translate(83.9 525.9)"><tspan class="cls-17" x="0" y="0">Y</tspan><tspan x="2.3" y="0">es</tspan></text><polyline class="cls-10" points="249.45 411.02 306.14 411.02 306.14 422.93"/><path class="cls-12" d="M306.14,425.2c-.4-1.06-1.07-2.39-1.78-3.21l1.78.65,1.78-.65c-.71.82-1.39,2.14-1.78,3.21Z"/><path class="cls-14" d="M262.2,411.02c0,1.56-1.28,2.83-2.83,2.83h-4.25c-1.56,0-2.83-1.28-2.83-2.83s1.28-2.83,2.83-2.83h4.25c1.56,0,2.83,1.28,2.83,2.83Z"/><path class="cls-9" d="M262.2,411.02c0,1.56-1.28,2.83-2.83,2.83h-4.25c-1.56,0-2.83-1.28-2.83-2.83s1.28-2.83,2.83-2.83h4.25c1.56,0,2.83,1.28,2.83,2.83Z"/><text class="cls-15" transform="translate(253.98 412.52)"><tspan class="cls-17" x="0" y="0">Y</tspan><tspan x="2.3" y="0">es</tspan></text><polyline class="cls-10" points="249.45 467.72 306.14 467.72 306.14 479.63"/><path class="cls-12" d="M306.14,481.89c-.4-1.06-1.07-2.39-1.78-3.21l1.78.65,1.78-.65c-.71.82-1.39,2.14-1.78,3.21Z"/><path class="cls-14" d="M262.2,467.72c0,1.56-1.28,2.83-2.83,2.83h-4.25c-1.56,0-2.83-1.28-2.83-2.83h0c0-1.56,1.28-2.83,2.83-2.83h4.25c1.56,0,2.83,1.28,2.83,2.83h0Z"/><path class="cls-9" d="M262.2,467.72c0,1.56-1.28,2.83-2.83,2.83h-4.25c-1.56,0-2.83-1.28-2.83-2.83h0c0-1.56,1.28-2.83,2.83-2.83h4.25c1.56,0,2.83,1.28,2.83,2.83h0Z"/><text class="cls-15" transform="translate(253.98 469.21)"><tspan class="cls-17" x="0" y="0">Y</tspan><tspan x="2.3" y="0">es</tspan></text><polyline class="cls-10" points="249.45 566.93 306.14 566.93 306.14 578.84"/><path class="cls-12" d="M306.14,581.1c-.4-1.06-1.07-2.39-1.78-3.21l1.78.65,1.78-.65c-.71.82-1.39,2.14-1.78,3.21Z"/><path class="cls-14" d="M262.2,566.93c0,1.56-1.28,2.83-2.83,2.83h-4.25c-1.56,0-2.83-1.28-2.83-2.83h0c0-1.56,1.28-2.83,2.83-2.83h4.25c1.56,0,2.83,1.28,2.83,2.83h0Z"/><path class="cls-9" d="M262.2,566.93c0,1.56-1.28,2.83-2.83,2.83h-4.25c-1.56,0-2.83-1.28-2.83-2.83h0c0-1.56,1.28-2.83,2.83-2.83h4.25c1.56,0,2.83,1.28,2.83,2.83h0Z"/><text class="cls-15" transform="translate(254.69 568.42)"><tspan x="0" y="0">No</tspan></text><polyline class="cls-10" points="79.37 269.29 136.06 269.29 136.06 281.2"/><path class="cls-12" d="M136.06,283.46c-.4-1.06-1.07-2.39-1.78-3.21l1.78.65,1.78-.65c-.71.82-1.39,2.14-1.78,3.21Z"/><polyline class="cls-10" points="79.37 226.77 221.1 226.77 221.1 281.2"/><path class="cls-12" d="M221.1,283.46c-.4-1.06-1.07-2.39-1.78-3.21l1.78.65,1.78-.65c-.71.82-1.39,2.14-1.78,3.21Z"/><path class="cls-14" d="M92.13,226.77c0,1.56-1.28,2.83-2.83,2.83h-4.25c-1.56,0-2.83-1.28-2.83-2.83s1.28-2.83,2.83-2.83h4.25c1.56,0,2.83,1.28,2.83,2.83Z"/><path class="cls-9" d="M92.13,226.77c0,1.56-1.28,2.83-2.83,2.83h-4.25c-1.56,0-2.83-1.28-2.83-2.83s1.28-2.83,2.83-2.83h4.25c1.56,0,2.83,1.28,2.83,2.83Z"/><text class="cls-15" transform="translate(83.9 228.26)"><tspan class="cls-17" x="0" y="0">Y</tspan><tspan x="2.3" y="0">es</tspan></text><path class="cls-14" d="M92.13,269.29c0,1.56-1.28,2.83-2.83,2.83h-4.25c-1.56,0-2.83-1.28-2.83-2.83s1.28-2.83,2.83-2.83h4.25c1.56,0,2.83,1.28,2.83,2.83Z"/><path class="cls-9" d="M92.13,269.29c0,1.56-1.28,2.83-2.83,2.83h-4.25c-1.56,0-2.83-1.28-2.83-2.83s1.28-2.83,2.83-2.83h4.25c1.56,0,2.83,1.28,2.83,2.83Z"/><text class="cls-15" transform="translate(84.61 270.78)"><tspan x="0" y="0">No</tspan></text><path class="cls-14" d="M92.13,325.98c0,1.56-1.28,2.83-2.83,2.83h-4.25c-1.56,0-2.83-1.28-2.83-2.83s1.28-2.83,2.83-2.83h4.25c1.56,0,2.83,1.28,2.83,2.83Z"/><path class="cls-9" d="M92.13,325.98c0,1.56-1.28,2.83-2.83,2.83h-4.25c-1.56,0-2.83-1.28-2.83-2.83s1.28-2.83,2.83-2.83h4.25c1.56,0,2.83,1.28,2.83,2.83Z"/><text class="cls-15" transform="translate(83.9 327.48)"><tspan class="cls-17" x="0" y="0">Y</tspan><tspan x="2.3" y="0">es</tspan></text><polyline class="cls-10" points="221.1 394.59 221.1 368.5 79.37 368.5"/><path class="cls-12" d="M221.1,396.85c.4-1.06,1.07-2.39,1.78-3.21l-1.78.65-1.78-.65c.71.82,1.39,2.14,1.78,3.21Z"/><path class="cls-14" d="M92.13,368.5c0,1.56-1.28,2.83-2.83,2.83h-4.25c-1.56,0-2.83-1.28-2.83-2.83s1.28-2.83,2.83-2.83h4.25c1.56,0,2.83,1.28,2.83,2.83Z"/><path class="cls-9" d="M92.13,368.5c0,1.56-1.28,2.83-2.83,2.83h-4.25c-1.56,0-2.83-1.28-2.83-2.83s1.28-2.83,2.83-2.83h4.25c1.56,0,2.83,1.28,2.83,2.83Z"/><text class="cls-15" transform="translate(83.9 370)"><tspan class="cls-17" x="0" y="0">Y</tspan><tspan x="2.3" y="0">es</tspan></text><polyline class="cls-10" points="79.37 56.69 136.06 56.69 136.06 68.6"/><path class="cls-12" d="M136.06,70.87c-.4-1.06-1.07-2.39-1.78-3.21l1.78.65,1.78-.65c-.71.82-1.39,2.14-1.78,3.21Z"/><path class="cls-14" d="M55.98,76.54c0,1.56-1.28,2.83-2.83,2.83h-4.25c-1.56,0-2.83-1.28-2.83-2.83h0c0-1.56,1.28-2.83,2.83-2.83h4.25c1.56,0,2.83,1.28,2.83,2.83h0Z"/><path class="cls-9" d="M55.98,76.54c0,1.56-1.28,2.83-2.83,2.83h-4.25c-1.56,0-2.83-1.28-2.83-2.83h0c0-1.56,1.28-2.83,2.83-2.83h4.25c1.56,0,2.83,1.28,2.83,2.83h0Z"/><text class="cls-15" transform="translate(48.47 78.03)"><tspan x="0" y="0">No</tspan></text><line class="cls-13" x1="51.02" y1="127.56" x2="51.02" y2="155.91"/><line class="cls-10" x1="51.02" y1="127.56" x2="51.02" y2="153.64"/><path class="cls-12" d="M51.02,155.91c-.4-1.06-1.07-2.39-1.78-3.21l1.78.65,1.78-.65c-.71.82-1.39,2.14-1.78,3.21Z"/><path class="cls-14" d="M55.98,133.23c0,1.56-1.28,2.83-2.83,2.83h-4.25c-1.56,0-2.83-1.28-2.83-2.83h0c0-1.56,1.28-2.83,2.83-2.83h4.25c1.56,0,2.83,1.28,2.83,2.83h0Z"/><path class="cls-9" d="M55.98,133.23c0,1.56-1.28,2.83-2.83,2.83h-4.25c-1.56,0-2.83-1.28-2.83-2.83h0c0-1.56,1.28-2.83,2.83-2.83h4.25c1.56,0,2.83,1.28,2.83,2.83h0Z"/><text class="cls-15" transform="translate(48.47 134.72)"><tspan x="0" y="0">No</tspan></text><line class="cls-13" x1="51.02" y1="184.25" x2="51.02" y2="212.6"/><line class="cls-10" x1="51.02" y1="184.25" x2="51.02" y2="210.34"/><path class="cls-12" d="M51.02,212.6c-.4-1.06-1.07-2.39-1.78-3.21l1.78.65,1.78-.65c-.71.82-1.39,2.14-1.78,3.21Z"/><path class="cls-14" d="M55.98,189.92c0,1.56-1.28,2.83-2.83,2.83h-4.25c-1.56,0-2.83-1.28-2.83-2.83h0c0-1.56,1.28-2.83,2.83-2.83h4.25c1.56,0,2.83,1.28,2.83,2.83h0Z"/><path class="cls-9" d="M55.98,189.92c0,1.56-1.28,2.83-2.83,2.83h-4.25c-1.56,0-2.83-1.28-2.83-2.83h0c0-1.56,1.28-2.83,2.83-2.83h4.25c1.56,0,2.83,1.28,2.83,2.83h0Z"/><text class="cls-15" transform="translate(48.47 191.41)"><tspan x="0" y="0">No</tspan></text><line class="cls-13" x1="51.02" y1="240.94" x2="51.02" y2="255.12"/><line class="cls-10" x1="51.02" y1="240.94" x2="51.02" y2="252.85"/><path class="cls-12" d="M51.02,255.12c-.4-1.06-1.07-2.39-1.78-3.21l1.78.65,1.78-.65c-.71.82-1.39,2.14-1.78,3.21Z"/><path class="cls-14" d="M55.98,246.61c0,1.56-1.28,2.83-2.83,2.83h-4.25c-1.56,0-2.83-1.28-2.83-2.83h0c0-1.56,1.28-2.83,2.83-2.83h4.25c1.56,0,2.83,1.28,2.83,2.83h0Z"/><path class="cls-9" d="M55.98,246.61c0,1.56-1.28,2.83-2.83,2.83h-4.25c-1.56,0-2.83-1.28-2.83-2.83h0c0-1.56,1.28-2.83,2.83-2.83h4.25c1.56,0,2.83,1.28,2.83,2.83h0Z"/><text class="cls-15" transform="translate(48.47 248.11)"><tspan x="0" y="0">No</tspan></text><line class="cls-13" x1="51.02" y1="283.46" x2="51.02" y2="311.81"/><line class="cls-10" x1="51.02" y1="283.46" x2="51.02" y2="309.55"/><path class="cls-12" d="M51.02,311.81c-.4-1.06-1.07-2.39-1.78-3.21l1.78.65,1.78-.65c-.71.82-1.39,2.14-1.78,3.21Z"/><path class="cls-14" d="M55.98,289.13c0,1.56-1.28,2.83-2.83,2.83h-4.25c-1.56,0-2.83-1.28-2.83-2.83h0c0-1.56,1.28-2.83,2.83-2.83h4.25c1.56,0,2.83,1.28,2.83,2.83h0Z"/><path class="cls-9" d="M55.98,289.13c0,1.56-1.28,2.83-2.83,2.83h-4.25c-1.56,0-2.83-1.28-2.83-2.83h0c0-1.56,1.28-2.83,2.83-2.83h4.25c1.56,0,2.83,1.28,2.83,2.83h0Z"/><text class="cls-15" transform="translate(47.76 290.63)"><tspan class="cls-17" x="0" y="0">Y</tspan><tspan x="2.3" y="0">es</tspan></text><line class="cls-13" x1="51.02" y1="340.16" x2="51.02" y2="354.33"/><line class="cls-10" x1="51.02" y1="340.16" x2="51.02" y2="352.07"/><path class="cls-12" d="M51.02,354.33c-.4-1.06-1.07-2.39-1.78-3.21l1.78.65,1.78-.65c-.71.82-1.39,2.14-1.78,3.21Z"/><path class="cls-14" d="M55.98,345.83c0,1.56-1.28,2.83-2.83,2.83h-4.25c-1.56,0-2.83-1.28-2.83-2.83h0c0-1.56,1.28-2.83,2.83-2.83h4.25c1.56,0,2.83,1.28,2.83,2.83h0Z"/><path class="cls-9" d="M55.98,345.83c0,1.56-1.28,2.83-2.83,2.83h-4.25c-1.56,0-2.83-1.28-2.83-2.83h0c0-1.56,1.28-2.83,2.83-2.83h4.25c1.56,0,2.83,1.28,2.83,2.83h0Z"/><text class="cls-15" transform="translate(48.47 347.32)"><tspan x="0" y="0">No</tspan></text><line class="cls-13" x1="51.02" y1="382.68" x2="51.02" y2="396.85"/><line class="cls-10" x1="51.02" y1="382.68" x2="51.02" y2="394.59"/><path class="cls-12" d="M51.02,396.85c-.4-1.06-1.07-2.39-1.78-3.21l1.78.65,1.78-.65c-.71.82-1.39,2.14-1.78,3.21Z"/><path class="cls-14" d="M55.98,388.35c0,1.56-1.28,2.83-2.83,2.83h-4.25c-1.56,0-2.83-1.28-2.83-2.83h0c0-1.56,1.28-2.83,2.83-2.83h4.25c1.56,0,2.83,1.28,2.83,2.83h0Z"/><path class="cls-9" d="M55.98,388.35c0,1.56-1.28,2.83-2.83,2.83h-4.25c-1.56,0-2.83-1.28-2.83-2.83h0c0-1.56,1.28-2.83,2.83-2.83h4.25c1.56,0,2.83,1.28,2.83,2.83h0Z"/><text class="cls-15" transform="translate(48.47 389.84)"><tspan x="0" y="0">No</tspan></text><line class="cls-13" x1="51.02" y1="425.2" x2="51.02" y2="453.54"/><line class="cls-10" x1="51.02" y1="425.2" x2="51.02" y2="451.28"/><path class="cls-12" d="M51.02,453.54c-.4-1.06-1.07-2.39-1.78-3.21l1.78.65,1.78-.65c-.71.82-1.39,2.14-1.78,3.21Z"/><path class="cls-14" d="M55.98,430.87c0,1.56-1.28,2.83-2.83,2.83h-4.25c-1.56,0-2.83-1.28-2.83-2.83h0c0-1.56,1.28-2.83,2.83-2.83h4.25c1.56,0,2.83,1.28,2.83,2.83h0Z"/><path class="cls-9" d="M55.98,430.87c0,1.56-1.28,2.83-2.83,2.83h-4.25c-1.56,0-2.83-1.28-2.83-2.83h0c0-1.56,1.28-2.83,2.83-2.83h4.25c1.56,0,2.83,1.28,2.83,2.83h0Z"/><text class="cls-15" transform="translate(48.47 432.36)"><tspan x="0" y="0">No</tspan></text><line class="cls-13" x1="221.1" y1="425.2" x2="221.1" y2="453.54"/><line class="cls-10" x1="221.1" y1="425.2" x2="221.1" y2="451.28"/><path class="cls-12" d="M221.1,453.54c-.4-1.06-1.07-2.39-1.78-3.21l1.78.65,1.78-.65c-.71.82-1.39,2.14-1.78,3.21Z"/><path class="cls-14" d="M226.06,430.87c0,1.56-1.28,2.83-2.83,2.83h-4.25c-1.56,0-2.83-1.28-2.83-2.83h0c0-1.56,1.28-2.83,2.83-2.83h4.25c1.56,0,2.83,1.28,2.83,2.83h0Z"/><path class="cls-9" d="M226.06,430.87c0,1.56-1.28,2.83-2.83,2.83h-4.25c-1.56,0-2.83-1.28-2.83-2.83h0c0-1.56,1.28-2.83,2.83-2.83h4.25c1.56,0,2.83,1.28,2.83,2.83h0Z"/><text class="cls-15" transform="translate(218.55 432.36)"><tspan x="0" y="0">No</tspan></text><line class="cls-13" x1="221.1" y1="481.89" x2="221.1" y2="510.24"/><line class="cls-10" x1="221.1" y1="481.89" x2="221.1" y2="507.97"/><path class="cls-12" d="M221.1,510.24c-.4-1.06-1.07-2.39-1.78-3.21l1.78.65,1.78-.65c-.71.82-1.39,2.14-1.78,3.21Z"/><path class="cls-14" d="M226.06,487.56c0,1.56-1.28,2.83-2.83,2.83h-4.25c-1.56,0-2.83-1.28-2.83-2.83h0c0-1.56,1.28-2.83,2.83-2.83h4.25c1.56,0,2.83,1.28,2.83,2.83h0Z"/><path class="cls-9" d="M226.06,487.56c0,1.56-1.28,2.83-2.83,2.83h-4.25c-1.56,0-2.83-1.28-2.83-2.83h0c0-1.56,1.28-2.83,2.83-2.83h4.25c1.56,0,2.83,1.28,2.83,2.83h0Z"/><text class="cls-15" transform="translate(218.55 489.05)"><tspan x="0" y="0">No</tspan></text><line class="cls-13" x1="221.1" y1="538.58" x2="221.1" y2="552.76"/><line class="cls-10" x1="221.1" y1="538.58" x2="221.1" y2="550.49"/><path class="cls-12" d="M221.1,552.76c-.4-1.06-1.07-2.39-1.78-3.21l1.78.65,1.78-.65c-.71.82-1.39,2.14-1.78,3.21Z"/><line class="cls-13" x1="221.1" y1="581.1" x2="221.1" y2="623.62"/><line class="cls-10" x1="221.1" y1="581.1" x2="221.1" y2="621.36"/><path class="cls-12" d="M221.1,623.62c-.4-1.06-1.07-2.39-1.78-3.21l1.78.65,1.78-.65c-.71.82-1.39,2.14-1.78,3.21Z"/><path class="cls-14" d="M226.06,586.77c0,1.56-1.28,2.83-2.83,2.83h-4.25c-1.56,0-2.83-1.28-2.83-2.83s1.28-2.83,2.83-2.83h4.25c1.56,0,2.83,1.28,2.83,2.83Z"/><path class="cls-9" d="M226.06,586.77c0,1.56-1.28,2.83-2.83,2.83h-4.25c-1.56,0-2.83-1.28-2.83-2.83s1.28-2.83,2.83-2.83h4.25c1.56,0,2.83,1.28,2.83,2.83Z"/><text class="cls-15" transform="translate(217.84 588.26)"><tspan class="cls-17" x="0" y="0">Y</tspan><tspan x="2.3" y="0">es</tspan></text><line class="cls-13" x1="51.02" y1="481.89" x2="51.02" y2="510.24"/><line class="cls-10" x1="51.02" y1="481.89" x2="51.02" y2="507.97"/><path class="cls-12" d="M51.02,510.24c-.4-1.06-1.07-2.39-1.78-3.21l1.78.65,1.78-.65c-.71.82-1.39,2.14-1.78,3.21Z"/><path class="cls-14" d="M55.98,487.56c0,1.56-1.28,2.83-2.83,2.83h-4.25c-1.56,0-2.83-1.28-2.83-2.83h0c0-1.56,1.28-2.83,2.83-2.83h4.25c1.56,0,2.83,1.28,2.83,2.83h0Z"/><path class="cls-9" d="M55.98,487.56c0,1.56-1.28,2.83-2.83,2.83h-4.25c-1.56,0-2.83-1.28-2.83-2.83h0c0-1.56,1.28-2.83,2.83-2.83h4.25c1.56,0,2.83,1.28,2.83,2.83h0Z"/><text class="cls-15" transform="translate(48.47 489.05)"><tspan x="0" y="0">No</tspan></text><line class="cls-13" x1="51.02" y1="538.58" x2="51.02" y2="552.76"/><line class="cls-10" x1="51.02" y1="538.58" x2="51.02" y2="550.49"/><path class="cls-12" d="M51.02,552.76c-.4-1.06-1.07-2.39-1.78-3.21l1.78.65,1.78-.65c-.71.82-1.39,2.14-1.78,3.21Z"/><line class="cls-13" x1="51.02" y1="581.1" x2="51.02" y2="616.54"/><line class="cls-10" x1="51.02" y1="581.1" x2="51.02" y2="614.27"/><path class="cls-12" d="M51.02,616.54c-.4-1.06-1.07-2.39-1.78-3.21l1.78.65,1.78-.65c-.71.82-1.39,2.14-1.78,3.21Z"/><line class="cls-13" x1="136.06" y1="581.1" x2="136.06" y2="623.62"/><line class="cls-10" x1="136.06" y1="581.1" x2="136.06" y2="621.36"/><path class="cls-12" d="M136.06,623.62c-.4-1.06-1.07-2.39-1.78-3.21l1.78.65,1.78-.65c-.71.82-1.39,2.14-1.78,3.21Z"/><path class="cls-14" d="M55.98,544.25c0,1.56-1.28,2.83-2.83,2.83h-4.25c-1.56,0-2.83-1.28-2.83-2.83h0c0-1.56,1.28-2.83,2.83-2.83h4.25c1.56,0,2.83,1.28,2.83,2.83h0Z"/><path class="cls-9" d="M55.98,544.25c0,1.56-1.28,2.83-2.83,2.83h-4.25c-1.56,0-2.83-1.28-2.83-2.83h0c0-1.56,1.28-2.83,2.83-2.83h4.25c1.56,0,2.83,1.28,2.83,2.83h0Z"/><text class="cls-15" transform="translate(48.47 545.74)"><tspan x="0" y="0">No</tspan></text><path class="cls-14" d="M92.13,56.69c0,1.56-1.28,2.83-2.83,2.83h-4.25c-1.56,0-2.83-1.28-2.83-2.83s1.28-2.83,2.83-2.83h4.25c1.56,0,2.83,1.28,2.83,2.83Z"/><path class="cls-9" d="M92.13,56.69c0,1.56-1.28,2.83-2.83,2.83h-4.25c-1.56,0-2.83-1.28-2.83-2.83s1.28-2.83,2.83-2.83h4.25c1.56,0,2.83,1.28,2.83,2.83Z"/><text class="cls-15" transform="translate(83.9 58.19)"><tspan class="cls-17" x="0" y="0">Y</tspan><tspan x="2.3" y="0">es</tspan></text><polyline class="cls-10" points="79.37 113.39 136.06 113.39 136.06 125.3"/><path class="cls-12" d="M136.06,127.56c-.4-1.06-1.07-2.39-1.78-3.21l1.78.65,1.78-.65c-.71.82-1.39,2.14-1.78,3.21Z"/><path class="cls-14" d="M92.13,113.39c0,1.56-1.28,2.83-2.83,2.83h-4.25c-1.56,0-2.83-1.28-2.83-2.83s1.28-2.83,2.83-2.83h4.25c1.56,0,2.83,1.28,2.83,2.83Z"/><path class="cls-9" d="M92.13,113.39c0,1.56-1.28,2.83-2.83,2.83h-4.25c-1.56,0-2.83-1.28-2.83-2.83s1.28-2.83,2.83-2.83h4.25c1.56,0,2.83,1.28,2.83,2.83Z"/><text class="cls-15" transform="translate(83.9 114.88)"><tspan class="cls-17" x="0" y="0">Y</tspan><tspan x="2.3" y="0">es</tspan></text><polyline class="cls-10" points="79.37 170.08 136.06 170.08 136.06 181.99"/><path class="cls-12" d="M136.06,184.25c-.4-1.06-1.07-2.39-1.78-3.21l1.78.65,1.78-.65c-.71.82-1.39,2.14-1.78,3.21Z"/><path class="cls-14" d="M92.13,170.08c0,1.56-1.28,2.83-2.83,2.83h-4.25c-1.56,0-2.83-1.28-2.83-2.83s1.28-2.83,2.83-2.83h4.25c1.56,0,2.83,1.28,2.83,2.83Z"/><path class="cls-9" d="M92.13,170.08c0,1.56-1.28,2.83-2.83,2.83h-4.25c-1.56,0-2.83-1.28-2.83-2.83s1.28-2.83,2.83-2.83h4.25c1.56,0,2.83,1.28,2.83,2.83Z"/><text class="cls-15" transform="translate(83.9 171.57)"><tspan class="cls-17" x="0" y="0">Y</tspan><tspan x="2.3" y="0">es</tspan></text></g><g id="Numbers"><circle class="cls-2" cx="17.01" cy="56.69" r="5.67"/><text class="cls-16" transform="translate(15.34 58.7)"><tspan x="0" y="0">1</tspan></text><circle class="cls-2" cx="102.05" cy="85.04" r="5.67"/><text class="cls-16" transform="translate(100.38 87.05)"><tspan x="0" y="0">2</tspan></text><circle class="cls-2" cx="17.01" cy="113.39" r="5.67"/><text class="cls-16" transform="translate(15.34 115.4)"><tspan x="0" y="0">3</tspan></text><circle class="cls-2" cx="102.05" cy="141.73" r="5.67"/><text class="cls-16" transform="translate(100.38 143.74)"><tspan x="0" y="0">4</tspan></text><circle class="cls-2" cx="17.01" cy="226.77" r="5.67"/><text class="cls-16" transform="translate(15.34 228.78)"><tspan x="0" y="0">7</tspan></text><circle class="cls-2" cx="102.05" cy="198.43" r="5.67"/><text class="cls-16" transform="translate(100.38 200.44)"><tspan x="0" y="0">6</tspan></text><circle class="cls-2" cx="17.01" cy="170.08" r="5.67"/><text class="cls-16" transform="translate(15.34 172.09)"><tspan x="0" y="0">5</tspan></text><circle class="cls-2" cx="187.09" cy="297.64" r="5.67"/><text class="cls-16" transform="translate(185.42 299.65)"><tspan x="0" y="0">8</tspan></text><circle class="cls-2" cx="17.01" cy="325.98" r="5.67"/><text class="cls-16" transform="translate(13.84 328)"><tspan class="cls-19" x="0" y="0">1</tspan><tspan x="3.01" y="0">1</tspan></text><circle class="cls-2" cx="17.01" cy="368.5" r="5.67"/><text class="cls-16" transform="translate(13.67 370.52)"><tspan x="0" y="0">12</tspan></text><circle class="cls-2" cx="17.01" cy="411.02" r="5.67"/><text class="cls-16" transform="translate(13.67 413.03)"><tspan x="0" y="0">13</tspan></text><circle class="cls-2" cx="17.01" cy="467.72" r="5.67"/><text class="cls-16" transform="translate(13.67 469.73)"><tspan x="0" y="0">15</tspan></text><circle class="cls-2" cx="17.01" cy="524.41" r="5.67"/><text class="cls-16" transform="translate(13.67 526.42)"><tspan x="0" y="0">17</tspan></text><circle class="cls-2" cx="17.01" cy="566.93" r="5.67"/><text class="cls-16" transform="translate(13.67 568.94)"><tspan x="0" y="0">19</tspan></text><circle class="cls-2" cx="17.01" cy="269.29" r="5.67"/><text class="cls-16" transform="translate(15.34 271.3)"><tspan x="0" y="0">9</tspan></text><circle class="cls-2" cx="187.09" cy="411.02" r="5.67"/><text class="cls-16" transform="translate(183.75 413.03)"><tspan x="0" y="0">20</tspan></text><circle class="cls-2" cx="272.13" cy="439.37" r="5.67"/><text class="cls-16" transform="translate(268.79 441.38)"><tspan x="0" y="0">21</tspan></text><circle class="cls-2" cx="272.13" cy="496.06" r="5.67"/><text class="cls-16" transform="translate(268.79 498.07)"><tspan x="0" y="0">23</tspan></text><circle class="cls-2" cx="272.13" cy="595.28" r="5.67"/><text class="cls-16" transform="translate(268.79 597.29)"><tspan x="0" y="0">26</tspan></text><circle class="cls-2" cx="187.09" cy="467.72" r="5.67"/><text class="cls-16" transform="translate(183.75 469.73)"><tspan x="0" y="0">22</tspan></text><circle class="cls-2" cx="187.09" cy="524.41" r="5.67"/><text class="cls-16" transform="translate(183.75 526.42)"><tspan x="0" y="0">24</tspan></text><circle class="cls-2" cx="187.09" cy="566.93" r="5.67"/><text class="cls-16" transform="translate(183.75 568.94)"><tspan x="0" y="0">25</tspan></text><circle class="cls-2" cx="102.05" cy="439.37" r="5.67"/><text class="cls-16" transform="translate(98.71 441.38)"><tspan x="0" y="0">14</tspan></text><circle class="cls-2" cx="102.05" cy="496.06" r="5.67"/><text class="cls-16" transform="translate(98.71 498.07)"><tspan x="0" y="0">16</tspan></text><circle class="cls-2" cx="102.05" cy="566.93" r="5.67"/><text class="cls-16" transform="translate(98.71 568.94)"><tspan x="0" y="0">18</tspan></text><circle class="cls-2" cx="102.05" cy="297.64" r="5.67"/><text class="cls-16" transform="translate(98.71 299.65)"><tspan x="0" y="0">10</tspan></text></g></svg>