<?xml version="1.0" encoding="UTF-8"?>
<svg xmlns="http://www.w3.org/2000/svg" version="1.1" viewBox="0 0 827.72 549.92">
  <!-- Generator: Adobe Illustrator 29.2.1, SVG Export Plug-In . SVG Version: 2.1.0 Build 116)  -->
  <defs>
    <style>
      .st0, .st1 {
        fill: #fff;
      }

      .st1, .st2, .st3, .st4, .st5 {
        stroke: #000;
      }

      .st1, .st2, .st3, .st4, .st5, .st6 {
        stroke-linecap: round;
        stroke-linejoin: round;
      }

      .st1, .st3, .st4, .st5, .st6 {
        stroke-width: .5px;
      }

      .st7 {
        font-size: 3.84px;
      }

      .st7, .st8 {
        font-family: ArialMT, Arial;
      }

      .st9 {
        fill: #ffe0b2;
      }

      .st2 {
        stroke-width: .25px;
      }

      .st2, .st3, .st6 {
        fill: none;
      }

      .st10 {
        font-size: 6px;
      }

      .st10, .st11 {
        font-family: Arial-BoldMT, Arial;
        font-weight: 700;
      }

      .st4 {
        fill: #bbdefb;
      }

      .st8 {
        font-size: 4px;
      }

      .st5 {
        fill: #c8e6c9;
      }

      .st6 {
        stroke: #e0e0e0;
      }

      .st11 {
        font-size: 6.08px;
      }
    </style>
  </defs>
  <g id="Bckground">
    <rect class="st0" width="827.72" height="549.92"/>
  </g>
  <g id="Frame">
    <rect class="st6" x="5.67" y="5.67" width="816.38" height="538.58"/>
    <text class="st10" transform="translate(8.5 13.65)"><tspan x="0" y="0">Customer / Helpdesk</tspan></text>
    <rect class="st6" x="5.67" y="340.16" width="447.87" height="204.09"/>
    <rect class="st6" x="453.54" y="340.16" width="368.5" height="204.09"/>
    <text class="st11" transform="translate(11.34 351.5) scale(.99 1)"><tspan x="0" y="0">Application specialist</tspan></text>
    <text class="st10" transform="translate(459.21 351.43)"><tspan x="0" y="0">Engineer</tspan></text>
  </g>
  <g id="Blocks">
    <g>
      <path class="st5" d="M76.54,62.36l28.35,14.17-28.35,14.17-28.35-14.17,28.35-14.17Z"/>
      <text class="st8" transform="translate(68.53 75.57)"><tspan x="0" y="0">Visible in </tspan><tspan x="-1.56" y="4.8">all colors ?</tspan></text>
    </g>
    <g>
      <path class="st5" d="M76.54,119.06l28.35,14.17-28.35,14.17-28.35-14.17,28.35-14.17Z"/>
      <text class="st8" transform="translate(68.53 132.26)"><tspan x="0" y="0">Visible in</tspan><tspan x="-1.67" y="4.8">all media ?</tspan></text>
    </g>
    <g>
      <path class="st5" d="M671.81,119.06l28.35,14.17-28.35,14.17-28.35-14.17,28.35-14.17Z"/>
      <text class="st8" transform="translate(660.25 134.66)"><tspan x="0" y="0">Expired ink ?</tspan></text>
    </g>
    <g>
      <path class="st5" d="M76.54,175.75l28.35,14.17-28.35,14.17-28.35-14.17,28.35-14.17Z"/>
      <text class="st8" transform="translate(64.64 188.95)"><tspan x="0" y="0">Mostly visible </tspan><tspan x="-1.11" y="4.8">in first 50 cm ?</tspan></text>
    </g>
    <g>
      <rect class="st4" x="302.63" y="300.47" width="56.69" height="28.35"/>
      <text class="st8" transform="translate(312.52 316.08)"><tspan x="0" y="0">Use other batch / roll</tspan></text>
    </g>
    <g>
      <rect class="st4" x="133.23" y="300.47" width="56.69" height="28.35"/>
      <text class="st8" transform="translate(148.24 313.68)"><tspan x="0" y="0">Move printer to </tspan><tspan x="3.67" y="4.8">other room</tspan></text>
    </g>
    <g>
      <rect class="st4" x="218.27" y="300.47" width="56.69" height="28.35"/>
      <text class="st8" transform="translate(228.49 316.08)"><tspan x="0" y="0">Find source of fibers</tspan></text>
    </g>
    <g>
      <path class="st5" d="M161.57,232.57l28.35,14.17-28.35,14.17-28.35-14.17,28.35-14.17Z"/>
      <text class="st8" transform="translate(148.57 245.77)"><tspan x="0" y="0">Cutter in same</tspan><tspan x="6.78" y="4.8">room ?</tspan></text>
    </g>
    <g>
      <path class="st5" d="M330.98,175.75l28.35,14.17-28.35,14.17-28.35-14.17,28.35-14.17Z"/>
      <text class="st8" transform="translate(320.31 191.35)"><tspan x="0" y="0">Cast Vinyl ?</tspan></text>
    </g>
    <g>
      <path class="st5" d="M501.06,232.57l28.35,14.17-28.35,14.17-28.35-14.17,28.35-14.17Z"/>
      <g>
        <path d="M491.35,245.77v-2.86h.57l.68,2.03c.06.19.11.33.14.42.03-.1.08-.26.15-.46l.69-1.99h.51v2.86h-.37v-2.4l-.83,2.4h-.34l-.83-2.44v2.44h-.37Z"/>
        <path d="M496.74,244.77l.38.1c-.08.31-.22.55-.43.71-.21.16-.46.25-.76.25s-.56-.06-.75-.19-.34-.31-.44-.55c-.1-.24-.15-.49-.15-.77,0-.3.06-.56.17-.78.11-.22.28-.39.49-.51.21-.12.44-.17.69-.17.29,0,.53.07.72.22s.33.35.41.62l-.37.09c-.07-.21-.16-.36-.29-.46-.13-.1-.29-.14-.48-.14-.22,0-.4.05-.55.16-.15.11-.25.25-.31.42-.06.18-.09.36-.09.55,0,.24.04.46.11.64.07.18.18.32.33.41.15.09.31.13.49.13.21,0,.39-.06.54-.18.15-.12.25-.3.3-.54Z"/>
        <path d="M498.52,244.73c0-.38.11-.67.32-.85.18-.15.4-.23.65-.23.29,0,.52.09.7.28.18.19.27.44.27.77,0,.27-.04.48-.12.63s-.2.27-.35.36c-.15.08-.32.13-.5.13-.29,0-.53-.09-.7-.28-.18-.19-.27-.45-.27-.8ZM498.88,244.73c0,.27.06.46.17.6.12.13.26.2.44.2s.32-.07.44-.2c.12-.13.17-.34.17-.61,0-.26-.06-.45-.17-.58-.12-.13-.26-.2-.43-.2s-.32.07-.44.2c-.12.13-.17.33-.17.6Z"/>
        <path d="M500.87,245.77v-2.07h.32v.31c.08-.15.16-.24.22-.29s.14-.07.23-.07c.12,0,.24.04.36.11l-.12.33c-.09-.05-.17-.08-.26-.08-.08,0-.15.02-.21.07-.06.05-.11.11-.13.19-.04.12-.06.26-.06.41v1.09h-.35Z"/>
        <path d="M505.41,244.77l.38.1c-.08.31-.22.55-.43.71-.21.16-.46.25-.76.25s-.56-.06-.75-.19-.34-.31-.44-.55c-.1-.24-.15-.49-.15-.77,0-.3.06-.56.17-.78.11-.22.28-.39.49-.51.21-.12.44-.17.69-.17.29,0,.53.07.72.22s.33.35.41.62l-.37.09c-.07-.21-.16-.36-.29-.46-.13-.1-.29-.14-.48-.14-.22,0-.4.05-.55.16-.15.11-.25.25-.31.42-.06.18-.09.36-.09.55,0,.24.04.46.11.64.07.18.18.32.33.41.15.09.31.13.49.13.21,0,.39-.06.54-.18.15-.12.25-.3.3-.54Z"/>
        <path d="M506.2,245.77v-2.86h.35v2.86h-.35Z"/>
        <path d="M508.45,245.52c-.13.11-.26.19-.38.23-.12.05-.25.07-.39.07-.23,0-.4-.06-.53-.17-.12-.11-.18-.25-.18-.43,0-.1.02-.19.07-.28.05-.08.11-.15.18-.2.07-.05.16-.09.25-.12.07-.02.17-.04.31-.05.28-.03.49-.07.63-.12,0-.05,0-.08,0-.09,0-.14-.03-.24-.1-.3-.09-.08-.22-.12-.4-.12-.17,0-.29.03-.37.09-.08.06-.14.16-.17.31l-.34-.05c.03-.15.08-.27.15-.36.07-.09.17-.16.31-.21.13-.05.29-.07.47-.07s.32.02.43.06c.11.04.19.09.24.16.05.06.09.14.11.24.01.06.02.17.02.32v.47c0,.33,0,.53.02.62.01.09.04.17.09.25h-.37c-.04-.07-.06-.16-.07-.26ZM508.42,244.73c-.13.05-.32.1-.57.13-.14.02-.25.04-.31.07-.06.03-.11.06-.14.11-.03.05-.05.11-.05.17,0,.09.04.17.11.23.07.06.17.09.31.09s.26-.03.36-.09.18-.14.23-.24c.04-.08.06-.2.06-.35v-.13Z"/>
        <path d="M509.31,246.57l-.04-.33c.08.02.14.03.2.03.08,0,.14-.01.19-.04s.08-.06.12-.11c.02-.04.06-.12.11-.26,0-.02.02-.05.03-.09l-.79-2.08h.38l.43,1.2c.06.15.11.31.15.48.04-.16.09-.32.14-.47l.44-1.21h.35l-.79,2.11c-.08.23-.15.38-.2.47-.06.12-.13.2-.21.25-.08.05-.18.08-.29.08-.07,0-.14-.01-.23-.04Z"/>
        <path d="M495,249.81l.35.04c-.04.24-.13.42-.29.56-.16.13-.35.2-.57.2-.28,0-.51-.09-.68-.28-.17-.19-.26-.45-.26-.8,0-.22.04-.42.11-.59s.19-.29.34-.38c.15-.08.32-.13.5-.13.22,0,.41.06.55.17.14.11.23.28.28.49l-.34.05c-.03-.14-.09-.24-.17-.31-.08-.07-.18-.11-.3-.11-.18,0-.32.06-.43.19-.11.13-.17.33-.17.6s.05.48.16.61c.11.13.25.19.42.19.14,0,.25-.04.35-.13.09-.08.15-.21.18-.39Z"/>
        <path d="M495.52,249.53c0-.38.11-.67.32-.85.18-.15.4-.23.65-.23.29,0,.52.09.7.28.18.19.27.44.27.77,0,.27-.04.48-.12.63s-.2.27-.35.36c-.15.08-.32.13-.5.13-.29,0-.53-.09-.7-.28-.18-.19-.27-.45-.27-.8ZM495.88,249.53c0,.27.06.46.17.6.12.13.26.2.44.2s.32-.07.44-.2c.12-.13.17-.34.17-.61,0-.26-.06-.45-.17-.58-.12-.13-.26-.2-.43-.2s-.32.07-.44.2c-.12.13-.17.33-.17.6Z"/>
        <path d="M499.23,250.32c-.13.11-.26.19-.38.23-.12.05-.25.07-.39.07-.23,0-.4-.06-.53-.17-.12-.11-.18-.25-.18-.43,0-.1.02-.19.07-.28.05-.08.11-.15.18-.2.07-.05.16-.09.25-.12.07-.02.17-.04.31-.05.28-.03.49-.07.63-.12,0-.05,0-.08,0-.09,0-.14-.03-.24-.1-.3-.09-.08-.22-.12-.4-.12-.17,0-.29.03-.37.09-.08.06-.14.16-.17.31l-.34-.05c.03-.15.08-.27.15-.36.07-.09.17-.16.31-.21.13-.05.29-.07.47-.07s.32.02.43.06c.11.04.19.09.24.16.05.06.09.14.11.24.01.06.02.17.02.32v.47c0,.33,0,.53.02.62.01.09.04.17.09.25h-.37c-.04-.07-.06-.16-.07-.26ZM499.2,249.53c-.13.05-.32.1-.57.13-.14.02-.25.04-.31.07-.06.03-.11.06-.14.11-.03.05-.05.11-.05.17,0,.09.04.17.11.23.07.06.17.09.31.09s.26-.03.36-.09.18-.14.23-.24c.04-.08.06-.2.06-.35v-.13Z"/>
        <path d="M500.86,250.26l.05.31c-.1.02-.19.03-.27.03-.13,0-.23-.02-.3-.06s-.12-.09-.15-.16c-.03-.07-.04-.2-.04-.42v-1.19h-.26v-.27h.26v-.51l.35-.21v.72h.35v.27h-.35v1.21c0,.1,0,.16.02.19.01.03.03.05.06.07.03.02.07.03.12.03.04,0,.09,0,.15-.01Z"/>
        <path d="M502.63,249.9l.36.04c-.06.21-.16.38-.32.49-.16.12-.35.18-.59.18-.3,0-.54-.09-.72-.28s-.27-.45-.27-.79.09-.62.27-.81.41-.29.7-.29.5.09.68.28.26.45.26.8c0,.02,0,.05,0,.09h-1.55c.01.23.08.4.19.52.12.12.26.18.43.18.13,0,.24-.03.33-.1.09-.07.16-.18.22-.32ZM501.47,249.34h1.16c-.02-.17-.06-.31-.13-.39-.11-.14-.26-.2-.44-.2-.16,0-.3.05-.41.16-.11.11-.17.25-.18.43Z"/>
        <path d="M504.78,250.57v-.26c-.13.21-.33.31-.58.31-.17,0-.32-.05-.46-.14s-.25-.22-.32-.38-.11-.35-.11-.56.03-.4.1-.56c.07-.17.17-.3.31-.39.14-.09.29-.13.46-.13.12,0,.24.03.33.08s.18.12.24.21v-1.03h.35v2.86h-.33ZM503.67,249.54c0,.27.06.46.17.6.11.13.24.2.4.2s.28-.06.39-.19.16-.32.16-.58c0-.28-.05-.49-.16-.62s-.24-.2-.4-.2-.29.06-.39.19c-.11.13-.16.33-.16.6Z"/>
        <path d="M507.43,249.87s0-.08,0-.11c0-.14.02-.26.06-.36.03-.08.07-.15.14-.23.05-.06.13-.14.25-.25.12-.11.2-.19.24-.26.04-.06.05-.13.05-.21,0-.14-.05-.26-.16-.36-.11-.1-.24-.16-.39-.16s-.28.05-.38.14c-.1.09-.17.24-.2.44l-.36-.04c.03-.27.13-.47.29-.61.16-.14.37-.21.64-.21.28,0,.5.08.67.23.17.15.25.34.25.55,0,.12-.03.24-.09.35s-.17.23-.34.38c-.12.1-.19.18-.22.22s-.06.1-.08.17c-.02.06-.03.16-.03.3h-.34ZM507.41,250.57v-.4h.4v.4h-.4Z"/>
      </g>
    </g>
    <g>
      <path class="st5" d="M330.98,232.57l28.35,14.17-28.35,14.17-28.35-14.17,28.35-14.17Z"/>
      <text class="st8" transform="translate(316.75 248.17)"><tspan x="0" y="0">Media expired ?</tspan></text>
    </g>
    <g>
      <rect class="st4" x="387.67" y="300.47" width="56.69" height="28.35"/>
      <text class="st8" transform="translate(397.9 316.08)"><tspan x="0" y="0">Use Gloss-speciality </tspan></text>
    </g>
    <g>
      <rect class="st4" x="387.67" y="351.5" width="56.69" height="28.35"/>
      <text class="st8" transform="translate(399.12 364.7)"><tspan x="0" y="0">Adjust temperature</tspan><tspan x="11.45" y="4.8">platen</tspan></text>
    </g>
    <g>
      <rect class="st4" x="728.5" y="351.5" width="56.69" height="28.35"/>
      <text class="st8" transform="translate(740.06 367.1)"><tspan x="0" y="0">Replace pumptube</tspan></text>
    </g>
    <g>
      <rect class="st4" x="728.5" y="402.52" width="56.69" height="28.35"/>
      <text class="st8" transform="translate(742.18 418.13)"><tspan x="0" y="0">Clean inksystem</tspan></text>
    </g>
    <g>
      <rect class="st4" x="728.5" y="453.54" width="56.69" height="28.35"/>
      <text class="st8" transform="translate(740.62 469.15)"><tspan x="0" y="0">Replace printhead</tspan></text>
    </g>
    <g>
      <rect class="st4" x="728.5" y="504.57" width="56.69" height="28.35"/>
      <text class="st8" transform="translate(741.28 520.17)"><tspan x="0" y="0">Escalate to Venlo</tspan></text>
    </g>
    <g>
      <rect class="st4" x="643.46" y="351.5" width="56.69" height="28.35"/>
      <text class="st8" transform="translate(657.14 367.1)"><tspan x="0" y="0">Clean inksystem</tspan></text>
    </g>
    <g>
      <rect class="st4" x="643.46" y="402.52" width="56.69" height="28.35"/>
      <text class="st8" transform="translate(656.25 418.13)"><tspan x="0" y="0">Escalate to Venlo</tspan></text>
    </g>
    <g>
      <rect class="st4" x="472.71" y="300.47" width="56.69" height="28.35"/>
      <text class="st8" transform="translate(487.39 316.08)"><tspan x="0" y="0">Use Matt-mode</tspan></text>
    </g>
    <g>
      <rect class="st4" x="557.75" y="351.5" width="56.69" height="28.35"/>
      <text class="st8" transform="translate(570.53 367.1)"><tspan x="0" y="0">Escalate to Venlo</tspan></text>
    </g>
    <g>
      <rect class="st4" x="48.19" y="300.47" width="56.69" height="28.35"/>
      <text class="st8" transform="translate(64.42 316.08)"><tspan x="0" y="0">Replace knife</tspan></text>
    </g>
  </g>
  <g id="Lines">
    <g>
      <line class="st9" x1="76.54" y1="39.69" x2="76.54" y2="62.36"/>
      <g>
        <line class="st2" x1="76.54" y1="39.69" x2="76.54" y2="60.1"/>
        <path d="M76.54,62.36c-.4-1.06-1.07-2.39-1.78-3.21l1.78.65,1.78-.65c-.71.82-1.39,2.14-1.78,3.21Z"/>
      </g>
    </g>
    <g>
      <line class="st9" x1="76.54" y1="90.71" x2="76.54" y2="119.06"/>
      <g>
        <line class="st2" x1="76.54" y1="90.71" x2="76.54" y2="116.79"/>
        <path d="M76.54,119.06c-.4-1.06-1.07-2.39-1.78-3.21l1.78.65,1.78-.65c-.71.82-1.39,2.14-1.78,3.21Z"/>
      </g>
    </g>
    <g>
      <polyline class="st2" points="104.88 76.54 671.81 76.54 671.81 116.79"/>
      <path d="M671.81,119.06c-.4-1.06-1.07-2.39-1.78-3.21l1.78.65,1.78-.65c-.71.82-1.39,2.14-1.78,3.21Z"/>
    </g>
    <g>
      <g>
        <path class="st0" d="M116.93,76.54c0,1.56-1.28,2.83-2.83,2.83h-4.25c-1.56,0-2.83-1.28-2.83-2.83h0c0-1.56,1.28-2.83,2.83-2.83h4.25c1.56,0,2.83,1.28,2.83,2.83h0Z"/>
        <path class="st3" d="M116.93,76.54c0,1.56-1.28,2.83-2.83,2.83h-4.25c-1.56,0-2.83-1.28-2.83-2.83h0c0-1.56,1.28-2.83,2.83-2.83h4.25c1.56,0,2.83,1.28,2.83,2.83h0Z"/>
      </g>
      <text class="st8" transform="translate(109.41 78.03)"><tspan x="0" y="0">No</tspan></text>
    </g>
    <g>
      <polyline class="st2" points="104.88 133.23 331.65 133.23 331.65 173.49"/>
      <path d="M331.65,175.75c-.4-1.06-1.07-2.39-1.78-3.21l1.78.65,1.78-.65c-.71.82-1.39,2.14-1.78,3.21Z"/>
    </g>
    <g>
      <g>
        <path class="st0" d="M116.93,133.23c0,1.56-1.28,2.83-2.83,2.83h-4.25c-1.56,0-2.83-1.28-2.83-2.83h0c0-1.56,1.28-2.83,2.83-2.83h4.25c1.56,0,2.83,1.28,2.83,2.83h0Z"/>
        <path class="st3" d="M116.93,133.23c0,1.56-1.28,2.83-2.83,2.83h-4.25c-1.56,0-2.83-1.28-2.83-2.83h0c0-1.56,1.28-2.83,2.83-2.83h4.25c1.56,0,2.83,1.28,2.83,2.83h0Z"/>
      </g>
      <text class="st8" transform="translate(109.41 134.72)"><tspan x="0" y="0">No</tspan></text>
    </g>
    <g>
      <g>
        <path class="st0" d="M81.5,96.5c0,1.56-1.28,2.83-2.83,2.83h-4.25c-1.56,0-2.83-1.28-2.83-2.83s1.28-2.83,2.83-2.83h4.25c1.56,0,2.83,1.28,2.83,2.83Z"/>
        <path class="st3" d="M81.5,96.5c0,1.56-1.28,2.83-2.83,2.83h-4.25c-1.56,0-2.83-1.28-2.83-2.83s1.28-2.83,2.83-2.83h4.25c1.56,0,2.83,1.28,2.83,2.83Z"/>
      </g>
      <text class="st8" transform="translate(73.09 98)"><tspan x="0" y="0">Yes</tspan></text>
    </g>
    <g>
      <line class="st9" x1="671.81" y1="147.28" x2="671.81" y2="351.5"/>
      <g>
        <line class="st2" x1="671.81" y1="147.28" x2="671.81" y2="349.23"/>
        <path d="M671.81,351.5c-.4-1.06-1.07-2.39-1.78-3.21l1.78.65,1.78-.65c-.71.82-1.39,2.14-1.78,3.21Z"/>
      </g>
    </g>
    <g>
      <g>
        <path class="st0" d="M676.77,153.07c0,1.56-1.28,2.83-2.83,2.83h-4.25c-1.56,0-2.83-1.28-2.83-2.83s1.28-2.83,2.83-2.83h4.25c1.56,0,2.83,1.28,2.83,2.83Z"/>
        <path class="st3" d="M676.77,153.07c0,1.56-1.28,2.83-2.83,2.83h-4.25c-1.56,0-2.83-1.28-2.83-2.83s1.28-2.83,2.83-2.83h4.25c1.56,0,2.83,1.28,2.83,2.83Z"/>
      </g>
      <text class="st8" transform="translate(668.36 154.56)"><tspan x="0" y="0">Yes</tspan></text>
    </g>
    <g>
      <line class="st9" x1="161.57" y1="260.91" x2="161.57" y2="300.47"/>
      <g>
        <line class="st2" x1="161.57" y1="260.91" x2="161.57" y2="298.21"/>
        <path d="M161.57,300.47c-.4-1.06-1.07-2.39-1.78-3.21l1.78.65,1.78-.65c-.71.82-1.39,2.14-1.78,3.21Z"/>
      </g>
    </g>
    <g>
      <polyline class="st2" points="359.32 189.92 501.73 189.92 501.73 230.18"/>
      <path d="M501.73,232.44c-.4-1.06-1.07-2.39-1.78-3.21l1.78.65,1.78-.65c-.71.82-1.39,2.14-1.78,3.21Z"/>
    </g>
    <g>
      <g>
        <path class="st0" d="M371.37,189.92c0,1.56-1.28,2.83-2.83,2.83h-4.25c-1.56,0-2.83-1.28-2.83-2.83h0c0-1.56,1.28-2.83,2.83-2.83h4.25c1.56,0,2.83,1.28,2.83,2.83h0Z"/>
        <path class="st3" d="M371.37,189.92c0,1.56-1.28,2.83-2.83,2.83h-4.25c-1.56,0-2.83-1.28-2.83-2.83h0c0-1.56,1.28-2.83,2.83-2.83h4.25c1.56,0,2.83,1.28,2.83,2.83h0Z"/>
      </g>
      <text class="st8" transform="translate(363.85 191.41)"><tspan x="0" y="0">No</tspan></text>
    </g>
    <g>
      <line class="st9" x1="330.98" y1="204.09" x2="330.98" y2="232.44"/>
      <g>
        <line class="st2" x1="330.98" y1="204.09" x2="330.98" y2="230.18"/>
        <path d="M330.98,232.44c-.4-1.06-1.07-2.39-1.78-3.21l1.78.65,1.78-.65c-.71.82-1.39,2.14-1.78,3.21Z"/>
      </g>
    </g>
    <g>
      <g>
        <path class="st0" d="M335.94,209.89c0,1.56-1.28,2.83-2.83,2.83h-4.25c-1.56,0-2.83-1.28-2.83-2.83s1.28-2.83,2.83-2.83h4.25c1.56,0,2.83,1.28,2.83,2.83Z"/>
        <path class="st3" d="M335.94,209.89c0,1.56-1.28,2.83-2.83,2.83h-4.25c-1.56,0-2.83-1.28-2.83-2.83s1.28-2.83,2.83-2.83h4.25c1.56,0,2.83,1.28,2.83,2.83Z"/>
      </g>
      <text class="st8" transform="translate(327.53 211.38)"><tspan x="0" y="0">Yes</tspan></text>
    </g>
    <g>
      <polyline class="st2" points="359.32 246.74 416.69 246.74 416.69 298.21"/>
      <path d="M416.69,300.47c-.4-1.06-1.07-2.39-1.78-3.21l1.78.65,1.78-.65c-.71.82-1.39,2.14-1.78,3.21Z"/>
    </g>
    <g>
      <g>
        <path class="st0" d="M371.37,246.74c0,1.56-1.28,2.83-2.83,2.83h-4.25c-1.56,0-2.83-1.28-2.83-2.83h0c0-1.56,1.28-2.83,2.83-2.83h4.25c1.56,0,2.83,1.28,2.83,2.83h0Z"/>
        <path class="st3" d="M371.37,246.74c0,1.56-1.28,2.83-2.83,2.83h-4.25c-1.56,0-2.83-1.28-2.83-2.83h0c0-1.56,1.28-2.83,2.83-2.83h4.25c1.56,0,2.83,1.28,2.83,2.83h0Z"/>
      </g>
      <text class="st8" transform="translate(363.85 248.23)"><tspan x="0" y="0">No</tspan></text>
    </g>
    <g>
      <polyline class="st2" points="529.4 246.74 586.77 246.74 586.77 349.23"/>
      <path d="M586.77,351.5c-.4-1.06-1.07-2.39-1.78-3.21l1.78.65,1.78-.65c-.71.82-1.39,2.14-1.78,3.21Z"/>
    </g>
    <g>
      <g>
        <path class="st0" d="M541.45,246.74c0,1.56-1.28,2.83-2.83,2.83h-4.25c-1.56,0-2.83-1.28-2.83-2.83h0c0-1.56,1.28-2.83,2.83-2.83h4.25c1.56,0,2.83,1.28,2.83,2.83h0Z"/>
        <path class="st3" d="M541.45,246.74c0,1.56-1.28,2.83-2.83,2.83h-4.25c-1.56,0-2.83-1.28-2.83-2.83h0c0-1.56,1.28-2.83,2.83-2.83h4.25c1.56,0,2.83,1.28,2.83,2.83h0Z"/>
      </g>
      <text class="st8" transform="translate(533.93 248.23)"><tspan x="0" y="0">No</tspan></text>
    </g>
    <g>
      <polyline class="st2" points="700.16 133.23 756.85 133.23 756.85 349.23"/>
      <path d="M756.85,351.5c-.4-1.06-1.07-2.39-1.78-3.21l1.78.65,1.78-.65c-.71.82-1.39,2.14-1.78,3.21Z"/>
    </g>
    <g>
      <g>
        <path class="st0" d="M712.2,133.23c0,1.56-1.28,2.83-2.83,2.83h-4.25c-1.56,0-2.83-1.28-2.83-2.83h0c0-1.56,1.28-2.83,2.83-2.83h4.25c1.56,0,2.83,1.28,2.83,2.83h0Z"/>
        <path class="st3" d="M712.2,133.23c0,1.56-1.28,2.83-2.83,2.83h-4.25c-1.56,0-2.83-1.28-2.83-2.83h0c0-1.56,1.28-2.83,2.83-2.83h4.25c1.56,0,2.83,1.28,2.83,2.83h0Z"/>
      </g>
      <text class="st8" transform="translate(704.69 134.72)"><tspan x="0" y="0">No</tspan></text>
    </g>
    <g>
      <polyline class="st2" points="189.92 246.74 246.61 246.74 246.61 298.21"/>
      <path d="M246.61,300.47c-.4-1.06-1.07-2.39-1.78-3.21l1.78.65,1.78-.65c-.71.82-1.39,2.14-1.78,3.21Z"/>
    </g>
    <g>
      <g>
        <path class="st0" d="M201.97,246.74c0,1.56-1.28,2.83-2.83,2.83h-4.25c-1.56,0-2.83-1.28-2.83-2.83h0c0-1.56,1.28-2.83,2.83-2.83h4.25c1.56,0,2.83,1.28,2.83,2.83h0Z"/>
        <path class="st3" d="M201.97,246.74c0,1.56-1.28,2.83-2.83,2.83h-4.25c-1.56,0-2.83-1.28-2.83-2.83h0c0-1.56,1.28-2.83,2.83-2.83h4.25c1.56,0,2.83,1.28,2.83,2.83h0Z"/>
      </g>
      <text class="st8" transform="translate(194.45 248.23)"><tspan x="0" y="0">No</tspan></text>
    </g>
    <g>
      <polyline class="st2" points="104.88 189.92 161.57 189.92 161.57 230.18"/>
      <path d="M161.57,232.44c-.4-1.06-1.07-2.39-1.78-3.21l1.78.65,1.78-.65c-.71.82-1.39,2.14-1.78,3.21Z"/>
    </g>
    <g>
      <g>
        <path class="st0" d="M116.93,189.92c0,1.56-1.28,2.83-2.83,2.83h-4.25c-1.56,0-2.83-1.28-2.83-2.83h0c0-1.56,1.28-2.83,2.83-2.83h4.25c1.56,0,2.83,1.28,2.83,2.83h0Z"/>
        <path class="st3" d="M116.93,189.92c0,1.56-1.28,2.83-2.83,2.83h-4.25c-1.56,0-2.83-1.28-2.83-2.83h0c0-1.56,1.28-2.83,2.83-2.83h4.25c1.56,0,2.83,1.28,2.83,2.83h0Z"/>
      </g>
      <text class="st8" transform="translate(109.41 191.41)"><tspan x="0" y="0">No</tspan></text>
    </g>
    <g>
      <line class="st9" x1="330.98" y1="260.91" x2="330.98" y2="300.47"/>
      <g>
        <line class="st2" x1="330.98" y1="260.91" x2="330.98" y2="298.21"/>
        <path d="M330.98,300.47c-.4-1.06-1.07-2.39-1.78-3.21l1.78.65,1.78-.65c-.71.82-1.39,2.14-1.78,3.21Z"/>
      </g>
    </g>
    <g>
      <g>
        <path class="st0" d="M335.94,266.71c0,1.56-1.28,2.83-2.83,2.83h-4.25c-1.56,0-2.83-1.28-2.83-2.83s1.28-2.83,2.83-2.83h4.25c1.56,0,2.83,1.28,2.83,2.83Z"/>
        <path class="st3" d="M335.94,266.71c0,1.56-1.28,2.83-2.83,2.83h-4.25c-1.56,0-2.83-1.28-2.83-2.83s1.28-2.83,2.83-2.83h4.25c1.56,0,2.83,1.28,2.83,2.83Z"/>
      </g>
      <text class="st8" transform="translate(327.53 268.2)"><tspan x="0" y="0">Yes</tspan></text>
    </g>
    <g>
      <line class="st9" x1="501.73" y1="260.91" x2="501.73" y2="300.47"/>
      <g>
        <line class="st2" x1="501.73" y1="260.91" x2="501.73" y2="298.21"/>
        <path d="M501.73,300.47c-.4-1.06-1.07-2.39-1.78-3.21l1.78.65,1.78-.65c-.71.82-1.39,2.14-1.78,3.21Z"/>
      </g>
    </g>
    <g>
      <g>
        <path class="st0" d="M506.02,266.71c0,1.56-1.28,2.83-2.83,2.83h-4.25c-1.56,0-2.83-1.28-2.83-2.83s1.28-2.83,2.83-2.83h4.25c1.56,0,2.83,1.28,2.83,2.83Z"/>
        <path class="st3" d="M506.02,266.71c0,1.56-1.28,2.83-2.83,2.83h-4.25c-1.56,0-2.83-1.28-2.83-2.83s1.28-2.83,2.83-2.83h4.25c1.56,0,2.83,1.28,2.83,2.83Z"/>
      </g>
      <text class="st8" transform="translate(497.61 268.2)"><tspan x="0" y="0">Yes</tspan></text>
    </g>
    <g>
      <line class="st9" x1="756.85" y1="379.72" x2="756.85" y2="402.52"/>
      <g>
        <line class="st2" x1="756.85" y1="379.72" x2="756.85" y2="400.26"/>
        <path d="M756.85,402.52c-.4-1.06-1.07-2.39-1.78-3.21l1.78.65,1.78-.65c-.71.82-1.39,2.14-1.78,3.21Z"/>
      </g>
    </g>
    <g>
      <line class="st9" x1="756.85" y1="430.74" x2="756.85" y2="453.54"/>
      <g>
        <line class="st2" x1="756.85" y1="430.74" x2="756.85" y2="451.28"/>
        <path d="M756.85,453.54c-.4-1.06-1.07-2.39-1.78-3.21l1.78.65,1.78-.65c-.71.82-1.39,2.14-1.78,3.21Z"/>
      </g>
    </g>
    <g>
      <line class="st9" x1="756.85" y1="481.76" x2="756.85" y2="504.57"/>
      <g>
        <line class="st2" x1="756.85" y1="481.76" x2="756.85" y2="502.3"/>
        <path d="M756.85,504.57c-.4-1.06-1.07-2.39-1.78-3.21l1.78.65,1.78-.65c-.71.82-1.39,2.14-1.78,3.21Z"/>
      </g>
    </g>
    <g>
      <line class="st9" x1="671.81" y1="379.72" x2="671.81" y2="402.52"/>
      <g>
        <line class="st2" x1="671.81" y1="379.72" x2="671.81" y2="400.26"/>
        <path d="M671.81,402.52c-.4-1.06-1.07-2.39-1.78-3.21l1.78.65,1.78-.65c-.71.82-1.39,2.14-1.78,3.21Z"/>
      </g>
    </g>
    <g>
      <g>
        <path class="st0" d="M166.54,266.71c0,1.56-1.28,2.83-2.83,2.83h-4.25c-1.56,0-2.83-1.28-2.83-2.83s1.28-2.83,2.83-2.83h4.25c1.56,0,2.83,1.28,2.83,2.83Z"/>
        <path class="st3" d="M166.54,266.71c0,1.56-1.28,2.83-2.83,2.83h-4.25c-1.56,0-2.83-1.28-2.83-2.83s1.28-2.83,2.83-2.83h4.25c1.56,0,2.83,1.28,2.83,2.83Z"/>
      </g>
      <text class="st8" transform="translate(158.13 268.2)"><tspan x="0" y="0">Yes</tspan></text>
    </g>
    <g>
      <line class="st9" x1="416.69" y1="328.82" x2="416.69" y2="351.5"/>
      <g>
        <line class="st2" x1="416.69" y1="328.82" x2="416.69" y2="349.23"/>
        <path d="M416.69,351.5c-.4-1.06-1.07-2.39-1.78-3.21l1.78.65,1.78-.65c-.71.82-1.39,2.14-1.78,3.21Z"/>
      </g>
    </g>
    <g>
      <g>
        <line class="st9" x1="76.54" y1="147.4" x2="76.54" y2="175.75"/>
        <g>
          <line class="st2" x1="76.54" y1="147.4" x2="76.54" y2="173.48"/>
          <path d="M76.54,175.75c-.4-1.06-1.07-2.39-1.78-3.21l1.78.65,1.78-.65c-.71.82-1.39,2.14-1.78,3.21Z"/>
        </g>
      </g>
      <g>
        <g>
          <path class="st0" d="M81.5,152.84c0,1.49-1.28,2.72-2.83,2.72h-4.25c-1.56,0-2.83-1.22-2.83-2.72s1.28-2.72,2.83-2.72h4.25c1.56,0,2.83,1.22,2.83,2.72Z"/>
          <path class="st3" d="M81.5,152.84c0,1.49-1.28,2.72-2.83,2.72h-4.25c-1.56,0-2.83-1.22-2.83-2.72s1.28-2.72,2.83-2.72h4.25c1.56,0,2.83,1.22,2.83,2.72Z"/>
        </g>
        <text class="st7" transform="translate(73.09 154.27) scale(1.04 1)"><tspan x="0" y="0">Yes</tspan></text>
      </g>
    </g>
    <g>
      <line class="st9" x1="76.54" y1="204.09" x2="76.54" y2="300.47"/>
      <g>
        <line class="st2" x1="76.54" y1="204.09" x2="76.54" y2="298.21"/>
        <path d="M76.54,300.47c-.4-1.06-1.07-2.39-1.78-3.21l1.78.65,1.78-.65c-.71.82-1.39,2.14-1.78,3.21Z"/>
      </g>
    </g>
    <g>
      <g>
        <path class="st0" d="M81.5,209.53c0,1.49-1.28,2.72-2.83,2.72h-4.25c-1.56,0-2.83-1.22-2.83-2.72s1.28-2.72,2.83-2.72h4.25c1.56,0,2.83,1.22,2.83,2.72Z"/>
        <path class="st3" d="M81.5,209.53c0,1.49-1.28,2.72-2.83,2.72h-4.25c-1.56,0-2.83-1.22-2.83-2.72s1.28-2.72,2.83-2.72h4.25c1.56,0,2.83,1.22,2.83,2.72Z"/>
      </g>
      <text class="st7" transform="translate(73.09 210.96) scale(1.04 1)"><tspan x="0" y="0">Yes</tspan></text>
    </g>
    <g>
      <g>
        <rect class="st9" x="48.19" y="25.51" width="56.69" height="14.17" rx="5.67" ry="5.67"/>
        <rect class="st3" x="48.19" y="25.51" width="56.69" height="14.17" rx="5.67" ry="5.67"/>
      </g>
      <text class="st8" transform="translate(62.31 31.55)"><tspan x="0" y="0">Perform manual </tspan><tspan x="2.78" y="4.8">maintanance</tspan></text>
    </g>
  </g>
  <g id="Numbers">
    <g>
      <circle class="st1" cx="42.52" cy="76.54" r="5.67"/>
      <text class="st10" transform="translate(40.85 78.55)"><tspan x="0" y="0">2</tspan></text>
    </g>
    <g>
      <circle class="st1" cx="42.52" cy="34.02" r="5.67"/>
      <text class="st10" transform="translate(40.85 36.03)"><tspan x="0" y="0">1</tspan></text>
    </g>
    <g>
      <circle class="st1" cx="42.52" cy="133.23" r="5.67"/>
      <text class="st10" transform="translate(40.85 135.24)"><tspan x="0" y="0">8</tspan></text>
    </g>
    <g>
      <circle class="st1" cx="637.8" cy="133.23" r="5.67"/>
      <text class="st10" transform="translate(636.13 135.24)"><tspan x="0" y="0">3</tspan></text>
    </g>
    <g>
      <circle class="st1" cx="296.96" cy="246.74" r="5.67"/>
      <text class="st10" transform="translate(293.63 248.75)"><tspan x="0" y="0">15</tspan></text>
    </g>
    <g>
      <circle class="st1" cx="296.96" cy="189.92" r="5.67"/>
      <text class="st10" transform="translate(293.63 191.93)"><tspan x="0" y="0">14</tspan></text>
    </g>
    <g>
      <circle class="st1" cx="127.56" cy="314.65" r="5.67"/>
      <text class="st10" transform="translate(124.22 316.66)"><tspan x="0" y="0">12</tspan></text>
    </g>
    <g>
      <circle class="st1" cx="212.6" cy="314.65" r="5.67"/>
      <text class="st10" transform="translate(209.26 316.66)"><tspan x="0" y="0">13</tspan></text>
    </g>
    <g>
      <circle class="st1" cx="127.56" cy="246.74" r="5.67"/>
      <text class="st10" transform="translate(124.22 248.75)"><tspan x="0" y="0">11</tspan></text>
    </g>
    <g>
      <circle class="st1" cx="42.52" cy="314.65" r="5.67"/>
      <text class="st10" transform="translate(39.18 316.66)"><tspan x="0" y="0">10</tspan></text>
    </g>
    <g>
      <circle class="st1" cx="42.52" cy="189.92" r="5.67"/>
      <text class="st10" transform="translate(40.85 191.93)"><tspan x="0" y="0">9</tspan></text>
    </g>
    <g>
      <circle class="st1" cx="296.96" cy="314.65" r="5.67"/>
      <text class="st10" transform="translate(293.63 316.66)"><tspan x="0" y="0">16</tspan></text>
    </g>
    <g>
      <circle class="st1" cx="382" cy="314.65" r="5.67"/>
      <text class="st10" transform="translate(378.66 316.66)"><tspan x="0" y="0">17</tspan></text>
    </g>
    <g>
      <circle class="st1" cx="382" cy="366.49" r="5.67"/>
      <text class="st10" transform="translate(378.66 368.5)"><tspan x="0" y="0">18</tspan></text>
    </g>
    <g>
      <circle class="st1" cx="722.83" cy="366.49" r="5.67"/>
      <text class="st10" transform="translate(721.17 368.5)"><tspan x="0" y="0">6</tspan></text>
    </g>
    <g>
      <circle class="st1" cx="722.83" cy="417.52" r="5.67"/>
      <text class="st10" transform="translate(721.17 419.53)"><tspan x="0" y="0">4</tspan></text>
    </g>
    <g>
      <circle class="st1" cx="722.83" cy="468.54" r="5.67"/>
      <text class="st10" transform="translate(721.17 470.55)"><tspan x="0" y="0">7</tspan></text>
    </g>
    <g>
      <circle class="st1" cx="722.83" cy="519.56" r="5.67"/>
      <text class="st10" transform="translate(721.17 521.57)"><tspan x="0" y="0">5</tspan></text>
    </g>
    <g>
      <circle class="st1" cx="637.8" cy="366.49" r="5.67"/>
      <text class="st10" transform="translate(636.5 368.5) scale(.92 1)"><tspan x="0" y="0">4</tspan></text>
    </g>
    <g>
      <circle class="st1" cx="637.8" cy="417.52" r="5.67"/>
      <text class="st10" transform="translate(636.13 419.53)"><tspan x="0" y="0">5</tspan></text>
    </g>
    <g>
      <circle class="st1" cx="467.04" cy="246.74" r="5.67"/>
      <text class="st10" transform="translate(464.05 248.75) scale(.95 1)"><tspan x="0" y="0">19</tspan></text>
    </g>
    <g>
      <circle class="st1" cx="467.04" cy="314.65" r="5.67"/>
      <text class="st10" transform="translate(463.7 316.66)"><tspan x="0" y="0">20</tspan></text>
    </g>
    <g>
      <circle class="st1" cx="552.08" cy="365.67" r="5.67"/>
      <text class="st10" transform="translate(550.41 367.68)"><tspan x="0" y="0">5</tspan></text>
    </g>
  </g>
</svg>