<?xml version="1.0" encoding="UTF-8"?><svg xmlns="http://www.w3.org/2000/svg" viewBox="0 0 199.84 201.26"><defs><style>.cls-1,.cls-2{fill:#fff;}.cls-2,.cls-3,.cls-4,.cls-5,.cls-6{stroke:#000;}.cls-2,.cls-3,.cls-4,.cls-5,.cls-6,.cls-7{stroke-linecap:round;stroke-linejoin:round;}.cls-2,.cls-4,.cls-5,.cls-6,.cls-7{stroke-width:.5px;}.cls-8{fill:#ffe0b2;}.cls-3{stroke-width:.25px;}.cls-3,.cls-4,.cls-7{fill:none;}.cls-9{font-size:6px;}.cls-9,.cls-10{font-family:Arial-BoldMT, Arial;font-weight:700;}.cls-5{fill:#bbdefb;}.cls-11{font-family:ArialMT, Arial;font-size:4px;}.cls-6{fill:#c8e6c9;}.cls-7{stroke:#e0e0e0;}.cls-12{letter-spacing:-.09em;}.cls-10{font-size:5.79px;}</style></defs><g id="Bckground"><rect class="cls-1" width="199.84" height="201.26"/></g><g id="Frame"><rect class="cls-7" x="5.67" y="5.67" width="189.92" height="113.39"/><rect class="cls-7" x="5.67" y="119.06" width="189.92" height="76.54"/><text class="cls-10" transform="translate(8.5 13.37) scale(1.04 1)"><tspan x="0" y="0">Customer / Remote support</tspan></text><text class="cls-10" transform="translate(8.5 127.56) scale(1.04 1)"><tspan x="0" y="0">Engineer</tspan></text></g><g id="Blocks"><path class="cls-6" d="M56.69,48.19l28.35,14.17-28.35,14.17-28.35-14.17,28.35-14.17Z"/><text class="cls-11" transform="translate(40.13 63.79)"><tspan x="0" y="0">Printheads clean ?</tspan></text><rect class="cls-8" x="28.35" y="19.84" width="56.69" height="14.17" rx="5.67" ry="5.67"/><rect class="cls-4" x="28.35" y="19.84" width="56.69" height="14.17" rx="5.67" ry="5.67"/><text class="cls-11" transform="translate(52.47 28.28)"><tspan x="0" y="0">Start</tspan></text><rect class="cls-8" x="28.35" y="175.75" width="56.69" height="14.17" rx="5.67" ry="5.67"/><rect class="cls-4" x="28.35" y="175.75" width="56.69" height="14.17" rx="5.67" ry="5.67"/><text class="cls-11" transform="translate(53.13 184.18)"><tspan x="0" y="0">End</tspan></text><g id="Process"><rect class="cls-5" x="113.39" y="76.54" width="56.69" height="28.35"/><text class="cls-11" transform="translate(115.5 92.14)"><tspan x="0" y="0">Perform manual maintenance</tspan></text></g><g id="Process-2"><rect class="cls-5" x="28.35" y="133.23" width="56.69" height="28.35"/><text class="cls-11" transform="translate(38.35 148.83)"><tspan x="0" y="0">Reposition printhead</tspan></text></g><rect class="cls-8" x="113.39" y="175.75" width="56.69" height="14.17" rx="5.67" ry="5.67"/><rect class="cls-4" x="113.39" y="175.75" width="56.69" height="14.17" rx="5.67" ry="5.67"/><text class="cls-11" transform="translate(138.17 184.18)"><tspan x="0" y="0">End</tspan></text></g><g id="Lines"><line class="cls-8" x1="56.69" y1="34.02" x2="56.69" y2="48.19"/><line class="cls-3" x1="56.69" y1="34.02" x2="56.69" y2="45.93"/><path d="M56.69,48.19c-.4-1.06-1.07-2.39-1.78-3.21l1.78.65,1.78-.65c-.71.82-1.39,2.14-1.78,3.21Z"/><polyline class="cls-3" points="85.04 62.36 141.73 62.36 141.73 74.27"/><path d="M141.73,76.53c-.4-1.06-1.07-2.39-1.78-3.21l1.78.65,1.78-.65c-.71.82-1.39,2.14-1.78,3.21Z"/><path class="cls-1" d="M97.09,62.36c0,1.56-1.28,2.83-2.83,2.83h-4.25c-1.56,0-2.83-1.28-2.83-2.83h0c0-1.56,1.28-2.83,2.83-2.83h4.25c1.56,0,2.83,1.28,2.83,2.83h0Z"/><path class="cls-4" d="M97.09,62.36c0,1.56-1.28,2.83-2.83,2.83h-4.25c-1.56,0-2.83-1.28-2.83-2.83h0c0-1.56,1.28-2.83,2.83-2.83h4.25c1.56,0,2.83,1.28,2.83,2.83h0Z"/><text class="cls-11" transform="translate(89.57 63.85)"><tspan x="0" y="0">No</tspan></text><line class="cls-8" x1="56.69" y1="76.54" x2="56.69" y2="133.23"/><line class="cls-3" x1="56.69" y1="76.54" x2="56.69" y2="130.97"/><path d="M56.69,133.23c-.4-1.06-1.07-2.39-1.78-3.21l1.78.65,1.78-.65c-.71.82-1.39,2.14-1.78,3.21Z"/><path class="cls-1" d="M61.65,82.2c0,1.56-1.28,2.83-2.83,2.83h-4.25c-1.56,0-2.83-1.28-2.83-2.83s1.28-2.83,2.83-2.83h4.25c1.56,0,2.83,1.28,2.83,2.83Z"/><path class="cls-4" d="M61.65,82.2c0,1.56-1.28,2.83-2.83,2.83h-4.25c-1.56,0-2.83-1.28-2.83-2.83s1.28-2.83,2.83-2.83h4.25c1.56,0,2.83,1.28,2.83,2.83Z"/><text class="cls-11" transform="translate(53.43 83.7)"><tspan class="cls-12" x="0" y="0">Y</tspan><tspan x="2.3" y="0">es</tspan></text><line class="cls-8" x1="56.69" y1="161.57" x2="56.69" y2="175.75"/><line class="cls-3" x1="56.69" y1="161.57" x2="56.69" y2="173.48"/><path d="M56.69,175.75c-.4-1.06-1.07-2.39-1.78-3.21l1.78.65,1.78-.65c-.71.82-1.39,2.14-1.78,3.21Z"/><line class="cls-8" x1="141.73" y1="104.88" x2="141.73" y2="175.75"/><line class="cls-3" x1="141.73" y1="104.88" x2="141.73" y2="173.48"/><path d="M141.73,175.75c-.4-1.06-1.07-2.39-1.78-3.21l1.78.65,1.78-.65c-.71.82-1.39,2.14-1.78,3.21Z"/></g><g id="Numbers"><circle class="cls-2" cx="22.68" cy="62.36" r="5.67"/><text class="cls-9" transform="translate(21.01 64.37)"><tspan x="0" y="0">1</tspan></text><circle class="cls-2" cx="107.72" cy="90.71" r="5.67"/><text class="cls-9" transform="translate(106.05 92.72)"><tspan x="0" y="0">2</tspan></text><circle class="cls-2" cx="22.68" cy="147.4" r="5.67"/><text class="cls-9" transform="translate(21.01 149.41)"><tspan x="0" y="0">3</tspan></text></g></svg>