<?xml version="1.0" encoding="UTF-8"?><svg xmlns="http://www.w3.org/2000/svg" viewBox="0 0 249.73 181.42"><defs><style>.cls-1,.cls-2{fill:#fff;}.cls-3,.cls-2,.cls-4,.cls-5,.cls-6,.cls-7{stroke-linecap:round;stroke-linejoin:round;}.cls-3,.cls-2,.cls-4,.cls-5,.cls-7{stroke:#000;}.cls-3,.cls-2,.cls-4,.cls-6,.cls-7{stroke-width:.5px;}.cls-3,.cls-5,.cls-6{fill:none;}.cls-4{fill:#c8e6c9;}.cls-5{stroke-width:.25px;}.cls-8{fill:#ffe0b2;}.cls-6{stroke:#e0e0e0;}.cls-9{letter-spacing:-.09em;}.cls-10{font-family:ArialMT, Arial;font-size:4px;}.cls-7{fill:#bbdefb;}.cls-11{font-family:Arial-BoldMT, Arial;font-size:6px;font-weight:700;}</style></defs><g id="Bckground"><rect class="cls-1" width="249.73" height="181.42"/></g><g id="Frame"><rect class="cls-6" x="5.67" y="5.67" width="238.11" height="113.39"/><rect class="cls-6" x="5.67" y="119.06" width="238.11" height="56.69"/><text class="cls-11" transform="translate(8.5 13.65)"><tspan x="0" y="0">Remote support / Customer</tspan></text><text class="cls-11" transform="translate(8.5 127.04)"><tspan x="0" y="0">Application specialist</tspan></text></g><g id="Blocks"><g><path class="cls-4" d="m82.2,56.69l28.35,14.17-28.35,14.17-28.35-14.17,28.35-14.17Z"/><text class="cls-10" transform="translate(67.98 72.3)"><tspan x="0" y="0">Correct profile ?</tspan></text></g><g><rect class="cls-7" x="53.86" y="141.73" width="56.69" height="28.35"/><text class="cls-10" transform="translate(59.3 157.34)"><tspan x="0" y="0">Adjust platen temperature</tspan></text></g><g><rect class="cls-7" x="138.9" y="85.04" width="56.69" height="28.35"/><text class="cls-10" transform="translate(152.35 100.65)"><tspan x="0" y="0">Download profile</tspan></text></g><g><g><rect class="cls-8" x="53.86" y="28.35" width="56.69" height="14.17" rx="5.67" ry="5.67"/><rect class="cls-3" x="53.86" y="28.35" width="56.69" height="14.17" rx="5.67" ry="5.67"/></g><text class="cls-10" transform="translate(63.3 34.38)"><tspan x="0" y="0">Low OD and patterns</tspan><tspan x="3.78" y="4.8">in both directions</tspan></text></g></g><g id="Lines"><g><line class="cls-8" x1="82.2" y1="42.52" x2="82.2" y2="56.69"/><g><line class="cls-5" x1="82.2" y1="42.52" x2="82.2" y2="54.43"/><path d="m82.2,56.69c-.4-1.06-1.07-2.39-1.78-3.21l1.78.65,1.78-.65c-.71.82-1.39,2.14-1.78,3.21Z"/></g></g><g><line class="cls-8" x1="82.2" y1="85.04" x2="82.2" y2="141.73"/><g><line class="cls-5" x1="82.2" y1="85.04" x2="82.2" y2="139.47"/><path d="m82.2,141.73c-.4-1.06-1.07-2.39-1.78-3.21l1.78.65,1.78-.65c-.71.82-1.39,2.14-1.78,3.21Z"/></g></g><g><polyline class="cls-5" points="110.55 70.87 167.24 70.87 167.24 82.78"/><path d="m167.24,85.04c-.4-1.06-1.07-2.39-1.78-3.21l1.78.65,1.78-.65c-.71.82-1.39,2.14-1.78,3.21Z"/></g><g><g><path class="cls-1" d="m122.6,70.87c0,1.56-1.28,2.83-2.83,2.83h-4.25c-1.56,0-2.83-1.28-2.83-2.83h0c0-1.56,1.28-2.83,2.83-2.83h4.25c1.56,0,2.83,1.28,2.83,2.83h0Z"/><path class="cls-3" d="m122.6,70.87c0,1.56-1.28,2.83-2.83,2.83h-4.25c-1.56,0-2.83-1.28-2.83-2.83h0c0-1.56,1.28-2.83,2.83-2.83h4.25c1.56,0,2.83,1.28,2.83,2.83h0Z"/></g><text class="cls-10" transform="translate(115.08 72.36)"><tspan x="0" y="0">No</tspan></text></g><g><g><path class="cls-1" d="m87.17,90.83c0,1.56-1.28,2.83-2.83,2.83h-4.25c-1.56,0-2.83-1.28-2.83-2.83s1.28-2.83,2.83-2.83h4.25c1.56,0,2.83,1.28,2.83,2.83Z"/><path class="cls-3" d="m87.17,90.83c0,1.56-1.28,2.83-2.83,2.83h-4.25c-1.56,0-2.83-1.28-2.83-2.83s1.28-2.83,2.83-2.83h4.25c1.56,0,2.83,1.28,2.83,2.83Z"/></g><text class="cls-10" transform="translate(78.94 92.33)"><tspan class="cls-9" x="0" y="0">Y</tspan><tspan x="2.3" y="0">es</tspan></text></g></g><g id="Numbers"><g><circle class="cls-2" cx="48.19" cy="70.87" r="5.67"/><text class="cls-11" transform="translate(46.52 72.88)"><tspan x="0" y="0">1</tspan></text></g><g><circle class="cls-2" cx="48.19" cy="155.91" r="5.67"/><text class="cls-11" transform="translate(46.52 157.92)"><tspan x="0" y="0">3</tspan></text></g><g><circle class="cls-2" cx="133.23" cy="99.21" r="5.67"/><text class="cls-11" transform="translate(131.56 101.22)"><tspan x="0" y="0">2</tspan></text></g></g></svg>