<?xml version="1.0" encoding="UTF-8"?><svg xmlns="http://www.w3.org/2000/svg" viewBox="0 0 299.91 294.8"><defs><style>.cls-1,.cls-2,.cls-3{stroke-width:0px;}.cls-2{fill:#ffe0b2;}.cls-4,.cls-5,.cls-6,.cls-7,.cls-8,.cls-9{stroke-linecap:round;stroke-linejoin:round;}.cls-4,.cls-5,.cls-6,.cls-7,.cls-9{stroke:#000;}.cls-4,.cls-5,.cls-6,.cls-8,.cls-9{stroke-width:.5px;}.cls-4,.cls-7,.cls-8{fill:none;}.cls-5,.cls-3{fill:#fff;}.cls-6{fill:#c8e6c9;}.cls-7{stroke-width:.25px;}.cls-8{stroke:#e0e0e0;}.cls-10{letter-spacing:-.09em;}.cls-11{font-family:ArialMT, Arial;font-size:4px;}.cls-9{fill:#bbdefb;}.cls-12{font-family:Arial-BoldMT, Arial;font-size:6px;font-weight:700;}</style></defs><g id="Bckground"><rect class="cls-3" width="299.91" height="294.8"/></g><g id="Frame"><rect class="cls-8" x="5.67" y="5.67" width="289.13" height="283.46"/><text class="cls-12" transform="translate(8.5 13.65)"><tspan x="0" y="0">Remote support / Customer</tspan></text></g><g id="Blocks"><path class="cls-6" d="m82.2,99.21l28.35,14.17-28.35,14.17-28.35-14.17,28.35-14.17Z"/><text class="cls-11" transform="translate(66.97 112.42)"><tspan x="0" y="0">Cleanable before </tspan><tspan x="7.01" y="4.8">printing ?</tspan></text><rect class="cls-9" x="138.9" y="226.77" width="56.69" height="28.35"/><text class="cls-11" transform="translate(148.79 242.38)"><tspan x="0" y="0">Clean / replace roller</tspan></text><rect class="cls-9" x="138.9" y="141.73" width="56.69" height="28.35"/><text class="cls-11" transform="translate(149.01 157.34)"><tspan x="0" y="0">Determine distances</tspan></text><rect class="cls-2" x="53.86" y="28.35" width="56.69" height="14.17" rx="5.67" ry="5.67"/><rect class="cls-4" x="53.86" y="28.35" width="56.69" height="14.17" rx="5.67" ry="5.67"/><text class="cls-11" transform="translate(77.98 36.78)"><tspan x="0" y="0">Start</tspan></text><rect class="cls-2" x="138.9" y="269.29" width="56.69" height="14.17" rx="5.67" ry="5.67"/><rect class="cls-4" x="138.9" y="269.29" width="56.69" height="14.17" rx="5.67" ry="5.67"/><text class="cls-11" transform="translate(163.69 277.73)"><tspan x="0" y="0">End</tspan></text><rect class="cls-2" x="223.94" y="269.29" width="56.69" height="14.17" rx="5.67" ry="5.67"/><rect class="cls-4" x="223.94" y="269.29" width="56.69" height="14.17" rx="5.67" ry="5.67"/><text class="cls-11" transform="translate(248.72 277.73)"><tspan x="0" y="0">End</tspan></text><rect class="cls-9" x="223.94" y="226.77" width="56.69" height="28.35"/><text class="cls-11" transform="translate(237.61 242.38)"><tspan x="0" y="0">Use other media</tspan></text><rect class="cls-2" x="53.86" y="269.29" width="56.69" height="14.17" rx="5.67" ry="5.67"/><rect class="cls-4" x="53.86" y="269.29" width="56.69" height="14.17" rx="5.67" ry="5.67"/><text class="cls-11" transform="translate(78.65 277.73)"><tspan x="0" y="0">End</tspan></text><rect class="cls-9" x="53.86" y="56.69" width="56.69" height="28.35"/><text class="cls-11" transform="translate(57.63 72.3)"><tspan x="0" y="0">Clean media before printing</tspan></text><rect class="cls-9" x="53.86" y="141.73" width="56.69" height="28.35"/><text class="cls-11" transform="translate(68.97 157.34)"><tspan x="0" y="0">Polluted media</tspan></text><path class="cls-6" d="m167.24,184.25l28.35,14.17-28.35,14.17-28.35-14.17,28.35-14.17Z"/><text class="cls-11" transform="translate(153.68 199.86)"><tspan x="0" y="0">Roller related ?</tspan></text></g><g id="Lines"><line class="cls-2" x1="82.2" y1="42.52" x2="82.2" y2="56.69"/><line class="cls-7" x1="82.2" y1="42.52" x2="82.2" y2="54.43"/><path class="cls-1" d="m82.2,56.69c-.4-1.06-1.07-2.39-1.78-3.21l1.78.65,1.78-.65c-.71.82-1.39,2.14-1.78,3.21Z"/><line class="cls-2" x1="82.2" y1="85.04" x2="82.2" y2="99.21"/><line class="cls-7" x1="82.2" y1="85.04" x2="82.2" y2="96.95"/><path class="cls-1" d="m82.2,99.21c-.4-1.06-1.07-2.39-1.78-3.21l1.78.65,1.78-.65c-.71.82-1.39,2.14-1.78,3.21Z"/><polyline class="cls-7" points="110.55 113.39 167.24 113.39 167.24 139.47"/><path class="cls-1" d="m167.24,141.73c-.4-1.06-1.07-2.39-1.78-3.21l1.78.65,1.78-.65c-.71.82-1.39,2.14-1.78,3.21Z"/><path class="cls-3" d="m122.6,113.39c0,1.56-1.28,2.83-2.83,2.83h-4.25c-1.56,0-2.83-1.28-2.83-2.83h0c0-1.56,1.28-2.83,2.83-2.83h4.25c1.56,0,2.83,1.28,2.83,2.83h0Z"/><path class="cls-4" d="m122.6,113.39c0,1.56-1.28,2.83-2.83,2.83h-4.25c-1.56,0-2.83-1.28-2.83-2.83h0c0-1.56,1.28-2.83,2.83-2.83h4.25c1.56,0,2.83,1.28,2.83,2.83h0Z"/><text class="cls-11" transform="translate(115.08 114.88)"><tspan x="0" y="0">No</tspan></text><polyline class="cls-7" points="195.59 198.42 252.28 198.42 252.28 224.51"/><path class="cls-1" d="m252.28,226.77c-.4-1.06-1.07-2.39-1.78-3.21l1.78.65,1.78-.65c-.71.82-1.39,2.14-1.78,3.21Z"/><path class="cls-3" d="m207.64,198.43c0,1.56-1.28,2.83-2.83,2.83h-4.25c-1.56,0-2.83-1.28-2.83-2.83h0c0-1.56,1.28-2.83,2.83-2.83h4.25c1.56,0,2.83,1.28,2.83,2.83h0Z"/><path class="cls-4" d="m207.64,198.43c0,1.56-1.28,2.83-2.83,2.83h-4.25c-1.56,0-2.83-1.28-2.83-2.83h0c0-1.56,1.28-2.83,2.83-2.83h4.25c1.56,0,2.83,1.28,2.83,2.83h0Z"/><text class="cls-11" transform="translate(200.12 199.92)"><tspan x="0" y="0">No</tspan></text><line class="cls-2" x1="82.2" y1="127.56" x2="82.2" y2="141.73"/><line class="cls-7" x1="82.2" y1="127.56" x2="82.2" y2="139.47"/><path class="cls-1" d="m82.2,141.73c-.4-1.06-1.07-2.39-1.78-3.21l1.78.65,1.78-.65c-.71.82-1.39,2.14-1.78,3.21Z"/><path class="cls-3" d="m87.17,133.35c0,1.56-1.28,2.83-2.83,2.83h-4.25c-1.56,0-2.83-1.28-2.83-2.83s1.28-2.83,2.83-2.83h4.25c1.56,0,2.83,1.28,2.83,2.83Z"/><path class="cls-4" d="m87.17,133.35c0,1.56-1.28,2.83-2.83,2.83h-4.25c-1.56,0-2.83-1.28-2.83-2.83s1.28-2.83,2.83-2.83h4.25c1.56,0,2.83,1.28,2.83,2.83Z"/><text class="cls-11" transform="translate(78.94 134.85)"><tspan class="cls-10" x="0" y="0">Y</tspan><tspan x="2.3" y="0">es</tspan></text><line class="cls-2" x1="167.24" y1="170.08" x2="167.24" y2="184.25"/><line class="cls-7" x1="167.24" y1="170.08" x2="167.24" y2="181.99"/><path class="cls-1" d="m167.24,184.25c-.4-1.06-1.07-2.39-1.78-3.21l1.78.65,1.78-.65c-.71.82-1.39,2.14-1.78,3.21Z"/><line class="cls-2" x1="167.24" y1="255.12" x2="167.24" y2="269.29"/><line class="cls-7" x1="167.24" y1="255.12" x2="167.24" y2="267.03"/><path class="cls-1" d="m167.24,269.29c-.4-1.06-1.07-2.39-1.78-3.21l1.78.65,1.78-.65c-.71.82-1.39,2.14-1.78,3.21Z"/><line class="cls-2" x1="252.28" y1="255.12" x2="252.28" y2="269.29"/><line class="cls-7" x1="252.28" y1="255.12" x2="252.28" y2="267.03"/><path class="cls-1" d="m252.28,269.29c-.4-1.06-1.07-2.39-1.78-3.21l1.78.65,1.78-.65c-.71.82-1.39,2.14-1.78,3.21Z"/><line class="cls-2" x1="82.2" y1="170.08" x2="82.2" y2="269.29"/><line class="cls-7" x1="82.2" y1="170.08" x2="82.2" y2="267.03"/><path class="cls-1" d="m82.2,269.29c-.4-1.06-1.07-2.39-1.78-3.21l1.78.65,1.78-.65c-.71.82-1.39,2.14-1.78,3.21Z"/><line class="cls-2" x1="167.24" y1="212.6" x2="167.24" y2="226.77"/><line class="cls-7" x1="167.24" y1="212.6" x2="167.24" y2="224.51"/><path class="cls-1" d="m167.24,226.77c-.4-1.06-1.07-2.39-1.78-3.21l1.78.65,1.78-.65c-.71.82-1.39,2.14-1.78,3.21Z"/><path class="cls-3" d="m172.2,218.39c0,1.56-1.28,2.83-2.83,2.83h-4.25c-1.56,0-2.83-1.28-2.83-2.83s1.28-2.83,2.83-2.83h4.25c1.56,0,2.83,1.28,2.83,2.83Z"/><path class="cls-4" d="m172.2,218.39c0,1.56-1.28,2.83-2.83,2.83h-4.25c-1.56,0-2.83-1.28-2.83-2.83s1.28-2.83,2.83-2.83h4.25c1.56,0,2.83,1.28,2.83,2.83Z"/><text class="cls-11" transform="translate(163.98 219.89)"><tspan class="cls-10" x="0" y="0">Y</tspan><tspan x="2.3" y="0">es</tspan></text></g><g id="Numbers"><circle class="cls-5" cx="48.19" cy="70.87" r="5.67"/><text class="cls-12" transform="translate(46.52 72.88)"><tspan x="0" y="0">1</tspan></text><circle class="cls-5" cx="133.23" cy="240.94" r="5.67"/><text class="cls-12" transform="translate(131.56 242.96)"><tspan x="0" y="0">6</tspan></text><circle class="cls-5" cx="48.19" cy="155.91" r="5.67"/><text class="cls-12" transform="translate(46.52 157.92)"><tspan x="0" y="0">3</tspan></text><circle class="cls-5" cx="48.19" cy="113.39" r="5.67"/><text class="cls-12" transform="translate(46.52 115.4)"><tspan x="0" y="0">2</tspan></text><circle class="cls-5" cx="133.23" cy="155.91" r="5.67"/><text class="cls-12" transform="translate(131.56 157.92)"><tspan x="0" y="0">4</tspan></text><circle class="cls-5" cx="133.23" cy="198.43" r="5.67"/><text class="cls-12" transform="translate(131.56 200.44)"><tspan x="0" y="0">5</tspan></text><circle class="cls-5" cx="218.27" cy="240.94" r="5.67"/><text class="cls-12" transform="translate(216.6 242.96)"><tspan x="0" y="0">7</tspan></text></g></svg>