<?xml version="1.0" encoding="UTF-8"?>
<svg xmlns="http://www.w3.org/2000/svg" viewBox="0 0 227.06 342.99">
  <defs>
    <style>
      .cls-1, .cls-2 {
        fill: #fff;
      }

      .cls-2, .cls-3, .cls-4, .cls-5, .cls-6 {
        stroke: #000;
      }

      .cls-2, .cls-3, .cls-4, .cls-5, .cls-6, .cls-7 {
        stroke-linecap: round;
        stroke-linejoin: round;
      }

      .cls-2, .cls-4, .cls-5, .cls-6, .cls-7 {
        stroke-width: .5px;
      }

      .cls-8 {
        fill: #ffe0b2;
      }

      .cls-9 {
        letter-spacing: -.06em;
      }

      .cls-3 {
        stroke-width: .25px;
      }

      .cls-3, .cls-4, .cls-7 {
        fill: none;
      }

      .cls-10 {
        font-family: Arial-BoldMT, Arial;
        font-size: 6px;
        font-weight: 700;
      }

      .cls-5 {
        fill: #bbdefb;
      }

      .cls-11 {
        font-family: ArialMT, Arial;
        font-size: 4px;
      }

      .cls-6 {
        fill: #c8e6c9;
      }

      .cls-7 {
        stroke: #e0e0e0;
      }

      .cls-12 {
        letter-spacing: -.09em;
      }
    </style>
  </defs>
  <g id="Bckground">
    <rect class="cls-1" width="227.06" height="342.99"/>
  </g>
  <g id="Frame">
    <rect class="cls-7" x="5.67" y="5.67" width="215.43" height="206.93"/>
    <rect class="cls-7" x="5.67" y="212.6" width="215.43" height="124.72"/>
    <text class="cls-10" transform="translate(8.5 13.65)"><tspan x="0" y="0">Customer </tspan><tspan x="29.67" y="0" xml:space="preserve"> / </tspan><tspan x="34.67" y="0">Remote support</tspan></text>
    <text class="cls-10" transform="translate(8.5 218.27)"><tspan x="0" y="0">Field engineer</tspan></text>
  </g>
  <g id="Blocks">
    <g>
      <path class="cls-6" d="M82.2,56.69l28.35,14.17-28.35,14.17-28.35-14.17,28.35-14.17Z"/>
      <g>
        <path d="M77.05,69.9v-2.86h.57l.68,2.03c.06.19.11.33.14.42.03-.1.08-.26.15-.46l.69-1.99h.51v2.86h-.37v-2.4l-.83,2.4h-.34l-.83-2.44v2.44h-.37Z"/>
        <path d="M81.77,69.23l.36.04c-.06.21-.16.38-.32.49s-.35.18-.59.18c-.3,0-.54-.09-.72-.28s-.27-.45-.27-.79.09-.62.27-.81.41-.29.7-.29.5.09.68.28.26.45.26.8c0,.02,0,.05,0,.09h-1.55c.01.23.08.4.19.52s.26.18.43.18c.13,0,.24-.03.33-.1s.16-.18.22-.32ZM80.62,68.66h1.16c-.02-.17-.06-.31-.13-.39-.11-.14-.26-.2-.44-.2-.16,0-.3.05-.41.16s-.17.25-.18.43Z"/>
        <path d="M83.92,69.9v-.26c-.13.21-.32.31-.58.31-.17,0-.32-.05-.46-.14s-.25-.22-.32-.38-.11-.35-.11-.56.03-.4.1-.56.17-.3.31-.39.29-.13.46-.13c.12,0,.24.03.33.08s.18.12.24.21v-1.03h.35v2.86h-.33ZM82.81,68.86c0,.27.06.46.17.6s.24.2.4.2.28-.06.39-.19.16-.32.16-.58c0-.28-.05-.49-.16-.62s-.24-.2-.4-.2-.29.06-.39.19-.16.33-.16.6Z"/>
        <path d="M84.8,67.44v-.4h.35v.4h-.35ZM84.8,69.9v-2.07h.35v2.07h-.35Z"/>
        <path d="M87.04,69.64c-.13.11-.26.19-.38.23s-.25.07-.39.07c-.23,0-.4-.06-.53-.17s-.18-.25-.18-.43c0-.1.02-.19.07-.28s.11-.15.18-.2.16-.09.25-.12c.07-.02.17-.04.31-.05.28-.03.49-.07.63-.12,0-.05,0-.08,0-.09,0-.14-.03-.24-.1-.3-.09-.08-.22-.12-.4-.12-.17,0-.29.03-.37.09s-.14.16-.17.31l-.34-.05c.03-.15.08-.27.15-.36s.18-.16.31-.21.29-.07.47-.07.32.02.43.06.19.09.24.16.09.14.11.24c.01.06.02.17.02.32v.47c0,.33,0,.53.02.62s.04.17.09.25h-.37c-.04-.07-.06-.16-.07-.26ZM87.02,68.86c-.13.05-.32.1-.57.13-.14.02-.25.04-.31.07s-.11.06-.14.11-.05.11-.05.17c0,.09.04.17.11.23s.17.09.31.09.26-.03.36-.09.18-.14.23-.24c.04-.08.06-.2.06-.35v-.13Z"/>
        <path d="M69.4,74.7l-.63-2.07h.36l.33,1.2.12.45s.04-.16.11-.43l.33-1.21h.36l.31,1.2.1.4.12-.4.36-1.2h.34l-.65,2.07h-.37l-.33-1.24-.08-.35-.42,1.6h-.37Z"/>
        <path d="M71.91,74.7v-2.86h.35v1.03c.16-.19.37-.29.62-.29.15,0,.29.03.4.09s.19.14.24.25.07.26.07.46v1.31h-.35v-1.31c0-.18-.04-.3-.11-.38s-.18-.12-.32-.12c-.1,0-.2.03-.29.08s-.16.13-.2.22-.06.22-.06.38v1.13h-.35Z"/>
        <path d="M74.13,72.24v-.4h.35v.4h-.35ZM74.13,74.7v-2.07h.35v2.07h-.35Z"/>
        <path d="M75.79,74.38l.05.31c-.1.02-.19.03-.27.03-.13,0-.23-.02-.3-.06s-.12-.09-.15-.16-.04-.2-.04-.42v-1.19h-.26v-.27h.26v-.51l.35-.21v.72h.35v.27h-.35v1.21c0,.1,0,.16.02.19s.03.05.06.07.07.03.12.03c.04,0,.09,0,.15-.01Z"/>
        <path d="M77.55,74.03l.36.04c-.06.21-.16.38-.32.49s-.35.18-.59.18c-.3,0-.54-.09-.72-.28s-.27-.45-.27-.79.09-.62.27-.81.41-.29.7-.29.5.09.68.28.26.45.26.8c0,.02,0,.05,0,.09h-1.55c.01.23.08.4.19.52s.26.18.43.18c.13,0,.24-.03.33-.1s.16-.18.22-.32ZM76.4,73.46h1.16c-.02-.17-.06-.31-.13-.39-.11-.14-.26-.2-.44-.2-.16,0-.3.05-.41.16s-.17.25-.18.43Z"/>
        <path d="M78.09,74.75l.83-2.96h.28l-.83,2.96h-.28Z"/>
        <path d="M79.33,74.08l.35-.05c.02.14.07.25.16.32s.21.11.37.11.28-.03.36-.1.12-.14.12-.23c0-.08-.03-.14-.1-.19-.05-.03-.17-.07-.36-.12-.26-.06-.44-.12-.54-.17s-.18-.11-.23-.2-.08-.18-.08-.28c0-.09.02-.18.06-.26s.1-.14.17-.2c.05-.04.13-.07.22-.1s.2-.04.3-.04c.16,0,.31.02.43.07s.21.11.27.19.1.19.12.32l-.34.05c-.02-.11-.06-.19-.14-.25s-.18-.09-.32-.09c-.16,0-.28.03-.35.08s-.1.12-.1.19c0,.05.01.09.04.12.03.04.07.07.13.09.04.01.14.04.31.09.25.07.42.12.52.16s.18.1.23.18.08.18.08.3-.03.23-.1.33-.17.18-.3.24-.27.08-.44.08c-.27,0-.48-.06-.62-.17s-.23-.28-.27-.5Z"/>
        <path d="M81.47,74.7v-2.07h.31v.29c.06-.1.15-.18.26-.25s.23-.09.37-.09c.15,0,.28.03.38.1s.17.15.21.27c.16-.24.38-.36.64-.36.21,0,.36.06.47.17s.17.29.17.53v1.42h-.35v-1.31c0-.14-.01-.24-.03-.3s-.06-.11-.12-.15-.13-.06-.21-.06c-.15,0-.27.05-.36.15s-.14.25-.14.47v1.21h-.35v-1.35c0-.16-.03-.27-.09-.35s-.15-.12-.28-.12c-.1,0-.19.03-.27.08s-.15.13-.18.23-.06.24-.06.43v1.08h-.35Z"/>
        <path d="M84.67,73.66c0-.38.11-.67.32-.85.18-.15.4-.23.65-.23.29,0,.52.09.7.28s.27.44.27.77c0,.27-.04.48-.12.63s-.2.27-.35.36-.32.13-.5.13c-.29,0-.52-.09-.7-.28s-.27-.45-.27-.8ZM85.03,73.66c0,.27.06.46.17.6s.26.2.44.2.32-.07.44-.2.17-.34.17-.61c0-.26-.06-.45-.17-.58s-.26-.2-.43-.2-.32.07-.44.2-.17.33-.17.6Z"/>
        <path d="M86.89,73.66c0-.38.11-.67.32-.85.18-.15.4-.23.65-.23.29,0,.52.09.7.28s.27.44.27.77c0,.27-.04.48-.12.63s-.2.27-.35.36-.32.13-.5.13c-.29,0-.52-.09-.7-.28s-.27-.45-.27-.8ZM87.25,73.66c0,.27.06.46.17.6s.26.2.44.2.32-.07.44-.2.17-.34.17-.61c0-.26-.06-.45-.17-.58s-.26-.2-.43-.2-.32.07-.44.2-.17.33-.17.6Z"/>
        <path d="M90.02,74.38l.05.31c-.1.02-.19.03-.27.03-.13,0-.23-.02-.3-.06s-.12-.09-.15-.16-.04-.2-.04-.42v-1.19h-.26v-.27h.26v-.51l.35-.21v.72h.35v.27h-.35v1.21c0,.1,0,.16.02.19s.03.05.06.07.07.03.12.03c.04,0,.09,0,.15-.01Z"/>
        <path d="M90.36,74.7v-2.86h.35v1.03c.16-.19.37-.29.62-.29.15,0,.29.03.4.09s.19.14.24.25.07.26.07.46v1.31h-.35v-1.31c0-.18-.04-.3-.11-.38s-.18-.12-.32-.12c-.1,0-.2.03-.29.08s-.16.13-.2.22-.06.22-.06.38v1.13h-.35Z"/>
        <path d="M94.35,73.99s0-.08,0-.11c0-.14.02-.26.06-.36.03-.08.07-.15.14-.23.05-.06.13-.14.25-.25s.2-.19.24-.26.05-.13.05-.21c0-.14-.05-.26-.16-.36s-.24-.16-.39-.16-.27.05-.38.14-.17.24-.2.44l-.36-.04c.03-.27.13-.47.29-.61s.37-.21.64-.21c.28,0,.5.08.67.23s.25.34.25.55c0,.12-.03.24-.09.35s-.17.23-.34.38c-.11.1-.19.18-.22.22s-.06.1-.08.17-.03.16-.03.3h-.34ZM94.33,74.7v-.4h.4v.4h-.4Z"/>
      </g>
    </g>
    <g>
      <rect class="cls-5" x="53.86" y="221.1" width="56.69" height="28.35"/>
      <text class="cls-11" transform="translate(62.2 236.71)"><tspan x="0" y="0">Replace M&amp;C scanner</tspan></text>
    </g>
    <g>
      <g>
        <rect class="cls-8" x="53.86" y="28.35" width="56.69" height="14.17" rx="5.67" ry="5.67"/>
        <rect class="cls-4" x="53.86" y="28.35" width="56.69" height="14.17" rx="5.67" ry="5.67"/>
      </g>
      <text class="cls-11" transform="translate(77.98 36.78)"><tspan x="0" y="0">Start</tspan></text>
    </g>
    <g>
      <rect class="cls-5" x="138.9" y="178.58" width="56.69" height="28.35"/>
      <text class="cls-11" transform="translate(154.8 194.19)"><tspan x="0" y="0">Check / re-set</tspan></text>
    </g>
    <g>
      <path class="cls-6" d="M82.2,107.72l28.35,14.17-28.35,14.17-28.35-14.17,28.35-14.17Z"/>
      <g>
        <path d="M70.39,120.92v-2.86h.57l.68,2.03c.06.19.11.33.14.42.03-.1.08-.26.15-.46l.69-1.99h.51v2.86h-.37v-2.4l-.83,2.4h-.34l-.83-2.44v2.44h-.37Z"/>
        <path d="M75.32,120.58c-.12.13-.24.23-.38.29s-.28.1-.44.1c-.29,0-.53-.1-.7-.3-.14-.16-.21-.34-.21-.54,0-.18.06-.34.17-.48s.28-.27.51-.38c-.13-.15-.21-.27-.26-.36s-.06-.18-.06-.27c0-.17.07-.32.2-.45s.3-.19.51-.19.35.06.48.18.19.26.19.43c0,.27-.18.5-.54.7l.51.65c.06-.11.1-.25.14-.4l.37.08c-.06.25-.15.46-.25.62.13.17.28.32.45.44l-.24.28c-.14-.09-.29-.23-.44-.4ZM75.1,120.31l-.64-.8c-.19.11-.32.22-.38.32s-.1.19-.1.29c0,.12.05.24.14.36s.22.19.39.19c.11,0,.21-.03.33-.1s.2-.15.27-.25ZM74.61,119.09c.15-.09.25-.17.3-.24s.07-.14.07-.22c0-.1-.03-.18-.09-.24s-.14-.09-.23-.09-.17.03-.24.09-.09.14-.09.22c0,.04.01.09.03.14s.06.1.1.16l.16.18Z"/>
        <path d="M78.44,119.92l.38.1c-.08.31-.22.55-.43.71s-.46.25-.76.25-.56-.06-.75-.19-.34-.31-.44-.55-.15-.49-.15-.77c0-.3.06-.56.17-.78s.28-.39.49-.51.44-.17.69-.17c.29,0,.53.07.72.22s.33.35.41.62l-.37.09c-.07-.21-.16-.36-.29-.46s-.29-.14-.48-.14c-.22,0-.4.05-.55.16s-.25.25-.31.42-.09.36-.09.55c0,.24.04.46.11.64s.18.32.33.41.31.13.49.13c.21,0,.39-.06.54-.18s.25-.3.3-.54Z"/>
        <path d="M80.21,120.3l.35-.05c.02.14.07.25.16.32s.21.11.37.11.28-.03.36-.1.12-.14.12-.23c0-.08-.03-.14-.1-.19-.05-.03-.17-.07-.36-.12-.26-.06-.44-.12-.54-.17s-.18-.11-.23-.2-.08-.18-.08-.28c0-.09.02-.18.06-.26s.1-.14.17-.2c.05-.04.13-.07.22-.1s.2-.04.3-.04c.16,0,.31.02.43.07s.21.11.27.19.1.19.12.32l-.34.05c-.02-.11-.06-.19-.14-.25s-.18-.09-.32-.09c-.16,0-.28.03-.35.08s-.1.12-.1.19c0,.05.01.09.04.12.03.04.07.07.13.09.04.01.14.04.31.09.25.07.42.12.52.16s.18.1.23.18.08.18.08.3-.03.23-.1.33-.17.18-.3.24-.27.08-.44.08c-.27,0-.48-.06-.62-.17s-.23-.28-.27-.5Z"/>
        <path d="M83.71,120.16l.35.04c-.04.24-.13.42-.29.56s-.35.2-.57.2c-.28,0-.51-.09-.68-.28s-.26-.45-.26-.8c0-.22.04-.42.11-.59s.19-.29.34-.38.32-.13.5-.13c.23,0,.41.06.55.17s.23.28.28.49l-.34.05c-.03-.14-.09-.24-.17-.31s-.18-.11-.3-.11c-.18,0-.32.06-.43.19s-.17.33-.17.6.05.48.16.61.25.19.42.19c.14,0,.25-.04.35-.13s.15-.21.18-.39Z"/>
        <path d="M85.71,120.67c-.13.11-.26.19-.38.23s-.25.07-.39.07c-.23,0-.4-.06-.53-.17s-.18-.25-.18-.43c0-.1.02-.19.07-.28s.11-.15.18-.2.16-.09.25-.12c.07-.02.17-.04.31-.05.28-.03.49-.07.63-.12,0-.05,0-.08,0-.09,0-.14-.03-.24-.1-.3-.09-.08-.22-.12-.4-.12-.17,0-.29.03-.37.09s-.14.16-.17.31l-.34-.05c.03-.15.08-.27.15-.36s.18-.16.31-.21.29-.07.47-.07.32.02.43.06.19.09.24.16.09.14.11.24c.01.06.02.17.02.32v.47c0,.33,0,.53.02.62s.04.17.09.25h-.37c-.04-.07-.06-.16-.07-.26ZM85.68,119.88c-.13.05-.32.1-.57.13-.14.02-.25.04-.31.07s-.11.06-.14.11-.05.11-.05.17c0,.09.04.17.11.23s.17.09.31.09.26-.03.36-.09.18-.14.23-.24c.04-.08.06-.2.06-.35v-.13Z"/>
        <path d="M86.58,120.92v-2.07h.32v.29c.15-.23.37-.34.66-.34.12,0,.24.02.34.07s.18.1.24.18.09.16.11.26c.01.06.02.18.02.34v1.28h-.35v-1.26c0-.14-.01-.25-.04-.32s-.08-.13-.15-.17-.15-.06-.25-.06c-.15,0-.28.05-.39.14s-.16.28-.16.54v1.13h-.35Z"/>
        <path d="M88.8,120.92v-2.07h.32v.29c.15-.23.37-.34.66-.34.12,0,.24.02.34.07s.18.1.24.18.09.16.11.26c.01.06.02.18.02.34v1.28h-.35v-1.26c0-.14-.01-.25-.04-.32s-.08-.13-.15-.17-.15-.06-.25-.06c-.15,0-.28.05-.39.14s-.16.28-.16.54v1.13h-.35Z"/>
        <path d="M92.45,120.25l.36.04c-.06.21-.16.38-.32.49s-.35.18-.59.18c-.3,0-.54-.09-.72-.28s-.27-.45-.27-.79.09-.62.27-.81.41-.29.7-.29.5.09.68.28.26.45.26.8c0,.02,0,.05,0,.09h-1.55c.01.23.08.4.19.52s.26.18.43.18c.13,0,.24-.03.33-.1s.16-.18.22-.32ZM91.29,119.69h1.16c-.02-.17-.06-.31-.13-.39-.11-.14-.26-.2-.44-.2-.16,0-.3.05-.41.16s-.17.25-.18.43Z"/>
        <path d="M93.25,120.92v-2.07h.32v.31c.08-.15.16-.24.22-.29s.14-.07.23-.07c.12,0,.24.04.36.11l-.12.33c-.09-.05-.17-.08-.26-.08-.08,0-.15.02-.21.07s-.1.11-.13.19c-.04.12-.06.26-.06.41v1.09h-.35Z"/>
        <path d="M77.93,124.96l.35.04c-.04.24-.13.42-.29.56s-.35.2-.57.2c-.28,0-.51-.09-.68-.28s-.26-.45-.26-.8c0-.22.04-.42.11-.59s.19-.29.34-.38.32-.13.5-.13c.23,0,.41.06.55.17s.23.28.28.49l-.34.05c-.03-.14-.09-.24-.17-.31s-.18-.11-.3-.11c-.18,0-.32.06-.43.19s-.17.33-.17.6.05.48.16.61.25.19.42.19c.14,0,.25-.04.35-.13s.15-.21.18-.39Z"/>
        <path d="M78.57,125.72v-2.86h.35v2.86h-.35Z"/>
        <path d="M80.88,125.05l.36.04c-.06.21-.16.38-.32.49s-.35.18-.59.18c-.3,0-.54-.09-.72-.28s-.27-.45-.27-.79.09-.62.27-.81.41-.29.7-.29.5.09.68.28.26.45.26.8c0,.02,0,.05,0,.09h-1.55c.01.23.08.4.19.52s.26.18.43.18c.13,0,.24-.03.33-.1s.16-.18.22-.32ZM79.73,124.49h1.16c-.02-.17-.06-.31-.13-.39-.11-.14-.26-.2-.44-.2-.16,0-.3.05-.41.16s-.17.25-.18.43Z"/>
        <path d="M83.04,125.47c-.13.11-.26.19-.38.23s-.25.07-.39.07c-.23,0-.4-.06-.53-.17s-.18-.25-.18-.43c0-.1.02-.19.07-.28s.11-.15.18-.2.16-.09.25-.12c.07-.02.17-.04.31-.05.28-.03.49-.07.63-.12,0-.05,0-.08,0-.09,0-.14-.03-.24-.1-.3-.09-.08-.22-.12-.4-.12-.17,0-.29.03-.37.09s-.14.16-.17.31l-.34-.05c.03-.15.08-.27.15-.36s.18-.16.31-.21.29-.07.47-.07.32.02.43.06.19.09.24.16.09.14.11.24c.01.06.02.17.02.32v.47c0,.33,0,.53.02.62s.04.17.09.25h-.37c-.04-.07-.06-.16-.07-.26ZM83.01,124.68c-.13.05-.32.1-.57.13-.14.02-.25.04-.31.07s-.11.06-.14.11-.05.11-.05.17c0,.09.04.17.11.23s.17.09.31.09.26-.03.36-.09.18-.14.23-.24c.04-.08.06-.2.06-.35v-.13Z"/>
        <path d="M83.91,125.72v-2.07h.32v.29c.15-.23.37-.34.66-.34.12,0,.24.02.34.07s.18.1.24.18.09.16.11.26c.01.06.02.18.02.34v1.28h-.35v-1.26c0-.14-.01-.25-.04-.32s-.08-.13-.15-.17-.15-.06-.25-.06c-.15,0-.28.05-.39.14s-.16.28-.16.54v1.13h-.35Z"/>
        <path d="M86.8,125.02s0-.08,0-.11c0-.14.02-.26.06-.36.03-.08.07-.15.14-.23.05-.06.13-.14.25-.25s.2-.19.24-.26.05-.13.05-.21c0-.14-.05-.26-.16-.36s-.24-.16-.39-.16-.27.05-.38.14-.17.24-.2.44l-.36-.04c.03-.27.13-.47.29-.61s.37-.21.64-.21c.28,0,.5.08.67.23s.25.34.25.55c0,.12-.03.24-.09.35s-.17.23-.34.38c-.11.1-.19.18-.22.22s-.06.1-.08.17-.03.16-.03.3h-.34ZM86.77,125.72v-.4h.4v.4h-.4Z"/>
      </g>
    </g>
    <g>
      <path class="cls-6" d="M82.2,155.91l28.35,14.17-28.35,14.17-28.35-14.17,28.35-14.17Z"/>
      <text class="cls-11" transform="translate(66.97 171.51)"><tspan x="0" y="0">Flex cable good?</tspan></text>
    </g>
    <g>
      <rect class="cls-5" x="138.9" y="79.37" width="56.69" height="28.35"/>
      <text class="cls-11" transform="translate(152.57 94.98)"><tspan x="0" y="0">Use other media</tspan></text>
    </g>
    <g>
      <rect class="cls-5" x="138.9" y="221.1" width="56.69" height="28.35"/>
      <text class="cls-11" transform="translate(150.79 236.71)"><tspan x="0" y="0">Replace flex-cable</tspan></text>
    </g>
    <g>
      <rect class="cls-5" x="53.86" y="272.13" width="56.69" height="28.35"/>
      <text class="cls-11" transform="translate(62.53 287.73)"><tspan x="0" y="0">Replace carriage PB</tspan><tspan class="cls-9" x="36.69" y="0">A</tspan></text>
    </g>
    <g>
      <rect class="cls-5" x="138.9" y="130.39" width="56.69" height="28.35"/>
      <text class="cls-11" transform="translate(149.35 146)"><tspan x="0" y="0">Clean M&amp;C scanner</tspan></text>
    </g>
    <g>
      <g>
        <rect class="cls-8" x="138.9" y="317.48" width="56.69" height="14.17" rx="5.67" ry="5.67"/>
        <rect class="cls-4" x="138.9" y="317.48" width="56.69" height="14.17" rx="5.67" ry="5.67"/>
      </g>
      <text class="cls-11" transform="translate(163.69 325.92)"><tspan x="0" y="0">End</tspan></text>
    </g>
    <g>
      <g>
        <rect class="cls-8" x="53.86" y="317.48" width="56.69" height="14.17" rx="5.67" ry="5.67"/>
        <rect class="cls-4" x="53.86" y="317.48" width="56.69" height="14.17" rx="5.67" ry="5.67"/>
      </g>
      <text class="cls-11" transform="translate(78.65 325.92)"><tspan x="0" y="0">End</tspan></text>
    </g>
  </g>
  <g id="Lines">
    <g>
      <line class="cls-8" x1="167.24" y1="206.93" x2="167.24" y2="221.1"/>
      <g>
        <line class="cls-3" x1="167.24" y1="206.93" x2="167.24" y2="218.84"/>
        <path d="M167.24,221.1c-.4-1.06-1.07-2.39-1.78-3.21l1.78.65,1.78-.65c-.71.82-1.39,2.14-1.78,3.21Z"/>
      </g>
    </g>
    <g>
      <line class="cls-8" x1="82.2" y1="42.52" x2="82.2" y2="56.69"/>
      <g>
        <line class="cls-3" x1="82.2" y1="42.52" x2="82.2" y2="54.43"/>
        <path d="M82.2,56.69c-.4-1.06-1.07-2.39-1.78-3.21l1.78.65,1.78-.65c-.71.82-1.39,2.14-1.78,3.21Z"/>
      </g>
    </g>
    <g>
      <line class="cls-8" x1="82.2" y1="85.04" x2="82.2" y2="107.72"/>
      <g>
        <line class="cls-3" x1="82.2" y1="85.04" x2="82.2" y2="105.45"/>
        <path d="M82.2,107.72c-.4-1.06-1.07-2.39-1.78-3.21l1.78.65,1.78-.65c-.71.82-1.39,2.14-1.78,3.21Z"/>
      </g>
    </g>
    <g>
      <polyline class="cls-3" points="110.55 70.87 167.24 70.87 167.24 77.11"/>
      <path d="M167.24,79.37c-.4-1.06-1.07-2.39-1.78-3.21l1.78.65,1.78-.65c-.71.82-1.39,2.14-1.78,3.21Z"/>
    </g>
    <g>
      <line class="cls-8" x1="82.2" y1="136.06" x2="82.2" y2="155.91"/>
      <g>
        <line class="cls-3" x1="82.2" y1="136.06" x2="82.2" y2="153.64"/>
        <path d="M82.2,155.91c-.4-1.06-1.07-2.39-1.78-3.21l1.78.65,1.78-.65c-.71.82-1.39,2.14-1.78,3.21Z"/>
      </g>
    </g>
    <g>
      <polyline class="cls-3" points="110.55 121.89 167.24 121.89 167.24 128.13"/>
      <path d="M167.24,130.39c-.4-1.06-1.07-2.39-1.78-3.21l1.78.65,1.78-.65c-.71.82-1.39,2.14-1.78,3.21Z"/>
    </g>
    <g>
      <polyline class="cls-3" points="110.55 170.08 167.24 170.08 167.24 176.32"/>
      <path d="M167.24,178.58c-.4-1.06-1.07-2.39-1.78-3.21l1.78.65,1.78-.65c-.71.82-1.39,2.14-1.78,3.21Z"/>
    </g>
    <g>
      <line class="cls-8" x1="82.2" y1="184.25" x2="82.2" y2="221.1"/>
      <g>
        <line class="cls-3" x1="82.2" y1="184.25" x2="82.2" y2="218.84"/>
        <path d="M82.2,221.1c-.4-1.06-1.07-2.39-1.78-3.21l1.78.65,1.78-.65c-.71.82-1.39,2.14-1.78,3.21Z"/>
      </g>
    </g>
    <g>
      <line class="cls-8" x1="82.2" y1="249.45" x2="82.2" y2="272.13"/>
      <g>
        <line class="cls-3" x1="82.2" y1="249.45" x2="82.2" y2="269.86"/>
        <path d="M82.2,272.13c-.4-1.06-1.07-2.39-1.78-3.21l1.78.65,1.78-.65c-.71.82-1.39,2.14-1.78,3.21Z"/>
      </g>
    </g>
    <g>
      <g>
        <path class="cls-1" d="M122.6,70.87c0,1.56-1.28,2.83-2.83,2.83h-4.25c-1.56,0-2.83-1.28-2.83-2.83h0c0-1.56,1.28-2.83,2.83-2.83h4.25c1.56,0,2.83,1.28,2.83,2.83h0Z"/>
        <path class="cls-4" d="M122.6,70.87c0,1.56-1.28,2.83-2.83,2.83h-4.25c-1.56,0-2.83-1.28-2.83-2.83h0c0-1.56,1.28-2.83,2.83-2.83h4.25c1.56,0,2.83,1.28,2.83,2.83h0Z"/>
      </g>
      <text class="cls-11" transform="translate(115.08 72.36)"><tspan x="0" y="0">No</tspan></text>
    </g>
    <g>
      <g>
        <path class="cls-1" d="M87.17,90.83c0,1.56-1.28,2.83-2.83,2.83h-4.25c-1.56,0-2.83-1.28-2.83-2.83s1.28-2.83,2.83-2.83h4.25c1.56,0,2.83,1.28,2.83,2.83Z"/>
        <path class="cls-4" d="M87.17,90.83c0,1.56-1.28,2.83-2.83,2.83h-4.25c-1.56,0-2.83-1.28-2.83-2.83s1.28-2.83,2.83-2.83h4.25c1.56,0,2.83,1.28,2.83,2.83Z"/>
      </g>
      <text class="cls-11" transform="translate(78.94 92.33)"><tspan class="cls-12" x="0" y="0">Y</tspan><tspan x="2.3" y="0">es</tspan></text>
    </g>
    <g>
      <g>
        <path class="cls-1" d="M87.17,144.57c0,1.56-1.28,2.83-2.83,2.83h-4.25c-1.56,0-2.83-1.28-2.83-2.83s1.28-2.83,2.83-2.83h4.25c1.56,0,2.83,1.28,2.83,2.83Z"/>
        <path class="cls-4" d="M87.17,144.57c0,1.56-1.28,2.83-2.83,2.83h-4.25c-1.56,0-2.83-1.28-2.83-2.83s1.28-2.83,2.83-2.83h4.25c1.56,0,2.83,1.28,2.83,2.83Z"/>
      </g>
      <text class="cls-11" transform="translate(78.94 146.06)"><tspan class="cls-12" x="0" y="0">Y</tspan><tspan x="2.3" y="0">es</tspan></text>
    </g>
    <g>
      <g>
        <path class="cls-1" d="M86.46,192.76c0,1.56-1.28,2.83-2.83,2.83h-4.25c-1.56,0-2.83-1.28-2.83-2.83s1.28-2.83,2.83-2.83h4.25c1.56,0,2.83,1.28,2.83,2.83Z"/>
        <path class="cls-4" d="M86.46,192.76c0,1.56-1.28,2.83-2.83,2.83h-4.25c-1.56,0-2.83-1.28-2.83-2.83s1.28-2.83,2.83-2.83h4.25c1.56,0,2.83,1.28,2.83,2.83Z"/>
      </g>
      <text class="cls-11" transform="translate(78.23 194.25)"><tspan class="cls-12" x="0" y="0">Y</tspan><tspan x="2.3" y="0">es</tspan></text>
    </g>
    <g>
      <g>
        <path class="cls-1" d="M123.31,121.89c0,1.56-1.28,2.83-2.83,2.83h-4.25c-1.56,0-2.83-1.28-2.83-2.83h0c0-1.56,1.28-2.83,2.83-2.83h4.25c1.56,0,2.83,1.28,2.83,2.83h0Z"/>
        <path class="cls-4" d="M123.31,121.89c0,1.56-1.28,2.83-2.83,2.83h-4.25c-1.56,0-2.83-1.28-2.83-2.83h0c0-1.56,1.28-2.83,2.83-2.83h4.25c1.56,0,2.83,1.28,2.83,2.83h0Z"/>
      </g>
      <text class="cls-11" transform="translate(115.79 123.38)"><tspan x="0" y="0">No</tspan></text>
    </g>
    <g>
      <g>
        <path class="cls-1" d="M122.6,170.08c0,1.56-1.28,2.83-2.83,2.83h-4.25c-1.56,0-2.83-1.28-2.83-2.83h0c0-1.56,1.28-2.83,2.83-2.83h4.25c1.56,0,2.83,1.28,2.83,2.83h0Z"/>
        <path class="cls-4" d="M122.6,170.08c0,1.56-1.28,2.83-2.83,2.83h-4.25c-1.56,0-2.83-1.28-2.83-2.83h0c0-1.56,1.28-2.83,2.83-2.83h4.25c1.56,0,2.83,1.28,2.83,2.83h0Z"/>
      </g>
      <text class="cls-11" transform="translate(115.08 171.57)"><tspan x="0" y="0">No</tspan></text>
    </g>
    <g>
      <g>
        <path class="cls-1" d="M87.17,257.95c0,1.56-1.28,2.83-2.83,2.83h-4.25c-1.56,0-2.83-1.28-2.83-2.83s1.28-2.83,2.83-2.83h4.25c1.56,0,2.83,1.28,2.83,2.83Z"/>
        <path class="cls-4" d="M87.17,257.95c0,1.56-1.28,2.83-2.83,2.83h-4.25c-1.56,0-2.83-1.28-2.83-2.83s1.28-2.83,2.83-2.83h4.25c1.56,0,2.83,1.28,2.83,2.83Z"/>
      </g>
      <text class="cls-11" transform="translate(78.94 259.44)"><tspan class="cls-12" x="0" y="0">Y</tspan><tspan x="2.3" y="0">es</tspan></text>
    </g>
    <g>
      <line class="cls-8" x1="167.24" y1="249.45" x2="167.24" y2="317.48"/>
      <g>
        <line class="cls-3" x1="167.24" y1="249.45" x2="167.24" y2="315.22"/>
        <path d="M167.24,317.48c-.4-1.06-1.07-2.39-1.78-3.21l1.78.65,1.78-.65c-.71.82-1.39,2.14-1.78,3.21Z"/>
      </g>
    </g>
    <g>
      <line class="cls-8" x1="82.2" y1="300.47" x2="82.2" y2="317.48"/>
      <g>
        <line class="cls-3" x1="82.2" y1="300.47" x2="82.2" y2="315.22"/>
        <path d="M82.2,317.48c-.4-1.06-1.07-2.39-1.78-3.21l1.78.65,1.78-.65c-.71.82-1.39,2.14-1.78,3.21Z"/>
      </g>
    </g>
  </g>
  <g id="Numbers">
    <g>
      <circle class="cls-2" cx="48.19" cy="70.87" r="5.67"/>
      <text class="cls-10" transform="translate(46.52 72.88)"><tspan x="0" y="0">1</tspan></text>
    </g>
    <g>
      <circle class="cls-2" cx="48.19" cy="287.12" r="5.67"/>
      <text class="cls-10" transform="translate(46.52 289.13)"><tspan x="0" y="0">8</tspan></text>
    </g>
    <g>
      <circle class="cls-2" cx="48.19" cy="235.28" r="5.67"/>
      <text class="cls-10" transform="translate(46.52 237.29)"><tspan x="0" y="0">7</tspan></text>
    </g>
    <g>
      <circle class="cls-2" cx="48.19" cy="121.89" r="5.67"/>
      <text class="cls-10" transform="translate(46.52 123.9)"><tspan x="0" y="0">3</tspan></text>
    </g>
    <g>
      <circle class="cls-2" cx="133.23" cy="93.54" r="5.67"/>
      <text class="cls-10" transform="translate(131.56 95.55)"><tspan x="0" y="0">2</tspan></text>
    </g>
    <g>
      <circle class="cls-2" cx="133.23" cy="144.57" r="5.67"/>
      <text class="cls-10" transform="translate(131.56 146.58)"><tspan x="0" y="0">4</tspan></text>
    </g>
    <g>
      <circle class="cls-2" cx="48.19" cy="170.08" r="5.67"/>
      <text class="cls-10" transform="translate(46.52 172.09)"><tspan x="0" y="0">5</tspan></text>
    </g>
    <g>
      <circle class="cls-2" cx="133.23" cy="192.76" r="5.67"/>
      <text class="cls-10" transform="translate(131.56 194.77)"><tspan x="0" y="0">6</tspan></text>
    </g>
    <g>
      <circle class="cls-2" cx="133.23" cy="235.28" r="5.67"/>
      <text class="cls-10" transform="translate(131.56 237.29)"><tspan x="0" y="0">9</tspan></text>
    </g>
  </g>
</svg>