<?xml version="1.0" encoding="UTF-8"?><svg xmlns="http://www.w3.org/2000/svg" viewBox="0 0 99.78 294.8"><defs><style>.cls-1,.cls-2{fill:#fff;}.cls-2,.cls-3,.cls-4,.cls-5{stroke:#000;}.cls-2,.cls-3,.cls-4,.cls-5,.cls-6{stroke-linecap:round;stroke-linejoin:round;}.cls-2,.cls-4,.cls-5,.cls-6{stroke-width:.5px;}.cls-7{fill:#ffe0b2;}.cls-3{stroke-width:.25px;}.cls-3,.cls-4,.cls-6{fill:none;}.cls-8{font-family:Arial-BoldMT, Arial;font-size:6px;font-weight:700;}.cls-5{fill:#bbdefb;}.cls-9{font-family:ArialMT, Arial;font-size:4px;}.cls-6{stroke:#e0e0e0;}</style></defs><g id="Bckground"><rect class="cls-1" width="99.78" height="294.8"/></g><g id="Frame"><rect class="cls-6" x="5.67" y="5.67" width="87.87" height="119.06"/><rect class="cls-6" x="5.67" y="124.72" width="87.87" height="164.41"/><text class="cls-8" transform="translate(8.5 13.65)"><tspan x="0" y="0">Customer / Remote support</tspan></text><text class="cls-8" transform="translate(8.5 133.23)"><tspan x="0" y="0">Engineer</tspan></text></g><g id="Blocks"><rect class="cls-5" x="28.35" y="85.04" width="56.69" height="28.35"/><text class="cls-9" transform="translate(40.35 98.24)"><tspan x="0" y="0">Perform automatic </tspan><tspan x="4.89" y="4.8">maintenance</tspan></text><rect class="cls-5" x="28.35" y="141.73" width="56.69" height="28.35"/><text class="cls-9" transform="translate(42.57 157.34)"><tspan x="0" y="0">Purse printhead</tspan></text><rect class="cls-5" x="28.35" y="184.25" width="56.69" height="28.35"/><text class="cls-9" transform="translate(42.91 199.86)"><tspan x="0" y="0">Check airhoses</tspan></text><rect class="cls-5" x="28.35" y="226.77" width="56.69" height="28.35"/><text class="cls-9" transform="translate(40.46 242.38)"><tspan x="0" y="0">Replace printhead</tspan></text><rect class="cls-5" x="28.35" y="42.52" width="56.69" height="28.35"/><text class="cls-9" transform="translate(31.01 58.13)"><tspan x="0" y="0">Repeat calibration procedure</tspan></text><rect class="cls-7" x="28.35" y="21.26" width="56.69" height="14.17" rx="5.67" ry="5.67"/><rect class="cls-4" x="28.35" y="21.26" width="56.69" height="14.17" rx="5.67" ry="5.67"/><text class="cls-9" transform="translate(52.47 29.69)"><tspan x="0" y="0">Start</tspan></text><rect class="cls-7" x="28.35" y="269.29" width="56.69" height="14.17" rx="5.67" ry="5.67"/><rect class="cls-4" x="28.35" y="269.29" width="56.69" height="14.17" rx="5.67" ry="5.67"/><text class="cls-9" transform="translate(53.13 277.73)"><tspan x="0" y="0">End</tspan></text></g><g id="Lines"><line class="cls-7" x1="56.69" y1="35.43" x2="56.69" y2="42.52"/><line class="cls-3" x1="56.69" y1="35.43" x2="56.69" y2="40.26"/><path d="M56.69,42.52c-.4-1.06-1.07-2.39-1.78-3.21l1.78.65,1.78-.65c-.71.82-1.39,2.14-1.78,3.21Z"/><line class="cls-7" x1="56.69" y1="70.87" x2="56.69" y2="85.04"/><line class="cls-3" x1="56.69" y1="70.87" x2="56.69" y2="82.78"/><path d="M56.69,85.04c-.4-1.06-1.07-2.39-1.78-3.21l1.78.65,1.78-.65c-.71.82-1.39,2.14-1.78,3.21Z"/><line class="cls-7" x1="56.69" y1="113.39" x2="56.69" y2="141.73"/><line class="cls-3" x1="56.69" y1="113.39" x2="56.69" y2="139.47"/><path d="M56.69,141.73c-.4-1.06-1.07-2.39-1.78-3.21l1.78.65,1.78-.65c-.71.82-1.39,2.14-1.78,3.21Z"/><line class="cls-7" x1="56.69" y1="170.08" x2="56.69" y2="184.25"/><line class="cls-3" x1="56.69" y1="170.08" x2="56.69" y2="181.99"/><path d="M56.69,184.25c-.4-1.06-1.07-2.39-1.78-3.21l1.78.65,1.78-.65c-.71.82-1.39,2.14-1.78,3.21Z"/><line class="cls-7" x1="56.69" y1="212.6" x2="56.69" y2="226.77"/><line class="cls-3" x1="56.69" y1="212.6" x2="56.69" y2="224.51"/><path d="M56.69,226.77c-.4-1.06-1.07-2.39-1.78-3.21l1.78.65,1.78-.65c-.71.82-1.39,2.14-1.78,3.21Z"/><line class="cls-7" x1="56.69" y1="255.12" x2="56.69" y2="269.29"/><line class="cls-3" x1="56.69" y1="255.12" x2="56.69" y2="267.03"/><path d="M56.69,269.29c-.4-1.06-1.07-2.39-1.78-3.21l1.78.65,1.78-.65c-.71.82-1.39,2.14-1.78,3.21Z"/></g><g id="Numbers"><circle class="cls-2" cx="22.68" cy="56.69" r="5.67"/><text class="cls-8" transform="translate(21.01 58.7)"><tspan x="0" y="0">1</tspan></text><circle class="cls-2" cx="22.68" cy="99.21" r="5.67"/><text class="cls-8" transform="translate(21.01 101.22)"><tspan x="0" y="0">2</tspan></text><circle class="cls-2" cx="22.68" cy="155.91" r="5.67"/><text class="cls-8" transform="translate(21.01 157.92)"><tspan x="0" y="0">3</tspan></text><circle class="cls-2" cx="22.68" cy="198.43" r="5.67"/><text class="cls-8" transform="translate(21.01 200.44)"><tspan x="0" y="0">4</tspan></text><circle class="cls-2" cx="22.68" cy="240.94" r="5.67"/><text class="cls-8" transform="translate(21.01 242.96)"><tspan x="0" y="0">5</tspan></text></g></svg>