<?xml version="1.0" encoding="UTF-8"?><svg xmlns="http://www.w3.org/2000/svg" viewBox="0 0 249.73 209.76"><defs><style>.cls-1,.cls-2{fill:#fff;}.cls-3,.cls-2,.cls-4,.cls-5,.cls-6,.cls-7{stroke-linecap:round;stroke-linejoin:round;}.cls-3,.cls-2,.cls-4,.cls-5,.cls-7{stroke:#000;}.cls-3,.cls-2,.cls-4,.cls-6,.cls-7{stroke-width:.5px;}.cls-3,.cls-5,.cls-6{fill:none;}.cls-4{fill:#c8e6c9;}.cls-5{stroke-width:.25px;}.cls-8{fill:#ffe0b2;}.cls-6{stroke:#e0e0e0;}.cls-9{letter-spacing:-.09em;}.cls-10{font-family:ArialMT, Arial;font-size:4px;}.cls-7{fill:#bbdefb;}.cls-11{font-family:Arial-BoldMT, Arial;font-size:6px;font-weight:700;}</style></defs><g id="Bckground"><rect class="cls-1" width="249.73" height="209.76"/></g><g id="Frame"><rect class="cls-6" x="5.67" y="5.67" width="238.11" height="198.43"/><text class="cls-11" transform="translate(8.03 13.65)"><tspan x="0" y="0">Remote support / Customer</tspan></text></g><g id="Blocks"><g><path class="cls-4" d="M82.2,127.56l28.35,14.17-28.35,14.17-28.35-14.17,28.35-14.17Z"/><text class="cls-10" transform="translate(65.86 143.16)"><tspan x="0" y="0">Media calibrated ?</tspan></text></g><g><path class="cls-4" d="M82.2,70.87l28.35,14.17-28.35,14.17-28.35-14.17,28.35-14.17Z"/><text class="cls-10" transform="translate(69.53 86.47)"><tspan x="0" y="0">Platen clean ?</tspan></text></g><g><rect class="cls-7" x="53.86" y="170.08" width="56.69" height="28.35"/><text class="cls-10" transform="translate(66.08 185.68)"><tspan x="0" y="0">Recalibrate media</tspan></text></g><g><rect class="cls-7" x="138.9" y="170.08" width="56.69" height="28.35"/><text class="cls-10" transform="translate(153.24 185.68)"><tspan x="0" y="0">Calibrate media</tspan></text></g><g><rect class="cls-7" x="138.9" y="99.21" width="56.69" height="28.35"/><text class="cls-10" transform="translate(148.12 114.82)"><tspan x="0" y="0">Perform maintenance</tspan></text></g><g><g><rect class="cls-8" x="53.86" y="28.35" width="56.69" height="28.35" rx="5.67" ry="5.67"/><rect class="cls-3" x="53.86" y="28.35" width="56.69" height="28.35" rx="5.67" ry="5.67"/></g><g><path d="M61.45,39.15l-.76-2.86h.39l.44,1.88c.05,.2,.09,.39,.12,.59,.07-.31,.12-.48,.13-.53l.54-1.93h.46l.41,1.45c.1,.36,.18,.7,.22,1.01,.04-.18,.08-.39,.14-.62l.45-1.84h.38l-.79,2.86h-.37l-.6-2.18c-.05-.18-.08-.29-.09-.34-.03,.13-.06,.24-.08,.34l-.61,2.18h-.39Z"/><path d="M64.68,39.15v-2.86h.35v1.03c.16-.19,.37-.29,.62-.29,.15,0,.29,.03,.4,.09s.19,.14,.24,.25,.07,.26,.07,.46v1.31h-.35v-1.31c0-.18-.04-.3-.11-.38s-.18-.12-.32-.12c-.1,0-.2,.03-.29,.08s-.16,.13-.2,.22-.06,.22-.06,.38v1.13h-.35Z"/><path d="M66.9,36.69v-.4h.35v.4h-.35Zm0,2.46v-2.07h.35v2.07h-.35Z"/><path d="M68.56,38.84l.05,.31c-.1,.02-.19,.03-.27,.03-.13,0-.23-.02-.3-.06s-.12-.09-.15-.16-.04-.2-.04-.42v-1.19h-.26v-.27h.26v-.51l.35-.21v.72h.35v.27h-.35v1.21c0,.1,0,.16,.02,.19s.03,.05,.06,.07,.07,.03,.12,.03c.04,0,.09,0,.15-.01Z"/><path d="M70.32,38.48l.36,.04c-.06,.21-.16,.38-.32,.49s-.35,.18-.59,.18c-.3,0-.54-.09-.72-.28s-.27-.45-.27-.79,.09-.62,.27-.81,.41-.29,.7-.29,.5,.09,.68,.28,.26,.45,.26,.8c0,.02,0,.05,0,.09h-1.55c.01,.23,.08,.4,.19,.52s.26,.18,.43,.18c.13,0,.24-.03,.33-.1s.16-.18,.22-.32Zm-1.15-.57h1.16c-.02-.17-.06-.31-.13-.39-.11-.14-.26-.2-.44-.2-.16,0-.3,.05-.41,.16s-.17,.25-.18,.43Z"/><path d="M73.59,38.9c-.13,.11-.26,.19-.38,.23s-.25,.07-.39,.07c-.23,0-.4-.06-.53-.17s-.18-.25-.18-.43c0-.1,.02-.19,.07-.28s.11-.15,.18-.2,.16-.09,.25-.12c.07-.02,.17-.04,.31-.05,.28-.03,.49-.07,.63-.12,0-.05,0-.08,0-.09,0-.14-.03-.24-.1-.3-.09-.08-.22-.12-.4-.12-.17,0-.29,.03-.37,.09s-.14,.16-.17,.31l-.34-.05c.03-.15,.08-.27,.15-.36s.18-.16,.31-.21,.29-.07,.47-.07,.32,.02,.43,.06,.19,.09,.24,.16,.09,.14,.11,.24c.01,.06,.02,.17,.02,.32v.47c0,.33,0,.53,.02,.62s.04,.17,.09,.25h-.37c-.04-.07-.06-.16-.07-.26Zm-.03-.79c-.13,.05-.32,.1-.57,.13-.14,.02-.25,.04-.31,.07s-.11,.06-.14,.11-.05,.11-.05,.17c0,.09,.04,.17,.11,.23s.17,.09,.31,.09,.26-.03,.36-.09,.18-.14,.23-.24c.04-.08,.06-.2,.06-.35v-.13Z"/><path d="M74.46,39.15v-2.07h.32v.29c.15-.23,.37-.34,.66-.34,.12,0,.24,.02,.34,.07s.18,.1,.24,.18,.09,.16,.11,.26c.01,.06,.02,.18,.02,.34v1.28h-.35v-1.26c0-.14-.01-.25-.04-.32s-.08-.13-.15-.17-.15-.06-.25-.06c-.15,0-.28,.05-.39,.14s-.16,.28-.16,.54v1.13h-.35Z"/><path d="M78.03,39.15v-.26c-.13,.21-.32,.31-.58,.31-.17,0-.32-.05-.46-.14s-.25-.22-.32-.38-.11-.35-.11-.56,.03-.4,.1-.56,.17-.3,.31-.39,.29-.13,.46-.13c.12,0,.24,.03,.33,.08s.18,.12,.24,.21v-1.03h.35v2.86h-.33Zm-1.11-1.04c0,.27,.06,.46,.17,.6s.24,.2,.4,.2,.28-.06,.39-.19,.16-.32,.16-.58c0-.28-.05-.49-.16-.62s-.24-.2-.4-.2-.29,.06-.39,.19-.16,.33-.16,.6Z"/><path d="M79.76,39.2l.83-2.96h.28l-.83,2.96h-.28Z"/><path d="M82.12,38.11c0-.38,.11-.67,.32-.85,.18-.15,.4-.23,.65-.23,.29,0,.52,.09,.7,.28s.27,.44,.27,.77c0,.27-.04,.48-.12,.63s-.2,.27-.35,.36-.32,.13-.5,.13c-.29,0-.52-.09-.7-.28s-.27-.45-.27-.8Zm.36,0c0,.27,.06,.46,.17,.6s.26,.2,.44,.2,.32-.07,.44-.2,.17-.34,.17-.61c0-.26-.06-.45-.17-.58s-.26-.2-.43-.2-.32,.07-.44,.2-.17,.33-.17,.6Z"/><path d="M84.47,39.15v-2.07h.32v.31c.08-.15,.16-.24,.22-.29s.14-.07,.23-.07c.12,0,.24,.04,.36,.11l-.12,.33c-.09-.05-.17-.08-.26-.08-.08,0-.15,.02-.21,.07s-.1,.11-.13,.19c-.04,.12-.06,.26-.06,.41v1.09h-.35Z"/><path d="M88.26,39.15v-.26c-.13,.21-.32,.31-.58,.31-.17,0-.32-.05-.46-.14s-.25-.22-.32-.38-.11-.35-.11-.56,.03-.4,.1-.56,.17-.3,.31-.39,.29-.13,.46-.13c.12,0,.24,.03,.33,.08s.18,.12,.24,.21v-1.03h.35v2.86h-.33Zm-1.11-1.04c0,.27,.06,.46,.17,.6s.24,.2,.4,.2,.28-.06,.39-.19,.16-.32,.16-.58c0-.28-.05-.49-.16-.62s-.24-.2-.4-.2-.29,.06-.39,.19-.16,.33-.16,.6Z"/><path d="M90.49,38.9c-.13,.11-.26,.19-.38,.23s-.25,.07-.39,.07c-.23,0-.4-.06-.53-.17s-.18-.25-.18-.43c0-.1,.02-.19,.07-.28s.11-.15,.18-.2,.16-.09,.25-.12c.07-.02,.17-.04,.31-.05,.28-.03,.49-.07,.63-.12,0-.05,0-.08,0-.09,0-.14-.03-.24-.1-.3-.09-.08-.22-.12-.4-.12-.17,0-.29,.03-.37,.09s-.14,.16-.17,.31l-.34-.05c.03-.15,.08-.27,.15-.36s.18-.16,.31-.21,.29-.07,.47-.07,.32,.02,.43,.06,.19,.09,.24,.16,.09,.14,.11,.24c.01,.06,.02,.17,.02,.32v.47c0,.33,0,.53,.02,.62s.04,.17,.09,.25h-.37c-.04-.07-.06-.16-.07-.26Zm-.03-.79c-.13,.05-.32,.1-.57,.13-.14,.02-.25,.04-.31,.07s-.11,.06-.14,.11-.05,.11-.05,.17c0,.09,.04,.17,.11,.23s.17,.09,.31,.09,.26-.03,.36-.09,.18-.14,.23-.24c.04-.08,.06-.2,.06-.35v-.13Z"/><path d="M91.36,39.15v-2.07h.32v.31c.08-.15,.16-.24,.22-.29s.14-.07,.23-.07c.12,0,.24,.04,.36,.11l-.12,.33c-.09-.05-.17-.08-.26-.08-.08,0-.15,.02-.21,.07s-.1,.11-.13,.19c-.04,.12-.06,.26-.06,.41v1.09h-.35Z"/><path d="M92.7,39.15v-2.86h.35v1.63l.83-.84h.46l-.79,.77,.87,1.3h-.43l-.69-1.06-.25,.24v.82h-.35Z"/><path d="M95.8,39.15v-2.86h.35v2.86h-.35Z"/><path d="M96.7,36.69v-.4h.35v.4h-.35Zm0,2.46v-2.07h.35v2.07h-.35Z"/><path d="M97.58,39.15v-2.07h.32v.29c.15-.23,.37-.34,.66-.34,.12,0,.24,.02,.34,.07s.18,.1,.24,.18,.09,.16,.11,.26c.01,.06,.02,.18,.02,.34v1.28h-.35v-1.26c0-.14-.01-.25-.04-.32s-.08-.13-.15-.17-.15-.06-.25-.06c-.15,0-.28,.05-.39,.14s-.16,.28-.16,.54v1.13h-.35Z"/><path d="M101.23,38.48l.36,.04c-.06,.21-.16,.38-.32,.49s-.35,.18-.59,.18c-.3,0-.54-.09-.72-.28s-.27-.45-.27-.79,.09-.62,.27-.81,.41-.29,.7-.29,.5,.09,.68,.28,.26,.45,.26,.8c0,.02,0,.05,0,.09h-1.55c.01,.23,.08,.4,.19,.52s.26,.18,.43,.18c.13,0,.24-.03,.33-.1s.16-.18,.22-.32Zm-1.15-.57h1.16c-.02-.17-.06-.31-.13-.39-.11-.14-.26-.2-.44-.2-.16,0-.3,.05-.41,.16s-.17,.25-.18,.43Z"/><path d="M101.89,38.53l.35-.05c.02,.14,.07,.25,.16,.32s.21,.11,.37,.11,.28-.03,.36-.1,.12-.14,.12-.23c0-.08-.03-.14-.1-.19-.05-.03-.17-.07-.36-.12-.26-.06-.44-.12-.54-.17s-.18-.11-.23-.2-.08-.18-.08-.28c0-.09,.02-.18,.06-.26s.1-.14,.17-.2c.05-.04,.13-.07,.22-.1s.2-.04,.3-.04c.16,0,.31,.02,.43,.07s.21,.11,.27,.19,.1,.19,.12,.32l-.34,.05c-.02-.11-.06-.19-.14-.25s-.18-.09-.32-.09c-.16,0-.28,.03-.35,.08s-.1,.12-.1,.19c0,.05,.01,.09,.04,.12,.03,.04,.07,.07,.13,.09,.04,.01,.14,.04,.31,.09,.25,.07,.42,.12,.52,.16s.18,.1,.23,.18,.08,.18,.08,.3-.03,.23-.1,.33-.17,.18-.3,.24-.27,.08-.44,.08c-.27,0-.48-.06-.62-.17s-.23-.28-.27-.5Z"/><path d="M63.57,41.49v-.4h.35v.4h-.35Zm0,2.46v-2.07h.35v2.07h-.35Z"/><path d="M64.46,43.95v-2.07h.32v.29c.15-.23,.37-.34,.66-.34,.12,0,.24,.02,.34,.07s.18,.1,.24,.18,.09,.16,.11,.26c.01,.06,.02,.18,.02,.34v1.28h-.35v-1.26c0-.14-.01-.25-.04-.32s-.08-.13-.15-.17-.15-.06-.25-.06c-.15,0-.28,.05-.39,.14s-.16,.28-.16,.54v1.13h-.35Z"/><path d="M68.56,43.64l.05,.31c-.1,.02-.19,.03-.27,.03-.13,0-.23-.02-.3-.06s-.12-.09-.15-.16-.04-.2-.04-.42v-1.19h-.26v-.27h.26v-.51l.35-.21v.72h.35v.27h-.35v1.21c0,.1,0,.16,.02,.19s.03,.05,.06,.07,.07,.03,.12,.03c.04,0,.09,0,.15-.01Z"/><path d="M68.91,43.95v-2.86h.35v1.03c.16-.19,.37-.29,.62-.29,.15,0,.29,.03,.4,.09s.19,.14,.24,.25,.07,.26,.07,.46v1.31h-.35v-1.31c0-.18-.04-.3-.11-.38s-.18-.12-.32-.12c-.1,0-.2,.03-.29,.08s-.16,.13-.2,.22-.06,.22-.06,.38v1.13h-.35Z"/><path d="M72.55,43.28l.36,.04c-.06,.21-.16,.38-.32,.49s-.35,.18-.59,.18c-.3,0-.54-.09-.72-.28s-.27-.45-.27-.79,.09-.62,.27-.81,.41-.29,.7-.29,.5,.09,.68,.28,.26,.45,.26,.8c0,.02,0,.05,0,.09h-1.55c.01,.23,.08,.4,.19,.52s.26,.18,.43,.18c.13,0,.24-.03,.33-.1s.16-.18,.22-.32Zm-1.15-.57h1.16c-.02-.17-.06-.31-.13-.39-.11-.14-.26-.2-.44-.2-.16,0-.3,.05-.41,.16s-.17,.25-.18,.43Z"/><path d="M74.55,43.95v-1.8h-.31v-.27h.31v-.22c0-.14,.01-.24,.04-.31,.03-.09,.09-.17,.18-.22s.2-.08,.36-.08c.1,0,.21,.01,.33,.04l-.05,.31c-.07-.01-.14-.02-.21-.02-.11,0-.18,.02-.23,.07s-.07,.13-.07,.26v.19h.4v.27h-.4v1.8h-.35Z"/><path d="M75.58,41.49v-.4h.35v.4h-.35Zm0,2.46v-2.07h.35v2.07h-.35Z"/><path d="M76.46,43.95v-2.07h.32v.31c.08-.15,.16-.24,.22-.29s.14-.07,.23-.07c.12,0,.24,.04,.36,.11l-.12,.33c-.09-.05-.17-.08-.26-.08-.08,0-.15,.02-.21,.07s-.1,.11-.13,.19c-.04,.12-.06,.26-.06,.41v1.09h-.35Z"/><path d="M77.66,43.33l.35-.05c.02,.14,.07,.25,.16,.32s.21,.11,.37,.11,.28-.03,.36-.1,.12-.14,.12-.23c0-.08-.03-.14-.1-.19-.05-.03-.17-.07-.36-.12-.26-.06-.44-.12-.54-.17s-.18-.11-.23-.2-.08-.18-.08-.28c0-.09,.02-.18,.06-.26s.1-.14,.17-.2c.05-.04,.13-.07,.22-.1s.2-.04,.3-.04c.16,0,.31,.02,.43,.07s.21,.11,.27,.19,.1,.19,.12,.32l-.34,.05c-.02-.11-.06-.19-.14-.25s-.18-.09-.32-.09c-.16,0-.28,.03-.35,.08s-.1,.12-.1,.19c0,.05,.01,.09,.04,.12,.03,.04,.07,.07,.13,.09,.04,.01,.14,.04,.31,.09,.25,.07,.42,.12,.52,.16s.18,.1,.23,.18,.08,.18,.08,.3-.03,.23-.1,.33-.17,.18-.3,.24-.27,.08-.44,.08c-.27,0-.48-.06-.62-.17s-.23-.28-.27-.5Z"/><path d="M80.57,43.64l.05,.31c-.1,.02-.19,.03-.27,.03-.13,0-.23-.02-.3-.06s-.12-.09-.15-.16-.04-.2-.04-.42v-1.19h-.26v-.27h.26v-.51l.35-.21v.72h.35v.27h-.35v1.21c0,.1,0,.16,.02,.19s.03,.05,.06,.07,.07,.03,.12,.03c.04,0,.09,0,.15-.01Z"/><path d="M82.02,43.95v-2.07h.31v.29c.06-.1,.15-.18,.26-.25s.23-.09,.37-.09c.15,0,.28,.03,.38,.1s.17,.15,.21,.27c.16-.24,.38-.36,.64-.36,.21,0,.36,.06,.47,.17s.17,.29,.17,.53v1.42h-.35v-1.31c0-.14-.01-.24-.03-.3s-.06-.11-.12-.15-.13-.06-.21-.06c-.15,0-.27,.05-.36,.15s-.14,.25-.14,.47v1.21h-.35v-1.35c0-.16-.03-.27-.09-.35s-.15-.12-.28-.12c-.1,0-.19,.03-.27,.08s-.15,.13-.18,.23-.06,.24-.06,.43v1.08h-.35Z"/><path d="M86.78,43.28l.36,.04c-.06,.21-.16,.38-.32,.49s-.35,.18-.59,.18c-.3,0-.54-.09-.72-.28s-.27-.45-.27-.79,.09-.62,.27-.81,.41-.29,.7-.29,.5,.09,.68,.28,.26,.45,.26,.8c0,.02,0,.05,0,.09h-1.55c.01,.23,.08,.4,.19,.52s.26,.18,.43,.18c.13,0,.24-.03,.33-.1s.16-.18,.22-.32Zm-1.15-.57h1.16c-.02-.17-.06-.31-.13-.39-.11-.14-.26-.2-.44-.2-.16,0-.3,.05-.41,.16s-.17,.25-.18,.43Z"/><path d="M88.35,43.64l.05,.31c-.1,.02-.19,.03-.27,.03-.13,0-.23-.02-.3-.06s-.12-.09-.15-.16-.04-.2-.04-.42v-1.19h-.26v-.27h.26v-.51l.35-.21v.72h.35v.27h-.35v1.21c0,.1,0,.16,.02,.19s.03,.05,.06,.07,.07,.03,.12,.03c.04,0,.09,0,.15-.01Z"/><path d="M90.11,43.28l.36,.04c-.06,.21-.16,.38-.32,.49s-.35,.18-.59,.18c-.3,0-.54-.09-.72-.28s-.27-.45-.27-.79,.09-.62,.27-.81,.41-.29,.7-.29,.5,.09,.68,.28,.26,.45,.26,.8c0,.02,0,.05,0,.09h-1.55c.01,.23,.08,.4,.19,.52s.26,.18,.43,.18c.13,0,.24-.03,.33-.1s.16-.18,.22-.32Zm-1.15-.57h1.16c-.02-.17-.06-.31-.13-.39-.11-.14-.26-.2-.44-.2-.16,0-.3,.05-.41,.16s-.17,.25-.18,.43Z"/><path d="M90.91,43.95v-2.07h.32v.31c.08-.15,.16-.24,.22-.29s.14-.07,.23-.07c.12,0,.24,.04,.36,.11l-.12,.33c-.09-.05-.17-.08-.26-.08-.08,0-.15,.02-.21,.07s-.1,.11-.13,.19c-.04,.12-.06,.26-.06,.41v1.09h-.35Z"/><path d="M94.71,43.7c-.13,.11-.26,.19-.38,.23s-.25,.07-.39,.07c-.23,0-.4-.06-.53-.17s-.18-.25-.18-.43c0-.1,.02-.19,.07-.28s.11-.15,.18-.2,.16-.09,.25-.12c.07-.02,.17-.04,.31-.05,.28-.03,.49-.07,.63-.12,0-.05,0-.08,0-.09,0-.14-.03-.24-.1-.3-.09-.08-.22-.12-.4-.12-.17,0-.29,.03-.37,.09s-.14,.16-.17,.31l-.34-.05c.03-.15,.08-.27,.15-.36s.18-.16,.31-.21,.29-.07,.47-.07,.32,.02,.43,.06,.19,.09,.24,.16,.09,.14,.11,.24c.01,.06,.02,.17,.02,.32v.47c0,.33,0,.53,.02,.62s.04,.17,.09,.25h-.37c-.04-.07-.06-.16-.07-.26Zm-.03-.79c-.13,.05-.32,.1-.57,.13-.14,.02-.25,.04-.31,.07s-.11,.06-.14,.11-.05,.11-.05,.17c0,.09,.04,.17,.11,.23s.17,.09,.31,.09,.26-.03,.36-.09,.18-.14,.23-.24c.04-.08,.06-.2,.06-.35v-.13Z"/><path d="M95.67,43.95v-1.8h-.31v-.27h.31v-.22c0-.14,.01-.24,.04-.31,.03-.09,.09-.17,.18-.22s.2-.08,.36-.08c.1,0,.21,.01,.33,.04l-.05,.31c-.07-.01-.14-.02-.21-.02-.11,0-.18,.02-.23,.07s-.07,.13-.07,.26v.19h.4v.27h-.4v1.8h-.35Z"/><path d="M97.46,43.64l.05,.31c-.1,.02-.19,.03-.27,.03-.13,0-.23-.02-.3-.06s-.12-.09-.15-.16-.04-.2-.04-.42v-1.19h-.26v-.27h.26v-.51l.35-.21v.72h.35v.27h-.35v1.21c0,.1,0,.16,.02,.19s.03,.05,.06,.07,.07,.03,.12,.03c.04,0,.09,0,.15-.01Z"/><path d="M99.23,43.28l.36,.04c-.06,.21-.16,.38-.32,.49s-.35,.18-.59,.18c-.3,0-.54-.09-.72-.28s-.27-.45-.27-.79,.09-.62,.27-.81,.41-.29,.7-.29,.5,.09,.68,.28,.26,.45,.26,.8c0,.02,0,.05,0,.09h-1.55c.01,.23,.08,.4,.19,.52s.26,.18,.43,.18c.13,0,.24-.03,.33-.1s.16-.18,.22-.32Zm-1.15-.57h1.16c-.02-.17-.06-.31-.13-.39-.11-.14-.26-.2-.44-.2-.16,0-.3,.05-.41,.16s-.17,.25-.18,.43Z"/><path d="M100.03,43.95v-2.07h.32v.31c.08-.15,.16-.24,.22-.29s.14-.07,.23-.07c.12,0,.24,.04,.36,.11l-.12,.33c-.09-.05-.17-.08-.26-.08-.08,0-.15,.02-.21,.07s-.1,.11-.13,.19c-.04,.12-.06,.26-.06,.41v1.09h-.35Z"/><path d="M73.45,48.44l.05,.31c-.1,.02-.19,.03-.27,.03-.13,0-.23-.02-.3-.06s-.12-.09-.15-.16-.04-.2-.04-.42v-1.19h-.26v-.27h.26v-.51l.35-.21v.72h.35v.27h-.35v1.21c0,.1,0,.16,.02,.19s.03,.05,.06,.07,.07,.03,.12,.03c.04,0,.09,0,.15-.01Z"/><path d="M73.79,48.75v-2.86h.35v1.03c.16-.19,.37-.29,.62-.29,.15,0,.29,.03,.4,.09s.19,.14,.24,.25,.07,.26,.07,.46v1.31h-.35v-1.31c0-.18-.04-.3-.11-.38s-.18-.12-.32-.12c-.1,0-.2,.03-.29,.08s-.16,.13-.2,.22-.06,.22-.06,.38v1.13h-.35Z"/><path d="M77.44,48.08l.36,.04c-.06,.21-.16,.38-.32,.49s-.35,.18-.59,.18c-.3,0-.54-.09-.72-.28s-.27-.45-.27-.79,.09-.62,.27-.81,.41-.29,.7-.29,.5,.09,.68,.28,.26,.45,.26,.8c0,.02,0,.05,0,.09h-1.55c.01,.23,.08,.4,.19,.52s.26,.18,.43,.18c.13,0,.24-.03,.33-.1s.16-.18,.22-.32Zm-1.15-.57h1.16c-.02-.17-.06-.31-.13-.39-.11-.14-.26-.2-.44-.2-.16,0-.3,.05-.41,.16s-.17,.25-.18,.43Z"/><path d="M79.35,48.75v-2.86h.35v2.86h-.35Z"/><path d="M81.66,48.08l.36,.04c-.06,.21-.16,.38-.32,.49s-.35,.18-.59,.18c-.3,0-.54-.09-.72-.28s-.27-.45-.27-.79,.09-.62,.27-.81,.41-.29,.7-.29,.5,.09,.68,.28,.26,.45,.26,.8c0,.02,0,.05,0,.09h-1.55c.01,.23,.08,.4,.19,.52s.26,.18,.43,.18c.13,0,.24-.03,.33-.1s.16-.18,.22-.32Zm-1.15-.57h1.16c-.02-.17-.06-.31-.13-.39-.11-.14-.26-.2-.44-.2-.16,0-.3,.05-.41,.16s-.17,.25-.18,.43Z"/><path d="M83.82,48.5c-.13,.11-.26,.19-.38,.23s-.25,.07-.39,.07c-.23,0-.4-.06-.53-.17s-.18-.25-.18-.43c0-.1,.02-.19,.07-.28s.11-.15,.18-.2,.16-.09,.25-.12c.07-.02,.17-.04,.31-.05,.28-.03,.49-.07,.63-.12,0-.05,0-.08,0-.09,0-.14-.03-.24-.1-.3-.09-.08-.22-.12-.4-.12-.17,0-.29,.03-.37,.09s-.14,.16-.17,.31l-.34-.05c.03-.15,.08-.27,.15-.36s.18-.16,.31-.21,.29-.07,.47-.07,.32,.02,.43,.06,.19,.09,.24,.16,.09,.14,.11,.24c.01,.06,.02,.17,.02,.32v.47c0,.33,0,.53,.02,.62s.04,.17,.09,.25h-.37c-.04-.07-.06-.16-.07-.26Zm-.03-.79c-.13,.05-.32,.1-.57,.13-.14,.02-.25,.04-.31,.07s-.11,.06-.14,.11-.05,.11-.05,.17c0,.09,.04,.17,.11,.23s.17,.09,.31,.09,.26-.03,.36-.09,.18-.14,.23-.24c.04-.08,.06-.2,.06-.35v-.13Z"/><path d="M86.04,48.75v-.26c-.13,.21-.32,.31-.58,.31-.17,0-.32-.05-.46-.14s-.25-.22-.32-.38-.11-.35-.11-.56,.03-.4,.1-.56,.17-.3,.31-.39,.29-.13,.46-.13c.12,0,.24,.03,.33,.08s.18,.12,.24,.21v-1.03h.35v2.86h-.33Zm-1.11-1.04c0,.27,.06,.46,.17,.6s.24,.2,.4,.2,.28-.06,.39-.19,.16-.32,.16-.58c0-.28-.05-.49-.16-.62s-.24-.2-.4-.2-.29,.06-.39,.19-.16,.33-.16,.6Z"/><path d="M86.92,46.29v-.4h.35v.4h-.35Zm0,2.46v-2.07h.35v2.07h-.35Z"/><path d="M87.8,48.75v-2.07h.32v.29c.15-.23,.37-.34,.66-.34,.12,0,.24,.02,.34,.07s.18,.1,.24,.18,.09,.16,.11,.26c.01,.06,.02,.18,.02,.34v1.28h-.35v-1.26c0-.14-.01-.25-.04-.32s-.08-.13-.15-.17-.15-.06-.25-.06c-.15,0-.28,.05-.39,.14s-.16,.28-.16,.54v1.13h-.35Z"/><path d="M89.96,48.92l.34,.05c.01,.11,.05,.18,.12,.23,.09,.06,.21,.1,.36,.1,.16,0,.29-.03,.38-.1s.15-.16,.18-.27c.02-.07,.03-.22,.03-.45-.15,.18-.35,.27-.57,.27-.29,0-.51-.1-.66-.31s-.23-.45-.23-.74c0-.2,.04-.38,.11-.55s.18-.3,.31-.39,.3-.14,.48-.14c.24,0,.45,.1,.61,.3v-.25h.32v1.79c0,.32-.03,.55-.1,.69s-.17,.24-.31,.32-.32,.12-.53,.12c-.25,0-.45-.06-.6-.17s-.23-.28-.22-.5Zm.29-1.25c0,.27,.05,.47,.16,.6s.24,.19,.41,.19,.3-.06,.41-.19,.16-.32,.16-.58-.06-.45-.17-.57-.25-.19-.41-.19-.29,.06-.4,.19-.16,.32-.16,.57Z"/></g></g></g><g id="Lines"><g><line class="cls-8" x1="82.2" y1="56.69" x2="82.2" y2="70.87"/><g><line class="cls-5" x1="82.2" y1="56.69" x2="82.2" y2="68.6"/><path d="M82.2,70.87c-.4-1.06-1.07-2.39-1.78-3.21l1.78,.65,1.78-.65c-.71,.82-1.39,2.14-1.78,3.21Z"/></g></g><g><polyline class="cls-5" points="110.55 85.04 167.24 85.04 167.24 96.95"/><path d="M167.24,99.21c-.4-1.06-1.07-2.39-1.78-3.21l1.78,.65,1.78-.65c-.71,.82-1.39,2.14-1.78,3.21Z"/></g><g><g><path class="cls-1" d="M122.6,85.04c0,1.56-1.28,2.83-2.83,2.83h-4.25c-1.56,0-2.83-1.28-2.83-2.83s1.28-2.83,2.83-2.83h4.25c1.56,0,2.83,1.28,2.83,2.83Z"/><path class="cls-3" d="M122.6,85.04c0,1.56-1.28,2.83-2.83,2.83h-4.25c-1.56,0-2.83-1.28-2.83-2.83s1.28-2.83,2.83-2.83h4.25c1.56,0,2.83,1.28,2.83,2.83Z"/></g><text class="cls-10" transform="translate(115.08 86.53)"><tspan x="0" y="0">No</tspan></text></g><g><polyline class="cls-5" points="110.55 141.73 167.24 141.73 167.24 167.82"/><path d="M167.24,170.08c-.4-1.06-1.07-2.39-1.78-3.21l1.78,.65,1.78-.65c-.71,.82-1.39,2.14-1.78,3.21Z"/></g><g><g><path class="cls-1" d="M122.6,141.73c0,1.56-1.28,2.83-2.83,2.83h-4.25c-1.56,0-2.83-1.28-2.83-2.83s1.28-2.83,2.83-2.83h4.25c1.56,0,2.83,1.28,2.83,2.83Z"/><path class="cls-3" d="M122.6,141.73c0,1.56-1.28,2.83-2.83,2.83h-4.25c-1.56,0-2.83-1.28-2.83-2.83s1.28-2.83,2.83-2.83h4.25c1.56,0,2.83,1.28,2.83,2.83Z"/></g><text class="cls-10" transform="translate(115.08 143.22)"><tspan x="0" y="0">No</tspan></text></g><g><line class="cls-8" x1="82.2" y1="99.21" x2="82.2" y2="127.56"/><g><line class="cls-5" x1="82.2" y1="99.21" x2="82.2" y2="125.3"/><path d="M82.2,127.56c-.4-1.06-1.07-2.39-1.78-3.21l1.78,.65,1.78-.65c-.71,.82-1.39,2.14-1.78,3.21Z"/></g></g><g><g><path class="cls-1" d="M87.17,105.01c0,1.56-1.28,2.83-2.83,2.83h-4.25c-1.56,0-2.83-1.28-2.83-2.83s1.28-2.83,2.83-2.83h4.25c1.56,0,2.83,1.28,2.83,2.83Z"/><path class="cls-3" d="M87.17,105.01c0,1.56-1.28,2.83-2.83,2.83h-4.25c-1.56,0-2.83-1.28-2.83-2.83s1.28-2.83,2.83-2.83h4.25c1.56,0,2.83,1.28,2.83,2.83Z"/></g><text class="cls-10" transform="translate(78.94 106.5)"><tspan class="cls-9" x="0" y="0">Y</tspan><tspan x="2.3" y="0">es</tspan></text></g><g><line class="cls-8" x1="82.2" y1="155.91" x2="82.2" y2="170.08"/><g><line class="cls-5" x1="82.2" y1="155.91" x2="82.2" y2="167.82"/><path d="M82.2,170.08c-.4-1.06-1.07-2.39-1.78-3.21l1.78,.65,1.78-.65c-.71,.82-1.39,2.14-1.78,3.21Z"/></g></g><g><g><path class="cls-1" d="M87.17,161.7c0,1.56-1.28,2.83-2.83,2.83h-4.25c-1.56,0-2.83-1.28-2.83-2.83s1.28-2.83,2.83-2.83h4.25c1.56,0,2.83,1.28,2.83,2.83Z"/><path class="cls-3" d="M87.17,161.7c0,1.56-1.28,2.83-2.83,2.83h-4.25c-1.56,0-2.83-1.28-2.83-2.83s1.28-2.83,2.83-2.83h4.25c1.56,0,2.83,1.28,2.83,2.83Z"/></g><text class="cls-10" transform="translate(78.94 163.19)"><tspan class="cls-9" x="0" y="0">Y</tspan><tspan x="2.3" y="0">es</tspan></text></g></g><g id="Numbers"><g><circle class="cls-2" cx="48.19" cy="85.04" r="5.67"/><text class="cls-11" transform="translate(46.52 87.05)"><tspan x="0" y="0">1</tspan></text></g><g><circle class="cls-2" cx="133.23" cy="113.39" r="5.67"/><text class="cls-11" transform="translate(131.56 115.4)"><tspan x="0" y="0">2</tspan></text></g><g><circle class="cls-2" cx="48.19" cy="184.25" r="5.67"/><text class="cls-11" transform="translate(46.52 186.26)"><tspan x="0" y="0">4</tspan></text></g><g><circle class="cls-2" cx="48.19" cy="141.73" r="5.67"/><text class="cls-11" transform="translate(46.52 143.74)"><tspan x="0" y="0">3</tspan></text></g><g><circle class="cls-2" cx="133.23" cy="184.25" r="5.67"/><text class="cls-11" transform="translate(131.56 186.26)"><tspan x="0" y="0">5</tspan></text></g></g></svg>