<?xml version="1.0" encoding="UTF-8"?><svg xmlns="http://www.w3.org/2000/svg" viewBox="0 0 547.09 379.84"><defs><style>.cls-1,.cls-2{fill:#fff;}.cls-3,.cls-2,.cls-4,.cls-5,.cls-6,.cls-7{stroke-linecap:round;stroke-linejoin:round;}.cls-3,.cls-2,.cls-4,.cls-5,.cls-7{stroke:#000;}.cls-3,.cls-2,.cls-4,.cls-6,.cls-7{stroke-width:.5px;}.cls-3,.cls-5,.cls-6{fill:none;}.cls-4{fill:#c8e6c9;}.cls-5{stroke-width:.25px;}.cls-8{fill:#ffe0b2;}.cls-6{stroke:#e0e0e0;}.cls-9{letter-spacing:-.09em;}.cls-10{font-family:ArialMT, Arial;font-size:4px;}.cls-7{fill:#bbdefb;}.cls-11{letter-spacing:-.06em;}.cls-12{font-family:Arial-BoldMT, Arial;font-size:6px;font-weight:700;}</style></defs><g id="Bckground"><rect class="cls-1" width="547.09" height="379.84"/></g><g id="Frame"><rect class="cls-6" x="5.67" y="5.67" width="535.75" height="221.1"/><rect class="cls-6" x="5.67" y="226.77" width="535.75" height="147.4"/><text class="cls-12" transform="translate(8.5 13.65)"><tspan x="0" y="0">Remote support / Customer</tspan></text><text class="cls-12" transform="translate(8.5 234.75)"><tspan x="0" y="0">Engineer</tspan></text></g><g id="Blocks"><g><path class="cls-4" d="m82.2,56.69l28.35,14.17-28.35,14.17-28.35-14.17,28.35-14.17Z"/><text class="cls-10" transform="translate(68.64 69.9)"><tspan x="0" y="0">Need lubricator </tspan><tspan x=".89" y="4.8">replacement ?</tspan></text></g><g><path class="cls-4" d="m167.24,85.04l28.35,14.17-28.35,14.17-28.35-14.17,28.35-14.17Z"/><text class="cls-10" transform="translate(153.24 100.64)"><tspan x="0" y="0">Ruler polluted ?</tspan></text></g><g><path class="cls-4" d="m280.63,113.39l28.35,14.17-28.35,14.17-28.35-14.17,28.35-14.17Z"/><text class="cls-10" transform="translate(270.29 126.59)"><tspan x="0" y="0">Ruler out of </tspan><tspan x=".55" y="4.8">guidance ?</tspan></text></g><g><path class="cls-4" d="m167.24,141.73l28.35,14.17-28.35,14.17-28.35-14.17,28.35-14.17Z"/><text class="cls-10" transform="translate(152.68 157.34)"><tspan x="0" y="0">New type ruler ?</tspan></text></g><g><path class="cls-4" d="m422.36,297.64l28.35,14.17-28.35,14.17-28.35-14.17,28.35-14.17Z"/><text class="cls-10" transform="translate(406.58 310.84)"><tspan x="0" y="0">Correct tension of </tspan><tspan x="3.11" y="4.8">carriage belt ?</tspan></text></g><g><rect class="cls-7" x="53.86" y="113.39" width="56.69" height="28.35"/><text class="cls-10" transform="translate(65.09 128.99)"><tspan x="0" y="0">Replace lubricators</tspan></text></g><g><rect class="cls-7" x="138.9" y="184.25" width="56.69" height="28.35"/><text class="cls-10" transform="translate(157.46 199.86)"><tspan x="0" y="0">Clean ruler</tspan></text></g><g><rect class="cls-7" x="195.59" y="240.94" width="56.69" height="28.35"/><text class="cls-10" transform="translate(212.04 256.55)"><tspan x="0" y="0">Replace ruler</tspan></text></g><g><rect class="cls-7" x="308.98" y="297.64" width="56.69" height="28.35"/><text class="cls-10" transform="translate(320.09 313.24)"><tspan x="0" y="0">Reposition encoder</tspan></text></g><g><g><rect class="cls-8" x="53.86" y="28.35" width="56.69" height="14.17" rx="5.67" ry="5.67"/><rect class="cls-3" x="53.86" y="28.35" width="56.69" height="14.17" rx="5.67" ry="5.67"/></g><text class="cls-10" transform="translate(60.41 34.38)"><tspan x="0" y="0">Smooth light and/or dark </tspan><tspan x="-1.22" y="4.8">areas in carriage direction</tspan></text></g><g><rect class="cls-7" x="252.28" y="184.25" width="56.69" height="28.35"/><text class="cls-10" transform="translate(260.28 199.86)"><tspan x="0" y="0">Place ruler in guidance</tspan></text></g><g><rect class="cls-7" x="394.02" y="340.16" width="56.69" height="28.35"/><text class="cls-10" transform="translate(404.46 355.76)"><tspan x="0" y="0">Check belt and gear</tspan></text></g><g><rect class="cls-7" x="479.06" y="340.16" width="56.69" height="28.35"/><text class="cls-10" transform="translate(491.06 355.76)"><tspan x="0" y="0">Adjust belt tension</tspan></text></g><g><path class="cls-4" d="m337.32,240.94l28.35,14.17-28.35,14.17-28.35-14.17,28.35-14.17Z"/><text class="cls-10" transform="translate(324.31 254.15)"><tspan x="0" y="0">Encoder out of </tspan><tspan x="4.45" y="4.8">position ?</tspan></text></g></g><g id="Lines"><g><line class="cls-8" x1="82.2" y1="42.52" x2="82.2" y2="56.69"/><g><line class="cls-5" x1="82.2" y1="42.52" x2="82.2" y2="54.43"/><path d="m82.2,56.69c-.4-1.06-1.07-2.39-1.78-3.21l1.78.65,1.78-.65c-.71.82-1.39,2.14-1.78,3.21Z"/></g></g><g><line class="cls-8" x1="167.24" y1="113.39" x2="167.24" y2="141.73"/><g><line class="cls-5" x1="167.24" y1="113.39" x2="167.24" y2="139.47"/><path d="m167.24,141.73c-.4-1.06-1.07-2.39-1.78-3.21l1.78.65,1.78-.65c-.71.82-1.39,2.14-1.78,3.21Z"/></g></g><g><polyline class="cls-5" points="110.55 70.87 167.24 70.87 167.24 82.78"/><path d="m167.24,85.04c-.4-1.06-1.07-2.39-1.78-3.21l1.78.65,1.78-.65c-.71.82-1.39,2.14-1.78,3.21Z"/></g><g><g><path class="cls-1" d="m122.6,70.87c0,1.56-1.28,2.83-2.83,2.83h-4.25c-1.56,0-2.83-1.28-2.83-2.83h0c0-1.56,1.28-2.83,2.83-2.83h4.25c1.56,0,2.83,1.28,2.83,2.83h0Z"/><path class="cls-3" d="m122.6,70.87c0,1.56-1.28,2.83-2.83,2.83h-4.25c-1.56,0-2.83-1.28-2.83-2.83h0c0-1.56,1.28-2.83,2.83-2.83h4.25c1.56,0,2.83,1.28,2.83,2.83h0Z"/></g><text class="cls-10" transform="translate(115.08 72.36)"><tspan x="0" y="0">No</tspan></text></g><g><polyline class="cls-5" points="195.59 99.21 280.63 99.21 280.63 111.12"/><path d="m280.63,113.39c-.4-1.06-1.07-2.39-1.78-3.21l1.78.65,1.78-.65c-.71.82-1.39,2.14-1.78,3.21Z"/></g><g><g><path class="cls-1" d="m207.64,99.21c0,1.56-1.28,2.83-2.83,2.83h-4.25c-1.56,0-2.83-1.28-2.83-2.83h0c0-1.56,1.28-2.83,2.83-2.83h4.25c1.56,0,2.83,1.28,2.83,2.83h0Z"/><path class="cls-3" d="m207.64,99.21c0,1.56-1.28,2.83-2.83,2.83h-4.25c-1.56,0-2.83-1.28-2.83-2.83h0c0-1.56,1.28-2.83,2.83-2.83h4.25c1.56,0,2.83,1.28,2.83,2.83h0Z"/></g><text class="cls-10" transform="translate(200.12 100.7)"><tspan x="0" y="0">No</tspan></text></g><g><polyline class="cls-5" points="195.59 155.91 223.94 155.91 223.94 238.68"/><path d="m223.94,240.94c-.4-1.06-1.07-2.39-1.78-3.21l1.78.65,1.78-.65c-.71.82-1.39,2.14-1.78,3.21Z"/></g><g><g><path class="cls-1" d="m207.64,155.91c0,1.56-1.28,2.83-2.83,2.83h-4.25c-1.56,0-2.83-1.28-2.83-2.83h0c0-1.56,1.28-2.83,2.83-2.83h4.25c1.56,0,2.83,1.28,2.83,2.83h0Z"/><path class="cls-3" d="m207.64,155.91c0,1.56-1.28,2.83-2.83,2.83h-4.25c-1.56,0-2.83-1.28-2.83-2.83h0c0-1.56,1.28-2.83,2.83-2.83h4.25c1.56,0,2.83,1.28,2.83,2.83h0Z"/></g><text class="cls-10" transform="translate(200.12 157.4)"><tspan x="0" y="0">No</tspan></text></g><g><polyline class="cls-5" points="308.98 127.56 337.32 127.56 337.32 238.68"/><path d="m337.32,240.95c-.4-1.06-1.07-2.39-1.78-3.21l1.78.65,1.78-.65c-.71.82-1.39,2.14-1.78,3.21Z"/></g><g><g><path class="cls-1" d="m321.02,127.56c0,1.56-1.28,2.83-2.83,2.83h-4.25c-1.56,0-2.83-1.28-2.83-2.83h0c0-1.56,1.28-2.83,2.83-2.83h4.25c1.56,0,2.83,1.28,2.83,2.83h0Z"/><path class="cls-3" d="m321.02,127.56c0,1.56-1.28,2.83-2.83,2.83h-4.25c-1.56,0-2.83-1.28-2.83-2.83h0c0-1.56,1.28-2.83,2.83-2.83h4.25c1.56,0,2.83,1.28,2.83,2.83h0Z"/></g><text class="cls-10" transform="translate(313.51 129.05)"><tspan x="0" y="0">No</tspan></text></g><g><polyline class="cls-5" points="365.67 255.12 422.36 255.12 422.36 295.37"/><path d="m422.36,297.64c-.4-1.06-1.07-2.39-1.78-3.21l1.78.65,1.78-.65c-.71.82-1.39,2.14-1.78,3.21Z"/></g><g><g><path class="cls-1" d="m377.72,255.12c0,1.56-1.28,2.83-2.83,2.83h-4.25c-1.56,0-2.83-1.28-2.83-2.83h0c0-1.56,1.28-2.83,2.83-2.83h4.25c1.56,0,2.83,1.28,2.83,2.83h0Z"/><path class="cls-3" d="m377.72,255.12c0,1.56-1.28,2.83-2.83,2.83h-4.25c-1.56,0-2.83-1.28-2.83-2.83h0c0-1.56,1.28-2.83,2.83-2.83h4.25c1.56,0,2.83,1.28,2.83,2.83h0Z"/></g><text class="cls-10" transform="translate(370.2 256.61)"><tspan x="0" y="0">No</tspan></text></g><g><polyline class="cls-5" points="450.71 311.81 507.4 311.81 507.4 337.89"/><path d="m507.4,340.16c-.4-1.06-1.07-2.39-1.78-3.21l1.78.65,1.78-.65c-.71.82-1.39,2.14-1.78,3.21Z"/></g><g><g><path class="cls-1" d="m462.76,311.81c0,1.56-1.28,2.83-2.83,2.83h-4.25c-1.56,0-2.83-1.28-2.83-2.83h0c0-1.56,1.28-2.83,2.83-2.83h4.25c1.56,0,2.83,1.28,2.83,2.83h0Z"/><path class="cls-3" d="m462.76,311.81c0,1.56-1.28,2.83-2.83,2.83h-4.25c-1.56,0-2.83-1.28-2.83-2.83h0c0-1.56,1.28-2.83,2.83-2.83h4.25c1.56,0,2.83,1.28,2.83,2.83h0Z"/></g><text class="cls-10" transform="translate(455.24 313.3)"><tspan x="0" y="0">No</tspan></text></g><g><g><path class="cls-1" d="m172.2,119.18c0,1.56-1.28,2.83-2.83,2.83h-4.25c-1.56,0-2.83-1.28-2.83-2.83s1.28-2.83,2.83-2.83h4.25c1.56,0,2.83,1.28,2.83,2.83Z"/><path class="cls-3" d="m172.2,119.18c0,1.56-1.28,2.83-2.83,2.83h-4.25c-1.56,0-2.83-1.28-2.83-2.83s1.28-2.83,2.83-2.83h4.25c1.56,0,2.83,1.28,2.83,2.83Z"/></g><text class="cls-10" transform="translate(163.98 120.67)"><tspan class="cls-9" x="0" y="0">Y</tspan><tspan x="2.3" y="0">es</tspan></text></g><g><line class="cls-8" x1="280.63" y1="141.73" x2="280.63" y2="184.25"/><g><line class="cls-5" x1="280.63" y1="141.73" x2="280.63" y2="181.99"/><path d="m280.63,184.25c-.4-1.06-1.07-2.39-1.78-3.21l1.78.65,1.78-.65c-.71.82-1.39,2.14-1.78,3.21Z"/></g></g><g><g><path class="cls-1" d="m285.59,147.53c0,1.56-1.28,2.83-2.83,2.83h-4.25c-1.56,0-2.83-1.28-2.83-2.83s1.28-2.83,2.83-2.83h4.25c1.56,0,2.83,1.28,2.83,2.83Z"/><path class="cls-3" d="m285.59,147.53c0,1.56-1.28,2.83-2.83,2.83h-4.25c-1.56,0-2.83-1.28-2.83-2.83s1.28-2.83,2.83-2.83h4.25c1.56,0,2.83,1.28,2.83,2.83Z"/></g><text class="cls-10" transform="translate(277.37 149.02)"><tspan class="cls-9" x="0" y="0">Y</tspan><tspan x="2.3" y="0">es</tspan></text></g><g><line class="cls-8" x1="82.2" y1="85.04" x2="82.2" y2="113.39"/><g><line class="cls-5" x1="82.2" y1="85.04" x2="82.2" y2="111.12"/><path d="m82.2,113.39c-.4-1.06-1.07-2.39-1.78-3.21l1.78.65,1.78-.65c-.71.82-1.39,2.14-1.78,3.21Z"/></g></g><g><g><path class="cls-1" d="m87.17,90.83c0,1.56-1.28,2.83-2.83,2.83h-4.25c-1.56,0-2.83-1.28-2.83-2.83s1.28-2.83,2.83-2.83h4.25c1.56,0,2.83,1.28,2.83,2.83Z"/><path class="cls-3" d="m87.17,90.83c0,1.56-1.28,2.83-2.83,2.83h-4.25c-1.56,0-2.83-1.28-2.83-2.83s1.28-2.83,2.83-2.83h4.25c1.56,0,2.83,1.28,2.83,2.83Z"/></g><text class="cls-10" transform="translate(78.94 92.33)"><tspan class="cls-9" x="0" y="0">Y</tspan><tspan x="2.3" y="0">es</tspan></text></g><g><line class="cls-8" x1="167.24" y1="170.08" x2="167.24" y2="184.25"/><g><line class="cls-5" x1="167.24" y1="170.08" x2="167.24" y2="181.99"/><path d="m167.24,184.25c-.4-1.06-1.07-2.39-1.78-3.21l1.78.65,1.78-.65c-.71.82-1.39,2.14-1.78,3.21Z"/></g></g><g><g><path class="cls-1" d="m172.2,175.87c0,1.56-1.28,2.83-2.83,2.83h-4.25c-1.56,0-2.83-1.28-2.83-2.83s1.28-2.83,2.83-2.83h4.25c1.56,0,2.83,1.28,2.83,2.83Z"/><path class="cls-3" d="m172.2,175.87c0,1.56-1.28,2.83-2.83,2.83h-4.25c-1.56,0-2.83-1.28-2.83-2.83s1.28-2.83,2.83-2.83h4.25c1.56,0,2.83,1.28,2.83,2.83Z"/></g><text class="cls-10" transform="translate(163.98 177.37)"><tspan class="cls-9" x="0" y="0">Y</tspan><tspan x="2.3" y="0">es</tspan></text></g><g><line class="cls-8" x1="422.36" y1="325.98" x2="422.36" y2="340.16"/><g><line class="cls-5" x1="422.36" y1="325.98" x2="422.36" y2="337.89"/><path d="m422.36,340.16c-.4-1.06-1.07-2.39-1.78-3.21l1.78.65,1.78-.65c-.71.82-1.39,2.14-1.78,3.21Z"/></g></g><g><g><path class="cls-1" d="m427.32,331.78c0,1.56-1.28,2.83-2.83,2.83h-4.25c-1.56,0-2.83-1.28-2.83-2.83s1.28-2.83,2.83-2.83h4.25c1.56,0,2.83,1.28,2.83,2.83Z"/><path class="cls-3" d="m427.32,331.78c0,1.56-1.28,2.83-2.83,2.83h-4.25c-1.56,0-2.83-1.28-2.83-2.83s1.28-2.83,2.83-2.83h4.25c1.56,0,2.83,1.28,2.83,2.83Z"/></g><text class="cls-10" transform="translate(419.1 333.27)"><tspan class="cls-9" x="0" y="0">Y</tspan><tspan x="2.3" y="0">es</tspan></text></g><g><line class="cls-8" x1="337.32" y1="269.29" x2="337.32" y2="297.64"/><g><line class="cls-5" x1="337.32" y1="269.29" x2="337.32" y2="295.37"/><path d="m337.32,297.64c-.4-1.06-1.07-2.39-1.78-3.21l1.78.65,1.78-.65c-.71.82-1.39,2.14-1.78,3.21Z"/></g></g><g><g><path class="cls-1" d="m342.28,275.09c0,1.56-1.28,2.83-2.83,2.83h-4.25c-1.56,0-2.83-1.28-2.83-2.83s1.28-2.83,2.83-2.83h4.25c1.56,0,2.83,1.28,2.83,2.83Z"/><path class="cls-3" d="m342.28,275.09c0,1.56-1.28,2.83-2.83,2.83h-4.25c-1.56,0-2.83-1.28-2.83-2.83s1.28-2.83,2.83-2.83h4.25c1.56,0,2.83,1.28,2.83,2.83Z"/></g><text class="cls-10" transform="translate(334.06 276.58)"><tspan class="cls-9" x="0" y="0">Y</tspan><tspan x="2.3" y="0">es</tspan></text></g></g><g id="Numbers"><g><circle class="cls-2" cx="48.19" cy="70.87" r="5.67"/><text class="cls-12" transform="translate(46.52 72.88)"><tspan x="0" y="0">1</tspan></text></g><g><circle class="cls-2" cx="246.61" cy="198.43" r="5.67"/><text class="cls-12" transform="translate(244.95 200.44)"><tspan x="0" y="0">7</tspan></text></g><g><circle class="cls-2" cx="388.35" cy="354.33" r="5.67"/><text class="cls-12" transform="translate(385.01 356.34)"><tspan x="0" y="0">12</tspan></text></g><g><circle class="cls-2" cx="473.39" cy="354.33" r="5.67"/><text class="cls-12" transform="translate(470.05 356.34)"><tspan x="0" y="0">13</tspan></text></g><g><circle class="cls-2" cx="133.23" cy="99.21" r="5.67"/><text class="cls-12" transform="translate(131.56 101.22)"><tspan x="0" y="0">3</tspan></text></g><g><circle class="cls-2" cx="48.19" cy="127.56" r="5.67"/><text class="cls-12" transform="translate(46.52 129.57)"><tspan x="0" y="0">2</tspan></text></g><g><circle class="cls-2" cx="133.23" cy="155.91" r="5.67"/><text class="cls-12" transform="translate(131.56 157.92)"><tspan x="0" y="0">4</tspan></text></g><g><circle class="cls-2" cx="133.23" cy="198.43" r="5.67"/><text class="cls-12" transform="translate(131.56 200.44)"><tspan x="0" y="0">5</tspan></text></g><g><circle class="cls-2" cx="303.31" cy="255.12" r="5.67"/><text class="cls-12" transform="translate(301.64 257.13)"><tspan x="0" y="0">9</tspan></text></g><g><circle class="cls-2" cx="388.35" cy="311.81" r="5.67"/><text class="cls-12" transform="translate(385.18 313.82)"><tspan class="cls-11" x="0" y="0">1</tspan><tspan x="3.01" y="0">1</tspan></text></g><g><circle class="cls-2" cx="246.61" cy="127.56" r="5.67"/><text class="cls-12" transform="translate(244.95 129.57)"><tspan x="0" y="0">6</tspan></text></g><g><circle class="cls-2" cx="303.31" cy="311.81" r="5.67"/><text class="cls-12" transform="translate(299.97 313.82)"><tspan x="0" y="0">10</tspan></text></g><g><circle class="cls-2" cx="189.92" cy="255.12" r="5.67"/><text class="cls-12" transform="translate(188.25 257.13)"><tspan x="0" y="0">8</tspan></text></g></g></svg>