<?xml version="1.0" encoding="UTF-8"?><svg xmlns="http://www.w3.org/2000/svg" viewBox="0 0 425.2 141.73"><defs><style>.cls-1{letter-spacing:.01em;}.cls-2{letter-spacing:0em;}.cls-3{letter-spacing:.08em;}.cls-4{letter-spacing:.01em;}.cls-5{letter-spacing:-.03em;}.cls-6{letter-spacing:.02em;}.cls-7{letter-spacing:.01em;}.cls-8{letter-spacing:.02em;}.cls-9{stroke-dasharray:0 0 1.01 1.01;}.cls-9,.cls-10,.cls-11,.cls-12,.cls-13,.cls-14,.cls-15,.cls-16,.cls-17,.cls-18,.cls-19,.cls-20{stroke:blue;}.cls-9,.cls-10,.cls-12,.cls-13,.cls-21,.cls-14,.cls-22,.cls-23,.cls-24,.cls-25,.cls-15,.cls-16,.cls-18,.cls-19,.cls-20{fill:none;}.cls-9,.cls-10,.cls-12,.cls-13,.cls-21,.cls-14,.cls-24,.cls-16,.cls-17,.cls-18,.cls-19,.cls-20{stroke-miterlimit:10;}.cls-9,.cls-10,.cls-12,.cls-21,.cls-14,.cls-24,.cls-16,.cls-18,.cls-19,.cls-20{stroke-width:.25px;}.cls-26{letter-spacing:.03em;}.cls-27{fill:lime;}.cls-27,.cls-11,.cls-13,.cls-21,.cls-28{fill-rule:evenodd;}.cls-29{letter-spacing:.02em;}.cls-30{letter-spacing:.08em;}.cls-31{letter-spacing:.03em;}.cls-32{fill:#fff;}.cls-33,.cls-11,.cls-34,.cls-17{fill:blue;}.cls-33,.cls-34,.cls-35,.cls-36{font-family:ArialMT, Arial;}.cls-10{stroke-dasharray:0 0 .93 .93;}.cls-37{letter-spacing:-.03em;}.cls-38{letter-spacing:-.01em;}.cls-39{letter-spacing:.05em;}.cls-40{letter-spacing:0em;}.cls-41{letter-spacing:.03em;}.cls-42{letter-spacing:.02em;}.cls-43{letter-spacing:.03em;}.cls-44{letter-spacing:.02em;}.cls-45{letter-spacing:.06em;}.cls-46{letter-spacing:.04em;}.cls-47{letter-spacing:.04em;}.cls-48{letter-spacing:.03em;}.cls-49{letter-spacing:.03em;}.cls-50{letter-spacing:0em;}.cls-51{letter-spacing:.02em;}.cls-52{letter-spacing:.06em;}.cls-53{letter-spacing:.02em;}.cls-54{letter-spacing:.01em;}.cls-55{letter-spacing:.03em;}.cls-11{stroke-width:.75px;}.cls-11,.cls-22,.cls-23,.cls-25,.cls-15{stroke-linejoin:round;}.cls-56{letter-spacing:.02em;}.cls-57{letter-spacing:.02em;}.cls-58{letter-spacing:.04em;}.cls-59{letter-spacing:.05em;}.cls-60{letter-spacing:.03em;}.cls-61{letter-spacing:.06em;}.cls-62{letter-spacing:.02em;}.cls-63{letter-spacing:.03em;}.cls-64{letter-spacing:0em;}.cls-65{font-size:10px;}.cls-66{letter-spacing:.02em;}.cls-12{stroke-dasharray:0 0 .99 .99;}.cls-67{letter-spacing:.02em;}.cls-68{letter-spacing:.03em;}.cls-69{letter-spacing:.01em;}.cls-70{letter-spacing:.03em;}.cls-71{letter-spacing:.03em;}.cls-72{letter-spacing:.02em;}.cls-73{letter-spacing:.02em;}.cls-74{letter-spacing:-.02em;}.cls-75{letter-spacing:.03em;}.cls-13,.cls-22,.cls-17{stroke-width:.25px;}.cls-76{letter-spacing:.03em;}.cls-21,.cls-24{stroke:#800040;}.cls-77{letter-spacing:.03em;}.cls-14{stroke-dasharray:0 0 .87 .87;}.cls-78{letter-spacing:.01em;}.cls-79,.cls-80,.cls-81,.cls-82,.cls-34,.cls-36{font-size:3px;}.cls-79,.cls-82,.cls-83,.cls-84{font-family:Arial-BoldMT, Arial;font-weight:700;}.cls-79,.cls-28,.cls-83,.cls-35,.cls-84,.cls-85{fill:red;}.cls-86{letter-spacing:.02em;}.cls-87{letter-spacing:.04em;}.cls-88{letter-spacing:.02em;}.cls-89{letter-spacing:0em;}.cls-90{letter-spacing:.03em;}.cls-91{letter-spacing:.04em;}.cls-92{letter-spacing:.03em;}.cls-93{letter-spacing:-.02em;}.cls-94{letter-spacing:.07em;}.cls-81{font-family:Arial-ItalicMT, Arial;font-style:italic;}.cls-95{letter-spacing:.03em;}.cls-96{letter-spacing:.03em;}.cls-97{letter-spacing:0em;}.cls-98{letter-spacing:.02em;}.cls-99{letter-spacing:.02em;}.cls-100{letter-spacing:.04em;}.cls-101{letter-spacing:.05em;}.cls-102{letter-spacing:.02em;}.cls-103,.cls-84{font-size:4px;}.cls-104{letter-spacing:.05em;}.cls-105{letter-spacing:0em;}.cls-106{letter-spacing:.03em;}.cls-107{letter-spacing:.07em;}.cls-108{letter-spacing:0em;}.cls-109{letter-spacing:.02em;}.cls-22,.cls-25{stroke:#000;}.cls-22,.cls-15{stroke-linecap:round;}.cls-110{letter-spacing:0em;}.cls-111{letter-spacing:.02em;}.cls-23{stroke:green;}.cls-23,.cls-25{stroke-width:1.5px;}.cls-112{letter-spacing:.02em;}.cls-113{letter-spacing:.03em;}.cls-114{letter-spacing:.02em;}.cls-115{letter-spacing:.03em;}.cls-116{letter-spacing:.03em;}.cls-117{letter-spacing:.03em;}.cls-118{letter-spacing:0em;}.cls-119{letter-spacing:.05em;}.cls-120{letter-spacing:.01em;}.cls-121{letter-spacing:.02em;}.cls-122{letter-spacing:.01em;}.cls-123{letter-spacing:.03em;}.cls-124{letter-spacing:.03em;}.cls-125{letter-spacing:.03em;}.cls-126{letter-spacing:.01em;}.cls-127{letter-spacing:-.04em;}.cls-128{letter-spacing:.02em;}.cls-129{letter-spacing:0em;}.cls-130{letter-spacing:.02em;}.cls-131{letter-spacing:.04em;}.cls-132{letter-spacing:.03em;}.cls-133{letter-spacing:.02em;}.cls-134{letter-spacing:.02em;}.cls-135{letter-spacing:.03em;}.cls-136{letter-spacing:.02em;}.cls-137{letter-spacing:.02em;}.cls-138{letter-spacing:0em;}.cls-139{letter-spacing:0em;}.cls-16{stroke-dasharray:0 0 .99 .99;}.cls-140{letter-spacing:.06em;}.cls-141{letter-spacing:.01em;}.cls-142{letter-spacing:.02em;}.cls-143{letter-spacing:.04em;}.cls-144{letter-spacing:0em;}.cls-145{letter-spacing:0em;}.cls-146{letter-spacing:.03em;}.cls-147{letter-spacing:.03em;}.cls-148{letter-spacing:.03em;}.cls-149{letter-spacing:.03em;}.cls-150{letter-spacing:.05em;}.cls-151{letter-spacing:.01em;}.cls-152{letter-spacing:.02em;}.cls-153{letter-spacing:.07em;}.cls-154{letter-spacing:.03em;}.cls-155{letter-spacing:.03em;}.cls-156{letter-spacing:.02em;}.cls-157{letter-spacing:.03em;}.cls-158{letter-spacing:.02em;}.cls-159{letter-spacing:.03em;}.cls-160{letter-spacing:-.07em;}.cls-161{letter-spacing:.02em;}.cls-162{letter-spacing:.01em;}.cls-163{letter-spacing:.01em;}.cls-19{stroke-dasharray:0 0 1.01 1.01;}.cls-164{letter-spacing:.01em;}.cls-20{stroke-dasharray:0 0 .96 .96;}.cls-165{letter-spacing:.03em;}.cls-166{letter-spacing:.02em;}.cls-167{letter-spacing:.03em;}.cls-168{letter-spacing:0em;}.cls-169{letter-spacing:.01em;}.cls-170{letter-spacing:.02em;}.cls-171{letter-spacing:.05em;}.cls-172{letter-spacing:.02em;}.cls-173{letter-spacing:.03em;}.cls-174{letter-spacing:.03em;}.cls-175{letter-spacing:.03em;}.cls-176{letter-spacing:.02em;}.cls-177{letter-spacing:.01em;}.cls-178{letter-spacing:0em;}.cls-179{letter-spacing:.07em;}.cls-180{letter-spacing:.02em;}.cls-181{letter-spacing:.04em;}.cls-182{letter-spacing:.02em;}.cls-183{letter-spacing:.01em;}.cls-184{letter-spacing:.05em;}</style></defs><g id="Background"><rect class="cls-32" x=".25" y=".25" width="424.7" height="141.23"/><path d="m424.7.5v140.73H.5V.5h424.2m.5-.5H0v141.73h425.2V0h0Z"/><text class="cls-81" transform="translate(183.06 4.98)"><tspan class="cls-133" x="0" y="0">El</tspan><tspan class="cls-137" x="2.79" y="0">e</tspan><tspan class="cls-75" x="4.51" y="0">c</tspan><tspan class="cls-128" x="6.1" y="0">t</tspan><tspan class="cls-146" x="6.98" y="0">r</tspan><tspan class="cls-56" x="8.08" y="0">i</tspan><tspan class="cls-172" x="8.8" y="0">c</tspan><tspan class="cls-73" x="10.37" y="0">a</tspan><tspan x="12.1" y="0">l </tspan><tspan class="cls-70" x="13.6" y="0">D</tspan><tspan class="cls-66" x="15.86" y="0">ia</tspan><tspan class="cls-62" x="18.31" y="0">g</tspan><tspan class="cls-147" x="20.05" y="0">r</tspan><tspan class="cls-56" x="21.12" y="0">a</tspan><tspan class="cls-108" x="22.85" y="0">m</tspan><tspan x="25.33" y="0">: </tspan><tspan class="cls-156" x="27" y="0">2</tspan><tspan class="cls-119" x="28.72" y="0">2</tspan><tspan class="cls-121" x="30.53" y="0">_</tspan><tspan class="cls-68" x="32.27" y="0">WI</tspan><tspan class="cls-47" x="36.13" y="0">N</tspan><tspan class="cls-55" x="38.42" y="0">D</tspan><tspan class="cls-114" x="40.67" y="0">E</tspan><tspan class="cls-153" x="42.74" y="0">R</tspan><tspan class="cls-150" x="45.1" y="0">_</tspan><tspan class="cls-63" x="46.91" y="0">SA</tspan><tspan class="cls-98" x="51.08" y="0">F</tspan><tspan class="cls-92" x="52.96" y="0">E</tspan><tspan class="cls-52" x="55.05" y="0">T</tspan><tspan x="57.07" y="0">Y</tspan></text><path d="m424.7.5v6.09H.5V.5h424.2M425.2,0H0v7.09h425.2V0h0Z"/></g><g id="Wiring"><text class="cls-36" transform="translate(90.71 61.39)"><tspan class="cls-1" x="0" y="0">F</tspan><tspan class="cls-107" x="1.87" y="0">R</tspan><tspan class="cls-178" x="4.24" y="0">A</tspan><tspan class="cls-106" x="6.22" y="0">WN</tspan><tspan class="cls-76" x="11.4" y="0">D</tspan><tspan class="cls-71" x="13.65" y="0">O</tspan><tspan class="cls-69" x="16.08" y="0">PE</tspan><tspan x="20.17" y="0">N</tspan></text><polyline class="cls-21" points="90.71 62.36 127.56 62.36 127.56 96.38 90.71 96.38"/><polyline class="cls-21" points="90.71 66.61 123.31 66.61 123.31 92.13 90.71 92.13"/><text class="cls-36" transform="translate(90.71 65.64)"><tspan class="cls-122" x="0" y="0">F</tspan><tspan class="cls-94" x="1.87" y="0">R</tspan><tspan class="cls-3" x="4.24" y="0">A</tspan><tspan class="cls-126" x="6.48" y="0">_</tspan><tspan class="cls-157" x="8.18" y="0">WN</tspan><tspan class="cls-167" x="13.36" y="0">D</tspan><tspan class="cls-171" x="15.61" y="0">_</tspan><tspan class="cls-173" x="17.44" y="0">R</tspan><tspan class="cls-184" x="19.7" y="0">L</tspan><tspan class="cls-61" x="21.52" y="0">_</tspan><tspan class="cls-105" x="23.35" y="0">N</tspan></text><line class="cls-24" x1="90.71" y1="28.35" x2="205.51" y2="28.35"/><text class="cls-36" transform="translate(90.71 35.88)"><tspan class="cls-125" x="0" y="0">S</tspan><tspan class="cls-134" x="2.08" y="0">E</tspan><tspan class="cls-116" x="4.13" y="0">N</tspan><tspan class="cls-130" x="6.38" y="0">S</tspan><tspan class="cls-155" x="8.44" y="0">O</tspan><tspan class="cls-179" x="10.86" y="0">R</tspan><tspan class="cls-161" x="13.23" y="0">_C</tspan><tspan class="cls-95" x="17.21" y="0">O</tspan><tspan class="cls-176" x="19.64" y="0">N</tspan><tspan class="cls-139" x="21.88" y="0">2</tspan><tspan x="23.57" y="0">4</tspan></text><text class="cls-36" transform="translate(90.71 27.37)"><tspan class="cls-60" x="0" y="0">G</tspan><tspan class="cls-71" x="2.44" y="0">N</tspan><tspan x="4.7" y="0">D</tspan></text><line class="cls-24" x1="90.71" y1="36.85" x2="205.51" y2="36.85"/><line class="cls-24" x1="216.85" y1="28.35" x2="274.96" y2="28.35"/><line class="cls-24" x1="216.85" y1="36.85" x2="274.96" y2="36.85"/><line class="cls-24" x1="216.85" y1="45.35" x2="274.96" y2="45.35"/><polyline class="cls-21" points="274.96 53.86 233.86 53.86 233.86 83.62 259.37 83.62"/><polyline class="cls-21" points="259.36 92.13 233.86 92.13 233.86 121.89 259.36 121.89"/><line class="cls-24" x1="216.85" y1="130.39" x2="259.37" y2="130.39"/><line class="cls-24" x1="274.97" y1="121.89" x2="270.72" y2="121.89"/><line class="cls-24" x1="274.97" y1="130.39" x2="270.72" y2="130.39"/><line class="cls-24" x1="274.97" y1="83.62" x2="270.72" y2="83.62"/><line class="cls-24" x1="274.97" y1="92.13" x2="270.72" y2="92.13"/><text class="cls-36" transform="translate(90.71 129.41)"><tspan class="cls-1" x="0" y="0">F</tspan><tspan class="cls-107" x="1.87" y="0">R</tspan><tspan class="cls-178" x="4.24" y="0">A</tspan><tspan class="cls-106" x="6.22" y="0">WN</tspan><tspan class="cls-152" x="11.4" y="0">D</tspan><tspan class="cls-120" x="13.63" y="0">S</tspan><tspan x="15.67" y="0">W</tspan></text><line class="cls-24" x1="90.71" y1="130.38" x2="205.51" y2="130.38"/><text class="cls-36" transform="translate(90.71 125.15)"><tspan class="cls-38" x="0" y="0">+</tspan><tspan class="cls-139" x="1.72" y="0">2</tspan><tspan class="cls-97" x="3.41" y="0">4</tspan><tspan class="cls-99" x="5.09" y="0">V</tspan><tspan class="cls-48" x="7.16" y="0">I</tspan><tspan class="cls-158" x="8.08" y="0">N</tspan><tspan class="cls-132" x="10.32" y="0">T</tspan><tspan x="12.23" y="0">P</tspan></text><polyline class="cls-21" points="205.51 45.35 191.34 45.35 191.34 126.13 90.71 126.13"/></g><g id="Components"><line class="cls-22" x1="303.31" y1="128.89" x2="308.09" y2="126.77"/><path class="cls-22" d="m308.07,128.36c-.29,0-.53.24-.53.53s.24.53.53.53.53-.24.53-.53-.24-.53-.53-.53Z"/><line class="cls-22" x1="308.98" y1="128.89" x2="308.62" y2="128.89"/><line class="cls-22" x1="301.89" y1="128.89" x2="303.31" y2="128.89"/><line class="cls-22" x1="305.38" y1="127.47" x2="305.38" y2="126.94"/><line class="cls-22" x1="305.38" y1="126.41" x2="305.38" y2="125.88"/><line class="cls-22" x1="305.38" y1="125.34" x2="305.38" y2="124.81"/><line class="cls-22" x1="305.38" y1="124.28" x2="305.38" y2="123.75"/><line class="cls-22" x1="305.38" y1="123.22" x2="305.38" y2="122.69"/><line class="cls-22" x1="305.38" y1="123.22" x2="305.38" y2="122.6"/><polygon class="cls-22" points="304.49 125.7 305.38 123.93 306.26 125.7 304.49 125.7"/><text class="cls-80" transform="translate(280.63 104.75)"><tspan class="cls-83"><tspan class="cls-89" x="0" y="0">1</tspan><tspan class="cls-86" x="1.65" y="0">9S</tspan><tspan x="5.47" y="0">3</tspan></tspan><tspan class="cls-35"><tspan class="cls-143" x="0" y="3.5">E</tspan><tspan class="cls-144" x="2.13" y="3.5">X</tspan><tspan class="cls-174" x="4.12" y="3.5">O</tspan><tspan class="cls-163" x="6.53" y="3.5">_</tspan><tspan class="cls-106" x="8.24" y="3.5">WN</tspan><tspan class="cls-96" x="13.42" y="3.5">D</tspan><tspan class="cls-67" x="15.66" y="3.5">_C</tspan><tspan class="cls-49" x="19.64" y="3.5">O</tspan><tspan class="cls-149" x="22.07" y="3.5">R</tspan><tspan class="cls-58" x="24.32" y="3.5">E</tspan><tspan class="cls-45" x="26.45" y="3.5">_</tspan><tspan class="cls-166" x="28.29" y="3.5">L</tspan><tspan class="cls-4" x="30.01" y="3.5">E</tspan><tspan class="cls-100" x="32.05" y="3.5">F</tspan><tspan class="cls-5" x="34" y="3.5">T</tspan><tspan class="cls-181" x="35.74" y="3.5">_</tspan><tspan class="cls-120" x="37.54" y="3.5">S</tspan><tspan x="39.58" y="3.5">W</tspan></tspan><tspan class="cls-33"><tspan class="cls-46" x="0" y="7">E</tspan><tspan class="cls-131" x="2.11" y="7">x</tspan><tspan class="cls-4" x="3.73" y="7">t</tspan><tspan class="cls-152" x="4.6" y="7">e</tspan><tspan class="cls-117" x="6.34" y="7">r</tspan><tspan class="cls-56" x="7.44" y="7">na</tspan><tspan x="10.88" y="7">l </tspan><tspan class="cls-92" x="12.38" y="7">O</tspan><tspan class="cls-128" x="14.81" y="7">u</tspan><tspan class="cls-62" x="16.53" y="7">t</tspan><tspan class="cls-142" x="17.44" y="7">p</tspan><tspan class="cls-102" x="19.16" y="7">u</tspan><tspan x="20.88" y="7">t </tspan><tspan class="cls-115" x="22.55" y="7">W</tspan><tspan class="cls-44" x="25.47" y="7">i</tspan><tspan class="cls-53" x="26.19" y="7">nde</tspan><tspan x="31.38" y="7">r</tspan></tspan><tspan class="cls-33"><tspan class="cls-41" x="0" y="10.5">C</tspan><tspan class="cls-42" x="2.26" y="10.5">o</tspan><tspan class="cls-29" x="4" y="10.5">r</tspan><tspan x="5.06" y="10.5">e </tspan><tspan class="cls-51" x="7.56" y="10.5">L</tspan><tspan class="cls-120" x="9.27" y="10.5">e</tspan><tspan class="cls-104" x="10.98" y="10.5">f</tspan><tspan x="11.96" y="10.5">t </tspan><tspan class="cls-43" x="13.62" y="10.5">S</tspan><tspan class="cls-112" x="15.71" y="10.5">w</tspan><tspan class="cls-170" x="17.95" y="10.5">i</tspan><tspan class="cls-162" x="18.67" y="10.5">t</tspan><tspan class="cls-31" x="19.54" y="10.5">c</tspan><tspan x="21.13" y="10.5">h</tspan></tspan></text><path class="cls-13" d="m277.8,120.47c-.78,0-1.42.63-1.42,1.42s.63,1.42,1.42,1.42"/><polyline class="cls-11" points="280.63 121.89 279.21 121.89 277.8 121.89"/><line class="cls-17" x1="274.96" y1="121.89" x2="276.38" y2="121.89"/><path class="cls-13" d="m277.8,128.98c-.78,0-1.42.63-1.42,1.42,0,.78.63,1.42,1.42,1.42"/><polyline class="cls-11" points="280.63 130.39 279.21 130.39 277.8 130.39"/><line class="cls-17" x1="274.96" y1="130.39" x2="276.38" y2="130.39"/><polyline class="cls-18" points="280.63 119.56 280.63 119.06 281.13 119.06"/><line class="cls-12" x1="282.12" y1="119.06" x2="289.56" y2="119.06"/><polyline class="cls-18" points="290.05 119.06 290.55 119.06 290.55 119.56"/><line class="cls-10" x1="290.55" y1="120.49" x2="290.55" y2="123.76"/><polyline class="cls-18" points="290.55 124.22 290.55 124.72 290.05 124.72"/><line class="cls-12" x1="289.06" y1="124.72" x2="281.63" y2="124.72"/><polyline class="cls-18" points="281.13 124.72 280.63 124.72 280.63 124.22"/><line class="cls-10" x1="280.63" y1="123.29" x2="280.63" y2="120.02"/><polyline class="cls-18" points="280.63 128.06 280.63 127.56 281.13 127.56"/><line class="cls-12" x1="282.12" y1="127.56" x2="289.56" y2="127.56"/><polyline class="cls-18" points="290.05 127.56 290.55 127.56 290.55 128.06"/><line class="cls-10" x1="290.55" y1="128.99" x2="290.55" y2="132.26"/><polyline class="cls-18" points="290.55 132.73 290.55 133.23 290.05 133.23"/><line class="cls-12" x1="289.06" y1="133.23" x2="281.63" y2="133.23"/><polyline class="cls-18" points="281.13 133.23 280.63 133.23 280.63 132.73"/><line class="cls-10" x1="280.63" y1="131.79" x2="280.63" y2="128.53"/><rect class="cls-15" x="280.63" y="117.64" width="42.52" height="17.01"/><text class="cls-82" transform="translate(282.02 123.05)"><tspan class="cls-169" x="0" y="0">C</tspan><tspan class="cls-154" x="2.21" y="0">O</tspan><tspan x="4.64" y="0">M</tspan><tspan class="cls-88" x="1.28" y="8.5">N</tspan><tspan x="3.52" y="8.5">O</tspan></text><line class="cls-22" x1="303.31" y1="90.62" x2="308.09" y2="88.5"/><path class="cls-22" d="m308.07,90.09c-.29,0-.53.24-.53.53s.24.53.53.53.53-.24.53-.53-.24-.53-.53-.53Z"/><line class="cls-22" x1="308.98" y1="90.62" x2="308.62" y2="90.62"/><line class="cls-22" x1="301.89" y1="90.62" x2="303.31" y2="90.62"/><line class="cls-22" x1="305.38" y1="89.2" x2="305.38" y2="88.67"/><line class="cls-22" x1="305.38" y1="88.14" x2="305.38" y2="87.61"/><line class="cls-22" x1="305.38" y1="87.08" x2="305.38" y2="86.55"/><line class="cls-22" x1="305.38" y1="86.01" x2="305.38" y2="85.48"/><line class="cls-22" x1="305.38" y1="84.95" x2="305.38" y2="84.42"/><line class="cls-22" x1="305.38" y1="84.95" x2="305.38" y2="84.33"/><polygon class="cls-22" points="304.49 87.43 305.38 85.66 306.26 87.43 304.49 87.43"/><text class="cls-80" transform="translate(280.63 66.48)"><tspan class="cls-83"><tspan class="cls-89" x="0" y="0">1</tspan><tspan class="cls-86" x="1.65" y="0">9</tspan><tspan class="cls-183" x="3.4" y="0">S</tspan><tspan x="5.44" y="0">2</tspan></tspan><tspan class="cls-35"><tspan class="cls-143" x="0" y="3.5">E</tspan><tspan class="cls-144" x="2.13" y="3.5">X</tspan><tspan class="cls-174" x="4.12" y="3.5">O</tspan><tspan class="cls-163" x="6.53" y="3.5">_</tspan><tspan class="cls-106" x="8.24" y="3.5">WN</tspan><tspan class="cls-96" x="13.42" y="3.5">D</tspan><tspan class="cls-67" x="15.66" y="3.5">_C</tspan><tspan class="cls-49" x="19.64" y="3.5">O</tspan><tspan class="cls-149" x="22.07" y="3.5">R</tspan><tspan class="cls-58" x="24.32" y="3.5">E</tspan><tspan class="cls-59" x="26.45" y="3.5">_</tspan><tspan class="cls-6" x="28.28" y="3.5">RI</tspan><tspan class="cls-175" x="31.41" y="3.5">G</tspan><tspan class="cls-42" x="33.84" y="3.5">H</tspan><tspan class="cls-5" x="36.08" y="3.5">T</tspan><tspan class="cls-181" x="37.82" y="3.5">_</tspan><tspan class="cls-120" x="39.62" y="3.5">S</tspan><tspan x="41.66" y="3.5">W</tspan></tspan><tspan class="cls-33"><tspan class="cls-46" x="0" y="7">E</tspan><tspan class="cls-131" x="2.11" y="7">x</tspan><tspan class="cls-4" x="3.73" y="7">t</tspan><tspan class="cls-152" x="4.6" y="7">e</tspan><tspan class="cls-117" x="6.34" y="7">r</tspan><tspan class="cls-56" x="7.44" y="7">na</tspan><tspan x="10.88" y="7">l </tspan><tspan class="cls-92" x="12.38" y="7">O</tspan><tspan class="cls-128" x="14.81" y="7">u</tspan><tspan class="cls-62" x="16.53" y="7">t</tspan><tspan class="cls-142" x="17.44" y="7">p</tspan><tspan class="cls-102" x="19.16" y="7">u</tspan><tspan x="20.88" y="7">t </tspan><tspan class="cls-115" x="22.55" y="7">W</tspan><tspan class="cls-44" x="25.47" y="7">i</tspan><tspan class="cls-53" x="26.19" y="7">nde</tspan><tspan x="31.38" y="7">r</tspan></tspan><tspan class="cls-33"><tspan class="cls-41" x="0" y="10.5">C</tspan><tspan class="cls-42" x="2.26" y="10.5">o</tspan><tspan class="cls-29" x="4" y="10.5">r</tspan><tspan x="5.06" y="10.5">e </tspan><tspan class="cls-124" x="7.56" y="10.5">R</tspan><tspan class="cls-182" x="9.81" y="10.5">i</tspan><tspan class="cls-142" x="10.54" y="10.5">g</tspan><tspan class="cls-120" x="12.27" y="10.5">h</tspan><tspan x="13.98" y="10.5">t </tspan><tspan class="cls-43" x="15.64" y="10.5">S</tspan><tspan class="cls-67" x="17.73" y="10.5">w</tspan><tspan class="cls-170" x="19.97" y="10.5">i</tspan><tspan class="cls-162" x="20.69" y="10.5">t</tspan><tspan class="cls-31" x="21.57" y="10.5">c</tspan><tspan x="23.15" y="10.5">h</tspan></tspan></text><path class="cls-13" d="m277.8,82.21c-.78,0-1.42.63-1.42,1.42,0,.78.63,1.42,1.42,1.42"/><polyline class="cls-11" points="280.63 83.62 279.21 83.62 277.8 83.62"/><line class="cls-17" x1="274.96" y1="83.62" x2="276.38" y2="83.62"/><path class="cls-13" d="m277.8,90.71c-.78,0-1.42.63-1.42,1.42,0,.78.63,1.42,1.42,1.42"/><polyline class="cls-11" points="280.63 92.13 279.21 92.13 277.8 92.13"/><line class="cls-17" x1="274.96" y1="92.13" x2="276.38" y2="92.13"/><polyline class="cls-18" points="280.63 81.29 280.63 80.79 281.13 80.79"/><line class="cls-12" x1="282.12" y1="80.79" x2="289.56" y2="80.79"/><polyline class="cls-18" points="290.05 80.79 290.55 80.79 290.55 81.29"/><line class="cls-10" x1="290.55" y1="82.22" x2="290.55" y2="85.49"/><polyline class="cls-18" points="290.55 85.96 290.55 86.46 290.05 86.46"/><line class="cls-12" x1="289.06" y1="86.46" x2="281.63" y2="86.46"/><polyline class="cls-18" points="281.13 86.46 280.63 86.46 280.63 85.96"/><line class="cls-10" x1="280.63" y1="85.02" x2="280.63" y2="81.75"/><polyline class="cls-18" points="280.63 89.79 280.63 89.29 281.13 89.29"/><line class="cls-12" x1="282.12" y1="89.29" x2="289.56" y2="89.29"/><polyline class="cls-18" points="290.05 89.29 290.55 89.29 290.55 89.79"/><line class="cls-10" x1="290.55" y1="90.73" x2="290.55" y2="93.99"/><polyline class="cls-18" points="290.55 94.46 290.55 94.96 290.05 94.96"/><line class="cls-12" x1="289.06" y1="94.96" x2="281.63" y2="94.96"/><polyline class="cls-18" points="281.13 94.96 280.63 94.96 280.63 94.46"/><line class="cls-10" x1="280.63" y1="93.53" x2="280.63" y2="90.26"/><rect class="cls-15" x="280.63" y="79.37" width="42.52" height="17.01"/><text class="cls-82" transform="translate(282.02 84.78)"><tspan class="cls-169" x="0" y="0">C</tspan><tspan class="cls-154" x="2.21" y="0">O</tspan><tspan x="4.64" y="0">M</tspan><tspan class="cls-88" x="1.28" y="8.5">N</tspan><tspan x="3.52" y="8.5">O</tspan></text><text class="cls-80" transform="translate(280.63 11.34)"><tspan class="cls-83"><tspan class="cls-89" x="0" y="0">1</tspan><tspan class="cls-86" x="1.65" y="0">9</tspan><tspan class="cls-168" x="3.4" y="0">S</tspan><tspan x="5.39" y="0">1</tspan></tspan><tspan class="cls-35"><tspan class="cls-143" x="0" y="3.5">E</tspan><tspan class="cls-144" x="2.13" y="3.5">X</tspan><tspan class="cls-174" x="4.12" y="3.5">O</tspan><tspan class="cls-163" x="6.53" y="3.5">_</tspan><tspan class="cls-106" x="8.24" y="3.5">WN</tspan><tspan class="cls-96" x="13.42" y="3.5">D</tspan><tspan class="cls-39" x="15.66" y="3.5">_</tspan><tspan class="cls-149" x="17.5" y="3.5">D</tspan><tspan class="cls-120" x="19.75" y="3.5">R</tspan><tspan class="cls-93" x="21.95" y="3.5">V</tspan><tspan class="cls-140" x="23.89" y="3.5">_</tspan><tspan class="cls-87" x="25.73" y="3.5">MA</tspan><tspan class="cls-39" x="30.45" y="3.5">N</tspan><tspan class="cls-181" x="32.78" y="3.5">_</tspan><tspan class="cls-7" x="34.58" y="3.5">S</tspan><tspan x="36.62" y="3.5">W</tspan></tspan><tspan class="cls-33"><tspan class="cls-46" x="0" y="7">E</tspan><tspan class="cls-131" x="2.11" y="7">x</tspan><tspan class="cls-4" x="3.73" y="7">t</tspan><tspan class="cls-152" x="4.6" y="7">e</tspan><tspan class="cls-117" x="6.34" y="7">r</tspan><tspan class="cls-56" x="7.44" y="7">na</tspan><tspan x="10.88" y="7">l </tspan><tspan class="cls-92" x="12.38" y="7">O</tspan><tspan class="cls-128" x="14.81" y="7">u</tspan><tspan class="cls-62" x="16.53" y="7">t</tspan><tspan class="cls-142" x="17.44" y="7">p</tspan><tspan class="cls-102" x="19.16" y="7">u</tspan><tspan x="20.88" y="7">t </tspan><tspan class="cls-115" x="22.55" y="7">W</tspan><tspan class="cls-44" x="25.47" y="7">i</tspan><tspan class="cls-53" x="26.19" y="7">nde</tspan><tspan x="31.38" y="7">r</tspan></tspan><tspan class="cls-33"><tspan class="cls-63" x="0" y="10.5">D</tspan><tspan class="cls-159" x="2.25" y="10.5">r</tspan><tspan class="cls-53" x="3.35" y="10.5">i</tspan><tspan class="cls-64" x="4.08" y="10.5">v</tspan><tspan x="5.6" y="10.5">e </tspan><tspan class="cls-31" x="8.1" y="10.5">M</tspan><tspan class="cls-44" x="10.68" y="10.5">a</tspan><tspan class="cls-98" x="12.41" y="10.5">n</tspan><tspan class="cls-170" x="14.13" y="10.5">ua</tspan><tspan x="17.58" y="10.5">l </tspan><tspan class="cls-55" x="19.08" y="10.5">S</tspan><tspan class="cls-67" x="21.17" y="10.5">w</tspan><tspan class="cls-170" x="23.4" y="10.5">i</tspan><tspan class="cls-162" x="24.13" y="10.5">t</tspan><tspan class="cls-31" x="25" y="10.5">c</tspan><tspan x="26.59" y="10.5">h</tspan></tspan></text><path class="cls-13" d="m277.8,26.93c-.78,0-1.42.63-1.42,1.42s.63,1.42,1.42,1.42"/><polyline class="cls-11" points="280.63 28.35 279.21 28.35 277.8 28.35"/><line class="cls-17" x1="274.96" y1="28.35" x2="276.38" y2="28.35"/><path class="cls-13" d="m277.8,35.43c-.78,0-1.42.63-1.42,1.42s.63,1.42,1.42,1.42"/><polyline class="cls-11" points="280.63 36.85 279.21 36.85 277.8 36.85"/><line class="cls-17" x1="274.96" y1="36.85" x2="276.38" y2="36.85"/><path class="cls-13" d="m277.8,43.94c-.78,0-1.42.63-1.42,1.42s.63,1.42,1.42,1.42"/><polyline class="cls-11" points="280.63 45.35 279.21 45.35 277.8 45.35"/><line class="cls-17" x1="274.96" y1="45.35" x2="276.38" y2="45.35"/><path class="cls-13" d="m277.8,52.44c-.78,0-1.42.63-1.42,1.42,0,.78.63,1.42,1.42,1.42"/><polyline class="cls-11" points="280.63 53.86 279.21 53.86 277.8 53.86"/><line class="cls-17" x1="274.96" y1="53.86" x2="276.38" y2="53.86"/><polyline class="cls-18" points="280.63 26.01 280.63 25.51 281.13 25.51"/><line class="cls-12" x1="282.12" y1="25.51" x2="289.56" y2="25.51"/><polyline class="cls-18" points="290.05 25.51 290.55 25.51 290.55 26.01"/><line class="cls-10" x1="290.55" y1="26.95" x2="290.55" y2="30.21"/><polyline class="cls-18" points="290.55 30.68 290.55 31.18 290.05 31.18"/><line class="cls-12" x1="289.06" y1="31.18" x2="281.63" y2="31.18"/><polyline class="cls-18" points="281.13 31.18 280.63 31.18 280.63 30.68"/><line class="cls-10" x1="280.63" y1="29.75" x2="280.63" y2="26.48"/><polyline class="cls-18" points="280.63 34.52 280.63 34.02 281.13 34.02"/><line class="cls-12" x1="282.12" y1="34.02" x2="289.56" y2="34.02"/><polyline class="cls-18" points="290.05 34.02 290.55 34.02 290.55 34.52"/><line class="cls-10" x1="290.55" y1="35.45" x2="290.55" y2="38.72"/><polyline class="cls-18" points="290.55 39.18 290.55 39.68 290.05 39.68"/><line class="cls-12" x1="289.06" y1="39.68" x2="281.63" y2="39.68"/><polyline class="cls-18" points="281.13 39.68 280.63 39.68 280.63 39.18"/><line class="cls-10" x1="280.63" y1="38.25" x2="280.63" y2="34.98"/><polyline class="cls-18" points="280.63 43.02 280.63 42.52 281.13 42.52"/><line class="cls-12" x1="282.12" y1="42.52" x2="289.56" y2="42.52"/><polyline class="cls-18" points="290.05 42.52 290.55 42.52 290.55 43.02"/><line class="cls-10" x1="290.55" y1="43.95" x2="290.55" y2="47.22"/><polyline class="cls-18" points="290.55 47.69 290.55 48.19 290.05 48.19"/><line class="cls-12" x1="289.06" y1="48.19" x2="281.63" y2="48.19"/><polyline class="cls-18" points="281.13 48.19 280.63 48.19 280.63 47.69"/><line class="cls-10" x1="280.63" y1="46.76" x2="280.63" y2="43.49"/><polyline class="cls-18" points="280.63 51.52 280.63 51.02 281.13 51.02"/><line class="cls-12" x1="282.12" y1="51.02" x2="289.56" y2="51.02"/><polyline class="cls-18" points="290.05 51.02 290.55 51.02 290.55 51.52"/><line class="cls-10" x1="290.55" y1="52.46" x2="290.55" y2="55.73"/><polyline class="cls-18" points="290.55 56.19 290.55 56.69 290.05 56.69"/><line class="cls-12" x1="289.06" y1="56.69" x2="281.63" y2="56.69"/><polyline class="cls-18" points="281.13 56.69 280.63 56.69 280.63 56.19"/><line class="cls-10" x1="280.63" y1="55.26" x2="280.63" y2="51.99"/><rect class="cls-15" x="280.63" y="24.09" width="42.52" height="34.02"/><text class="cls-82" transform="translate(282.4 29.5)"><tspan class="cls-110" x="0" y="0">S</tspan><tspan class="cls-129" x="1.99" y="0">1</tspan><tspan class="cls-57" x="3.65" y="0">-</tspan><tspan x="4.71" y="0">2</tspan><tspan class="cls-110" x=".03" y="8.5">S</tspan><tspan class="cls-129" x="2.03" y="8.5">1</tspan><tspan x="3.68" y="8.5">-1</tspan><tspan class="cls-110" x="-.08" y="17">S</tspan><tspan class="cls-129" x="1.91" y="17">1</tspan><tspan class="cls-30" x="3.56" y="17">-</tspan><tspan x="4.8" y="17">4</tspan><tspan class="cls-110" x="-.05" y="25.5">S</tspan><tspan class="cls-129" x="1.94" y="25.5">1</tspan><tspan class="cls-45" x="3.6" y="25.5">-</tspan><tspan x="4.77" y="25.5">5</tspan></text><line class="cls-22" x1="301.89" y1="38.44" x2="303.31" y2="38.44"/><line class="cls-22" x1="308.98" y1="38.44" x2="308.62" y2="38.44"/><path class="cls-22" d="m308.07,37.91c-.29,0-.53.24-.53.53s.24.53.53.53.53-.24.53-.53-.24-.53-.53-.53Z"/><line class="cls-22" x1="303.31" y1="38.44" x2="308.09" y2="36.32"/><line class="cls-22" x1="301.89" y1="42.7" x2="303.31" y2="42.7"/><line class="cls-22" x1="308.98" y1="42.7" x2="308.62" y2="42.7"/><circle class="cls-22" cx="308.07" cy="42.7" r=".53"/><line class="cls-22" x1="303.31" y1="42.7" x2="308.09" y2="40.57"/></g><g id="Connectors"><path class="cls-13" d="m87.87,124.71c.78,0,1.42.63,1.42,1.42s-.63,1.42-1.42,1.42"/><polyline class="cls-11" points="85.04 126.13 86.46 126.13 87.87 126.13"/><line class="cls-17" x1="90.71" y1="126.13" x2="89.29" y2="126.13"/><path class="cls-13" d="m87.87,128.96c.78,0,1.42.63,1.42,1.42s-.63,1.42-1.42,1.42"/><polyline class="cls-11" points="85.04 130.38 86.46 130.38 87.87 130.38"/><line class="cls-17" x1="90.71" y1="130.38" x2="89.29" y2="130.38"/><polygon class="cls-27" points="83.62 128.96 82.2 130.38 83.62 131.8 83.62 128.96"/><polygon class="cls-28" points="82.2 124.71 83.62 126.13 82.2 127.55 82.2 124.71"/><text class="cls-82" transform="translate(77.95 127.28)"><tspan x="0" y="0">4</tspan><tspan class="cls-118" x="0" y="4.25">1</tspan><tspan x="1.65" y="4.25">0</tspan></text><text class="cls-79" transform="translate(76.81 122.6)"><tspan class="cls-37" x="0" y="0">X</tspan><tspan class="cls-127" x="1.91" y="0">1</tspan><tspan x="3.45" y="0">1</tspan></text><polyline class="cls-18" points="85.04 123.79 85.04 123.29 84.54 123.29"/><line class="cls-12" x1="83.55" y1="123.29" x2="76.11" y2="123.29"/><polyline class="cls-18" points="75.62 123.29 75.12 123.29 75.12 123.79"/><line class="cls-12" x1="75.12" y1="124.78" x2="75.12" y2="132.22"/><polyline class="cls-18" points="75.12 132.71 75.12 133.21 75.62 133.21"/><line class="cls-12" x1="76.61" y1="133.21" x2="84.04" y2="133.21"/><polyline class="cls-18" points="84.54 133.21 85.04 133.21 85.04 132.71"/><line class="cls-12" x1="85.04" y1="131.72" x2="85.04" y2="124.29"/><path class="cls-13" d="m87.87,90.71c.78,0,1.42.63,1.42,1.42,0,.78-.63,1.42-1.42,1.42"/><polyline class="cls-11" points="85.04 92.13 86.46 92.13 87.87 92.13"/><line class="cls-17" x1="90.71" y1="92.13" x2="89.29" y2="92.13"/><path class="cls-13" d="m87.87,94.96c.78,0,1.42.63,1.42,1.42s-.63,1.42-1.42,1.42"/><polyline class="cls-11" points="85.04 96.38 86.46 96.38 87.87 96.38"/><line class="cls-17" x1="90.71" y1="96.38" x2="89.29" y2="96.38"/><polygon class="cls-27" points="83.62 68.03 82.2 66.61 83.62 65.2 83.62 68.03"/><text class="cls-82" transform="translate(77.95 93.28)"><tspan x="0" y="0">2</tspan><tspan x="0" y="4.25">1</tspan></text><polyline class="cls-18" points="85 89.79 85 89.29 84.5 89.29"/><line class="cls-12" x1="83.51" y1="89.29" x2="76.08" y2="89.29"/><polyline class="cls-18" points="75.58 89.29 75.08 89.29 75.08 89.79"/><line class="cls-12" x1="75.08" y1="90.78" x2="75.08" y2="98.22"/><polyline class="cls-18" points="75.08 98.71 75.08 99.21 75.58 99.21"/><line class="cls-12" x1="76.57" y1="99.21" x2="84.01" y2="99.21"/><polyline class="cls-18" points="84.5 99.21 85 99.21 85 98.71"/><line class="cls-12" x1="85" y1="97.72" x2="85" y2="90.29"/><text class="cls-79" transform="translate(76.42 88.6)"><tspan class="cls-138" x="0" y="0">X</tspan><tspan class="cls-165" x="2.02" y="0">60</tspan><tspan x="5.56" y="0">0</tspan></text><path class="cls-13" d="m87.87,60.94c.78,0,1.42.63,1.42,1.42s-.63,1.42-1.42,1.42"/><polyline class="cls-11" points="85.04 62.36 86.46 62.36 87.87 62.36"/><line class="cls-17" x1="90.71" y1="62.36" x2="89.29" y2="62.36"/><path class="cls-13" d="m87.87,65.2c.78,0,1.42.63,1.42,1.42s-.63,1.42-1.42,1.42"/><polyline class="cls-11" points="85.04 66.61 86.46 66.61 87.87 66.61"/><line class="cls-17" x1="90.71" y1="66.61" x2="89.29" y2="66.61"/><polygon class="cls-28" points="82.2 93.54 83.62 92.13 82.2 90.71 82.2 93.54"/><polygon class="cls-27" points="83.62 97.8 82.2 96.38 83.62 94.96 83.62 97.8"/><text class="cls-82" transform="translate(77.95 63.52)"><tspan x="0" y="0">4</tspan><tspan x="0" y="4.25">9</tspan></text><text class="cls-79" transform="translate(77.46 58.83)"><tspan class="cls-101" x="0" y="0">X</tspan><tspan x="2.16" y="0">2</tspan></text><polyline class="cls-18" points="85.04 60.03 85.04 59.53 84.54 59.53"/><line class="cls-12" x1="83.55" y1="59.53" x2="76.11" y2="59.53"/><polyline class="cls-18" points="75.62 59.53 75.12 59.53 75.12 60.03"/><line class="cls-12" x1="75.12" y1="61.02" x2="75.12" y2="68.45"/><polyline class="cls-18" points="75.12 68.95 75.12 69.45 75.62 69.45"/><line class="cls-12" x1="76.61" y1="69.45" x2="84.04" y2="69.45"/><polyline class="cls-18" points="84.54 69.45 85.04 69.45 85.04 68.95"/><line class="cls-12" x1="85.04" y1="67.96" x2="85.04" y2="60.52"/><polygon class="cls-28" points="82.2 63.78 83.62 62.36 82.2 60.94 82.2 63.78"/><path class="cls-13" d="m87.87,26.93c.78,0,1.42.63,1.42,1.42s-.63,1.42-1.42,1.42"/><polyline class="cls-11" points="85.04 28.35 86.46 28.35 87.87 28.35"/><line class="cls-17" x1="90.71" y1="28.35" x2="89.29" y2="28.35"/><path class="cls-13" d="m87.87,35.43c.78,0,1.42.63,1.42,1.42s-.63,1.42-1.42,1.42"/><polyline class="cls-11" points="85.04 36.85 86.46 36.85 87.87 36.85"/><line class="cls-17" x1="90.71" y1="36.85" x2="89.29" y2="36.85"/><polygon class="cls-28" points="82.2 29.76 83.62 28.35 82.2 26.93 82.2 29.76"/><polygon class="cls-28" points="82.2 38.27 83.62 36.85 82.2 35.43 82.2 38.27"/><text class="cls-82" transform="translate(77.95 29.5)"><tspan x="0" y="0">3</tspan><tspan x="0" y="8.5">2</tspan></text><text class="cls-79" transform="translate(76.67 24.82)"><tspan class="cls-177" x="0" y="0">X</tspan><tspan class="cls-2" x="2.04" y="0">9</tspan><tspan x="3.73" y="0">1</tspan></text><polyline class="cls-18" points="85.04 26.01 85.04 25.51 84.54 25.51"/><line class="cls-12" x1="83.55" y1="25.51" x2="76.11" y2="25.51"/><polyline class="cls-18" points="75.62 25.51 75.12 25.51 75.12 26.01"/><line class="cls-19" x1="75.12" y1="27.03" x2="75.12" y2="38.68"/><polyline class="cls-18" points="75.12 39.19 75.12 39.69 75.62 39.69"/><line class="cls-12" x1="76.61" y1="39.69" x2="84.04" y2="39.69"/><polyline class="cls-18" points="84.54 39.69 85.04 39.69 85.04 39.19"/><line class="cls-19" x1="85.04" y1="38.17" x2="85.04" y2="26.52"/><path class="cls-13" d="m214.02,43.94c-.78,0-1.42.63-1.42,1.42s.63,1.42,1.42,1.42"/><polyline class="cls-11" points="216.85 45.35 215.43 45.35 214.02 45.35"/><path class="cls-13" d="m214.02,35.43c-.78,0-1.42.63-1.42,1.42s.63,1.42,1.42,1.42"/><polyline class="cls-11" points="216.85 36.85 215.43 36.85 214.02 36.85"/><path class="cls-13" d="m214.02,26.93c-.78,0-1.42.63-1.42,1.42s.63,1.42,1.42,1.42"/><polyline class="cls-11" points="216.85 28.35 215.43 28.35 214.02 28.35"/><path class="cls-13" d="m214.02,128.98c-.78,0-1.42.63-1.42,1.42s.63,1.42,1.42,1.42"/><polyline class="cls-11" points="216.85 130.39 215.43 130.39 214.02 130.39"/><text class="cls-82" transform="translate(208.23 29.49)"><tspan x="0" y="0">2</tspan><tspan x="0" y="8.5">1</tspan><tspan x="0" y="17">3</tspan><tspan x="0" y="102">4</tspan></text><text class="cls-79" transform="translate(205.54 24.8)"><tspan class="cls-89" x="0" y="0">1</tspan><tspan class="cls-50" x="1.65" y="0">9</tspan><tspan class="cls-109" x="3.34" y="0">X</tspan><tspan x="5.39" y="0">4</tspan></text><polyline class="cls-18" points="212.61 26.01 212.61 25.51 212.11 25.51"/><line class="cls-14" x1="211.24" y1="25.51" x2="206.46" y2="25.51"/><polyline class="cls-18" points="206.02 25.51 205.52 25.51 205.52 26.01"/><line class="cls-16" x1="205.52" y1="27" x2="205.52" y2="131.52"/><polyline class="cls-18" points="205.52 132.02 205.52 132.52 206.02 132.52"/><line class="cls-14" x1="206.89" y1="132.52" x2="211.67" y2="132.52"/><polyline class="cls-18" points="212.11 132.52 212.61 132.52 212.61 132.02"/><line class="cls-16" x1="212.61" y1="131.03" x2="212.61" y2="26.51"/><path class="cls-13" d="m267.89,120.47c-.78,0-1.42.63-1.42,1.42,0,.78.63,1.42,1.42,1.42"/><polyline class="cls-11" points="270.73 121.89 269.31 121.89 267.89 121.89"/><path class="cls-13" d="m267.89,128.98c-.78,0-1.42.63-1.42,1.42,0,.78.63,1.42,1.42,1.42"/><polyline class="cls-11" points="270.73 130.39 269.31 130.39 267.89 130.39"/><text class="cls-82" transform="translate(262.08 123.03)"><tspan x="0" y="0">1</tspan><tspan x="0" y="8.5">2</tspan></text><text class="cls-79" transform="translate(259.39 118.35)"><tspan class="cls-89" x="0" y="0">1</tspan><tspan class="cls-50" x="1.65" y="0">9</tspan><tspan class="cls-54" x="3.34" y="0">X</tspan><tspan x="5.37" y="0">8</tspan></text><polyline class="cls-18" points="266.46 119.54 266.46 119.04 265.96 119.04"/><line class="cls-14" x1="265.09" y1="119.04" x2="260.3" y2="119.04"/><polyline class="cls-18" points="259.87 119.04 259.37 119.04 259.37 119.54"/><line class="cls-20" x1="259.37" y1="120.5" x2="259.37" y2="131.54"/><polyline class="cls-18" points="259.37 132.02 259.37 132.52 259.87 132.52"/><line class="cls-14" x1="260.74" y1="132.52" x2="265.52" y2="132.52"/><polyline class="cls-18" points="265.96 132.52 266.46 132.52 266.46 132.02"/><line class="cls-20" x1="266.46" y1="131.06" x2="266.46" y2="120.02"/><path class="cls-13" d="m267.89,82.2c-.78,0-1.42.63-1.42,1.42s.63,1.42,1.42,1.42"/><polyline class="cls-11" points="270.73 83.62 269.31 83.62 267.89 83.62"/><path class="cls-13" d="m267.89,90.71c-.78,0-1.42.63-1.42,1.42,0,.78.63,1.42,1.42,1.42"/><polyline class="cls-11" points="270.73 92.13 269.31 92.13 267.89 92.13"/><text class="cls-82" transform="translate(262.08 84.77)"><tspan x="0" y="0">1</tspan><tspan x="0" y="8.5">2</tspan></text><text class="cls-79" transform="translate(259.36 80.08)"><tspan class="cls-89" x="0" y="0">1</tspan><tspan class="cls-50" x="1.65" y="0">9</tspan><tspan class="cls-68" x="3.34" y="0">X</tspan><tspan x="5.44" y="0">7</tspan></text><polyline class="cls-18" points="266.46 81.27 266.46 80.77 265.96 80.77"/><line class="cls-14" x1="265.09" y1="80.77" x2="260.3" y2="80.77"/><polyline class="cls-18" points="259.87 80.77 259.37 80.77 259.37 81.27"/><line class="cls-9" x1="259.37" y1="82.29" x2="259.37" y2="93.95"/><polyline class="cls-18" points="259.37 94.46 259.37 94.96 259.87 94.96"/><line class="cls-14" x1="260.74" y1="94.96" x2="265.52" y2="94.96"/><polyline class="cls-18" points="265.96 94.96 266.46 94.96 266.46 94.46"/><line class="cls-9" x1="266.46" y1="93.45" x2="266.46" y2="81.78"/></g><g id="PBA"><polygon class="cls-85" points="49.61 35.43 42.52 35.43 42.52 28.35 49.61 28.35 49.61 24.8 56.69 31.89 49.61 38.98 49.61 35.43"/><rect class="cls-23" x="56.69" y="21.26" width="28.35" height="51.02"/><text class="cls-84" transform="translate(56.69 19.84)"><tspan class="cls-123" x="0" y="0">22</tspan><tspan class="cls-164" x="4.69" y="0">P</tspan><tspan class="cls-72" x="7.41" y="0">B</tspan><tspan class="cls-141" x="10.36" y="0">A</tspan><tspan class="cls-180" x="13.29" y="0">0</tspan><tspan x="15.59" y="0">2</tspan></text><text class="cls-34" transform="translate(56.69 15.68)"><tspan class="cls-42" x="0" y="0">DI</tspan><tspan class="cls-120" x="3.14" y="0">S</tspan><tspan class="cls-113" x="5.18" y="0">T</tspan><tspan class="cls-6" x="7.09" y="0">R</tspan><tspan class="cls-31" x="9.32" y="0">I</tspan><tspan class="cls-121" x="10.24" y="0">BU</tspan><tspan class="cls-44" x="14.54" y="0">T</tspan><tspan class="cls-148" x="16.43" y="0">I</tspan><tspan class="cls-77" x="17.34" y="0">O</tspan><tspan x="19.77" y="0">N</tspan></text><rect class="cls-23" x="56.69" y="85.04" width="28.35" height="51.02"/><text class="cls-84" transform="translate(56.69 83.62)"><tspan class="cls-74" x="0" y="0">1</tspan><tspan class="cls-41" x="2.16" y="0">2</tspan><tspan class="cls-164" x="4.51" y="0">P</tspan><tspan class="cls-72" x="7.22" y="0">B</tspan><tspan class="cls-141" x="10.18" y="0">A</tspan><tspan class="cls-180" x="13.11" y="0">0</tspan><tspan x="15.41" y="0">2</tspan></text><text class="cls-34" transform="translate(56.69 79.46)"><tspan class="cls-148" x="0" y="0">I</tspan><tspan class="cls-159" x=".91" y="0">O</tspan><tspan class="cls-142" x="3.34" y="0">B</tspan><tspan class="cls-40" x="5.4" y="0">O</tspan><tspan class="cls-91" x="7.76" y="0">A</tspan><tspan class="cls-55" x="9.87" y="0">R</tspan><tspan x="12.12" y="0">D </tspan><tspan class="cls-149" x="15.12" y="0">D</tspan><tspan class="cls-107" x="17.37" y="0">R</tspan><tspan class="cls-178" x="19.74" y="0">A</tspan><tspan class="cls-90" x="21.72" y="0">W</tspan><tspan class="cls-8" x="24.64" y="0">E</tspan><tspan x="26.69" y="0">R</tspan></text><rect class="cls-25" x="7.09" y="21.26" width="35.43" height="21.26"/><text class="cls-83" transform="translate(9.21 30.55)"><tspan class="cls-65"><tspan class="cls-151" x="0" y="0">2</tspan><tspan x="5.69" y="0">2</tspan></tspan><tspan class="cls-103"><tspan class="cls-136" x="0" y="4.8">PO</tspan><tspan class="cls-26" x="5.95" y="4.8">W</tspan><tspan class="cls-135" x="9.85" y="4.8">E</tspan><tspan x="12.62" y="4.8">R</tspan></tspan><tspan class="cls-103"><tspan class="cls-111" x="0" y="9.6">S</tspan><tspan class="cls-88" x="2.74" y="9.6">U</tspan><tspan class="cls-78" x="5.73" y="9.6">P</tspan><tspan class="cls-145" x="8.45" y="9.6">P</tspan><tspan class="cls-160" x="11.15" y="9.6">L</tspan><tspan x="13.33" y="9.6">Y</tspan></tspan></text></g></svg>