<?xml version="1.0" encoding="UTF-8"?><svg xmlns="http://www.w3.org/2000/svg" viewBox="0 0 249.73 223.94"><defs><style>.cls-1,.cls-2{fill:#fff;}.cls-3,.cls-2,.cls-4,.cls-5,.cls-6,.cls-7{stroke-linecap:round;stroke-linejoin:round;}.cls-3,.cls-2,.cls-4,.cls-5,.cls-7{stroke:#000;}.cls-3,.cls-2,.cls-4,.cls-6,.cls-7{stroke-width:.5px;}.cls-3,.cls-5,.cls-6{fill:none;}.cls-4{fill:#c8e6c9;}.cls-5{stroke-width:.25px;}.cls-8{fill:#ffe0b2;}.cls-6{stroke:#e0e0e0;}.cls-9{letter-spacing:-.09em;}.cls-10{font-family:ArialMT, Arial;font-size:4px;}.cls-7{fill:#bbdefb;}.cls-11{letter-spacing:-.06em;}.cls-12{font-family:Arial-BoldMT, Arial;font-size:6px;font-weight:700;}</style></defs><g id="Bckground"><rect class="cls-1" width="249.73" height="223.94"/></g><g id="Frame"><rect class="cls-6" x="5.67" y="5.67" width="238.11" height="212.6"/><text class="cls-12" transform="translate(8.03 13.65)"><tspan x="0" y="0">Engineer</tspan></text></g><g id="Blocks"><g><path class="cls-4" d="M82.2,141.73l28.35,14.17-28.35,14.17-28.35-14.17,28.35-14.17Z"/><text class="cls-10" transform="translate(69.2 157.34)"><tspan x="0" y="0">IBI damaged ?</tspan></text></g><g><rect class="cls-7" x="53.86" y="56.69" width="56.69" height="28.35"/><text class="cls-10" transform="translate(67.53 72.3)"><tspan x="0" y="0">Clean inksystem</tspan></text></g><g><rect class="cls-7" x="53.86" y="99.21" width="56.69" height="28.35"/><text class="cls-10" transform="translate(64.97 114.82)"><tspan x="0" y="0">Replace printheads</tspan></text></g><g><rect class="cls-7" x="53.86" y="184.25" width="56.69" height="28.35"/><text class="cls-10" transform="translate(71.87 199.86)"><tspan x="0" y="0">Replace IBI</tspan></text></g><g><rect class="cls-7" x="138.9" y="184.25" width="56.69" height="28.35"/><text class="cls-10" transform="translate(151.79 199.86)"><tspan x="0" y="0">Escalate to </tspan><tspan class="cls-11" x="20.9" y="0">V</tspan><tspan x="23.35" y="0">enlo</tspan></text></g><g><g><rect class="cls-8" x="53.86" y="28.35" width="56.69" height="14.17" rx="5.67" ry="5.67"/><rect class="cls-3" x="53.86" y="28.35" width="56.69" height="14.17" rx="5.67" ry="5.67"/></g><text class="cls-10" transform="translate(59.19 36.78)"><tspan x="0" y="0">Other color than expected</tspan></text></g></g><g id="Lines"><g><line class="cls-8" x1="82.2" y1="42.52" x2="82.2" y2="56.69"/><g><line class="cls-5" x1="82.2" y1="42.52" x2="82.2" y2="54.43"/><path d="M82.2,56.69c-.4-1.06-1.07-2.39-1.78-3.21l1.78,.65,1.78-.65c-.71,.82-1.39,2.14-1.78,3.21Z"/></g></g><g><line class="cls-8" x1="82.2" y1="85.04" x2="82.2" y2="99.21"/><g><line class="cls-5" x1="82.2" y1="85.04" x2="82.2" y2="96.95"/><path d="M82.2,99.21c-.4-1.06-1.07-2.39-1.78-3.21l1.78,.65,1.78-.65c-.71,.82-1.39,2.14-1.78,3.21Z"/></g></g><g><polyline class="cls-5" points="110.55 155.91 167.24 155.91 167.24 181.99"/><path d="M167.24,184.25c-.4-1.06-1.07-2.39-1.78-3.21l1.78,.65,1.78-.65c-.71,.82-1.39,2.14-1.78,3.21Z"/></g><g><g><path class="cls-1" d="M122.6,155.91c0,1.56-1.28,2.83-2.83,2.83h-4.25c-1.56,0-2.83-1.28-2.83-2.83s1.28-2.83,2.83-2.83h4.25c1.56,0,2.83,1.28,2.83,2.83Z"/><path class="cls-3" d="M122.6,155.91c0,1.56-1.28,2.83-2.83,2.83h-4.25c-1.56,0-2.83-1.28-2.83-2.83s1.28-2.83,2.83-2.83h4.25c1.56,0,2.83,1.28,2.83,2.83Z"/></g><text class="cls-10" transform="translate(115.08 157.4)"><tspan x="0" y="0">No</tspan></text></g><g><line class="cls-8" x1="82.2" y1="127.56" x2="82.2" y2="141.73"/><g><line class="cls-5" x1="82.2" y1="127.56" x2="82.2" y2="139.47"/><path d="M82.2,141.73c-.4-1.06-1.07-2.39-1.78-3.21l1.78,.65,1.78-.65c-.71,.82-1.39,2.14-1.78,3.21Z"/></g></g><g><line class="cls-8" x1="82.2" y1="170.08" x2="82.2" y2="184.25"/><g><line class="cls-5" x1="82.2" y1="170.08" x2="82.2" y2="181.99"/><path d="M82.2,184.25c-.4-1.06-1.07-2.39-1.78-3.21l1.78,.65,1.78-.65c-.71,.82-1.39,2.14-1.78,3.21Z"/></g></g><g><g><path class="cls-1" d="M87.17,175.87c0,1.56-1.28,2.83-2.83,2.83h-4.25c-1.56,0-2.83-1.28-2.83-2.83s1.28-2.83,2.83-2.83h4.25c1.56,0,2.83,1.28,2.83,2.83Z"/><path class="cls-3" d="M87.17,175.87c0,1.56-1.28,2.83-2.83,2.83h-4.25c-1.56,0-2.83-1.28-2.83-2.83s1.28-2.83,2.83-2.83h4.25c1.56,0,2.83,1.28,2.83,2.83Z"/></g><text class="cls-10" transform="translate(78.94 177.37)"><tspan class="cls-9" x="0" y="0">Y</tspan><tspan x="2.3" y="0">es</tspan></text></g></g><g id="Numbers"><g><circle class="cls-2" cx="48.19" cy="70.87" r="5.67"/><text class="cls-12" transform="translate(46.52 72.88)"><tspan x="0" y="0">1</tspan></text></g><g><circle class="cls-2" cx="48.19" cy="155.91" r="5.67"/><text class="cls-12" transform="translate(46.52 157.92)"><tspan x="0" y="0">3</tspan></text></g><g><circle class="cls-2" cx="48.19" cy="198.43" r="5.67"/><text class="cls-12" transform="translate(46.52 200.44)"><tspan x="0" y="0">4</tspan></text></g><g><circle class="cls-2" cx="48.19" cy="113.39" r="5.67"/><text class="cls-12" transform="translate(46.52 115.4)"><tspan x="0" y="0">2</tspan></text></g><g><circle class="cls-2" cx="133.23" cy="198.43" r="5.67"/><text class="cls-12" transform="translate(131.56 200.44)"><tspan x="0" y="0">5</tspan></text></g></g></svg>