<?xml version="1.0" encoding="UTF-8"?><svg xmlns="http://www.w3.org/2000/svg" viewBox="0 0 299.91 280.63"><defs><style>.cls-1,.cls-2{fill:#fff;}.cls-3,.cls-2,.cls-4,.cls-5,.cls-6,.cls-7{stroke-linecap:round;stroke-linejoin:round;}.cls-3,.cls-2,.cls-4,.cls-5,.cls-7{stroke:#000;}.cls-3,.cls-2,.cls-4,.cls-6,.cls-7{stroke-width:.5px;}.cls-3,.cls-5,.cls-6{fill:none;}.cls-4{fill:#c8e6c9;}.cls-5{stroke-width:.25px;}.cls-8{fill:#ffe0b2;}.cls-6{stroke:#e0e0e0;}.cls-9{letter-spacing:-.09em;}.cls-10{font-family:ArialMT, Arial;font-size:4px;}.cls-7{fill:#bbdefb;}.cls-11{font-family:Arial-BoldMT, Arial;font-size:6px;font-weight:700;}</style></defs><g id="Bckground"><rect class="cls-1" width="299.91" height="280.63"/></g><g id="Frame"><rect class="cls-6" x="5.67" y="5.67" width="289.13" height="155.91"/><rect class="cls-6" x="5.67" y="161.57" width="289.13" height="113.39"/><text class="cls-11" transform="translate(8.5 13.65)"><tspan x="0" y="0">Remote support / Customer</tspan></text><text class="cls-11" transform="translate(8.5 169.56)"><tspan x="0" y="0">Engineer</tspan></text></g><g id="Blocks"><path class="cls-4" d="m82.2,56.69l28.35,14.17-28.35,14.17-28.35-14.17,28.35-14.17Z"/><text class="cls-10" transform="translate(67.09 69.9)"><tspan x="0" y="0">Solved by slower </tspan><tspan x="4.56" y="4.8">printmode ?</tspan></text><path class="cls-4" d="m167.24,170.08l28.35,14.17-28.35,14.17-28.35-14.17,28.35-14.17Z"/><text class="cls-10" transform="translate(158.68 183.28)"><tspan x="0" y="0">Printhead </tspan><tspan x="-2.67" y="4.8">misaligned ?</tspan></text><rect class="cls-7" x="138.9" y="212.6" width="56.69" height="28.35"/><text class="cls-10" transform="translate(150.68 228.2)"><tspan x="0" y="0">Reinstall printhead</tspan></text><rect class="cls-7" x="138.9" y="99.21" width="56.69" height="28.35"/><text class="cls-10" transform="translate(146.46 114.82)"><tspan x="0" y="0">Calibrate printhead (UI)</tspan></text><rect class="cls-8" x="53.86" y="28.35" width="56.69" height="14.17" rx="5.67" ry="5.67"/><rect class="cls-3" x="53.86" y="28.35" width="56.69" height="14.17" rx="5.67" ry="5.67"/><text class="cls-10" transform="translate(77.98 36.78)"><tspan x="0" y="0">Start</tspan></text><rect class="cls-8" x="53.86" y="141.73" width="56.69" height="14.17" rx="5.67" ry="5.67"/><rect class="cls-3" x="53.86" y="141.73" width="56.69" height="14.17" rx="5.67" ry="5.67"/><text class="cls-10" transform="translate(78.65 150.17)"><tspan x="0" y="0">End</tspan></text><rect class="cls-8" x="223.94" y="255.12" width="56.69" height="14.17" rx="5.67" ry="5.67"/><rect class="cls-3" x="223.94" y="255.12" width="56.69" height="14.17" rx="5.67" ry="5.67"/><text class="cls-10" transform="translate(248.72 263.55)"><tspan x="0" y="0">End</tspan></text><rect class="cls-7" x="223.94" y="212.6" width="56.69" height="28.35"/><text class="cls-10" transform="translate(236.05 228.2)"><tspan x="0" y="0">Replace printhead</tspan></text><rect class="cls-8" x="138.9" y="255.12" width="56.69" height="14.17" rx="5.67" ry="5.67"/><rect class="cls-3" x="138.9" y="255.12" width="56.69" height="14.17" rx="5.67" ry="5.67"/><text class="cls-10" transform="translate(163.69 263.55)"><tspan x="0" y="0">End</tspan></text><rect class="cls-7" x="53.86" y="99.21" width="56.69" height="28.35"/><text class="cls-10" transform="translate(66.75 114.82)"><tspan x="0" y="0">Use slower mode</tspan></text></g><g id="Lines"><line class="cls-8" x1="82.2" y1="42.52" x2="82.2" y2="56.69"/><line class="cls-5" x1="82.2" y1="42.52" x2="82.2" y2="54.43"/><path d="m82.2,56.69c-.4-1.06-1.07-2.39-1.78-3.21l1.78.65,1.78-.65c-.71.82-1.39,2.14-1.78,3.21Z"/><line class="cls-8" x1="82.2" y1="85.04" x2="82.2" y2="99.21"/><line class="cls-5" x1="82.2" y1="85.04" x2="82.2" y2="96.95"/><path d="m82.2,99.21c-.4-1.06-1.07-2.39-1.78-3.21l1.78.65,1.78-.65c-.71.82-1.39,2.14-1.78,3.21Z"/><polyline class="cls-5" points="110.55 70.87 167.24 70.87 167.24 96.95"/><path d="m167.24,99.21c-.4-1.06-1.07-2.39-1.78-3.21l1.78.65,1.78-.65c-.71.82-1.39,2.14-1.78,3.21Z"/><path class="cls-1" d="m122.6,70.87c0,1.56-1.28,2.83-2.83,2.83h-4.25c-1.56,0-2.83-1.28-2.83-2.83h0c0-1.56,1.28-2.83,2.83-2.83h4.25c1.56,0,2.83,1.28,2.83,2.83h0Z"/><path class="cls-3" d="m122.6,70.87c0,1.56-1.28,2.83-2.83,2.83h-4.25c-1.56,0-2.83-1.28-2.83-2.83h0c0-1.56,1.28-2.83,2.83-2.83h4.25c1.56,0,2.83,1.28,2.83,2.83h0Z"/><text class="cls-10" transform="translate(115.08 72.36)"><tspan x="0" y="0">No</tspan></text><polyline class="cls-5" points="195.59 184.25 252.28 184.25 252.28 210.34"/><path d="m252.28,212.6c-.4-1.06-1.07-2.39-1.78-3.21l1.78.65,1.78-.65c-.71.82-1.39,2.14-1.78,3.21Z"/><path class="cls-1" d="m207.64,184.25c0,1.56-1.28,2.83-2.83,2.83h-4.25c-1.56,0-2.83-1.28-2.83-2.83h0c0-1.56,1.28-2.83,2.83-2.83h4.25c1.56,0,2.83,1.28,2.83,2.83h0Z"/><path class="cls-3" d="m207.64,184.25c0,1.56-1.28,2.83-2.83,2.83h-4.25c-1.56,0-2.83-1.28-2.83-2.83h0c0-1.56,1.28-2.83,2.83-2.83h4.25c1.56,0,2.83,1.28,2.83,2.83h0Z"/><text class="cls-10" transform="translate(200.12 185.74)"><tspan x="0" y="0">No</tspan></text><path class="cls-1" d="m87.17,90.83c0,1.56-1.28,2.83-2.83,2.83h-4.25c-1.56,0-2.83-1.28-2.83-2.83s1.28-2.83,2.83-2.83h4.25c1.56,0,2.83,1.28,2.83,2.83Z"/><path class="cls-3" d="m87.17,90.83c0,1.56-1.28,2.83-2.83,2.83h-4.25c-1.56,0-2.83-1.28-2.83-2.83s1.28-2.83,2.83-2.83h4.25c1.56,0,2.83,1.28,2.83,2.83Z"/><text class="cls-10" transform="translate(78.94 92.33)"><tspan class="cls-9" x="0" y="0">Y</tspan><tspan x="2.3" y="0">es</tspan></text><line class="cls-8" x1="82.2" y1="127.56" x2="82.2" y2="141.73"/><line class="cls-5" x1="82.2" y1="127.56" x2="82.2" y2="139.47"/><path d="m82.2,141.73c-.4-1.06-1.07-2.39-1.78-3.21l1.78.65,1.78-.65c-.71.82-1.39,2.14-1.78,3.21Z"/><line class="cls-8" x1="252.28" y1="240.94" x2="252.28" y2="255.12"/><line class="cls-5" x1="252.28" y1="240.94" x2="252.28" y2="252.85"/><path d="m252.28,255.12c-.4-1.06-1.07-2.39-1.78-3.21l1.78.65,1.78-.65c-.71.82-1.39,2.14-1.78,3.21Z"/><line class="cls-8" x1="167.24" y1="127.56" x2="167.24" y2="170.08"/><line class="cls-5" x1="167.24" y1="127.56" x2="167.24" y2="167.82"/><path d="m167.24,170.08c-.4-1.06-1.07-2.39-1.78-3.21l1.78.65,1.78-.65c-.71.82-1.39,2.14-1.78,3.21Z"/><line class="cls-8" x1="167.24" y1="240.94" x2="167.24" y2="255.12"/><line class="cls-5" x1="167.24" y1="240.94" x2="167.24" y2="252.85"/><path d="m167.24,255.12c-.4-1.06-1.07-2.39-1.78-3.21l1.78.65,1.78-.65c-.71.82-1.39,2.14-1.78,3.21Z"/><path class="cls-1" d="m172.2,133.23c0,1.56-1.28,2.83-2.83,2.83h-4.25c-1.56,0-2.83-1.28-2.83-2.83s1.28-2.83,2.83-2.83h4.25c1.56,0,2.83,1.28,2.83,2.83Z"/><path class="cls-3" d="m172.2,133.23c0,1.56-1.28,2.83-2.83,2.83h-4.25c-1.56,0-2.83-1.28-2.83-2.83s1.28-2.83,2.83-2.83h4.25c1.56,0,2.83,1.28,2.83,2.83Z"/><text class="cls-10" transform="translate(163.98 134.72)"><tspan class="cls-9" x="0" y="0">Y</tspan><tspan x="2.3" y="0">es</tspan></text><line class="cls-8" x1="167.24" y1="198.43" x2="167.24" y2="212.6"/><line class="cls-5" x1="167.24" y1="198.43" x2="167.24" y2="210.34"/><path d="m167.24,212.6c-.4-1.06-1.07-2.39-1.78-3.21l1.78.65,1.78-.65c-.71.82-1.39,2.14-1.78,3.21Z"/><path class="cls-1" d="m172.2,204.09c0,1.56-1.28,2.83-2.83,2.83h-4.25c-1.56,0-2.83-1.28-2.83-2.83s1.28-2.83,2.83-2.83h4.25c1.56,0,2.83,1.28,2.83,2.83Z"/><path class="cls-3" d="m172.2,204.09c0,1.56-1.28,2.83-2.83,2.83h-4.25c-1.56,0-2.83-1.28-2.83-2.83s1.28-2.83,2.83-2.83h4.25c1.56,0,2.83,1.28,2.83,2.83Z"/><text class="cls-10" transform="translate(163.98 205.59)"><tspan class="cls-9" x="0" y="0">Y</tspan><tspan x="2.3" y="0">es</tspan></text></g><g id="Numbers"><circle class="cls-2" cx="48.19" cy="70.87" r="5.67"/><text class="cls-11" transform="translate(46.52 72.88)"><tspan x="0" y="0">1</tspan></text><circle class="cls-2" cx="133.23" cy="226.77" r="5.67"/><text class="cls-11" transform="translate(131.56 228.78)"><tspan x="0" y="0">5</tspan></text><circle class="cls-2" cx="48.19" cy="113.39" r="5.67"/><text class="cls-11" transform="translate(46.52 115.4)"><tspan x="0" y="0">2</tspan></text><circle class="cls-2" cx="133.23" cy="113.39" r="5.67"/><text class="cls-11" transform="translate(131.56 115.4)"><tspan x="0" y="0">3</tspan></text><circle class="cls-2" cx="133.23" cy="184.25" r="5.67"/><text class="cls-11" transform="translate(131.56 186.26)"><tspan x="0" y="0">4</tspan></text></g></svg>