<?xml version="1.0" encoding="UTF-8"?><svg xmlns="http://www.w3.org/2000/svg" viewBox="0 0 249.73 323.15"><defs><style>.cls-1,.cls-2{fill:#fff;}.cls-3,.cls-2,.cls-4,.cls-5,.cls-6,.cls-7{stroke-linecap:round;stroke-linejoin:round;}.cls-3,.cls-2,.cls-4,.cls-5,.cls-7{stroke:#000;}.cls-3,.cls-2,.cls-4,.cls-6,.cls-7{stroke-width:.5px;}.cls-3,.cls-5,.cls-6{fill:none;}.cls-4{fill:#c8e6c9;}.cls-5{stroke-width:.25px;}.cls-8{fill:#ffe0b2;}.cls-6{stroke:#e0e0e0;}.cls-9{letter-spacing:-.09em;}.cls-10{font-family:ArialMT, Arial;font-size:4px;}.cls-7{fill:#bbdefb;}.cls-11{font-family:Arial-BoldMT, Arial;font-size:6px;font-weight:700;}</style></defs><g id="Bckground"><rect class="cls-1" width="249.73" height="323.15"/></g><g id="Frame"><rect class="cls-6" x="5.67" y="5.67" width="238.11" height="226.77"/><rect class="cls-6" x="5.67" y="232.44" width="238.11" height="85.04"/><text class="cls-11" transform="translate(8.5 13.65)"><tspan x="0" y="0">Remote support / Customer</tspan></text><text class="cls-11" transform="translate(8.5 240.42)"><tspan x="0" y="0">Application specialist</tspan></text></g><g id="Blocks"><path class="cls-4" d="m82.2,56.69l28.35,14.17-28.35,14.17-28.35-14.17,28.35-14.17Z"/><text class="cls-10" transform="translate(70.42 72.3)"><tspan x="0" y="0">Ruler clean ?</tspan></text><path class="cls-4" d="m82.2,141.73l28.35,14.17-28.35,14.17-28.35-14.17,28.35-14.17Z"/><text class="cls-10" transform="translate(69.31 154.94)"><tspan x="0" y="0">Ruler correctly </tspan><tspan x="3.44" y="4.8">mounted ?</tspan></text><rect class="cls-7" x="53.86" y="255.12" width="56.69" height="28.35"/><text class="cls-10" transform="translate(70.31 270.72)"><tspan x="0" y="0">Replace ruler</tspan></text><rect class="cls-7" x="138.9" y="85.04" width="56.69" height="28.35"/><text class="cls-10" transform="translate(157.46 100.65)"><tspan x="0" y="0">Clean ruler</tspan></text><rect class="cls-8" x="53.86" y="28.35" width="56.69" height="14.17" rx="5.67" ry="5.67"/><rect class="cls-3" x="53.86" y="28.35" width="56.69" height="14.17" rx="5.67" ry="5.67"/><text class="cls-10" transform="translate(77.98 36.78)"><tspan x="0" y="0">Start</tspan></text><rect class="cls-8" x="138.9" y="127.56" width="56.69" height="14.17" rx="5.67" ry="5.67"/><rect class="cls-3" x="138.9" y="127.56" width="56.69" height="14.17" rx="5.67" ry="5.67"/><text class="cls-10" transform="translate(163.69 135.99)"><tspan x="0" y="0">End</tspan></text><rect class="cls-8" x="138.9" y="212.6" width="56.69" height="14.17" rx="5.67" ry="5.67"/><rect class="cls-3" x="138.9" y="212.6" width="56.69" height="14.17" rx="5.67" ry="5.67"/><text class="cls-10" transform="translate(163.69 221.03)"><tspan x="0" y="0">End</tspan></text><rect class="cls-7" x="138.9" y="170.08" width="56.69" height="28.35"/><text class="cls-10" transform="translate(157.13 185.68)"><tspan x="0" y="0">Adjust ruler</tspan></text><rect class="cls-8" x="53.86" y="297.64" width="56.69" height="14.17" rx="5.67" ry="5.67"/><rect class="cls-3" x="53.86" y="297.64" width="56.69" height="14.17" rx="5.67" ry="5.67"/><text class="cls-10" transform="translate(78.65 306.07)"><tspan x="0" y="0">End</tspan></text></g><g id="Lines"><line class="cls-8" x1="82.2" y1="42.52" x2="82.2" y2="56.69"/><line class="cls-5" x1="82.2" y1="42.52" x2="82.2" y2="54.43"/><path d="m82.2,56.69c-.4-1.06-1.07-2.39-1.78-3.21l1.78.65,1.78-.65c-.71.82-1.39,2.14-1.78,3.21Z"/><line class="cls-8" x1="82.2" y1="85.04" x2="82.2" y2="141.73"/><line class="cls-5" x1="82.2" y1="85.04" x2="82.2" y2="139.47"/><path d="m82.2,141.73c-.4-1.06-1.07-2.39-1.78-3.21l1.78.65,1.78-.65c-.71.82-1.39,2.14-1.78,3.21Z"/><polyline class="cls-5" points="110.55 70.87 167.24 70.87 167.24 82.78"/><path d="m167.24,85.04c-.4-1.06-1.07-2.39-1.78-3.21l1.78.65,1.78-.65c-.71.82-1.39,2.14-1.78,3.21Z"/><path class="cls-1" d="m122.6,70.87c0,1.56-1.28,2.83-2.83,2.83h-4.25c-1.56,0-2.83-1.28-2.83-2.83h0c0-1.56,1.28-2.83,2.83-2.83h4.25c1.56,0,2.83,1.28,2.83,2.83h0Z"/><path class="cls-3" d="m122.6,70.87c0,1.56-1.28,2.83-2.83,2.83h-4.25c-1.56,0-2.83-1.28-2.83-2.83h0c0-1.56,1.28-2.83,2.83-2.83h4.25c1.56,0,2.83,1.28,2.83,2.83h0Z"/><text class="cls-10" transform="translate(115.08 72.36)"><tspan x="0" y="0">No</tspan></text><polyline class="cls-5" points="110.55 155.91 167.24 155.91 167.24 167.82"/><path d="m167.24,170.08c-.4-1.06-1.07-2.39-1.78-3.21l1.78.65,1.78-.65c-.71.82-1.39,2.14-1.78,3.21Z"/><path class="cls-1" d="m122.6,155.91c0,1.56-1.28,2.83-2.83,2.83h-4.25c-1.56,0-2.83-1.28-2.83-2.83h0c0-1.56,1.28-2.83,2.83-2.83h4.25c1.56,0,2.83,1.28,2.83,2.83h0Z"/><path class="cls-3" d="m122.6,155.91c0,1.56-1.28,2.83-2.83,2.83h-4.25c-1.56,0-2.83-1.28-2.83-2.83h0c0-1.56,1.28-2.83,2.83-2.83h4.25c1.56,0,2.83,1.28,2.83,2.83h0Z"/><text class="cls-10" transform="translate(115.08 157.4)"><tspan x="0" y="0">No</tspan></text><path class="cls-1" d="m87.17,90.83c0,1.56-1.28,2.83-2.83,2.83h-4.25c-1.56,0-2.83-1.28-2.83-2.83s1.28-2.83,2.83-2.83h4.25c1.56,0,2.83,1.28,2.83,2.83Z"/><path class="cls-3" d="m87.17,90.83c0,1.56-1.28,2.83-2.83,2.83h-4.25c-1.56,0-2.83-1.28-2.83-2.83s1.28-2.83,2.83-2.83h4.25c1.56,0,2.83,1.28,2.83,2.83Z"/><text class="cls-10" transform="translate(78.94 92.33)"><tspan class="cls-9" x="0" y="0">Y</tspan><tspan x="2.3" y="0">es</tspan></text><line class="cls-8" x1="167.24" y1="113.39" x2="167.24" y2="127.56"/><line class="cls-5" x1="167.24" y1="113.39" x2="167.24" y2="125.3"/><path d="m167.24,127.56c-.4-1.06-1.07-2.39-1.78-3.21l1.78.65,1.78-.65c-.71.82-1.39,2.14-1.78,3.21Z"/><line class="cls-8" x1="167.24" y1="198.43" x2="167.24" y2="212.6"/><line class="cls-5" x1="167.24" y1="198.43" x2="167.24" y2="210.34"/><path d="m167.24,212.6c-.4-1.06-1.07-2.39-1.78-3.21l1.78.65,1.78-.65c-.71.82-1.39,2.14-1.78,3.21Z"/><line class="cls-8" x1="82.2" y1="170.08" x2="82.2" y2="255.12"/><line class="cls-5" x1="82.2" y1="170.08" x2="82.2" y2="252.85"/><path d="m82.2,255.12c-.4-1.06-1.07-2.39-1.78-3.21l1.78.65,1.78-.65c-.71.82-1.39,2.14-1.78,3.21Z"/><line class="cls-8" x1="82.2" y1="283.46" x2="82.2" y2="297.64"/><line class="cls-5" x1="82.2" y1="283.46" x2="82.2" y2="295.37"/><path d="m82.2,297.64c-.4-1.06-1.07-2.39-1.78-3.21l1.78.65,1.78-.65c-.71.82-1.39,2.14-1.78,3.21Z"/><path class="cls-1" d="m87.17,175.75c0,1.56-1.28,2.83-2.83,2.83h-4.25c-1.56,0-2.83-1.28-2.83-2.83s1.28-2.83,2.83-2.83h4.25c1.56,0,2.83,1.28,2.83,2.83Z"/><path class="cls-3" d="m87.17,175.75c0,1.56-1.28,2.83-2.83,2.83h-4.25c-1.56,0-2.83-1.28-2.83-2.83s1.28-2.83,2.83-2.83h4.25c1.56,0,2.83,1.28,2.83,2.83Z"/><text class="cls-10" transform="translate(78.94 177.24)"><tspan class="cls-9" x="0" y="0">Y</tspan><tspan x="2.3" y="0">es</tspan></text></g><g id="Numbers"><circle class="cls-2" cx="48.19" cy="70.87" r="5.67"/><text class="cls-11" transform="translate(46.52 72.88)"><tspan x="0" y="0">1</tspan></text><circle class="cls-2" cx="48.19" cy="269.29" r="5.67"/><text class="cls-11" transform="translate(46.52 271.3)"><tspan x="0" y="0">5</tspan></text><circle class="cls-2" cx="48.19" cy="155.91" r="5.67"/><text class="cls-11" transform="translate(46.52 157.92)"><tspan x="0" y="0">3</tspan></text><circle class="cls-2" cx="133.23" cy="99.21" r="5.67"/><text class="cls-11" transform="translate(131.56 101.22)"><tspan x="0" y="0">2</tspan></text><circle class="cls-2" cx="133.23" cy="184.25" r="5.67"/><text class="cls-11" transform="translate(131.56 186.26)"><tspan x="0" y="0">4</tspan></text></g></svg>