<?xml version="1.0" encoding="UTF-8"?><svg xmlns="http://www.w3.org/2000/svg" viewBox="0 0 299.91 365.67"><defs><style>.cls-1,.cls-2{fill:#fff;}.cls-3,.cls-2,.cls-4,.cls-5,.cls-6,.cls-7{stroke-linecap:round;stroke-linejoin:round;}.cls-3,.cls-2,.cls-4,.cls-5,.cls-7{stroke:#000;}.cls-3,.cls-2,.cls-4,.cls-6,.cls-7{stroke-width:.5px;}.cls-3,.cls-5,.cls-6{fill:none;}.cls-4{fill:#c8e6c9;}.cls-5{stroke-width:.25px;}.cls-8{fill:#ffe0b2;}.cls-6{stroke:#e0e0e0;}.cls-9{letter-spacing:-.09em;}.cls-10{font-family:ArialMT, Arial;font-size:4px;}.cls-7{fill:#bbdefb;}.cls-11{letter-spacing:-.06em;}.cls-12{font-family:Arial-BoldMT, Arial;font-size:6px;font-weight:700;}</style></defs><g id="Bckground"><rect class="cls-1" width="299.91" height="365.67"/></g><g id="Frame"><rect class="cls-6" x="5.67" y="5.67" width="289.13" height="209.76"/><rect class="cls-6" x="5.67" y="215.43" width="289.13" height="144.57"/><text class="cls-12" transform="translate(8.5 13.65)"><tspan x="0" y="0">Remote support / Customer</tspan></text><text class="cls-12" transform="translate(8.5 223.42)"><tspan x="0" y="0">Engineer</tspan></text></g><g id="Blocks"><g><path class="cls-4" d="m82.2,56.69l28.35,14.17-28.35,14.17-28.35-14.17,28.35-14.17Z"/><text class="cls-10" transform="translate(70.76 69.9)"><tspan x="0" y="0">Matrix plate / </tspan><tspan x="-2.23" y="4.8">carriage clean?</tspan></text></g><g><path class="cls-4" d="m82.2,113.39l28.35,14.17-28.35,14.17-28.35-14.17,28.35-14.17Z"/><text class="cls-10" transform="translate(69.53 128.99)"><tspan x="0" y="0">Platen clean ?</tspan></text></g><g><path class="cls-4" d="m82.2,170.08l28.35,14.17-28.35,14.17-28.35-14.17,28.35-14.17Z"/><text class="cls-10" transform="translate(64.97 185.68)"><tspan x="0" y="0">Leaking ink tubes ?</tspan></text></g><g><path class="cls-4" d="m82.2,255.12l28.35,14.17-28.35,14.17-28.35-14.17,28.35-14.17Z"/><text class="cls-10" transform="translate(72.53 270.72)"><tspan x="0" y="0">04-</tspan><tspan class="cls-11" x="5.78" y="0">T</tspan><tspan x="8" y="0">-001 ?</tspan></text></g><g><path class="cls-4" d="m167.24,283.46l28.35,14.17-28.35,14.17-28.35-14.17,28.35-14.17Z"/><text class="cls-10" transform="translate(152.79 296.67)"><tspan x="0" y="0" xml:space="preserve">Check presence    </tspan><tspan x="8" y="4.8">of 79xx</tspan></text></g><g><rect class="cls-7" x="138.9" y="85.04" width="56.69" height="28.35"/><text class="cls-10" transform="translate(147.23 98.24)"><tspan x="0" y="0">Clean matrix plate and</tspan><tspan x="2.67" y="4.8">bottom PH-carriage</tspan></text></g><g><rect class="cls-7" x="138.9" y="141.73" width="56.69" height="28.35"/><text class="cls-10" transform="translate(156.01 157.34)"><tspan x="0" y="0">Clean platen</tspan></text></g><g><rect class="cls-7" x="138.9" y="226.77" width="56.69" height="28.35"/><text class="cls-10" transform="translate(147.34 242.38)"><tspan x="0" y="0">Reconnect connectors</tspan></text></g><g><rect class="cls-7" x="138.9" y="325.98" width="56.69" height="28.35"/><text class="cls-10" transform="translate(153.23 341.59)"><tspan x="0" y="0">Identify leakage</tspan></text></g><g><rect class="cls-7" x="223.94" y="325.98" width="56.69" height="28.35"/><text class="cls-10" transform="translate(230.83 339.19)"><tspan x="0" y="0">Check maintenance unit </tspan><tspan x="12.12" y="4.8">(07-6-009)</tspan></text></g><g><rect class="cls-7" x="53.86" y="325.98" width="56.69" height="28.35"/><text class="cls-10" transform="translate(61.64 341.59)"><tspan x="0" y="0">Replace mentioned PH</tspan></text></g><g><g><rect class="cls-8" x="53.86" y="28.35" width="56.69" height="14.17" rx="5.67" ry="5.67"/><rect class="cls-3" x="53.86" y="28.35" width="56.69" height="14.17" rx="5.67" ry="5.67"/></g><text class="cls-10" transform="translate(57.64 36.78)"><tspan x="0" y="0">Random darker dots/stripes</tspan></text></g></g><g id="Lines"><g><line class="cls-8" x1="82.2" y1="42.52" x2="82.2" y2="56.69"/><g><line class="cls-5" x1="82.2" y1="42.52" x2="82.2" y2="54.43"/><path d="m82.2,56.69c-.4-1.06-1.07-2.39-1.78-3.21l1.78.65,1.78-.65c-.71.82-1.39,2.14-1.78,3.21Z"/></g></g><g><line class="cls-8" x1="82.2" y1="85.04" x2="82.2" y2="113.39"/><g><line class="cls-5" x1="82.2" y1="85.04" x2="82.2" y2="111.12"/><path d="m82.2,113.39c-.4-1.06-1.07-2.39-1.78-3.21l1.78.65,1.78-.65c-.71.82-1.39,2.14-1.78,3.21Z"/></g></g><g><polyline class="cls-5" points="110.55 70.87 167.24 70.87 167.24 82.78"/><path d="m167.24,85.04c-.4-1.06-1.07-2.39-1.78-3.21l1.78.65,1.78-.65c-.71.82-1.39,2.14-1.78,3.21Z"/></g><g><g><path class="cls-1" d="m122.6,70.87c0,1.56-1.28,2.83-2.83,2.83h-4.25c-1.56,0-2.83-1.28-2.83-2.83h0c0-1.56,1.28-2.83,2.83-2.83h4.25c1.56,0,2.83,1.28,2.83,2.83h0Z"/><path class="cls-3" d="m122.6,70.87c0,1.56-1.28,2.83-2.83,2.83h-4.25c-1.56,0-2.83-1.28-2.83-2.83h0c0-1.56,1.28-2.83,2.83-2.83h4.25c1.56,0,2.83,1.28,2.83,2.83h0Z"/></g><text class="cls-10" transform="translate(115.08 72.36)"><tspan x="0" y="0">No</tspan></text></g><g><polyline class="cls-5" points="110.55 127.56 167.24 127.56 167.24 139.47"/><path d="m167.24,141.73c-.4-1.06-1.07-2.39-1.78-3.21l1.78.65,1.78-.65c-.71.82-1.39,2.14-1.78,3.21Z"/></g><g><g><path class="cls-1" d="m122.6,127.56c0,1.56-1.28,2.83-2.83,2.83h-4.25c-1.56,0-2.83-1.28-2.83-2.83h0c0-1.56,1.28-2.83,2.83-2.83h4.25c1.56,0,2.83,1.28,2.83,2.83h0Z"/><path class="cls-3" d="m122.6,127.56c0,1.56-1.28,2.83-2.83,2.83h-4.25c-1.56,0-2.83-1.28-2.83-2.83h0c0-1.56,1.28-2.83,2.83-2.83h4.25c1.56,0,2.83,1.28,2.83,2.83h0Z"/></g><text class="cls-10" transform="translate(115.08 129.05)"><tspan x="0" y="0">No</tspan></text></g><g><polyline class="cls-5" points="110.55 269.29 167.24 269.29 167.24 281.2"/><path d="m167.24,283.46c-.4-1.06-1.07-2.39-1.78-3.21l1.78.65,1.78-.65c-.71.82-1.39,2.14-1.78,3.21Z"/></g><g><g><path class="cls-1" d="m122.6,269.29c0,1.56-1.28,2.83-2.83,2.83h-4.25c-1.56,0-2.83-1.28-2.83-2.83h0c0-1.56,1.28-2.83,2.83-2.83h4.25c1.56,0,2.83,1.28,2.83,2.83h0Z"/><path class="cls-3" d="m122.6,269.29c0,1.56-1.28,2.83-2.83,2.83h-4.25c-1.56,0-2.83-1.28-2.83-2.83h0c0-1.56,1.28-2.83,2.83-2.83h4.25c1.56,0,2.83,1.28,2.83,2.83h0Z"/></g><text class="cls-10" transform="translate(115.08 270.78)"><tspan x="0" y="0">No</tspan></text></g><g><polyline class="cls-5" points="195.59 297.64 252.28 297.64 252.28 323.72"/><path d="m252.28,325.98c-.4-1.06-1.07-2.39-1.78-3.21l1.78.65,1.78-.65c-.71.82-1.39,2.14-1.78,3.21Z"/></g><g><g><path class="cls-1" d="m207.64,297.64c0,1.56-1.28,2.83-2.83,2.83h-4.25c-1.56,0-2.83-1.28-2.83-2.83h0c0-1.56,1.28-2.83,2.83-2.83h4.25c1.56,0,2.83,1.28,2.83,2.83h0Z"/><path class="cls-3" d="m207.64,297.64c0,1.56-1.28,2.83-2.83,2.83h-4.25c-1.56,0-2.83-1.28-2.83-2.83h0c0-1.56,1.28-2.83,2.83-2.83h4.25c1.56,0,2.83,1.28,2.83,2.83h0Z"/></g><text class="cls-10" transform="translate(200.12 299.13)"><tspan x="0" y="0">No</tspan></text></g><g><polyline class="cls-5" points="110.55 184.25 167.24 184.25 167.24 224.51"/><path d="m167.24,226.77c-.4-1.06-1.07-2.39-1.78-3.21l1.78.65,1.78-.65c-.71.82-1.39,2.14-1.78,3.21Z"/></g><g><g><path class="cls-1" d="m122.6,184.25c0,1.56-1.28,2.83-2.83,2.83h-4.25c-1.56,0-2.83-1.28-2.83-2.83h0c0-1.56,1.28-2.83,2.83-2.83h4.25c1.56,0,2.83,1.28,2.83,2.83h0Z"/><path class="cls-3" d="m122.6,184.25c0,1.56-1.28,2.83-2.83,2.83h-4.25c-1.56,0-2.83-1.28-2.83-2.83h0c0-1.56,1.28-2.83,2.83-2.83h4.25c1.56,0,2.83,1.28,2.83,2.83h0Z"/></g><text class="cls-10" transform="translate(115.08 185.74)"><tspan x="0" y="0">No</tspan></text></g><g><g><path class="cls-1" d="m87.17,90.71c0,1.56-1.28,2.83-2.83,2.83h-4.25c-1.56,0-2.83-1.28-2.83-2.83s1.28-2.83,2.83-2.83h4.25c1.56,0,2.83,1.28,2.83,2.83Z"/><path class="cls-3" d="m87.17,90.71c0,1.56-1.28,2.83-2.83,2.83h-4.25c-1.56,0-2.83-1.28-2.83-2.83s1.28-2.83,2.83-2.83h4.25c1.56,0,2.83,1.28,2.83,2.83Z"/></g><text class="cls-10" transform="translate(78.94 92.2)"><tspan class="cls-9" x="0" y="0">Y</tspan><tspan x="2.3" y="0">es</tspan></text></g><g><line class="cls-8" x1="82.2" y1="141.73" x2="82.2" y2="170.08"/><g><line class="cls-5" x1="82.2" y1="141.73" x2="82.2" y2="167.82"/><path d="m82.2,170.08c-.4-1.06-1.07-2.39-1.78-3.21l1.78.65,1.78-.65c-.71.82-1.39,2.14-1.78,3.21Z"/></g></g><g><g><path class="cls-1" d="m87.17,147.4c0,1.56-1.28,2.83-2.83,2.83h-4.25c-1.56,0-2.83-1.28-2.83-2.83s1.28-2.83,2.83-2.83h4.25c1.56,0,2.83,1.28,2.83,2.83Z"/><path class="cls-3" d="m87.17,147.4c0,1.56-1.28,2.83-2.83,2.83h-4.25c-1.56,0-2.83-1.28-2.83-2.83s1.28-2.83,2.83-2.83h4.25c1.56,0,2.83,1.28,2.83,2.83Z"/></g><text class="cls-10" transform="translate(78.94 148.89)"><tspan class="cls-9" x="0" y="0">Y</tspan><tspan x="2.3" y="0">es</tspan></text></g><g><line class="cls-8" x1="82.2" y1="198.43" x2="82.2" y2="255.12"/><g><line class="cls-5" x1="82.2" y1="198.43" x2="82.2" y2="252.85"/><path d="m82.2,255.12c-.4-1.06-1.07-2.39-1.78-3.21l1.78.65,1.78-.65c-.71.82-1.39,2.14-1.78,3.21Z"/></g></g><g><g><path class="cls-1" d="m87.17,204.09c0,1.56-1.28,2.83-2.83,2.83h-4.25c-1.56,0-2.83-1.28-2.83-2.83s1.28-2.83,2.83-2.83h4.25c1.56,0,2.83,1.28,2.83,2.83Z"/><path class="cls-3" d="m87.17,204.09c0,1.56-1.28,2.83-2.83,2.83h-4.25c-1.56,0-2.83-1.28-2.83-2.83s1.28-2.83,2.83-2.83h4.25c1.56,0,2.83,1.28,2.83,2.83Z"/></g><text class="cls-10" transform="translate(78.94 205.59)"><tspan class="cls-9" x="0" y="0">Y</tspan><tspan x="2.3" y="0">es</tspan></text></g><g><line class="cls-8" x1="82.2" y1="283.46" x2="82.2" y2="325.98"/><g><line class="cls-5" x1="82.2" y1="283.46" x2="82.2" y2="323.72"/><path d="m82.2,325.98c-.4-1.06-1.07-2.39-1.78-3.21l1.78.65,1.78-.65c-.71.82-1.39,2.14-1.78,3.21Z"/></g></g><g><g><path class="cls-1" d="m87.17,289.13c0,1.56-1.28,2.83-2.83,2.83h-4.25c-1.56,0-2.83-1.28-2.83-2.83s1.28-2.83,2.83-2.83h4.25c1.56,0,2.83,1.28,2.83,2.83Z"/><path class="cls-3" d="m87.17,289.13c0,1.56-1.28,2.83-2.83,2.83h-4.25c-1.56,0-2.83-1.28-2.83-2.83s1.28-2.83,2.83-2.83h4.25c1.56,0,2.83,1.28,2.83,2.83Z"/></g><text class="cls-10" transform="translate(78.94 290.63)"><tspan class="cls-9" x="0" y="0">Y</tspan><tspan x="2.3" y="0">es</tspan></text></g><g><line class="cls-8" x1="167.24" y1="311.81" x2="167.24" y2="325.98"/><g><line class="cls-5" x1="167.24" y1="311.81" x2="167.24" y2="323.72"/><path d="m167.24,325.98c-.4-1.06-1.07-2.39-1.78-3.21l1.78.65,1.78-.65c-.71.82-1.39,2.14-1.78,3.21Z"/></g></g><g><g><path class="cls-1" d="m172.2,317.48c0,1.56-1.28,2.83-2.83,2.83h-4.25c-1.56,0-2.83-1.28-2.83-2.83s1.28-2.83,2.83-2.83h4.25c1.56,0,2.83,1.28,2.83,2.83Z"/><path class="cls-3" d="m172.2,317.48c0,1.56-1.28,2.83-2.83,2.83h-4.25c-1.56,0-2.83-1.28-2.83-2.83s1.28-2.83,2.83-2.83h4.25c1.56,0,2.83,1.28,2.83,2.83Z"/></g><text class="cls-10" transform="translate(163.98 318.97)"><tspan class="cls-9" x="0" y="0">Y</tspan><tspan x="2.3" y="0">es</tspan></text></g></g><g id="Numbers"><g><circle class="cls-2" cx="48.19" cy="70.87" r="5.67"/><text class="cls-12" transform="translate(46.52 72.88)"><tspan x="0" y="0">1</tspan></text></g><g><circle class="cls-2" cx="48.19" cy="127.56" r="5.67"/><text class="cls-12" transform="translate(46.52 129.57)"><tspan x="0" y="0">3</tspan></text></g><g><circle class="cls-2" cx="133.23" cy="99.21" r="5.67"/><text class="cls-12" transform="translate(131.56 101.22)"><tspan x="0" y="0">2</tspan></text></g><g><circle class="cls-2" cx="133.23" cy="155.91" r="5.67"/><text class="cls-12" transform="translate(131.56 157.92)"><tspan x="0" y="0">4</tspan></text></g><g><circle class="cls-2" cx="48.19" cy="184.25" r="5.67"/><text class="cls-12" transform="translate(46.52 186.26)"><tspan x="0" y="0">5</tspan></text></g><g><circle class="cls-2" cx="48.19" cy="269.29" r="5.67"/><text class="cls-12" transform="translate(46.52 271.3)"><tspan x="0" y="0">7</tspan></text></g><g><circle class="cls-2" cx="133.23" cy="297.64" r="5.67"/><text class="cls-12" transform="translate(131.56 299.65)"><tspan x="0" y="0">9</tspan></text></g><g><circle class="cls-2" cx="218.27" cy="340.16" r="5.67"/><text class="cls-12" transform="translate(215.1 342.17)"><tspan class="cls-11" x="0" y="0">1</tspan><tspan x="3.01" y="0">1</tspan></text></g><g><circle class="cls-2" cx="133.23" cy="340.16" r="5.67"/><text class="cls-12" transform="translate(129.89 342.17)"><tspan x="0" y="0">10</tspan></text></g><g><circle class="cls-2" cx="48.19" cy="340.16" r="5.67"/><text class="cls-12" transform="translate(46.52 342.17)"><tspan x="0" y="0">8</tspan></text></g><g><circle class="cls-2" cx="133.23" cy="240.94" r="5.67"/><text class="cls-12" transform="translate(131.56 242.96)"><tspan x="0" y="0">6</tspan></text></g></g></svg>