<?xml version="1.0" encoding="UTF-8"?><svg xmlns="http://www.w3.org/2000/svg" viewBox="0 0 408.19 521.57"><defs><style>.cls-1,.cls-2{fill:#fff;}.cls-3,.cls-2,.cls-4,.cls-5,.cls-6,.cls-7{stroke-linecap:round;stroke-linejoin:round;}.cls-3,.cls-2,.cls-4,.cls-5,.cls-7{stroke:#000;}.cls-3,.cls-2,.cls-4,.cls-6,.cls-7{stroke-width:.5px;}.cls-3,.cls-5,.cls-6{fill:none;}.cls-4{fill:#c8e6c9;}.cls-5{stroke-width:.25px;}.cls-8{fill:#ffe0b2;}.cls-6{stroke:#e0e0e0;}.cls-9{letter-spacing:-.09em;}.cls-10{font-family:ArialMT, Arial;font-size:4px;}.cls-7{fill:#bbdefb;}.cls-11{letter-spacing:-.06em;}.cls-12{font-family:Arial-BoldMT, Arial;font-size:6px;font-weight:700;}</style></defs><g id="Bckground"><rect class="cls-1" width="408.19" height="521.57"/></g><g id="Frame"><rect class="cls-6" x="5.67" y="5.67" width="396.85" height="249.45"/><rect class="cls-6" x="5.67" y="255.12" width="396.85" height="260.79"/><text class="cls-12" transform="translate(8.5 13.65)"><tspan x="0" y="0">Remote support / Customer</tspan></text><text class="cls-12" transform="translate(8.5 261.68)"><tspan x="0" y="0">Engineer</tspan></text></g><g id="Blocks"><path class="cls-4" d="m82.2,56.69l28.35,14.17-28.35,14.17-28.35-14.17,28.35-14.17Z"/><text class="cls-10" transform="translate(71.87 72.3)"><tspan x="0" y="0">Media flat ?</tspan></text><path class="cls-4" d="m82.2,99.21l28.35,14.17-28.35,14.17-28.35-14.17,28.35-14.17Z"/><text class="cls-10" transform="translate(69.53 114.82)"><tspan x="0" y="0">Platen clean ?</tspan></text><path class="cls-4" d="m82.2,155.91l28.35,14.17-28.35,14.17-28.35-14.17,28.35-14.17Z"/><text class="cls-10" transform="translate(68.2 171.51)"><tspan x="0" y="0">Profile correct ?</tspan></text><path class="cls-4" d="m82.2,212.6l28.35,14.17-28.35,14.17-28.35-14.17,28.35-14.17Z"/><text class="cls-10" transform="translate(67.42 225.8)"><tspan x="0" y="0">Static / magnetic </tspan><tspan x="7.67" y="4.8">media ?</tspan></text><path class="cls-4" d="m167.24,269.29l28.35,14.17-28.35,14.17-28.35-14.17,28.35-14.17Z"/><text class="cls-10" transform="translate(154.68 284.9)"><tspan x="0" y="0">Engine level ?</tspan></text><rect class="cls-7" x="223.94" y="184.25" width="56.69" height="28.35"/><text class="cls-10" transform="translate(240.39 199.86)"><tspan x="0" y="0">Use other roll</tspan></text><rect class="cls-7" x="138.9" y="127.56" width="56.69" height="28.35"/><path d="m153.32,140.76v-2.86h1.08c.19,0,.34,0,.44.03.14.02.26.07.35.13s.17.16.23.28.09.25.09.39c0,.24-.08.45-.23.62s-.44.25-.84.25h-.73v1.16h-.38Zm.38-1.5h.74c.24,0,.42-.05.52-.14s.15-.22.15-.38c0-.12-.03-.22-.09-.31s-.14-.14-.24-.17c-.06-.02-.18-.03-.35-.03h-.73v1.02Z"/><path d="m157.37,140.1l.36.04c-.06.21-.16.38-.32.49s-.35.18-.59.18c-.3,0-.54-.09-.72-.28s-.27-.45-.27-.79.09-.62.27-.81.41-.29.7-.29.5.09.68.28.26.45.26.8c0,.02,0,.05,0,.09h-1.55c.01.23.08.4.19.52s.26.18.43.18c.13,0,.24-.03.33-.1s.16-.18.22-.32Zm-1.15-.57h1.16c-.02-.17-.06-.31-.13-.39-.11-.14-.26-.2-.44-.2-.16,0-.3.05-.41.16s-.17.25-.18.43Z"/><path d="m158.17,140.76v-2.07h.32v.31c.08-.15.16-.24.22-.29s.14-.07.23-.07c.12,0,.24.04.36.11l-.12.33c-.09-.05-.17-.08-.26-.08-.08,0-.15.02-.21.07s-.1.11-.13.19c-.04.12-.06.26-.06.41v1.09h-.35Z"/><path d="m159.59,140.76v-1.8h-.31v-.27h.31v-.22c0-.14.01-.24.04-.31.03-.09.09-.17.18-.22s.2-.08.36-.08c.1,0,.21.01.33.04l-.05.31c-.07-.01-.14-.02-.21-.02-.11,0-.18.02-.23.07s-.07.13-.07.26v.19h.4v.27h-.4v1.8h-.35Z"/><path d="m160.48,139.73c0-.38.11-.67.32-.85.18-.15.4-.23.65-.23.29,0,.52.09.7.28s.27.45.27.77c0,.27-.04.48-.12.63s-.2.27-.35.36-.32.13-.5.13c-.29,0-.52-.09-.7-.28s-.27-.45-.27-.8Zm.36,0c0,.27.06.46.17.6s.26.2.44.2.32-.07.44-.2.17-.33.17-.61c0-.26-.06-.45-.17-.58s-.26-.2-.43-.2-.32.07-.44.2-.17.33-.17.6Z"/><path d="m162.84,140.76v-2.07h.32v.31c.08-.15.16-.24.22-.29s.14-.07.23-.07c.12,0,.24.04.36.11l-.12.33c-.09-.05-.17-.08-.26-.08-.08,0-.15.02-.21.07s-.1.11-.13.19c-.04.12-.06.26-.06.41v1.09h-.35Z"/><path d="m164.17,140.76v-2.07h.31v.29c.06-.1.15-.18.26-.25s.23-.09.37-.09c.15,0,.28.03.38.1s.17.15.21.27c.16-.24.38-.36.64-.36.21,0,.36.06.47.17s.17.29.17.53v1.42h-.35v-1.31c0-.14-.01-.24-.03-.3s-.06-.11-.12-.15-.13-.06-.21-.06c-.15,0-.27.05-.36.15s-.14.25-.14.47v1.21h-.35v-1.35c0-.16-.03-.27-.09-.35s-.15-.12-.28-.12c-.1,0-.19.03-.27.08s-.15.13-.18.23-.06.25-.06.43v1.08h-.35Z"/><path d="m168.62,140.76v-2.07h.31v.29c.06-.1.15-.18.26-.25s.23-.09.37-.09c.15,0,.28.03.38.1s.17.15.21.27c.16-.24.38-.36.64-.36.21,0,.36.06.47.17s.17.29.17.53v1.42h-.35v-1.31c0-.14-.01-.24-.03-.3s-.06-.11-.12-.15-.13-.06-.21-.06c-.15,0-.27.05-.36.15s-.14.25-.14.47v1.21h-.35v-1.35c0-.16-.03-.27-.09-.35s-.15-.12-.28-.12c-.1,0-.19.03-.27.08s-.15.13-.18.23-.06.25-.06.43v1.08h-.35Z"/><path d="m173.3,140.51c-.13.11-.26.19-.38.23s-.25.07-.39.07c-.23,0-.4-.06-.53-.17s-.18-.25-.18-.43c0-.1.02-.19.07-.28s.11-.15.18-.2.16-.09.25-.12c.07-.02.17-.04.31-.05.28-.03.49-.07.63-.12,0-.05,0-.08,0-.09,0-.14-.03-.24-.1-.3-.09-.08-.22-.12-.4-.12-.17,0-.29.03-.37.09s-.14.16-.17.31l-.34-.05c.03-.15.08-.27.15-.36s.18-.16.31-.21.29-.07.47-.07.32.02.43.06.19.09.24.16.09.14.11.24c.01.06.02.17.02.32v.47c0,.33,0,.53.02.62s.04.17.09.25h-.37c-.04-.07-.06-.16-.07-.26Zm-.03-.79c-.13.05-.32.1-.57.13-.14.02-.25.04-.31.07s-.11.06-.14.11-.05.11-.05.17c0,.09.04.17.11.23s.17.09.31.09.26-.03.36-.09.18-.14.23-.24c.04-.08.06-.2.06-.35v-.13Z"/><path d="m174.17,140.76v-2.07h.32v.29c.15-.23.37-.34.66-.34.12,0,.24.02.34.07s.18.1.24.18.09.16.11.26c.01.07.02.18.02.34v1.28h-.35v-1.26c0-.14-.01-.25-.04-.32s-.08-.13-.15-.17-.15-.06-.25-.06c-.15,0-.28.05-.39.14s-.16.28-.16.54v1.13h-.35Z"/><path d="m177.76,140.76v-.3c-.16.23-.38.35-.66.35-.12,0-.24-.02-.34-.07s-.19-.11-.24-.18-.09-.16-.11-.26c-.01-.07-.02-.18-.02-.33v-1.29h.35v1.15c0,.18,0,.31.02.37.02.09.07.17.14.22s.16.08.27.08.2-.03.3-.08.16-.13.2-.22.06-.23.06-.41v-1.11h.35v2.07h-.31Z"/><path d="m179.98,140.51c-.13.11-.26.19-.38.23s-.25.07-.39.07c-.23,0-.4-.06-.53-.17s-.18-.25-.18-.43c0-.1.02-.19.07-.28s.11-.15.18-.2.16-.09.25-.12c.07-.02.17-.04.31-.05.28-.03.49-.07.63-.12,0-.05,0-.08,0-.09,0-.14-.03-.24-.1-.3-.09-.08-.22-.12-.4-.12-.17,0-.29.03-.37.09s-.14.16-.17.31l-.34-.05c.03-.15.08-.27.15-.36s.18-.16.31-.21.29-.07.47-.07.32.02.43.06.19.09.24.16.09.14.11.24c.01.06.02.17.02.32v.47c0,.33,0,.53.02.62s.04.17.09.25h-.37c-.04-.07-.06-.16-.07-.26Zm-.03-.79c-.13.05-.32.1-.57.13-.14.02-.25.04-.31.07s-.11.06-.14.11-.05.11-.05.17c0,.09.04.17.11.23s.17.09.31.09.26-.03.36-.09.18-.14.23-.24c.04-.08.06-.2.06-.35v-.13Z"/><path d="m180.84,140.76v-2.86h.35v2.86h-.35Z"/><path d="m156.06,145.56v-2.07h.31v.29c.06-.1.15-.18.26-.25s.23-.09.37-.09c.15,0,.28.03.38.1s.17.15.21.27c.16-.24.38-.36.64-.36.21,0,.36.06.47.17s.17.29.17.53v1.42h-.35v-1.31c0-.14-.01-.24-.03-.3s-.06-.11-.12-.15-.13-.06-.21-.06c-.15,0-.27.05-.36.15s-.14.25-.14.47v1.21h-.35v-1.35c0-.16-.03-.27-.09-.35s-.15-.12-.28-.12c-.1,0-.19.03-.27.08s-.15.13-.18.23-.06.25-.06.43v1.08h-.35Z"/><path d="m160.74,145.31c-.13.11-.26.19-.38.23s-.25.07-.39.07c-.23,0-.4-.06-.53-.17s-.18-.25-.18-.43c0-.1.02-.19.07-.28s.11-.15.18-.2.16-.09.25-.12c.07-.02.17-.04.31-.05.28-.03.49-.07.63-.12,0-.05,0-.08,0-.09,0-.14-.03-.24-.1-.3-.09-.08-.22-.12-.4-.12-.17,0-.29.03-.37.09s-.14.16-.17.31l-.34-.05c.03-.15.08-.27.15-.36s.18-.16.31-.21.29-.07.47-.07.32.02.43.06.19.09.24.16.09.14.11.24c.01.06.02.17.02.32v.47c0,.33,0,.53.02.62s.04.17.09.25h-.37c-.04-.07-.06-.16-.07-.26Zm-.03-.79c-.13.05-.32.1-.57.13-.14.02-.25.04-.31.07s-.11.06-.14.11-.05.11-.05.17c0,.09.04.17.11.23s.17.09.31.09.26-.03.36-.09.18-.14.23-.24c.04-.08.06-.2.06-.35v-.13Z"/><path d="m161.61,143.11v-.4h.35v.4h-.35Zm0,2.46v-2.07h.35v2.07h-.35Z"/><path d="m162.5,145.56v-2.07h.32v.29c.15-.23.37-.34.66-.34.12,0,.24.02.34.07s.18.1.24.18.09.16.11.26c.01.07.02.18.02.34v1.28h-.35v-1.26c0-.14-.01-.25-.04-.32s-.08-.13-.15-.17-.15-.06-.25-.06c-.15,0-.28.05-.39.14s-.16.28-.16.54v1.13h-.35Z"/><path d="m165.49,145.25l.05.31c-.1.02-.19.03-.27.03-.13,0-.23-.02-.3-.06s-.12-.09-.15-.16-.04-.2-.04-.42v-1.19h-.26v-.27h.26v-.51l.35-.21v.72h.35v.27h-.35v1.21c0,.1,0,.17.02.19s.03.05.06.07.07.03.12.03c.04,0,.09,0,.15-.01Z"/><path d="m167.26,144.9l.36.04c-.06.21-.16.38-.32.49s-.35.18-.59.18c-.3,0-.54-.09-.72-.28s-.27-.45-.27-.79.09-.62.27-.81.41-.29.7-.29.5.09.68.28.26.45.26.8c0,.02,0,.05,0,.09h-1.55c.01.23.08.4.19.52s.26.18.43.18c.13,0,.24-.03.33-.1s.16-.18.22-.32Zm-1.15-.57h1.16c-.02-.17-.06-.31-.13-.39-.11-.14-.26-.2-.44-.2-.16,0-.3.05-.41.16s-.17.25-.18.43Z"/><path d="m168.06,145.56v-2.07h.32v.29c.15-.23.37-.34.66-.34.12,0,.24.02.34.07s.18.1.24.18.09.16.11.26c.01.07.02.18.02.34v1.28h-.35v-1.26c0-.14-.01-.25-.04-.32s-.08-.13-.15-.17-.15-.06-.25-.06c-.15,0-.28.05-.39.14s-.16.28-.16.54v1.13h-.35Z"/><path d="m171.64,145.31c-.13.11-.26.19-.38.23s-.25.07-.39.07c-.23,0-.4-.06-.53-.17s-.18-.25-.18-.43c0-.1.02-.19.07-.28s.11-.15.18-.2.16-.09.25-.12c.07-.02.17-.04.31-.05.28-.03.49-.07.63-.12,0-.05,0-.08,0-.09,0-.14-.03-.24-.1-.3-.09-.08-.22-.12-.4-.12-.17,0-.29.03-.37.09s-.14.16-.17.31l-.34-.05c.03-.15.08-.27.15-.36s.18-.16.31-.21.29-.07.47-.07.32.02.43.06.19.09.24.16.09.14.11.24c.01.06.02.17.02.32v.47c0,.33,0,.53.02.62s.04.17.09.25h-.37c-.04-.07-.06-.16-.07-.26Zm-.03-.79c-.13.05-.32.1-.57.13-.14.02-.25.04-.31.07s-.11.06-.14.11-.05.11-.05.17c0,.09.04.17.11.23s.17.09.31.09.26-.03.36-.09.18-.14.23-.24c.04-.08.06-.2.06-.35v-.13Z"/><path d="m172.51,145.56v-2.07h.32v.29c.15-.23.37-.34.66-.34.12,0,.24.02.34.07s.18.1.24.18.09.16.11.26c.01.07.02.18.02.34v1.28h-.35v-1.26c0-.14-.01-.25-.04-.32s-.08-.13-.15-.17-.15-.06-.25-.06c-.15,0-.28.05-.39.14s-.16.28-.16.54v1.13h-.35Z"/><path d="m176.09,144.8l.35.04c-.04.24-.13.42-.29.56s-.35.2-.57.2c-.28,0-.51-.09-.68-.28s-.26-.45-.26-.8c0-.22.04-.42.11-.59s.19-.29.34-.38.32-.13.5-.13c.23,0,.41.06.55.17s.23.28.28.49l-.34.05c-.03-.14-.09-.24-.17-.31s-.18-.11-.3-.11c-.18,0-.32.06-.43.19s-.17.33-.17.6.05.48.16.61.25.19.42.19c.14,0,.25-.04.35-.13s.15-.21.18-.39Z"/><path d="m178.15,144.9l.36.04c-.06.21-.16.38-.32.49s-.35.18-.59.18c-.3,0-.54-.09-.72-.28s-.27-.45-.27-.79.09-.62.27-.81.41-.29.7-.29.5.09.68.28.26.45.26.8c0,.02,0,.05,0,.09h-1.55c.01.23.08.4.19.52s.26.18.43.18c.13,0,.24-.03.33-.1s.16-.18.22-.32Zm-1.15-.57h1.16c-.02-.17-.06-.31-.13-.39-.11-.14-.26-.2-.44-.2-.16,0-.3.05-.41.16s-.17.25-.18.43Z"/><rect class="cls-7" x="138.9" y="184.25" width="56.69" height="28.35"/><text class="cls-10" transform="translate(155.68 199.86)"><tspan x="0" y="0">Adjust profile</tspan></text><path class="cls-4" d="m167.24,325.98l28.35,14.17-28.35,14.17-28.35-14.17,28.35-14.17Z"/><text class="cls-10" transform="translate(151.9 341.59)"><tspan x="0" y="0">Carriage height ?</tspan></text><rect class="cls-7" x="223.94" y="297.64" width="56.69" height="28.35"/><text class="cls-10" transform="translate(241.5 313.24)"><tspan x="0" y="0">Level platen</tspan></text><rect class="cls-7" x="223.94" y="354.33" width="56.69" height="28.35"/><text class="cls-10" transform="translate(240.72 369.94)"><tspan x="0" y="0">Adjust height</tspan></text><path class="cls-4" d="m167.24,382.68l28.35,14.17-28.35,14.17-28.35-14.17,28.35-14.17Z"/><path d="m155.81,395.88l1.11-1.49-.98-1.37h.45l.52.73c.11.15.19.27.23.35.06-.1.14-.21.23-.33l.58-.76h.41l-1.01,1.35,1.08,1.51h-.47l-.72-1.02c-.04-.06-.08-.12-.12-.19-.06.1-.11.18-.14.21l-.72,1h-.46Z"/><path d="m158.59,395.02v-.35h1.08v.35h-1.08Z"/><path d="m160.83,395.57l.05.31c-.1.02-.19.03-.27.03-.13,0-.23-.02-.3-.06-.07-.04-.12-.09-.15-.16-.03-.07-.04-.2-.04-.42v-1.19h-.26v-.27h.26v-.51l.35-.21v.72h.35v.27h-.35v1.21c0,.1,0,.17.02.19.01.03.03.05.06.07.03.02.07.03.12.03.04,0,.09,0,.15-.01Z"/><path d="m161.17,395.88v-2.07h.32v.31c.08-.15.16-.24.22-.29s.14-.07.23-.07c.12,0,.24.04.36.11l-.12.33c-.09-.05-.17-.08-.26-.08-.08,0-.15.02-.21.07-.06.05-.1.11-.13.19-.04.12-.06.26-.06.41v1.09h-.35Z"/><path d="m163.86,395.63c-.13.11-.26.19-.38.23-.12.05-.25.07-.39.07-.23,0-.4-.06-.53-.17s-.18-.25-.18-.43c0-.1.02-.19.07-.28s.11-.15.18-.2.16-.09.25-.12c.07-.02.17-.04.31-.05.28-.03.49-.07.63-.12,0-.05,0-.08,0-.09,0-.14-.03-.24-.1-.3-.09-.08-.22-.12-.4-.12-.17,0-.29.03-.37.09-.08.06-.14.16-.17.31l-.34-.05c.03-.15.08-.27.15-.36.07-.09.18-.16.31-.21s.29-.07.47-.07.32.02.43.06c.11.04.19.09.24.16.05.06.09.14.11.24.01.06.02.17.02.32v.47c0,.33,0,.53.02.62.02.09.04.17.09.25h-.37c-.04-.07-.06-.16-.07-.26Zm-.03-.79c-.13.05-.32.1-.57.13-.14.02-.25.04-.31.07-.06.03-.11.06-.14.11-.03.05-.05.11-.05.17,0,.09.04.17.11.23s.17.09.31.09.26-.03.36-.09c.11-.06.18-.14.23-.24.04-.08.06-.2.06-.35v-.13Z"/><path d="m164.73,395.88v-2.07h.32v.29c.15-.23.37-.34.66-.34.12,0,.24.02.34.07s.18.1.24.18c.05.07.09.16.11.26.01.07.02.18.02.34v1.28h-.35v-1.26c0-.14-.01-.25-.04-.32-.03-.07-.08-.13-.15-.17-.07-.04-.15-.06-.25-.06-.15,0-.28.05-.39.14-.11.1-.16.28-.16.54v1.13h-.35Z"/><path d="m168.06,395.88v-2.07h.32v.31c.08-.15.16-.24.22-.29s.14-.07.23-.07c.12,0,.24.04.36.11l-.12.33c-.09-.05-.17-.08-.26-.08-.08,0-.15.02-.21.07-.06.05-.1.11-.13.19-.04.12-.06.26-.06.41v1.09h-.35Z"/><path d="m169.27,394.84c0-.38.11-.67.32-.85.18-.15.4-.23.65-.23.29,0,.52.09.7.28.18.19.27.45.27.77,0,.27-.04.48-.12.63-.08.15-.2.27-.35.36-.15.08-.32.13-.5.13-.29,0-.52-.09-.7-.28-.18-.19-.27-.45-.27-.8Zm.36,0c0,.27.06.46.17.6.12.13.26.2.44.2s.32-.07.44-.2.17-.33.17-.61c0-.26-.06-.45-.17-.58-.12-.13-.26-.2-.43-.2s-.32.07-.44.2c-.12.13-.17.33-.17.6Z"/><path d="m171.61,395.88v-2.86h.35v2.86h-.35Z"/><path d="m172.5,395.88v-2.86h.35v2.86h-.35Z"/><path d="m174.82,395.21l.36.04c-.06.21-.16.38-.32.49s-.35.18-.59.18c-.3,0-.54-.09-.72-.28-.18-.19-.27-.45-.27-.79s.09-.62.27-.81c.18-.19.41-.29.7-.29s.5.09.68.28c.18.19.26.46.26.8,0,.02,0,.05,0,.09h-1.55c.01.23.08.4.19.52s.26.18.43.18c.13,0,.24-.03.33-.1.09-.07.16-.18.22-.32Zm-1.15-.57h1.16c-.02-.17-.06-.3-.13-.39-.11-.13-.26-.2-.44-.2-.16,0-.3.05-.41.16-.11.11-.17.25-.18.43Z"/><path d="m175.62,395.88v-2.07h.32v.31c.08-.15.16-.24.22-.29s.14-.07.23-.07c.12,0,.24.04.36.11l-.12.33c-.09-.05-.17-.08-.26-.08-.08,0-.15.02-.21.07-.06.05-.1.11-.13.19-.04.12-.06.26-.06.41v1.09h-.35Z"/><path d="m176.81,395.26l.35-.05c.02.14.07.25.16.32s.21.11.37.11.28-.03.36-.1c.08-.07.12-.14.12-.23,0-.08-.03-.14-.1-.19-.05-.03-.17-.07-.36-.12-.26-.06-.44-.12-.54-.17-.1-.05-.18-.11-.23-.2s-.08-.18-.08-.28c0-.09.02-.18.06-.26.04-.08.1-.14.17-.2.05-.04.13-.07.22-.1.09-.03.2-.04.3-.04.16,0,.31.02.43.07s.21.11.27.19.1.19.12.32l-.34.05c-.02-.11-.06-.19-.14-.25-.07-.06-.18-.09-.32-.09-.16,0-.28.03-.35.08-.07.05-.1.12-.1.19,0,.05.01.09.04.12.03.04.07.07.13.09.04.01.14.04.31.09.25.07.42.12.52.16.1.04.18.1.23.18.06.08.08.18.08.3s-.03.23-.1.33-.17.18-.3.24-.27.08-.44.08c-.27,0-.48-.06-.62-.17-.14-.11-.23-.28-.27-.5Z"/><path d="m162.41,399.92l.35.04c-.04.24-.13.42-.29.56s-.35.2-.57.2c-.28,0-.51-.09-.68-.28s-.26-.45-.26-.8c0-.22.04-.42.11-.59s.19-.29.34-.38.32-.13.5-.13c.23,0,.41.06.55.17.14.11.23.28.28.49l-.34.05c-.03-.14-.09-.24-.17-.31s-.18-.11-.3-.11c-.18,0-.32.06-.43.19s-.17.33-.17.6.05.48.16.61c.11.13.25.19.42.19.14,0,.25-.04.35-.13.09-.08.15-.21.18-.39Z"/><path d="m163.05,400.68v-2.86h.35v2.86h-.35Z"/><path d="m165.37,400.01l.36.04c-.06.21-.16.38-.32.49s-.35.18-.59.18c-.3,0-.54-.09-.72-.28-.18-.19-.27-.45-.27-.79s.09-.62.27-.81c.18-.19.41-.29.7-.29s.5.09.68.28c.18.19.26.45.26.8,0,.02,0,.05,0,.09h-1.55c.01.23.08.4.19.52s.26.18.43.18c.13,0,.24-.03.33-.1.09-.07.16-.18.22-.32Zm-1.15-.57h1.16c-.02-.17-.06-.31-.13-.39-.11-.14-.26-.2-.44-.2-.16,0-.3.05-.41.16-.11.11-.17.25-.18.43Z"/><path d="m167.53,400.43c-.13.11-.26.19-.38.23-.12.04-.25.07-.39.07-.23,0-.4-.06-.53-.17s-.18-.25-.18-.43c0-.1.02-.19.07-.28s.11-.15.18-.2.16-.09.25-.12c.07-.02.17-.04.31-.05.28-.03.49-.07.63-.12,0-.05,0-.08,0-.09,0-.14-.03-.24-.1-.3-.09-.08-.22-.12-.4-.12-.17,0-.29.03-.37.09-.08.06-.14.16-.17.31l-.34-.05c.03-.15.08-.27.15-.36.07-.09.18-.16.31-.21s.29-.07.47-.07.32.02.43.06c.11.04.19.09.24.16.05.06.09.14.11.24.01.06.02.17.02.32v.47c0,.33,0,.53.02.62.02.09.04.17.09.25h-.37c-.04-.07-.06-.16-.07-.26Zm-.03-.79c-.13.05-.32.1-.57.13-.14.02-.25.04-.31.07-.06.03-.11.06-.14.11-.03.05-.05.11-.05.17,0,.09.04.17.11.23s.17.09.31.09.26-.03.36-.09c.11-.06.18-.14.23-.24.04-.08.06-.2.06-.35v-.13Z"/><path d="m168.4,400.68v-2.07h.32v.29c.15-.23.37-.34.66-.34.12,0,.24.02.34.07s.18.1.24.18c.05.07.09.16.11.26.01.06.02.18.02.34v1.28h-.35v-1.26c0-.14-.01-.25-.04-.32-.03-.07-.08-.13-.15-.17-.07-.04-.15-.06-.25-.06-.15,0-.28.05-.39.14-.11.09-.16.28-.16.54v1.13h-.35Z"/><path d="m172.39,399.98s0-.08,0-.11c0-.14.02-.26.06-.36.03-.08.07-.15.14-.23.05-.06.13-.14.25-.25s.2-.19.24-.26c.04-.06.05-.13.05-.21,0-.14-.05-.26-.16-.36s-.24-.16-.39-.16-.27.05-.38.14-.17.24-.2.44l-.36-.04c.03-.27.13-.47.29-.61.16-.14.37-.21.64-.21.28,0,.5.08.67.23s.25.34.25.55c0,.12-.03.24-.09.35s-.17.23-.34.38c-.11.1-.19.18-.22.22-.04.05-.06.1-.08.17s-.03.16-.03.3h-.34Zm-.02.71v-.4h.4v.4h-.4Z"/><rect class="cls-7" x="223.94" y="411.02" width="56.69" height="28.35"/><text class="cls-10" transform="translate(235.05 426.63)"><tspan x="0" y="0">Clean X-tran rollers</tspan></text><path class="cls-4" d="m167.24,439.37l28.35,14.17-28.35,14.17-28.35-14.17,28.35-14.17Z"/><path d="m155.77,452.58v-2.86h.99c.22,0,.39.01.51.04.16.04.3.11.42.21.15.13.26.29.34.49.07.2.11.42.11.68,0,.22-.03.41-.08.58s-.12.31-.2.42c-.08.11-.17.2-.26.26-.09.06-.21.11-.34.14-.13.03-.29.05-.46.05h-1.03Zm.38-.34h.61c.19,0,.34-.02.44-.05s.19-.08.26-.15c.09-.09.16-.21.21-.36.05-.15.08-.34.08-.55,0-.3-.05-.53-.15-.69-.1-.16-.22-.27-.36-.32-.1-.04-.27-.06-.49-.06h-.6v2.19Z"/><path d="m160.03,451.91l.36.04c-.06.21-.16.38-.32.49s-.35.18-.59.18c-.3,0-.54-.09-.72-.28-.18-.19-.27-.45-.27-.79s.09-.62.27-.81c.18-.19.41-.29.7-.29s.5.09.68.28c.18.19.26.45.26.8,0,.02,0,.05,0,.09h-1.55c.01.23.08.4.19.52s.26.18.43.18c.13,0,.24-.03.33-.1.09-.07.16-.18.22-.32Zm-1.15-.57h1.16c-.02-.17-.06-.31-.13-.39-.11-.14-.26-.2-.44-.2-.16,0-.3.05-.41.16-.11.11-.17.25-.18.43Z"/><path d="m160.92,452.58v-1.8h-.31v-.27h.31v-.22c0-.14.01-.24.04-.31.03-.09.09-.17.18-.22s.2-.08.36-.08c.1,0,.21.01.33.04l-.05.31c-.07-.01-.14-.02-.21-.02-.11,0-.18.02-.23.07-.04.04-.07.13-.07.26v.19h.4v.27h-.4v1.8h-.35Z"/><path d="m163.37,451.91l.36.04c-.06.21-.16.38-.32.49s-.35.18-.59.18c-.3,0-.54-.09-.72-.28-.18-.19-.27-.45-.27-.79s.09-.62.27-.81c.18-.19.41-.29.7-.29s.5.09.68.28c.18.19.26.45.26.8,0,.02,0,.05,0,.09h-1.55c.01.23.08.4.19.52s.26.18.43.18c.13,0,.24-.03.33-.1.09-.07.16-.18.22-.32Zm-1.15-.57h1.16c-.02-.17-.06-.31-.13-.39-.11-.14-.26-.2-.44-.2-.16,0-.3.05-.41.16-.11.11-.17.25-.18.43Z"/><path d="m165.53,451.82l.35.04c-.04.24-.13.42-.29.56s-.35.2-.57.2c-.28,0-.51-.09-.68-.28s-.26-.45-.26-.8c0-.22.04-.42.11-.59s.19-.29.34-.38.32-.13.5-.13c.23,0,.41.06.55.17.14.11.23.28.28.49l-.34.05c-.03-.14-.09-.24-.17-.31s-.18-.11-.3-.11c-.18,0-.32.06-.43.19s-.17.33-.17.6.05.48.16.61c.11.13.25.19.42.19.14,0,.25-.04.35-.13.09-.08.15-.21.18-.39Z"/><path d="m166.94,452.26l.05.31c-.1.02-.19.03-.27.03-.13,0-.23-.02-.3-.06-.07-.04-.12-.09-.15-.16-.03-.07-.04-.2-.04-.42v-1.19h-.26v-.27h.26v-.51l.35-.21v.72h.35v.27h-.35v1.21c0,.1,0,.16.02.19.01.03.03.05.06.07.03.02.07.03.12.03.04,0,.09,0,.15-.01Z"/><path d="m168.15,452.58l1.11-1.49-.98-1.37h.45l.52.73c.11.15.19.27.23.35.06-.1.14-.21.23-.33l.58-.76h.41l-1.01,1.35,1.08,1.51h-.47l-.72-1.02c-.04-.06-.08-.12-.12-.19-.06.1-.11.18-.14.21l-.72,1h-.46Z"/><path d="m170.93,451.72v-.35h1.08v.35h-1.08Z"/><path d="m173.17,452.26l.05.31c-.1.02-.19.03-.27.03-.13,0-.23-.02-.3-.06-.07-.04-.12-.09-.15-.16-.03-.07-.04-.2-.04-.42v-1.19h-.26v-.27h.26v-.51l.35-.21v.72h.35v.27h-.35v1.21c0,.1,0,.16.02.19.01.03.03.05.06.07.03.02.07.03.12.03.04,0,.09,0,.15-.01Z"/><path d="m173.5,452.58v-2.07h.32v.31c.08-.15.16-.24.22-.29s.14-.07.23-.07c.12,0,.24.04.36.11l-.12.33c-.09-.05-.17-.08-.26-.08-.08,0-.15.02-.21.07-.06.05-.1.11-.13.19-.04.12-.06.26-.06.41v1.09h-.35Z"/><path d="m176.19,452.32c-.13.11-.26.19-.38.23-.12.04-.25.07-.39.07-.23,0-.4-.06-.53-.17s-.18-.25-.18-.43c0-.1.02-.19.07-.28s.11-.15.18-.2.16-.09.25-.12c.07-.02.17-.04.31-.05.28-.03.49-.07.63-.12,0-.05,0-.08,0-.09,0-.14-.03-.24-.1-.3-.09-.08-.22-.12-.4-.12-.17,0-.29.03-.37.09-.08.06-.14.16-.17.31l-.34-.05c.03-.15.08-.27.15-.36.07-.09.18-.16.31-.21s.29-.07.47-.07.32.02.43.06c.11.04.19.09.24.16.05.06.09.14.11.24.01.06.02.17.02.32v.47c0,.33,0,.53.02.62.02.09.04.17.09.25h-.37c-.04-.07-.06-.16-.07-.26Zm-.03-.79c-.13.05-.32.1-.57.13-.14.02-.25.04-.31.07-.06.03-.11.06-.14.11-.03.05-.05.11-.05.17,0,.09.04.17.11.23s.17.09.31.09.26-.03.36-.09c.11-.06.18-.14.23-.24.04-.08.06-.2.06-.35v-.13Z"/><path d="m177.07,452.58v-2.07h.32v.29c.15-.23.37-.34.66-.34.12,0,.24.02.34.07s.18.1.24.18c.05.07.09.16.11.26.01.06.02.18.02.34v1.28h-.35v-1.26c0-.14-.01-.25-.04-.32-.03-.07-.08-.13-.15-.17-.07-.04-.15-.06-.25-.06-.15,0-.28.05-.39.14-.11.09-.16.28-.16.54v1.13h-.35Z"/><path d="m161.06,458.17v-2.87h.32v.27c.08-.11.16-.18.26-.24s.21-.08.35-.08c.18,0,.33.05.47.14.14.09.24.22.31.39s.1.35.1.55c0,.21-.04.4-.11.57s-.19.3-.33.39c-.15.09-.3.14-.46.14-.12,0-.22-.02-.32-.07-.09-.05-.17-.11-.23-.19v1.01h-.35Zm.32-1.82c0,.27.05.46.16.59.11.13.24.19.39.19s.29-.07.4-.2c.11-.13.17-.34.17-.61s-.05-.46-.16-.59c-.11-.13-.24-.2-.39-.2s-.28.07-.4.21c-.12.14-.17.34-.17.61Z"/><path d="m163.29,454.92v-.4h.35v.4h-.35Zm0,2.46v-2.07h.35v2.07h-.35Z"/><path d="m164.17,457.38v-2.07h.32v.29c.15-.23.37-.34.66-.34.12,0,.24.02.34.07s.18.1.24.18c.05.07.09.16.11.26.01.07.02.18.02.34v1.28h-.35v-1.26c0-.14-.01-.25-.04-.32-.03-.07-.08-.13-.15-.17-.07-.04-.15-.06-.25-.06-.15,0-.28.05-.39.14-.11.1-.16.28-.16.54v1.13h-.35Z"/><path d="m167.75,456.62l.35.04c-.04.24-.13.42-.29.56s-.35.2-.57.2c-.28,0-.51-.09-.68-.28s-.26-.45-.26-.8c0-.22.04-.42.11-.59s.19-.29.34-.38.32-.13.5-.13c.23,0,.41.06.55.17.14.11.23.28.28.49l-.34.05c-.03-.14-.09-.24-.17-.31s-.18-.11-.3-.11c-.18,0-.32.06-.43.19s-.17.33-.17.6.05.48.16.61c.11.13.25.19.42.19.14,0,.25-.04.35-.13.09-.08.15-.21.18-.39Z"/><path d="m168.4,457.38v-2.86h.35v1.03c.16-.19.37-.29.62-.29.15,0,.29.03.4.09s.19.14.24.25c.05.11.07.26.07.46v1.31h-.35v-1.31c0-.18-.04-.3-.11-.38s-.18-.12-.32-.12c-.1,0-.2.03-.29.08-.09.05-.16.13-.2.22-.04.09-.06.22-.06.38v1.13h-.35Z"/><path d="m172.39,456.67s0-.08,0-.11c0-.14.02-.26.06-.36.03-.08.07-.15.14-.23.05-.06.13-.14.25-.25s.2-.19.24-.26c.04-.06.05-.13.05-.21,0-.14-.05-.26-.16-.36s-.24-.16-.39-.16-.27.05-.38.14-.17.24-.2.44l-.36-.04c.03-.27.13-.47.29-.61.16-.14.37-.21.64-.21.28,0,.5.08.67.23s.25.34.25.55c0,.12-.03.24-.09.35s-.17.23-.34.38c-.11.1-.19.18-.22.22-.04.05-.06.1-.08.17s-.03.16-.03.3h-.34Zm-.02.71v-.4h.4v.4h-.4Z"/><rect class="cls-7" x="223.94" y="481.89" width="56.69" height="28.35"/><text class="cls-10" transform="translate(240.17 497.5)"><tspan x="0" y="0">Check winder</tspan></text><rect class="cls-7" x="138.9" y="481.89" width="56.69" height="28.35"/><text class="cls-10" transform="translate(155.35 497.5)"><tspan x="0" y="0">Repair X-tran</tspan></text><rect class="cls-7" x="53.86" y="269.29" width="56.69" height="28.35"/><text class="cls-10" transform="translate(69.53 284.9)"><tspan x="0" y="0">Install MOD39</tspan></text><rect class="cls-7" x="340.16" y="184.25" width="56.69" height="28.35"/><text class="cls-10" transform="translate(353.28 199.86)"><tspan x="0" y="0">Cut first 2 meters</tspan></text><rect class="cls-8" x="53.86" y="28.35" width="56.69" height="14.17" rx="5.67" ry="5.67"/><rect class="cls-3" x="53.86" y="28.35" width="56.69" height="14.17" rx="5.67" ry="5.67"/><path d="m64.26,33.46l.36-.03c.02.14.06.26.12.35s.16.17.29.22.28.08.44.08c.14,0,.27-.02.38-.06s.19-.1.25-.18.08-.16.08-.25-.03-.17-.08-.24-.14-.12-.26-.17c-.08-.03-.25-.08-.51-.14s-.45-.12-.55-.18c-.14-.07-.24-.16-.31-.27s-.1-.23-.1-.36c0-.14.04-.28.12-.41s.2-.22.36-.29.33-.1.53-.1c.21,0,.4.03.56.1s.29.17.37.3.13.28.14.45l-.36.03c-.02-.18-.09-.32-.2-.41s-.28-.14-.5-.14-.4.04-.5.13-.16.19-.16.3c0,.1.04.19.11.25.07.07.26.13.57.2s.52.13.63.18c.17.08.29.17.37.29s.12.25.12.41-.04.3-.13.43-.21.24-.38.31-.35.11-.55.11c-.26,0-.48-.04-.65-.11s-.31-.19-.41-.34-.15-.32-.16-.51Z"/><path d="m67.02,34.38v-2.07h.31v.29c.06-.1.15-.18.26-.25s.23-.09.37-.09c.15,0,.28.03.38.1s.17.15.21.27c.16-.24.38-.36.64-.36.21,0,.36.06.47.17s.17.29.17.53v1.42h-.35v-1.31c0-.14-.01-.24-.03-.3s-.06-.11-.12-.15-.13-.06-.21-.06c-.15,0-.27.05-.36.15s-.14.25-.14.47v1.21h-.35v-1.35c0-.16-.03-.27-.09-.35s-.15-.12-.28-.12c-.1,0-.19.03-.27.08s-.15.13-.18.23-.06.24-.06.43v1.08h-.35Z"/><path d="m71.71,34.38v-.3c-.16.23-.38.35-.66.35-.12,0-.24-.02-.34-.07s-.19-.11-.24-.18-.09-.16-.11-.26c-.01-.07-.02-.18-.02-.33v-1.29h.35v1.15c0,.18,0,.31.02.37.02.09.07.17.14.22s.16.08.27.08.2-.03.3-.08.16-.13.2-.22.06-.23.06-.41v-1.11h.35v2.07h-.31Z"/><path d="m73.92,34.38v-.26c-.13.21-.32.31-.58.31-.17,0-.32-.05-.46-.14s-.25-.22-.32-.38-.11-.35-.11-.56.03-.4.1-.56.17-.3.31-.39.29-.13.46-.13c.12,0,.24.03.33.08s.18.12.24.21v-1.03h.35v2.86h-.33Zm-1.11-1.04c0,.27.06.46.17.6s.24.2.4.2.28-.06.39-.19.16-.32.16-.58c0-.28-.05-.49-.16-.62s-.24-.2-.4-.2-.29.06-.39.19-.16.33-.16.6Z"/><path d="m74.73,34.55l.34.05c.01.11.05.18.12.23.09.06.21.1.36.1.16,0,.29-.03.38-.1s.15-.16.18-.27c.02-.07.03-.22.03-.45-.15.18-.35.27-.57.27-.29,0-.51-.1-.66-.31s-.23-.45-.23-.74c0-.2.04-.38.11-.55s.18-.3.31-.39.3-.14.48-.14c.24,0,.45.1.61.3v-.25h.32v1.79c0,.32-.03.55-.1.69s-.17.24-.31.32-.32.12-.53.12c-.25,0-.45-.06-.6-.17s-.23-.28-.22-.5Zm.29-1.25c0,.27.05.47.16.6s.24.19.41.19.3-.06.41-.19.16-.32.16-.58-.06-.45-.17-.57-.25-.19-.41-.19-.29.06-.4.19-.16.32-.16.57Z"/><path d="m78.44,33.71l.36.04c-.06.21-.16.38-.32.49s-.35.18-.59.18c-.3,0-.54-.09-.72-.28s-.27-.45-.27-.79.09-.62.27-.81.41-.29.7-.29.5.09.68.28.26.45.26.8c0,.02,0,.05,0,.09h-1.55c.01.23.08.4.19.52s.26.18.43.18c.13,0,.24-.03.33-.1s.16-.18.22-.32Zm-1.15-.57h1.16c-.02-.17-.06-.31-.13-.39-.11-.14-.26-.2-.44-.2-.16,0-.3.05-.41.16s-.17.25-.18.43Z"/><path d="m80.23,33.34c0-.38.11-.67.32-.85.18-.15.4-.23.65-.23.29,0,.52.09.7.28s.27.44.27.77c0,.27-.04.48-.12.63s-.2.27-.35.36-.32.13-.5.13c-.29,0-.52-.09-.7-.28s-.27-.45-.27-.8Zm.36,0c0,.27.06.46.17.6s.26.2.44.2.32-.07.44-.2.17-.34.17-.61c0-.26-.06-.45-.17-.58s-.26-.2-.43-.2-.32.07-.44.2-.17.33-.17.6Z"/><path d="m82.67,34.38v-1.8h-.31v-.27h.31v-.22c0-.14.01-.24.04-.31.03-.09.09-.17.18-.22s.2-.08.36-.08c.1,0,.21.01.33.04l-.05.31c-.07-.01-.14-.02-.21-.02-.11,0-.18.02-.23.07s-.07.13-.07.26v.19h.4v.27h-.4v1.8h-.35Z"/><path d="m86.16,34.12c-.13.11-.26.19-.38.23s-.25.07-.39.07c-.23,0-.4-.06-.53-.17s-.18-.25-.18-.43c0-.1.02-.19.07-.28s.11-.15.18-.2.16-.09.25-.12c.07-.02.17-.04.31-.05.28-.03.49-.07.63-.12,0-.05,0-.08,0-.09,0-.14-.03-.24-.1-.3-.09-.08-.22-.12-.4-.12-.17,0-.29.03-.37.09s-.14.16-.17.31l-.34-.05c.03-.15.08-.27.15-.36s.18-.16.31-.21.29-.07.47-.07.32.02.43.06.19.09.24.16.09.14.11.24c.01.06.02.17.02.32v.47c0,.33,0,.53.02.62s.04.17.09.25h-.37c-.04-.07-.06-.16-.07-.26Zm-.03-.79c-.13.05-.32.1-.57.13-.14.02-.25.04-.31.07s-.11.06-.14.11-.05.11-.05.17c0,.09.04.17.11.23s.17.09.31.09.26-.03.36-.09.18-.14.23-.24c.04-.08.06-.2.06-.35v-.13Z"/><path d="m87.02,34.38v-2.86h.35v2.86h-.35Z"/><path d="m87.91,34.38v-2.86h.35v2.86h-.35Z"/><path d="m91.27,33.62l.35.04c-.04.24-.13.42-.29.56s-.35.2-.57.2c-.28,0-.51-.09-.68-.28s-.26-.45-.26-.8c0-.22.04-.42.11-.59s.19-.29.34-.38.32-.13.5-.13c.23,0,.41.06.55.17s.23.28.28.49l-.34.05c-.03-.14-.09-.24-.17-.31s-.18-.11-.3-.11c-.18,0-.32.06-.43.19s-.17.33-.17.6.05.48.16.61.25.19.42.19c.14,0,.25-.04.35-.13s.15-.21.18-.39Z"/><path d="m91.79,33.34c0-.38.11-.67.32-.85.18-.15.4-.23.65-.23.29,0,.52.09.7.28s.27.44.27.77c0,.27-.04.48-.12.63s-.2.27-.35.36-.32.13-.5.13c-.29,0-.52-.09-.7-.28s-.27-.45-.27-.8Zm.36,0c0,.27.06.46.17.6s.26.2.44.2.32-.07.44-.2.17-.34.17-.61c0-.26-.06-.45-.17-.58s-.26-.2-.43-.2-.32.07-.44.2-.17.33-.17.6Z"/><path d="m94.14,34.38v-2.86h.35v2.86h-.35Z"/><path d="m94.9,33.34c0-.38.11-.67.32-.85.18-.15.4-.23.65-.23.29,0,.52.09.7.28s.27.44.27.77c0,.27-.04.48-.12.63s-.2.27-.35.36-.32.13-.5.13c-.29,0-.52-.09-.7-.28s-.27-.45-.27-.8Zm.36,0c0,.27.06.46.17.6s.26.2.44.2.32-.07.44-.2.17-.34.17-.61c0-.26-.06-.45-.17-.58s-.26-.2-.43-.2-.32.07-.44.2-.17.33-.17.6Z"/><path d="m97.25,34.38v-2.07h.32v.31c.08-.15.16-.24.22-.29s.14-.07.23-.07c.12,0,.24.04.36.11l-.12.33c-.09-.05-.17-.08-.26-.08-.08,0-.15.02-.21.07s-.1.11-.13.19c-.04.12-.06.26-.06.41v1.09h-.35Z"/><path d="m98.45,33.76l.35-.05c.02.14.07.25.16.32s.21.11.37.11.28-.03.36-.1.12-.14.12-.23c0-.08-.03-.14-.1-.19-.05-.03-.17-.07-.36-.12-.26-.06-.44-.12-.54-.17s-.18-.11-.23-.2-.08-.18-.08-.28c0-.09.02-.18.06-.26s.1-.14.17-.2c.05-.04.13-.07.22-.1s.2-.04.3-.04c.16,0,.31.02.43.07s.21.11.27.19.1.19.12.32l-.34.05c-.02-.11-.06-.19-.14-.25s-.18-.09-.32-.09c-.16,0-.28.03-.35.08s-.1.12-.1.19c0,.05.01.09.04.12.03.04.07.07.13.09.04.01.14.04.31.09.25.07.42.12.52.16s.18.1.23.18.08.18.08.3-.03.23-.1.33-.17.18-.3.24-.27.08-.44.08c-.27,0-.48-.06-.62-.17s-.23-.28-.27-.5Z"/><path d="m65.1,38.14c0-.38.11-.67.32-.85.18-.15.4-.23.65-.23.29,0,.52.09.7.28s.27.44.27.77c0,.27-.04.48-.12.63s-.2.27-.35.36-.32.13-.5.13c-.29,0-.52-.09-.7-.28s-.27-.45-.27-.8Zm.36,0c0,.27.06.46.17.6s.26.2.44.2.32-.07.44-.2.17-.34.17-.61c0-.26-.06-.45-.17-.58s-.26-.2-.43-.2-.32.07-.44.2-.17.33-.17.6Z"/><path d="m67.46,39.18v-2.07h.32v.29c.15-.23.37-.34.66-.34.12,0,.24.02.34.07s.18.1.24.18.09.16.11.26c.01.06.02.18.02.34v1.28h-.35v-1.26c0-.14-.01-.25-.04-.32s-.08-.13-.15-.17-.15-.06-.25-.06c-.15,0-.28.05-.39.14s-.16.28-.16.54v1.13h-.35Z"/><path d="m72.21,38.51l.36.04c-.06.21-.16.38-.32.49s-.35.18-.59.18c-.3,0-.54-.09-.72-.28s-.27-.45-.27-.79.09-.62.27-.81.41-.29.7-.29.5.09.68.28.26.45.26.8c0,.02,0,.05,0,.09h-1.55c.01.23.08.4.19.52s.26.18.43.18c.13,0,.24-.03.33-.1s.16-.18.22-.32Zm-1.15-.57h1.16c-.02-.17-.06-.31-.13-.39-.11-.14-.26-.2-.44-.2-.16,0-.3.05-.41.16s-.17.25-.18.43Z"/><path d="m74.36,39.18v-.26c-.13.21-.32.31-.58.31-.17,0-.32-.05-.46-.14s-.25-.22-.32-.38-.11-.35-.11-.56.03-.4.1-.56.17-.3.31-.39.29-.13.46-.13c.12,0,.24.03.33.08s.18.12.24.21v-1.03h.35v2.86h-.33Zm-1.11-1.04c0,.27.06.46.17.6s.24.2.4.2.28-.06.39-.19.16-.32.16-.58c0-.28-.05-.49-.16-.62s-.24-.2-.4-.2-.29.06-.39.19-.16.33-.16.6Z"/><path d="m75.18,39.35l.34.05c.01.11.05.18.12.23.09.06.21.1.36.1.16,0,.29-.03.38-.1s.15-.16.18-.27c.02-.07.03-.22.03-.45-.15.18-.35.27-.57.27-.29,0-.51-.1-.66-.31s-.23-.45-.23-.74c0-.2.04-.38.11-.55s.18-.3.31-.39.3-.14.48-.14c.24,0,.45.1.61.3v-.25h.32v1.79c0,.32-.03.55-.1.69s-.17.24-.31.32-.32.12-.53.12c-.25,0-.45-.06-.6-.17s-.23-.28-.22-.5Zm.29-1.25c0,.27.05.47.16.6s.24.19.41.19.3-.06.41-.19.16-.32.16-.58-.06-.45-.17-.57-.25-.19-.41-.19-.29.06-.4.19-.16.32-.16.57Z"/><path d="m78.89,38.51l.36.04c-.06.21-.16.38-.32.49s-.35.18-.59.18c-.3,0-.54-.09-.72-.28s-.27-.45-.27-.79.09-.62.27-.81.41-.29.7-.29.5.09.68.28.26.45.26.8c0,.02,0,.05,0,.09h-1.55c.01.23.08.4.19.52s.26.18.43.18c.13,0,.24-.03.33-.1s.16-.18.22-.32Zm-1.15-.57h1.16c-.02-.17-.06-.31-.13-.39-.11-.14-.26-.2-.44-.2-.16,0-.3.05-.41.16s-.17.25-.18.43Z"/><path d="m80.67,38.14c0-.38.11-.67.32-.85.18-.15.4-.23.65-.23.29,0,.52.09.7.28s.27.44.27.77c0,.27-.04.48-.12.63s-.2.27-.35.36-.32.13-.5.13c-.29,0-.52-.09-.7-.28s-.27-.45-.27-.8Zm.36,0c0,.27.06.46.17.6s.26.2.44.2.32-.07.44-.2.17-.34.17-.61c0-.26-.06-.45-.17-.58s-.26-.2-.43-.2-.32.07-.44.2-.17.33-.17.6Z"/><path d="m83.11,39.18v-1.8h-.31v-.27h.31v-.22c0-.14.01-.24.04-.31.03-.09.09-.17.18-.22s.2-.08.36-.08c.1,0,.21.01.33.04l-.05.31c-.07-.01-.14-.02-.21-.02-.11,0-.18.02-.23.07s-.07.13-.07.26v.19h.4v.27h-.4v1.8h-.35Z"/><path d="m86.02,38.87l.05.31c-.1.02-.19.03-.27.03-.13,0-.23-.02-.3-.06s-.12-.09-.15-.16-.04-.2-.04-.42v-1.19h-.26v-.27h.26v-.51l.35-.21v.72h.35v.27h-.35v1.21c0,.1,0,.16.02.19s.03.05.06.07.07.03.12.03c.04,0,.09,0,.15-.01Z"/><path d="m86.36,39.18v-2.86h.35v1.03c.16-.19.37-.29.62-.29.15,0,.29.03.4.09s.19.14.24.25.07.26.07.46v1.31h-.35v-1.31c0-.18-.04-.3-.11-.38s-.18-.12-.32-.12c-.1,0-.2.03-.29.08s-.16.13-.2.22-.06.22-.06.38v1.13h-.35Z"/><path d="m90.01,38.51l.36.04c-.06.21-.16.38-.32.49s-.35.18-.59.18c-.3,0-.54-.09-.72-.28s-.27-.45-.27-.79.09-.62.27-.81.41-.29.7-.29.5.09.68.28.26.45.26.8c0,.02,0,.05,0,.09h-1.55c.01.23.08.4.19.52s.26.18.43.18c.13,0,.24-.03.33-.1s.16-.18.22-.32Zm-1.15-.57h1.16c-.02-.17-.06-.31-.13-.39-.11-.14-.26-.2-.44-.2-.16,0-.3.05-.41.16s-.17.25-.18.43Z"/><path d="m91.92,39.98v-2.87h.32v.27c.08-.11.16-.18.26-.24s.21-.08.35-.08c.18,0,.33.05.47.14s.24.22.31.39.1.35.1.55c0,.21-.04.4-.11.57s-.19.3-.33.39-.3.14-.46.14c-.12,0-.22-.02-.32-.07s-.17-.11-.23-.19v1.01h-.35Zm.32-1.82c0,.27.05.46.16.59s.24.19.39.19.29-.07.4-.2.17-.34.17-.61-.05-.46-.16-.59-.24-.2-.39-.2-.28.07-.4.21-.17.34-.17.61Z"/><path d="m94.14,39.18v-2.07h.32v.31c.08-.15.16-.24.22-.29s.14-.07.23-.07c.12,0,.24.04.36.11l-.12.33c-.09-.05-.17-.08-.26-.08-.08,0-.15.02-.21.07s-.1.11-.13.19c-.04.12-.06.26-.06.41v1.09h-.35Z"/><path d="m95.48,36.72v-.4h.35v.4h-.35Zm0,2.46v-2.07h.35v2.07h-.35Z"/><path d="m96.37,39.18v-2.07h.32v.29c.15-.23.37-.34.66-.34.12,0,.24.02.34.07s.18.1.24.18.09.16.11.26c.01.06.02.18.02.34v1.28h-.35v-1.26c0-.14-.01-.25-.04-.32s-.08-.13-.15-.17-.15-.06-.25-.06c-.15,0-.28.05-.39.14s-.16.28-.16.54v1.13h-.35Z"/><path d="m99.36,38.87l.05.31c-.1.02-.19.03-.27.03-.13,0-.23-.02-.3-.06s-.12-.09-.15-.16-.04-.2-.04-.42v-1.19h-.26v-.27h.26v-.51l.35-.21v.72h.35v.27h-.35v1.21c0,.1,0,.16.02.19s.03.05.06.07.07.03.12.03c.04,0,.09,0,.15-.01Z"/><path class="cls-4" d="m252.28,85.04l28.35,14.17-28.35,14.17-28.35-14.17,28.35-14.17Z"/><text class="cls-10" transform="translate(237.39 100.64)"><tspan x="0" y="0">Core damaged ?</tspan></text><path class="cls-4" d="m308.98,127.56l28.35,14.17-28.35,14.17-28.35-14.17,28.35-14.17Z"/><text class="cls-10" transform="translate(294.3 143.16)"><tspan x="0" y="0">Humid storage ?</tspan></text></g><g id="Lines"><line class="cls-8" x1="82.2" y1="42.52" x2="82.2" y2="56.69"/><line class="cls-5" x1="82.2" y1="42.52" x2="82.2" y2="54.43"/><path d="m82.2,56.69c-.4-1.06-1.07-2.39-1.78-3.21l1.78.65,1.78-.65c-.71.82-1.39,2.14-1.78,3.21Z"/><line class="cls-8" x1="82.2" y1="85.04" x2="82.2" y2="99.21"/><line class="cls-5" x1="82.2" y1="85.04" x2="82.2" y2="96.95"/><path d="m82.2,99.21c-.4-1.06-1.07-2.39-1.78-3.21l1.78.65,1.78-.65c-.71.82-1.39,2.14-1.78,3.21Z"/><polyline class="cls-5" points="110.55 70.87 252.28 70.87 252.28 82.78"/><path d="m252.28,85.04c-.4-1.06-1.07-2.39-1.78-3.21l1.78.65,1.78-.65c-.71.82-1.39,2.14-1.78,3.21Z"/><path class="cls-1" d="m122.6,70.87c0,1.56-1.28,2.83-2.83,2.83h-4.25c-1.56,0-2.83-1.28-2.83-2.83h0c0-1.56,1.28-2.83,2.83-2.83h4.25c1.56,0,2.83,1.28,2.83,2.83h0Z"/><path class="cls-3" d="m122.6,70.87c0,1.56-1.28,2.83-2.83,2.83h-4.25c-1.56,0-2.83-1.28-2.83-2.83h0c0-1.56,1.28-2.83,2.83-2.83h4.25c1.56,0,2.83,1.28,2.83,2.83h0Z"/><text class="cls-10" transform="translate(115.08 72.36)"><tspan x="0" y="0">No</tspan></text><polyline class="cls-5" points="110.55 113.39 167.24 113.39 167.24 125.3"/><path d="m167.24,127.56c-.4-1.06-1.07-2.39-1.78-3.21l1.78.65,1.78-.65c-.71.82-1.39,2.14-1.78,3.21Z"/><path class="cls-1" d="m122.6,113.39c0,1.56-1.28,2.83-2.83,2.83h-4.25c-1.56,0-2.83-1.28-2.83-2.83h0c0-1.56,1.28-2.83,2.83-2.83h4.25c1.56,0,2.83,1.28,2.83,2.83h0Z"/><path class="cls-3" d="m122.6,113.39c0,1.56-1.28,2.83-2.83,2.83h-4.25c-1.56,0-2.83-1.28-2.83-2.83h0c0-1.56,1.28-2.83,2.83-2.83h4.25c1.56,0,2.83,1.28,2.83,2.83h0Z"/><text class="cls-10" transform="translate(115.08 114.88)"><tspan x="0" y="0">No</tspan></text><polyline class="cls-5" points="110.55 170.08 167.24 170.08 167.24 181.99"/><path d="m167.24,184.25c-.4-1.06-1.07-2.39-1.78-3.21l1.78.65,1.78-.65c-.71.82-1.39,2.14-1.78,3.21Z"/><path class="cls-1" d="m122.6,170.08c0,1.56-1.28,2.83-2.83,2.83h-4.25c-1.56,0-2.83-1.28-2.83-2.83h0c0-1.56,1.28-2.83,2.83-2.83h4.25c1.56,0,2.83,1.28,2.83,2.83h0Z"/><path class="cls-3" d="m122.6,170.08c0,1.56-1.28,2.83-2.83,2.83h-4.25c-1.56,0-2.83-1.28-2.83-2.83h0c0-1.56,1.28-2.83,2.83-2.83h4.25c1.56,0,2.83,1.28,2.83,2.83h0Z"/><text class="cls-10" transform="translate(115.08 171.57)"><tspan x="0" y="0">No</tspan></text><polyline class="cls-5" points="110.55 226.77 167.24 226.77 167.24 267.03"/><path d="m167.24,269.29c-.4-1.06-1.07-2.39-1.78-3.21l1.78.65,1.78-.65c-.71.82-1.39,2.14-1.78,3.21Z"/><path class="cls-1" d="m122.6,226.77c0,1.56-1.28,2.83-2.83,2.83h-4.25c-1.56,0-2.83-1.28-2.83-2.83h0c0-1.56,1.28-2.83,2.83-2.83h4.25c1.56,0,2.83,1.28,2.83,2.83h0Z"/><path class="cls-3" d="m122.6,226.77c0,1.56-1.28,2.83-2.83,2.83h-4.25c-1.56,0-2.83-1.28-2.83-2.83h0c0-1.56,1.28-2.83,2.83-2.83h4.25c1.56,0,2.83,1.28,2.83,2.83h0Z"/><text class="cls-10" transform="translate(115.08 228.26)"><tspan x="0" y="0">No</tspan></text><polyline class="cls-5" points="195.59 283.46 252.28 283.46 252.28 295.37"/><path d="m252.28,297.64c-.4-1.06-1.07-2.39-1.78-3.21l1.78.65,1.78-.65c-.71.82-1.39,2.14-1.78,3.21Z"/><path class="cls-1" d="m207.64,283.46c0,1.56-1.28,2.83-2.83,2.83h-4.25c-1.56,0-2.83-1.28-2.83-2.83h0c0-1.56,1.28-2.83,2.83-2.83h4.25c1.56,0,2.83,1.28,2.83,2.83h0Z"/><path class="cls-3" d="m207.64,283.46c0,1.56-1.28,2.83-2.83,2.83h-4.25c-1.56,0-2.83-1.28-2.83-2.83h0c0-1.56,1.28-2.83,2.83-2.83h4.25c1.56,0,2.83,1.28,2.83,2.83h0Z"/><text class="cls-10" transform="translate(200.12 284.96)"><tspan x="0" y="0">No</tspan></text><polyline class="cls-5" points="195.59 340.16 252.28 340.16 252.28 352.07"/><path d="m252.28,354.33c-.4-1.06-1.07-2.39-1.78-3.21l1.78.65,1.78-.65c-.71.82-1.39,2.14-1.78,3.21Z"/><path class="cls-1" d="m207.64,340.16c0,1.56-1.28,2.83-2.83,2.83h-4.25c-1.56,0-2.83-1.28-2.83-2.83h0c0-1.56,1.28-2.83,2.83-2.83h4.25c1.56,0,2.83,1.28,2.83,2.83h0Z"/><path class="cls-3" d="m207.64,340.16c0,1.56-1.28,2.83-2.83,2.83h-4.25c-1.56,0-2.83-1.28-2.83-2.83h0c0-1.56,1.28-2.83,2.83-2.83h4.25c1.56,0,2.83,1.28,2.83,2.83h0Z"/><text class="cls-10" transform="translate(200.12 341.65)"><tspan x="0" y="0">No</tspan></text><polyline class="cls-5" points="280.63 99.21 308.98 99.21 308.98 125.3"/><path d="m308.98,127.56c-.4-1.06-1.07-2.39-1.78-3.21l1.78.65,1.78-.65c-.71.82-1.39,2.14-1.78,3.21Z"/><polyline class="cls-5" points="254.55 172.23 308.98 172.23 308.98 155.91"/><path d="m252.28,172.23c1.06.4,2.39,1.07,3.21,1.78l-.65-1.78.65-1.78c-.82.71-2.14,1.39-3.21,1.78Z"/><path class="cls-1" d="m292.68,99.21c0,1.56-1.28,2.83-2.83,2.83h-4.25c-1.56,0-2.83-1.28-2.83-2.83h0c0-1.56,1.28-2.83,2.83-2.83h4.25c1.56,0,2.83,1.28,2.83,2.83h0Z"/><path class="cls-3" d="m292.68,99.21c0,1.56-1.28,2.83-2.83,2.83h-4.25c-1.56,0-2.83-1.28-2.83-2.83h0c0-1.56,1.28-2.83,2.83-2.83h4.25c1.56,0,2.83,1.28,2.83,2.83h0Z"/><text class="cls-10" transform="translate(285.16 100.7)"><tspan x="0" y="0">No</tspan></text><polyline class="cls-5" points="337.32 141.73 365.67 141.73 365.67 181.99"/><path d="m365.67,184.25c-.4-1.06-1.07-2.39-1.78-3.21l1.78.65,1.78-.65c-.71.82-1.39,2.14-1.78,3.21Z"/><path class="cls-1" d="m349.37,141.73c0,1.56-1.28,2.83-2.83,2.83h-4.25c-1.56,0-2.83-1.28-2.83-2.83h0c0-1.56,1.28-2.83,2.83-2.83h4.25c1.56,0,2.83,1.28,2.83,2.83h0Z"/><path class="cls-3" d="m349.37,141.73c0,1.56-1.28,2.83-2.83,2.83h-4.25c-1.56,0-2.83-1.28-2.83-2.83h0c0-1.56,1.28-2.83,2.83-2.83h4.25c1.56,0,2.83,1.28,2.83,2.83h0Z"/><text class="cls-10" transform="translate(341.85 143.22)"><tspan x="0" y="0">No</tspan></text><path class="cls-1" d="m87.17,90.83c0,1.56-1.28,2.83-2.83,2.83h-4.25c-1.56,0-2.83-1.28-2.83-2.83s1.28-2.83,2.83-2.83h4.25c1.56,0,2.83,1.28,2.83,2.83Z"/><path class="cls-3" d="m87.17,90.83c0,1.56-1.28,2.83-2.83,2.83h-4.25c-1.56,0-2.83-1.28-2.83-2.83s1.28-2.83,2.83-2.83h4.25c1.56,0,2.83,1.28,2.83,2.83Z"/><text class="cls-10" transform="translate(78.94 92.33)"><tspan class="cls-9" x="0" y="0">Y</tspan><tspan x="2.3" y="0">es</tspan></text><line class="cls-8" x1="167.24" y1="297.64" x2="167.24" y2="325.98"/><line class="cls-5" x1="167.24" y1="297.64" x2="167.24" y2="323.72"/><path d="m167.24,325.98c-.4-1.06-1.07-2.39-1.78-3.21l1.78.65,1.78-.65c-.71.82-1.39,2.14-1.78,3.21Z"/><path class="cls-1" d="m172.2,303.43c0,1.56-1.28,2.83-2.83,2.83h-4.25c-1.56,0-2.83-1.28-2.83-2.83s1.28-2.83,2.83-2.83h4.25c1.56,0,2.83,1.28,2.83,2.83Z"/><path class="cls-3" d="m172.2,303.43c0,1.56-1.28,2.83-2.83,2.83h-4.25c-1.56,0-2.83-1.28-2.83-2.83s1.28-2.83,2.83-2.83h4.25c1.56,0,2.83,1.28,2.83,2.83Z"/><text class="cls-10" transform="translate(163.98 304.92)"><tspan class="cls-9" x="0" y="0">Y</tspan><tspan x="2.3" y="0">es</tspan></text><polyline class="cls-5" points="195.59 396.85 252.28 396.85 252.28 408.76"/><path d="m252.28,411.02c-.4-1.06-1.07-2.39-1.78-3.21l1.78.65,1.78-.65c-.71.82-1.39,2.14-1.78,3.21Z"/><path class="cls-1" d="m207.64,396.85c0,1.56-1.28,2.83-2.83,2.83h-4.25c-1.56,0-2.83-1.28-2.83-2.83h0c0-1.56,1.28-2.83,2.83-2.83h4.25c1.56,0,2.83,1.28,2.83,2.83h0Z"/><path class="cls-3" d="m207.64,396.85c0,1.56-1.28,2.83-2.83,2.83h-4.25c-1.56,0-2.83-1.28-2.83-2.83h0c0-1.56,1.28-2.83,2.83-2.83h4.25c1.56,0,2.83,1.28,2.83,2.83h0Z"/><text class="cls-10" transform="translate(200.12 398.34)"><tspan x="0" y="0">No</tspan></text><line class="cls-8" x1="167.24" y1="354.33" x2="167.24" y2="382.68"/><line class="cls-5" x1="167.24" y1="354.33" x2="167.24" y2="380.41"/><path d="m167.24,382.68c-.4-1.06-1.07-2.39-1.78-3.21l1.78.65,1.78-.65c-.71.82-1.39,2.14-1.78,3.21Z"/><path class="cls-1" d="m172.2,360.13c0,1.56-1.28,2.83-2.83,2.83h-4.25c-1.56,0-2.83-1.28-2.83-2.83s1.28-2.83,2.83-2.83h4.25c1.56,0,2.83,1.28,2.83,2.83Z"/><path class="cls-3" d="m172.2,360.13c0,1.56-1.28,2.83-2.83,2.83h-4.25c-1.56,0-2.83-1.28-2.83-2.83s1.28-2.83,2.83-2.83h4.25c1.56,0,2.83,1.28,2.83,2.83Z"/><text class="cls-10" transform="translate(163.98 361.62)"><tspan class="cls-9" x="0" y="0">Y</tspan><tspan x="2.3" y="0">es</tspan></text><polyline class="cls-5" points="195.59 453.54 252.28 453.54 252.28 479.63"/><path d="m252.28,481.89c-.4-1.06-1.07-2.39-1.78-3.21l1.78.65,1.78-.65c-.71.82-1.39,2.14-1.78,3.21Z"/><path class="cls-1" d="m207.64,453.54c0,1.56-1.28,2.83-2.83,2.83h-4.25c-1.56,0-2.83-1.28-2.83-2.83h0c0-1.56,1.28-2.83,2.83-2.83h4.25c1.56,0,2.83,1.28,2.83,2.83h0Z"/><path class="cls-3" d="m207.64,453.54c0,1.56-1.28,2.83-2.83,2.83h-4.25c-1.56,0-2.83-1.28-2.83-2.83h0c0-1.56,1.28-2.83,2.83-2.83h4.25c1.56,0,2.83,1.28,2.83,2.83h0Z"/><text class="cls-10" transform="translate(200.12 455.04)"><tspan x="0" y="0">No</tspan></text><line class="cls-8" x1="167.24" y1="411.02" x2="167.24" y2="439.37"/><line class="cls-5" x1="167.24" y1="411.02" x2="167.24" y2="437.11"/><path d="m167.24,439.37c-.4-1.06-1.07-2.39-1.78-3.21l1.78.65,1.78-.65c-.71.82-1.39,2.14-1.78,3.21Z"/><path class="cls-1" d="m172.2,416.82c0,1.56-1.28,2.83-2.83,2.83h-4.25c-1.56,0-2.83-1.28-2.83-2.83s1.28-2.83,2.83-2.83h4.25c1.56,0,2.83,1.28,2.83,2.83Z"/><path class="cls-3" d="m172.2,416.82c0,1.56-1.28,2.83-2.83,2.83h-4.25c-1.56,0-2.83-1.28-2.83-2.83s1.28-2.83,2.83-2.83h4.25c1.56,0,2.83,1.28,2.83,2.83Z"/><text class="cls-10" transform="translate(163.98 418.31)"><tspan class="cls-9" x="0" y="0">Y</tspan><tspan x="2.3" y="0">es</tspan></text><line class="cls-8" x1="167.24" y1="467.72" x2="167.24" y2="481.89"/><line class="cls-5" x1="167.24" y1="467.72" x2="167.24" y2="479.63"/><path d="m167.24,481.89c-.4-1.06-1.07-2.39-1.78-3.21l1.78.65,1.78-.65c-.71.82-1.39,2.14-1.78,3.21Z"/><path class="cls-1" d="m172.2,473.51c0,1.56-1.28,2.83-2.83,2.83h-4.25c-1.56,0-2.83-1.28-2.83-2.83s1.28-2.83,2.83-2.83h4.25c1.56,0,2.83,1.28,2.83,2.83Z"/><path class="cls-3" d="m172.2,473.51c0,1.56-1.28,2.83-2.83,2.83h-4.25c-1.56,0-2.83-1.28-2.83-2.83s1.28-2.83,2.83-2.83h4.25c1.56,0,2.83,1.28,2.83,2.83Z"/><text class="cls-10" transform="translate(163.98 475)"><tspan class="cls-9" x="0" y="0">Y</tspan><tspan x="2.3" y="0">es</tspan></text><line class="cls-8" x1="82.2" y1="127.56" x2="82.2" y2="155.91"/><line class="cls-5" x1="82.2" y1="127.56" x2="82.2" y2="153.64"/><path d="m82.2,155.91c-.4-1.06-1.07-2.39-1.78-3.21l1.78.65,1.78-.65c-.71.82-1.39,2.14-1.78,3.21Z"/><path class="cls-1" d="m87.17,133.35c0,1.56-1.28,2.83-2.83,2.83h-4.25c-1.56,0-2.83-1.28-2.83-2.83s1.28-2.83,2.83-2.83h4.25c1.56,0,2.83,1.28,2.83,2.83Z"/><path class="cls-3" d="m87.17,133.35c0,1.56-1.28,2.83-2.83,2.83h-4.25c-1.56,0-2.83-1.28-2.83-2.83s1.28-2.83,2.83-2.83h4.25c1.56,0,2.83,1.28,2.83,2.83Z"/><text class="cls-10" transform="translate(78.94 134.85)"><tspan class="cls-9" x="0" y="0">Y</tspan><tspan x="2.3" y="0">es</tspan></text><line class="cls-8" x1="82.2" y1="184.25" x2="82.2" y2="212.6"/><line class="cls-5" x1="82.2" y1="184.25" x2="82.2" y2="210.34"/><path d="m82.2,212.6c-.4-1.06-1.07-2.39-1.78-3.21l1.78.65,1.78-.65c-.71.82-1.39,2.14-1.78,3.21Z"/><path class="cls-1" d="m87.17,190.05c0,1.56-1.28,2.83-2.83,2.83h-4.25c-1.56,0-2.83-1.28-2.83-2.83s1.28-2.83,2.83-2.83h4.25c1.56,0,2.83,1.28,2.83,2.83Z"/><path class="cls-3" d="m87.17,190.05c0,1.56-1.28,2.83-2.83,2.83h-4.25c-1.56,0-2.83-1.28-2.83-2.83s1.28-2.83,2.83-2.83h4.25c1.56,0,2.83,1.28,2.83,2.83Z"/><text class="cls-10" transform="translate(78.94 191.54)"><tspan class="cls-9" x="0" y="0">Y</tspan><tspan x="2.3" y="0">es</tspan></text><line class="cls-8" x1="82.2" y1="240.94" x2="82.2" y2="269.29"/><line class="cls-5" x1="82.2" y1="240.94" x2="82.2" y2="267.03"/><path d="m82.2,269.29c-.4-1.06-1.07-2.39-1.78-3.21l1.78.65,1.78-.65c-.71.82-1.39,2.14-1.78,3.21Z"/><path class="cls-1" d="m87.17,246.74c0,1.56-1.28,2.83-2.83,2.83h-4.25c-1.56,0-2.83-1.28-2.83-2.83s1.28-2.83,2.83-2.83h4.25c1.56,0,2.83,1.28,2.83,2.83Z"/><path class="cls-3" d="m87.17,246.74c0,1.56-1.28,2.83-2.83,2.83h-4.25c-1.56,0-2.83-1.28-2.83-2.83s1.28-2.83,2.83-2.83h4.25c1.56,0,2.83,1.28,2.83,2.83Z"/><text class="cls-10" transform="translate(78.94 248.23)"><tspan class="cls-9" x="0" y="0">Y</tspan><tspan x="2.3" y="0">es</tspan></text><path class="cls-1" d="m313.94,161.7c0,1.56-1.28,2.83-2.83,2.83h-4.25c-1.56,0-2.83-1.28-2.83-2.83s1.28-2.83,2.83-2.83h4.25c1.56,0,2.83,1.28,2.83,2.83Z"/><path class="cls-3" d="m313.94,161.7c0,1.56-1.28,2.83-2.83,2.83h-4.25c-1.56,0-2.83-1.28-2.83-2.83s1.28-2.83,2.83-2.83h4.25c1.56,0,2.83,1.28,2.83,2.83Z"/><text class="cls-10" transform="translate(305.71 163.19)"><tspan class="cls-9" x="0" y="0">Y</tspan><tspan x="2.3" y="0">es</tspan></text><line class="cls-8" x1="252.28" y1="113.39" x2="252.28" y2="184.25"/><line class="cls-5" x1="252.28" y1="113.39" x2="252.28" y2="181.99"/><path d="m252.28,184.25c-.4-1.06-1.07-2.39-1.78-3.21l1.78.65,1.78-.65c-.71.82-1.39,2.14-1.78,3.21Z"/><path class="cls-1" d="m257.24,119.18c0,1.56-1.28,2.83-2.83,2.83h-4.25c-1.56,0-2.83-1.28-2.83-2.83s1.28-2.83,2.83-2.83h4.25c1.56,0,2.83,1.28,2.83,2.83Z"/><path class="cls-3" d="m257.24,119.18c0,1.56-1.28,2.83-2.83,2.83h-4.25c-1.56,0-2.83-1.28-2.83-2.83s1.28-2.83,2.83-2.83h4.25c1.56,0,2.83,1.28,2.83,2.83Z"/><text class="cls-10" transform="translate(249.02 120.67)"><tspan class="cls-9" x="0" y="0">Y</tspan><tspan x="2.3" y="0">es</tspan></text></g><g id="Numbers"><circle class="cls-2" cx="48.19" cy="70.87" r="5.67"/><text class="cls-12" transform="translate(46.52 72.88)"><tspan x="0" y="0">1</tspan></text><circle class="cls-2" cx="334.49" cy="198.43" r="5.67"/><text class="cls-12" transform="translate(332.82 200.44)"><tspan x="0" y="0">5</tspan></text><circle class="cls-2" cx="133.23" cy="141.73" r="5.67"/><text class="cls-12" transform="translate(131.56 143.74)"><tspan x="0" y="0">7</tspan></text><circle class="cls-2" cx="48.19" cy="113.39" r="5.67"/><text class="cls-12" transform="translate(46.52 115.4)"><tspan x="0" y="0">6</tspan></text><circle class="cls-2" cx="133.23" cy="198.43" r="5.67"/><text class="cls-12" transform="translate(131.56 200.44)"><tspan x="0" y="0">9</tspan></text><circle class="cls-2" cx="48.19" cy="170.08" r="5.67"/><text class="cls-12" transform="translate(46.52 172.09)"><tspan x="0" y="0">8</tspan></text><circle class="cls-2" cx="48.19" cy="283.46" r="5.67"/><text class="cls-12" transform="translate(45.02 285.48)"><tspan class="cls-11" x="0" y="0">1</tspan><tspan x="3.01" y="0">1</tspan></text><circle class="cls-2" cx="48.19" cy="226.77" r="5.67"/><text class="cls-12" transform="translate(44.85 228.78)"><tspan x="0" y="0">10</tspan></text><circle class="cls-2" cx="218.27" cy="311.81" r="5.67"/><text class="cls-12" transform="translate(214.93 313.82)"><tspan x="0" y="0">13</tspan></text><circle class="cls-2" cx="218.27" cy="368.5" r="5.67"/><text class="cls-12" transform="translate(214.93 370.51)"><tspan x="0" y="0">15</tspan></text><circle class="cls-2" cx="133.23" cy="396.85" r="5.67"/><text class="cls-12" transform="translate(129.89 398.86)"><tspan x="0" y="0">16</tspan></text><circle class="cls-2" cx="133.23" cy="453.54" r="5.67"/><text class="cls-12" transform="translate(129.89 455.55)"><tspan x="0" y="0">18</tspan></text><circle class="cls-2" cx="218.27" cy="496.06" r="5.67"/><text class="cls-12" transform="translate(214.93 498.07)"><tspan x="0" y="0">20</tspan></text><circle class="cls-2" cx="133.23" cy="283.46" r="5.67"/><text class="cls-12" transform="translate(129.89 285.48)"><tspan x="0" y="0">12</tspan></text><circle class="cls-2" cx="133.23" cy="340.16" r="5.67"/><text class="cls-12" transform="translate(129.89 342.17)"><tspan x="0" y="0">14</tspan></text><circle class="cls-2" cx="218.27" cy="99.21" r="5.67"/><text class="cls-12" transform="translate(216.6 101.22)"><tspan x="0" y="0">2</tspan></text><circle class="cls-2" cx="218.27" cy="198.43" r="5.67"/><text class="cls-12" transform="translate(216.6 200.44)"><tspan x="0" y="0">4</tspan></text><circle class="cls-2" cx="274.96" cy="141.73" r="5.67"/><text class="cls-12" transform="translate(273.29 143.74)"><tspan x="0" y="0">3</tspan></text><circle class="cls-2" cx="218.27" cy="425.2" r="5.67"/><text class="cls-12" transform="translate(214.93 427.21)"><tspan x="0" y="0">17</tspan></text><circle class="cls-2" cx="133.23" cy="496.06" r="5.67"/><text class="cls-12" transform="translate(129.89 498.07)"><tspan x="0" y="0">19</tspan></text></g></svg>