<?xml version="1.0" encoding="UTF-8"?><svg xmlns="http://www.w3.org/2000/svg" viewBox="0 0 199.84 252.28"><defs><style>.cls-1,.cls-2{fill:#fff;}.cls-2,.cls-3,.cls-4,.cls-5,.cls-6{stroke:#000;}.cls-2,.cls-3,.cls-4,.cls-5,.cls-6,.cls-7{stroke-linecap:round;stroke-linejoin:round;}.cls-2,.cls-4,.cls-5,.cls-6,.cls-7{stroke-width:.5px;}.cls-8{fill:#ffe0b2;}.cls-3{stroke-width:.25px;}.cls-3,.cls-4,.cls-7{fill:none;}.cls-9{font-size:6px;}.cls-9,.cls-10{font-family:Arial-BoldMT, Arial;font-weight:700;}.cls-5{fill:#bbdefb;}.cls-11{font-family:ArialMT, Arial;font-size:4px;}.cls-6{fill:#c8e6c9;}.cls-7{stroke:#e0e0e0;}.cls-12{letter-spacing:-.09em;}.cls-10{font-size:5.79px;}</style></defs><g id="Bckground"><rect class="cls-1" width="199.84" height="252.28"/></g><g id="Frame"><rect class="cls-7" x="5.67" y="5.67" width="189.92" height="113.39"/><rect class="cls-7" x="5.67" y="119.06" width="189.92" height="127.56"/><text class="cls-10" transform="translate(8.5 13.37) scale(1.04 1)"><tspan x="0" y="0">Customer / Remote support</tspan></text><text class="cls-10" transform="translate(8.5 127.56) scale(1.04 1)"><tspan x="0" y="0">Engineer</tspan></text></g><g id="Blocks"><path class="cls-6" d="M56.69,56.69l28.35,14.17-28.35,14.17-28.35-14.17,28.35-14.17Z"/><text class="cls-11" transform="translate(41.02 72.3)"><tspan x="0" y="0">Prinheads clean ?</tspan></text><rect class="cls-8" x="28.35" y="28.35" width="56.69" height="14.17" rx="5.67" ry="5.67"/><rect class="cls-4" x="28.35" y="28.35" width="56.69" height="14.17" rx="5.67" ry="5.67"/><text class="cls-11" transform="translate(52.47 36.78)"><tspan x="0" y="0">Start</tspan></text><g id="Process"><rect class="cls-5" x="28.35" y="184.25" width="56.69" height="28.35"/><text class="cls-11" transform="translate(38.13 199.86)"><tspan x="0" y="0">Replace PH-carriage</tspan></text></g><g id="Process-2"><rect class="cls-5" x="28.35" y="141.73" width="56.69" height="28.35"/><text class="cls-11" transform="translate(40.46 157.34)"><tspan x="0" y="0">Reseat printheads</tspan></text></g><g id="Process-3"><rect class="cls-5" x="113.39" y="85.04" width="56.69" height="28.35"/><text class="cls-11" transform="translate(115.5 100.65)"><tspan x="0" y="0">Perform manual maintenance</tspan></text></g><rect class="cls-8" x="28.35" y="226.77" width="56.69" height="14.17" rx="5.67" ry="5.67"/><rect class="cls-4" x="28.35" y="226.77" width="56.69" height="14.17" rx="5.67" ry="5.67"/><text class="cls-11" transform="translate(53.13 235.21)"><tspan x="0" y="0">End</tspan></text></g><g id="Lines"><line class="cls-8" x1="56.69" y1="42.52" x2="56.69" y2="56.69"/><line class="cls-3" x1="56.69" y1="42.52" x2="56.69" y2="54.43"/><path d="M56.69,56.69c-.4-1.06-1.07-2.39-1.78-3.21l1.78.65,1.78-.65c-.71.82-1.39,2.14-1.78,3.21Z"/><polyline class="cls-3" points="85.04 70.87 141.73 70.87 141.73 82.78"/><path d="M141.73,85.04c-.4-1.06-1.07-2.39-1.78-3.21l1.78.65,1.78-.65c-.71.82-1.39,2.14-1.78,3.21Z"/><path class="cls-1" d="M97.09,70.87c0,1.56-1.28,2.83-2.83,2.83h-4.25c-1.56,0-2.83-1.28-2.83-2.83h0c0-1.56,1.28-2.83,2.83-2.83h4.25c1.56,0,2.83,1.28,2.83,2.83h0Z"/><path class="cls-4" d="M97.09,70.87c0,1.56-1.28,2.83-2.83,2.83h-4.25c-1.56,0-2.83-1.28-2.83-2.83h0c0-1.56,1.28-2.83,2.83-2.83h4.25c1.56,0,2.83,1.28,2.83,2.83h0Z"/><text class="cls-11" transform="translate(89.57 72.36)"><tspan x="0" y="0">No</tspan></text><line class="cls-8" x1="56.69" y1="85.04" x2="56.69" y2="141.73"/><line class="cls-3" x1="56.69" y1="85.04" x2="56.69" y2="139.47"/><path d="M56.69,141.73c-.4-1.06-1.07-2.39-1.78-3.21l1.78.65,1.78-.65c-.71.82-1.39,2.14-1.78,3.21Z"/><path class="cls-1" d="M61.65,90.71c0,1.56-1.28,2.83-2.83,2.83h-4.25c-1.56,0-2.83-1.28-2.83-2.83s1.28-2.83,2.83-2.83h4.25c1.56,0,2.83,1.28,2.83,2.83Z"/><path class="cls-4" d="M61.65,90.71c0,1.56-1.28,2.83-2.83,2.83h-4.25c-1.56,0-2.83-1.28-2.83-2.83s1.28-2.83,2.83-2.83h4.25c1.56,0,2.83,1.28,2.83,2.83Z"/><text class="cls-11" transform="translate(53.43 92.2)"><tspan class="cls-12" x="0" y="0">Y</tspan><tspan x="2.3" y="0">es</tspan></text><line class="cls-8" x1="56.69" y1="212.6" x2="56.69" y2="226.77"/><line class="cls-3" x1="56.69" y1="212.6" x2="56.69" y2="224.51"/><path d="M56.69,226.77c-.4-1.06-1.07-2.39-1.78-3.21l1.78.65,1.78-.65c-.71.82-1.39,2.14-1.78,3.21Z"/><line class="cls-8" x1="56.69" y1="170.08" x2="56.69" y2="184.25"/><line class="cls-3" x1="56.69" y1="170.08" x2="56.69" y2="181.99"/><path d="M56.69,184.25c-.4-1.06-1.07-2.39-1.78-3.21l1.78.65,1.78-.65c-.71.82-1.39,2.14-1.78,3.21Z"/></g><g id="Numbers"><circle class="cls-2" cx="22.68" cy="70.87" r="5.67"/><text class="cls-9" transform="translate(21.01 72.88)"><tspan x="0" y="0">1</tspan></text><circle class="cls-2" cx="22.68" cy="198.43" r="5.67"/><text class="cls-9" transform="translate(21.01 200.44)"><tspan x="0" y="0">4</tspan></text><circle class="cls-2" cx="22.68" cy="155.91" r="5.67"/><text class="cls-9" transform="translate(21.01 157.92)"><tspan x="0" y="0">3</tspan></text><circle class="cls-2" cx="107.72" cy="99.21" r="5.67"/><text class="cls-9" transform="translate(106.05 101.22)"><tspan x="0" y="0">2</tspan></text></g></svg>