<?xml version="1.0" encoding="UTF-8"?><svg xmlns="http://www.w3.org/2000/svg" viewBox="0 0 425.2 82.2"><defs><style>.cls-1{letter-spacing:.03em;}.cls-2{letter-spacing:-.04em;}.cls-3{letter-spacing:.01em;}.cls-4{letter-spacing:.02em;}.cls-5{letter-spacing:.01em;}.cls-6{letter-spacing:.02em;}.cls-7{letter-spacing:.03em;}.cls-8{fill:lime;}.cls-8,.cls-9,.cls-10,.cls-11{fill-rule:evenodd;}.cls-12{letter-spacing:.02em;}.cls-13{letter-spacing:.03em;}.cls-14{letter-spacing:.03em;}.cls-15{fill:#fff;}.cls-16,.cls-9,.cls-17,.cls-18{fill:blue;}.cls-16,.cls-17,.cls-19,.cls-20{font-family:ArialMT, Arial;}.cls-21{stroke-dasharray:0 0 .93 .93;}.cls-21,.cls-9,.cls-22,.cls-23,.cls-24,.cls-10,.cls-25,.cls-26,.cls-27,.cls-28,.cls-18,.cls-29,.cls-30{stroke:blue;}.cls-21,.cls-22,.cls-23,.cls-24,.cls-10,.cls-31,.cls-25,.cls-32,.cls-33,.cls-26,.cls-27,.cls-34,.cls-28,.cls-29,.cls-30{fill:none;}.cls-21,.cls-22,.cls-23,.cls-24,.cls-10,.cls-25,.cls-33,.cls-26,.cls-27,.cls-18,.cls-29,.cls-30{stroke-miterlimit:10;}.cls-21,.cls-22,.cls-23,.cls-24,.cls-25,.cls-33,.cls-26,.cls-27,.cls-29,.cls-30{stroke-width:.25px;}.cls-35{letter-spacing:0em;}.cls-36{letter-spacing:-.03em;}.cls-37{letter-spacing:-.01em;}.cls-38{letter-spacing:.07em;}.cls-39{letter-spacing:.05em;}.cls-40{letter-spacing:0em;}.cls-41{letter-spacing:.03em;}.cls-42{letter-spacing:-.02em;}.cls-43{letter-spacing:.02em;}.cls-44{letter-spacing:.03em;}.cls-45{letter-spacing:.02em;}.cls-46{letter-spacing:.03em;}.cls-47{letter-spacing:.03em;}.cls-48{letter-spacing:.06em;}.cls-49{letter-spacing:.06em;}.cls-50{letter-spacing:.02em;}.cls-51{letter-spacing:.03em;}.cls-9{stroke-width:.75px;}.cls-9,.cls-31,.cls-32,.cls-34,.cls-28{stroke-linejoin:round;}.cls-52{letter-spacing:0em;}.cls-53{letter-spacing:.02em;}.cls-54{letter-spacing:.05em;}.cls-55{letter-spacing:.03em;}.cls-56{letter-spacing:.02em;}.cls-22{stroke-dasharray:0 0 1.07 1.07;}.cls-57{letter-spacing:.03em;}.cls-58{letter-spacing:.02em;}.cls-59{letter-spacing:-.05em;}.cls-60{font-size:10px;}.cls-61{letter-spacing:.02em;}.cls-23{stroke-dasharray:0 0 .99 .99;}.cls-62{letter-spacing:.02em;}.cls-63{letter-spacing:.07em;}.cls-64{letter-spacing:0em;}.cls-65{letter-spacing:.02em;}.cls-66{letter-spacing:.01em;}.cls-67{letter-spacing:.03em;}.cls-68{letter-spacing:.03em;}.cls-69{letter-spacing:.02em;}.cls-70{letter-spacing:.02em;}.cls-71{letter-spacing:-.02em;}.cls-24{stroke-dasharray:0 0 1.03 1.03;}.cls-72{letter-spacing:.03em;}.cls-10,.cls-31,.cls-18{stroke-width:.25px;}.cls-73{letter-spacing:.01em;}.cls-74{letter-spacing:.03em;}.cls-75{letter-spacing:-.02em;}.cls-76{letter-spacing:.01em;}.cls-77,.cls-78,.cls-79,.cls-80,.cls-17,.cls-20{font-size:3px;}.cls-77,.cls-80,.cls-81,.cls-82{font-family:Arial-BoldMT, Arial;font-weight:700;}.cls-77,.cls-11,.cls-81,.cls-19,.cls-82,.cls-83{fill:red;}.cls-84{letter-spacing:.02em;}.cls-85{letter-spacing:.02em;}.cls-86{letter-spacing:.08em;}.cls-87{letter-spacing:.03em;}.cls-88{letter-spacing:.04em;}.cls-89{letter-spacing:.04em;}.cls-90{letter-spacing:.03em;}.cls-91{letter-spacing:.07em;}.cls-79{font-family:Arial-ItalicMT, Arial;font-style:italic;}.cls-92{letter-spacing:0em;}.cls-93{letter-spacing:.02em;}.cls-94{letter-spacing:.02em;}.cls-95{letter-spacing:.02em;}.cls-96{letter-spacing:.05em;}.cls-97{letter-spacing:.04em;}.cls-98,.cls-82{font-size:4px;}.cls-99{letter-spacing:0em;}.cls-100{letter-spacing:.03em;}.cls-101{letter-spacing:.07em;}.cls-102{letter-spacing:0em;}.cls-31,.cls-34{stroke:#000;}.cls-31,.cls-28{stroke-linecap:round;}.cls-103{letter-spacing:0em;}.cls-104{letter-spacing:-.05em;}.cls-105{letter-spacing:.02em;}.cls-106{letter-spacing:.02em;}.cls-25{stroke-dasharray:0 0 1.01 1.01;}.cls-32{stroke:green;}.cls-32,.cls-34{stroke-width:1.5px;}.cls-107{letter-spacing:.02em;}.cls-108{letter-spacing:.03em;}.cls-109{letter-spacing:.02em;}.cls-33{stroke:#800040;}.cls-26{stroke-dasharray:0 0 .93 .93;}.cls-110{letter-spacing:.05em;}.cls-27{stroke-dasharray:0 0 .99 .99;}.cls-111{letter-spacing:.06em;}.cls-112{letter-spacing:.03em;}.cls-113{letter-spacing:.01em;}.cls-114{letter-spacing:.02em;}.cls-115{letter-spacing:.01em;}.cls-116{letter-spacing:.03em;}.cls-117{letter-spacing:-.04em;}.cls-118{letter-spacing:.02em;}.cls-119{letter-spacing:.02em;}.cls-120{letter-spacing:.02em;}.cls-121{letter-spacing:.04em;}.cls-122{letter-spacing:.03em;}.cls-123{letter-spacing:.02em;}.cls-124{letter-spacing:.03em;}.cls-125{letter-spacing:.02em;}.cls-126{letter-spacing:.02em;}.cls-127{letter-spacing:0em;}.cls-128{letter-spacing:0em;}.cls-129{letter-spacing:.03em;}.cls-130{letter-spacing:.02em;}.cls-131{letter-spacing:.01em;}.cls-132{letter-spacing:.02em;}.cls-133{letter-spacing:.04em;}.cls-134{letter-spacing:0em;}.cls-135{letter-spacing:.03em;}.cls-136{letter-spacing:.03em;}.cls-137{letter-spacing:.03em;}.cls-138{letter-spacing:.03em;}.cls-139{letter-spacing:.05em;}.cls-140{letter-spacing:.01em;}.cls-141{letter-spacing:.02em;}.cls-142{letter-spacing:.07em;}.cls-143{letter-spacing:.04em;}.cls-144{letter-spacing:.02em;}.cls-145{letter-spacing:.02em;}.cls-146{letter-spacing:.03em;}.cls-147{letter-spacing:-.07em;}.cls-148{letter-spacing:.01em;}.cls-149{letter-spacing:.01em;}.cls-30{stroke-dasharray:0 0 .99 .99;}.cls-150{letter-spacing:.02em;}.cls-151{letter-spacing:.02em;}.cls-152{letter-spacing:.03em;}.cls-153{letter-spacing:.01em;}.cls-154{letter-spacing:0em;}.cls-155{letter-spacing:.02em;}.cls-156{letter-spacing:.03em;}.cls-157{letter-spacing:.04em;}.cls-158{letter-spacing:0em;}.cls-159{letter-spacing:.02em;}.cls-160{letter-spacing:.03em;}</style></defs><g id="Background"><rect class="cls-15" x=".25" y=".25" width="424.7" height="81.7"/><path d="m424.7.5v81.2H.5V.5h424.2M425.2,0H0v82.2h425.2V0h0Z"/><text class="cls-79" transform="translate(182.43 4.98)"><tspan class="cls-123" x="0" y="0">El</tspan><tspan class="cls-126" x="2.79" y="0">e</tspan><tspan class="cls-72" x="4.51" y="0">c</tspan><tspan class="cls-119" x="6.1" y="0">t</tspan><tspan class="cls-135" x="6.98" y="0">r</tspan><tspan class="cls-53" x="8.08" y="0">i</tspan><tspan class="cls-151" x="8.8" y="0">c</tspan><tspan class="cls-70" x="10.37" y="0">a</tspan><tspan x="12.1" y="0">l </tspan><tspan class="cls-67" x="13.6" y="0">D</tspan><tspan class="cls-61" x="15.86" y="0">ia</tspan><tspan class="cls-56" x="18.31" y="0">g</tspan><tspan class="cls-136" x="20.05" y="0">r</tspan><tspan class="cls-53" x="21.12" y="0">a</tspan><tspan class="cls-102" x="22.85" y="0">m</tspan><tspan x="25.33" y="0">: </tspan><tspan class="cls-144" x="27" y="0">2</tspan><tspan class="cls-110" x="28.72" y="0">2</tspan><tspan class="cls-38" x="30.53" y="0">_</tspan><tspan class="cls-156" x="32.41" y="0">D</tspan><tspan class="cls-111" x="34.66" y="0">R</tspan><tspan class="cls-103" x="37.01" y="0">A</tspan><tspan class="cls-143" x="39" y="0">W</tspan><tspan class="cls-109" x="41.95" y="0">E</tspan><tspan class="cls-142" x="44.01" y="0">R</tspan><tspan class="cls-139" x="46.37" y="0">_</tspan><tspan class="cls-57" x="48.18" y="0">SA</tspan><tspan class="cls-93" x="52.35" y="0">F</tspan><tspan class="cls-90" x="54.23" y="0">E</tspan><tspan class="cls-49" x="56.32" y="0">T</tspan><tspan x="58.34" y="0">Y</tspan></text><path d="m424.7.5v6.09H.5V.5h424.2m.5-.5H0v7.09h425.2V0h0Z"/></g><g id="Wiring"><line class="cls-33" x1="90.71" y1="53.86" x2="150.24" y2="53.86"/><text class="cls-20" transform="translate(90.71 52.88)"><tspan class="cls-3" x="0" y="0">F</tspan><tspan class="cls-101" x="1.87" y="0">R</tspan><tspan class="cls-133" x="4.24" y="0">A</tspan><tspan class="cls-13" x="6.34" y="0">D</tspan><tspan class="cls-48" x="8.6" y="0">R</tspan><tspan class="cls-59" x="10.96" y="0">A</tspan><tspan class="cls-75" x="12.8" y="0">1</tspan><tspan class="cls-68" x="14.42" y="0">O</tspan><tspan class="cls-66" x="16.84" y="0">PE</tspan><tspan x="20.93" y="0">N</tspan></text><line class="cls-33" x1="189.21" y1="53.86" x2="320.31" y2="53.86"/><text class="cls-20" transform="translate(189.21 52.88)"><tspan class="cls-55" x="0" y="0">G</tspan><tspan class="cls-68" x="2.44" y="0">N</tspan><tspan x="4.7" y="0">D</tspan></text><line class="cls-33" x1="189.21" y1="62.36" x2="320.31" y2="62.36"/><text class="cls-20" transform="translate(189.21 61.39)"><tspan class="cls-152" x="0" y="0">S</tspan><tspan class="cls-50" x="2.08" y="0">E</tspan><tspan class="cls-100" x="4.13" y="0">N</tspan><tspan class="cls-12" x="6.38" y="0">S</tspan><tspan class="cls-47" x="8.44" y="0">O</tspan><tspan class="cls-63" x="10.86" y="0">R</tspan><tspan class="cls-62" x="13.23" y="0">_C</tspan><tspan class="cls-74" x="17.21" y="0">O</tspan><tspan class="cls-84" x="19.64" y="0">N</tspan><tspan class="cls-159" x="21.88" y="0">2</tspan><tspan x="23.6" y="0">8</tspan></text><line class="cls-33" x1="90.71" y1="66.61" x2="150.24" y2="66.61"/><text class="cls-20" transform="translate(90.71 65.64)"><tspan class="cls-112" x="0" y="0">G</tspan><tspan class="cls-1" x="2.44" y="0">N</tspan><tspan class="cls-99" x="4.7" y="0">D</tspan></text><line class="cls-33" x1="90.71" y1="70.87" x2="150.24" y2="70.87"/><text class="cls-20" transform="translate(90.71 69.89)"><tspan class="cls-3" x="0" y="0">F</tspan><tspan class="cls-101" x="1.87" y="0">R</tspan><tspan class="cls-86" x="4.24" y="0">A</tspan><tspan class="cls-39" x="6.48" y="0">_</tspan><tspan class="cls-13" x="8.31" y="0">D</tspan><tspan class="cls-101" x="10.56" y="0">R</tspan><tspan class="cls-104" x="12.92" y="0">A</tspan><tspan class="cls-35" x="14.76" y="0">1</tspan><tspan class="cls-54" x="16.46" y="0">_</tspan><tspan class="cls-68" x="18.29" y="0">R</tspan><tspan class="cls-12" x="20.55" y="0">L</tspan><tspan x="22.28" y="0">N</tspan></text><text class="cls-20" transform="translate(90.71 27.37)"><tspan class="cls-37" x="0" y="0">+</tspan><tspan class="cls-128" x="1.72" y="0">2</tspan><tspan class="cls-92" x="3.41" y="0">4</tspan><tspan class="cls-95" x="5.09" y="0">V</tspan><tspan class="cls-46" x="7.16" y="0">I</tspan><tspan class="cls-145" x="8.08" y="0">N</tspan><tspan class="cls-122" x="10.32" y="0">T</tspan><tspan x="12.23" y="0">P</tspan></text><text class="cls-20" transform="translate(90.71 35.88)"><tspan class="cls-115" x="0" y="0">F</tspan><tspan class="cls-91" x="1.87" y="0">R</tspan><tspan class="cls-97" x="4.24" y="0">A</tspan><tspan class="cls-14" x="6.34" y="0">D</tspan><tspan class="cls-120" x="8.6" y="0">R</tspan><tspan class="cls-158" x="10.81" y="0">W</tspan><tspan class="cls-42" x="13.63" y="0">1</tspan><tspan class="cls-73" x="15.24" y="0">S</tspan><tspan x="17.28" y="0">W</tspan></text><line class="cls-33" x1="90.71" y1="28.35" x2="320.31" y2="28.35"/><line class="cls-33" x1="90.71" y1="36.85" x2="320.31" y2="36.85"/></g><g id="Components"><line class="cls-31" x1="348.66" y1="35.35" x2="353.44" y2="33.22"/><path class="cls-31" d="m353.43,34.82c-.29,0-.53.24-.53.53s.24.53.53.53.53-.24.53-.53-.24-.53-.53-.53Z"/><line class="cls-31" x1="354.33" y1="35.35" x2="353.98" y2="35.35"/><line class="cls-31" x1="347.24" y1="35.35" x2="348.66" y2="35.35"/><line class="cls-31" x1="350.73" y1="33.93" x2="350.73" y2="33.4"/><line class="cls-31" x1="350.73" y1="32.86" x2="350.73" y2="32.33"/><line class="cls-31" x1="350.73" y1="31.8" x2="350.73" y2="31.27"/><line class="cls-31" x1="350.73" y1="30.74" x2="350.73" y2="30.21"/><line class="cls-31" x1="350.73" y1="29.68" x2="350.73" y2="29.14"/><line class="cls-31" x1="350.73" y1="29.68" x2="350.73" y2="29.06"/><polygon class="cls-31" points="349.85 32.16 350.73 30.38 351.62 32.16 349.85 32.16"/><text class="cls-78" transform="translate(374.17 28.35)"><tspan class="cls-81"><tspan class="cls-44" x="0" y="0">2</tspan><tspan class="cls-88" x="1.76" y="0">4</tspan><tspan class="cls-129" x="3.54" y="0">S</tspan><tspan x="5.64" y="0">4</tspan></tspan><tspan class="cls-19"><tspan class="cls-3" x="0" y="3.5">F</tspan><tspan class="cls-101" x="1.87" y="3.5">R</tspan><tspan class="cls-86" x="4.24" y="3.5">A</tspan><tspan class="cls-39" x="6.48" y="3.5">_</tspan><tspan class="cls-13" x="8.31" y="3.5">D</tspan><tspan class="cls-101" x="10.56" y="3.5">R</tspan><tspan class="cls-104" x="12.92" y="3.5">A</tspan><tspan class="cls-35" x="14.76" y="3.5">1</tspan><tspan class="cls-58" x="16.46" y="3.5">_</tspan><tspan class="cls-68" x="18.19" y="3.5">O</tspan><tspan class="cls-66" x="20.62" y="3.5">PE</tspan><tspan class="cls-39" x="24.71" y="3.5">N</tspan><tspan class="cls-157" x="27.04" y="3.5">_</tspan><tspan class="cls-5" x="28.84" y="3.5">S</tspan><tspan class="cls-64" x="30.88" y="3.5">W</tspan><tspan x="33.7" y="3.5">1</tspan></tspan><tspan class="cls-16"><tspan class="cls-90" x="0" y="7">M</tspan><tspan class="cls-94" x="2.59" y="7">e</tspan><tspan class="cls-105" x="4.33" y="7">d</tspan><tspan class="cls-118" x="6.04" y="7">i</tspan><tspan x="6.77" y="7">a </tspan><tspan class="cls-50" x="9.27" y="7">L</tspan><tspan class="cls-65" x="10.99" y="7">o</tspan><tspan class="cls-144" x="12.72" y="7">a</tspan><tspan class="cls-105" x="14.44" y="7">d</tspan><tspan class="cls-45" x="16.16" y="7">in</tspan><tspan x="18.61" y="7">g</tspan></tspan><tspan class="cls-16"><tspan class="cls-57" x="0" y="10.5">D</tspan><tspan class="cls-94" x="2.25" y="10.5">r</tspan><tspan class="cls-113" x="3.32" y="10.5">aw</tspan><tspan class="cls-141" x="7.23" y="10.5">e</tspan><tspan x="8.96" y="10.5">r 1 </tspan><tspan class="cls-41" x="13.29" y="10.5">O</tspan><tspan class="cls-94" x="15.72" y="10.5">p</tspan><tspan class="cls-65" x="17.46" y="10.5">e</tspan><tspan x="19.19" y="10.5">n </tspan><tspan class="cls-44" x="21.69" y="10.5">S</tspan><tspan class="cls-62" x="23.78" y="10.5">w</tspan><tspan class="cls-150" x="26.02" y="10.5">i</tspan><tspan class="cls-148" x="26.74" y="10.5">t</tspan><tspan class="cls-13" x="27.61" y="10.5">c</tspan><tspan x="29.2" y="10.5">h 1</tspan></tspan></text><path class="cls-10" d="m323.15,26.93c-.78,0-1.42.63-1.42,1.42s.63,1.42,1.42,1.42"/><polyline class="cls-9" points="325.98 28.35 324.57 28.35 323.15 28.35"/><line class="cls-18" x1="320.31" y1="28.35" x2="321.73" y2="28.35"/><path class="cls-10" d="m323.15,35.43c-.78,0-1.42.63-1.42,1.42,0,.78.63,1.42,1.42,1.42"/><polyline class="cls-9" points="325.98 36.85 324.57 36.85 323.15 36.85"/><line class="cls-18" x1="320.31" y1="36.85" x2="321.73" y2="36.85"/><polygon class="cls-8" points="327.4 29.76 328.82 28.35 327.4 26.93 327.4 29.76"/><polygon class="cls-11" points="328.82 38.27 327.4 36.85 328.82 35.43 328.82 38.27"/><polyline class="cls-29" points="335.91 26.01 335.91 25.51 335.41 25.51"/><line class="cls-23" x1="334.41" y1="25.51" x2="326.98" y2="25.51"/><polyline class="cls-29" points="326.48 25.51 325.98 25.51 325.98 26.01"/><line class="cls-21" x1="325.98" y1="26.95" x2="325.98" y2="30.21"/><polyline class="cls-29" points="325.98 30.68 325.98 31.18 326.48 31.18"/><line class="cls-23" x1="327.48" y1="31.18" x2="334.91" y2="31.18"/><polyline class="cls-29" points="335.41 31.18 335.91 31.18 335.91 30.68"/><line class="cls-21" x1="335.91" y1="29.75" x2="335.91" y2="26.48"/><polyline class="cls-29" points="335.91 34.52 335.91 34.02 335.41 34.02"/><line class="cls-23" x1="334.41" y1="34.02" x2="326.98" y2="34.02"/><polyline class="cls-29" points="326.48 34.02 325.98 34.02 325.98 34.52"/><line class="cls-21" x1="325.98" y1="35.45" x2="325.98" y2="38.72"/><polyline class="cls-29" points="325.98 39.18 325.98 39.68 326.48 39.68"/><line class="cls-23" x1="327.48" y1="39.68" x2="334.91" y2="39.68"/><polyline class="cls-29" points="335.41 39.68 335.91 39.68 335.91 39.18"/><line class="cls-21" x1="335.91" y1="38.25" x2="335.91" y2="34.98"/><rect class="cls-28" x="325.98" y="24.09" width="42.52" height="17.01"/><text class="cls-80" transform="translate(330.82 29.5)"><tspan x="0" y="0">1</tspan><tspan x="0" y="8.5">2</tspan></text><line class="cls-31" x1="348.66" y1="60.86" x2="353.44" y2="58.73"/><path class="cls-31" d="m353.43,60.33c-.29,0-.53.24-.53.53s.24.53.53.53.53-.24.53-.53-.24-.53-.53-.53Z"/><line class="cls-31" x1="354.33" y1="60.86" x2="353.98" y2="60.86"/><line class="cls-31" x1="347.24" y1="60.86" x2="348.66" y2="60.86"/><line class="cls-31" x1="350.73" y1="59.44" x2="350.73" y2="58.91"/><line class="cls-31" x1="350.73" y1="58.38" x2="350.73" y2="57.84"/><line class="cls-31" x1="350.73" y1="57.31" x2="350.73" y2="56.78"/><line class="cls-31" x1="350.73" y1="56.25" x2="350.73" y2="55.72"/><line class="cls-31" x1="350.73" y1="55.19" x2="350.73" y2="54.66"/><line class="cls-31" x1="350.73" y1="55.19" x2="350.73" y2="54.57"/><polygon class="cls-31" points="349.85 57.67 350.73 55.9 351.62 57.67 349.85 57.67"/><text class="cls-78" transform="translate(374.17 53.86)"><tspan class="cls-81"><tspan class="cls-44" x="0" y="0">2</tspan><tspan class="cls-88" x="1.76" y="0">4</tspan><tspan class="cls-136" x="3.54" y="0">S</tspan><tspan x="5.62" y="0">9</tspan></tspan><tspan class="cls-19"><tspan class="cls-3" x="0" y="3.5">F</tspan><tspan class="cls-101" x="1.87" y="3.5">R</tspan><tspan class="cls-86" x="4.24" y="3.5">A</tspan><tspan class="cls-39" x="6.48" y="3.5">_</tspan><tspan class="cls-13" x="8.31" y="3.5">D</tspan><tspan class="cls-101" x="10.56" y="3.5">R</tspan><tspan class="cls-104" x="12.92" y="3.5">A</tspan><tspan class="cls-35" x="14.76" y="3.5">1</tspan><tspan class="cls-58" x="16.46" y="3.5">_</tspan><tspan class="cls-68" x="18.19" y="3.5">O</tspan><tspan class="cls-66" x="20.62" y="3.5">PE</tspan><tspan class="cls-39" x="24.71" y="3.5">N</tspan><tspan class="cls-157" x="27.04" y="3.5">_</tspan><tspan class="cls-5" x="28.84" y="3.5">S</tspan><tspan class="cls-107" x="30.88" y="3.5">W</tspan><tspan x="33.78" y="3.5">2</tspan></tspan><tspan class="cls-16"><tspan class="cls-90" x="0" y="7">M</tspan><tspan class="cls-94" x="2.59" y="7">e</tspan><tspan class="cls-105" x="4.33" y="7">d</tspan><tspan class="cls-118" x="6.04" y="7">i</tspan><tspan x="6.77" y="7">a </tspan><tspan class="cls-50" x="9.27" y="7">L</tspan><tspan class="cls-65" x="10.99" y="7">o</tspan><tspan class="cls-144" x="12.72" y="7">a</tspan><tspan class="cls-105" x="14.44" y="7">d</tspan><tspan class="cls-45" x="16.16" y="7">in</tspan><tspan x="18.61" y="7">g</tspan></tspan><tspan class="cls-16"><tspan class="cls-57" x="0" y="10.5">D</tspan><tspan class="cls-94" x="2.25" y="10.5">r</tspan><tspan class="cls-113" x="3.32" y="10.5">aw</tspan><tspan class="cls-141" x="7.23" y="10.5">e</tspan><tspan x="8.96" y="10.5">r 1 </tspan><tspan class="cls-41" x="13.29" y="10.5">O</tspan><tspan class="cls-94" x="15.72" y="10.5">p</tspan><tspan class="cls-65" x="17.46" y="10.5">e</tspan><tspan x="19.19" y="10.5">n </tspan><tspan class="cls-44" x="21.69" y="10.5">S</tspan><tspan class="cls-62" x="23.78" y="10.5">w</tspan><tspan class="cls-150" x="26.02" y="10.5">i</tspan><tspan class="cls-148" x="26.74" y="10.5">t</tspan><tspan class="cls-13" x="27.61" y="10.5">c</tspan><tspan x="29.2" y="10.5">h 2</tspan></tspan></text><path class="cls-10" d="m323.15,52.44c-.78,0-1.42.63-1.42,1.42s.63,1.42,1.42,1.42"/><polyline class="cls-9" points="325.98 53.86 324.57 53.86 323.15 53.86"/><line class="cls-18" x1="320.31" y1="53.86" x2="321.73" y2="53.86"/><path class="cls-10" d="m323.15,60.94c-.78,0-1.42.63-1.42,1.42,0,.78.63,1.42,1.42,1.42"/><polyline class="cls-9" points="325.98 62.36 324.57 62.36 323.15 62.36"/><line class="cls-18" x1="320.31" y1="62.36" x2="321.73" y2="62.36"/><polygon class="cls-8" points="327.4 55.28 328.82 53.86 327.4 52.44 327.4 55.28"/><polygon class="cls-11" points="328.82 63.78 327.4 62.36 328.82 60.94 328.82 63.78"/><polyline class="cls-29" points="335.91 51.52 335.91 51.02 335.41 51.02"/><line class="cls-23" x1="334.41" y1="51.02" x2="326.98" y2="51.02"/><polyline class="cls-29" points="326.48 51.02 325.98 51.02 325.98 51.52"/><line class="cls-21" x1="325.98" y1="52.46" x2="325.98" y2="55.73"/><polyline class="cls-29" points="325.98 56.19 325.98 56.69 326.48 56.69"/><line class="cls-23" x1="327.48" y1="56.69" x2="334.91" y2="56.69"/><polyline class="cls-29" points="335.41 56.69 335.91 56.69 335.91 56.19"/><line class="cls-21" x1="335.91" y1="55.26" x2="335.91" y2="51.99"/><polyline class="cls-29" points="335.91 60.03 335.91 59.53 335.41 59.53"/><line class="cls-23" x1="334.41" y1="59.53" x2="326.98" y2="59.53"/><polyline class="cls-29" points="326.48 59.53 325.98 59.53 325.98 60.03"/><line class="cls-21" x1="325.98" y1="60.96" x2="325.98" y2="64.23"/><polyline class="cls-29" points="325.98 64.7 325.98 65.2 326.48 65.2"/><line class="cls-23" x1="327.48" y1="65.2" x2="334.91" y2="65.2"/><polyline class="cls-29" points="335.41 65.2 335.91 65.2 335.91 64.7"/><line class="cls-21" x1="335.91" y1="63.76" x2="335.91" y2="60.49"/><rect class="cls-28" x="325.98" y="49.61" width="42.52" height="17.01"/><text class="cls-80" transform="translate(330.82 55.02)"><tspan x="0" y="0">1</tspan><tspan x="0" y="8.5">2</tspan></text></g><g id="Connectors"><path class="cls-10" d="m87.87,26.93c.78,0,1.42.63,1.42,1.42s-.63,1.42-1.42,1.42"/><polyline class="cls-9" points="85.04 28.35 86.46 28.35 87.87 28.35"/><line class="cls-18" x1="90.71" y1="28.35" x2="89.29" y2="28.35"/><path class="cls-10" d="m87.87,35.43c.78,0,1.42.63,1.42,1.42s-.63,1.42-1.42,1.42"/><polyline class="cls-9" points="85.04 36.85 86.46 36.85 87.87 36.85"/><line class="cls-18" x1="90.71" y1="36.85" x2="89.29" y2="36.85"/><path class="cls-10" d="m153.07,52.44c-.78,0-1.42.63-1.42,1.42s.63,1.42,1.42,1.42"/><polyline class="cls-9" points="155.91 53.86 154.49 53.86 153.07 53.86"/><line class="cls-18" x1="150.24" y1="53.86" x2="151.65" y2="53.86"/><polygon class="cls-8" points="157.32 55.28 158.74 53.86 157.32 52.44 157.32 55.28"/><text class="cls-80" transform="translate(160.16 55.02)"><tspan x="0" y="0">1</tspan></text><polyline class="cls-29" points="165.83 51.52 165.83 51.02 165.33 51.02"/><line class="cls-23" x1="164.34" y1="51.02" x2="156.9" y2="51.02"/><polyline class="cls-29" points="156.41 51.02 155.91 51.02 155.91 51.52"/><line class="cls-26" x1="155.91" y1="52.46" x2="155.91" y2="55.73"/><polyline class="cls-29" points="155.91 56.19 155.91 56.69 156.41 56.69"/><line class="cls-23" x1="157.4" y1="56.69" x2="164.83" y2="56.69"/><polyline class="cls-29" points="165.33 56.69 165.83 56.69 165.83 56.19"/><line class="cls-26" x1="165.83" y1="55.26" x2="165.83" y2="51.99"/><text class="cls-77" transform="translate(158.14 50.33)"><tspan class="cls-127" x="0" y="0">X</tspan><tspan class="cls-160" x="2.02" y="0">6</tspan><tspan x="3.78" y="0">3</tspan></text><polygon class="cls-8" points="157.32 68.03 158.74 66.61 157.32 65.2 157.32 68.03"/><polygon class="cls-8" points="83.62 72.28 82.2 70.87 83.62 69.45 83.62 72.28"/><text class="cls-80" transform="translate(160.16 67.77)"><tspan x="0" y="0">2</tspan><tspan x="0" y="4.25">1</tspan></text><polyline class="cls-29" points="165.83 64.28 165.83 63.78 165.33 63.78"/><line class="cls-23" x1="164.34" y1="63.78" x2="156.9" y2="63.78"/><polyline class="cls-29" points="156.41 63.78 155.91 63.78 155.91 64.28"/><line class="cls-30" x1="155.91" y1="65.27" x2="155.91" y2="72.71"/><polyline class="cls-29" points="155.91 73.2 155.91 73.7 156.41 73.7"/><line class="cls-23" x1="157.4" y1="73.7" x2="164.83" y2="73.7"/><polyline class="cls-29" points="165.33 73.7 165.83 73.7 165.83 73.2"/><line class="cls-30" x1="165.83" y1="72.21" x2="165.83" y2="64.78"/><text class="cls-77" transform="translate(158.13 63.08)"><tspan class="cls-127" x="0" y="0">X</tspan><tspan class="cls-121" x="2.02" y="0">6</tspan><tspan x="3.81" y="0">4</tspan></text><path class="cls-10" d="m87.87,52.44c.78,0,1.42.63,1.42,1.42s-.63,1.42-1.42,1.42"/><polyline class="cls-9" points="85.04 53.86 86.46 53.86 87.87 53.86"/><line class="cls-18" x1="90.71" y1="53.86" x2="89.29" y2="53.86"/><path class="cls-10" d="m187.09,52.44c.78,0,1.42.63,1.42,1.42s-.63,1.42-1.42,1.42"/><polyline class="cls-9" points="184.25 53.86 185.67 53.86 187.09 53.86"/><line class="cls-18" x1="189.92" y1="53.86" x2="188.5" y2="53.86"/><path class="cls-10" d="m187.09,60.94c.78,0,1.42.63,1.42,1.42s-.63,1.42-1.42,1.42"/><polyline class="cls-9" points="184.25 62.36 185.67 62.36 187.09 62.36"/><line class="cls-18" x1="189.92" y1="62.36" x2="188.5" y2="62.36"/><path class="cls-10" d="m153.07,65.2c-.78,0-1.42.63-1.42,1.42s.63,1.42,1.42,1.42"/><polyline class="cls-9" points="155.91 66.61 154.49 66.61 153.07 66.61"/><line class="cls-18" x1="150.24" y1="66.61" x2="151.65" y2="66.61"/><path class="cls-10" d="m87.87,65.2c.78,0,1.42.63,1.42,1.42s-.63,1.42-1.42,1.42"/><polyline class="cls-9" points="85.04 66.61 86.46 66.61 87.87 66.61"/><line class="cls-18" x1="90.71" y1="66.61" x2="89.29" y2="66.61"/><path class="cls-10" d="m153.07,69.45c-.78,0-1.42.63-1.42,1.42s.63,1.42,1.42,1.42"/><polyline class="cls-9" points="155.91 70.87 154.49 70.87 153.07 70.87"/><line class="cls-18" x1="150.24" y1="70.87" x2="151.65" y2="70.87"/><path class="cls-10" d="m87.87,69.45c.78,0,1.42.63,1.42,1.42s-.63,1.42-1.42,1.42"/><polyline class="cls-9" points="85.04 70.87 86.46 70.87 87.87 70.87"/><line class="cls-18" x1="90.71" y1="70.87" x2="89.29" y2="70.87"/><polygon class="cls-11" points="82.2 55.28 83.62 53.86 82.2 52.44 82.2 55.28"/><polygon class="cls-11" points="82.2 68.03 83.62 66.61 82.2 65.2 82.2 68.03"/><polygon class="cls-11" points="158.74 72.28 157.32 70.87 158.74 69.45 158.74 72.28"/><text class="cls-80" transform="translate(77.95 55.02)"><tspan x="0" y="0">2</tspan><tspan x="0" y="12.75">5</tspan><tspan x="0" y="17">7</tspan></text><text class="cls-77" transform="translate(77.46 50.33)"><tspan class="cls-96" x="0" y="0">X</tspan><tspan x="2.16" y="0">2</tspan></text><polyline class="cls-29" points="85.04 51.52 85.04 51.02 84.54 51.02"/><line class="cls-23" x1="83.55" y1="51.02" x2="76.11" y2="51.02"/><polyline class="cls-29" points="75.62 51.02 75.12 51.02 75.12 51.52"/><line class="cls-24" x1="75.12" y1="52.56" x2="75.12" y2="72.68"/><polyline class="cls-29" points="75.12 73.2 75.12 73.7 75.62 73.7"/><line class="cls-23" x1="76.61" y1="73.7" x2="84.04" y2="73.7"/><polyline class="cls-29" points="84.54 73.7 85.04 73.7 85.04 73.2"/><line class="cls-24" x1="85.04" y1="72.17" x2="85.04" y2="52.04"/><polygon class="cls-11" points="181.42 55.28 182.83 53.86 181.42 52.44 181.42 55.28"/><polygon class="cls-8" points="182.83 63.78 181.42 62.36 182.83 60.94 182.83 63.78"/><text class="cls-80" transform="translate(177.17 55.02)"><tspan x="0" y="0">6</tspan><tspan x="0" y="8.5">5</tspan></text><text class="cls-77" transform="translate(175.86 50.33)"><tspan class="cls-153" x="0" y="0">X</tspan><tspan class="cls-130" x="2.04" y="0">9</tspan><tspan x="3.77" y="0">2</tspan></text><polyline class="cls-29" points="184.25 51.52 184.25 51.02 183.75 51.02"/><line class="cls-23" x1="182.76" y1="51.02" x2="175.33" y2="51.02"/><polyline class="cls-29" points="174.83 51.02 174.33 51.02 174.33 51.52"/><line class="cls-25" x1="174.33" y1="52.54" x2="174.33" y2="64.19"/><polyline class="cls-29" points="174.33 64.7 174.33 65.2 174.83 65.2"/><line class="cls-23" x1="175.82" y1="65.2" x2="183.26" y2="65.2"/><polyline class="cls-29" points="183.75 65.2 184.25 65.2 184.25 64.7"/><line class="cls-25" x1="184.25" y1="63.68" x2="184.25" y2="52.03"/><polygon class="cls-8" points="83.62 38.27 82.2 36.85 83.62 35.43 83.62 38.27"/><polygon class="cls-11" points="82.2 29.76 83.62 28.35 82.2 26.93 82.2 29.76"/><text class="cls-80" transform="translate(77.95 29.5)"><tspan x="0" y="0">1</tspan><tspan x="0" y="8.5">8</tspan></text><text class="cls-77" transform="translate(76.81 24.82)"><tspan class="cls-36" x="0" y="0">X</tspan><tspan class="cls-117" x="1.91" y="0">1</tspan><tspan x="3.45" y="0">1</tspan></text><polyline class="cls-29" points="85.04 26.01 85.04 25.51 84.54 25.51"/><line class="cls-27" x1="83.55" y1="25.51" x2="76.11" y2="25.51"/><polyline class="cls-29" points="75.62 25.51 75.12 25.51 75.12 26.01"/><line class="cls-22" x1="75.12" y1="27.08" x2="75.12" y2="39.36"/><polyline class="cls-29" points="75.12 39.89 75.12 40.39 75.62 40.39"/><line class="cls-27" x1="76.61" y1="40.39" x2="84.04" y2="40.39"/><polyline class="cls-29" points="84.54 40.39 85.04 40.39 85.04 39.89"/><line class="cls-22" x1="85.04" y1="38.83" x2="85.04" y2="26.55"/></g><g id="PBA"><polygon class="cls-83" points="49.61 35.43 42.52 35.43 42.52 28.35 49.61 28.35 49.61 24.8 56.69 31.89 49.61 38.98 49.61 35.43"/><rect class="cls-32" x="56.69" y="21.26" width="28.35" height="55.28"/><text class="cls-82" transform="translate(56.69 19.84)"><tspan class="cls-116" x="0" y="0">22</tspan><tspan class="cls-149" x="4.69" y="0">P</tspan><tspan class="cls-69" x="7.41" y="0">B</tspan><tspan class="cls-131" x="10.36" y="0">A</tspan><tspan class="cls-155" x="13.29" y="0">0</tspan><tspan x="15.59" y="0">2</tspan></text><text class="cls-17" transform="translate(56.69 15.68)"><tspan class="cls-43" x="0" y="0">DI</tspan><tspan class="cls-113" x="3.14" y="0">S</tspan><tspan class="cls-108" x="5.18" y="0">T</tspan><tspan class="cls-4" x="7.09" y="0">R</tspan><tspan class="cls-13" x="9.32" y="0">I</tspan><tspan class="cls-114" x="10.24" y="0">BU</tspan><tspan class="cls-45" x="14.54" y="0">T</tspan><tspan class="cls-137" x="16.43" y="0">I</tspan><tspan class="cls-74" x="17.34" y="0">O</tspan><tspan x="19.77" y="0">N</tspan></text><rect class="cls-32" x="155.91" y="46.77" width="28.35" height="29.76"/><text class="cls-82" transform="translate(155.91 45.35)"><tspan class="cls-71" x="0" y="0">1</tspan><tspan class="cls-41" x="2.16" y="0">2</tspan><tspan class="cls-149" x="4.51" y="0">P</tspan><tspan class="cls-69" x="7.22" y="0">B</tspan><tspan class="cls-2" x="10.18" y="0">A</tspan><tspan class="cls-52" x="12.89" y="0">1</tspan><tspan x="15.08" y="0">0</tspan></text><text class="cls-17" transform="translate(155.91 41.19)"><tspan class="cls-137" x="0" y="0">I</tspan><tspan class="cls-146" x=".91" y="0">O</tspan><tspan class="cls-132" x="3.34" y="0">B</tspan><tspan class="cls-40" x="5.4" y="0">O</tspan><tspan class="cls-89" x="7.76" y="0">A</tspan><tspan class="cls-51" x="9.87" y="0">R</tspan><tspan x="12.12" y="0">D </tspan><tspan class="cls-138" x="15.12" y="0">D</tspan><tspan class="cls-101" x="17.37" y="0">R</tspan><tspan class="cls-154" x="19.74" y="0">A</tspan><tspan class="cls-87" x="21.72" y="0">W</tspan><tspan class="cls-6" x="24.64" y="0">E</tspan><tspan x="26.69" y="0">R</tspan></text><rect class="cls-34" x="7.09" y="21.26" width="35.43" height="21.26"/><text class="cls-81" transform="translate(9.21 30.55)"><tspan class="cls-60"><tspan class="cls-140" x="0" y="0">2</tspan><tspan x="5.69" y="0">2</tspan></tspan><tspan class="cls-98"><tspan class="cls-125" x="0" y="4.8">PO</tspan><tspan class="cls-7" x="5.95" y="4.8">W</tspan><tspan class="cls-124" x="9.85" y="4.8">E</tspan><tspan x="12.62" y="4.8">R</tspan></tspan><tspan class="cls-98"><tspan class="cls-106" x="0" y="9.6">S</tspan><tspan class="cls-85" x="2.74" y="9.6">U</tspan><tspan class="cls-76" x="5.73" y="9.6">P</tspan><tspan class="cls-134" x="8.45" y="9.6">P</tspan><tspan class="cls-147" x="11.15" y="9.6">L</tspan><tspan x="13.33" y="9.6">Y</tspan></tspan></text></g></svg>