<?xml version="1.0" encoding="UTF-8"?><svg xmlns="http://www.w3.org/2000/svg" viewBox="0 0 299.91 535.75"><defs><style>.cls-1,.cls-2{fill:#fff;}.cls-2,.cls-3,.cls-4,.cls-5,.cls-6{stroke:#000;}.cls-2,.cls-3,.cls-4,.cls-5,.cls-6,.cls-7{stroke-linecap:round;stroke-linejoin:round;}.cls-2,.cls-4,.cls-5,.cls-6,.cls-7{stroke-width:.5px;}.cls-8{fill:#ffe0b2;}.cls-9{letter-spacing:-.06em;}.cls-3{stroke-width:.25px;}.cls-3,.cls-4,.cls-7{fill:none;}.cls-10{font-family:Arial-BoldMT, Arial;font-size:6px;font-weight:700;}.cls-5{fill:#bbdefb;}.cls-11{font-family:ArialMT, Arial;font-size:4px;}.cls-6{fill:#c8e6c9;}.cls-7{stroke:#e0e0e0;}.cls-12{letter-spacing:-.09em;}</style></defs><g id="Bckground"><rect class="cls-1" width="299.91" height="535.75"/></g><g id="Frame"><rect class="cls-7" x="5.67" y="5.67" width="289.13" height="325.98"/><rect class="cls-7" x="5.67" y="331.65" width="289.13" height="198.43"/><text class="cls-10" transform="translate(8.5 13.65)"><tspan x="0" y="0">Customer / Remote support</tspan></text><text class="cls-10" transform="translate(8.5 340.16)"><tspan x="0" y="0">Field engineer</tspan></text></g><g id="Blocks"><rect class="cls-5" x="113.39" y="70.87" width="56.69" height="28.35"/><text class="cls-11" transform="translate(124.95 86.47)"><tspan x="0" y="0">Clean or cut media</tspan></text><rect class="cls-5" x="113.39" y="127.56" width="56.69" height="28.35"/><text class="cls-11" transform="translate(126.95 143.16)"><tspan x="0" y="0">Use white media</tspan></text><rect class="cls-8" x="28.35" y="21.26" width="56.69" height="14.17" rx="5.67" ry="5.67"/><rect class="cls-4" x="28.35" y="21.26" width="56.69" height="14.17" rx="5.67" ry="5.67"/><text class="cls-11" transform="translate(52.47 29.69)"><tspan x="0" y="0">Start</tspan></text><rect class="cls-8" x="28.35" y="510.24" width="56.69" height="14.17" rx="5.67" ry="5.67"/><rect class="cls-4" x="28.35" y="510.24" width="56.69" height="14.17" rx="5.67" ry="5.67"/><text class="cls-11" transform="translate(53.13 518.67)"><tspan x="0" y="0">End</tspan></text><path class="cls-6" d="M56.69,42.52l28.35,14.17-28.35,14.17-28.35-14.17,28.35-14.17Z"/><text class="cls-11" transform="translate(44.8 58.12)"><tspan x="0" y="0">Media clean?</tspan></text><path class="cls-6" d="M56.69,99.21l28.35,14.17-28.35,14.17-28.35-14.17,28.35-14.17Z"/><text class="cls-11" transform="translate(44.47 114.82)"><tspan x="0" y="0">White media?</tspan></text><rect class="cls-5" x="113.39" y="184.25" width="56.69" height="28.35"/><text class="cls-11" transform="translate(123.73 199.86)"><tspan x="0" y="0">Clean M&amp;C-scanner</tspan></text><path class="cls-6" d="M56.69,155.91l28.35,14.17-28.35,14.17-28.35-14.17,28.35-14.17Z"/><text class="cls-11" transform="translate(44.47 169.11)"><tspan x="0" y="0">M&amp;C-scanner </tspan><tspan x="6.33" y="4.8">clean?</tspan></text><rect class="cls-5" x="212.6" y="240.94" width="56.69" height="28.35"/><text class="cls-11" transform="translate(222.38 256.55)"><tspan x="0" y="0">Manual maintenance</tspan></text><path class="cls-6" d="M56.69,212.6l28.35,14.17-28.35,14.17-28.35-14.17,28.35-14.17Z"/><text class="cls-11" transform="translate(42.57 225.8)"><tspan x="0" y="0">Printed patterns </tspan><tspan x="8.56" y="4.8">good?</tspan></text><rect class="cls-5" x="113.39" y="297.64" width="56.69" height="28.35"/><text class="cls-11" transform="translate(125.95 313.24)"><tspan x="0" y="0">Mount ruler in clip</tspan></text><path class="cls-6" d="M56.69,269.29l28.35,14.17-28.35,14.17-28.35-14.17,28.35-14.17Z"/><text class="cls-11" transform="translate(43.57 282.5)"><tspan x="0" y="0">Ruler mounted </tspan><tspan x="4.45" y="4.8">correctly?</tspan></text><rect class="cls-5" x="113.39" y="382.68" width="56.69" height="28.35"/><text class="cls-11" transform="translate(125.17 395.88)"><tspan x="0" y="0">Reposition/replace</tspan><tspan x="4.78" y="4.8">ruler encoder</tspan></text><rect class="cls-5" x="212.6" y="382.68" width="56.69" height="28.35"/><text class="cls-11" transform="translate(224.38 395.88)"><tspan x="0" y="0">Reposition/replace</tspan><tspan x="4.78" y="4.8">ruler encoder</tspan></text><path class="cls-6" d="M56.69,354.33l28.35,14.17-28.35,14.17-28.35-14.17,28.35-14.17Z"/><text class="cls-11" transform="translate(39.57 367.54)"><tspan x="0" y="0">Encoder positioned </tspan><tspan x="8.45" y="4.8">correctly?</tspan></text><rect class="cls-5" x="113.39" y="439.37" width="56.69" height="28.35"/><text class="cls-11" transform="translate(121.61 454.98)"><tspan x="0" y="0">Replace M&amp;C-scanner</tspan></text><path class="cls-6" d="M56.69,411.02l28.35,14.17-28.35,14.17-28.35-14.17,28.35-14.17Z"/><text class="cls-11" transform="translate(44.47 424.23)"><tspan x="0" y="0">M&amp;C-scanner </tspan><tspan x="6.66" y="4.8">good?</tspan></text><rect class="cls-5" x="28.35" y="467.72" width="56.69" height="28.35"/><text class="cls-11" transform="translate(35.69 483.32)"><tspan x="0" y="0">Check Z-motion system</tspan></text><rect class="cls-8" x="178.58" y="304.72" width="56.69" height="14.17" rx="5.67" ry="5.67"/><rect class="cls-4" x="178.58" y="304.72" width="56.69" height="14.17" rx="5.67" ry="5.67"/><text class="cls-11" transform="translate(203.37 313.16)"><tspan x="0" y="0">End</tspan></text><rect class="cls-8" x="212.6" y="191.34" width="56.69" height="14.17" rx="5.67" ry="5.67"/><rect class="cls-4" x="212.6" y="191.34" width="56.69" height="14.17" rx="5.67" ry="5.67"/><text class="cls-11" transform="translate(237.39 199.77)"><tspan x="0" y="0">End</tspan></text></g><g id="Lines"><line class="cls-8" x1="56.69" y1="35.43" x2="56.69" y2="42.52"/><line class="cls-3" x1="56.69" y1="35.43" x2="56.69" y2="40.26"/><path d="M56.69,42.52c-.4-1.06-1.07-2.39-1.78-3.21l1.78.65,1.78-.65c-.71.82-1.39,2.14-1.78,3.21Z"/><line class="cls-8" x1="56.69" y1="496.06" x2="56.69" y2="510.24"/><line class="cls-3" x1="56.69" y1="496.06" x2="56.69" y2="507.97"/><path d="M56.69,510.24c-.4-1.06-1.07-2.39-1.78-3.21l1.78.65,1.78-.65c-.71.82-1.39,2.14-1.78,3.21Z"/><line class="cls-8" x1="56.69" y1="70.87" x2="56.69" y2="99.21"/><line class="cls-3" x1="56.69" y1="70.87" x2="56.69" y2="96.95"/><path d="M56.69,99.21c-.4-1.06-1.07-2.39-1.78-3.21l1.78.65,1.78-.65c-.71.82-1.39,2.14-1.78,3.21Z"/><polyline class="cls-3" points="85.04 56.69 141.73 56.69 141.73 68.6"/><path d="M141.73,70.87c-.4-1.06-1.07-2.39-1.78-3.21l1.78.65,1.78-.65c-.71.82-1.39,2.14-1.78,3.21Z"/><path class="cls-1" d="M97.09,56.69c0,1.56-1.28,2.83-2.83,2.83h-4.25c-1.56,0-2.83-1.28-2.83-2.83h0c0-1.56,1.28-2.83,2.83-2.83h4.25c1.56,0,2.83,1.28,2.83,2.83h0Z"/><path class="cls-4" d="M97.09,56.69c0,1.56-1.28,2.83-2.83,2.83h-4.25c-1.56,0-2.83-1.28-2.83-2.83h0c0-1.56,1.28-2.83,2.83-2.83h4.25c1.56,0,2.83,1.28,2.83,2.83h0Z"/><text class="cls-11" transform="translate(89.57 58.19)"><tspan x="0" y="0">No</tspan></text><polyline class="cls-3" points="85.04 113.39 141.73 113.39 141.73 125.3"/><path d="M141.73,127.56c-.4-1.06-1.07-2.39-1.78-3.21l1.78.65,1.78-.65c-.71.82-1.39,2.14-1.78,3.21Z"/><path class="cls-1" d="M97.09,113.39c0,1.56-1.28,2.83-2.83,2.83h-4.25c-1.56,0-2.83-1.28-2.83-2.83h0c0-1.56,1.28-2.83,2.83-2.83h4.25c1.56,0,2.83,1.28,2.83,2.83h0Z"/><path class="cls-4" d="M97.09,113.39c0,1.56-1.28,2.83-2.83,2.83h-4.25c-1.56,0-2.83-1.28-2.83-2.83h0c0-1.56,1.28-2.83,2.83-2.83h4.25c1.56,0,2.83,1.28,2.83,2.83h0Z"/><text class="cls-11" transform="translate(89.57 114.88)"><tspan x="0" y="0">No</tspan></text><path class="cls-1" d="M61.65,76.54c0,1.56-1.28,2.83-2.83,2.83h-4.25c-1.56,0-2.83-1.28-2.83-2.83s1.28-2.83,2.83-2.83h4.25c1.56,0,2.83,1.28,2.83,2.83Z"/><path class="cls-4" d="M61.65,76.54c0,1.56-1.28,2.83-2.83,2.83h-4.25c-1.56,0-2.83-1.28-2.83-2.83s1.28-2.83,2.83-2.83h4.25c1.56,0,2.83,1.28,2.83,2.83Z"/><text class="cls-11" transform="translate(53.43 78.03)"><tspan class="cls-12" x="0" y="0">Y</tspan><tspan x="2.3" y="0">es</tspan></text><line class="cls-8" x1="56.69" y1="127.56" x2="56.69" y2="155.91"/><line class="cls-3" x1="56.69" y1="127.56" x2="56.69" y2="153.64"/><path d="M56.69,155.91c-.4-1.06-1.07-2.39-1.78-3.21l1.78.65,1.78-.65c-.71.82-1.39,2.14-1.78,3.21Z"/><path class="cls-1" d="M61.65,133.23c0,1.56-1.28,2.83-2.83,2.83h-4.25c-1.56,0-2.83-1.28-2.83-2.83s1.28-2.83,2.83-2.83h4.25c1.56,0,2.83,1.28,2.83,2.83Z"/><path class="cls-4" d="M61.65,133.23c0,1.56-1.28,2.83-2.83,2.83h-4.25c-1.56,0-2.83-1.28-2.83-2.83s1.28-2.83,2.83-2.83h4.25c1.56,0,2.83,1.28,2.83,2.83Z"/><text class="cls-11" transform="translate(53.43 134.72)"><tspan class="cls-12" x="0" y="0">Y</tspan><tspan x="2.3" y="0">es</tspan></text><polyline class="cls-3" points="85.04 170.08 141.73 170.08 141.73 181.99"/><path d="M141.73,184.25c-.4-1.06-1.07-2.39-1.78-3.21l1.78.65,1.78-.65c-.71.82-1.39,2.14-1.78,3.21Z"/><path class="cls-1" d="M97.09,170.08c0,1.56-1.28,2.83-2.83,2.83h-4.25c-1.56,0-2.83-1.28-2.83-2.83h0c0-1.56,1.28-2.83,2.83-2.83h4.25c1.56,0,2.83,1.28,2.83,2.83h0Z"/><path class="cls-4" d="M97.09,170.08c0,1.56-1.28,2.83-2.83,2.83h-4.25c-1.56,0-2.83-1.28-2.83-2.83h0c0-1.56,1.28-2.83,2.83-2.83h4.25c1.56,0,2.83,1.28,2.83,2.83h0Z"/><text class="cls-11" transform="translate(89.57 171.57)"><tspan x="0" y="0">No</tspan></text><line class="cls-8" x1="56.69" y1="184.25" x2="56.69" y2="212.6"/><line class="cls-3" x1="56.69" y1="184.25" x2="56.69" y2="210.34"/><path d="M56.69,212.6c-.4-1.06-1.07-2.39-1.78-3.21l1.78.65,1.78-.65c-.71.82-1.39,2.14-1.78,3.21Z"/><path class="cls-1" d="M61.65,189.92c0,1.56-1.28,2.83-2.83,2.83h-4.25c-1.56,0-2.83-1.28-2.83-2.83s1.28-2.83,2.83-2.83h4.25c1.56,0,2.83,1.28,2.83,2.83Z"/><path class="cls-4" d="M61.65,189.92c0,1.56-1.28,2.83-2.83,2.83h-4.25c-1.56,0-2.83-1.28-2.83-2.83s1.28-2.83,2.83-2.83h4.25c1.56,0,2.83,1.28,2.83,2.83Z"/><text class="cls-11" transform="translate(53.43 191.41)"><tspan class="cls-12" x="0" y="0">Y</tspan><tspan x="2.3" y="0">es</tspan></text><polyline class="cls-3" points="85.04 226.77 240.94 226.77 240.94 238.68"/><path d="M240.94,240.94c-.4-1.06-1.07-2.39-1.78-3.21l1.78.65,1.78-.65c-.71.82-1.39,2.14-1.78,3.21Z"/><path class="cls-1" d="M97.09,226.77c0,1.56-1.28,2.83-2.83,2.83h-4.25c-1.56,0-2.83-1.28-2.83-2.83h0c0-1.56,1.28-2.83,2.83-2.83h4.25c1.56,0,2.83,1.28,2.83,2.83h0Z"/><path class="cls-4" d="M97.09,226.77c0,1.56-1.28,2.83-2.83,2.83h-4.25c-1.56,0-2.83-1.28-2.83-2.83h0c0-1.56,1.28-2.83,2.83-2.83h4.25c1.56,0,2.83,1.28,2.83,2.83h0Z"/><text class="cls-11" transform="translate(89.57 228.26)"><tspan x="0" y="0">No</tspan></text><line class="cls-8" x1="56.69" y1="240.94" x2="56.69" y2="269.29"/><line class="cls-3" x1="56.69" y1="240.94" x2="56.69" y2="267.03"/><path d="M56.69,269.29c-.4-1.06-1.07-2.39-1.78-3.21l1.78.65,1.78-.65c-.71.82-1.39,2.14-1.78,3.21Z"/><path class="cls-1" d="M61.65,246.61c0,1.56-1.28,2.83-2.83,2.83h-4.25c-1.56,0-2.83-1.28-2.83-2.83s1.28-2.83,2.83-2.83h4.25c1.56,0,2.83,1.28,2.83,2.83Z"/><path class="cls-4" d="M61.65,246.61c0,1.56-1.28,2.83-2.83,2.83h-4.25c-1.56,0-2.83-1.28-2.83-2.83s1.28-2.83,2.83-2.83h4.25c1.56,0,2.83,1.28,2.83,2.83Z"/><text class="cls-11" transform="translate(53.43 248.11)"><tspan class="cls-12" x="0" y="0">Y</tspan><tspan x="2.3" y="0">es</tspan></text><polyline class="cls-3" points="85.04 283.46 141.73 283.46 141.73 295.37"/><path d="M141.73,297.64c-.4-1.06-1.07-2.39-1.78-3.21l1.78.65,1.78-.65c-.71.82-1.39,2.14-1.78,3.21Z"/><path class="cls-1" d="M97.09,283.46c0,1.56-1.28,2.83-2.83,2.83h-4.25c-1.56,0-2.83-1.28-2.83-2.83h0c0-1.56,1.28-2.83,2.83-2.83h4.25c1.56,0,2.83,1.28,2.83,2.83h0Z"/><path class="cls-4" d="M97.09,283.46c0,1.56-1.28,2.83-2.83,2.83h-4.25c-1.56,0-2.83-1.28-2.83-2.83h0c0-1.56,1.28-2.83,2.83-2.83h4.25c1.56,0,2.83,1.28,2.83,2.83h0Z"/><text class="cls-11" transform="translate(89.57 284.96)"><tspan x="0" y="0">No</tspan></text><line class="cls-8" x1="56.69" y1="297.64" x2="56.69" y2="354.33"/><line class="cls-3" x1="56.69" y1="297.64" x2="56.69" y2="352.07"/><path d="M56.69,354.33c-.4-1.06-1.07-2.39-1.78-3.21l1.78.65,1.78-.65c-.71.82-1.39,2.14-1.78,3.21Z"/><path class="cls-1" d="M61.65,303.31c0,1.56-1.28,2.83-2.83,2.83h-4.25c-1.56,0-2.83-1.28-2.83-2.83s1.28-2.83,2.83-2.83h4.25c1.56,0,2.83,1.28,2.83,2.83Z"/><path class="cls-4" d="M61.65,303.31c0,1.56-1.28,2.83-2.83,2.83h-4.25c-1.56,0-2.83-1.28-2.83-2.83s1.28-2.83,2.83-2.83h4.25c1.56,0,2.83,1.28,2.83,2.83Z"/><text class="cls-11" transform="translate(53.43 304.8)"><tspan class="cls-12" x="0" y="0">Y</tspan><tspan x="2.3" y="0">es</tspan></text><polyline class="cls-3" points="85.04 368.5 141.73 368.5 141.73 380.41"/><path d="M141.73,382.68c-.4-1.06-1.07-2.39-1.78-3.21l1.78.65,1.78-.65c-.71.82-1.39,2.14-1.78,3.21Z"/><path class="cls-1" d="M97.09,368.5c0,1.56-1.28,2.83-2.83,2.83h-4.25c-1.56,0-2.83-1.28-2.83-2.83h0c0-1.56,1.28-2.83,2.83-2.83h4.25c1.56,0,2.83,1.28,2.83,2.83h0Z"/><path class="cls-4" d="M97.09,368.5c0,1.56-1.28,2.83-2.83,2.83h-4.25c-1.56,0-2.83-1.28-2.83-2.83h0c0-1.56,1.28-2.83,2.83-2.83h4.25c1.56,0,2.83,1.28,2.83,2.83h0Z"/><text class="cls-11" transform="translate(89.57 370)"><tspan x="0" y="0">No</tspan></text><line class="cls-8" x1="56.69" y1="382.68" x2="56.69" y2="411.02"/><line class="cls-3" x1="56.69" y1="382.68" x2="56.69" y2="408.76"/><path d="M56.69,411.02c-.4-1.06-1.07-2.39-1.78-3.21l1.78.65,1.78-.65c-.71.82-1.39,2.14-1.78,3.21Z"/><path class="cls-1" d="M61.65,388.35c0,1.56-1.28,2.83-2.83,2.83h-4.25c-1.56,0-2.83-1.28-2.83-2.83s1.28-2.83,2.83-2.83h4.25c1.56,0,2.83,1.28,2.83,2.83Z"/><path class="cls-4" d="M61.65,388.35c0,1.56-1.28,2.83-2.83,2.83h-4.25c-1.56,0-2.83-1.28-2.83-2.83s1.28-2.83,2.83-2.83h4.25c1.56,0,2.83,1.28,2.83,2.83Z"/><text class="cls-11" transform="translate(53.43 389.84)"><tspan class="cls-12" x="0" y="0">Y</tspan><tspan x="2.3" y="0">es</tspan></text><polyline class="cls-3" points="85.04 425.2 141.73 425.2 141.73 437.11"/><path d="M141.73,439.37c-.4-1.06-1.07-2.39-1.78-3.21l1.78.65,1.78-.65c-.71.82-1.39,2.14-1.78,3.21Z"/><polyline class="cls-3" points="141.73 467.72 141.73 517.32 87.3 517.32"/><path d="M85.04,517.32c1.06-.4,2.39-1.07,3.21-1.78l-.65,1.78.65,1.78c-.82-.71-2.14-1.39-3.21-1.78Z"/><polyline class="cls-3" points="240.94 411.02 240.94 517.32 186.52 517.32"/><path d="M184.25,517.32c1.06-.4,2.39-1.07,3.21-1.78l-.65,1.78.65,1.78c-.82-.71-2.14-1.39-3.21-1.78Z"/><path class="cls-1" d="M97.09,425.2c0,1.56-1.28,2.83-2.83,2.83h-4.25c-1.56,0-2.83-1.28-2.83-2.83h0c0-1.56,1.28-2.83,2.83-2.83h4.25c1.56,0,2.83,1.28,2.83,2.83h0Z"/><path class="cls-4" d="M97.09,425.2c0,1.56-1.28,2.83-2.83,2.83h-4.25c-1.56,0-2.83-1.28-2.83-2.83h0c0-1.56,1.28-2.83,2.83-2.83h4.25c1.56,0,2.83,1.28,2.83,2.83h0Z"/><text class="cls-11" transform="translate(89.57 426.69)"><tspan x="0" y="0">No</tspan></text><line class="cls-8" x1="56.69" y1="439.37" x2="56.69" y2="467.72"/><line class="cls-3" x1="56.69" y1="439.37" x2="56.69" y2="465.45"/><path d="M56.69,467.72c-.4-1.06-1.07-2.39-1.78-3.21l1.78.65,1.78-.65c-.71.82-1.39,2.14-1.78,3.21Z"/><path class="cls-1" d="M61.65,445.04c0,1.56-1.28,2.83-2.83,2.83h-4.25c-1.56,0-2.83-1.28-2.83-2.83s1.28-2.83,2.83-2.83h4.25c1.56,0,2.83,1.28,2.83,2.83Z"/><path class="cls-4" d="M61.65,445.04c0,1.56-1.28,2.83-2.83,2.83h-4.25c-1.56,0-2.83-1.28-2.83-2.83s1.28-2.83,2.83-2.83h4.25c1.56,0,2.83,1.28,2.83,2.83Z"/><text class="cls-11" transform="translate(53.43 446.53)"><tspan class="cls-12" x="0" y="0">Y</tspan><tspan x="2.3" y="0">es</tspan></text><line class="cls-8" x1="240.94" y1="269.29" x2="240.94" y2="382.68"/><line class="cls-3" x1="240.94" y1="269.29" x2="240.94" y2="380.41"/><path d="M240.94,382.68c-.4-1.06-1.07-2.39-1.78-3.21l1.78.65,1.78-.65c-.71.82-1.39,2.14-1.78,3.21Z"/><polyline class="cls-3" points="170.08 85.04 240.94 85.04 240.94 139.47"/><path d="M240.94,141.73c-.4-1.06-1.07-2.39-1.78-3.21l1.78.65,1.78-.65c-.71.82-1.39,2.14-1.78,3.21Z"/><polyline class="cls-3" points="170.08 141.73 240.94 141.73 240.94 189.08"/><path d="M240.94,191.34c-.4-1.06-1.07-2.39-1.78-3.21l1.78.65,1.78-.65c-.71.82-1.39,2.14-1.78,3.21Z"/><line class="cls-3" x1="170.08" y1="311.81" x2="176.32" y2="311.81"/><path d="M178.58,311.81c-1.06.4-2.39,1.07-3.21,1.78l.65-1.78-.65-1.78c.82.71,2.14,1.39,3.21,1.78Z"/><line class="cls-3" x1="170.08" y1="198.42" x2="210.33" y2="198.42"/><path d="M212.6,198.42c-1.06.4-2.39,1.07-3.21,1.78l.65-1.78-.65-1.78c.82.71,2.14,1.39,3.21,1.78Z"/><polyline class="cls-3" points="170.08 396.85 184.25 396.85 184.25 517.32 144 517.32"/><path d="M141.73,517.32c1.06-.4,2.39-1.07,3.21-1.78l-.65,1.78.65,1.78c-.82-.71-2.14-1.39-3.21-1.78Z"/></g><g id="Numbers"><circle class="cls-2" cx="22.68" cy="56.69" r="5.67"/><text class="cls-10" transform="translate(21.01 58.7)"><tspan x="0" y="0">1</tspan></text><circle class="cls-2" cx="107.72" cy="85.04" r="5.67"/><text class="cls-10" transform="translate(106.05 87.05)"><tspan x="0" y="0">2</tspan></text><circle class="cls-2" cx="22.68" cy="113.39" r="5.67"/><text class="cls-10" transform="translate(21.01 115.4)"><tspan x="0" y="0">3</tspan></text><circle class="cls-2" cx="107.72" cy="141.73" r="5.67"/><text class="cls-10" transform="translate(106.05 143.74)"><tspan x="0" y="0">4</tspan></text><circle class="cls-2" cx="22.68" cy="170.08" r="5.67"/><text class="cls-10" transform="translate(21.01 172.09)"><tspan x="0" y="0">5</tspan></text><circle class="cls-2" cx="22.68" cy="226.77" r="5.67"/><text class="cls-10" transform="translate(21.01 228.78)"><tspan x="0" y="0">7</tspan></text><circle class="cls-2" cx="22.68" cy="283.46" r="5.67"/><text class="cls-10" transform="translate(19.34 285.48)"><tspan x="0" y="0">10</tspan></text><circle class="cls-2" cx="107.72" cy="198.43" r="5.67"/><text class="cls-10" transform="translate(106.05 200.44)"><tspan x="0" y="0">6</tspan></text><circle class="cls-2" cx="206.93" cy="255.12" r="5.67"/><text class="cls-10" transform="translate(205.26 257.13)"><tspan x="0" y="0">8</tspan></text><circle class="cls-2" cx="107.72" cy="311.81" r="5.67"/><text class="cls-10" transform="translate(104.55 313.82)"><tspan class="cls-9" x="0" y="0">1</tspan><tspan x="3.01" y="0">1</tspan></text><circle class="cls-2" cx="22.68" cy="368.5" r="5.67"/><text class="cls-10" transform="translate(19.34 370.51)"><tspan x="0" y="0">12</tspan></text><circle class="cls-2" cx="107.72" cy="396.85" r="5.67"/><text class="cls-10" transform="translate(104.38 398.86)"><tspan x="0" y="0">13</tspan></text><circle class="cls-2" cx="206.93" cy="396.85" r="5.67"/><text class="cls-10" transform="translate(205.26 398.86)"><tspan x="0" y="0">9</tspan></text><circle class="cls-2" cx="22.68" cy="425.2" r="5.67"/><text class="cls-10" transform="translate(19.34 427.21)"><tspan x="0" y="0">14</tspan></text><circle class="cls-2" cx="107.72" cy="453.54" r="5.67"/><text class="cls-10" transform="translate(104.38 455.55)"><tspan x="0" y="0">15</tspan></text><circle class="cls-2" cx="22.68" cy="481.89" r="5.67"/><text class="cls-10" transform="translate(19.34 483.9)"><tspan x="0" y="0">16</tspan></text></g></svg>