<?xml version="1.0" encoding="UTF-8"?><svg xmlns="http://www.w3.org/2000/svg" viewBox="0 0 399.97 691.65"><defs><style>.cls-1,.cls-2{fill:#fff;}.cls-3,.cls-2,.cls-4,.cls-5,.cls-6,.cls-7{stroke-linecap:round;stroke-linejoin:round;}.cls-3,.cls-2,.cls-4,.cls-5,.cls-7{stroke:#000;}.cls-3,.cls-2,.cls-4,.cls-6,.cls-7{stroke-width:.5px;}.cls-3,.cls-5,.cls-6{fill:none;}.cls-4{fill:#c8e6c9;}.cls-5{stroke-width:.25px;}.cls-8{fill:#ffe0b2;}.cls-6{stroke:#e0e0e0;}.cls-9{letter-spacing:-.09em;}.cls-10{font-family:ArialMT, Arial;font-size:4px;}.cls-11{letter-spacing:-.02em;}.cls-7{fill:#bbdefb;}.cls-12{letter-spacing:-.06em;}.cls-13{font-family:Arial-BoldMT, Arial;font-size:6px;font-weight:700;}</style></defs><g id="Bckground"><rect class="cls-1" width="399.97" height="691.65"/></g><g id="Frame"><rect class="cls-6" x="5.67" y="5.67" width="388.35" height="226.77"/><rect class="cls-6" x="5.67" y="232.44" width="388.35" height="453.54"/><text class="cls-13" transform="translate(8.5 13.65)"><tspan x="0" y="0">Remote support / Customer</tspan></text><text class="cls-13" transform="translate(8.5 239.01)"><tspan x="0" y="0">Engineer</tspan></text></g><g id="Blocks"><g><path class="cls-4" d="M82.2,56.69l28.35,14.17-28.35,14.17-28.35-14.17,28.35-14.17Z"/><g><path d="M71.05,69.9v-2.86h.57l.68,2.03c.06,.19,.11,.33,.14,.42,.03-.1,.08-.26,.15-.46l.69-1.99h.51v2.86h-.37v-2.4l-.83,2.4h-.34l-.83-2.44v2.44h-.37Z"/><path d="M75.7,69.64c-.13,.11-.26,.19-.38,.23s-.25,.07-.39,.07c-.23,0-.4-.06-.53-.17s-.18-.25-.18-.43c0-.1,.02-.19,.07-.28s.11-.15,.18-.2,.16-.09,.25-.12c.07-.02,.17-.04,.31-.05,.28-.03,.49-.07,.63-.12,0-.05,0-.08,0-.09,0-.14-.03-.24-.1-.3-.09-.08-.22-.12-.4-.12-.17,0-.29,.03-.37,.09s-.14,.16-.17,.31l-.34-.05c.03-.15,.08-.27,.15-.36s.18-.16,.31-.21,.29-.07,.47-.07,.32,.02,.43,.06,.19,.09,.24,.16,.09,.14,.11,.24c.01,.06,.02,.17,.02,.32v.47c0,.33,0,.53,.02,.62s.04,.17,.09,.25h-.37c-.04-.07-.06-.16-.07-.26Zm-.03-.79c-.13,.05-.32,.1-.57,.13-.14,.02-.25,.04-.31,.07s-.11,.06-.14,.11-.05,.11-.05,.17c0,.09,.04,.17,.11,.23s.17,.09,.31,.09,.26-.03,.36-.09,.18-.14,.23-.24c.04-.08,.06-.2,.06-.35v-.13Z"/><path d="M76.58,67.44v-.4h.35v.4h-.35Zm0,2.46v-2.07h.35v2.07h-.35Z"/><path d="M77.46,69.9v-2.07h.32v.29c.15-.23,.37-.34,.66-.34,.12,0,.24,.02,.34,.07s.18,.1,.24,.18,.09,.16,.11,.26c.01,.06,.02,.18,.02,.34v1.28h-.35v-1.26c0-.14-.01-.25-.04-.32s-.08-.13-.15-.17-.15-.06-.25-.06c-.15,0-.28,.05-.39,.14s-.16,.28-.16,.54v1.13h-.35Z"/><path d="M80.45,69.58l.05,.31c-.1,.02-.19,.03-.27,.03-.13,0-.23-.02-.3-.06s-.12-.09-.15-.16-.04-.2-.04-.42v-1.19h-.26v-.27h.26v-.51l.35-.21v.72h.35v.27h-.35v1.21c0,.1,0,.16,.02,.19s.03,.05,.06,.07,.07,.03,.12,.03c.04,0,.09,0,.15-.01Z"/><path d="M82.22,69.23l.36,.04c-.06,.21-.16,.38-.32,.49s-.35,.18-.59,.18c-.3,0-.54-.09-.72-.28s-.27-.45-.27-.79,.09-.62,.27-.81,.41-.29,.7-.29,.5,.09,.68,.28,.26,.45,.26,.8c0,.02,0,.05,0,.09h-1.55c.01,.23,.08,.4,.19,.52s.26,.18,.43,.18c.13,0,.24-.03,.33-.1s.16-.18,.22-.32Zm-1.15-.57h1.16c-.02-.17-.06-.31-.13-.39-.11-.14-.26-.2-.44-.2-.16,0-.3,.05-.41,.16s-.17,.25-.18,.43Z"/><path d="M83.02,69.9v-2.07h.32v.29c.15-.23,.37-.34,.66-.34,.12,0,.24,.02,.34,.07s.18,.1,.24,.18,.09,.16,.11,.26c.01,.06,.02,.18,.02,.34v1.28h-.35v-1.26c0-.14-.01-.25-.04-.32s-.08-.13-.15-.17-.15-.06-.25-.06c-.15,0-.28,.05-.39,.14s-.16,.28-.16,.54v1.13h-.35Z"/><path d="M86.6,69.64c-.13,.11-.26,.19-.38,.23s-.25,.07-.39,.07c-.23,0-.4-.06-.53-.17s-.18-.25-.18-.43c0-.1,.02-.19,.07-.28s.11-.15,.18-.2,.16-.09,.25-.12c.07-.02,.17-.04,.31-.05,.28-.03,.49-.07,.63-.12,0-.05,0-.08,0-.09,0-.14-.03-.24-.1-.3-.09-.08-.22-.12-.4-.12-.17,0-.29,.03-.37,.09s-.14,.16-.17,.31l-.34-.05c.03-.15,.08-.27,.15-.36s.18-.16,.31-.21,.29-.07,.47-.07,.32,.02,.43,.06,.19,.09,.24,.16,.09,.14,.11,.24c.01,.06,.02,.17,.02,.32v.47c0,.33,0,.53,.02,.62s.04,.17,.09,.25h-.37c-.04-.07-.06-.16-.07-.26Zm-.03-.79c-.13,.05-.32,.1-.57,.13-.14,.02-.25,.04-.31,.07s-.11,.06-.14,.11-.05,.11-.05,.17c0,.09,.04,.17,.11,.23s.17,.09,.31,.09,.26-.03,.36-.09,.18-.14,.23-.24c.04-.08,.06-.2,.06-.35v-.13Z"/><path d="M87.47,69.9v-2.07h.32v.29c.15-.23,.37-.34,.66-.34,.12,0,.24,.02,.34,.07s.18,.1,.24,.18,.09,.16,.11,.26c.01,.06,.02,.18,.02,.34v1.28h-.35v-1.26c0-.14-.01-.25-.04-.32s-.08-.13-.15-.17-.15-.06-.25-.06c-.15,0-.28,.05-.39,.14s-.16,.28-.16,.54v1.13h-.35Z"/><path d="M91.05,69.14l.35,.04c-.04,.24-.13,.42-.29,.56s-.35,.2-.57,.2c-.28,0-.51-.09-.68-.28s-.26-.45-.26-.8c0-.22,.04-.42,.11-.59s.19-.29,.34-.38,.32-.13,.5-.13c.23,0,.41,.06,.55,.17s.23,.28,.28,.49l-.34,.05c-.03-.14-.09-.24-.17-.31s-.18-.11-.3-.11c-.18,0-.32,.06-.43,.19s-.17,.33-.17,.6,.05,.48,.16,.61,.25,.19,.42,.19c.14,0,.25-.04,.35-.13s.15-.21,.18-.39Z"/><path d="M93.12,69.23l.36,.04c-.06,.21-.16,.38-.32,.49s-.35,.18-.59,.18c-.3,0-.54-.09-.72-.28s-.27-.45-.27-.79,.09-.62,.27-.81,.41-.29,.7-.29,.5,.09,.68,.28,.26,.45,.26,.8c0,.02,0,.05,0,.09h-1.55c.01,.23,.08,.4,.19,.52s.26,.18,.43,.18c.13,0,.24-.03,.33-.1s.16-.18,.22-.32Zm-1.15-.57h1.16c-.02-.17-.06-.31-.13-.39-.11-.14-.26-.2-.44-.2-.16,0-.3,.05-.41,.16s-.17,.25-.18,.43Z"/><path d="M77.7,74.7v-.26c-.13,.21-.32,.31-.58,.31-.17,0-.32-.05-.46-.14s-.25-.22-.32-.38-.11-.35-.11-.56,.03-.4,.1-.56,.17-.3,.31-.39,.29-.13,.46-.13c.12,0,.24,.03,.33,.08s.18,.12,.24,.21v-1.03h.35v2.86h-.33Zm-1.11-1.04c0,.27,.06,.46,.17,.6s.24,.2,.4,.2,.28-.06,.39-.19,.16-.32,.16-.58c0-.28-.05-.49-.16-.62s-.24-.2-.4-.2-.29,.06-.39,.19-.16,.33-.16,.6Z"/><path d="M78.45,73.66c0-.38,.11-.67,.32-.85,.18-.15,.4-.23,.65-.23,.29,0,.52,.09,.7,.28s.27,.44,.27,.77c0,.27-.04,.48-.12,.63s-.2,.27-.35,.36-.32,.13-.5,.13c-.29,0-.52-.09-.7-.28s-.27-.45-.27-.8Zm.36,0c0,.27,.06,.46,.17,.6s.26,.2,.44,.2,.32-.07,.44-.2,.17-.34,.17-.61c0-.26-.06-.45-.17-.58s-.26-.2-.43-.2-.32,.07-.44,.2-.17,.33-.17,.6Z"/><path d="M80.8,74.7v-2.07h.32v.29c.15-.23,.37-.34,.66-.34,.12,0,.24,.02,.34,.07s.18,.1,.24,.18,.09,.16,.11,.26c.01,.06,.02,.18,.02,.34v1.28h-.35v-1.26c0-.14-.01-.25-.04-.32s-.08-.13-.15-.17-.15-.06-.25-.06c-.15,0-.28,.05-.39,.14s-.16,.28-.16,.54v1.13h-.35Z"/><path d="M84.45,74.03l.36,.04c-.06,.21-.16,.38-.32,.49s-.35,.18-.59,.18c-.3,0-.54-.09-.72-.28s-.27-.45-.27-.79,.09-.62,.27-.81,.41-.29,.7-.29,.5,.09,.68,.28,.26,.45,.26,.8c0,.02,0,.05,0,.09h-1.55c.01,.23,.08,.4,.19,.52s.26,.18,.43,.18c.13,0,.24-.03,.33-.1s.16-.18,.22-.32Zm-1.15-.57h1.16c-.02-.17-.06-.31-.13-.39-.11-.14-.26-.2-.44-.2-.16,0-.3,.05-.41,.16s-.17,.25-.18,.43Z"/><path d="M87.02,73.99s0-.08,0-.11c0-.14,.02-.26,.06-.36,.03-.08,.07-.15,.14-.23,.05-.06,.13-.14,.25-.25s.2-.19,.24-.26,.05-.13,.05-.21c0-.14-.05-.26-.16-.36s-.24-.16-.39-.16-.27,.05-.38,.14-.17,.24-.2,.44l-.36-.04c.03-.27,.13-.47,.29-.61s.37-.21,.64-.21c.28,0,.5,.08,.67,.23s.25,.34,.25,.55c0,.12-.03,.24-.09,.35s-.17,.23-.34,.38c-.11,.1-.19,.18-.22,.22s-.06,.1-.08,.17-.03,.16-.03,.3h-.34Zm-.02,.71v-.4h.4v.4h-.4Z"/></g></g><g><path class="cls-4" d="M82.2,113.39l28.35,14.17-28.35,14.17-28.35-14.17,28.35-14.17Z"/><text class="cls-10" transform="translate(76.09 126.59)"><tspan x="0" y="0">Nozzle </tspan><tspan x="-7.78" y="4.8">optimalisation ?</tspan></text></g><g><path class="cls-4" d="M82.2,170.08l28.35,14.17-28.35,14.17-28.35-14.17,28.35-14.17Z"/><text class="cls-10" transform="translate(64.53 185.68)"><tspan x="0" y="0">Correct printmode ?</tspan></text></g><g><path class="cls-4" d="M82.2,240.94l28.35,14.17-28.35,14.17-28.35-14.17,28.35-14.17Z"/><text class="cls-10" transform="translate(73.57 254.15)"><tspan class="cls-11" x="0" y="0">V</tspan><tspan x="2.6" y="0">isible on </tspan><tspan x="-4.26" y="4.8">PQ-testchart ?</tspan></text></g><g><path class="cls-4" d="M82.2,325.98l28.35,14.17-28.35,14.17-28.35-14.17,28.35-14.17Z"/><g><path d="M73.68,339.19v-2.86h.38v2.86h-.38Z"/><path d="M74.69,339.19v-2.07h.32v.29c.15-.23,.37-.34,.66-.34,.12,0,.24,.02,.34,.07s.18,.1,.24,.18c.05,.07,.09,.16,.11,.26,.01,.06,.02,.18,.02,.34v1.28h-.35v-1.26c0-.14-.01-.25-.04-.32-.03-.07-.08-.13-.15-.17-.07-.04-.15-.06-.25-.06-.15,0-.28,.05-.39,.14-.11,.09-.16,.28-.16,.54v1.13h-.35Z"/><path d="M76.91,339.19v-2.86h.35v1.63l.83-.84h.46l-.79,.77,.87,1.3h-.43l-.69-1.06-.25,.24v.82h-.35Z"/><path d="M80.35,339.19h-.33v-2.86h.35v1.02c.15-.19,.34-.28,.57-.28,.13,0,.25,.03,.36,.08,.11,.05,.21,.12,.28,.22,.07,.09,.13,.21,.17,.34,.04,.13,.06,.27,.06,.42,0,.36-.09,.63-.26,.82-.18,.19-.39,.29-.63,.29s-.44-.1-.58-.31v.26Zm0-1.05c0,.25,.03,.43,.1,.54,.11,.18,.26,.27,.45,.27,.15,0,.29-.07,.4-.2,.11-.13,.17-.33,.17-.6s-.05-.47-.16-.6-.24-.19-.39-.19-.29,.07-.4,.2c-.11,.13-.17,.33-.17,.58Z"/><path d="M83.67,338.52l.36,.04c-.06,.21-.16,.38-.32,.49s-.35,.18-.59,.18c-.3,0-.54-.09-.72-.28-.18-.19-.27-.45-.27-.79s.09-.62,.27-.81c.18-.19,.41-.29,.7-.29s.5,.09,.68,.28c.18,.19,.26,.45,.26,.8,0,.02,0,.05,0,.09h-1.55c.01,.23,.08,.4,.19,.52s.26,.18,.43,.18c.13,0,.24-.03,.33-.1,.09-.07,.16-.18,.22-.32Zm-1.15-.57h1.16c-.02-.17-.06-.31-.13-.39-.11-.14-.26-.2-.44-.2-.16,0-.3,.05-.41,.16-.11,.11-.17,.25-.18,.43Z"/><path d="M84.55,339.19v-1.8h-.31v-.27h.31v-.22c0-.14,.01-.24,.04-.31,.03-.09,.09-.17,.18-.22s.2-.08,.36-.08c.1,0,.21,.01,.33,.04l-.05,.31c-.07-.01-.14-.02-.21-.02-.11,0-.18,.02-.23,.07-.04,.04-.07,.13-.07,.26v.19h.4v.27h-.4v1.8h-.35Z"/><path d="M85.45,338.15c0-.38,.11-.67,.32-.85,.18-.15,.4-.23,.65-.23,.29,0,.52,.09,.7,.28,.18,.19,.27,.44,.27,.77,0,.27-.04,.48-.12,.63-.08,.15-.2,.27-.35,.36-.15,.08-.32,.13-.5,.13-.29,0-.52-.09-.7-.28-.18-.19-.27-.46-.27-.8Zm.36,0c0,.27,.06,.46,.17,.6,.12,.13,.26,.2,.44,.2s.32-.07,.44-.2,.17-.34,.17-.61c0-.26-.06-.45-.17-.58-.12-.13-.26-.2-.43-.2s-.32,.07-.44,.2c-.12,.13-.17,.33-.17,.6Z"/><path d="M87.8,339.19v-2.07h.32v.31c.08-.15,.16-.24,.22-.29s.14-.07,.23-.07c.12,0,.24,.04,.36,.11l-.12,.33c-.09-.05-.17-.08-.26-.08-.08,0-.15,.02-.21,.07-.06,.05-.1,.11-.13,.19-.04,.12-.06,.26-.06,.41v1.09h-.35Z"/><path d="M90.56,338.52l.36,.04c-.06,.21-.16,.38-.32,.49s-.35,.18-.59,.18c-.3,0-.54-.09-.72-.28-.18-.19-.27-.45-.27-.79s.09-.62,.27-.81c.18-.19,.41-.29,.7-.29s.5,.09,.68,.28c.18,.19,.26,.45,.26,.8,0,.02,0,.05,0,.09h-1.55c.01,.23,.08,.4,.19,.52s.26,.18,.43,.18c.13,0,.24-.03,.33-.1,.09-.07,.16-.18,.22-.32Zm-1.15-.57h1.16c-.02-.17-.06-.31-.13-.39-.11-.14-.26-.2-.44-.2-.16,0-.3,.05-.41,.16-.11,.11-.17,.25-.18,.43Z"/><path d="M72.44,343.32l.36,.04c-.06,.21-.16,.38-.32,.49s-.35,.18-.59,.18c-.3,0-.54-.09-.72-.28-.18-.19-.27-.45-.27-.79s.09-.62,.27-.81c.18-.19,.41-.29,.7-.29s.5,.09,.68,.28c.18,.19,.26,.46,.26,.8,0,.02,0,.05,0,.09h-1.55c.01,.23,.08,.4,.19,.52s.26,.18,.43,.18c.13,0,.24-.03,.33-.1,.09-.07,.16-.18,.22-.32Zm-1.15-.57h1.16c-.02-.17-.06-.3-.13-.39-.11-.13-.26-.2-.44-.2-.16,0-.3,.05-.41,.16-.11,.11-.17,.25-.18,.43Z"/><path d="M73.01,343.99l.76-1.08-.7-1h.44l.32,.49c.06,.09,.11,.17,.14,.23,.06-.09,.11-.16,.16-.23l.35-.49h.42l-.72,.98,.77,1.1h-.43l-.43-.64-.11-.17-.54,.82h-.43Z"/><path d="M75.24,344.78v-2.87h.32v.27c.08-.11,.16-.18,.26-.24s.21-.08,.35-.08c.18,0,.33,.05,.47,.14,.14,.09,.24,.22,.31,.39s.1,.35,.1,.55c0,.21-.04,.4-.11,.57s-.19,.3-.33,.39c-.15,.09-.3,.14-.46,.14-.12,0-.22-.02-.32-.07-.09-.05-.17-.11-.23-.19v1.01h-.35Zm.32-1.82c0,.27,.05,.46,.16,.59,.11,.13,.24,.19,.39,.19s.29-.07,.4-.2c.11-.13,.17-.34,.17-.61s-.05-.46-.16-.59c-.11-.13-.24-.2-.39-.2s-.28,.07-.4,.21c-.12,.14-.17,.34-.17,.61Z"/><path d="M77.47,341.53v-.4h.35v.4h-.35Zm0,2.46v-2.07h.35v2.07h-.35Z"/><path d="M78.35,343.99v-2.07h.32v.31c.08-.15,.16-.24,.22-.29s.14-.07,.23-.07c.12,0,.24,.04,.36,.11l-.12,.33c-.09-.05-.17-.08-.26-.08-.08,0-.15,.02-.21,.07-.06,.05-.1,.11-.13,.19-.04,.12-.06,.26-.06,.41v1.09h-.35Z"/><path d="M79.67,344.79l-.04-.33c.08,.02,.14,.03,.2,.03,.08,0,.14-.01,.19-.04,.05-.03,.09-.06,.12-.11,.02-.04,.06-.12,.11-.26,0-.02,.02-.05,.03-.09l-.79-2.08h.38l.43,1.2c.06,.15,.11,.31,.15,.48,.04-.16,.09-.32,.14-.47l.44-1.21h.35l-.79,2.11c-.08,.23-.15,.38-.2,.47-.06,.12-.13,.2-.21,.25-.08,.05-.18,.08-.29,.08-.07,0-.14-.01-.23-.04Z"/><path d="M84.14,343.99v-.26c-.13,.21-.32,.31-.58,.31-.17,0-.32-.04-.46-.14-.14-.09-.25-.22-.32-.38-.08-.16-.11-.35-.11-.56s.03-.39,.1-.56c.07-.17,.17-.3,.31-.39s.29-.13,.46-.13c.12,0,.24,.03,.33,.08s.18,.12,.24,.21v-1.03h.35v2.86h-.33Zm-1.11-1.04c0,.27,.06,.46,.17,.6,.11,.13,.24,.2,.4,.2s.28-.06,.39-.19c.11-.12,.16-.32,.16-.58,0-.28-.05-.49-.16-.62s-.24-.2-.4-.2-.29,.06-.39,.19c-.1,.13-.16,.33-.16,.6Z"/><path d="M86.38,343.73c-.13,.11-.26,.19-.38,.23-.12,.05-.25,.07-.39,.07-.23,0-.4-.06-.53-.17s-.18-.25-.18-.43c0-.1,.02-.19,.07-.28s.11-.15,.18-.2,.16-.09,.25-.12c.07-.02,.17-.04,.31-.05,.28-.03,.49-.07,.63-.12,0-.05,0-.08,0-.09,0-.14-.03-.24-.1-.3-.09-.08-.22-.12-.4-.12-.17,0-.29,.03-.37,.09-.08,.06-.14,.16-.17,.31l-.34-.05c.03-.15,.08-.27,.15-.36,.07-.09,.18-.16,.31-.21s.29-.07,.47-.07,.32,.02,.43,.06c.11,.04,.19,.09,.24,.16,.05,.06,.09,.14,.11,.24,.01,.06,.02,.17,.02,.32v.47c0,.33,0,.53,.02,.62,.02,.09,.04,.17,.09,.25h-.37c-.04-.07-.06-.16-.07-.26Zm-.03-.79c-.13,.05-.32,.1-.57,.13-.14,.02-.25,.04-.31,.07-.06,.03-.11,.06-.14,.11-.03,.05-.05,.11-.05,.17,0,.09,.04,.17,.11,.23s.17,.09,.31,.09,.26-.03,.36-.09c.11-.06,.18-.14,.23-.24,.04-.08,.06-.2,.06-.35v-.13Z"/><path d="M88.02,343.67l.05,.31c-.1,.02-.19,.03-.27,.03-.13,0-.23-.02-.3-.06-.07-.04-.12-.09-.15-.16-.03-.07-.04-.2-.04-.42v-1.19h-.26v-.27h.26v-.51l.35-.21v.72h.35v.27h-.35v1.21c0,.1,0,.17,.02,.19,.01,.03,.03,.05,.06,.07,.03,.02,.07,.03,.12,.03,.04,0,.09,0,.15-.01Z"/><path d="M89.78,343.32l.36,.04c-.06,.21-.16,.38-.32,.49s-.35,.18-.59,.18c-.3,0-.54-.09-.72-.28-.18-.19-.27-.45-.27-.79s.09-.62,.27-.81c.18-.19,.41-.29,.7-.29s.5,.09,.68,.28c.18,.19,.26,.46,.26,.8,0,.02,0,.05,0,.09h-1.55c.01,.23,.08,.4,.19,.52s.26,.18,.43,.18c.13,0,.24-.03,.33-.1,.09-.07,.16-.18,.22-.32Zm-1.15-.57h1.16c-.02-.17-.06-.3-.13-.39-.11-.13-.26-.2-.44-.2-.16,0-.3,.05-.41,.16-.11,.11-.17,.25-.18,.43Z"/><path d="M92.35,343.28s0-.08,0-.11c0-.14,.02-.26,.06-.36,.03-.08,.07-.15,.14-.23,.05-.06,.13-.14,.25-.25s.2-.19,.24-.26c.04-.06,.05-.13,.05-.21,0-.14-.05-.26-.16-.36s-.24-.16-.39-.16-.27,.05-.38,.14-.17,.24-.2,.44l-.36-.04c.03-.27,.13-.47,.29-.61,.16-.14,.37-.21,.64-.21,.28,0,.5,.08,.67,.23s.25,.34,.25,.55c0,.12-.03,.24-.09,.35s-.17,.23-.34,.38c-.11,.1-.19,.18-.22,.22-.04,.05-.06,.1-.08,.17s-.03,.16-.03,.3h-.34Zm-.02,.71v-.4h.4v.4h-.4Z"/></g></g><g><path class="cls-4" d="M82.2,425.2l28.35,14.17-28.35,14.17-28.35-14.17,28.35-14.17Z"/><text class="cls-10" transform="translate(72.53 440.8)"><tspan x="0" y="0">04-</tspan><tspan class="cls-12" x="5.78" y="0">T</tspan><tspan x="8" y="0">-001 ?</tspan></text></g><g><path class="cls-4" d="M167.24,453.54l28.35,14.17-28.35,14.17-28.35-14.17,28.35-14.17Z"/><text class="cls-10" transform="translate(152.57 469.15)"><tspan x="0" y="0">07-6-009 good ?</tspan></text></g><g><path class="cls-4" d="M167.24,510.24l28.35,14.17-28.35,14.17-28.35-14.17,28.35-14.17Z"/><text class="cls-10" transform="translate(153.68 525.84)"><tspan x="0" y="0">4-6-002 good ?</tspan></text></g><g><path class="cls-4" d="M167.24,609.45l28.35,14.17-28.35,14.17-28.35-14.17,28.35-14.17Z"/><text class="cls-10" transform="translate(152.57 625.05)"><tspan x="0" y="0">21-6-012 good ?</tspan></text></g><g><rect class="cls-7" x="53.86" y="283.46" width="56.69" height="28.35"/><text class="cls-10" transform="translate(61.75 299.07)"><tspan x="0" y="0">Execute SDS 04-6-002</tspan></text></g><g><rect class="cls-7" x="138.9" y="283.46" width="56.69" height="28.35"/><text class="cls-10" transform="translate(149.13 299.07)"><tspan x="0" y="0">Within specifications</tspan></text></g><g><rect class="cls-7" x="138.9" y="354.33" width="56.69" height="28.35"/><text class="cls-10" transform="translate(152.57 369.94)"><tspan x="0" y="0">Clean inksystem</tspan></text></g><g><rect class="cls-7" x="138.9" y="396.85" width="56.69" height="28.35"/><text class="cls-10" transform="translate(156.57 412.46)"><tspan x="0" y="0">Replace PH</tspan></text></g><g><rect class="cls-7" x="138.9" y="198.43" width="56.69" height="28.35"/><text class="cls-10" transform="translate(150.79 214.03)"><tspan x="0" y="0">Change printmode</tspan></text></g><g><rect class="cls-7" x="138.9" y="85.04" width="56.69" height="28.35"/><text class="cls-10" transform="translate(148.68 100.65)"><tspan x="0" y="0">Manual maintenance</tspan></text></g><g><rect class="cls-7" x="138.9" y="141.73" width="56.69" height="28.35"/><text class="cls-10" transform="translate(146.34 157.34)"><tspan x="0" y="0">Automatic maintenance</tspan></text></g><g><rect class="cls-7" x="223.94" y="481.89" width="56.69" height="28.35"/><text class="cls-10" transform="translate(239.61 497.5)"><tspan x="0" y="0">Replace wiper</tspan></text></g><g><rect class="cls-7" x="53.86" y="481.89" width="56.69" height="28.35"/><text class="cls-10" transform="translate(61.64 497.5)"><tspan x="0" y="0">Replace mentioned PH</tspan></text></g><g><rect class="cls-7" x="308.98" y="581.1" width="56.69" height="28.35"/><text class="cls-10" transform="translate(328.32 596.71)"><tspan x="0" y="0">Cleaner D</tspan></text></g><g><rect class="cls-7" x="223.94" y="581.1" width="56.69" height="28.35"/><text class="cls-10" transform="translate(241.61 596.71)"><tspan x="0" y="0">Replace PH</tspan></text></g><g><rect class="cls-7" x="223.94" y="651.97" width="56.69" height="28.35"/><text class="cls-10" transform="translate(240.39 667.57)"><tspan x="0" y="0">Replace BFU</tspan></text></g><g><rect class="cls-7" x="138.9" y="651.97" width="56.69" height="28.35"/><text class="cls-10" transform="translate(151.79 667.57)"><tspan x="0" y="0">Escalate to </tspan><tspan class="cls-12" x="20.9" y="0">V</tspan><tspan x="23.35" y="0">enlo</tspan></text></g><g><g><rect class="cls-8" x="53.86" y="28.35" width="56.69" height="14.17" rx="5.67" ry="5.67"/><rect class="cls-3" x="53.86" y="28.35" width="56.69" height="14.17" rx="5.67" ry="5.67"/></g><text class="cls-10" transform="translate(56.08 34.38)"><tspan x="0" y="0">White / light lines in 1 primary </tspan><tspan x="3.56" y="4.8">color and its mixed colors</tspan></text></g><g><path class="cls-4" d="M252.28,538.58l28.35,14.17-28.35,14.17-28.35-14.17,28.35-14.17Z"/><text class="cls-10" transform="translate(237.16 554.19)"><tspan x="0" y="0">C1650 / C1630 ?</tspan></text></g></g><g id="Lines"><g><line class="cls-8" x1="82.2" y1="42.52" x2="82.2" y2="56.69"/><g><line class="cls-5" x1="82.2" y1="42.52" x2="82.2" y2="54.43"/><path d="M82.2,56.69c-.4-1.06-1.07-2.39-1.78-3.21l1.78,.65,1.78-.65c-.71,.82-1.39,2.14-1.78,3.21Z"/></g></g><g><line class="cls-8" x1="82.2" y1="85.04" x2="82.2" y2="113.39"/><g><line class="cls-5" x1="82.2" y1="85.04" x2="82.2" y2="111.12"/><path d="M82.2,113.39c-.4-1.06-1.07-2.39-1.78-3.21l1.78,.65,1.78-.65c-.71,.82-1.39,2.14-1.78,3.21Z"/></g></g><g><polyline class="cls-5" points="110.55 70.87 167.24 70.87 167.24 82.78"/><path d="M167.24,85.04c-.4-1.06-1.07-2.39-1.78-3.21l1.78,.65,1.78-.65c-.71,.82-1.39,2.14-1.78,3.21Z"/></g><g><g><path class="cls-1" d="M122.6,70.87c0,1.56-1.28,2.83-2.83,2.83h-4.25c-1.56,0-2.83-1.28-2.83-2.83h0c0-1.56,1.28-2.83,2.83-2.83h4.25c1.56,0,2.83,1.28,2.83,2.83h0Z"/><path class="cls-3" d="M122.6,70.87c0,1.56-1.28,2.83-2.83,2.83h-4.25c-1.56,0-2.83-1.28-2.83-2.83h0c0-1.56,1.28-2.83,2.83-2.83h4.25c1.56,0,2.83,1.28,2.83,2.83h0Z"/></g><text class="cls-10" transform="translate(115.08 72.36)"><tspan x="0" y="0">No</tspan></text></g><g><polyline class="cls-5" points="110.55 127.56 167.24 127.56 167.24 139.47"/><path d="M167.24,141.73c-.4-1.06-1.07-2.39-1.78-3.21l1.78,.65,1.78-.65c-.71,.82-1.39,2.14-1.78,3.21Z"/></g><g><g><path class="cls-1" d="M122.6,127.56c0,1.56-1.28,2.83-2.83,2.83h-4.25c-1.56,0-2.83-1.28-2.83-2.83h0c0-1.56,1.28-2.83,2.83-2.83h4.25c1.56,0,2.83,1.28,2.83,2.83h0Z"/><path class="cls-3" d="M122.6,127.56c0,1.56-1.28,2.83-2.83,2.83h-4.25c-1.56,0-2.83-1.28-2.83-2.83h0c0-1.56,1.28-2.83,2.83-2.83h4.25c1.56,0,2.83,1.28,2.83,2.83h0Z"/></g><text class="cls-10" transform="translate(115.08 129.05)"><tspan x="0" y="0">No</tspan></text></g><g><polyline class="cls-5" points="110.55 184.25 167.24 184.25 167.24 196.16"/><path d="M167.24,198.43c-.4-1.06-1.07-2.39-1.78-3.21l1.78,.65,1.78-.65c-.71,.82-1.39,2.14-1.78,3.21Z"/></g><g><g><path class="cls-1" d="M122.6,184.25c0,1.56-1.28,2.83-2.83,2.83h-4.25c-1.56,0-2.83-1.28-2.83-2.83h0c0-1.56,1.28-2.83,2.83-2.83h4.25c1.56,0,2.83,1.28,2.83,2.83h0Z"/><path class="cls-3" d="M122.6,184.25c0,1.56-1.28,2.83-2.83,2.83h-4.25c-1.56,0-2.83-1.28-2.83-2.83h0c0-1.56,1.28-2.83,2.83-2.83h4.25c1.56,0,2.83,1.28,2.83,2.83h0Z"/></g><text class="cls-10" transform="translate(115.08 185.74)"><tspan x="0" y="0">No</tspan></text></g><g><polyline class="cls-5" points="110.55 255.12 167.24 255.12 167.24 281.2"/><path d="M167.24,283.46c-.4-1.06-1.07-2.39-1.78-3.21l1.78,.65,1.78-.65c-.71,.82-1.39,2.14-1.78,3.21Z"/></g><g><g><path class="cls-1" d="M122.6,255.12c0,1.56-1.28,2.83-2.83,2.83h-4.25c-1.56,0-2.83-1.28-2.83-2.83h0c0-1.56,1.28-2.83,2.83-2.83h4.25c1.56,0,2.83,1.28,2.83,2.83h0Z"/><path class="cls-3" d="M122.6,255.12c0,1.56-1.28,2.83-2.83,2.83h-4.25c-1.56,0-2.83-1.28-2.83-2.83h0c0-1.56,1.28-2.83,2.83-2.83h4.25c1.56,0,2.83,1.28,2.83,2.83h0Z"/></g><text class="cls-10" transform="translate(115.08 256.61)"><tspan x="0" y="0">No</tspan></text></g><g><polyline class="cls-5" points="110.55 340.16 167.24 340.16 167.24 352.07"/><path d="M167.24,354.33c-.4-1.06-1.07-2.39-1.78-3.21l1.78,.65,1.78-.65c-.71,.82-1.39,2.14-1.78,3.21Z"/></g><g><g><path class="cls-1" d="M122.6,340.16c0,1.56-1.28,2.83-2.83,2.83h-4.25c-1.56,0-2.83-1.28-2.83-2.83h0c0-1.56,1.28-2.83,2.83-2.83h4.25c1.56,0,2.83,1.28,2.83,2.83h0Z"/><path class="cls-3" d="M122.6,340.16c0,1.56-1.28,2.83-2.83,2.83h-4.25c-1.56,0-2.83-1.28-2.83-2.83h0c0-1.56,1.28-2.83,2.83-2.83h4.25c1.56,0,2.83,1.28,2.83,2.83h0Z"/></g><text class="cls-10" transform="translate(115.08 341.65)"><tspan x="0" y="0">No</tspan></text></g><g><polyline class="cls-5" points="110.55 439.37 167.24 439.37 167.24 451.28"/><path d="M167.24,453.54c-.4-1.06-1.07-2.39-1.78-3.21l1.78,.65,1.78-.65c-.71,.82-1.39,2.14-1.78,3.21Z"/></g><g><g><path class="cls-1" d="M122.6,439.37c0,1.56-1.28,2.83-2.83,2.83h-4.25c-1.56,0-2.83-1.28-2.83-2.83h0c0-1.56,1.28-2.83,2.83-2.83h4.25c1.56,0,2.83,1.28,2.83,2.83h0Z"/><path class="cls-3" d="M122.6,439.37c0,1.56-1.28,2.83-2.83,2.83h-4.25c-1.56,0-2.83-1.28-2.83-2.83h0c0-1.56,1.28-2.83,2.83-2.83h4.25c1.56,0,2.83,1.28,2.83,2.83h0Z"/></g><text class="cls-10" transform="translate(115.08 440.86)"><tspan x="0" y="0">No</tspan></text></g><g><polyline class="cls-5" points="280.63 552.76 337.32 552.76 337.32 578.84"/><path d="M337.32,581.1c-.4-1.06-1.07-2.39-1.78-3.21l1.78,.65,1.78-.65c-.71,.82-1.39,2.14-1.78,3.21Z"/></g><g><g><path class="cls-1" d="M292.68,552.76c0,1.56-1.28,2.83-2.83,2.83h-4.25c-1.56,0-2.83-1.28-2.83-2.83h0c0-1.56,1.28-2.83,2.83-2.83h4.25c1.56,0,2.83,1.28,2.83,2.83h0Z"/><path class="cls-3" d="M292.68,552.76c0,1.56-1.28,2.83-2.83,2.83h-4.25c-1.56,0-2.83-1.28-2.83-2.83h0c0-1.56,1.28-2.83,2.83-2.83h4.25c1.56,0,2.83,1.28,2.83,2.83h0Z"/></g><text class="cls-10" transform="translate(285.16 554.25)"><tspan x="0" y="0">No</tspan></text></g><g><polyline class="cls-5" points="195.59 467.72 252.28 467.72 252.28 479.63"/><path d="M252.28,481.89c-.4-1.06-1.07-2.39-1.78-3.21l1.78,.65,1.78-.65c-.71,.82-1.39,2.14-1.78,3.21Z"/></g><g><g><path class="cls-1" d="M207.64,467.72c0,1.56-1.28,2.83-2.83,2.83h-4.25c-1.56,0-2.83-1.28-2.83-2.83h0c0-1.56,1.28-2.83,2.83-2.83h4.25c1.56,0,2.83,1.28,2.83,2.83h0Z"/><path class="cls-3" d="M207.64,467.72c0,1.56-1.28,2.83-2.83,2.83h-4.25c-1.56,0-2.83-1.28-2.83-2.83h0c0-1.56,1.28-2.83,2.83-2.83h4.25c1.56,0,2.83,1.28,2.83,2.83h0Z"/></g><text class="cls-10" transform="translate(200.12 469.21)"><tspan x="0" y="0">No</tspan></text></g><g><polyline class="cls-5" points="195.59 524.41 252.28 524.41 252.28 536.32"/><path d="M252.28,538.58c-.4-1.06-1.07-2.39-1.78-3.21l1.78,.65,1.78-.65c-.71,.82-1.39,2.14-1.78,3.21Z"/></g><g><g><path class="cls-1" d="M207.64,524.41c0,1.56-1.28,2.83-2.83,2.83h-4.25c-1.56,0-2.83-1.28-2.83-2.83h0c0-1.56,1.28-2.83,2.83-2.83h4.25c1.56,0,2.83,1.28,2.83,2.83h0Z"/><path class="cls-3" d="M207.64,524.41c0,1.56-1.28,2.83-2.83,2.83h-4.25c-1.56,0-2.83-1.28-2.83-2.83h0c0-1.56,1.28-2.83,2.83-2.83h4.25c1.56,0,2.83,1.28,2.83,2.83h0Z"/></g><text class="cls-10" transform="translate(200.12 525.9)"><tspan x="0" y="0">No</tspan></text></g><g><polyline class="cls-5" points="195.59 623.62 252.28 623.62 252.28 649.71"/><path d="M252.28,651.97c-.4-1.06-1.07-2.39-1.78-3.21l1.78,.65,1.78-.65c-.71,.82-1.39,2.14-1.78,3.21Z"/></g><g><g><path class="cls-1" d="M207.64,623.62c0,1.56-1.28,2.83-2.83,2.83h-4.25c-1.56,0-2.83-1.28-2.83-2.83h0c0-1.56,1.28-2.83,2.83-2.83h4.25c1.56,0,2.83,1.28,2.83,2.83h0Z"/><path class="cls-3" d="M207.64,623.62c0,1.56-1.28,2.83-2.83,2.83h-4.25c-1.56,0-2.83-1.28-2.83-2.83h0c0-1.56,1.28-2.83,2.83-2.83h4.25c1.56,0,2.83,1.28,2.83,2.83h0Z"/></g><text class="cls-10" transform="translate(200.12 625.11)"><tspan x="0" y="0">No</tspan></text></g><g><g><path class="cls-1" d="M87.17,90.83c0,1.56-1.28,2.83-2.83,2.83h-4.25c-1.56,0-2.83-1.28-2.83-2.83s1.28-2.83,2.83-2.83h4.25c1.56,0,2.83,1.28,2.83,2.83Z"/><path class="cls-3" d="M87.17,90.83c0,1.56-1.28,2.83-2.83,2.83h-4.25c-1.56,0-2.83-1.28-2.83-2.83s1.28-2.83,2.83-2.83h4.25c1.56,0,2.83,1.28,2.83,2.83Z"/></g><text class="cls-10" transform="translate(78.94 92.33)"><tspan class="cls-9" x="0" y="0">Y</tspan><tspan x="2.3" y="0">es</tspan></text></g><g><line class="cls-8" x1="82.2" y1="141.73" x2="82.2" y2="170.08"/><g><line class="cls-5" x1="82.2" y1="141.73" x2="82.2" y2="167.82"/><path d="M82.2,170.08c-.4-1.06-1.07-2.39-1.78-3.21l1.78,.65,1.78-.65c-.71,.82-1.39,2.14-1.78,3.21Z"/></g></g><g><g><path class="cls-1" d="M87.17,147.53c0,1.56-1.28,2.83-2.83,2.83h-4.25c-1.56,0-2.83-1.28-2.83-2.83s1.28-2.83,2.83-2.83h4.25c1.56,0,2.83,1.28,2.83,2.83Z"/><path class="cls-3" d="M87.17,147.53c0,1.56-1.28,2.83-2.83,2.83h-4.25c-1.56,0-2.83-1.28-2.83-2.83s1.28-2.83,2.83-2.83h4.25c1.56,0,2.83,1.28,2.83,2.83Z"/></g><text class="cls-10" transform="translate(78.94 149.02)"><tspan class="cls-9" x="0" y="0">Y</tspan><tspan x="2.3" y="0">es</tspan></text></g><g><line class="cls-8" x1="82.2" y1="198.43" x2="82.2" y2="240.94"/><g><line class="cls-5" x1="82.2" y1="198.43" x2="82.2" y2="238.68"/><path d="M82.2,240.94c-.4-1.06-1.07-2.39-1.78-3.21l1.78,.65,1.78-.65c-.71,.82-1.39,2.14-1.78,3.21Z"/></g></g><g><g><path class="cls-1" d="M87.17,204.22c0,1.56-1.28,2.83-2.83,2.83h-4.25c-1.56,0-2.83-1.28-2.83-2.83h0c0-1.56,1.28-2.83,2.83-2.83h4.25c1.56,0,2.83,1.28,2.83,2.83h0Z"/><path class="cls-3" d="M87.17,204.22c0,1.56-1.28,2.83-2.83,2.83h-4.25c-1.56,0-2.83-1.28-2.83-2.83h0c0-1.56,1.28-2.83,2.83-2.83h4.25c1.56,0,2.83,1.28,2.83,2.83h0Z"/></g><text class="cls-10" transform="translate(78.94 205.71)"><tspan class="cls-9" x="0" y="0">Y</tspan><tspan x="2.3" y="0">es</tspan></text></g><g><line class="cls-8" x1="82.2" y1="269.29" x2="82.2" y2="283.46"/><g><line class="cls-5" x1="82.2" y1="269.29" x2="82.2" y2="281.2"/><path d="M82.2,283.46c-.4-1.06-1.07-2.39-1.78-3.21l1.78,.65,1.78-.65c-.71,.82-1.39,2.14-1.78,3.21Z"/></g></g><g><g><path class="cls-1" d="M87.17,275.09c0,1.56-1.28,2.83-2.83,2.83h-4.25c-1.56,0-2.83-1.28-2.83-2.83s1.28-2.83,2.83-2.83h4.25c1.56,0,2.83,1.28,2.83,2.83Z"/><path class="cls-3" d="M87.17,275.09c0,1.56-1.28,2.83-2.83,2.83h-4.25c-1.56,0-2.83-1.28-2.83-2.83s1.28-2.83,2.83-2.83h4.25c1.56,0,2.83,1.28,2.83,2.83Z"/></g><text class="cls-10" transform="translate(78.94 276.58)"><tspan class="cls-9" x="0" y="0">Y</tspan><tspan x="2.3" y="0">es</tspan></text></g><g><line class="cls-8" x1="82.2" y1="311.81" x2="82.2" y2="325.98"/><g><line class="cls-5" x1="82.2" y1="311.81" x2="82.2" y2="323.72"/><path d="M82.2,325.98c-.4-1.06-1.07-2.39-1.78-3.21l1.78,.65,1.78-.65c-.71,.82-1.39,2.14-1.78,3.21Z"/></g></g><g><line class="cls-8" x1="82.2" y1="453.54" x2="82.2" y2="481.89"/><g><line class="cls-5" x1="82.2" y1="453.54" x2="82.2" y2="479.63"/><path d="M82.2,481.89c-.4-1.06-1.07-2.39-1.78-3.21l1.78,.65,1.78-.65c-.71,.82-1.39,2.14-1.78,3.21Z"/></g></g><g><g><path class="cls-1" d="M87.17,459.34c0,1.56-1.28,2.83-2.83,2.83h-4.25c-1.56,0-2.83-1.28-2.83-2.83s1.28-2.83,2.83-2.83h4.25c1.56,0,2.83,1.28,2.83,2.83Z"/><path class="cls-3" d="M87.17,459.34c0,1.56-1.28,2.83-2.83,2.83h-4.25c-1.56,0-2.83-1.28-2.83-2.83s1.28-2.83,2.83-2.83h4.25c1.56,0,2.83,1.28,2.83,2.83Z"/></g><text class="cls-10" transform="translate(78.94 460.83)"><tspan class="cls-9" x="0" y="0">Y</tspan><tspan x="2.3" y="0">es</tspan></text></g><g><line class="cls-8" x1="82.2" y1="354.33" x2="82.2" y2="425.2"/><g><line class="cls-5" x1="82.2" y1="354.33" x2="82.2" y2="422.93"/><path d="M82.2,425.2c-.4-1.06-1.07-2.39-1.78-3.21l1.78,.65,1.78-.65c-.71,.82-1.39,2.14-1.78,3.21Z"/></g></g><g><g><path class="cls-1" d="M87.17,360.13c0,1.56-1.28,2.83-2.83,2.83h-4.25c-1.56,0-2.83-1.28-2.83-2.83s1.28-2.83,2.83-2.83h4.25c1.56,0,2.83,1.28,2.83,2.83Z"/><path class="cls-3" d="M87.17,360.13c0,1.56-1.28,2.83-2.83,2.83h-4.25c-1.56,0-2.83-1.28-2.83-2.83s1.28-2.83,2.83-2.83h4.25c1.56,0,2.83,1.28,2.83,2.83Z"/></g><text class="cls-10" transform="translate(78.94 361.62)"><tspan class="cls-9" x="0" y="0">Y</tspan><tspan x="2.3" y="0">es</tspan></text></g><g><line class="cls-8" x1="167.24" y1="481.89" x2="167.24" y2="510.24"/><g><line class="cls-5" x1="167.24" y1="481.89" x2="167.24" y2="507.97"/><path d="M167.24,510.24c-.4-1.06-1.07-2.39-1.78-3.21l1.78,.65,1.78-.65c-.71,.82-1.39,2.14-1.78,3.21Z"/></g></g><g><line class="cls-8" x1="167.24" y1="382.68" x2="167.24" y2="396.85"/><g><line class="cls-5" x1="167.24" y1="382.68" x2="167.24" y2="394.59"/><path d="M167.24,396.85c-.4-1.06-1.07-2.39-1.78-3.21l1.78,.65,1.78-.65c-.71,.82-1.39,2.14-1.78,3.21Z"/></g></g><g><g><path class="cls-1" d="M172.2,487.68c0,1.56-1.28,2.83-2.83,2.83h-4.25c-1.56,0-2.83-1.28-2.83-2.83s1.28-2.83,2.83-2.83h4.25c1.56,0,2.83,1.28,2.83,2.83Z"/><path class="cls-3" d="M172.2,487.68c0,1.56-1.28,2.83-2.83,2.83h-4.25c-1.56,0-2.83-1.28-2.83-2.83s1.28-2.83,2.83-2.83h4.25c1.56,0,2.83,1.28,2.83,2.83Z"/></g><text class="cls-10" transform="translate(163.98 489.18)"><tspan class="cls-9" x="0" y="0">Y</tspan><tspan x="2.3" y="0">es</tspan></text></g><g><line class="cls-8" x1="167.24" y1="538.58" x2="167.24" y2="609.45"/><g><line class="cls-5" x1="167.24" y1="538.58" x2="167.24" y2="607.19"/><path d="M167.24,609.45c-.4-1.06-1.07-2.39-1.78-3.21l1.78,.65,1.78-.65c-.71,.82-1.39,2.14-1.78,3.21Z"/></g></g><g><g><path class="cls-1" d="M172.2,544.38c0,1.56-1.28,2.83-2.83,2.83h-4.25c-1.56,0-2.83-1.28-2.83-2.83s1.28-2.83,2.83-2.83h4.25c1.56,0,2.83,1.28,2.83,2.83Z"/><path class="cls-3" d="M172.2,544.38c0,1.56-1.28,2.83-2.83,2.83h-4.25c-1.56,0-2.83-1.28-2.83-2.83s1.28-2.83,2.83-2.83h4.25c1.56,0,2.83,1.28,2.83,2.83Z"/></g><text class="cls-10" transform="translate(163.98 545.87)"><tspan class="cls-9" x="0" y="0">Y</tspan><tspan x="2.3" y="0">es</tspan></text></g><g><line class="cls-8" x1="167.24" y1="637.8" x2="167.24" y2="651.97"/><g><line class="cls-5" x1="167.24" y1="637.8" x2="167.24" y2="649.71"/><path d="M167.24,651.97c-.4-1.06-1.07-2.39-1.78-3.21l1.78,.65,1.78-.65c-.71,.82-1.39,2.14-1.78,3.21Z"/></g></g><g><g><path class="cls-1" d="M172.2,643.59c0,1.56-1.28,2.83-2.83,2.83h-4.25c-1.56,0-2.83-1.28-2.83-2.83s1.28-2.83,2.83-2.83h4.25c1.56,0,2.83,1.28,2.83,2.83Z"/><path class="cls-3" d="M172.2,643.59c0,1.56-1.28,2.83-2.83,2.83h-4.25c-1.56,0-2.83-1.28-2.83-2.83s1.28-2.83,2.83-2.83h4.25c1.56,0,2.83,1.28,2.83,2.83Z"/></g><text class="cls-10" transform="translate(163.98 645.08)"><tspan class="cls-9" x="0" y="0">Y</tspan><tspan x="2.3" y="0">es</tspan></text></g><g><line class="cls-8" x1="252.28" y1="566.93" x2="252.28" y2="581.1"/><g><line class="cls-5" x1="252.28" y1="566.93" x2="252.28" y2="578.84"/><path d="M252.28,581.1c-.4-1.06-1.07-2.39-1.78-3.21l1.78,.65,1.78-.65c-.71,.82-1.39,2.14-1.78,3.21Z"/></g></g><g><g><path class="cls-1" d="M257.24,572.72c0,1.56-1.28,2.83-2.83,2.83h-4.25c-1.56,0-2.83-1.28-2.83-2.83s1.28-2.83,2.83-2.83h4.25c1.56,0,2.83,1.28,2.83,2.83Z"/><path class="cls-3" d="M257.24,572.72c0,1.56-1.28,2.83-2.83,2.83h-4.25c-1.56,0-2.83-1.28-2.83-2.83s1.28-2.83,2.83-2.83h4.25c1.56,0,2.83,1.28,2.83,2.83Z"/></g><text class="cls-10" transform="translate(249.02 574.22)"><tspan class="cls-9" x="0" y="0">Y</tspan><tspan x="2.3" y="0">es</tspan></text></g></g><g id="Numbers"><g><circle class="cls-2" cx="48.19" cy="70.87" r="5.67"/><text class="cls-13" transform="translate(46.52 72.88)"><tspan x="0" y="0">1</tspan></text></g><g><circle class="cls-2" cx="133.23" cy="99.21" r="5.67"/><text class="cls-13" transform="translate(131.56 101.22)"><tspan x="0" y="0">2</tspan></text></g><g><circle class="cls-2" cx="133.23" cy="155.91" r="5.67"/><text class="cls-13" transform="translate(131.56 157.92)"><tspan x="0" y="0">4</tspan></text></g><g><circle class="cls-2" cx="48.19" cy="127.56" r="5.67"/><text class="cls-13" transform="translate(46.52 129.57)"><tspan x="0" y="0">3</tspan></text></g><g><circle class="cls-2" cx="133.23" cy="212.6" r="5.67"/><text class="cls-13" transform="translate(131.56 214.61)"><tspan x="0" y="0">6</tspan></text></g><g><circle class="cls-2" cx="48.19" cy="184.25" r="5.67"/><text class="cls-13" transform="translate(46.52 186.26)"><tspan x="0" y="0">5</tspan></text></g><g><circle class="cls-2" cx="133.23" cy="297.64" r="5.67"/><text class="cls-13" transform="translate(131.56 299.65)"><tspan x="0" y="0">8</tspan></text></g><g><circle class="cls-2" cx="133.23" cy="368.5" r="5.67"/><text class="cls-13" transform="translate(130.06 370.52)"><tspan class="cls-12" x="0" y="0">1</tspan><tspan x="3.01" y="0">1</tspan></text></g><g><circle class="cls-2" cx="133.23" cy="411.02" r="5.67"/><text class="cls-13" transform="translate(129.89 413.03)"><tspan x="0" y="0">12</tspan></text></g><g><circle class="cls-2" cx="133.23" cy="467.72" r="5.67"/><text class="cls-13" transform="translate(129.89 469.73)"><tspan x="0" y="0">14</tspan></text></g><g><circle class="cls-2" cx="133.23" cy="524.41" r="5.67"/><text class="cls-13" transform="translate(129.89 526.42)"><tspan x="0" y="0">16</tspan></text></g><g><circle class="cls-2" cx="133.23" cy="623.62" r="5.67"/><text class="cls-13" transform="translate(129.89 625.63)"><tspan x="0" y="0">19</tspan></text></g><g><circle class="cls-2" cx="133.23" cy="666.14" r="5.67"/><text class="cls-13" transform="translate(129.89 668.15)"><tspan x="0" y="0">21</tspan></text></g><g><circle class="cls-2" cx="303.31" cy="595.28" r="5.67"/><text class="cls-13" transform="translate(299.97 597.29)"><tspan x="0" y="0">18</tspan></text></g><g><circle class="cls-2" cx="48.19" cy="255.12" r="5.67"/><text class="cls-13" transform="translate(46.52 257.13)"><tspan x="0" y="0">7</tspan></text></g><g><circle class="cls-2" cx="48.19" cy="297.64" r="5.67"/><text class="cls-13" transform="translate(46.52 299.65)"><tspan x="0" y="0">9</tspan></text></g><g><circle class="cls-2" cx="48.19" cy="340.16" r="5.67"/><text class="cls-13" transform="translate(44.85 342.17)"><tspan x="0" y="0">10</tspan></text></g><g><circle class="cls-2" cx="48.19" cy="439.37" r="5.67"/><text class="cls-13" transform="translate(44.85 441.38)"><tspan x="0" y="0">13</tspan></text></g><g><circle class="cls-2" cx="48.19" cy="496.06" r="5.67"/><text class="cls-13" transform="translate(44.85 498.07)"><tspan x="0" y="0">12</tspan></text></g><g><circle class="cls-2" cx="218.27" cy="496.06" r="5.67"/><text class="cls-13" transform="translate(214.93 498.07)"><tspan x="0" y="0">15</tspan></text></g><g><circle class="cls-2" cx="218.27" cy="552.76" r="5.67"/><text class="cls-13" transform="translate(214.93 554.77)"><tspan x="0" y="0">17</tspan></text></g><g><circle class="cls-2" cx="218.27" cy="595.28" r="5.67"/><text class="cls-13" transform="translate(214.93 597.29)"><tspan x="0" y="0">12</tspan></text></g><g><circle class="cls-2" cx="218.27" cy="666.14" r="5.67"/><text class="cls-13" transform="translate(214.93 668.15)"><tspan x="0" y="0">20</tspan></text></g></g></svg>