<?xml version="1.0" encoding="utf-8"?>
<!-- Generator: Adobe Illustrator 28.2.0, SVG Export Plug-In . SVG Version: 6.00 Build 0)  -->
<svg version="1.1" xmlns="http://www.w3.org/2000/svg" xmlns:xlink="http://www.w3.org/1999/xlink" x="0px" y="0px"
	 viewBox="0 0 626.46 623.62" style="enable-background:new 0 0 626.46 623.62;" xml:space="preserve">
<style type="text/css">
	.st0{fill:#FFFFFF;}
	.st1{fill:none;stroke:#000000;stroke-width:0.25;stroke-miterlimit:10;}
	.st2{fill:#FFFFFF;stroke:#000000;stroke-width:0.25;stroke-miterlimit:10;}
	.st3{fill:none;stroke:#E0E0E0;stroke-width:0.5;stroke-linecap:round;stroke-linejoin:round;stroke-miterlimit:10;}
	.st4{display:none;}
	.st5{font-family:'Arial-BoldMT';}
	.st6{font-size:5.7857px;}
	.st7{fill:#C8E6C9;stroke:#000000;stroke-width:0.5;stroke-linecap:round;stroke-linejoin:round;stroke-miterlimit:10;}
	.st8{fill:none;}
	.st9{font-family:'ArialMT';}
	.st10{font-size:4px;}
	.st11{fill:#FFE0B2;}
	.st12{fill:none;stroke:#000000;stroke-width:0.5;stroke-linecap:round;stroke-linejoin:round;stroke-miterlimit:10;}
	.st13{fill:#BBDEFB;stroke:#000000;stroke-width:0.5;stroke-linecap:round;stroke-linejoin:round;stroke-miterlimit:10;}
	.st14{fill:none;stroke:#000000;stroke-width:0.25;stroke-linecap:round;stroke-linejoin:round;}
	.st15{fill:#FFFFFF;stroke:#000000;stroke-width:0.5;stroke-linecap:round;stroke-linejoin:round;stroke-miterlimit:10;}
	.st16{font-size:6px;}
</style>
<g id="Bckground">
	<rect class="st0" width="626.46" height="623.62"/>
	<g>
		<line class="st0" x1="481.89" y1="133.23" x2="481.89" y2="170.08"/>
		<g>
			<line class="st1" x1="481.89" y1="133.23" x2="481.89" y2="167.82"/>
			<g>
				<path d="M481.89,170.08c-0.4-1.06-1.07-2.39-1.78-3.21l1.78,0.65l1.78-0.65C482.96,167.69,482.28,169.01,481.89,170.08z"/>
			</g>
		</g>
	</g>
	<path class="st2" d="M462.05,164.41"/>
</g>
<g id="Frame">
	<rect x="5.67" y="5.67" class="st3" width="612.28" height="609.45"/>
	<text transform="matrix(1.037 0 0 1 8.5039 13.3662)" class="st4 st5 st6">Customer / Helpdesk</text>
</g>
<g id="Blocks">
	<g>
		<path class="st7" d="M56.69,85.04l28.35,14.17l-28.35,14.17L28.35,99.21L56.69,85.04z"/>
		<polygon class="st8" points="31.85,99.21 57.03,86.62 82.2,99.21 57.03,111.8 		"/>
		<text transform="matrix(1 0 0 1 45.4678 98.2443)"><tspan x="0" y="0" class="st9 st10">EC controller </tspan><tspan x="-4.11" y="4.8" class="st9 st10">showing activity ?</tspan></text>
	</g>
	<g>
		<g>
			<path class="st11" d="M85.04,22.68c0,3.12-2.55,5.67-5.67,5.67H34.02c-3.12,0-5.67-2.55-5.67-5.67v-2.83
				c0-3.12,2.55-5.67,5.67-5.67h45.35c3.12,0,5.67,2.55,5.67,5.67V22.68z"/>
			<path class="st12" d="M85.04,22.68c0,3.12-2.55,5.67-5.67,5.67H34.02c-3.12,0-5.67-2.55-5.67-5.67v-2.83
				c0-3.12,2.55-5.67,5.67-5.67h45.35c3.12,0,5.67,2.55,5.67,5.67V22.68z"/>
		</g>
		
			<rect x="51.12" y="-5.75" transform="matrix(-1.836970e-16 1 -1 -1.836970e-16 77.8686 -35.5168)" class="st8" width="11.15" height="53.86"/>
		<text transform="matrix(1 0 0 1 52.4689 22.608)" class="st9 st10">Start</text>
	</g>
	<g>
		<g>
			<path class="st11" d="M226.77,345.83c0,3.12-2.55,5.67-5.67,5.67h-45.35c-3.12,0-5.67-2.55-5.67-5.67v-2.83
				c0-3.12,2.55-5.67,5.67-5.67h45.35c3.12,0,5.67,2.55,5.67,5.67V345.83z"/>
			<path class="st12" d="M226.77,345.83c0,3.12-2.55,5.67-5.67,5.67h-45.35c-3.12,0-5.67-2.55-5.67-5.67v-2.83
				c0-3.12,2.55-5.67,5.67-5.67h45.35c3.12,0,5.67,2.55,5.67,5.67V345.83z"/>
		</g>
		
			<rect x="192.85" y="317.4" transform="matrix(-1.836970e-16 1 -1 -1.836970e-16 542.7505 145.9005)" class="st8" width="11.15" height="53.86"/>
		<text transform="matrix(1 0 0 1 194.8662 345.7578)" class="st9 st10">End</text>
	</g>
	<g id="Process">
		<rect x="28.35" y="42.52" class="st13" width="56.69" height="28.35"/>
		
			<rect x="43.94" y="29.76" transform="matrix(-1.836970e-16 1 -1 -1.836970e-16 113.3859 5.285768e-04)" class="st8" width="25.51" height="53.86"/>
		<text transform="matrix(1 0 0 1 42.0206 58.1254)" class="st9 st10">Machine in Error</text>
	</g>
	<g id="Process_00000054251921141760315940000009648871002738716844_">
		<rect x="28.35" y="127.56" class="st13" width="56.69" height="28.35"/>
		
			<rect x="43.94" y="114.8" transform="matrix(-1.836970e-16 1 -1 -1.836970e-16 198.4253 85.0399)" class="st8" width="25.51" height="53.86"/>
		<text transform="matrix(1 0 0 1 30.1231 138.365)"><tspan x="0" y="0" class="st9 st10">Connect the UI cable from the </tspan><tspan x="4.12" y="4.8" class="st9 st10">Windows controller to the</tspan><tspan x="15.01" y="9.6" class="st9 st10">EC controller</tspan></text>
	</g>
	<g id="Process_00000056407850641842147880000007056312144014315144_">
		<rect x="255.12" y="212.6" class="st13" width="56.69" height="28.35"/>
		
			<rect x="270.71" y="199.84" transform="matrix(-1.836970e-16 1 -1 -1.836970e-16 510.2363 -56.6924)" class="st8" width="25.51" height="53.86"/>
		<text transform="matrix(1 0 0 1 261.6751 223.4043)"><tspan x="0" y="0" class="st9 st10">Remove the cover at the </tspan><tspan x="-2.45" y="4.8" class="st9 st10">backside of th UI and press </tspan><tspan x="-3.67" y="9.6" class="st9 st10">the button to switch the input</tspan></text>
	</g>
	<g>
		<path class="st7" d="M56.69,170.08l28.35,14.17l-28.35,14.17l-28.35-14.17L56.69,170.08z"/>
		<polygon class="st8" points="31.52,184.25 56.69,171.66 81.87,184.25 56.69,196.84 		"/>
		<text transform="matrix(1 0 0 1 49.2456 180.8838)"><tspan x="0" y="0" class="st9 st10">Is the UI </tspan><tspan x="-9.68" y="4.8" class="st9 st10">showing anything ?</tspan></text>
	</g>
	<g id="Process_00000092442619884062373640000013282459631285600414_">
		<rect x="28.35" y="212.6" class="st13" width="56.69" height="28.35"/>
		
			<rect x="43.94" y="199.84" transform="matrix(-1.836970e-16 1 -1 -1.836970e-16 283.4647 170.0793)" class="st8" width="25.51" height="53.86"/>
		<text transform="matrix(1 0 0 1 37.6827 228.2041)" class="st9 st10">Evaluate UI message</text>
	</g>
	<g id="Process_00000062181263844744585770000008386338570484716932_">
		<rect x="170.08" y="297.64" class="st13" width="56.69" height="28.35"/>
		
			<rect x="185.67" y="284.88" transform="matrix(-1.836970e-16 1 -1 -1.836970e-16 510.2363 113.3864)" class="st8" width="25.51" height="53.86"/>
		<text transform="matrix(1 0 0 1 178.5233 313.2435)" class="st9 st10">Replace part indicated</text>
	</g>
	<g>
		<path class="st7" d="M56.69,255.12l28.35,14.17l-28.35,14.17l-28.35-14.17L56.69,255.12z"/>
		<polygon class="st8" points="31.52,269.29 56.69,256.7 81.87,269.29 56.69,281.88 		"/>
		<text transform="matrix(1 0 0 1 51.3588 265.9231)"><tspan x="0" y="0" class="st9 st10">EC UI </tspan><tspan x="-2.78" y="4.8" class="st9 st10">message</tspan><tspan x="0.78" y="9.6" class="st9 st10">OK ?</tspan></text>
	</g>
	<g id="Process_00000021812533343447570060000002480753792430750644_">
		<rect x="28.35" y="297.64" class="st13" width="56.69" height="28.35"/>
		
			<rect x="43.94" y="284.88" transform="matrix(-1.836970e-16 1 -1 -1.836970e-16 368.504 255.1186)" class="st8" width="25.51" height="53.86"/>
		<text transform="matrix(1 0 0 1 31.3467 308.4437)"><tspan x="0" y="0" class="st9 st10">Reconnect the UI cable from </tspan><tspan x="4.89" y="4.8" class="st9 st10">the EC controller to the</tspan><tspan x="8.45" y="9.6" class="st9 st10">Windows controller</tspan></text>
	</g>
	<g id="Process_00000011747671533811061840000010444049060652946110_">
		<rect x="28.35" y="340.16" class="st13" width="56.69" height="28.35"/>
		
			<rect x="43.94" y="327.4" transform="matrix(-1.836970e-16 1 -1 -1.836970e-16 411.0237 297.6383)" class="st8" width="25.51" height="53.86"/>
		<text transform="matrix(1 0 0 1 34.796 353.3628)"><tspan x="0" y="0" class="st9 st10">Via the printer UI system </tspan><tspan x="-3" y="4.8" class="st9 st10">menu, shutdown the system</tspan></text>
	</g>
	<g id="Process_00000037680443890301629570000004518756774426669709_">
		<rect x="28.35" y="382.68" class="st13" width="56.69" height="28.35"/>
		
			<rect x="43.94" y="369.92" transform="matrix(-1.836970e-16 1 -1 -1.836970e-16 453.5434 340.158)" class="st8" width="25.51" height="53.86"/>
		<text transform="matrix(1 0 0 1 31.9083 395.8825)"><tspan x="0" y="0" class="st9 st10">Switch OFF the main switch</tspan><tspan x="9.11" y="4.8" class="st9 st10">and wait 1 minute</tspan></text>
	</g>
	<g id="Process_00000103257751947021561550000006298174722046364079_">
		<rect x="28.35" y="425.2" class="st13" width="56.69" height="28.35"/>
		
			<rect x="43.94" y="412.44" transform="matrix(-1.836970e-16 1 -1 -1.836970e-16 496.0631 382.6777)" class="st8" width="25.51" height="53.86"/>
		<text transform="matrix(1 0 0 1 32.9073 440.8026)" class="st9 st10">Switch ON the main switch</text>
	</g>
	<g id="Process_00000145024696486461754580000016366280849217583792_">
		<rect x="28.35" y="510.24" class="st13" width="56.69" height="28.35"/>
		
			<rect x="43.94" y="497.48" transform="matrix(-1.836970e-16 1 -1 -1.836970e-16 581.1025 467.7171)" class="st8" width="25.51" height="53.86"/>
		<text transform="matrix(1 0 0 1 35.7911 525.8419)" class="st9 st10">11520 issue is resolved</text>
	</g>
	<g id="Process_00000046340684944989724700000010501293207115419023_">
		<rect x="28.35" y="552.76" class="st13" width="56.69" height="28.35"/>
		
			<rect x="43.94" y="540" transform="matrix(-1.836970e-16 1 -1 -1.836970e-16 623.6221 510.2368)" class="st8" width="25.51" height="53.86"/>
		<text transform="matrix(1 0 0 1 32.46 565.9612)"><tspan x="0" y="0" class="st9 st10">Use the TSM to resolve the </tspan><tspan x="10.23" y="4.8" class="st9 st10">remaining issue</tspan></text>
	</g>
	<g>
		<path class="st7" d="M56.69,467.72l28.35,14.17l-28.35,14.17l-28.35-14.17L56.69,467.72z"/>
		<polygon class="st8" points="31.52,481.89 56.69,469.3 81.87,481.89 56.69,494.48 		"/>
		<text transform="matrix(1 0 0 1 44.4633 483.3218)" class="st9 st10">Error 11520 ?</text>
	</g>
	<g id="Process_00000085932625737371195000000013945166166432820903_">
		<rect x="113.39" y="425.2" class="st13" width="56.69" height="28.35"/>
		
			<rect x="128.98" y="412.44" transform="matrix(-1.836970e-16 1 -1 -1.836970e-16 581.1025 297.6383)" class="st8" width="25.51" height="53.86"/>
		<text transform="matrix(1 0 0 1 118.2738 436.0027)"><tspan x="0" y="0" class="st9 st10">Switch the ethernet cables </tspan><tspan x="3.34" y="4.8" class="st9 st10">from the 2 ports on the</tspan><tspan x="11.9" y="9.6" class="st9 st10">EC controller</tspan></text>
	</g>
	<g>
		<g>
			<path class="st11" d="M85.04,603.78c0,3.12-2.55,5.67-5.67,5.67H34.02c-3.12,0-5.67-2.55-5.67-5.67v-2.83
				c0-3.12,2.55-5.67,5.67-5.67h45.35c3.12,0,5.67,2.55,5.67,5.67V603.78z"/>
			<path class="st12" d="M85.04,603.78c0,3.12-2.55,5.67-5.67,5.67H34.02c-3.12,0-5.67-2.55-5.67-5.67v-2.83
				c0-3.12,2.55-5.67,5.67-5.67h45.35c3.12,0,5.67,2.55,5.67,5.67V603.78z"/>
		</g>
		
			<rect x="51.12" y="575.35" transform="matrix(-1.836970e-16 1 -1 -1.836970e-16 658.9709 545.5856)" class="st8" width="11.15" height="53.86"/>
		<text transform="matrix(1 0 0 1 53.1339 603.7106)" class="st9 st10">End</text>
	</g>
	<g id="Process_00000178175898405978850450000007164390918923028872_">
		<rect x="255.12" y="255.12" class="st13" width="56.69" height="28.35"/>
		
			<rect x="270.71" y="242.36" transform="matrix(-1.836970e-16 1 -1 -1.836970e-16 552.756 -14.1727)" class="st8" width="25.51" height="53.86"/>
		<text transform="matrix(1 0 0 1 257.5677 265.924)"><tspan x="0" y="0" class="st9 st10">Switch the EC controller OFF </tspan><tspan x="6.78" y="4.8" class="st9 st10">with the switch on the</tspan><tspan x="10.78" y="9.6" class="st9 st10">EC power supply</tspan></text>
	</g>
	<g id="Process_00000170970405771365409520000006792054085486003628_">
		<rect x="255.12" y="297.64" class="st13" width="56.69" height="28.35"/>
		
			<rect x="270.71" y="284.88" transform="matrix(-1.836970e-16 1 -1 -1.836970e-16 595.2757 28.347)" class="st8" width="25.51" height="53.86"/>
		<text transform="matrix(1 0 0 1 257.0061 306.0433)"><tspan x="0" y="0" class="st9 st10">Wait 5 seconds and switch on </tspan><tspan x="4.11" y="4.8" class="st9 st10">the EC controller with the </tspan><tspan x="15.34" y="9.6" class="st9 st10">switch of the</tspan><tspan x="11.34" y="14.4" class="st9 st10">EC power supply</tspan></text>
	</g>
	<g id="Process_00000161614993497132595570000012055736596456622752_">
		<rect x="255.12" y="382.68" class="st13" width="56.69" height="28.35"/>
		
			<rect x="270.71" y="369.92" transform="matrix(-1.836970e-16 1 -1 -1.836970e-16 680.3151 113.3864)" class="st8" width="25.51" height="53.86"/>
		<text transform="matrix(1 0 0 1 264.4544 398.2829)" class="st9 st10">Evaluate UI message</text>
	</g>
	<g id="Process_00000018951697208619790410000013406333503434287292_">
		<rect x="255.12" y="425.2" class="st13" width="56.69" height="28.35"/>
		
			<rect x="270.71" y="412.44" transform="matrix(-1.836970e-16 1 -1 -1.836970e-16 722.8347 155.906)" class="st8" width="25.51" height="53.86"/>
		<text transform="matrix(1 0 0 1 263.5628 440.8026)" class="st9 st10">Replace part indicated</text>
	</g>
	<g>
		<path class="st7" d="M283.46,339.93l28.35,14.17l-28.35,14.17l-28.35-14.17L283.46,339.93z"/>
		<polygon class="st8" points="258.29,354.1 283.46,341.51 308.64,354.1 283.46,366.69 		"/>
		<text transform="matrix(1 0 0 1 268.1237 353.1351)"><tspan x="0" y="0" class="st9 st10">Is the UI showing </tspan><tspan x="6.11" y="4.8" class="st9 st10">anything ?</tspan></text>
	</g>
	<g>
		<g>
			<path class="st11" d="M311.81,476.22c0,3.12-2.55,5.67-5.67,5.67h-45.35c-3.12,0-5.67-2.55-5.67-5.67v-2.83
				c0-3.12,2.55-5.67,5.67-5.67h45.35c3.12,0,5.67,2.55,5.67,5.67V476.22z"/>
			<path class="st12" d="M311.81,476.22c0,3.12-2.55,5.67-5.67,5.67h-45.35c-3.12,0-5.67-2.55-5.67-5.67v-2.83
				c0-3.12,2.55-5.67,5.67-5.67h45.35c3.12,0,5.67,2.55,5.67,5.67V476.22z"/>
		</g>
		
			<rect x="277.89" y="447.79" transform="matrix(-1.836970e-16 1 -1 -1.836970e-16 758.1835 191.2548)" class="st8" width="11.15" height="53.86"/>
		<text transform="matrix(1 0 0 1 279.9056 476.1516)" class="st9 st10">End</text>
	</g>
	<g>
		<g>
			<path class="st11" d="M396.85,476.22c0,3.12-2.55,5.67-5.67,5.67h-45.35c-3.12,0-5.67-2.55-5.67-5.67v-2.83
				c0-3.12,2.55-5.67,5.67-5.67h45.35c3.12,0,5.67,2.55,5.67,5.67V476.22z"/>
			<path class="st12" d="M396.85,476.22c0,3.12-2.55,5.67-5.67,5.67h-45.35c-3.12,0-5.67-2.55-5.67-5.67v-2.83
				c0-3.12,2.55-5.67,5.67-5.67h45.35c3.12,0,5.67,2.55,5.67,5.67V476.22z"/>
		</g>
		
			<rect x="362.93" y="447.79" transform="matrix(-1.836970e-16 1 -1 -1.836970e-16 843.2229 106.2155)" class="st8" width="11.15" height="53.86"/>
		<text transform="matrix(1 0 0 1 364.9449 476.1516)" class="st9 st10">End</text>
	</g>
	<g>
		<path class="st7" d="M368.5,382.68l28.35,14.17l-28.35,14.17l-28.35-14.17L368.5,382.68z"/>
		<polygon class="st8" points="343.33,396.85 368.5,384.26 393.68,396.85 368.5,409.44 		"/>
		<text transform="matrix(1 0 0 1 351.2714 395.8821)"><tspan x="0" y="0" class="st9 st10">Is the UI connected </tspan><tspan x="8.01" y="4.8" class="st9 st10">correctly ?</tspan></text>
	</g>
	<g id="Process_00000059295904320305223910000012138193974612809616_">
		<rect x="340.16" y="425.2" class="st13" width="56.69" height="28.35"/>
		
			<rect x="355.75" y="412.44" transform="matrix(-1.836970e-16 1 -1 -1.836970e-16 807.8741 70.8667)" class="st8" width="25.51" height="53.86"/>
		<text transform="matrix(1 0 0 1 345.7144 440.8026)" class="st9 st10">Replace the EC controller</text>
	</g>
	<g>
		<path class="st7" d="M481.89,170.08l28.35,14.17l-28.35,14.17l-28.35-14.17L481.89,170.08z"/>
		<polygon class="st8" points="456.71,184.25 481.89,171.66 507.07,184.25 481.89,196.84 		"/>
		<text transform="matrix(1 0 0 1 470.5506 180.8838)"><tspan x="0" y="0" class="st9 st10">Does the EC </tspan><tspan x="-1.78" y="4.8" class="st9 st10">controller have</tspan><tspan x="2" y="9.6" class="st9 st10">AC input ?</tspan></text>
	</g>
	<g id="Process_00000172403698411142679950000007921266154189882802_">
		<rect x="453.54" y="212.6" class="st13" width="56.69" height="28.35"/>
		
			<rect x="469.13" y="199.84" transform="matrix(-1.836970e-16 1 -1 -1.836970e-16 708.6615 -255.1176)" class="st8" width="25.51" height="53.86"/>
		<text transform="matrix(1 0 0 1 455.9926 223.4043)"><tspan x="0" y="0" class="st9 st10">Switch the EC controller OFF </tspan><tspan x="6.78" y="4.8" class="st9 st10">with the switch on the</tspan><tspan x="10.78" y="9.6" class="st9 st10">EC power supply</tspan></text>
	</g>
	<g id="Process_00000164488520040937703930000016647430857343168949_">
		<rect x="453.54" y="255.12" class="st13" width="56.69" height="28.35"/>
		
			<rect x="469.13" y="242.36" transform="matrix(-1.836970e-16 1 -1 -1.836970e-16 751.1812 -212.5979)" class="st8" width="25.51" height="53.86"/>
		<text transform="matrix(1 0 0 1 455.431 263.5236)"><tspan x="0" y="0" class="st9 st10">Wait 5 seconds and switch on </tspan><tspan x="4.11" y="4.8" class="st9 st10">the EC controller with the </tspan><tspan x="15.34" y="9.6" class="st9 st10">switch of the</tspan><tspan x="11.34" y="14.4" class="st9 st10">EC power supply</tspan></text>
	</g>
	<g id="Process_00000123402003501595234830000005769064558800457397_">
		<rect x="453.54" y="340.16" class="st13" width="56.69" height="28.35"/>
		
			<rect x="469.13" y="327.4" transform="matrix(-1.836970e-16 1 -1 -1.836970e-16 836.2206 -127.5585)" class="st8" width="25.51" height="53.86"/>
		<text transform="matrix(1 0 0 1 458.5424 355.7632)" class="st9 st10">Reset possible sleep state</text>
	</g>
	<g id="Process_00000023279094008978228820000008729742194260948154_">
		<rect x="453.54" y="425.2" class="st13" width="56.69" height="28.35"/>
		
			<rect x="469.13" y="412.44" transform="matrix(-1.836970e-16 1 -1 -1.836970e-16 921.2599 -42.5192)" class="st8" width="25.51" height="53.86"/>
		<text transform="matrix(1 0 0 1 456.9877 438.4022)"><tspan x="0" y="0" class="st9 st10">Check the voltages from the </tspan><tspan x="2.67" y="4.8" class="st9 st10">EC internal power supply</tspan></text>
	</g>
	<g id="Process_00000147221296820118859620000000494593046743533958_">
		<rect x="453.54" y="510.24" class="st13" width="56.69" height="28.35"/>
		
			<rect x="469.13" y="497.48" transform="matrix(-1.836970e-16 1 -1 -1.836970e-16 1006.2993 42.5202)" class="st8" width="25.51" height="53.86"/>
		<text transform="matrix(1 0 0 1 459.1 525.8419)" class="st9 st10">Replace the EC controller</text>
	</g>
	<g>
		<path class="st7" d="M481.89,297.64l28.35,14.17l-28.35,14.17l-28.35-14.17L481.89,297.64z"/>
		<polygon class="st8" points="456.71,311.81 481.89,299.22 507.07,311.81 481.89,324.4 		"/>
		<text transform="matrix(1 0 0 1 473.6638 308.4428)"><tspan x="0" y="0" class="st9 st10">Is the EC </tspan><tspan x="-7.89" y="4.8" class="st9 st10">controller showing </tspan><tspan x="0.45" y="9.6" class="st9 st10">activity ?</tspan></text>
	</g>
	<g>
		<path class="st7" d="M481.89,382.68l28.35,14.17l-28.35,14.17l-28.35-14.17L481.89,382.68z"/>
		<polygon class="st8" points="456.71,396.85 481.89,384.26 507.07,396.85 481.89,409.44 		"/>
		<text transform="matrix(1 0 0 1 473.6638 393.4822)"><tspan x="0" y="0" class="st9 st10">Is the EC </tspan><tspan x="-7.89" y="4.8" class="st9 st10">controller showing </tspan><tspan x="0.45" y="9.6" class="st9 st10">activity ?</tspan></text>
	</g>
	<g>
		<path class="st7" d="M481.89,467.72l28.35,14.17l-28.35,14.17l-28.35-14.17L481.89,467.72z"/>
		<polygon class="st8" points="456.71,481.89 481.89,469.3 507.07,481.89 481.89,494.48 		"/>
		<text transform="matrix(1 0 0 1 468.993 483.3218)" class="st9 st10">Voltages OK ?</text>
	</g>
	<g id="Process_00000069383971515063773760000001384269564196305059_">
		<rect x="538.58" y="212.6" class="st13" width="56.69" height="28.35"/>
		
			<rect x="554.17" y="199.84" transform="matrix(-1.836970e-16 1 -1 -1.836970e-16 793.7009 -340.157)" class="st8" width="25.51" height="53.86"/>
		<text transform="matrix(1 0 0 1 543.2479 225.8037)"><tspan x="0" y="0" class="st9 st10">Check the power input into </tspan><tspan x="8.79" y="4.8" class="st9 st10">the EC controller</tspan></text>
	</g>
	<g id="Process_00000018933488160708378590000005444772581057414813_">
		<rect x="538.58" y="510.24" class="st13" width="56.69" height="28.35"/>
		
			<rect x="554.17" y="497.48" transform="matrix(-1.836970e-16 1 -1 -1.836970e-16 1091.3386 -42.5192)" class="st8" width="25.51" height="53.86"/>
		<text transform="matrix(1 0 0 1 542.6931 523.4415)"><tspan x="0" y="0" class="st9 st10">Replace the PSU of the EC </tspan><tspan x="16.01" y="4.8" class="st9 st10">controller</tspan></text>
	</g>
	<g>
		<g>
			<path class="st11" d="M510.24,561.26c0,3.12-2.55,5.67-5.67,5.67h-45.35c-3.12,0-5.67-2.55-5.67-5.67v-2.83
				c0-3.12,2.55-5.67,5.67-5.67h45.35c3.12,0,5.67,2.55,5.67,5.67V561.26z"/>
			<path class="st12" d="M510.24,561.26c0,3.12-2.55,5.67-5.67,5.67h-45.35c-3.12,0-5.67-2.55-5.67-5.67v-2.83
				c0-3.12,2.55-5.67,5.67-5.67h45.35c3.12,0,5.67,2.55,5.67,5.67V561.26z"/>
		</g>
		
			<rect x="476.31" y="532.83" transform="matrix(-1.836970e-16 1 -1 -1.836970e-16 1041.6481 77.869)" class="st8" width="11.15" height="53.86"/>
		<text transform="matrix(1 0 0 1 478.3304 561.1909)" class="st9 st10">End</text>
	</g>
	<g>
		<g>
			<path class="st11" d="M595.28,561.26c0,3.12-2.55,5.67-5.67,5.67h-45.35c-3.12,0-5.67-2.55-5.67-5.67v-2.83
				c0-3.12,2.55-5.67,5.67-5.67h45.35c3.12,0,5.67,2.55,5.67,5.67V561.26z"/>
			<path class="st12" d="M595.28,561.26c0,3.12-2.55,5.67-5.67,5.67h-45.35c-3.12,0-5.67-2.55-5.67-5.67v-2.83
				c0-3.12,2.55-5.67,5.67-5.67h45.35c3.12,0,5.67,2.55,5.67,5.67V561.26z"/>
		</g>
		
			<rect x="561.35" y="532.83" transform="matrix(-1.836970e-16 1 -1 -1.836970e-16 1126.6875 -7.1704)" class="st8" width="11.15" height="53.86"/>
		<text transform="matrix(1 0 0 1 563.3699 561.1909)" class="st9 st10">End</text>
	</g>
	<g>
		<path class="st7" d="M481.89,104.88l28.35,14.17l-28.35,14.17l-28.35-14.17L481.89,104.88z"/>
		<polygon class="st8" points="456.71,119.06 481.89,106.47 507.07,119.06 481.89,131.64 		"/>
		<polyline class="st1" points="481.89,119.06 490.39,90.71 504.57,90.71 		"/>
	</g>
	<g>
		<g>
			<path class="st11" d="M595.28,263.62c0,3.12-2.55,5.67-5.67,5.67h-45.35c-3.12,0-5.67-2.55-5.67-5.67v-2.83
				c0-3.12,2.55-5.67,5.67-5.67h45.35c3.12,0,5.67,2.55,5.67,5.67V263.62z"/>
			<path class="st12" d="M595.28,263.62c0,3.12-2.55,5.67-5.67,5.67h-45.35c-3.12,0-5.67-2.55-5.67-5.67v-2.83
				c0-3.12,2.55-5.67,5.67-5.67h45.35c3.12,0,5.67,2.55,5.67,5.67V263.62z"/>
		</g>
		
			<rect x="561.35" y="235.19" transform="matrix(-1.836970e-16 1 -1 -1.836970e-16 829.0497 -304.8082)" class="st8" width="11.15" height="53.86"/>
		<text transform="matrix(1 0 0 1 563.3701 263.5531)" class="st9 st10">End</text>
	</g>
	<g id="Process_00000137110981533389413330000010456687019041383072_">
		<rect x="538.58" y="76.54" class="st13" width="56.69" height="28.35"/>
		
			<rect x="554.17" y="63.78" transform="matrix(-1.836970e-16 1 -1 -1.836970e-16 657.6379 -476.2199)" class="st8" width="25.51" height="53.86"/>
		<text transform="matrix(1 0 0 1 548.3641 89.7408)"><tspan x="0" y="0" class="st9 st10">Check all connectors</tspan><tspan x="4.56" y="4.8" class="st9 st10">to steamer PBA</tspan></text>
	</g>
	<text transform="matrix(1 0 0 1 507.4017 87.41)"><tspan x="0" y="0" class="st9 st10">Is Steamer  </tspan><tspan x="0" y="4.8" class="st9 st10">PBA powered  </tspan><tspan x="0" y="9.6" class="st9 st10">+ connected?</tspan></text>
	<polyline class="st1" points="510.24,82.2 504.57,82.2 504.57,99.21 510.24,99.21 	"/>
	<g>
		<g>
			<line class="st1" x1="481.89" y1="133.23" x2="481.89" y2="167.82"/>
			<g>
				<path d="M481.89,170.08c-0.4-1.06-1.07-2.39-1.78-3.21l1.78,0.65l1.78-0.65C482.96,167.69,482.28,169.01,481.89,170.08z"/>
			</g>
		</g>
	</g>
	<g>
		<g>
			<polyline class="st1" points="510.24,119.06 530.08,119.06 566.93,119.06 566.93,107.15 			"/>
			<g>
				<path d="M566.93,104.88c0.4,1.06,1.07,2.39,1.78,3.21l-1.78-0.65l-1.78,0.65C565.86,107.27,566.53,105.95,566.93,104.88z"/>
			</g>
		</g>
	</g>
	<path class="st1" d="M558.43,266.46"/>
	<g>
		<g>
			<path class="st11" d="M595.28,56.69c0,3.12-2.55,5.67-5.67,5.67h-45.35c-3.12,0-5.67-2.55-5.67-5.67v-2.83
				c0-3.12,2.55-5.67,5.67-5.67h45.35c3.12,0,5.67,2.55,5.67,5.67V56.69z"/>
			<path class="st12" d="M595.28,56.69c0,3.12-2.55,5.67-5.67,5.67h-45.35c-3.12,0-5.67-2.55-5.67-5.67v-2.83
				c0-3.12,2.55-5.67,5.67-5.67h45.35c3.12,0,5.67,2.55,5.67,5.67V56.69z"/>
		</g>
		
			<rect x="561.35" y="28.26" transform="matrix(-1.836970e-16 1 -1 -1.836970e-16 622.1205 -511.7373)" class="st8" width="11.15" height="53.86"/>
		<text transform="matrix(1 0 0 1 563.3701 56.624)" class="st9 st10">End</text>
	</g>
	<g>
		<g>
			<line class="st1" x1="566.93" y1="76.54" x2="566.93" y2="64.63"/>
			<g>
				<path d="M566.93,62.36c0.4,1.06,1.07,2.39,1.78,3.21l-1.78-0.65l-1.78,0.65C565.86,64.75,566.53,63.43,566.93,62.36z"/>
			</g>
		</g>
	</g>
</g>
<g id="Lines">
	<g>
		<line class="st11" x1="56.69" y1="28.35" x2="56.69" y2="42.52"/>
		<g>
			<line class="st14" x1="56.69" y1="28.35" x2="56.69" y2="40.26"/>
			<g>
				<path d="M56.69,42.52c-0.4-1.06-1.07-2.39-1.78-3.21l1.78,0.65l1.78-0.65C57.76,40.13,57.09,41.45,56.69,42.52z"/>
			</g>
		</g>
	</g>
	<g>
		<g>
			<polyline class="st14" points="85.04,99.21 481.89,99.21 481.89,102.62 			"/>
			<g>
				<path d="M481.89,104.88c-0.4-1.06-1.07-2.39-1.78-3.21l1.78,0.65l1.78-0.65C482.96,102.5,482.28,103.82,481.89,104.88z"/>
			</g>
		</g>
	</g>
	<g>
		<g>
			<path class="st0" d="M97.09,99.21c0,1.56-1.28,2.83-2.83,2.83H90c-1.56,0-2.83-1.28-2.83-2.83l0,0c0-1.56,1.28-2.83,2.83-2.83
				h4.25C95.81,96.38,97.09,97.65,97.09,99.21L97.09,99.21z"/>
			<path class="st12" d="M97.09,99.21c0,1.56-1.28,2.83-2.83,2.83H90c-1.56,0-2.83-1.28-2.83-2.83l0,0c0-1.56,1.28-2.83,2.83-2.83
				h4.25C95.81,96.38,97.09,97.65,97.09,99.21L97.09,99.21z"/>
		</g>
		<text transform="matrix(1 0 0 1 89.5693 100.7047)" class="st9 st10">No</text>
	</g>
	<g>
		<line class="st11" x1="56.69" y1="70.87" x2="56.69" y2="85.04"/>
		<g>
			<line class="st14" x1="56.69" y1="70.87" x2="56.69" y2="82.78"/>
			<g>
				<path d="M56.69,85.04c-0.4-1.06-1.07-2.39-1.78-3.21l1.78,0.65l1.78-0.65C57.76,82.65,57.09,83.97,56.69,85.04z"/>
			</g>
		</g>
	</g>
	<g>
		<line class="st11" x1="56.69" y1="113.39" x2="56.69" y2="127.56"/>
		<g>
			<line class="st14" x1="56.69" y1="113.39" x2="56.69" y2="125.3"/>
			<g>
				<path d="M56.69,127.56c-0.4-1.06-1.07-2.39-1.78-3.21l1.78,0.65l1.78-0.65C57.76,125.17,57.09,126.49,56.69,127.56z"/>
			</g>
		</g>
	</g>
	<g>
		<g>
			<path class="st0" d="M61.65,119.06c0,1.56-1.28,2.83-2.83,2.83h-4.25c-1.56,0-2.83-1.28-2.83-2.83c0-1.56,1.28-2.83,2.83-2.83
				h4.25C60.38,116.22,61.65,117.5,61.65,119.06z"/>
			<path class="st12" d="M61.65,119.06c0,1.56-1.28,2.83-2.83,2.83h-4.25c-1.56,0-2.83-1.28-2.83-2.83c0-1.56,1.28-2.83,2.83-2.83
				h4.25C60.38,116.22,61.65,117.5,61.65,119.06z"/>
		</g>
		<text transform="matrix(1 0 0 1 53.2468 120.5472)" class="st9 st10">Yes</text>
	</g>
	<g>
		<line class="st11" x1="56.69" y1="155.91" x2="56.69" y2="170.08"/>
		<g>
			<line class="st14" x1="56.69" y1="155.91" x2="56.69" y2="167.82"/>
			<g>
				<path d="M56.69,170.08c-0.4-1.06-1.07-2.39-1.78-3.21l1.78,0.65l1.78-0.65C57.76,167.69,57.09,169.01,56.69,170.08z"/>
			</g>
		</g>
	</g>
	<g>
		<g>
			<polyline class="st14" points="85.04,184.25 283.46,184.25 283.46,210.34 			"/>
			<g>
				<path d="M283.46,212.6c-0.4-1.06-1.07-2.39-1.78-3.21l1.78,0.65l1.78-0.65C284.53,210.21,283.86,211.53,283.46,212.6z"/>
			</g>
		</g>
	</g>
	<g>
		<g>
			<path class="st0" d="M97.09,184.25c0,1.56-1.28,2.83-2.83,2.83H90c-1.56,0-2.83-1.28-2.83-2.83l0,0c0-1.56,1.28-2.83,2.83-2.83
				h4.25C95.81,181.42,97.09,182.69,97.09,184.25L97.09,184.25z"/>
			<path class="st12" d="M97.09,184.25c0,1.56-1.28,2.83-2.83,2.83H90c-1.56,0-2.83-1.28-2.83-2.83l0,0c0-1.56,1.28-2.83,2.83-2.83
				h4.25C95.81,181.42,97.09,182.69,97.09,184.25L97.09,184.25z"/>
		</g>
		<text transform="matrix(1 0 0 1 89.5693 185.7448)" class="st9 st10">No</text>
	</g>
	<g>
		<line class="st11" x1="56.69" y1="198.43" x2="56.69" y2="212.6"/>
		<g>
			<line class="st14" x1="56.69" y1="198.43" x2="56.69" y2="210.34"/>
			<g>
				<path d="M56.69,212.6c-0.4-1.06-1.07-2.39-1.78-3.21l1.78,0.65l1.78-0.65C57.76,210.21,57.09,211.53,56.69,212.6z"/>
			</g>
		</g>
	</g>
	<g>
		<g>
			<path class="st0" d="M61.65,204.09c0,1.56-1.28,2.83-2.83,2.83h-4.25c-1.56,0-2.83-1.28-2.83-2.83c0-1.56,1.28-2.83,2.83-2.83
				h4.25C60.38,201.26,61.65,202.54,61.65,204.09z"/>
			<path class="st12" d="M61.65,204.09c0,1.56-1.28,2.83-2.83,2.83h-4.25c-1.56,0-2.83-1.28-2.83-2.83c0-1.56,1.28-2.83,2.83-2.83
				h4.25C60.38,201.26,61.65,202.54,61.65,204.09z"/>
		</g>
		<text transform="matrix(1 0 0 1 53.2468 205.5866)" class="st9 st10">Yes</text>
	</g>
	<g>
		<line class="st11" x1="56.69" y1="283.46" x2="56.69" y2="297.64"/>
		<g>
			<line class="st14" x1="56.69" y1="283.46" x2="56.69" y2="295.37"/>
			<g>
				<path d="M56.69,297.64c-0.4-1.06-1.07-2.39-1.78-3.21l1.78,0.65l1.78-0.65C57.76,295.25,57.09,296.57,56.69,297.64z"/>
			</g>
		</g>
	</g>
	<g>
		<g>
			<path class="st0" d="M61.65,289.13c0,1.56-1.28,2.83-2.83,2.83h-4.25c-1.56,0-2.83-1.28-2.83-2.83s1.28-2.83,2.83-2.83h4.25
				C60.38,286.3,61.65,287.57,61.65,289.13z"/>
			<path class="st12" d="M61.65,289.13c0,1.56-1.28,2.83-2.83,2.83h-4.25c-1.56,0-2.83-1.28-2.83-2.83s1.28-2.83,2.83-2.83h4.25
				C60.38,286.3,61.65,287.57,61.65,289.13z"/>
		</g>
		<text transform="matrix(1 0 0 1 53.2468 290.626)" class="st9 st10">Yes</text>
	</g>
	<g>
		<line class="st11" x1="56.69" y1="496.06" x2="56.69" y2="510.24"/>
		<g>
			<line class="st14" x1="56.69" y1="496.06" x2="56.69" y2="507.97"/>
			<g>
				<path d="M56.69,510.24c-0.4-1.06-1.07-2.39-1.78-3.21l1.78,0.65l1.78-0.65C57.76,507.85,57.09,509.17,56.69,510.24z"/>
			</g>
		</g>
	</g>
	<g>
		<g>
			<path class="st0" d="M61.65,501.73c0,1.56-1.28,2.83-2.83,2.83h-4.25c-1.56,0-2.83-1.28-2.83-2.83s1.28-2.83,2.83-2.83h4.25
				C60.38,498.9,61.65,500.17,61.65,501.73z"/>
			<path class="st12" d="M61.65,501.73c0,1.56-1.28,2.83-2.83,2.83h-4.25c-1.56,0-2.83-1.28-2.83-2.83s1.28-2.83,2.83-2.83h4.25
				C60.38,498.9,61.65,500.17,61.65,501.73z"/>
		</g>
		<text transform="matrix(1 0 0 1 54.1364 503.2244)" class="st9 st10">No</text>
	</g>
	<g>
		<g>
			<polyline class="st14" points="85.04,481.89 141.73,481.89 141.73,455.81 			"/>
			<g>
				<path d="M141.73,453.54c0.4,1.06,1.07,2.39,1.78,3.21l-1.78-0.65l-1.78,0.65C140.66,455.93,141.34,454.61,141.73,453.54z"/>
			</g>
		</g>
	</g>
	<g>
		<g>
			<path class="st0" d="M97.09,481.89c0,1.56-1.28,2.83-2.83,2.83H90c-1.56,0-2.83-1.28-2.83-2.83s1.28-2.83,2.83-2.83h4.25
				C95.81,479.06,97.09,480.33,97.09,481.89z"/>
			<path class="st12" d="M97.09,481.89c0,1.56-1.28,2.83-2.83,2.83H90c-1.56,0-2.83-1.28-2.83-2.83s1.28-2.83,2.83-2.83h4.25
				C95.81,479.06,97.09,480.33,97.09,481.89z"/>
		</g>
		<text transform="matrix(1 0 0 1 88.6797 483.3819)" class="st9 st10">Yes</text>
	</g>
	<g>
		<line class="st11" x1="56.69" y1="240.94" x2="56.69" y2="255.12"/>
		<g>
			<line class="st14" x1="56.69" y1="240.94" x2="56.69" y2="252.85"/>
			<g>
				<path d="M56.69,255.12c-0.4-1.06-1.07-2.39-1.78-3.21l1.78,0.65l1.78-0.65C57.76,252.73,57.09,254.05,56.69,255.12z"/>
			</g>
		</g>
	</g>
	<g>
		<line class="st11" x1="85.04" y1="141.73" x2="425.2" y2="141.73"/>
		<g>
			<line class="st14" x1="87.3" y1="141.73" x2="425.2" y2="141.73"/>
			<g>
				<path d="M85.04,141.73c1.06,0.4,2.39,1.07,3.21,1.78l-0.65-1.78l0.65-1.78C87.43,140.66,86.1,141.34,85.04,141.73z"/>
			</g>
		</g>
	</g>
	<g>
		<line class="st11" x1="56.69" y1="325.98" x2="56.69" y2="340.16"/>
		<g>
			<line class="st14" x1="56.69" y1="325.98" x2="56.69" y2="337.89"/>
			<g>
				<path d="M56.69,340.16c-0.4-1.06-1.07-2.39-1.78-3.21l1.78,0.65l1.78-0.65C57.76,337.77,57.09,339.09,56.69,340.16z"/>
			</g>
		</g>
	</g>
	<g>
		<line class="st11" x1="56.69" y1="368.5" x2="56.69" y2="382.68"/>
		<g>
			<line class="st14" x1="56.69" y1="368.5" x2="56.69" y2="380.41"/>
			<g>
				<path d="M56.69,382.68c-0.4-1.06-1.07-2.39-1.78-3.21l1.78,0.65l1.78-0.65C57.76,380.29,57.09,381.61,56.69,382.68z"/>
			</g>
		</g>
	</g>
	<g>
		<line class="st11" x1="56.69" y1="411.02" x2="56.69" y2="425.2"/>
		<g>
			<line class="st14" x1="56.69" y1="411.02" x2="56.69" y2="422.93"/>
			<g>
				<path d="M56.69,425.2c-0.4-1.06-1.07-2.39-1.78-3.21l1.78,0.65l1.78-0.65C57.76,422.81,57.09,424.13,56.69,425.2z"/>
			</g>
		</g>
	</g>
	<g>
		<line class="st11" x1="56.69" y1="453.54" x2="56.69" y2="467.72"/>
		<g>
			<line class="st14" x1="56.69" y1="453.54" x2="56.69" y2="465.45"/>
			<g>
				<path d="M56.69,467.72c-0.4-1.06-1.07-2.39-1.78-3.21l1.78,0.65l1.78-0.65C57.76,465.33,57.09,466.65,56.69,467.72z"/>
			</g>
		</g>
	</g>
	<g>
		<line class="st11" x1="56.69" y1="538.58" x2="56.69" y2="552.76"/>
		<g>
			<line class="st14" x1="56.69" y1="538.58" x2="56.69" y2="550.49"/>
			<g>
				<path d="M56.69,552.76c-0.4-1.06-1.07-2.39-1.78-3.21l1.78,0.65l1.78-0.65C57.76,550.37,57.09,551.69,56.69,552.76z"/>
			</g>
		</g>
	</g>
	<g>
		<line class="st11" x1="56.69" y1="581.1" x2="56.69" y2="595.28"/>
		<g>
			<line class="st14" x1="56.69" y1="581.1" x2="56.69" y2="593.01"/>
			<g>
				<path d="M56.69,595.28c-0.4-1.06-1.07-2.39-1.78-3.21l1.78,0.65l1.78-0.65C57.76,592.89,57.09,594.21,56.69,595.28z"/>
			</g>
		</g>
	</g>
	<g>
		<g>
			<polyline class="st14" points="58.96,331.65 141.73,331.65 141.73,425.2 			"/>
			<g>
				<path d="M56.69,331.65c1.06,0.4,2.39,1.07,3.21,1.78l-0.65-1.78l0.65-1.78C59.08,330.58,57.76,331.26,56.69,331.65z"/>
			</g>
		</g>
	</g>
	<g>
		<g>
			<polyline class="st14" points="85.04,269.29 198.43,269.29 198.43,295.37 			"/>
			<g>
				<path d="M198.43,297.64c-0.4-1.06-1.07-2.39-1.78-3.21l1.78,0.65l1.78-0.65C199.49,295.25,198.82,296.57,198.43,297.64z"/>
			</g>
		</g>
	</g>
	<g>
		<g>
			<path class="st0" d="M97.09,269.29c0,1.56-1.28,2.83-2.83,2.83H90c-1.56,0-2.83-1.28-2.83-2.83c0-1.56,1.28-2.83,2.83-2.83h4.25
				C95.81,266.46,97.09,267.73,97.09,269.29z"/>
			<path class="st12" d="M97.09,269.29c0,1.56-1.28,2.83-2.83,2.83H90c-1.56,0-2.83-1.28-2.83-2.83c0-1.56,1.28-2.83,2.83-2.83h4.25
				C95.81,266.46,97.09,267.73,97.09,269.29z"/>
		</g>
		<text transform="matrix(1 0 0 1 89.5692 270.7836)" class="st9 st10">No</text>
	</g>
	<g>
		<line class="st11" x1="283.46" y1="240.94" x2="283.46" y2="255.12"/>
		<g>
			<line class="st14" x1="283.46" y1="240.94" x2="283.46" y2="252.85"/>
			<g>
				<path d="M283.46,255.12c-0.4-1.06-1.07-2.39-1.78-3.21l1.78,0.65l1.78-0.65C284.53,252.73,283.86,254.05,283.46,255.12z"/>
			</g>
		</g>
	</g>
	<g>
		<line class="st11" x1="283.46" y1="283.46" x2="283.46" y2="297.64"/>
		<g>
			<line class="st14" x1="283.46" y1="283.46" x2="283.46" y2="295.37"/>
			<g>
				<path d="M283.46,297.64c-0.4-1.06-1.07-2.39-1.78-3.21l1.78,0.65l1.78-0.65C284.53,295.25,283.86,296.57,283.46,297.64z"/>
			</g>
		</g>
	</g>
	<g>
		<line class="st11" x1="283.46" y1="325.98" x2="283.46" y2="340.16"/>
		<g>
			<line class="st14" x1="283.46" y1="325.98" x2="283.46" y2="337.89"/>
			<g>
				<path d="M283.46,340.16c-0.4-1.06-1.07-2.39-1.78-3.21l1.78,0.65l1.78-0.65C284.53,337.77,283.86,339.09,283.46,340.16z"/>
			</g>
		</g>
	</g>
	<g>
		<line class="st11" x1="283.46" y1="368.5" x2="283.46" y2="382.68"/>
		<g>
			<line class="st14" x1="283.46" y1="368.5" x2="283.46" y2="380.41"/>
			<g>
				<path d="M283.46,382.68c-0.4-1.06-1.07-2.39-1.78-3.21l1.78,0.65l1.78-0.65C284.53,380.29,283.86,381.61,283.46,382.68z"/>
			</g>
		</g>
	</g>
	<g>
		<line class="st11" x1="283.46" y1="411.02" x2="283.46" y2="425.2"/>
		<g>
			<line class="st14" x1="283.46" y1="411.02" x2="283.46" y2="422.93"/>
			<g>
				<path d="M283.46,425.2c-0.4-1.06-1.07-2.39-1.78-3.21l1.78,0.65l1.78-0.65C284.53,422.81,283.86,424.13,283.46,425.2z"/>
			</g>
		</g>
	</g>
	<g>
		<line class="st11" x1="283.46" y1="453.54" x2="283.46" y2="467.72"/>
		<g>
			<line class="st14" x1="283.46" y1="453.54" x2="283.46" y2="465.45"/>
			<g>
				<path d="M283.46,467.72c-0.4-1.06-1.07-2.39-1.78-3.21l1.78,0.65l1.78-0.65C284.53,465.33,283.86,466.65,283.46,467.72z"/>
			</g>
		</g>
	</g>
	<g>
		<line class="st11" x1="368.5" y1="453.54" x2="368.5" y2="467.72"/>
		<g>
			<line class="st14" x1="368.5" y1="453.54" x2="368.5" y2="465.45"/>
			<g>
				<path d="M368.5,467.72c-0.4-1.06-1.07-2.39-1.78-3.21l1.78,0.65l1.78-0.65C369.57,465.33,368.9,466.65,368.5,467.72z"/>
			</g>
		</g>
	</g>
	<g>
		<g>
			<path class="st0" d="M288.43,374.17c0,1.56-1.28,2.83-2.83,2.83h-4.25c-1.56,0-2.83-1.28-2.83-2.83l0,0
				c0-1.56,1.28-2.83,2.83-2.83h4.25C287.15,371.34,288.43,372.61,288.43,374.17L288.43,374.17z"/>
			<path class="st12" d="M288.43,374.17c0,1.56-1.28,2.83-2.83,2.83h-4.25c-1.56,0-2.83-1.28-2.83-2.83l0,0
				c0-1.56,1.28-2.83,2.83-2.83h4.25C287.15,371.34,288.43,372.61,288.43,374.17L288.43,374.17z"/>
		</g>
		<text transform="matrix(1 0 0 1 280.0182 375.6653)" class="st9 st10">Yes</text>
	</g>
	<g>
		<g>
			<polyline class="st14" points="311.81,354.33 368.5,354.33 368.5,380.41 			"/>
			<g>
				<path d="M368.5,382.68c-0.4-1.06-1.07-2.39-1.78-3.21l1.78,0.65l1.78-0.65C369.57,380.29,368.9,381.61,368.5,382.68z"/>
			</g>
		</g>
	</g>
	<g>
		<g>
			<path class="st0" d="M323.86,354.33c0,1.56-1.28,2.83-2.83,2.83h-4.25c-1.56,0-2.83-1.28-2.83-2.83s1.28-2.83,2.83-2.83h4.25
				C322.58,351.5,323.86,352.77,323.86,354.33z"/>
			<path class="st12" d="M323.86,354.33c0,1.56-1.28,2.83-2.83,2.83h-4.25c-1.56,0-2.83-1.28-2.83-2.83s1.28-2.83,2.83-2.83h4.25
				C322.58,351.5,323.86,352.77,323.86,354.33z"/>
		</g>
		<text transform="matrix(1 0 0 1 316.341 355.8229)" class="st9 st10">No</text>
	</g>
	<g>
		<line class="st11" x1="368.5" y1="411.02" x2="368.5" y2="425.2"/>
		<g>
			<line class="st14" x1="368.5" y1="411.02" x2="368.5" y2="422.93"/>
			<g>
				<path d="M368.5,425.2c-0.4-1.06-1.07-2.39-1.78-3.21l1.78,0.65l1.78-0.65C369.57,422.81,368.9,424.13,368.5,425.2z"/>
			</g>
		</g>
	</g>
	<g>
		<g>
			<path class="st0" d="M373.46,416.69c0,1.56-1.28,2.83-2.83,2.83h-4.25c-1.56,0-2.83-1.28-2.83-2.83l0,0
				c0-1.56,1.28-2.83,2.83-2.83h4.25C372.19,413.86,373.46,415.13,373.46,416.69L373.46,416.69z"/>
			<path class="st12" d="M373.46,416.69c0,1.56-1.28,2.83-2.83,2.83h-4.25c-1.56,0-2.83-1.28-2.83-2.83l0,0
				c0-1.56,1.28-2.83,2.83-2.83h4.25C372.19,413.86,373.46,415.13,373.46,416.69L373.46,416.69z"/>
		</g>
		<text transform="matrix(1 0 0 1 365.0576 418.1851)" class="st9 st10">Yes</text>
	</g>
	<g>
		<line class="st11" x1="481.89" y1="198.43" x2="481.89" y2="212.6"/>
		<g>
			<line class="st14" x1="481.89" y1="198.43" x2="481.89" y2="210.34"/>
			<g>
				<path d="M481.89,212.6c-0.4-1.06-1.07-2.39-1.78-3.21l1.78,0.65l1.78-0.65C482.96,210.21,482.28,211.53,481.89,212.6z"/>
			</g>
		</g>
	</g>
	<g>
		<line class="st11" x1="481.89" y1="240.94" x2="481.89" y2="255.12"/>
		<g>
			<line class="st14" x1="481.89" y1="240.94" x2="481.89" y2="252.85"/>
			<g>
				<path d="M481.89,255.12c-0.4-1.06-1.07-2.39-1.78-3.21l1.78,0.65l1.78-0.65C482.96,252.73,482.28,254.05,481.89,255.12z"/>
			</g>
		</g>
	</g>
	<g>
		<line class="st11" x1="481.89" y1="283.46" x2="481.89" y2="297.64"/>
		<g>
			<line class="st14" x1="481.89" y1="283.46" x2="481.89" y2="295.37"/>
			<g>
				<path d="M481.89,297.64c-0.4-1.06-1.07-2.39-1.78-3.21l1.78,0.65l1.78-0.65C482.96,295.25,482.28,296.57,481.89,297.64z"/>
			</g>
		</g>
	</g>
	<g>
		<line class="st11" x1="481.89" y1="368.5" x2="481.89" y2="382.68"/>
		<g>
			<line class="st14" x1="481.89" y1="368.5" x2="481.89" y2="380.41"/>
			<g>
				<path d="M481.89,382.68c-0.4-1.06-1.07-2.39-1.78-3.21l1.78,0.65l1.78-0.65C482.96,380.29,482.28,381.61,481.89,382.68z"/>
			</g>
		</g>
	</g>
	<g>
		<line class="st11" x1="481.89" y1="453.54" x2="481.89" y2="467.72"/>
		<g>
			<line class="st14" x1="481.89" y1="453.54" x2="481.89" y2="465.45"/>
			<g>
				<path d="M481.89,467.72c-0.4-1.06-1.07-2.39-1.78-3.21l1.78,0.65l1.78-0.65C482.96,465.33,482.28,466.65,481.89,467.72z"/>
			</g>
		</g>
	</g>
	<g>
		<g>
			<path class="st0" d="M486.85,204.09c0,1.56-1.28,2.83-2.83,2.83h-4.25c-1.56,0-2.83-1.28-2.83-2.83c0-1.56,1.28-2.83,2.83-2.83
				h4.25C485.57,201.26,486.85,202.54,486.85,204.09z"/>
			<path class="st12" d="M486.85,204.09c0,1.56-1.28,2.83-2.83,2.83h-4.25c-1.56,0-2.83-1.28-2.83-2.83c0-1.56,1.28-2.83,2.83-2.83
				h4.25C485.57,201.26,486.85,202.54,486.85,204.09z"/>
		</g>
		<text transform="matrix(1 0 0 1 478.4434 205.5866)" class="st9 st10">Yes</text>
	</g>
	<g>
		<line class="st11" x1="481.89" y1="325.98" x2="481.89" y2="340.16"/>
		<g>
			<line class="st14" x1="481.89" y1="325.98" x2="481.89" y2="337.89"/>
			<g>
				<path d="M481.89,340.16c-0.4-1.06-1.07-2.39-1.78-3.21l1.78,0.65l1.78-0.65C482.96,337.77,482.28,339.09,481.89,340.16z"/>
			</g>
		</g>
	</g>
	<g>
		<g>
			<path class="st0" d="M486.85,331.65c0,1.56-1.28,2.83-2.83,2.83h-4.25c-1.56,0-2.83-1.28-2.83-2.83s1.28-2.83,2.83-2.83h4.25
				C485.57,328.82,486.85,330.09,486.85,331.65z"/>
			<path class="st12" d="M486.85,331.65c0,1.56-1.28,2.83-2.83,2.83h-4.25c-1.56,0-2.83-1.28-2.83-2.83s1.28-2.83,2.83-2.83h4.25
				C485.57,328.82,486.85,330.09,486.85,331.65z"/>
		</g>
		<text transform="matrix(1 0 0 1 479.3331 333.1457)" class="st9 st10">No</text>
	</g>
	<g>
		<line class="st11" x1="481.89" y1="411.02" x2="481.89" y2="425.2"/>
		<g>
			<line class="st14" x1="481.89" y1="411.02" x2="481.89" y2="422.93"/>
			<g>
				<path d="M481.89,425.2c-0.4-1.06-1.07-2.39-1.78-3.21l1.78,0.65l1.78-0.65C482.96,422.81,482.28,424.13,481.89,425.2z"/>
			</g>
		</g>
	</g>
	<g>
		<g>
			<path class="st0" d="M486.85,416.69c0,1.56-1.28,2.83-2.83,2.83h-4.25c-1.56,0-2.83-1.28-2.83-2.83s1.28-2.83,2.83-2.83h4.25
				C485.57,413.86,486.85,415.13,486.85,416.69z"/>
			<path class="st12" d="M486.85,416.69c0,1.56-1.28,2.83-2.83,2.83h-4.25c-1.56,0-2.83-1.28-2.83-2.83s1.28-2.83,2.83-2.83h4.25
				C485.57,413.86,486.85,415.13,486.85,416.69z"/>
		</g>
		<text transform="matrix(1 0 0 1 479.3331 418.185)" class="st9 st10">No</text>
	</g>
	<g>
		<line class="st11" x1="481.89" y1="496.06" x2="481.89" y2="510.24"/>
		<g>
			<line class="st14" x1="481.89" y1="496.06" x2="481.89" y2="507.97"/>
			<g>
				<path d="M481.89,510.24c-0.4-1.06-1.07-2.39-1.78-3.21l1.78,0.65l1.78-0.65C482.96,507.85,482.28,509.17,481.89,510.24z"/>
			</g>
		</g>
	</g>
	<g>
		<line class="st11" x1="481.89" y1="538.58" x2="481.89" y2="552.76"/>
		<g>
			<line class="st14" x1="481.89" y1="538.58" x2="481.89" y2="550.49"/>
			<g>
				<path d="M481.89,552.76c-0.4-1.06-1.07-2.39-1.78-3.21l1.78,0.65l1.78-0.65C482.96,550.37,482.28,551.69,481.89,552.76z"/>
			</g>
		</g>
	</g>
	<g>
		<line class="st11" x1="566.93" y1="538.58" x2="566.93" y2="552.76"/>
		<g>
			<line class="st14" x1="566.93" y1="538.58" x2="566.93" y2="550.49"/>
			<g>
				<path d="M566.93,552.76c-0.4-1.06-1.07-2.39-1.78-3.21l1.78,0.65l1.78-0.65C568,550.37,567.32,551.69,566.93,552.76z"/>
			</g>
		</g>
	</g>
	<g>
		<g>
			<path class="st0" d="M486.85,501.73c0,1.56-1.28,2.83-2.83,2.83h-4.25c-1.56,0-2.83-1.28-2.83-2.83c0-1.56,1.28-2.83,2.83-2.83
				h4.25C485.57,498.9,486.85,500.17,486.85,501.73z"/>
			<path class="st12" d="M486.85,501.73c0,1.56-1.28,2.83-2.83,2.83h-4.25c-1.56,0-2.83-1.28-2.83-2.83c0-1.56,1.28-2.83,2.83-2.83
				h4.25C485.57,498.9,486.85,500.17,486.85,501.73z"/>
		</g>
		<text transform="matrix(1 0 0 1 478.4434 503.2244)" class="st9 st10">Yes</text>
	</g>
	<g>
		<g>
			<polyline class="st14" points="510.24,184.25 566.93,184.25 566.93,210.33 			"/>
			<g>
				<path d="M566.93,212.6c-0.4-1.06-1.07-2.39-1.78-3.21l1.78,0.65l1.78-0.65C568,210.21,567.32,211.53,566.93,212.6z"/>
			</g>
		</g>
	</g>
	<g>
		<g>
			<path class="st0" d="M522.28,184.25c0,1.56-1.28,2.83-2.83,2.83h-4.25c-1.56,0-2.83-1.28-2.83-2.83l0,0
				c0-1.56,1.28-2.83,2.83-2.83h4.25C521.01,181.42,522.28,182.69,522.28,184.25L522.28,184.25z"/>
			<path class="st12" d="M522.28,184.25c0,1.56-1.28,2.83-2.83,2.83h-4.25c-1.56,0-2.83-1.28-2.83-2.83l0,0
				c0-1.56,1.28-2.83,2.83-2.83h4.25C521.01,181.42,522.28,182.69,522.28,184.25L522.28,184.25z"/>
		</g>
		<text transform="matrix(1 0 0 1 514.7661 185.7441)" class="st9 st10">No</text>
	</g>
	<g>
		<line class="st11" x1="198.43" y1="325.98" x2="198.43" y2="340.16"/>
		<g>
			<line class="st14" x1="198.43" y1="325.98" x2="198.43" y2="337.89"/>
			<g>
				<path d="M198.43,340.16c-0.4-1.06-1.07-2.39-1.78-3.21l1.78,0.65l1.78-0.65C199.49,337.77,198.82,339.09,198.43,340.16z"/>
			</g>
		</g>
	</g>
	<g>
		<g>
			<polyline class="st14" points="510.24,481.89 566.93,481.89 566.93,507.97 			"/>
			<g>
				<path d="M566.93,510.24c-0.4-1.06-1.07-2.39-1.78-3.21l1.78,0.65l1.78-0.65C568,507.85,567.32,509.17,566.93,510.24z"/>
			</g>
		</g>
	</g>
	<g>
		<g>
			<path class="st0" d="M522.28,481.89c0,1.56-1.28,2.83-2.83,2.83h-4.25c-1.56,0-2.83-1.28-2.83-2.83c0-1.56,1.28-2.83,2.83-2.83
				h4.25C521.01,479.06,522.28,480.33,522.28,481.89z"/>
			<path class="st12" d="M522.28,481.89c0,1.56-1.28,2.83-2.83,2.83h-4.25c-1.56,0-2.83-1.28-2.83-2.83c0-1.56,1.28-2.83,2.83-2.83
				h4.25C521.01,479.06,522.28,480.33,522.28,481.89z"/>
		</g>
		<text transform="matrix(1 0 0 1 514.7659 483.382)" class="st9 st10">No</text>
	</g>
	<g>
		<g>
			<polyline class="st14" points="396.85,396.85 425.2,396.85 425.2,143.99 			"/>
			<g>
				<path d="M425.2,141.73c0.4,1.06,1.07,2.39,1.78,3.21l-1.78-0.65l-1.78,0.65C424.13,144.12,424.8,142.8,425.2,141.73z"/>
			</g>
		</g>
	</g>
	<g>
		<g>
			<polyline class="st14" points="510.24,396.85 609.45,396.85 609.45,141.73 427.46,141.73 			"/>
			<g>
				<path d="M425.2,141.73c1.06-0.4,2.39-1.07,3.21-1.78l-0.65,1.78l0.65,1.78C427.58,142.8,426.26,142.13,425.2,141.73z"/>
			</g>
		</g>
	</g>
	<g>
		<g>
			<line class="st14" x1="510.24" y1="311.81" x2="607.19" y2="311.81"/>
			<g>
				<path d="M609.45,311.81c-1.06,0.4-2.39,1.07-3.21,1.78l0.65-1.78l-0.65-1.78C607.06,310.74,608.38,311.42,609.45,311.81z"/>
			</g>
		</g>
	</g>
	<g>
		<g>
			<path class="st0" d="M408.9,396.85c0,1.56-1.28,2.83-2.83,2.83h-4.25c-1.56,0-2.83-1.28-2.83-2.83c0-1.56,1.28-2.83,2.83-2.83
				h4.25C407.62,394.02,408.9,395.29,408.9,396.85z"/>
			<path class="st12" d="M408.9,396.85c0,1.56-1.28,2.83-2.83,2.83h-4.25c-1.56,0-2.83-1.28-2.83-2.83c0-1.56,1.28-2.83,2.83-2.83
				h4.25C407.62,394.02,408.9,395.29,408.9,396.85z"/>
		</g>
		<text transform="matrix(1 0 0 1 401.3818 398.3426)" class="st9 st10">No</text>
	</g>
	<g>
		<g>
			<path class="st0" d="M522.28,311.81c0,1.56-1.28,2.83-2.83,2.83h-4.25c-1.56,0-2.83-1.28-2.83-2.83l0,0
				c0-1.56,1.28-2.83,2.83-2.83h4.25C521.01,308.98,522.28,310.25,522.28,311.81L522.28,311.81z"/>
			<path class="st12" d="M522.28,311.81c0,1.56-1.28,2.83-2.83,2.83h-4.25c-1.56,0-2.83-1.28-2.83-2.83l0,0
				c0-1.56,1.28-2.83,2.83-2.83h4.25C521.01,308.98,522.28,310.25,522.28,311.81L522.28,311.81z"/>
		</g>
		<text transform="matrix(1 0 0 1 513.8765 313.3032)" class="st9 st10">Yes</text>
	</g>
	<g>
		<g>
			<path class="st0" d="M522.28,396.85c0,1.56-1.28,2.83-2.83,2.83h-4.25c-1.56,0-2.83-1.28-2.83-2.83l0,0
				c0-1.56,1.28-2.83,2.83-2.83h4.25C521.01,394.02,522.28,395.29,522.28,396.85L522.28,396.85z"/>
			<path class="st12" d="M522.28,396.85c0,1.56-1.28,2.83-2.83,2.83h-4.25c-1.56,0-2.83-1.28-2.83-2.83l0,0
				c0-1.56,1.28-2.83,2.83-2.83h4.25C521.01,394.02,522.28,395.29,522.28,396.85L522.28,396.85z"/>
		</g>
		<text transform="matrix(1 0 0 1 513.8765 398.3425)" class="st9 st10">Yes</text>
	</g>
	<g>
		<line class="st11" x1="566.93" y1="240.94" x2="566.93" y2="255.12"/>
		<g>
			<line class="st14" x1="566.93" y1="240.94" x2="566.93" y2="252.85"/>
			<g>
				<path d="M566.93,255.12c-0.4-1.06-1.07-2.39-1.78-3.21l1.78,0.65l1.78-0.65C568,252.73,567.32,254.05,566.93,255.12z"/>
			</g>
		</g>
	</g>
	<g>
		<g>
			<path class="st0" d="M486.85,137.56c0,1.56-1.28,2.83-2.83,2.83h-4.25c-1.56,0-2.83-1.28-2.83-2.83s1.28-2.83,2.83-2.83h4.25
				C485.57,134.72,486.85,136,486.85,137.56z"/>
			<path class="st12" d="M486.85,137.56c0,1.56-1.28,2.83-2.83,2.83h-4.25c-1.56,0-2.83-1.28-2.83-2.83s1.28-2.83,2.83-2.83h4.25
				C485.57,134.72,486.85,136,486.85,137.56z"/>
		</g>
		<text transform="matrix(1 0 0 1 478.4433 139.0473)" class="st9 st10">Yes</text>
	</g>
	<g>
		<g>
			<path class="st0" d="M521.57,119.06c0,1.56-1.28,2.83-2.83,2.83h-4.25c-1.56,0-2.83-1.28-2.83-2.83l0,0
				c0-1.56,1.28-2.83,2.83-2.83h4.25C520.3,116.22,521.57,117.5,521.57,119.06L521.57,119.06z"/>
			<path class="st12" d="M521.57,119.06c0,1.56-1.28,2.83-2.83,2.83h-4.25c-1.56,0-2.83-1.28-2.83-2.83l0,0
				c0-1.56,1.28-2.83,2.83-2.83h4.25C520.3,116.22,521.57,117.5,521.57,119.06L521.57,119.06z"/>
		</g>
		<text transform="matrix(1 0 0 1 514.0572 120.5473)" class="st9 st10">No</text>
	</g>
</g>
<g id="Numbers">
	<g>
		<circle class="st15" cx="22.68" cy="56.69" r="5.67"/>
		<text transform="matrix(1 0 0 1 21.0088 58.704)" class="st5 st16">1</text>
	</g>
	<g>
		<circle class="st15" cx="22.68" cy="99.21" r="5.67"/>
		<text transform="matrix(1 0 0 1 21.0088 101.2237)" class="st5 st16">2</text>
	</g>
	<g>
		<circle class="st15" cx="22.68" cy="184.25" r="5.67"/>
		<text transform="matrix(1 0 0 1 21.0088 186.2631)" class="st5 st16">4</text>
	</g>
	<g>
		<circle class="st15" cx="22.68" cy="141.73" r="5.67"/>
		<text transform="matrix(1 0 0 1 21.0089 143.7434)" class="st5 st16">3</text>
	</g>
	<g>
		<circle class="st15" cx="249.45" cy="226.77" r="5.67"/>
		<text transform="matrix(1 0 0 1 246.1119 228.7829)" class="st5 st16">17</text>
	</g>
	<g>
		<circle class="st15" cx="249.45" cy="269.29" r="5.67"/>
		<text transform="matrix(1 0 0 1 246.1119 271.3026)" class="st5 st16">18</text>
	</g>
	<g>
		<circle class="st15" cx="249.45" cy="311.81" r="5.67"/>
		<text transform="matrix(1 0 0 1 246.1119 313.8222)" class="st5 st16">19</text>
	</g>
	<g>
		<circle class="st15" cx="249.45" cy="354.33" r="5.67"/>
		<text transform="matrix(1 0 0 1 246.1119 356.3419)" class="st5 st16">20</text>
	</g>
	<g>
		<circle class="st15" cx="249.45" cy="396.85" r="5.67"/>
		<text transform="matrix(1 0 0 1 246.1119 398.8616)" class="st5 st16">21</text>
	</g>
	<g>
		<circle class="st15" cx="249.45" cy="439.37" r="5.67"/>
		<text transform="matrix(1 0 0 1 246.1119 441.3813)" class="st5 st16">22</text>
	</g>
	<g>
		<circle class="st15" cx="22.68" cy="226.77" r="5.67"/>
		<text transform="matrix(1 0 0 1 21.0089 228.7829)" class="st5 st16">5</text>
	</g>
	<g>
		<circle class="st15" cx="22.68" cy="311.81" r="5.67"/>
		<text transform="matrix(1 0 0 1 21.0088 313.8221)" class="st5 st16">8</text>
	</g>
	<g>
		<circle class="st15" cx="164.41" cy="311.81" r="5.67"/>
		<text transform="matrix(1 0 0 1 162.7412 313.8223)" class="st5 st16">7</text>
	</g>
	<g>
		<circle class="st15" cx="22.68" cy="396.85" r="5.67"/>
		<text transform="matrix(1 0 0 1 19.3403 398.8613)" class="st5 st16">10</text>
	</g>
	<g>
		<circle class="st15" cx="22.68" cy="269.29" r="5.67"/>
		<text transform="matrix(1 0 0 1 21.0089 271.3022)" class="st5 st16">6</text>
	</g>
	<g>
		<circle class="st15" cx="22.68" cy="354.33" r="5.67"/>
		<text transform="matrix(1 0 0 1 21.0088 356.3416)" class="st5 st16">9</text>
	</g>
	<g>
		<circle class="st15" cx="22.68" cy="439.37" r="5.67"/>
		<text transform="matrix(1 0 0 1 19.3404 441.381)" class="st5 st16">11</text>
	</g>
	<g>
		<circle class="st15" cx="22.68" cy="481.89" r="5.67"/>
		<text transform="matrix(1 0 0 1 19.3404 483.9006)" class="st5 st16">12</text>
	</g>
	<g>
		<circle class="st15" cx="22.68" cy="524.41" r="5.67"/>
		<text transform="matrix(1 0 0 1 19.3404 526.4203)" class="st5 st16">14</text>
	</g>
	<g>
		<circle class="st15" cx="22.68" cy="566.93" r="5.67"/>
		<text transform="matrix(1 0 0 1 19.3404 568.9401)" class="st5 st16">15</text>
	</g>
	<g>
		<circle class="st15" cx="107.72" cy="439.37" r="5.67"/>
		<text transform="matrix(1 0 0 1 104.3798 441.3809)" class="st5 st16">13</text>
	</g>
	<g>
		<circle class="st15" cx="334.49" cy="396.85" r="5.67"/>
		<text transform="matrix(1 0 0 1 331.1512 398.8616)" class="st5 st16">23</text>
	</g>
	<g>
		<circle class="st15" cx="334.49" cy="439.37" r="5.67"/>
		<text transform="matrix(1 0 0 1 331.1512 441.3813)" class="st5 st16">24</text>
	</g>
	<g>
		<circle class="st15" cx="447.87" cy="184.25" r="5.67"/>
		<text transform="matrix(1 0 0 1 444.5368 186.2632)" class="st5 st16">26</text>
	</g>
	<g>
		<circle class="st15" cx="447.87" cy="226.77" r="5.67"/>
		<text transform="matrix(1 0 0 1 444.5368 228.7829)" class="st5 st16">27</text>
	</g>
	<g>
		<circle class="st15" cx="447.87" cy="269.29" r="5.67"/>
		<text transform="matrix(1 0 0 1 444.5368 271.3026)" class="st5 st16">28</text>
	</g>
	<g>
		<circle class="st15" cx="447.87" cy="311.81" r="5.67"/>
		<text transform="matrix(1 0 0 1 444.5368 313.8222)" class="st5 st16">29</text>
	</g>
	<g>
		<circle class="st15" cx="447.87" cy="354.33" r="5.67"/>
		<text transform="matrix(1 0 0 1 444.5368 356.3419)" class="st5 st16">30</text>
	</g>
	<g>
		<circle class="st15" cx="447.87" cy="396.85" r="5.67"/>
		<text transform="matrix(1 0 0 1 444.5368 398.8616)" class="st5 st16">31</text>
	</g>
	<g>
		<circle class="st15" cx="447.87" cy="439.37" r="5.67"/>
		<text transform="matrix(1 0 0 1 444.5368 441.3813)" class="st5 st16">32</text>
	</g>
	<g>
		<circle class="st15" cx="447.87" cy="481.89" r="5.67"/>
		<text transform="matrix(1 0 0 1 444.5368 483.901)" class="st5 st16">33</text>
	</g>
	<g>
		<circle class="st15" cx="447.87" cy="524.41" r="5.67"/>
		<text transform="matrix(1 0 0 1 444.5368 526.4207)" class="st5 st16">34</text>
	</g>
	<g>
		<circle class="st15" cx="533.48" cy="226.77" r="5.67"/>
		<text transform="matrix(1 0 0 1 530.1406 228.7829)" class="st5 st16">35</text>
	</g>
	<g>
		<circle class="st15" cx="532.91" cy="524.41" r="5.67"/>
		<text transform="matrix(1 0 0 1 529.5768 525.8538)" class="st5 st16">36</text>
	</g>
	<g>
		<circle class="st15" cx="447.87" cy="119.06" r="5.67"/>
		<text transform="matrix(1 0 0 1 444.5371 121.0663)" class="st5 st16">25</text>
	</g>
</g>
</svg>
