<?xml version="1.0" encoding="UTF-8"?><svg xmlns="http://www.w3.org/2000/svg" viewBox="0 0 199.84 413.86"><defs><style>.cls-1,.cls-2{fill:#fff;}.cls-2,.cls-3,.cls-4,.cls-5,.cls-6{stroke:#000;}.cls-2,.cls-3,.cls-4,.cls-5,.cls-6,.cls-7{stroke-linecap:round;stroke-linejoin:round;}.cls-2,.cls-4,.cls-5,.cls-6,.cls-7{stroke-width:.5px;}.cls-8{fill:#ffe0b2;}.cls-9{letter-spacing:-.06em;}.cls-3{stroke-width:.25px;}.cls-3,.cls-4,.cls-7{fill:none;}.cls-10{font-size:6px;}.cls-10,.cls-11{font-family:Arial-BoldMT, Arial;font-weight:700;}.cls-5{fill:#bbdefb;}.cls-12{font-family:ArialMT, Arial;font-size:4px;}.cls-6{fill:#c8e6c9;}.cls-7{stroke:#e0e0e0;}.cls-13{letter-spacing:-.09em;}.cls-11{font-size:5.79px;}</style></defs><g id="Bckground"><rect class="cls-1" width="199.84" height="413.86"/></g><g id="Frame"><rect class="cls-7" x="5.67" y="5.67" width="189.92" height="277.8"/><rect class="cls-7" x="5.67" y="283.46" width="189.92" height="124.72"/><text class="cls-11" transform="translate(8.5 13.37) scale(1.04 1)"><tspan x="0" y="0">Customer / Remote support</tspan></text><text class="cls-11" transform="translate(8.5 291.97) scale(1.04 1)"><tspan x="0" y="0">Field engineer</tspan></text></g><g id="Blocks"><path class="cls-6" d="M56.69,48.19l28.35,14.17-28.35,14.17-28.35-14.17,28.35-14.17Z"/><text class="cls-12" transform="translate(44.24 63.79)"><tspan x="0" y="0">Media clean ?</tspan></text><rect class="cls-8" x="28.35" y="19.84" width="56.69" height="14.17" rx="5.67" ry="5.67"/><rect class="cls-4" x="28.35" y="19.84" width="56.69" height="14.17" rx="5.67" ry="5.67"/><text class="cls-12" transform="translate(52.47 28.28)"><tspan x="0" y="0">Start</tspan></text><path class="cls-6" d="M56.69,104.88l28.35,14.17-28.35,14.17-28.35-14.17,28.35-14.17Z"/><text class="cls-12" transform="translate(43.91 120.49)"><tspan x="0" y="0">White media ?</tspan></text><rect class="cls-8" x="28.35" y="388.35" width="56.69" height="14.17" rx="5.67" ry="5.67"/><rect class="cls-4" x="28.35" y="388.35" width="56.69" height="14.17" rx="5.67" ry="5.67"/><text class="cls-12" transform="translate(53.13 396.78)"><tspan x="0" y="0">End</tspan></text><g id="Process"><rect class="cls-5" x="113.39" y="76.54" width="56.69" height="28.35"/><text class="cls-12" transform="translate(124.95 92.14)"><tspan x="0" y="0">Clean or cut media</tspan></text></g><g id="Process-2"><rect class="cls-5" x="113.39" y="133.23" width="56.69" height="28.35"/><text class="cls-12" transform="translate(126.95 148.83)"><tspan x="0" y="0">Use white media</tspan></text></g><path class="cls-6" d="M56.69,161.57l28.35,14.17-28.35,14.17-28.35-14.17,28.35-14.17Z"/><path d="M44.76,174.78v-2.86h.57l.68,2.03c.06.19.11.33.14.42.03-.1.08-.26.15-.46l.69-1.99h.51v2.86h-.37v-2.4l-.83,2.4h-.34l-.83-2.44v2.44h-.37Z"/><path d="M49.7,174.44c-.12.13-.24.23-.38.29s-.28.1-.44.1c-.29,0-.53-.1-.7-.3-.14-.16-.21-.34-.21-.54,0-.18.06-.34.17-.48s.28-.27.51-.38c-.13-.15-.21-.27-.26-.36s-.06-.18-.06-.27c0-.17.07-.32.2-.45s.3-.19.51-.19.35.06.48.18.19.26.19.43c0,.27-.18.5-.54.7l.51.65c.06-.11.1-.25.14-.4l.37.08c-.06.25-.15.46-.25.62.13.17.28.32.45.44l-.24.28c-.14-.09-.29-.23-.44-.4ZM49.48,174.16l-.64-.8c-.19.11-.32.22-.38.32s-.1.19-.1.29c0,.12.05.24.14.36s.22.19.39.19c.11,0,.21-.03.33-.1s.2-.15.27-.25ZM48.98,172.95c.15-.09.25-.17.3-.24s.07-.14.07-.22c0-.1-.03-.18-.09-.24s-.14-.09-.23-.09-.17.03-.24.09-.09.14-.09.22c0,.04.01.09.03.14s.06.1.1.16l.16.18Z"/><path d="M52.82,173.78l.38.1c-.08.31-.22.55-.43.71s-.46.25-.76.25-.56-.06-.75-.19-.34-.31-.44-.55-.15-.49-.15-.77c0-.3.06-.56.17-.78s.28-.39.49-.51.44-.17.69-.17c.29,0,.53.07.72.22s.33.35.41.62l-.37.09c-.07-.21-.16-.36-.29-.46s-.29-.14-.48-.14c-.22,0-.4.05-.55.16s-.25.25-.31.42-.09.36-.09.55c0,.24.04.46.11.64s.18.32.33.41.31.13.49.13c.21,0,.39-.06.54-.18s.25-.3.3-.54Z"/><path d="M53.48,173.92v-.35h1.08v.35h-1.08Z"/><path d="M54.81,174.16l.35-.05c.02.14.07.25.16.32s.21.11.37.11.28-.03.36-.1.12-.14.12-.23c0-.08-.03-.14-.1-.19-.05-.03-.17-.07-.36-.12-.26-.06-.44-.12-.54-.17s-.18-.11-.23-.2-.08-.18-.08-.28c0-.09.02-.18.06-.26s.1-.14.17-.2c.05-.04.13-.07.22-.1s.2-.04.3-.04c.16,0,.31.02.43.07s.21.11.27.19.1.19.12.32l-.34.05c-.02-.11-.06-.19-.14-.25s-.18-.09-.32-.09c-.16,0-.28.03-.35.08s-.1.12-.1.19c0,.05.01.09.04.12.03.04.07.07.13.09.04.01.14.04.31.09.25.07.42.12.52.16s.18.1.23.18.08.18.08.3-.03.23-.1.33-.17.18-.3.24-.27.08-.44.08c-.27,0-.48-.06-.62-.17s-.23-.28-.27-.5Z"/><path d="M58.31,174.02l.35.04c-.04.24-.13.42-.29.56s-.35.2-.57.2c-.28,0-.51-.09-.68-.28s-.26-.45-.26-.8c0-.22.04-.42.11-.59s.19-.29.34-.38.32-.13.5-.13c.23,0,.41.06.55.17s.23.28.28.49l-.34.05c-.03-.14-.09-.24-.17-.31s-.18-.11-.3-.11c-.18,0-.32.06-.43.19s-.17.33-.17.6.05.48.16.61.25.19.42.19c.14,0,.25-.04.35-.13s.15-.21.18-.39Z"/><path d="M60.31,174.52c-.13.11-.26.19-.38.23s-.25.07-.39.07c-.23,0-.4-.06-.53-.17s-.18-.25-.18-.43c0-.1.02-.19.07-.28s.11-.15.18-.2.16-.09.25-.12c.07-.02.17-.04.31-.05.28-.03.49-.07.63-.12,0-.05,0-.08,0-.09,0-.14-.03-.24-.1-.3-.09-.08-.22-.12-.4-.12-.17,0-.29.03-.37.09s-.14.16-.17.31l-.34-.05c.03-.15.08-.27.15-.36s.18-.16.31-.21.29-.07.47-.07.32.02.43.06.19.09.24.16.09.14.11.24c.01.06.02.17.02.32v.47c0,.33,0,.53.02.62s.04.17.09.25h-.37c-.04-.07-.06-.16-.07-.26ZM60.28,173.74c-.13.05-.32.1-.57.13-.14.02-.25.04-.31.07s-.11.06-.14.11-.05.11-.05.17c0,.09.04.17.11.23s.17.09.31.09.26-.03.36-.09.18-.14.23-.24c.04-.08.06-.2.06-.35v-.13Z"/><path d="M61.18,174.78v-2.07h.32v.29c.15-.23.37-.34.66-.34.12,0,.24.02.34.07s.18.1.24.18.09.16.11.26c.01.06.02.18.02.34v1.28h-.35v-1.26c0-.14-.01-.25-.04-.32s-.08-.13-.15-.17-.15-.06-.25-.06c-.15,0-.28.05-.39.14s-.16.28-.16.54v1.13h-.35Z"/><path d="M63.4,174.78v-2.07h.32v.29c.15-.23.37-.34.66-.34.12,0,.24.02.34.07s.18.1.24.18.09.16.11.26c.01.06.02.18.02.34v1.28h-.35v-1.26c0-.14-.01-.25-.04-.32s-.08-.13-.15-.17-.15-.06-.25-.06c-.15,0-.28.05-.39.14s-.16.28-.16.54v1.13h-.35Z"/><path d="M67.05,174.11l.36.04c-.06.21-.16.38-.32.49s-.35.18-.59.18c-.3,0-.54-.09-.72-.28s-.27-.45-.27-.79.09-.62.27-.81.41-.29.7-.29.5.09.68.28.26.45.26.8c0,.02,0,.05,0,.09h-1.55c.01.23.08.4.19.52s.26.18.43.18c.13,0,.24-.03.33-.1s.16-.18.22-.32ZM65.89,173.54h1.16c-.02-.17-.06-.31-.13-.39-.11-.14-.26-.2-.44-.2-.16,0-.3.05-.41.16s-.17.25-.18.43Z"/><path d="M67.85,174.78v-2.07h.32v.31c.08-.15.16-.24.22-.29s.14-.07.23-.07c.12,0,.24.04.36.11l-.12.33c-.09-.05-.17-.08-.26-.08-.08,0-.15.02-.21.07s-.1.11-.13.19c-.04.12-.06.26-.06.41v1.09h-.35Z"/><path d="M51.86,178.82l.35.04c-.04.24-.13.42-.29.56s-.35.2-.57.2c-.28,0-.51-.09-.68-.28s-.26-.45-.26-.8c0-.22.04-.42.11-.59s.19-.29.34-.38.32-.13.5-.13c.23,0,.41.06.55.17s.23.28.28.49l-.34.05c-.03-.14-.09-.24-.17-.31s-.18-.11-.3-.11c-.18,0-.32.06-.43.19s-.17.33-.17.6.05.48.16.61.25.19.42.19c.14,0,.25-.04.35-.13s.15-.21.18-.39Z"/><path d="M52.5,179.58v-2.86h.35v2.86h-.35Z"/><path d="M54.82,178.91l.36.04c-.06.21-.16.38-.32.49s-.35.18-.59.18c-.3,0-.54-.09-.72-.28s-.27-.45-.27-.79.09-.62.27-.81.41-.29.7-.29.5.09.68.28.26.45.26.8c0,.02,0,.05,0,.09h-1.55c.01.23.08.4.19.52s.26.18.43.18c.13,0,.24-.03.33-.1s.16-.18.22-.32ZM53.66,178.34h1.16c-.02-.17-.06-.31-.13-.39-.11-.14-.26-.2-.44-.2-.16,0-.3.05-.41.16s-.17.25-.18.43Z"/><path d="M56.97,179.32c-.13.11-.26.19-.38.23s-.25.07-.39.07c-.23,0-.4-.06-.53-.17s-.18-.25-.18-.43c0-.1.02-.19.07-.28s.11-.15.18-.2.16-.09.25-.12c.07-.02.17-.04.31-.05.28-.03.49-.07.63-.12,0-.05,0-.08,0-.09,0-.14-.03-.24-.1-.3-.09-.08-.22-.12-.4-.12-.17,0-.29.03-.37.09s-.14.16-.17.31l-.34-.05c.03-.15.08-.27.15-.36s.18-.16.31-.21.29-.07.47-.07.32.02.43.06.19.09.24.16.09.14.11.24c.01.06.02.17.02.32v.47c0,.33,0,.53.02.62s.04.17.09.25h-.37c-.04-.07-.06-.16-.07-.26ZM56.94,178.54c-.13.05-.32.1-.57.13-.14.02-.25.04-.31.07s-.11.06-.14.11-.05.11-.05.17c0,.09.04.17.11.23s.17.09.31.09.26-.03.36-.09.18-.14.23-.24c.04-.08.06-.2.06-.35v-.13Z"/><path d="M57.85,179.58v-2.07h.32v.29c.15-.23.37-.34.66-.34.12,0,.24.02.34.07s.18.1.24.18.09.16.11.26c.01.06.02.18.02.34v1.28h-.35v-1.26c0-.14-.01-.25-.04-.32s-.08-.13-.15-.17-.15-.06-.25-.06c-.15,0-.28.05-.39.14s-.16.28-.16.54v1.13h-.35Z"/><path d="M61.84,178.88s0-.08,0-.11c0-.14.02-.26.06-.36.03-.08.07-.15.14-.23.05-.06.13-.14.25-.25s.2-.19.24-.26.05-.13.05-.21c0-.14-.05-.26-.16-.36s-.24-.16-.39-.16-.27.05-.38.14-.17.24-.2.44l-.36-.04c.03-.27.13-.47.29-.61s.37-.21.64-.21c.28,0,.5.08.67.23s.25.34.25.55c0,.12-.03.24-.09.35s-.17.23-.34.38c-.11.1-.19.18-.22.22s-.06.1-.08.17-.03.16-.03.3h-.34ZM61.82,179.58v-.4h.4v.4h-.4Z"/><path class="cls-6" d="M56.69,218.27l28.35,14.17-28.35,14.17-28.35-14.17,28.35-14.17Z"/><text class="cls-12" transform="translate(42.57 231.47)"><tspan x="0" y="0">Printed patterns </tspan><tspan x="8" y="4.8">good ?</tspan></text><g id="Process-3"><rect class="cls-5" x="113.39" y="189.92" width="56.69" height="28.35"/><text class="cls-12" transform="translate(123.72 205.53)"><tspan x="0" y="0">Clean M&amp;C-scanner</tspan></text></g><g id="Process-4"><rect class="cls-5" x="113.39" y="246.61" width="56.69" height="28.35"/><text class="cls-12" transform="translate(123.16 262.22)"><tspan x="0" y="0">Manual maintenance</tspan></text></g><rect class="cls-8" x="113.39" y="388.35" width="56.69" height="14.17" rx="5.67" ry="5.67"/><rect class="cls-4" x="113.39" y="388.35" width="56.69" height="14.17" rx="5.67" ry="5.67"/><text class="cls-12" transform="translate(138.17 396.78)"><tspan x="0" y="0">End</tspan></text></g><g id="Lines"><polyline class="cls-3" points="85.04 119.06 141.73 119.06 141.73 130.97"/><path d="M141.73,133.23c-.4-1.06-1.07-2.39-1.78-3.21l1.78.65,1.78-.65c-.71.82-1.39,2.14-1.78,3.21Z"/><line class="cls-8" x1="56.69" y1="34.02" x2="56.69" y2="48.19"/><line class="cls-3" x1="56.69" y1="34.02" x2="56.69" y2="45.93"/><path d="M56.69,48.19c-.4-1.06-1.07-2.39-1.78-3.21l1.78.65,1.78-.65c-.71.82-1.39,2.14-1.78,3.21Z"/><polyline class="cls-3" points="85.04 62.36 141.73 62.36 141.73 74.27"/><path d="M141.73,76.53c-.4-1.06-1.07-2.39-1.78-3.21l1.78.65,1.78-.65c-.71.82-1.39,2.14-1.78,3.21Z"/><path class="cls-1" d="M97.09,62.36c0,1.56-1.28,2.83-2.83,2.83h-4.25c-1.56,0-2.83-1.28-2.83-2.83h0c0-1.56,1.28-2.83,2.83-2.83h4.25c1.56,0,2.83,1.28,2.83,2.83h0Z"/><path class="cls-4" d="M97.09,62.36c0,1.56-1.28,2.83-2.83,2.83h-4.25c-1.56,0-2.83-1.28-2.83-2.83h0c0-1.56,1.28-2.83,2.83-2.83h4.25c1.56,0,2.83,1.28,2.83,2.83h0Z"/><text class="cls-12" transform="translate(89.57 63.85)"><tspan x="0" y="0">No</tspan></text><path class="cls-1" d="M97.09,119.06c0,1.56-1.28,2.83-2.83,2.83h-4.25c-1.56,0-2.83-1.28-2.83-2.83h0c0-1.56,1.28-2.83,2.83-2.83h4.25c1.56,0,2.83,1.28,2.83,2.83h0Z"/><path class="cls-4" d="M97.09,119.06c0,1.56-1.28,2.83-2.83,2.83h-4.25c-1.56,0-2.83-1.28-2.83-2.83h0c0-1.56,1.28-2.83,2.83-2.83h4.25c1.56,0,2.83,1.28,2.83,2.83h0Z"/><text class="cls-12" transform="translate(89.57 120.55)"><tspan x="0" y="0">No</tspan></text><line class="cls-8" x1="56.69" y1="76.54" x2="56.69" y2="104.88"/><line class="cls-3" x1="56.69" y1="76.54" x2="56.69" y2="102.62"/><path d="M56.69,104.88c-.4-1.06-1.07-2.39-1.78-3.21l1.78.65,1.78-.65c-.71.82-1.39,2.14-1.78,3.21Z"/><path class="cls-1" d="M61.65,82.2c0,1.56-1.28,2.83-2.83,2.83h-4.25c-1.56,0-2.83-1.28-2.83-2.83s1.28-2.83,2.83-2.83h4.25c1.56,0,2.83,1.28,2.83,2.83Z"/><path class="cls-4" d="M61.65,82.2c0,1.56-1.28,2.83-2.83,2.83h-4.25c-1.56,0-2.83-1.28-2.83-2.83s1.28-2.83,2.83-2.83h4.25c1.56,0,2.83,1.28,2.83,2.83Z"/><text class="cls-12" transform="translate(53.43 83.7)"><tspan class="cls-13" x="0" y="0">Y</tspan><tspan x="2.3" y="0">es</tspan></text><line class="cls-8" x1="56.69" y1="133.23" x2="56.69" y2="161.57"/><line class="cls-3" x1="56.69" y1="133.23" x2="56.69" y2="159.31"/><path d="M56.69,161.57c-.4-1.06-1.07-2.39-1.78-3.21l1.78.65,1.78-.65c-.71.82-1.39,2.14-1.78,3.21Z"/><path class="cls-1" d="M61.65,138.9c0,1.56-1.28,2.83-2.83,2.83h-4.25c-1.56,0-2.83-1.28-2.83-2.83s1.28-2.83,2.83-2.83h4.25c1.56,0,2.83,1.28,2.83,2.83Z"/><path class="cls-4" d="M61.65,138.9c0,1.56-1.28,2.83-2.83,2.83h-4.25c-1.56,0-2.83-1.28-2.83-2.83s1.28-2.83,2.83-2.83h4.25c1.56,0,2.83,1.28,2.83,2.83Z"/><text class="cls-12" transform="translate(53.43 140.39)"><tspan class="cls-13" x="0" y="0">Y</tspan><tspan x="2.3" y="0">es</tspan></text><polyline class="cls-3" points="85.04 232.44 141.73 232.44 141.73 244.35"/><path d="M141.73,246.61c-.4-1.06-1.07-2.39-1.78-3.21l1.78.65,1.78-.65c-.71.82-1.39,2.14-1.78,3.21Z"/><polyline class="cls-3" points="85.04 175.75 141.73 175.75 141.73 187.66"/><path d="M141.73,189.92c-.4-1.06-1.07-2.39-1.78-3.21l1.78.65,1.78-.65c-.71.82-1.39,2.14-1.78,3.21Z"/><path class="cls-1" d="M97.09,175.75c0,1.56-1.28,2.83-2.83,2.83h-4.25c-1.56,0-2.83-1.28-2.83-2.83h0c0-1.56,1.28-2.83,2.83-2.83h4.25c1.56,0,2.83,1.28,2.83,2.83h0Z"/><path class="cls-4" d="M97.09,175.75c0,1.56-1.28,2.83-2.83,2.83h-4.25c-1.56,0-2.83-1.28-2.83-2.83h0c0-1.56,1.28-2.83,2.83-2.83h4.25c1.56,0,2.83,1.28,2.83,2.83h0Z"/><text class="cls-12" transform="translate(89.57 177.24)"><tspan x="0" y="0">No</tspan></text><path class="cls-1" d="M97.09,232.44c0,1.56-1.28,2.83-2.83,2.83h-4.25c-1.56,0-2.83-1.28-2.83-2.83h0c0-1.56,1.28-2.83,2.83-2.83h4.25c1.56,0,2.83,1.28,2.83,2.83h0Z"/><path class="cls-4" d="M97.09,232.44c0,1.56-1.28,2.83-2.83,2.83h-4.25c-1.56,0-2.83-1.28-2.83-2.83h0c0-1.56,1.28-2.83,2.83-2.83h4.25c1.56,0,2.83,1.28,2.83,2.83h0Z"/><text class="cls-12" transform="translate(89.57 233.93)"><tspan x="0" y="0">No</tspan></text><line class="cls-8" x1="56.69" y1="189.92" x2="56.69" y2="218.27"/><line class="cls-3" x1="56.69" y1="189.92" x2="56.69" y2="216"/><path d="M56.69,218.27c-.4-1.06-1.07-2.39-1.78-3.21l1.78.65,1.78-.65c-.71.82-1.39,2.14-1.78,3.21Z"/><path class="cls-1" d="M61.65,195.59c0,1.56-1.28,2.83-2.83,2.83h-4.25c-1.56,0-2.83-1.28-2.83-2.83s1.28-2.83,2.83-2.83h4.25c1.56,0,2.83,1.28,2.83,2.83Z"/><path class="cls-4" d="M61.65,195.59c0,1.56-1.28,2.83-2.83,2.83h-4.25c-1.56,0-2.83-1.28-2.83-2.83s1.28-2.83,2.83-2.83h4.25c1.56,0,2.83,1.28,2.83,2.83Z"/><text class="cls-12" transform="translate(53.43 197.08)"><tspan class="cls-13" x="0" y="0">Y</tspan><tspan x="2.3" y="0">es</tspan></text><line class="cls-8" x1="56.69" y1="246.61" x2="56.69" y2="303.31"/><line class="cls-3" x1="56.69" y1="246.61" x2="56.69" y2="301.04"/><path d="M56.69,303.31c-.4-1.06-1.07-2.39-1.78-3.21l1.78.65,1.78-.65c-.71.82-1.39,2.14-1.78,3.21Z"/><line class="cls-8" x1="56.69" y1="331.65" x2="56.69" y2="345.83"/><line class="cls-3" x1="56.69" y1="331.65" x2="56.69" y2="343.56"/><path d="M56.69,345.83c-.4-1.06-1.07-2.39-1.78-3.21l1.78.65,1.78-.65c-.71.82-1.39,2.14-1.78,3.21Z"/><path class="cls-1" d="M61.65,252.28c0,1.56-1.28,2.83-2.83,2.83h-4.25c-1.56,0-2.83-1.28-2.83-2.83s1.28-2.83,2.83-2.83h4.25c1.56,0,2.83,1.28,2.83,2.83Z"/><path class="cls-4" d="M61.65,252.28c0,1.56-1.28,2.83-2.83,2.83h-4.25c-1.56,0-2.83-1.28-2.83-2.83s1.28-2.83,2.83-2.83h4.25c1.56,0,2.83,1.28,2.83,2.83Z"/><text class="cls-12" transform="translate(53.43 253.78)"><tspan class="cls-13" x="0" y="0">Y</tspan><tspan x="2.3" y="0">es</tspan></text><line class="cls-8" x1="56.69" y1="374.17" x2="56.69" y2="388.35"/><line class="cls-3" x1="56.69" y1="374.17" x2="56.69" y2="386.08"/><path d="M56.69,388.35c-.4-1.06-1.07-2.39-1.78-3.21l1.78.65,1.78-.65c-.71.82-1.39,2.14-1.78,3.21Z"/><line class="cls-8" x1="141.73" y1="331.65" x2="141.73" y2="388.35"/><line class="cls-3" x1="141.73" y1="331.65" x2="141.73" y2="386.08"/><path d="M141.73,388.35c-.4-1.06-1.07-2.39-1.78-3.21l1.78.65,1.78-.65c-.71.82-1.39,2.14-1.78,3.21Z"/><line class="cls-8" x1="141.73" y1="274.96" x2="141.73" y2="303.31"/><line class="cls-3" x1="141.73" y1="274.96" x2="141.73" y2="301.04"/><path d="M141.73,303.31c-.4-1.06-1.07-2.39-1.78-3.21l1.78.65,1.78-.65c-.71.82-1.39,2.14-1.78,3.21Z"/></g><g id="Numbers"><circle class="cls-2" cx="22.68" cy="62.36" r="5.67"/><text class="cls-10" transform="translate(21.01 64.37)"><tspan x="0" y="0">1</tspan></text><circle class="cls-2" cx="107.72" cy="90.71" r="5.67"/><text class="cls-10" transform="translate(106.05 92.72)"><tspan x="0" y="0">2</tspan></text><circle class="cls-2" cx="22.68" cy="119.06" r="5.67"/><text class="cls-10" transform="translate(21.01 121.07)"><tspan x="0" y="0">3</tspan></text><circle class="cls-2" cx="22.68" cy="317.48" r="5.67"/><text class="cls-10" transform="translate(21.01 319.49)"><tspan x="0" y="0">9</tspan></text><circle class="cls-2" cx="107.72" cy="147.4" r="5.67"/><text class="cls-10" transform="translate(106.05 149.41)"><tspan x="0" y="0">4</tspan></text><circle class="cls-2" cx="107.72" cy="204.09" r="5.67"/><text class="cls-10" transform="translate(106.05 206.11)"><tspan x="0" y="0">6</tspan></text><circle class="cls-2" cx="22.68" cy="360" r="5.67"/><text class="cls-10" transform="translate(19.51 362.01)"><tspan class="cls-9" x="0" y="0">1</tspan><tspan x="3.01" y="0">1</tspan></text><circle class="cls-2" cx="107.72" cy="260.79" r="5.67"/><text class="cls-10" transform="translate(106.05 262.8)"><tspan x="0" y="0">8</tspan></text><circle class="cls-2" cx="22.68" cy="175.75" r="5.67"/><text class="cls-10" transform="translate(21.01 177.76)"><tspan x="0" y="0">5</tspan></text><circle class="cls-2" cx="22.68" cy="232.44" r="5.67"/><text class="cls-10" transform="translate(21.01 234.45)"><tspan x="0" y="0">7</tspan></text><g id="Process-5"><rect class="cls-5" x="113.39" y="303.31" width="56.69" height="28.35"/><text class="cls-12" transform="translate(125.5 318.91)"><tspan x="0" y="0">Replace printhead</tspan></text></g><g id="Process-6"><rect class="cls-5" x="28.35" y="303.31" width="56.69" height="28.35"/><text class="cls-12" transform="translate(38.24 318.91)"><tspan x="0" y="0">Check M&amp;C-scanner</tspan></text></g><g id="Process-7"><rect class="cls-5" x="28.35" y="345.83" width="56.69" height="28.35"/><text class="cls-12" transform="translate(36.57 361.43)"><tspan x="0" y="0">Replace M&amp;C-scanner</tspan></text></g><circle class="cls-2" cx="107.72" cy="317.48" r="5.67"/><text class="cls-10" transform="translate(104.38 319.49)"><tspan x="0" y="0">10</tspan></text></g></svg>