<?xml version="1.0" encoding="UTF-8"?><svg xmlns="http://www.w3.org/2000/svg" viewBox="0 0 249.73 252.28"><defs><style>.cls-1,.cls-2{fill:#fff;}.cls-3{letter-spacing:-.07em;}.cls-4,.cls-2,.cls-5,.cls-6,.cls-7,.cls-8{stroke-linecap:round;stroke-linejoin:round;}.cls-4,.cls-2,.cls-5,.cls-6,.cls-8{stroke:#000;}.cls-4,.cls-2,.cls-5,.cls-7,.cls-8{stroke-width:.5px;}.cls-4,.cls-6,.cls-7{fill:none;}.cls-5{fill:#c8e6c9;}.cls-6{stroke-width:.25px;}.cls-9{fill:#ffe0b2;}.cls-7{stroke:#e0e0e0;}.cls-10{letter-spacing:-.09em;}.cls-11{font-family:ArialMT, Arial;font-size:4px;}.cls-8{fill:#bbdefb;}.cls-12{font-family:Arial-BoldMT, Arial;font-size:6px;font-weight:700;}</style></defs><g id="Bckground"><rect class="cls-1" width="249.73" height="252.28"/></g><g id="Frame"><rect class="cls-7" x="5.67" y="5.67" width="238.11" height="240.94"/><text class="cls-12" transform="translate(8.5 13.65)"><tspan x="0" y="0">Remote support / Customer</tspan></text></g><g id="Blocks"><path class="cls-5" d="m82.2,56.69l28.35,14.17-28.35,14.17-28.35-14.17,28.35-14.17Z"/><text class="cls-11" transform="translate(65.87 72.3)"><tspan x="0" y="0">AAC markers on ?</tspan></text><path class="cls-5" d="m82.2,113.39l28.35,14.17-28.35,14.17-28.35-14.17,28.35-14.17Z"/><text class="cls-11" transform="translate(64.75 126.59)"><tspan x="0" y="0">Correction factorset </tspan><tspan x="12.45" y="4.8">to 0 ?</tspan></text><path class="cls-5" d="m82.2,170.08l28.35,14.17-28.35,14.17-28.35-14.17,28.35-14.17Z"/><text class="cls-11" transform="translate(70.87 183.28)"><tspan x="0" y="0">Printing from </tspan><tspan x="-1.79" y="4.8">leading edge ?</tspan></text><rect class="cls-8" x="138.9" y="85.04" width="56.69" height="28.35"/><text class="cls-11" transform="translate(155.91 100.65)"><tspan x="0" y="0">Use markers</tspan></text><rect class="cls-8" x="138.9" y="141.73" width="56.69" height="28.35"/><text class="cls-11" transform="translate(148.24 157.34)"><tspan x="0" y="0">Rest correction factor</tspan></text><rect class="cls-8" x="138.9" y="212.6" width="56.69" height="28.35"/><text class="cls-11" transform="translate(147.6 228.2)"><tspan x="0" y="0">Lower </tspan><tspan class="cls-3" x="12.01" y="0">V</tspan><tspan x="14.38" y="0">acuum setting</tspan></text><rect class="cls-8" x="53.86" y="212.6" width="56.69" height="28.35"/><text class="cls-11" transform="translate(66.64 228.2)"><tspan x="0" y="0">Reprint after “cut”</tspan></text><rect class="cls-9" x="53.86" y="28.35" width="56.69" height="14.17" rx="5.67" ry="5.67"/><rect class="cls-4" x="53.86" y="28.35" width="56.69" height="14.17" rx="5.67" ry="5.67"/><text class="cls-11" transform="translate(64.53 34.38)"><tspan x="0" y="0">Printed image is too </tspan><tspan x="8.89" y="4.8">short/long</tspan></text></g><g id="Lines"><line class="cls-9" x1="82.2" y1="42.52" x2="82.2" y2="56.69"/><line class="cls-6" x1="82.2" y1="42.52" x2="82.2" y2="54.43"/><path d="m82.2,56.69c-.4-1.06-1.07-2.39-1.78-3.21l1.78.65,1.78-.65c-.71.82-1.39,2.14-1.78,3.21Z"/><line class="cls-9" x1="82.2" y1="85.04" x2="82.2" y2="113.39"/><line class="cls-6" x1="82.2" y1="85.04" x2="82.2" y2="111.12"/><path d="m82.2,113.39c-.4-1.06-1.07-2.39-1.78-3.21l1.78.65,1.78-.65c-.71.82-1.39,2.14-1.78,3.21Z"/><line class="cls-9" x1="82.2" y1="141.73" x2="82.2" y2="170.08"/><line class="cls-6" x1="82.2" y1="141.73" x2="82.2" y2="167.82"/><path d="m82.2,170.08c-.4-1.06-1.07-2.39-1.78-3.21l1.78.65,1.78-.65c-.71.82-1.39,2.14-1.78,3.21Z"/><line class="cls-9" x1="82.2" y1="198.43" x2="82.2" y2="212.6"/><line class="cls-6" x1="82.2" y1="198.43" x2="82.2" y2="210.34"/><path d="m82.2,212.6c-.4-1.06-1.07-2.39-1.78-3.21l1.78.65,1.78-.65c-.71.82-1.39,2.14-1.78,3.21Z"/><polyline class="cls-6" points="110.55 70.87 167.24 70.87 167.24 82.78"/><path d="m167.24,85.04c-.4-1.06-1.07-2.39-1.78-3.21l1.78.65,1.78-.65c-.71.82-1.39,2.14-1.78,3.21Z"/><polyline class="cls-6" points="110.55 127.56 167.24 127.56 167.24 139.47"/><path d="m167.24,141.73c-.4-1.06-1.07-2.39-1.78-3.21l1.78.65,1.78-.65c-.71.82-1.39,2.14-1.78,3.21Z"/><polyline class="cls-6" points="110.55 184.25 167.24 184.25 167.24 210.34"/><path d="m167.24,212.6c-.4-1.06-1.07-2.39-1.78-3.21l1.78.65,1.78-.65c-.71.82-1.39,2.14-1.78,3.21Z"/><path class="cls-1" d="m122.6,184.25c0,1.56-1.28,2.83-2.83,2.83h-4.25c-1.56,0-2.83-1.28-2.83-2.83h0c0-1.56,1.28-2.83,2.83-2.83h4.25c1.56,0,2.83,1.28,2.83,2.83h0Z"/><path class="cls-4" d="m122.6,184.25c0,1.56-1.28,2.83-2.83,2.83h-4.25c-1.56,0-2.83-1.28-2.83-2.83h0c0-1.56,1.28-2.83,2.83-2.83h4.25c1.56,0,2.83,1.28,2.83,2.83h0Z"/><text class="cls-11" transform="translate(115.08 185.74)"><tspan x="0" y="0">No</tspan></text><path class="cls-1" d="m122.6,127.56c0,1.56-1.28,2.83-2.83,2.83h-4.25c-1.56,0-2.83-1.28-2.83-2.83s1.28-2.83,2.83-2.83h4.25c1.56,0,2.83,1.28,2.83,2.83Z"/><path class="cls-4" d="m122.6,127.56c0,1.56-1.28,2.83-2.83,2.83h-4.25c-1.56,0-2.83-1.28-2.83-2.83s1.28-2.83,2.83-2.83h4.25c1.56,0,2.83,1.28,2.83,2.83Z"/><text class="cls-11" transform="translate(115.08 129.05)"><tspan x="0" y="0">No</tspan></text><path class="cls-1" d="m122.6,70.87c0,1.56-1.28,2.83-2.83,2.83h-4.25c-1.56,0-2.83-1.28-2.83-2.83h0c0-1.56,1.28-2.83,2.83-2.83h4.25c1.56,0,2.83,1.28,2.83,2.83h0Z"/><path class="cls-4" d="m122.6,70.87c0,1.56-1.28,2.83-2.83,2.83h-4.25c-1.56,0-2.83-1.28-2.83-2.83h0c0-1.56,1.28-2.83,2.83-2.83h4.25c1.56,0,2.83,1.28,2.83,2.83h0Z"/><text class="cls-11" transform="translate(115.08 72.36)"><tspan x="0" y="0">No</tspan></text><path class="cls-1" d="m87.17,147.53c0,1.56-1.28,2.83-2.83,2.83h-4.25c-1.56,0-2.83-1.28-2.83-2.83s1.28-2.83,2.83-2.83h4.25c1.56,0,2.83,1.28,2.83,2.83Z"/><path class="cls-4" d="m87.17,147.53c0,1.56-1.28,2.83-2.83,2.83h-4.25c-1.56,0-2.83-1.28-2.83-2.83s1.28-2.83,2.83-2.83h4.25c1.56,0,2.83,1.28,2.83,2.83Z"/><text class="cls-11" transform="translate(78.94 149.02)"><tspan class="cls-10" x="0" y="0">Y</tspan><tspan x="2.3" y="0">es</tspan></text><path class="cls-1" d="m87.17,90.71c0,1.56-1.28,2.83-2.83,2.83h-4.25c-1.56,0-2.83-1.28-2.83-2.83s1.28-2.83,2.83-2.83h4.25c1.56,0,2.83,1.28,2.83,2.83Z"/><path class="cls-4" d="m87.17,90.71c0,1.56-1.28,2.83-2.83,2.83h-4.25c-1.56,0-2.83-1.28-2.83-2.83s1.28-2.83,2.83-2.83h4.25c1.56,0,2.83,1.28,2.83,2.83Z"/><text class="cls-11" transform="translate(78.94 92.2)"><tspan class="cls-10" x="0" y="0">Y</tspan><tspan x="2.3" y="0">es</tspan></text><path class="cls-1" d="m87.17,204.09c0,1.56-1.28,2.83-2.83,2.83h-4.25c-1.56,0-2.83-1.28-2.83-2.83s1.28-2.83,2.83-2.83h4.25c1.56,0,2.83,1.28,2.83,2.83Z"/><path class="cls-4" d="m87.17,204.09c0,1.56-1.28,2.83-2.83,2.83h-4.25c-1.56,0-2.83-1.28-2.83-2.83s1.28-2.83,2.83-2.83h4.25c1.56,0,2.83,1.28,2.83,2.83Z"/><text class="cls-11" transform="translate(78.94 205.59)"><tspan class="cls-10" x="0" y="0">Y</tspan><tspan x="2.3" y="0">es</tspan></text></g><g id="Numbers"><circle class="cls-2" cx="48.19" cy="70.87" r="5.67"/><text class="cls-12" transform="translate(46.52 72.88)"><tspan x="0" y="0">1</tspan></text><circle class="cls-2" cx="48.19" cy="127.56" r="5.67"/><text class="cls-12" transform="translate(46.52 129.57)"><tspan x="0" y="0">3</tspan></text><circle class="cls-2" cx="133.23" cy="99.21" r="5.67"/><text class="cls-12" transform="translate(131.56 101.22)"><tspan x="0" y="0">2</tspan></text><circle class="cls-2" cx="48.19" cy="184.25" r="5.67"/><text class="cls-12" transform="translate(46.52 186.26)"><tspan x="0" y="0">5</tspan></text><circle class="cls-2" cx="133.23" cy="156.73" r="5.67"/><text class="cls-12" transform="translate(131.56 158.74)"><tspan x="0" y="0">4</tspan></text><circle class="cls-2" cx="133.23" cy="227.09" r="5.67"/><text class="cls-12" transform="translate(131.56 229.1)"><tspan x="0" y="0">7</tspan></text><circle class="cls-2" cx="48.19" cy="226.45" r="5.67"/><text class="cls-12" transform="translate(46.52 228.46)"><tspan x="0" y="0">6</tspan></text></g></svg>