<?xml version="1.0" encoding="UTF-8"?><svg xmlns="http://www.w3.org/2000/svg" viewBox="0 0 99.78 300.47"><defs><style>.cls-1,.cls-2{fill:#fff;}.cls-2,.cls-3,.cls-4,.cls-5{stroke:#000;}.cls-2,.cls-3,.cls-4,.cls-5,.cls-6{stroke-linecap:round;stroke-linejoin:round;}.cls-2,.cls-4,.cls-5,.cls-6{stroke-width:.5px;}.cls-7{fill:#ffe0b2;}.cls-3{stroke-width:.25px;}.cls-3,.cls-4,.cls-6{fill:none;}.cls-8{font-size:6px;}.cls-8,.cls-9{font-family:Arial-BoldMT, Arial;font-weight:700;}.cls-5{fill:#bbdefb;}.cls-10{font-family:ArialMT, Arial;font-size:4px;}.cls-6{stroke:#e0e0e0;}.cls-9{font-size:5.79px;}</style></defs><g id="Bckground"><rect class="cls-1" width="99.78" height="300.47"/></g><g id="Frame"><rect class="cls-6" x="5.67" y="5.67" width="87.87" height="121.89"/><rect class="cls-6" x="5.67" y="127.56" width="87.87" height="167.24"/><text class="cls-9" transform="translate(8.5 13.37) scale(1.04 1)"><tspan x="0" y="0">Customer / Remote support</tspan></text><text class="cls-9" transform="translate(8.5 136.06) scale(1.04 1)"><tspan x="0" y="0">Engineer</tspan></text></g><g id="Blocks"><rect class="cls-7" x="28.35" y="19.84" width="56.69" height="14.17" rx="5.67" ry="5.67"/><rect class="cls-4" x="28.35" y="19.84" width="56.69" height="14.17" rx="5.67" ry="5.67"/><text class="cls-10" transform="translate(52.47 28.28)"><tspan x="0" y="0">Start</tspan></text><rect class="cls-7" x="28.35" y="274.96" width="56.69" height="14.17" rx="5.67" ry="5.67"/><rect class="cls-4" x="28.35" y="274.96" width="56.69" height="14.17" rx="5.67" ry="5.67"/><text class="cls-10" transform="translate(53.13 283.39)"><tspan x="0" y="0">End</tspan></text><g id="Process"><rect class="cls-5" x="28.35" y="48.19" width="56.69" height="28.35"/><text class="cls-10" transform="translate(31.01 63.79)"><tspan x="0" y="0">Repeat calibration procedure</tspan></text></g><g id="Process-2"><rect class="cls-5" x="28.35" y="90.71" width="56.69" height="28.35"/><text class="cls-10" transform="translate(40.35 103.91)"><tspan x="0" y="0">Perform automatic </tspan><tspan x="4.89" y="4.8">maintenance</tspan></text></g><g id="Process-3"><rect class="cls-5" x="28.35" y="147.4" width="56.69" height="28.35"/><text class="cls-10" transform="translate(42.57 163.01)"><tspan x="0" y="0">Purse printhead</tspan></text></g><g id="Process-4"><rect class="cls-5" x="28.35" y="189.92" width="56.69" height="28.35"/><text class="cls-10" transform="translate(42.91 205.53)"><tspan x="0" y="0">Check airhoses</tspan></text></g><g id="Process-5"><rect class="cls-5" x="28.35" y="232.44" width="56.69" height="28.35"/><text class="cls-10" transform="translate(40.46 248.05)"><tspan x="0" y="0">Replace printhead</tspan></text></g></g><g id="Lines"><line class="cls-7" x1="56.69" y1="34.02" x2="56.69" y2="48.19"/><line class="cls-3" x1="56.69" y1="34.02" x2="56.69" y2="45.93"/><path d="M56.69,48.19c-.4-1.06-1.07-2.39-1.78-3.21l1.78.65,1.78-.65c-.71.82-1.39,2.14-1.78,3.21Z"/><line class="cls-7" x1="56.69" y1="76.54" x2="56.69" y2="90.71"/><line class="cls-3" x1="56.69" y1="76.54" x2="56.69" y2="88.45"/><path d="M56.69,90.71c-.4-1.06-1.07-2.39-1.78-3.21l1.78.65,1.78-.65c-.71.82-1.39,2.14-1.78,3.21Z"/><line class="cls-7" x1="56.69" y1="175.75" x2="56.69" y2="189.92"/><line class="cls-3" x1="56.69" y1="175.75" x2="56.69" y2="187.66"/><path d="M56.69,189.92c-.4-1.06-1.07-2.39-1.78-3.21l1.78.65,1.78-.65c-.71.82-1.39,2.14-1.78,3.21Z"/><line class="cls-7" x1="56.69" y1="218.27" x2="56.69" y2="232.44"/><line class="cls-3" x1="56.69" y1="218.27" x2="56.69" y2="230.18"/><path d="M56.69,232.44c-.4-1.06-1.07-2.39-1.78-3.21l1.78.65,1.78-.65c-.71.82-1.39,2.14-1.78,3.21Z"/><line class="cls-7" x1="56.69" y1="260.79" x2="56.69" y2="274.96"/><line class="cls-3" x1="56.69" y1="260.79" x2="56.69" y2="272.7"/><path d="M56.69,274.96c-.4-1.06-1.07-2.39-1.78-3.21l1.78.65,1.78-.65c-.71.82-1.39,2.14-1.78,3.21Z"/><line class="cls-7" x1="56.69" y1="119.06" x2="56.69" y2="147.4"/><line class="cls-3" x1="56.69" y1="119.06" x2="56.69" y2="145.14"/><path d="M56.69,147.4c-.4-1.06-1.07-2.39-1.78-3.21l1.78.65,1.78-.65c-.71.82-1.39,2.14-1.78,3.21Z"/></g><g id="Numbers"><circle class="cls-2" cx="22.68" cy="62.36" r="5.67"/><text class="cls-8" transform="translate(21.01 64.37)"><tspan x="0" y="0">1</tspan></text><circle class="cls-2" cx="22.68" cy="104.88" r="5.67"/><text class="cls-8" transform="translate(21.01 106.89)"><tspan x="0" y="0">2</tspan></text><circle class="cls-2" cx="22.68" cy="161.57" r="5.67"/><text class="cls-8" transform="translate(21.01 163.59)"><tspan x="0" y="0">3</tspan></text><circle class="cls-2" cx="22.68" cy="204.09" r="5.67"/><text class="cls-8" transform="translate(21.01 206.11)"><tspan x="0" y="0">4</tspan></text><circle class="cls-2" cx="22.68" cy="246.61" r="5.67"/><text class="cls-8" transform="translate(21.01 248.63)"><tspan x="0" y="0">5</tspan></text></g></svg>