<?xml version="1.0" encoding="UTF-8"?>
<svg xmlns="http://www.w3.org/2000/svg" version="1.1" viewBox="0 0 249.73 490.39">
  <!-- Generator: Adobe Illustrator 29.2.1, SVG Export Plug-In . SVG Version: 2.1.0 Build 116)  -->
  <defs>
    <style>
      .st0, .st1 {
        fill: #fff;
      }

      .st1, .st2, .st3, .st4, .st5 {
        stroke: #000;
      }

      .st1, .st2, .st3, .st4, .st5, .st6 {
        stroke-linecap: round;
        stroke-linejoin: round;
      }

      .st1, .st3, .st4, .st5, .st6 {
        stroke-width: .5px;
      }

      .st7 {
        fill: #ffe0b2;
      }

      .st2 {
        stroke-width: .25px;
      }

      .st2, .st3, .st6 {
        fill: none;
      }

      .st8 {
        font-family: Arial-BoldMT, Arial;
        font-size: 6px;
        font-weight: 700;
      }

      .st4 {
        fill: #bbdefb;
      }

      .st9 {
        font-size: 4px;
      }

      .st9, .st10 {
        font-family: ArialMT, Arial;
      }

      .st5 {
        fill: #c8e6c9;
      }

      .st6 {
        stroke: #e0e0e0;
      }

      .st10 {
        font-size: 3.84px;
      }
    </style>
  </defs>
  <g id="Bckground">
    <rect class="st0" width="249.73" height="490.39"/>
  </g>
  <g id="Frame">
    <rect class="st6" x="4.39" y="5.67" width="240.94" height="479.06"/>
    <rect class="st6" x="4.39" y="204.09" width="240.94" height="280.63"/>
  </g>
  <g id="Blocks">
    <g>
      <path class="st5" d="M75.26,56.69l28.35,14.17-28.35,14.17-28.35-14.17,28.35-14.17Z"/>
      <text class="st9" transform="translate(57.59 69.9)"><tspan x="0" y="0">MediaThickness set </tspan><tspan x="8.45" y="4.8">correctly ?</tspan></text>
    </g>
    <g>
      <path class="st5" d="M75.26,110.55l28.35,14.17-28.35,14.17-28.35-14.17,28.35-14.17Z"/>
      <text class="st9" transform="translate(61.03 126.16)"><tspan x="0" y="0">Pattern visible ?</tspan></text>
    </g>
    <g>
      <path class="st5" d="M75.26,164.41l28.35,14.17-28.35,14.17-28.35-14.17,28.35-14.17Z"/>
      <text class="st9" transform="translate(66.92 177.61)"><tspan x="0" y="0">Is pattern </tspan><tspan x="-1.45" y="4.8">complete ?</tspan></text>
    </g>
    <g>
      <path class="st5" d="M75.26,266.46l28.35,14.17-28.35,14.17-28.35-14.17,28.35-14.17Z"/>
      <text class="st9" transform="translate(63.03 279.66)"><tspan x="0" y="0">M&amp;C-scanner </tspan><tspan x="3.67" y="4.8">working ?</tspan></text>
    </g>
    <g>
      <path class="st5" d="M75.26,368.5l28.35,14.17-28.35,14.17-28.35-14.17,28.35-14.17Z"/>
      <text class="st9" transform="translate(60.48 381.71)"><tspan x="0" y="0">Z-motion system </tspan><tspan x="6.22" y="4.8">working ?</tspan></text>
    </g>
    <g>
      <rect class="st4" x="151.8" y="56.69" width="56.69" height="28.35"/>
      <text class="st9" transform="translate(162.13 72.3)"><tspan x="0" y="0">Set mediaThickness</tspan></text>
    </g>
    <g>
      <rect class="st4" x="151.8" y="110.55" width="56.69" height="28.35"/>
      <text class="st9" transform="translate(168.24 126.16)"><tspan x="0" y="0">Change color</tspan></text>
    </g>
    <g>
      <rect class="st4" x="151.8" y="368.5" width="56.69" height="28.35"/>
      <text class="st9" transform="translate(158.91 384.11)"><tspan x="0" y="0">Repair Z-motion system</tspan></text>
    </g>
    <g>
      <rect class="st4" x="151.8" y="164.41" width="56.69" height="28.35"/>
      <text class="st9" transform="translate(161.58 180.02)"><tspan x="0" y="0">Perform PH-cleaning</tspan></text>
    </g>
    <g>
      <rect class="st4" x="151.8" y="209.76" width="56.69" height="28.35"/>
      <text class="st9" transform="translate(163.91 225.37)"><tspan x="0" y="0">Replace printhead</tspan></text>
    </g>
    <g>
      <rect class="st4" x="151.8" y="266.46" width="56.69" height="28.35"/>
      <text class="st9" transform="translate(164.47 282.06)"><tspan x="0" y="0">Calibrate scanner</tspan></text>
    </g>
    <g>
      <rect class="st4" x="151.8" y="311.81" width="56.69" height="28.35"/>
      <text class="st9" transform="translate(155.02 327.42)"><tspan x="0" y="0">Clean/replace M&amp;C-scanner</tspan></text>
    </g>
    <g>
      <rect class="st4" x="46.91" y="425.2" width="56.69" height="28.35"/>
      <text class="st9" transform="translate(59.7 438.4)"><tspan x="0" y="0">Perform Z-motion </tspan><tspan x="6.44" y="4.8">calibration</tspan></text>
    </g>
  </g>
  <g id="Lines">
    <g>
      <line class="st7" x1="75.26" y1="45.35" x2="75.26" y2="56.69"/>
      <g>
        <line class="st2" x1="75.26" y1="45.35" x2="75.26" y2="54.43"/>
        <path d="M75.26,56.69c-.4-1.06-1.07-2.39-1.78-3.21l1.78.65,1.78-.65c-.71.82-1.39,2.14-1.78,3.21Z"/>
      </g>
    </g>
    <g>
      <line class="st7" x1="75.26" y1="85.04" x2="75.26" y2="110.55"/>
      <g>
        <line class="st2" x1="75.26" y1="85.04" x2="75.26" y2="108.29"/>
        <path d="M75.26,110.55c-.4-1.06-1.07-2.39-1.78-3.21l1.78.65,1.78-.65c-.71.82-1.39,2.14-1.78,3.21Z"/>
      </g>
    </g>
    <g>
      <line class="st7" x1="75.26" y1="192.76" x2="75.26" y2="266.46"/>
      <g>
        <line class="st2" x1="75.26" y1="192.76" x2="75.26" y2="264.19"/>
        <path d="M75.26,266.46c-.4-1.06-1.07-2.39-1.78-3.21l1.78.65,1.78-.65c-.71.82-1.39,2.14-1.78,3.21Z"/>
      </g>
    </g>
    <g>
      <line class="st7" x1="75.26" y1="138.9" x2="75.26" y2="164.41"/>
      <g>
        <line class="st2" x1="75.26" y1="138.9" x2="75.26" y2="162.15"/>
        <path d="M75.26,164.41c-.4-1.06-1.07-2.39-1.78-3.21l1.78.65,1.78-.65c-.71.82-1.39,2.14-1.78,3.21Z"/>
      </g>
    </g>
    <g>
      <g>
        <path class="st0" d="M80.22,198.19c0,1.49-1.28,2.72-2.83,2.72h-4.25c-1.56,0-2.83-1.22-2.83-2.72s1.28-2.72,2.83-2.72h4.25c1.56,0,2.83,1.22,2.83,2.72Z"/>
        <path class="st3" d="M80.22,198.19c0,1.49-1.28,2.72-2.83,2.72h-4.25c-1.56,0-2.83-1.22-2.83-2.72s1.28-2.72,2.83-2.72h4.25c1.56,0,2.83,1.22,2.83,2.72Z"/>
      </g>
      <text class="st10" transform="translate(71.81 199.62) scale(1.04 1)"><tspan x="0" y="0">Yes</tspan></text>
    </g>
    <g>
      <g>
        <path class="st0" d="M80.22,144.57c0,1.49-1.28,2.72-2.83,2.72h-4.25c-1.56,0-2.83-1.22-2.83-2.72s1.28-2.72,2.83-2.72h4.25c1.56,0,2.83,1.22,2.83,2.72Z"/>
        <path class="st3" d="M80.22,144.57c0,1.49-1.28,2.72-2.83,2.72h-4.25c-1.56,0-2.83-1.22-2.83-2.72s1.28-2.72,2.83-2.72h4.25c1.56,0,2.83,1.22,2.83,2.72Z"/>
      </g>
      <text class="st10" transform="translate(72.15 146) scale(1.04 1)"><tspan x="0" y="0">yes</tspan></text>
    </g>
    <g>
      <line class="st7" x1="180.14" y1="192.76" x2="180.14" y2="209.76"/>
      <g>
        <line class="st2" x1="180.14" y1="192.76" x2="180.14" y2="207.5"/>
        <path d="M180.14,209.76c-.4-1.06-1.07-2.39-1.78-3.21l1.78.65,1.78-.65c-.71.82-1.39,2.14-1.78,3.21Z"/>
      </g>
    </g>
    <g>
      <g>
        <path class="st0" d="M80.22,90.59c0,1.49-1.28,2.72-2.83,2.72h-4.25c-1.56,0-2.83-1.22-2.83-2.72s1.28-2.72,2.83-2.72h4.25c1.56,0,2.83,1.22,2.83,2.72Z"/>
        <path class="st3" d="M80.22,90.59c0,1.49-1.28,2.72-2.83,2.72h-4.25c-1.56,0-2.83-1.22-2.83-2.72s1.28-2.72,2.83-2.72h4.25c1.56,0,2.83,1.22,2.83,2.72Z"/>
      </g>
      <text class="st10" transform="translate(71.81 92.02) scale(1.04 1)"><tspan x="0" y="0">Yes</tspan></text>
    </g>
    <g>
      <line class="st7" x1="75.26" y1="294.8" x2="75.26" y2="368.5"/>
      <g>
        <line class="st2" x1="75.26" y1="294.8" x2="75.26" y2="366.24"/>
        <path d="M75.26,368.5c-.4-1.06-1.07-2.39-1.78-3.21l1.78.65,1.78-.65c-.71.82-1.39,2.14-1.78,3.21Z"/>
      </g>
    </g>
    <g>
      <g>
        <path class="st0" d="M80.22,300.47c0,1.49-1.28,2.72-2.83,2.72h-4.25c-1.56,0-2.83-1.22-2.83-2.72s1.28-2.72,2.83-2.72h4.25c1.56,0,2.83,1.22,2.83,2.72Z"/>
        <path class="st3" d="M80.22,300.47c0,1.49-1.28,2.72-2.83,2.72h-4.25c-1.56,0-2.83-1.22-2.83-2.72s1.28-2.72,2.83-2.72h4.25c1.56,0,2.83,1.22,2.83,2.72Z"/>
      </g>
      <text class="st10" transform="translate(71.81 301.9) scale(1.04 1)"><tspan x="0" y="0">Yes</tspan></text>
    </g>
    <g>
      <line class="st7" x1="75.26" y1="396.85" x2="75.26" y2="425.2"/>
      <g>
        <line class="st2" x1="75.26" y1="396.85" x2="75.26" y2="422.93"/>
        <path d="M75.26,425.2c-.4-1.06-1.07-2.39-1.78-3.21l1.78.65,1.78-.65c-.71.82-1.39,2.14-1.78,3.21Z"/>
      </g>
    </g>
    <g>
      <g>
        <path class="st0" d="M80.22,402.52c0,1.49-1.28,2.72-2.83,2.72h-4.25c-1.56,0-2.83-1.22-2.83-2.72s1.28-2.72,2.83-2.72h4.25c1.56,0,2.83,1.22,2.83,2.72Z"/>
        <path class="st3" d="M80.22,402.52c0,1.49-1.28,2.72-2.83,2.72h-4.25c-1.56,0-2.83-1.22-2.83-2.72s1.28-2.72,2.83-2.72h4.25c1.56,0,2.83,1.22,2.83,2.72Z"/>
      </g>
      <text class="st10" transform="translate(71.81 403.95) scale(1.04 1)"><tspan x="0" y="0">Yes</tspan></text>
    </g>
    <g>
      <polyline class="st2" points="180.14 85.04 180.14 102.05 77.52 102.05"/>
      <path d="M75.26,102.05c1.06-.4,2.39-1.07,3.21-1.78l-.65,1.78.65,1.78c-.82-.71-2.14-1.39-3.21-1.78Z"/>
    </g>
    <g>
      <line class="st2" x1="103.61" y1="70.87" x2="149.53" y2="70.87"/>
      <path d="M151.8,70.87c-1.06.4-2.39,1.07-3.21,1.78l.65-1.78-.65-1.78c.82.71,2.14,1.39,3.21,1.78Z"/>
    </g>
    <g>
      <g>
        <path class="st0" d="M116.36,70.75c0,1.49-1.28,2.72-2.83,2.72h-4.25c-1.56,0-2.83-1.22-2.83-2.72s1.28-2.72,2.83-2.72h4.25c1.56,0,2.83,1.22,2.83,2.72Z"/>
        <path class="st3" d="M116.36,70.75c0,1.49-1.28,2.72-2.83,2.72h-4.25c-1.56,0-2.83-1.22-2.83-2.72s1.28-2.72,2.83-2.72h4.25c1.56,0,2.83,1.22,2.83,2.72Z"/>
      </g>
      <text class="st10" transform="translate(107.96 72.18) scale(1.04 1)"><tspan x="0" y="0">Yes</tspan></text>
    </g>
    <g>
      <g>
        <path class="st0" d="M116.36,70.75c0,1.49-1.28,2.72-2.83,2.72h-4.25c-1.56,0-2.83-1.22-2.83-2.72s1.28-2.72,2.83-2.72h4.25c1.56,0,2.83,1.22,2.83,2.72Z"/>
        <path class="st3" d="M116.36,70.75c0,1.49-1.28,2.72-2.83,2.72h-4.25c-1.56,0-2.83-1.22-2.83-2.72s1.28-2.72,2.83-2.72h4.25c1.56,0,2.83,1.22,2.83,2.72Z"/>
      </g>
      <text class="st10" transform="translate(108.85 72.18) scale(1.04 1)"><tspan x="0" y="0">No</tspan></text>
    </g>
    <g>
      <polyline class="st2" points="180.14 138.9 180.14 155.91 77.52 155.91"/>
      <path d="M75.26,155.91c1.06-.4,2.39-1.07,3.21-1.78l-.65,1.78.65,1.78c-.82-.71-2.14-1.39-3.21-1.78Z"/>
    </g>
    <g>
      <line class="st2" x1="103.61" y1="124.72" x2="149.53" y2="124.72"/>
      <path d="M151.8,124.72c-1.06.4-2.39,1.07-3.21,1.78l.65-1.78-.65-1.78c.82.71,2.14,1.39,3.21,1.78Z"/>
    </g>
    <g>
      <g>
        <path class="st0" d="M116.36,124.61c0,1.49-1.28,2.72-2.83,2.72h-4.25c-1.56,0-2.83-1.22-2.83-2.72s1.28-2.72,2.83-2.72h4.25c1.56,0,2.83,1.22,2.83,2.72Z"/>
        <path class="st3" d="M116.36,124.61c0,1.49-1.28,2.72-2.83,2.72h-4.25c-1.56,0-2.83-1.22-2.83-2.72s1.28-2.72,2.83-2.72h4.25c1.56,0,2.83,1.22,2.83,2.72Z"/>
      </g>
      <text class="st10" transform="translate(107.96 126.04) scale(1.04 1)"><tspan x="0" y="0">Yes</tspan></text>
    </g>
    <g>
      <g>
        <path class="st0" d="M116.36,124.61c0,1.49-1.28,2.72-2.83,2.72h-4.25c-1.56,0-2.83-1.22-2.83-2.72s1.28-2.72,2.83-2.72h4.25c1.56,0,2.83,1.22,2.83,2.72Z"/>
        <path class="st3" d="M116.36,124.61c0,1.49-1.28,2.72-2.83,2.72h-4.25c-1.56,0-2.83-1.22-2.83-2.72s1.28-2.72,2.83-2.72h4.25c1.56,0,2.83,1.22,2.83,2.72Z"/>
      </g>
      <text class="st10" transform="translate(108.85 126.04) scale(1.04 1)"><tspan x="0" y="0">No</tspan></text>
    </g>
    <g>
      <polyline class="st2" points="180.14 396.85 180.14 413.86 77.52 413.86"/>
      <path d="M75.26,413.86c1.06-.4,2.39-1.07,3.21-1.78l-.65,1.78.65,1.78c-.82-.71-2.14-1.39-3.21-1.78Z"/>
    </g>
    <g>
      <line class="st2" x1="103.61" y1="382.68" x2="149.53" y2="382.68"/>
      <path d="M151.8,382.68c-1.06.4-2.39,1.07-3.21,1.78l.65-1.78-.65-1.78c.82.71,2.14,1.39,3.21,1.78Z"/>
    </g>
    <g>
      <g>
        <path class="st0" d="M116.36,382.56c0,1.49-1.28,2.72-2.83,2.72h-4.25c-1.56,0-2.83-1.22-2.83-2.72s1.28-2.72,2.83-2.72h4.25c1.56,0,2.83,1.22,2.83,2.72Z"/>
        <path class="st3" d="M116.36,382.56c0,1.49-1.28,2.72-2.83,2.72h-4.25c-1.56,0-2.83-1.22-2.83-2.72s1.28-2.72,2.83-2.72h4.25c1.56,0,2.83,1.22,2.83,2.72Z"/>
      </g>
      <text class="st10" transform="translate(107.96 383.99) scale(1.04 1)"><tspan x="0" y="0">Yes</tspan></text>
    </g>
    <g>
      <g>
        <path class="st0" d="M116.36,382.56c0,1.49-1.28,2.72-2.83,2.72h-4.25c-1.56,0-2.83-1.22-2.83-2.72s1.28-2.72,2.83-2.72h4.25c1.56,0,2.83,1.22,2.83,2.72Z"/>
        <path class="st3" d="M116.36,382.56c0,1.49-1.28,2.72-2.83,2.72h-4.25c-1.56,0-2.83-1.22-2.83-2.72s1.28-2.72,2.83-2.72h4.25c1.56,0,2.83,1.22,2.83,2.72Z"/>
      </g>
      <text class="st10" transform="translate(108.85 383.99) scale(1.04 1)"><tspan x="0" y="0">No</tspan></text>
    </g>
    <g>
      <polyline class="st2" points="180.14 238.11 180.14 255.12 77.52 255.12"/>
      <path d="M75.26,255.12c1.06-.4,2.39-1.07,3.21-1.78l-.65,1.78.65,1.78c-.82-.71-2.14-1.39-3.21-1.78Z"/>
    </g>
    <g>
      <line class="st2" x1="103.61" y1="178.58" x2="149.53" y2="178.58"/>
      <path d="M151.8,178.58c-1.06.4-2.39,1.07-3.21,1.78l.65-1.78-.65-1.78c.82.71,2.14,1.39,3.21,1.78Z"/>
    </g>
    <g>
      <g>
        <path class="st0" d="M116.36,178.47c0,1.49-1.28,2.72-2.83,2.72h-4.25c-1.56,0-2.83-1.22-2.83-2.72s1.28-2.72,2.83-2.72h4.25c1.56,0,2.83,1.22,2.83,2.72Z"/>
        <path class="st3" d="M116.36,178.47c0,1.49-1.28,2.72-2.83,2.72h-4.25c-1.56,0-2.83-1.22-2.83-2.72s1.28-2.72,2.83-2.72h4.25c1.56,0,2.83,1.22,2.83,2.72Z"/>
      </g>
      <text class="st10" transform="translate(107.96 179.9) scale(1.04 1)"><tspan x="0" y="0">Yes</tspan></text>
    </g>
    <g>
      <g>
        <path class="st0" d="M116.36,178.47c0,1.49-1.28,2.72-2.83,2.72h-4.25c-1.56,0-2.83-1.22-2.83-2.72s1.28-2.72,2.83-2.72h4.25c1.56,0,2.83,1.22,2.83,2.72Z"/>
        <path class="st3" d="M116.36,178.47c0,1.49-1.28,2.72-2.83,2.72h-4.25c-1.56,0-2.83-1.22-2.83-2.72s1.28-2.72,2.83-2.72h4.25c1.56,0,2.83,1.22,2.83,2.72Z"/>
      </g>
      <text class="st10" transform="translate(108.85 179.9) scale(1.04 1)"><tspan x="0" y="0">No</tspan></text>
    </g>
    <g>
      <line class="st7" x1="180.14" y1="294.8" x2="180.14" y2="311.81"/>
      <g>
        <line class="st2" x1="180.14" y1="294.8" x2="180.14" y2="309.55"/>
        <path d="M180.14,311.81c-.4-1.06-1.07-2.39-1.78-3.21l1.78.65,1.78-.65c-.71.82-1.39,2.14-1.78,3.21Z"/>
      </g>
    </g>
    <g>
      <polyline class="st2" points="180.14 340.16 180.14 357.17 77.52 357.17"/>
      <path d="M75.26,357.17c1.06-.4,2.39-1.07,3.21-1.78l-.65,1.78.65,1.78c-.82-.71-2.14-1.39-3.21-1.78Z"/>
    </g>
    <g>
      <line class="st2" x1="103.61" y1="280.63" x2="149.53" y2="280.63"/>
      <path d="M151.8,280.63c-1.06.4-2.39,1.07-3.21,1.78l.65-1.78-.65-1.78c.82.71,2.14,1.39,3.21,1.78Z"/>
    </g>
    <g>
      <g>
        <path class="st0" d="M116.36,280.51c0,1.49-1.28,2.72-2.83,2.72h-4.25c-1.56,0-2.83-1.22-2.83-2.72s1.28-2.72,2.83-2.72h4.25c1.56,0,2.83,1.22,2.83,2.72Z"/>
        <path class="st3" d="M116.36,280.51c0,1.49-1.28,2.72-2.83,2.72h-4.25c-1.56,0-2.83-1.22-2.83-2.72s1.28-2.72,2.83-2.72h4.25c1.56,0,2.83,1.22,2.83,2.72Z"/>
      </g>
      <text class="st10" transform="translate(107.96 281.94) scale(1.04 1)"><tspan x="0" y="0">Yes</tspan></text>
    </g>
    <g>
      <g>
        <path class="st0" d="M116.36,280.51c0,1.49-1.28,2.72-2.83,2.72h-4.25c-1.56,0-2.83-1.22-2.83-2.72s1.28-2.72,2.83-2.72h4.25c1.56,0,2.83,1.22,2.83,2.72Z"/>
        <path class="st3" d="M116.36,280.51c0,1.49-1.28,2.72-2.83,2.72h-4.25c-1.56,0-2.83-1.22-2.83-2.72s1.28-2.72,2.83-2.72h4.25c1.56,0,2.83,1.22,2.83,2.72Z"/>
      </g>
      <text class="st10" transform="translate(108.85 281.94) scale(1.04 1)"><tspan x="0" y="0">No</tspan></text>
    </g>
    <g>
      <line class="st7" x1="75.26" y1="453.54" x2="75.26" y2="464.88"/>
      <g>
        <line class="st2" x1="75.26" y1="453.54" x2="75.26" y2="462.62"/>
        <path d="M75.26,464.88c-.4-1.06-1.07-2.39-1.78-3.21l1.78.65,1.78-.65c-.71.82-1.39,2.14-1.78,3.21Z"/>
      </g>
    </g>
    <g>
      <g>
        <rect class="st7" x="46.91" y="31.18" width="56.69" height="14.17" rx="5.67" ry="5.67"/>
        <rect class="st3" x="46.91" y="31.18" width="56.69" height="14.17" rx="5.67" ry="5.67"/>
      </g>
      <text class="st9" transform="translate(71.04 39.62)"><tspan x="0" y="0">Start</tspan></text>
    </g>
    <g>
      <g>
        <rect class="st7" x="46.91" y="464.88" width="56.69" height="14.17" rx="5.67" ry="5.67"/>
        <rect class="st3" x="46.91" y="464.88" width="56.69" height="14.17" rx="5.67" ry="5.67"/>
      </g>
      <text class="st9" transform="translate(71.7 473.32)"><tspan x="0" y="0">End</tspan></text>
    </g>
  </g>
  <g id="Numbers">
    <g>
      <circle class="st1" cx="41.24" cy="124.72" r="5.67"/>
      <text class="st8" transform="translate(39.58 126.74)"><tspan x="0" y="0">3</tspan></text>
    </g>
    <g>
      <circle class="st1" cx="146.13" cy="62.36" r="5.67"/>
      <text class="st8" transform="translate(144.46 64.37)"><tspan x="0" y="0">2</tspan></text>
    </g>
    <g>
      <circle class="st1" cx="146.13" cy="116.22" r="5.67"/>
      <text class="st8" transform="translate(144.46 118.23)"><tspan x="0" y="0">4</tspan></text>
    </g>
    <g>
      <circle class="st1" cx="146.13" cy="374.17" r="5.67"/>
      <text class="st8" transform="translate(142.79 376.18)"><tspan x="0" y="0">12</tspan></text>
    </g>
    <g>
      <circle class="st1" cx="146.13" cy="170.08" r="5.67"/>
      <text class="st8" transform="translate(144.46 172.09)"><tspan x="0" y="0">6</tspan></text>
    </g>
    <g>
      <circle class="st1" cx="146.13" cy="223.94" r="5.67"/>
      <text class="st8" transform="translate(144.46 225.95)"><tspan x="0" y="0">7</tspan></text>
    </g>
    <g>
      <circle class="st1" cx="146.13" cy="272.13" r="5.67"/>
      <text class="st8" transform="translate(144.46 274.14)"><tspan x="0" y="0">9</tspan></text>
    </g>
    <g>
      <circle class="st1" cx="146.13" cy="325.98" r="5.67"/>
      <text class="st8" transform="translate(142.79 328)"><tspan x="0" y="0">10</tspan></text>
    </g>
    <g>
      <circle class="st1" cx="41.24" cy="439.37" r="5.67"/>
      <text class="st8" transform="translate(37.91 441.38)"><tspan x="0" y="0">13</tspan></text>
    </g>
    <g>
      <circle class="st1" cx="41.24" cy="70.87" r="5.67"/>
      <text class="st8" transform="translate(39.58 72.88)"><tspan x="0" y="0">1</tspan></text>
    </g>
    <g>
      <circle class="st1" cx="41.24" cy="178.58" r="5.67"/>
      <text class="st8" transform="translate(39.58 180.59)"><tspan x="0" y="0">5</tspan></text>
    </g>
    <g>
      <circle class="st1" cx="41.24" cy="280.63" r="5.67"/>
      <text class="st8" transform="translate(39.58 282.64)"><tspan x="0" y="0">8</tspan></text>
    </g>
    <g>
      <circle class="st1" cx="41.24" cy="382.68" r="5.67"/>
      <text class="st8" transform="translate(37.91 384.69)"><tspan x="0" y="0">11</tspan></text>
    </g>
    <text class="st8" transform="translate(12.9 17.01)"><tspan x="0" y="0">Customer / Remote support</tspan></text>
    <text class="st8" transform="translate(12.9 212.6)"><tspan x="0" y="0">Engineer</tspan></text>
  </g>
</svg>